<svg width="715" height="715" xmlns="http://www.w3.org/2000/svg" xmlns:xlink="http://www.w3.org/1999/xlink" xml:space="preserve" overflow="hidden"><defs><clipPath id="clip0"><rect x="1069" y="1666" width="715" height="715"/></clipPath><linearGradient x1="1095.94" y1="2022.95" x2="1757.28" y2="2022.95" gradientUnits="userSpaceOnUse" spreadMethod="pad" id="fill1"><stop offset="0" stop-color="#008EF0"/><stop offset="0.00127816" stop-color="#008EF0"/><stop offset="1" stop-color="#7FFDFF"/></linearGradient><clipPath id="clip2"><rect x="1259" y="1793" width="329" height="286"/></clipPath><clipPath id="clip3"><rect x="1259" y="1793" width="329" height="286"/></clipPath><clipPath id="clip4"><rect x="1259" y="1793" width="329" height="286"/></clipPath><clipPath id="clip5"><rect x="1259" y="2149" width="146" height="141"/></clipPath><clipPath id="clip6"><rect x="1259" y="2149" width="146" height="141"/></clipPath><clipPath id="clip7"><rect x="1259" y="2149" width="146" height="141"/></clipPath><linearGradient x1="74.0655" y1="70.2613" x2="141.209" y2="70.2613" gradientUnits="userSpaceOnUse" spreadMethod="pad" id="fill8"><stop offset="0" stop-color="#3B8270"/><stop offset="1" stop-color="#305C6E"/></linearGradient><linearGradient x1="3.96697" y1="70.2613" x2="71.9362" y2="70.2613" gradientUnits="userSpaceOnUse" spreadMethod="pad" id="fill9"><stop offset="0" stop-color="#4E7F98"/><stop offset="1" stop-color="#3BC0B5"/></linearGradient><linearGradient x1="3.96697" y1="109.477" x2="71.9362" y2="109.477" gradientUnits="userSpaceOnUse" spreadMethod="pad" id="fill10"><stop offset="0" stop-color="#30435C"/><stop offset="1" stop-color="#299AA9"/></linearGradient><linearGradient x1="74.5827" y1="108.98" x2="141.209" y2="108.98" gradientUnits="userSpaceOnUse" spreadMethod="pad" id="fill11"><stop offset="0" stop-color="#2E2C29"/><stop offset="1" stop-color="#323232"/></linearGradient><clipPath id="clip12"><rect x="1455" y="2152" width="150" height="131"/></clipPath><clipPath id="clip13"><rect x="1455" y="2152" width="150" height="131"/></clipPath><clipPath id="clip14"><rect x="1455" y="2152" width="150" height="131"/></clipPath></defs><g clip-path="url(#clip0)" transform="translate(-1069 -1666)"><path d="M1660.44 1789.13C1597.98 1726.67 1514.95 1692.27 1426.62 1692.27 1338.29 1692.27 1255.24 1726.67 1192.79 1789.13 1130.33 1851.58 1095.95 1934.63 1095.95 2022.94 1095.95 2111.26 1130.34 2194.31 1192.79 2256.76 1255.23 2319.22 1338.28 2353.62 1426.61 2353.62 1514.94 2353.62 1597.97 2319.22 1660.42 2256.76 1722.88 2194.31 1757.28 2111.27 1757.28 2022.94 1757.28 1934.61 1722.89 1851.58 1660.44 1789.13Z" fill="url(#fill1)"/><path d="M1426.62 2380.44C1331.13 2380.44 1241.35 2343.26 1173.83 2275.74 1106.3 2208.21 1069.12 2118.44 1069.12 2022.94 1069.12 1927.45 1106.3 1837.68 1173.83 1770.15 1241.35 1702.62 1331.13 1665.44 1426.62 1665.44 1522.11 1665.44 1611.88 1702.62 1679.41 1770.15 1746.94 1837.68 1784.12 1927.45 1784.12 2022.94 1784.12 2118.44 1746.94 2208.21 1679.41 2275.74 1611.88 2343.26 1522.11 2380.44 1426.62 2380.44ZM1426.62 1692.28C1338.29 1692.28 1255.26 1726.68 1192.8 1789.14 1130.34 1851.6 1095.95 1934.63 1095.95 2022.94 1095.95 2111.26 1130.34 2194.31 1192.79 2256.76 1255.23 2319.22 1338.28 2353.62 1426.61 2353.62 1514.94 2353.62 1597.97 2319.22 1660.42 2256.76 1722.88 2194.31 1757.28 2111.27 1757.28 2022.94 1757.28 1934.61 1722.88 1851.58 1660.42 1789.13 1597.97 1726.67 1514.94 1692.28 1426.62 1692.28Z" fill="#FFFFFF"/><g clip-path="url(#clip2)"><g clip-path="url(#clip3)"><g clip-path="url(#clip4)"><path d="M240.488 284.964C229.705 284.964 218.936 282.761 208.868 278.339 188.424 269.365 172.709 252.045 165.763 230.828L163.108 222.715 160.452 230.828C153.506 252.045 137.791 269.365 117.348 278.354 96.9044 287.328 73.5283 287.182 53.2018 277.945L24.5872 264.944C9.61601 258.144 0 243.217 0 226.772L0 121.565C0 113.714 5.64704 107.002 13.3807 105.674 58.5279 97.882 110.3 93.7526 163.108 93.7526 180.37 93.7526 197.515 94.1903 214.354 95.0512 232.214 95.9705 245.727 111.598 244.18 129.43 218.002 127.168 190.73 126.015 163.108 126.015 117.275 126.015 72.3609 129.211 32.248 135.296L32.248 226.786C32.248 230.58 34.4659 234.024 37.9242 235.6L65.2839 248.047C77.5556 253.621 91.7389 254.321 104.113 248.966 116.472 243.611 125.592 233.615 129.78 220.833L135.193 204.286C139.133 192.233 150.135 183.478 162.816 183.376 175.715 183.259 186.673 191.138 190.672 203.366L195.968 219.534C200.171 232.346 209.232 243.246 221.533 248.747 233.834 254.248 247.39 254.204 259.633 248.63L288.247 235.629C291.705 234.053 293.923 230.609 293.923 226.816L293.923 0 326.186 0 326.186 226.743C326.186 243.188 316.57 258.115 301.599 264.915L272.984 277.916C262.711 282.615 251.607 284.964 240.488 284.964Z" fill="#FFFFFF" transform="matrix(1.00044 0 0 1 1260 1793)"/></g></g></g><g clip-path="url(#clip5)"><g clip-path="url(#clip6)"><g clip-path="url(#clip7)"><path d="M144.95 87.1301 75.2459 138.669C74.3223 139.347 72.9676 139.408 72.0439 138.731L1.23152 88.6695C-0.123152 87.6842-0.431032 85.7138 0.677336 84.4207L70.3198 0.92364C71.305-0.30788 73.1523-0.30788 74.1991 0.92364L145.319 83.9281C146.12 84.9133 145.997 86.3912 144.95 87.1301Z" fill="#FFF4FC" transform="matrix(1 0 0 1.00558 1259.06 2149)"/><path d="M141.194 85.4059 74.938 134.359 74.5686 84.4823 74.076 6.1576 139.654 83.5587Z" fill="url(#fill8)" transform="matrix(1 0 0 1.00558 1259.06 2149)"/><path d="M3.94087 86.4527 71.9208 134.359 70.3814 6.1576Z" fill="url(#fill9)" transform="matrix(1 0 0 1.00558 1259.06 2149)"/><path d="M71.3666 84.6054 4.43347 85.8986 3.94087 86.4527 71.9208 134.359Z" fill="url(#fill10)" transform="matrix(1 0 0 1.00558 1259.06 2149)"/><path d="M74.5686 84.4823 139.654 83.5587 141.194 85.4059 74.938 134.359Z" fill="url(#fill11)" transform="matrix(1 0 0 1.00558 1259.06 2149)"/><path d="M74.5686 83.8665 139.654 82.9429M71.3666 83.9897 4.43347 85.2828M71.0587 62.1302C56.6499 51.1081 50.5539 49.384 48.2756 51.2312 41.9948 56.4652 65.2706 90.5168 55.9726 99.0758 53.2633 101.539 47.6598 102.093 36.884 103.14 33.5589 103.448 30.788 103.571 29.0023 103.571M96.5512 83.5587 74.4454 64.2238M59.8519 18.2881C59.6672 21.3053 59.7903 27.2782 62.8691 33.8668 65.3322 39.1623 68.7188 42.6106 70.874 44.5195M123.706 97.7211C124.26 96.9207 131.157 86.7606 126.908 77.2163 123.768 70.1351 116.071 66.8716 114.901 66.379 113.361 65.7016 113.3 65.8863 106.095 63.5465 101.724 62.0686 99.5069 61.3913 97.598 60.6524 94.6423 59.544 88.9158 57.3273 82.3887 53.1401 80.2336 51.7854 77.4626 49.815 74.3223 47.2288" stroke="#98C9C0" stroke-width="1.23152" stroke-miterlimit="10" fill="none" transform="matrix(1 0 0 1.00558 1259.06 2149)"/></g></g></g><g clip-path="url(#clip12)"><g clip-path="url(#clip13)"><g clip-path="url(#clip14)"><path d="M27.3534 0.638173 0.114431 57.8537C-0.0983245 58.2903-0.00199919 58.8149 0.352096 59.1477L73.9181 129.642C74.3525 130.058 75.0373 130.058 75.4717 129.642L149.038 59.1521C149.392 58.8193 149.488 58.2947 149.275 57.8581L122.036 0.642574C121.857 0.250125 121.465-0.00113663 121.033 1.67892e-08L28.3657 0C27.932-0.00539591 27.5355 0.244519 27.3534 0.638173L27.3534 0.638173Z" fill="#50AF95" fill-rule="evenodd" transform="matrix(1.00408 0 0 1 1455 2153.02)"/><path d="M84.1464 63.7293 84.1464 63.7293C83.6183 63.7689 80.8896 63.9318 74.8027 63.9318 69.9614 63.9318 66.5241 63.7865 65.3181 63.7293L65.3181 63.7293C46.6087 62.9063 32.6437 59.6494 32.6437 55.7499 32.6437 51.8505 46.6087 48.598 65.3181 47.7618L65.3181 60.4856C66.5417 60.5736 70.045 60.7805 74.8863 60.7805 80.6959 60.7805 83.6051 60.5384 84.1288 60.49L84.1288 47.7706C102.799 48.6024 116.733 51.8593 116.733 55.7499 116.733 59.6406 102.803 62.8975 84.1288 63.7249L84.1288 63.7249ZM84.1464 46.4546 84.1464 35.0687 110.202 35.0687 110.202 17.706 39.2631 17.706 39.2631 35.0687 65.3137 35.0687 65.3137 46.4502C44.1396 47.4229 28.2161 51.6172 28.2161 56.6434 28.2161 61.6695 44.1396 65.8595 65.3137 66.8365L65.3137 103.322 84.142 103.322 84.142 66.8233C105.268 65.8507 121.165 61.6607 121.165 56.639 121.165 51.6172 105.281 47.4273 84.142 46.4502L84.142 46.4502ZM84.1464 46.4546 84.1464 46.4546Z" fill="#FFFFFF" fill-rule="evenodd" transform="matrix(1.00408 0 0 1 1455 2153.02)"/></g></g></g></g></svg>