<?xml version="1.0" encoding="UTF-8" standalone="no"?>
<!DOCTYPE svg PUBLIC "-//W3C//DTD SVG 1.1//EN" "http://www.w3.org/Graphics/SVG/1.1/DTD/svg11.dtd">

<!-- Created with Vectornator (http://vectornator.io/) -->
<svg height="100%" stroke-miterlimit="10" style="fill-rule:nonzero;clip-rule:evenodd;stroke-linecap:round;stroke-linejoin:round;" version="1.1" viewBox="0 0 500 500" width="100%" xml:space="preserve" xmlns="http://www.w3.org/2000/svg" xmlns:vectornator="http://vectornator.io" xmlns:xlink="http://www.w3.org/1999/xlink">
<metadata>
<vectornator:setting key="IsTimeLapseWatermarkDisabled" value="false"/>
<vectornator:setting key="UndoHistoryDisabled" value="true"/>
<vectornator:setting key="VNDimensionsVisible" value="true"/>
<vectornator:setting key="VNSnapToGuides" value="true"/>
<vectornator:setting key="WDCMYKEnabledKey" value="false"/>
<vectornator:setting key="WDDisplayWhiteBackground" value="false"/>
<vectornator:setting key="WDDynamicGuides" value="false"/>
<vectornator:setting key="WDGuidesVisible" value="true"/>
<vectornator:setting key="WDIsolateActiveLayer" value="false"/>
<vectornator:setting key="WDOutlineMode" value="false"/>
<vectornator:setting key="WDRulersVisible" value="true"/>
<vectornator:setting key="WDSnapToEdges" value="false"/>
<vectornator:setting key="WDSnapToGrid" value="false"/>
<vectornator:setting key="WDSnapToPoints" value="false"/>
<vectornator:setting key="WDUnits" value="Pixels"/>
</metadata>
<defs/>
<g id="Layer-1" vectornator:layerName="Layer 1">
<path d="M2.41761 250C2.41761 113.286 113.285 2.41791 250 2.41791C386.713 2.41791 497.582 113.286 497.582 250C497.582 386.715 386.713 497.582 250 497.582C113.285 497.582 2.41761 386.715 2.41761 250Z" fill="#ffffff" fill-rule="evenodd" opacity="1" stroke="#000000" stroke-linecap="butt" stroke-linejoin="miter" stroke-width="0.914456"/>
<g opacity="1">
<path d="M126.023 278.229L266.356 278.229L266.356 315.651L126.023 315.651L126.023 278.229Z" fill="#fb8c00" fill-rule="evenodd" opacity="1" stroke="none"/>
<path d="M111.989 399.851C88.6005 399.851 69.8894 381.14 69.8894 357.751C69.8894 334.363 88.6005 315.651 111.989 315.651L280.389 315.651C303.778 315.651 322.489 334.363 322.489 357.751C322.489 381.14 303.778 399.851 280.389 399.851L111.989 399.851Z" fill="#37474f" fill-rule="evenodd" opacity="1" stroke="none"/>
<path d="M280.389 325.007C298.164 325.007 313.133 339.976 313.133 357.751C313.133 375.527 298.164 390.496 280.389 390.496L111.989 390.496C94.2138 390.496 79.245 375.527 79.245 357.751C79.245 339.976 94.2138 325.007 111.989 325.007L280.389 325.007M280.389 306.296L111.989 306.296C83.9227 306.296 60.5339 329.685 60.5339 357.751C60.5339 385.818 83.9227 409.207 111.989 409.207L280.389 409.207C308.455 409.207 331.844 385.818 331.844 357.751C331.844 329.685 308.455 306.296 280.389 306.296Z" fill="#607d8b" fill-rule="evenodd" opacity="1" stroke="none"/>
<path d="M111.989 343.718C104.505 343.718 97.956 350.267 97.956 357.751C97.956 365.236 104.505 371.785 111.989 371.785C119.474 371.785 126.023 365.236 126.023 357.751C126.023 350.267 119.474 343.718 111.989 343.718ZM168.122 343.718C160.638 343.718 154.089 350.267 154.089 357.751C154.089 365.236 160.638 371.785 168.122 371.785C175.607 371.785 182.156 365.236 182.156 357.751C182.156 350.267 175.607 343.718 168.122 343.718ZM224.256 343.718C216.771 343.718 210.222 350.267 210.222 357.751C210.222 365.236 216.771 371.785 224.256 371.785C231.74 371.785 238.289 365.236 238.289 357.751C238.289 350.267 231.74 343.718 224.256 343.718ZM280.389 343.718C272.904 343.718 266.356 350.267 266.356 357.751C266.356 365.236 272.904 371.785 280.389 371.785C287.873 371.785 294.422 365.236 294.422 357.751C294.422 350.267 287.873 343.718 280.389 343.718Z" fill="#ffc107" fill-rule="evenodd" opacity="1" stroke="none"/>
<path d="M426.335 217.418L347.749 77.0855L253.258 154.736L242.031 139.768L353.362 49.0189L443.175 208.063L426.335 217.418Z" fill="#607d8b" fill-rule="evenodd" opacity="1" stroke="none"/>
<path d="M369.266 63.0522C369.266 73.3433 360.846 81.7633 350.555 81.7633C340.264 81.7633 331.844 73.3433 331.844 63.0522C331.844 52.7611 340.264 44.3411 350.555 44.3411C360.846 44.3411 369.266 52.7611 369.266 63.0522Z" fill="#37474f" fill-rule="evenodd" opacity="1" stroke="none"/>
<path d="M444.111 212.741L444.111 278.229C444.111 294.134 431.948 306.296 416.044 306.296L350.555 306.296L425.4 212.741L444.111 212.741Z" fill="#607d8b" fill-rule="evenodd" opacity="1" stroke="none"/>
<path d="M453.466 212.741C453.466 223.032 445.046 231.452 434.755 231.452C424.464 231.452 416.044 223.032 416.044 212.741C416.044 202.45 424.464 194.03 434.755 194.03C445.046 194.03 453.466 202.45 453.466 212.741Z" fill="#37474f" fill-rule="evenodd" opacity="1" stroke="none"/>
<path d="M107.312 194.03L285.067 194.03C295.358 194.03 303.778 202.45 303.778 212.741L303.778 268.874C303.778 279.165 295.358 287.585 285.067 287.585L107.312 287.585C97.0205 287.585 88.6005 279.165 88.6005 268.874L88.6005 212.741C88.6005 202.45 97.0205 194.03 107.312 194.03Z" fill="#ffc107" fill-rule="evenodd" opacity="1" stroke="none"/>
<path d="M172.8 222.096L172.8 137.896C172.8 132.283 176.542 128.541 182.156 128.541L216.771 128.541C227.062 128.541 237.353 133.219 243.902 141.639L288.809 198.707C292.551 203.385 294.422 209.934 294.422 215.547L294.422 222.096L172.8 222.096Z" fill="#bbdefb" fill-rule="evenodd" opacity="1" stroke="none"/>
<path d="M216.771 137.896C224.256 137.896 231.74 141.639 236.418 147.252L281.324 204.321C283.195 206.192 284.131 208.998 285.067 211.805L182.156 211.805L182.156 136.961L216.771 136.961M216.771 119.185L182.156 119.185C171.865 119.185 163.445 127.605 163.445 137.896L163.445 231.452L303.778 231.452L303.778 216.483C303.778 208.063 300.971 200.578 296.293 194.03L251.387 136.961C242.967 125.734 230.805 119.185 216.771 119.185Z" fill="#37474f" fill-rule="evenodd" opacity="1" stroke="none"/>
</g>
</g>
</svg>
