<svg width="716" height="716" xmlns="http://www.w3.org/2000/svg" xmlns:xlink="http://www.w3.org/1999/xlink" xml:space="preserve" overflow="hidden"><defs><clipPath id="clip0"><rect x="2462" y="950" width="716" height="716"/></clipPath><linearGradient x1="2488.98" y1="1307.45" x2="3151.25" y2="1307.45" gradientUnits="userSpaceOnUse" spreadMethod="pad" id="fill1"><stop offset="0" stop-color="#008EF0"/><stop offset="0.00127816" stop-color="#008EF0"/><stop offset="1" stop-color="#7FFDFF"/></linearGradient><clipPath id="clip2"><rect x="2654" y="1076" width="326" height="287"/></clipPath><clipPath id="clip3"><rect x="2654" y="1076" width="326" height="287"/></clipPath><clipPath id="clip4"><rect x="2654" y="1076" width="326" height="287"/></clipPath><clipPath id="clip5"><rect x="2655" y="1443" width="125" height="113"/></clipPath><clipPath id="clip6"><rect x="2655" y="1443" width="125" height="113"/></clipPath><clipPath id="clip7"><rect x="2655" y="1443" width="125" height="113"/></clipPath><clipPath id="clip8"><rect x="2851" y="1435" width="128" height="129"/></clipPath><clipPath id="clip9"><rect x="2851" y="1435" width="128" height="129"/></clipPath><clipPath id="clip10"><rect x="2851" y="1435" width="128" height="129"/></clipPath></defs><g clip-path="url(#clip0)" transform="translate(-2462 -950)"><path d="M3054.26 1073.3C2991.72 1010.75 2908.57 976.306 2820.12 976.306 2731.67 976.306 2648.5 1010.75 2585.96 1073.3 2523.42 1135.84 2488.98 1219 2488.98 1307.44 2488.98 1395.88 2523.43 1479.04 2585.96 1541.59 2648.49 1604.13 2731.65 1638.58 2820.11 1638.58 2908.56 1638.58 2991.71 1604.13 3054.25 1541.59 3116.8 1479.04 3151.24 1395.9 3151.24 1307.44 3151.24 1218.99 3116.81 1135.84 3054.26 1073.3Z" fill="url(#fill1)"/><path d="M2820.12 1665.44C2724.49 1665.44 2634.6 1628.21 2566.97 1560.59 2499.35 1492.97 2462.12 1403.07 2462.12 1307.44 2462.12 1211.82 2499.35 1121.92 2566.97 1054.3 2634.6 986.675 2724.49 949.443 2820.12 949.443 2915.75 949.443 3005.64 986.675 3073.27 1054.3 3140.89 1121.92 3178.12 1211.82 3178.12 1307.44 3178.12 1403.07 3140.89 1492.97 3073.27 1560.59 3005.64 1628.21 2915.75 1665.44 2820.12 1665.44ZM2820.12 976.32C2731.67 976.32 2648.52 1010.77 2585.97 1073.31 2523.43 1135.86 2488.98 1219 2488.98 1307.44 2488.98 1395.88 2523.43 1479.04 2585.96 1541.59 2648.49 1604.13 2731.65 1638.58 2820.11 1638.58 2908.56 1638.58 2991.71 1604.13 3054.25 1541.59 3116.8 1479.04 3151.24 1395.9 3151.24 1307.44 3151.24 1218.99 3116.8 1135.84 3054.25 1073.3 2991.71 1010.75 2908.56 976.32 2820.12 976.32Z" fill="#FFFFFF"/><g clip-path="url(#clip2)"><g clip-path="url(#clip3)"><g clip-path="url(#clip4)"><path d="M239.857 284.217C229.102 284.217 218.362 282.019 208.32 277.609 187.93 268.659 172.256 251.384 165.329 230.223L162.68 222.131 160.031 230.223C153.104 251.384 137.429 268.659 117.04 277.624 96.6502 286.574 73.3354 286.429 53.0623 277.216L24.5228 264.249C9.59079 257.467 0 242.579 0 226.177L0 121.246C0 113.416 5.63223 106.721 13.3456 105.397 58.3744 97.6253 110.01 93.5067 162.68 93.5067 179.897 93.5067 196.997 93.9433 213.792 94.8019 231.605 95.7188 245.082 111.306 243.539 129.09 217.43 126.834 190.23 125.685 162.68 125.685 116.967 125.685 72.1711 128.872 32.1634 134.941L32.1634 226.192C32.1634 229.975 34.3755 233.41 37.8247 234.982L65.1127 247.396C77.3522 252.956 91.4983 253.654 103.84 248.313 116.167 242.972 125.263 233.003 129.439 220.254L134.839 203.75C138.768 191.729 149.742 182.997 162.389 182.895 175.254 182.778 186.184 190.637 190.171 202.833L195.454 218.958C199.646 231.736 208.684 242.608 220.952 248.095 233.221 253.581 246.741 253.538 258.952 247.978L287.491 235.011C290.94 233.439 293.152 230.005 293.152 226.221L293.152 0 325.33 0 325.33 226.148C325.33 242.55 315.74 257.438 300.808 264.22L272.268 277.187C262.022 281.873 250.947 284.217 239.857 284.217Z" fill="#FFFFFF" transform="matrix(1 0 0 1.00263 2654 1077)"/></g></g></g><g clip-path="url(#clip5)"><g clip-path="url(#clip6)"><g clip-path="url(#clip7)"><path d="M94.4009 33.2031C92.1222 31.901 89.1925 31.901 86.5884 33.2031L68.3592 43.9452 55.9895 50.7812 38.0859 61.5233C35.8072 62.8254 32.8775 62.8254 30.2734 61.5233L16.276 53.0598C13.9974 51.7577 12.3698 49.1536 12.3698 46.2239L12.3698 29.9479C12.3698 27.3437 13.6718 24.7395 16.276 23.1119L30.2734 14.9739C32.552 13.6718 35.4817 13.6718 38.0859 14.9739L52.0832 23.4375C54.3619 24.7395 55.9895 27.3437 55.9895 30.2734L55.9895 41.0155 68.3592 33.8541 68.3592 22.7864C68.3592 20.1823 67.0572 17.5781 64.453 15.9505L38.4114 0.65104C36.1327-0.65104 33.2031-0.65104 30.5989 0.65104L3.90624 16.276C1.30208 17.5781 0 20.1823 0 22.7864L0 53.3853C0 55.9895 1.30208 58.5936 3.90624 60.2212L30.2734 75.5207C32.552 76.8228 35.4817 76.8228 38.0859 75.5207L55.9895 65.104 68.3592 57.9426 86.2629 47.526C88.5415 46.2239 91.4712 46.2239 94.0753 47.526L108.073 55.664C110.351 56.966 111.979 59.5702 111.979 62.4999L111.979 78.7759C111.979 81.3801 110.677 83.9842 108.073 85.6118L94.4009 93.7498C92.1222 95.0519 89.1925 95.0519 86.5884 93.7498L72.591 85.6118C70.3124 84.3097 68.6848 81.7056 68.6848 78.7759L68.6848 68.3592 56.315 75.5207 56.315 86.2629C56.315 88.867 57.6171 91.4712 60.2212 93.0988L86.5884 108.398C88.867 109.7 91.7967 109.7 94.4009 108.398L120.768 93.0988C123.047 91.7967 124.674 89.1925 124.674 86.2629L124.674 55.3384C124.674 52.7343 123.372 50.1301 120.768 48.5025L94.4009 33.2031Z" fill="#8247E5" transform="matrix(1 0 0 1.00141 2655 1444.4)"/></g></g></g><g clip-path="url(#clip8)"><g clip-path="url(#clip9)"><g clip-path="url(#clip10)"><path d="M2915 1563C2950.47 1563 2979 1534.47 2979 1499 2979 1463.53 2950.47 1435 2915 1435 2879.53 1435 2851 1463.53 2851 1499 2851 1534.47 2879.53 1563 2915 1563Z" fill="#2775CA"/><path d="M2932.6 1509.13C2932.6 1499.8 2927 1496.6 2915.8 1495.27 2907.8 1494.2 2906.2 1492.07 2906.2 1488.33 2906.2 1484.6 2908.87 1482.2 2914.2 1482.2 2919 1482.2 2921.67 1483.8 2923 1487.8 2923.27 1488.6 2924.07 1489.13 2924.87 1489.13L2929.13 1489.13C2930.2 1489.13 2931 1488.33 2931 1487.27L2931 1487C2929.93 1481.13 2925.13 1476.6 2919 1476.07L2919 1469.67C2919 1468.6 2918.2 1467.8 2916.87 1467.53L2912.87 1467.53C2911.8 1467.53 2911 1468.33 2910.73 1469.67L2910.73 1475.8C2902.73 1476.87 2897.67 1482.2 2897.67 1488.87 2897.67 1497.67 2903 1501.13 2914.2 1502.47 2921.67 1503.8 2924.07 1505.4 2924.07 1509.67 2924.07 1513.93 2920.33 1516.87 2915.27 1516.87 2908.33 1516.87 2905.93 1513.93 2905.13 1509.93 2904.87 1508.87 2904.07 1508.33 2903.27 1508.33L2898.73 1508.33C2897.67 1508.33 2896.87 1509.13 2896.87 1510.2L2896.87 1510.47C2897.93 1517.13 2902.2 1521.93 2911 1523.27L2911 1529.67C2911 1530.73 2911.8 1531.53 2913.13 1531.8L2917.13 1531.8C2918.2 1531.8 2919 1531 2919.27 1529.67L2919.27 1523.27C2927.27 1521.93 2932.6 1516.33 2932.6 1509.13Z" fill="#FFFFFF"/><path d="M2901.4 1537.13C2880.6 1529.67 2869.93 1506.47 2877.67 1485.93 2881.67 1474.73 2890.47 1466.2 2901.4 1462.2 2902.47 1461.67 2903 1460.87 2903 1459.53L2903 1455.8C2903 1454.73 2902.47 1453.93 2901.4 1453.67 2901.13 1453.67 2900.6 1453.67 2900.33 1453.93 2875 1461.93 2861.13 1488.87 2869.13 1514.2 2873.93 1529.13 2885.4 1540.6 2900.33 1545.4 2901.4 1545.93 2902.47 1545.4 2902.73 1544.33 2903 1544.07 2903 1543.8 2903 1543.27L2903 1539.53C2903 1538.73 2902.2 1537.67 2901.4 1537.13ZM2929.67 1453.93C2928.6 1453.4 2927.53 1453.93 2927.27 1455 2927 1455.27 2927 1455.53 2927 1456.07L2927 1459.8C2927 1460.87 2927.8 1461.93 2928.6 1462.47 2949.4 1469.93 2960.07 1493.13 2952.33 1513.67 2948.33 1524.87 2939.53 1533.4 2928.6 1537.4 2927.53 1537.93 2927 1538.73 2927 1540.07L2927 1543.8C2927 1544.87 2927.53 1545.67 2928.6 1545.93 2928.87 1545.93 2929.4 1545.93 2929.67 1545.67 2955 1537.67 2968.87 1510.73 2960.87 1485.4 2956.07 1470.2 2944.33 1458.73 2929.67 1453.93Z" fill="#FFFFFF"/></g></g></g></g></svg>