<svg xmlns="http://www.w3.org/2000/svg" viewBox="0 0 487.95 543.84"><defs><style>.cls-1{fill:#fff;}.cls-2{opacity:0.3;}.cls-3{fill:#390176;}.cls-4{opacity:0.6;}.cls-5{fill:#f962bb;}.cls-6{opacity:0.2;}.cls-7{fill:#390075;}.cls-8{fill:#fb64c0;}</style></defs><g id="Layer_2" data-name="Layer 2"><g id="Layer_1-2" data-name="Layer 1"><path class="cls-1" d="M59.09,223.67c0,18.71,4.18,35.43,11.81,50.11a109.19,109.19,0,0,0,21.64,28.55,124.27,124.27,0,0,0,9.69,8.36h0c34,26.59,85.18,40.22,142.38,40.22,7.41,0,14.74-.23,21.93-.68h0c48.24-3.08,90.82-16.41,120.44-39.54h0c2.92-2.28,5.72-4.65,8.38-7.14,21.87-20.27,34.74-47,34.74-79.88a132.56,132.56,0,0,0-4.74-35,138.93,138.93,0,0,0-4.32-13.23l.28.22c-4.15-36.18-8.61-71.38-16.1-104.69a410.51,410.51,0,0,0-12.88-45.63A30,30,0,0,0,346.93,10.5c-23.38,16.34-46,39.35-59,58.55a204.49,204.49,0,0,0-40.55-4,208.39,208.39,0,0,0-46.58,5.25l1.54-1.22c-13-19.2-35.62-42.21-59-58.55A30,30,0,0,0,97.91,25.32C85.38,61.11,78.51,99.94,73.19,140.44c-1.46,11.25-2.81,22.65-4.14,34.14A128.65,128.65,0,0,0,59.09,223.67Z"/><g class="cls-2"><path class="cls-3" d="M70.47,218.58c0,18.7,4.18,35.42,11.81,50.11a109,109,0,0,0,21.64,28.54,124.27,124.27,0,0,0,9.69,8.36s0,0,0,0c34,26.58,85.18,40.22,142.38,40.22,7.41,0,14.74-.23,21.93-.69h0c27-1.72,52.25-6.65,74.44-14.75a158.59,158.59,0,0,0,33.34-19.69h0c2.92-2.28,5.73-4.65,8.39-7.14q3.15-2.93,6.07-6c-27.72,15.6-62.95,24.77-101.86,27.24h0q-10.79.69-21.93.69c-57.2,0-108.35-13.64-142.38-40.22,0,0,0,0,0,0a124.27,124.27,0,0,1-9.69-8.36,109,109,0,0,1-21.64-28.54C95,233.61,90.86,216.89,90.86,198.18a128.69,128.69,0,0,1,10-49.09c1.33-11.49,2.68-22.88,4.15-34.14,5-38.47,11.49-75.43,22.87-109.71a29.7,29.7,0,0,0-7.42.23c-4.94,3.46-10.11,7.24-12.48,13.46C95.34,52.05,88.4,95,83.09,135.54c-1.47,11.26-2.92,22.49-4.25,34C72.39,185.19,70.47,201.69,70.47,218.58Z"/></g><g class="cls-4"><path class="cls-1" d="M345.65,10.5q-3,2.09-5.94,4.31a30,30,0,0,1,41.19,17.3c16.11,46.05,22.88,97.14,29,150.32l-.28-.21a134.79,134.79,0,0,1,9.06,48.25c0,32.88-12.87,59.6-34.74,79.88q-4,3.72-8.38,7.13s0,0,0,0q-1.78,1.39-3.64,2.74a144.35,144.35,0,0,0,13.83-9.54h0c2.92-2.28,5.73-4.65,8.39-7.14,21.87-20.27,34.74-47,34.74-79.88a134.88,134.88,0,0,0-9.06-48.25l.28.22c-6.11-53.18-12.87-104.27-29-150.32A30,30,0,0,0,345.65,10.5Z"/></g><g class="cls-4"><path class="cls-1" d="M103.59,14.11a29.64,29.64,0,0,1,28.29,3.18c20.7,14.47,40.8,34.17,54.16,51.82a13.55,13.55,0,0,0,13.09,5.1h.09c.77-1.42,1.61-2.94,2.42-4.4l-2.11.47,1.54-1.22c-13-19.2-35.62-42.21-59-58.55A29.9,29.9,0,0,0,103.59,14.11Z"/></g><path class="cls-5" d="M334.55,85.32c7.85-14.37,18-28,25.33-37.08a7.45,7.45,0,0,1,13.06,3c3.57,15.25,8.59,41,9.31,67.73v0"/><g class="cls-4"><path class="cls-1" d="M327.76,92.85l33.57,22.43a23.74,23.74,0,0,0,20.11,3h0L334.55,85.32c7.85-14.37,18-28,25.33-37.08a.24.24,0,0,1,.08-.09,7.45,7.45,0,0,0-11.55.09,342.67,342.67,0,0,0-23.27,32.44A9,9,0,0,0,327.76,92.85Z"/></g><g class="cls-2"><path class="cls-3" d="M357.05,51.79a7.77,7.77,0,0,1,.6,1.66,371.75,371.75,0,0,1,8.6,54.23l16,11.29v0c-.72-26.73-5.74-52.48-9.31-67.73a7.45,7.45,0,0,0-13.06-3Q358.52,49.92,357.05,51.79Z"/></g><path class="cls-5" d="M105.47,119v0c.73-26.73,5.75-52.48,9.32-67.73a7.44,7.44,0,0,1,13.06-3c7.32,9.08,17.48,22.71,25.33,37.08"/><g class="cls-4"><path class="cls-1" d="M105.47,120.57h0l.11-4.82c1-25.57,5.78-49.89,9.21-64.53a7.67,7.67,0,0,1,1.36-2.91,7.46,7.46,0,0,0-9.43,5.46,363.86,363.86,0,0,0-9,59.47A6.93,6.93,0,0,0,105.47,120.57Z"/></g><g class="cls-2"><path class="cls-3" d="M113.44,57.2a7.26,7.26,0,0,1,1.25,1.23c7.2,8.95,17.17,22.3,24.95,36.44l13.54-9.55c-7.85-14.37-18-28-25.33-37.08a7.45,7.45,0,0,0-13.06,3C114.36,53.07,113.91,55.05,113.44,57.2Z"/></g><path d="M379.28,122.29a237.45,237.45,0,0,0-46.81-33,4.41,4.41,0,0,1-2.19-2.65,4.5,4.5,0,0,1,.36-3.43c8.06-14.75,18.46-28.67,25.76-37.74a11.91,11.91,0,0,1,20.88,4.76c3.91,16.7,8.71,42.16,9.43,68.63V119a4.46,4.46,0,0,1-2.63,4.07,4.52,4.52,0,0,1-1.82.39A4.44,4.44,0,0,1,379.28,122.29ZM363.35,51a269.79,269.79,0,0,0-22.69,32.53,242.63,242.63,0,0,1,36.65,25.26,357.53,357.53,0,0,0-8.72-56.59A2.9,2.9,0,0,0,366.34,50a3.06,3.06,0,0,0-.7-.08A2.86,2.86,0,0,0,363.35,51Z"/><path d="M109.42,322.91C72.32,299.29,52.71,265,52.71,223.67a133.53,133.53,0,0,1,10.07-50.35c6.06-52.61,12.92-103.62,29-149.68A35,35,0,0,1,114.26,1.71,34.7,34.7,0,0,1,145,6.32c22,15.4,44.87,37.87,58.87,57.82a213.54,213.54,0,0,1,80.5-.73c14-19.76,36.61-41.88,58.36-57.09a34.69,34.69,0,0,1,30.73-4.61,35,35,0,0,1,22.45,21.93c16.29,46.57,23.12,98.2,29.23,151.42a.28.28,0,0,1,0,.09A139.56,139.56,0,0,1,434,223.67c0,41.31-19.61,75.62-56.7,99.24-34,21.66-80.33,33.11-133.92,33.11S143.44,344.57,109.42,322.91ZM386.29,27a24.85,24.85,0,0,0-16-15.59,24.53,24.53,0,0,0-21.76,3.26C326.73,30,304.09,52.41,290.88,71.91A5.09,5.09,0,0,1,285.65,74a203.36,203.36,0,0,0-83.48.88A5.1,5.1,0,0,1,196,70.71c-13.31-19.21-35.48-41.07-56.87-56a24.55,24.55,0,0,0-21.77-3.26,24.86,24.86,0,0,0-16,15.59C85.5,72.58,78.75,123.59,72.71,176.22a5,5,0,0,1-1.2,2.75,122.87,122.87,0,0,0-8.6,44.7c0,37.64,18,69,52,90.64,31.93,20.32,77.54,31.52,128.45,31.52s96.53-11.2,128.45-31.52c34-21.65,52-53,52-90.64a129.64,129.64,0,0,0-8.6-46.13,5.09,5.09,0,0,1-.28-2.52C408.87,122.82,402.11,72.24,386.29,27Z"/><path d="M103.32,122.87a4.45,4.45,0,0,1-2.28-4.39c.24-2.15,5.82-52.94,9.41-68.28a11.91,11.91,0,0,1,20.88-4.76c7.3,9.07,17.7,23,25.76,37.74a4.47,4.47,0,0,1-1.62,6,437.78,437.78,0,0,0-47.22,33.3,4.41,4.41,0,0,1-2.78,1A4.51,4.51,0,0,1,103.32,122.87ZM124.37,51a2.88,2.88,0,0,0-3-1,2.92,2.92,0,0,0-2.26,2.24c-2.49,10.68-6.15,40.57-8,56.66a432.71,432.71,0,0,1,36.07-25.14A268.37,268.37,0,0,0,124.37,51Z"/><g class="cls-6"><path class="cls-1" d="M261.75,83.7c22.66,3.62,41,10.37,54.11,21a7.19,7.19,0,0,1-3,12.56c-26.2,5.82-46.44-.44-58.6-23.09A7.19,7.19,0,0,1,261.75,83.7Z"/></g><g class="cls-6"><path class="cls-1" d="M344.42,141.19c4.23-3.19,4.11-10.5-.28-16.33s-11.38-8-15.62-4.78-1.5,8.53,2.89,14.36S340.18,144.38,344.42,141.19Z"/></g><path d="M91.26,212.32a79.1,79.1,0,0,0-15.17-1.21,134.38,134.38,0,0,0-14.9.94,129.91,129.91,0,0,0-14.72,2.58A78.28,78.28,0,0,0,32,219.38a79.08,79.08,0,0,0,15.16,1.22,129.89,129.89,0,0,0,14.91-1,134.35,134.35,0,0,0,14.71-2.58A79.86,79.86,0,0,0,91.26,212.32Z"/><path d="M93.53,235.35a80.29,80.29,0,0,0-14.8,3.53,136.32,136.32,0,0,0-27.1,12.49,79.1,79.1,0,0,0-12.28,9,78.68,78.68,0,0,0,14.8-3.51A132.41,132.41,0,0,0,68,251.32a135.53,135.53,0,0,0,13.2-7A80.32,80.32,0,0,0,93.53,235.35Z"/><path d="M396.65,211.57a79.23,79.23,0,0,0,14.48,4.67,134.9,134.9,0,0,0,14.73,2.52,132.29,132.29,0,0,0,14.91.88,78.37,78.37,0,0,0,15.16-1.3,79.28,79.28,0,0,0-14.48-4.68,131.69,131.69,0,0,0-14.73-2.5,134.53,134.53,0,0,0-14.91-.87A79.13,79.13,0,0,0,396.65,211.57Z"/><path d="M394.5,234.62a76.18,76.18,0,0,0,10.92,10.1,127.42,127.42,0,0,0,12,8.24,125.74,125.74,0,0,0,12.89,6.83,75.08,75.08,0,0,0,14,5,75.21,75.21,0,0,0-10.92-10.11,125.46,125.46,0,0,0-12-8.23,129.84,129.84,0,0,0-12.89-6.82A76.35,76.35,0,0,0,394.5,234.62Z"/><g class="cls-6"><path class="cls-7" d="M296.42,228.49c-8.1,9.72-16.58,12.63-24.25,12.22C257,239.91,245,226.15,245,226.15c-10.52,10-19.7,13.69-27.33,14.07-12.65.62-21.08-7.85-24.37-11.95,30.31,5.17,44.88-10.71,44.88-10.71h13.7C265.36,238.14,295.5,228.77,296.42,228.49Z"/></g><path d="M272.17,240.71a79.61,79.61,0,0,1-10,20.73c-4.84,6.95-10.77,12.07-17.18,12.07s-12.43-5.16-17.3-12.16a79.43,79.43,0,0,1-10-21.13c7.63-.38,16.81-4.07,27.33-14.07C245,226.15,257,239.91,272.17,240.71Z"/><path class="cls-8" d="M262.17,261.44c-4.84,6.95-10.77,12.07-17.18,12.07s-12.43-5.16-17.3-12.16a18.63,18.63,0,0,1,34.48.09Z"/><path d="M229.37,206c3.08-4.06,25.45-4.83,29.25,0S251.4,222.8,244,222.8,226,210.56,229.37,206Z"/><path d="M244.79,225.66c-7.23,0-15.18-7-18.4-13.45-2.78-5.61-1.15-9.15.08-10.76h0c3.33-4.4,12.93-5.14,18.35-5.18,6.45,0,14.85.78,18.25,5.11,1.3,1.65,3.07,5.26.35,10.86C260.27,218.72,252,225.66,244.79,225.66ZM234.27,207a14.16,14.16,0,0,0,3.38,5.07c2.73,2.83,5.66,4.31,7.14,4.31,1.64,0,4.91-1.65,7.76-4.7A11.62,11.62,0,0,0,255.5,207C252.08,205.07,238.48,205.1,234.27,207Z"/><ellipse class="cls-1" cx="245.01" cy="204.13" rx="12.14" ry="3.22"/><path d="M273.6,245c-.55,0-1.1,0-1.66,0-12.15-.64-22.25-8.45-27.1-12.93-9.09,7.82-18.15,12-27,12.43-14.54.71-24.12-8.89-27.73-13.31A2,2,0,0,1,190,231a28.38,28.38,0,0,1-1.87-2.54,4.28,4.28,0,0,1,7.26-4.55s.4.62,1.11,1.52a1.63,1.63,0,0,1,.17.2c2.65,3.29,10,10.91,20.83,10.35,7.72-.38,16-4.72,24.59-12.89a4.28,4.28,0,0,1,6.18.28c.1.12,11.07,12.42,24.18,13.11,7.51.4,14.48-3.2,20.73-10.69l.18-.21c.51-.63,1-1.29,1.55-2a4.28,4.28,0,1,1,6.83,5.15c-.65.87-1.3,1.69-1.95,2.48-.07.08-.14.17-.22.25C291.93,240.47,283.21,245,273.6,245Z"/><path d="M245,277.79c-7.25,0-14.45-4.84-20.82-14a84,84,0,0,1-10.6-22.31,4.29,4.29,0,0,1,3.88-5.54c7.72-.38,16-4.72,24.59-12.89a4.28,4.28,0,0,1,6.18.28c.1.12,11.07,12.42,24.18,13.11a4.31,4.31,0,0,1,3.3,1.84,4.26,4.26,0,0,1,.55,3.73,84,84,0,0,1-10.58,21.89C259.34,273,252.19,277.79,245,277.79Zm-21.6-34.05a72.65,72.65,0,0,0,7.81,15.16c4.63,6.66,9.53,10.33,13.79,10.33s9.06-3.63,13.67-10.24a72.38,72.38,0,0,0,7.74-14.79c-9.64-2.22-17.47-8.36-21.56-12.14C237.64,238.26,230.45,242.17,223.39,243.74Z"/><path d="M344.25,178.39c-2.29-.54-4.61-1.19-6.8-1.68s-4.36-.91-6.45-1.19a35.75,35.75,0,0,0-11.79.11,24.26,24.26,0,0,0-5.51,1.73,33.13,33.13,0,0,0-5.39,2.93,97.2,97.2,0,0,0-10.75,8.63l0,0a2,2,0,0,1-2.89-.19,2.07,2.07,0,0,1-.44-1.87A33,33,0,0,1,301.9,173,31.41,31.41,0,0,1,305,170c.54-.46,1.14-.86,1.72-1.29a14.94,14.94,0,0,1,1.81-1.2,32.09,32.09,0,0,1,3.92-2,31.33,31.33,0,0,1,4.25-1.35,28.7,28.7,0,0,1,17.15,1.21,30.48,30.48,0,0,1,7.2,4,24.36,24.36,0,0,1,5.69,5.89,2.06,2.06,0,0,1-.56,2.85,2,2,0,0,1-1.61.29Z"/><path d="M141.24,175.31a24.36,24.36,0,0,1,5.69-5.89,30.54,30.54,0,0,1,7.21-4,28.69,28.69,0,0,1,17.15-1.21,31.2,31.2,0,0,1,4.24,1.35,30.7,30.7,0,0,1,3.92,2,15.89,15.89,0,0,1,1.82,1.2c.58.43,1.17.83,1.72,1.29a32.48,32.48,0,0,1,3,2.92,33.09,33.09,0,0,1,7.71,13.93,2.05,2.05,0,0,1-3.33,2.07l0,0a99.09,99.09,0,0,0-10.75-8.63,33.22,33.22,0,0,0-5.4-2.93,24.18,24.18,0,0,0-5.5-1.73,35.81,35.81,0,0,0-11.8-.11c-2.08.28-4.23.69-6.44,1.19s-4.51,1.14-6.81,1.68l-.27.06a2,2,0,0,1-2.47-1.53A2.1,2.1,0,0,1,141.24,175.31Z"/></g></g></svg> 