<svg width="100" height="100" viewBox="0 0 100 100" fill="none" xmlns="http://www.w3.org/2000/svg">
<g id="nocteapp-logo">
<rect id="Rectangle 2" width="100" height="100" rx="50" fill="black"/>
<g id="NTE150x141">
<g id="NocteLarge">
<path id="Union" fill-rule="evenodd" clip-rule="evenodd" d="M90 50C90 27.9086 72.0914 10 50 10C27.9086 10 10 27.9086 10 50C10 72.0914 27.9086 90 50 90C72.0914 90 90 72.0914 90 50ZM50 15C69.33 15 85 30.67 85 50C85 69.33 69.33 85 50 85C30.67 85 15 69.33 15 50C15 30.67 30.67 15 50 15Z" fill="url(#paint0_linear)"/>
<path id="Union_2" fill-rule="evenodd" clip-rule="evenodd" d="M79.2214 30.7659V20.6987L70.6134 29.3102C68.8535 27.552 66.8713 26.0162 64.6669 24.7027C60.2462 22.0688 55.338 20.7518 49.9422 20.7518C44.5789 20.7518 39.6869 22.0688 35.2663 24.7027C30.8456 27.3366 27.3188 30.8648 24.6859 35.2872C22.053 39.7096 20.7366 44.6035 20.7366 49.9689C20.7366 55.3668 22.053 60.277 24.6859 64.6994C24.7539 64.8134 24.8224 64.9269 24.8915 65.0398L20.7337 69.1992L20.6985 79.3015L29.32 70.6766C31.0798 72.4347 33.0619 73.9705 35.2663 75.2838C39.6869 77.9178 44.5789 79.2347 49.9422 79.2347C55.338 79.2347 60.2462 77.9178 64.6669 75.2838C69.0876 72.6499 72.6143 69.1218 75.2472 64.6994C77.8801 60.277 79.1966 55.3668 79.1966 49.9689C79.1966 44.6035 77.8801 39.7096 75.2472 35.2872C75.18 35.1743 75.1122 35.0619 75.0438 34.9502L79.2214 30.7659ZM65.5183 34.4073C64.186 33.0749 62.6833 31.9049 61.0101 30.8973C57.6946 28.9137 54.0053 27.9219 49.9422 27.9219C45.9116 27.9219 42.2223 28.9137 38.8743 30.8973C35.5588 32.9134 32.8934 35.5798 30.8781 38.8966C28.8953 42.246 27.9039 45.9367 27.9039 49.9689C27.9039 53.5171 28.6594 56.7805 30.1703 59.7588L49.9776 39.9438V49.9541L65.5183 34.4073ZM49.9776 50.0109L34.4151 65.5795C35.7411 66.9016 37.2275 68.0552 38.8743 69.0405C42.2223 71.024 45.9116 72.0158 49.9422 72.0158C54.0053 72.0158 57.6946 71.024 61.0101 69.0405C64.3581 67.0569 67.0235 64.3904 69.0063 61.0411C70.9891 57.7243 71.9805 54.0336 71.9805 49.9689C71.9805 46.4747 71.236 43.2368 69.747 40.2554L49.9776 60.0564V50.0109Z" fill="white"/>
</g>
</g>
</g>
<defs>
<linearGradient id="paint0_linear" x1="50" y1="10" x2="50" y2="90" gradientUnits="userSpaceOnUse">
<stop stop-color="#0FFF87"/>
<stop offset="1" stop-color="#870FFF"/>
</linearGradient>
</defs>
</svg>
