<svg width="25" height="25" viewBox="0 0 25 25" fill="none" xmlns="http://www.w3.org/2000/svg">
<circle cx="12.5" cy="12.5" r="12" fill="white" stroke="#ECECEC"/>
<path fill-rule="evenodd" clip-rule="evenodd" d="M9.00273 8.43935C9.06997 8.37153 9.16033 8.33337 9.25489 8.33337H18.0069C18.1666 8.33337 18.2465 8.52837 18.133 8.6407L16.4036 10.3829C16.3364 10.4508 16.246 10.4889 16.1514 10.4889H7.40152C7.24182 10.4889 7.16197 10.2939 7.27544 10.1816L9.00273 8.43935ZM9.00273 14.9505C9.06997 14.8827 9.16033 14.8445 9.25489 14.8445H18.0069C18.1666 14.8445 18.2465 15.0395 18.133 15.1519L16.4036 16.8941C16.3364 16.9619 16.246 17.0001 16.1514 17.0001H7.40152C7.24182 17.0001 7.16197 16.8051 7.27544 16.6928L9.00273 14.9505ZM16.1514 11.5679C16.246 11.5679 16.3364 11.6061 16.4036 11.6739L18.1351 13.4162C18.2486 13.5285 18.1687 13.7235 18.009 13.7235H9.25699C9.16243 13.7235 9.07207 13.6853 9.00483 13.6175L7.27544 11.8753C7.16197 11.7629 7.24182 11.5679 7.40152 11.5679H16.1514Z" fill="url(#paint0_linear_8177_19298)"/>
<defs>
<linearGradient id="paint0_linear_8177_19298" x1="9.16661" y1="8.33337" x2="16.3295" y2="16.7174" gradientUnits="userSpaceOnUse">
<stop stop-color="#5855FF"/>
<stop offset="1" stop-color="#DF3CFF"/>
</linearGradient>
</defs>
</svg>
