<svg width="711" height="711" viewBox="0 0 711 711" fill="none" xmlns="http://www.w3.org/2000/svg">
<circle cx="355.5" cy="355.5" r="345" fill="#A4A4A4" stroke="black" stroke-width="21"/>
<g filter="url(#filter0_d_101_3)">
<path d="M82.16 450V312.156L77.12 286.956L82.16 271.836H132.812L183.716 335.34L195.812 356.256H198.332V271.836H256.544V286.956L254.024 312.156V450H203.876L140.624 363.816H138.104V378.936L140.624 450H82.16ZM291.832 450V312.156L286.792 286.956L291.832 271.836H342.484L393.388 335.34L405.484 356.256H408.004V271.836H466.216V286.956L463.696 312.156V450H413.548L350.296 363.816H347.776V378.936L350.296 450H291.832ZM536.784 450V319.716L486.384 322.236V271.584H643.884V322.236L592.224 319.716V409.68L594.996 434.88L592.224 450H536.784Z" fill="#DEF440"/>
<path d="M82.16 450H76.16V456H82.16V450ZM82.16 312.156H88.16V311.562L88.0435 310.979L82.16 312.156ZM77.12 286.956L71.4279 285.059L70.924 286.57L71.2365 288.133L77.12 286.956ZM82.16 271.836V265.836H77.8354L76.4679 269.939L82.16 271.836ZM132.812 271.836L137.494 268.083L135.692 265.836H132.812V271.836ZM183.716 335.34L188.91 332.336L188.682 331.942L188.398 331.587L183.716 335.34ZM195.812 356.256L190.618 359.26L192.351 362.256H195.812V356.256ZM198.332 356.256V362.256H204.332V356.256H198.332ZM198.332 271.836V265.836H192.332V271.836H198.332ZM256.544 271.836H262.544V265.836H256.544V271.836ZM256.544 286.956L262.514 287.553L262.544 287.255V286.956H256.544ZM254.024 312.156L248.054 311.559L248.024 311.857V312.156H254.024ZM254.024 450V456H260.024V450H254.024ZM203.876 450L199.039 453.55L200.837 456H203.876V450ZM140.624 363.816L145.461 360.266L143.663 357.816H140.624V363.816ZM138.104 363.816V357.816H132.104V363.816H138.104ZM138.104 378.936H132.104V379.042L132.108 379.149L138.104 378.936ZM140.624 450V456H146.841L146.62 449.787L140.624 450ZM88.16 450V312.156H76.16V450H88.16ZM88.0435 310.979L83.0035 285.779L71.2365 288.133L76.2765 313.333L88.0435 310.979ZM82.8121 288.853L87.8521 273.733L76.4679 269.939L71.4279 285.059L82.8121 288.853ZM82.16 277.836H132.812V265.836H82.16V277.836ZM128.13 275.589L179.034 339.093L188.398 331.587L137.494 268.083L128.13 275.589ZM178.522 338.344L190.618 359.26L201.006 353.252L188.91 332.336L178.522 338.344ZM195.812 362.256H198.332V350.256H195.812V362.256ZM204.332 356.256V271.836H192.332V356.256H204.332ZM198.332 277.836H256.544V265.836H198.332V277.836ZM250.544 271.836V286.956H262.544V271.836H250.544ZM250.574 286.359L248.054 311.559L259.994 312.753L262.514 287.553L250.574 286.359ZM248.024 312.156V450H260.024V312.156H248.024ZM254.024 444H203.876V456H254.024V444ZM208.713 446.45L145.461 360.266L135.787 367.366L199.039 453.55L208.713 446.45ZM140.624 357.816H138.104V369.816H140.624V357.816ZM132.104 363.816V378.936H144.104V363.816H132.104ZM132.108 379.149L134.628 450.213L146.62 449.787L144.1 378.723L132.108 379.149ZM140.624 444H82.16V456H140.624V444ZM291.832 450H285.832V456H291.832V450ZM291.832 312.156H297.832V311.562L297.715 310.979L291.832 312.156ZM286.792 286.956L281.1 285.059L280.596 286.57L280.908 288.133L286.792 286.956ZM291.832 271.836V265.836H287.507L286.14 269.939L291.832 271.836ZM342.484 271.836L347.165 268.083L345.364 265.836H342.484V271.836ZM393.388 335.34L398.582 332.336L398.354 331.942L398.069 331.587L393.388 335.34ZM405.484 356.256L400.29 359.26L402.023 362.256H405.484V356.256ZM408.004 356.256V362.256H414.004V356.256H408.004ZM408.004 271.836V265.836H402.004V271.836H408.004ZM466.216 271.836H472.216V265.836H466.216V271.836ZM466.216 286.956L472.186 287.553L472.216 287.255V286.956H466.216ZM463.696 312.156L457.726 311.559L457.696 311.857V312.156H463.696ZM463.696 450V456H469.696V450H463.696ZM413.548 450L408.711 453.55L410.509 456H413.548V450ZM350.296 363.816L355.133 360.266L353.335 357.816H350.296V363.816ZM347.776 363.816V357.816H341.776V363.816H347.776ZM347.776 378.936H341.776V379.042L341.78 379.149L347.776 378.936ZM350.296 450V456H356.512L356.292 449.787L350.296 450ZM297.832 450V312.156H285.832V450H297.832ZM297.715 310.979L292.675 285.779L280.908 288.133L285.948 313.333L297.715 310.979ZM292.484 288.853L297.524 273.733L286.14 269.939L281.1 285.059L292.484 288.853ZM291.832 277.836H342.484V265.836H291.832V277.836ZM337.802 275.589L388.706 339.093L398.069 331.587L347.165 268.083L337.802 275.589ZM388.194 338.344L400.29 359.26L410.678 353.252L398.582 332.336L388.194 338.344ZM405.484 362.256H408.004V350.256H405.484V362.256ZM414.004 356.256V271.836H402.004V356.256H414.004ZM408.004 277.836H466.216V265.836H408.004V277.836ZM460.216 271.836V286.956H472.216V271.836H460.216ZM460.246 286.359L457.726 311.559L469.666 312.753L472.186 287.553L460.246 286.359ZM457.696 312.156V450H469.696V312.156H457.696ZM463.696 444H413.548V456H463.696V444ZM418.385 446.45L355.133 360.266L345.459 367.366L408.711 453.55L418.385 446.45ZM350.296 357.816H347.776V369.816H350.296V357.816ZM341.776 363.816V378.936H353.776V363.816H341.776ZM341.78 379.149L344.3 450.213L356.292 449.787L353.772 378.723L341.78 379.149ZM350.296 444H291.832V456H350.296V444ZM536.784 450H530.784V456H536.784V450ZM536.784 319.716H542.784V313.409L536.484 313.723L536.784 319.716ZM486.384 322.236H480.384V328.543L486.683 328.229L486.384 322.236ZM486.384 271.584V265.584H480.384V271.584H486.384ZM643.884 271.584H649.884V265.584H643.884V271.584ZM643.884 322.236L643.591 328.229L649.884 328.536V322.236H643.884ZM592.224 319.716L592.516 313.723L586.224 313.416V319.716H592.224ZM592.224 409.68H586.224V410.009L586.26 410.336L592.224 409.68ZM594.996 434.88L600.897 435.962L601.056 435.098L600.96 434.224L594.996 434.88ZM592.224 450V456H597.224L598.125 451.082L592.224 450ZM542.784 450V319.716H530.784V450H542.784ZM536.484 313.723L486.084 316.243L486.683 328.229L537.083 325.709L536.484 313.723ZM492.384 322.236V271.584H480.384V322.236H492.384ZM486.384 277.584H643.884V265.584H486.384V277.584ZM637.884 271.584V322.236H649.884V271.584H637.884ZM644.176 316.243L592.516 313.723L591.931 325.709L643.591 328.229L644.176 316.243ZM586.224 319.716V409.68H598.224V319.716H586.224ZM586.26 410.336L589.032 435.536L600.96 434.224L598.188 409.024L586.26 410.336ZM589.094 433.798L586.322 448.918L598.125 451.082L600.897 435.962L589.094 433.798ZM592.224 444H536.784V456H592.224V444Z" fill="black"/>
</g>
<defs>
<filter id="filter0_d_101_3" x="77.1191" y="271.584" width="587.766" height="185.416" filterUnits="userSpaceOnUse" color-interpolation-filters="sRGB">
<feFlood flood-opacity="0" result="BackgroundImageFix"/>
<feColorMatrix in="SourceAlpha" type="matrix" values="0 0 0 0 0 0 0 0 0 0 0 0 0 0 0 0 0 0 127 0" result="hardAlpha"/>
<feOffset dx="21" dy="7"/>
<feComposite in2="hardAlpha" operator="out"/>
<feColorMatrix type="matrix" values="0 0 0 0 0 0 0 0 0 0 0 0 0 0 0 0 0 0 1 0"/>
<feBlend mode="normal" in2="BackgroundImageFix" result="effect1_dropShadow_101_3"/>
<feBlend mode="normal" in="SourceGraphic" in2="effect1_dropShadow_101_3" result="shape"/>
</filter>
</defs>
</svg>
