<svg width="661" height="663" xmlns="http://www.w3.org/2000/svg" xmlns:xlink="http://www.w3.org/1999/xlink" xml:space="preserve" overflow="hidden"><defs><clipPath id="clip0"><rect x="566" y="854" width="661" height="663"/></clipPath><clipPath id="clip1"><rect x="594" y="950" width="591" height="387"/></clipPath><clipPath id="clip2"><rect x="594" y="950" width="591" height="387"/></clipPath><clipPath id="clip3"><rect x="594" y="950" width="591" height="592"/></clipPath></defs><g clip-path="url(#clip0)" transform="translate(-566 -854)"><path d="M566 1185.5C566 1002.42 713.97 854 896.5 854 1079.03 854 1227 1002.42 1227 1185.5 1227 1368.58 1079.03 1517 896.5 1517 713.97 1517 566 1368.58 566 1185.5Z" fill="#0D0D0D" fill-rule="evenodd"/><g clip-path="url(#clip1)"><g clip-path="url(#clip2)"><g clip-path="url(#clip3)"><path d="M198.27 430.708 198.27 446.588C192.316 443.13 186.132 441.4 179.741 441.4 176.873 441.4 174.684 441.991 173.174 443.162 171.664 444.344 170.908 445.844 170.908 447.682 170.908 449.521 171.828 451.152 173.666 452.586 175.505 454.019 178.263 455.541 181.94 457.16 184.217 458.189 186.11 459.087 187.621 459.864 189.131 460.641 190.86 461.702 192.808 463.059 194.756 464.416 196.3 465.861 197.438 467.361 198.576 468.871 199.55 470.72 200.36 472.931 201.17 475.142 201.575 477.528 201.575 480.1 201.575 486.787 199.112 492.215 194.187 496.363 189.262 500.522 182.717 502.591 174.553 502.591 165.797 502.591 158.673 501.048 153.157 497.961L153.157 480.899C159.844 485.747 166.979 488.177 174.553 488.177 177.125 488.177 179.259 487.498 180.955 486.13 182.652 484.773 183.495 482.989 183.495 480.778 183.495 480.045 183.385 479.345 183.166 478.688 182.947 478.031 182.542 477.397 181.951 476.817 181.36 476.226 180.791 475.733 180.244 475.328 179.697 474.923 178.887 474.442 177.814 473.894 176.742 473.336 175.844 472.887 175.111 472.515 174.378 472.143 173.294 471.629 171.861 470.972 170.427 470.316 169.267 469.801 168.391 469.429 163.608 467.218 159.767 464.504 156.867 461.264 153.966 458.025 152.511 453.724 152.511 448.361 152.511 441.958 154.864 436.804 159.57 432.864 164.276 428.935 170.777 426.965 179.095 426.965 186.504 426.965 192.907 428.212 198.27 430.708Z" fill="#277CE2" transform="matrix(1 0 0 1.00109 594 950)"/><path d="M252.434 428.508 265.009 428.508 272.287 454.753C273.83 460.269 275.209 465.401 276.424 470.14 277.639 474.879 278.459 478.25 278.908 480.231L279.565 483.208C280.517 476.663 282.575 467.142 285.737 454.643L292.578 427.402 309.892 427.402 290.039 501.737 271.072 501.737 264.56 478.239C263.017 472.581 261.747 467.798 260.751 463.902 259.755 460.006 259.153 457.5 258.935 456.405L258.716 454.753C258.497 457.773 256.505 465.599 252.762 478.25L245.922 501.748 226.955 501.748 206.992 427.413 224.865 427.413 231.705 454.763C233.171 460.652 234.386 465.96 235.349 470.699 236.301 475.438 236.892 478.732 237.111 480.57L237.549 483.219C238.797 477.484 241.303 467.995 245.046 454.763L252.434 428.508Z" fill="#277CE2" transform="matrix(1 0 0 1.00109 594 950)"/><path d="M320.256 501.748 320.256 427.413 337.242 427.413 337.242 501.748 320.256 501.748Z" fill="#277CE2" transform="matrix(1 0 0 1.00109 594 950)"/><path d="M351.032 501.748 357.424 427.413 376.062 427.413 386.426 454.326C388.188 458.813 389.699 462.928 390.946 466.682 392.194 470.436 393.004 473.074 393.376 474.628L393.934 476.838C395.105 471.99 397.688 464.482 401.65 454.337L412.124 427.424 430.762 427.424 438.489 501.759 421.503 501.759 418.745 472.975 417.312 451.25C415.396 456.766 412.748 464.012 409.366 472.975L398.892 500.993 388.856 500.993 378.492 472.975C376.795 468.422 375.362 464.34 374.19 460.728 373.009 457.127 372.242 454.621 371.87 453.231L371.323 451.25C371.323 456.471 370.995 463.716 370.327 472.975L368.007 501.759 351.032 501.759Z" fill="#277CE2" transform="matrix(1 0 0 1.00109 594 950)"/><path d="M272.09 211.414C268.128 211.512 264.177 211.611 260.248 211.764 257.982 211.852 255.739 211.961 253.484 212.06 249.938 212.213 246.392 212.377 242.879 212.574 240.504 212.705 238.151 212.858 235.798 213.012 232.427 213.231 229.056 213.449 225.718 213.712 223.343 213.887 220.979 214.084 218.615 214.281 215.332 214.555 212.06 214.85 208.82 215.157 206.5 215.376 204.18 215.606 201.87 215.846 198.62 216.186 195.402 216.547 192.195 216.93 189.974 217.192 187.741 217.444 185.541 217.729 182.258 218.145 179.029 218.593 175.812 219.042 173.765 219.327 171.696 219.6 169.683 219.907 169.124 219.994 168.588 220.082 168.03 220.169L168.03 309.257C168.03 312.956 170.186 316.305 173.557 317.838L200.218 329.953C212.18 335.392 225.992 336.071 238.042 330.85 250.081 325.641 258.967 315.9 263.05 303.446L268.325 287.324C272.166 275.592 282.881 267.055 295.226 266.957 307.791 266.847 318.461 274.519 322.369 286.427L327.523 302.165C331.606 314.642 340.449 325.269 352.433 330.621 364.417 335.973 377.616 335.929 389.556 330.5L417.432 317.827C420.803 316.294 422.959 312.945 422.959 309.246L422.959 220.158C406.389 217.641 388.998 215.638 371.028 214.15 368.16 213.909 365.271 213.712 362.381 213.504 359.098 213.263 355.815 213.023 352.488 212.826 349.412 212.64 346.315 212.497 343.229 212.333 340.077 212.169 336.936 211.994 333.751 211.873 330.052 211.72 326.33 211.633 322.609 211.523 319.994 211.447 317.389 211.348 314.762 211.293 308.371 211.162 301.946 211.096 295.5 211.096 289.579 211.096 283.68 211.162 277.803 211.272 275.898 211.293 273.994 211.359 272.09 211.414Z" fill="#7FFDFF" transform="matrix(1 0 0 1.00109 594 950)"/><path d="M370.874 365.96C360.379 365.96 349.883 363.815 340.077 359.503 320.169 350.758 304.857 333.882 298.083 313.219L295.5 305.317 292.917 313.219C286.142 333.893 270.842 350.758 250.923 359.503 231.015 368.248 208.229 368.105 188.43 359.109L160.555 346.435C145.977 339.803 136.609 325.269 136.609 309.246L136.609 206.762C136.609 199.112 142.114 192.578 149.643 191.287L149.643 191.287C193.618 183.692 244.05 179.686 295.489 179.686 312.3 179.686 329.001 180.113 345.407 180.944 362.808 181.831 375.963 197.066 374.464 214.424L374.464 214.424C348.964 212.224 322.39 211.107 295.489 211.107 250.847 211.107 207.091 214.216 168.019 220.137L168.019 309.257C168.019 312.956 170.175 316.305 173.546 317.838L200.207 329.953C212.169 335.392 225.981 336.071 238.031 330.85 250.07 325.641 258.956 315.9 263.039 303.446L268.314 287.324C272.155 275.592 282.87 267.055 295.215 266.957 307.78 266.847 318.45 274.519 322.358 286.427L327.512 302.165C331.595 314.642 340.438 325.269 352.422 330.621 364.406 335.973 377.605 335.929 389.546 330.5L417.421 317.827C420.792 316.294 422.948 312.945 422.948 309.246L422.948 88.3764 454.369 88.3764 454.369 309.246C454.369 325.269 445.001 339.803 430.423 346.435L402.548 359.109C392.512 363.673 381.698 365.96 370.874 365.96Z" fill="#277CE2" transform="matrix(1 0 0 1.00109 594 950)"/></g></g></g></g></svg>