<?xml version="1.0" encoding="utf-8"?>
<!-- Generator: Adobe Illustrator 19.1.1, SVG Export Plug-In . SVG Version: 6.00 Build 0)  -->
<svg version="1.1" xmlns="http://www.w3.org/2000/svg" xmlns:xlink="http://www.w3.org/1999/xlink" x="0px" y="0px"
	 viewBox="0 0 1450 1450" style="enable-background:new 0 0 1450 1450;" xml:space="preserve">
<style type="text/css">
	.st0{fill-rule:evenodd;clip-rule:evenodd;fill:#0D6D94;}
	.st1{fill-rule:evenodd;clip-rule:evenodd;fill:#ED1F24;}
</style>
<g id="Layer_1">
	<g>
		<path class="st0" d="M642.3,111.9c326.3-5.7,526.2,190.4,608.4,430.3c30.6,89.4,51.6,324.3-22,381.3
			c-59.2,45.8-122.8,4.8-143.7-53.7c-7.8-21.8,3.2-77.9,9-129c7.8-68.5-20-146.3-38.4-188.6C1007.3,441.7,917,361.4,799.4,320.1
			c-186-65.4-377.5,27.4-459.3,131.1c-34.7,44-63.2,93.1-82.1,153.1c-23,73.2-20.8,187.8,5,256.2c49.1,130.2,138,225.2,274.2,268.2
			c52.1,16.4,134.1,29.1,201.1,15c33.1-7,64.7-15,93.1-27c19.5-8.3,74.9-26.9,47-59C813.1,991.9,757.4,935.9,692,870.1
			c-54.8-54.5-37.5-115.8,14.5-140.5c60.1-28.5,111,26.7,140,55.7c19.7,19.7,39.4,39.4,59,59c164.1,164.1,328.2,328.2,492.3,492.3
			c-80,0-160.1,0-240.2,0c-27.7-27.7-53.8-56.4-81.5-84.1c-10.3-10.3-22.1-26.5-38.6-30c-19.8-4.2-51.5,22.3-64.1,30
			c-44.5,27.2-94.3,47.6-149.1,64.1c-173.8,52.3-369.6-1.8-482.3-72c-134-83.5-228.6-209-272.2-383.3
			c-14.2-56.7-24.7-142.7-12-211.1c6.8-36.8,11.7-72.1,22-105.1c25.4-80.8,64.6-148.4,111.1-208.1
			c72.9-93.6,179.1-163.1,306.2-202.1c32.3-9.9,67.3-13.5,103.1-20C614.3,113.9,628.3,112.9,642.3,111.9z"/>
		<circle class="st1" cx="128.4" cy="1262.2" r="76"/>
	</g>
</g>
<g id="Layer_2">
</g>
</svg>
