<svg version="1.1" viewBox="0.0 0.0 195.71916010498688 236.71391076115486" fill="none" stroke="none" stroke-linecap="square" stroke-miterlimit="10" xmlns:xlink="http://www.w3.org/1999/xlink" xmlns="http://www.w3.org/2000/svg"><clipPath id="p.0"><path d="m0 0l195.71916 0l0 236.71391l-195.71916 0l0 -236.71391z" clip-rule="nonzero"/></clipPath><g clip-path="url(#p.0)"><path fill="#000000" fill-opacity="0.0" d="m0 0l195.71916 0l0 236.71391l-195.71916 0z" fill-rule="evenodd"/><defs><linearGradient id="p.1" gradientUnits="userSpaceOnUse" gradientTransform="matrix(15.38587399618089 0.0 0.0 15.38587399618089 0.0 0.0)" spreadMethod="pad" x1="1.6685499487012757E-10" y1="-4.6092668215813545E-5" x2="-5.569654643324582E-5" y2="15.385827903411862"><stop offset="0.0" stop-color="#373b44"/><stop offset="1.0" stop-color="#4286f4"/></linearGradient></defs><path fill="url(#p.1)" d="m0 236.72441l97.95276 -236.72441l97.95276 236.72441z" fill-rule="evenodd"/><defs><linearGradient id="p.2" gradientUnits="userSpaceOnUse" gradientTransform="matrix(15.385874022772592 0.0 0.0 15.385874022772592 0.0 0.0)" spreadMethod="pad" x1="1.6715358161317095E-10" y1="1.5598262386797255" x2="-5.569654633698441E-5" y2="16.945700261351508"><stop offset="0.0" stop-color="#373b44"/><stop offset="1.0" stop-color="#4286f4"/></linearGradient></defs><path fill="url(#p.2)" d="m0 260.7244l97.95276 -236.7244l97.95276 236.7244z" fill-rule="evenodd"/><defs><linearGradient id="p.3" gradientUnits="userSpaceOnUse" gradientTransform="matrix(15.385873939476832 0.0 0.0 15.385873939476832 0.0 0.0)" spreadMethod="pad" x1="1.6648009382647425E-10" y1="3.639656271017244" x2="-5.569654663851335E-5" y2="19.025530210393267"><stop offset="0.0" stop-color="#373b44"/><stop offset="1.0" stop-color="#4286f4"/></linearGradient></defs><path fill="url(#p.3)" d="m0 292.7244l97.95276 -236.7244l97.95276 236.7244z" fill-rule="evenodd"/><defs><linearGradient id="p.4" gradientUnits="userSpaceOnUse" gradientTransform="matrix(15.385873939476832 0.0 0.0 15.385873939476832 0.0 0.0)" spreadMethod="pad" x1="1.668686681181059E-10" y1="6.239443592644041" x2="-5.569654663851335E-5" y2="21.625317532020063"><stop offset="0.0" stop-color="#373b44"/><stop offset="1.0" stop-color="#4286f4"/></linearGradient></defs><path fill="url(#p.4)" d="m0 332.7244l97.95276 -236.7244l97.95276 236.7244z" fill-rule="evenodd"/><defs><linearGradient id="p.5" gradientUnits="userSpaceOnUse" gradientTransform="matrix(15.385873939476832 0.0 0.0 15.385873939476832 0.0 0.0)" spreadMethod="pad" x1="1.658097857189845E-10" y1="9.359188378596196" x2="-5.569654663851335E-5" y2="24.74506231797222"><stop offset="0.0" stop-color="#373b44"/><stop offset="1.0" stop-color="#4286f4"/></linearGradient></defs><path fill="url(#p.5)" d="m0 380.7244l97.95276 -236.7244l97.95276 236.7244z" fill-rule="evenodd"/></g></svg>