<svg xmlns="http://www.w3.org/2000/svg" xmlns:xlink="http://www.w3.org/1999/xlink" width="512" height="512" viewBox="0 0 512 512">
  <defs>
    <linearGradient id="linear-gradient" x1="0.5" x2="0.5" y2="1" gradientUnits="objectBoundingBox">
      <stop offset="0" stop-color="#0cf1a7"/>
      <stop offset="1" stop-color="#d822fd"/>
    </linearGradient>
  </defs>
  <g id="Group_1" data-name="Group 1" transform="translate(-233 -303)">
    <g id="circle_icon" transform="translate(176 -38)">
      <g id="monero" transform="translate(57 341)">
        <circle id="Ellipse_1" data-name="Ellipse 1" cx="256" cy="256" r="256" fill="url(#linear-gradient)"/>
      </g>
    </g>
    <g id="increase-up-profit" transform="translate(308.004 458.778)">
      <path id="Path_1" data-name="Path 1" d="M5.989,166.489a19.77,19.77,0,1,0,27.573,28.339l81.453-79.479,68.108,65.722a19.775,19.775,0,0,0,27.956-.53L322.344,67.95v56.767a19.826,19.826,0,0,0,39.651,0V19.755h-.059a19.732,19.732,0,0,0-21-19.708H242.747a19.826,19.826,0,1,0,0,39.651h51.935L196.5,139.033,128.654,73.547a19.744,19.744,0,0,0-27.485.088L5.989,166.489Z" transform="translate(0 0)" fill="#fff"/>
    </g>
  </g>
</svg>
