<?xml version="1.0" standalone="no"?>
<!DOCTYPE svg PUBLIC "-//W3C//DTD SVG 20010904//EN"
 "http://www.w3.org/TR/2001/REC-SVG-20010904/DTD/svg10.dtd">
<svg version="1.0" xmlns="http://www.w3.org/2000/svg"
 width="300.000000pt" height="300.000000pt" viewBox="0 0 300.000000 300.000000"
 preserveAspectRatio="xMidYMid meet">
<metadata>
Created by potrace 1.10, written by Peter Selinger 2001-2011
</metadata>
<g transform="translate(0.000000,300.000000) scale(0.100000,-0.100000)"
fill="#3d85c6" stroke="none">
<path d="M1360 2779 c-105 -11 -247 -48 -360 -94 -303 -124 -562 -385 -689
-696 -176 -430 -107 -923 178 -1281 345 -435 907 -601 1431 -423 342 116 631
390 769 726 176 430 107 928 -178 1281 -175 217 -365 350 -616 431 -104 33
-159 44 -277 57 -109 11 -137 11 -258 -1z m300 -30 c36 -6 74 -12 85 -13 12
-1 25 -5 30 -8 6 -3 28 -9 50 -13 22 -3 54 -12 70 -19 17 -8 50 -21 75 -31 86
-34 175 -76 185 -89 6 -6 30 -24 55 -38 25 -15 60 -40 78 -57 18 -17 36 -31
39 -31 14 0 81 -75 76 -84 -3 -6 -3 -8 1 -4 13 11 96 -85 141 -164 14 -24 25
-39 25 -34 0 6 20 -30 45 -78 25 -49 45 -97 45 -107 0 -11 4 -19 8 -19 5 0 9
-6 9 -12 1 -7 12 -44 26 -83 74 -208 72 -536 -4 -742 -12 -32 -21 -66 -21 -76
1 -9 -3 -17 -9 -17 -5 0 -9 -7 -9 -15 0 -18 -75 -162 -95 -182 -8 -8 -15 -19
-15 -25 0 -10 -64 -94 -81 -108 -3 -3 -11 -15 -18 -27 -6 -13 -19 -23 -28 -23
-9 0 -13 -3 -10 -7 11 -10 -24 -43 -47 -44 -12 0 -15 -3 -8 -6 10 -4 9 -9 -4
-24 -9 -10 -23 -19 -31 -19 -7 0 -13 -3 -13 -8 0 -11 -102 -88 -127 -96 -13
-4 -23 -12 -23 -17 0 -10 -59 -39 -190 -93 -36 -15 -74 -31 -85 -36 -30 -12
-150 -38 -230 -50 -133 -19 -286 -9 -450 27 -108 25 -365 132 -365 152 0 6
-10 13 -22 17 -26 8 -128 85 -128 96 0 5 -6 8 -13 8 -14 0 -104 90 -91 91 5 0
-1 4 -13 9 -13 5 -23 16 -23 25 0 8 -7 15 -15 15 -8 0 -15 5 -15 10 0 6 -22
41 -49 78 -49 68 -121 196 -135 242 -9 29 -8 26 -39 110 -70 196 -69 562 3
750 12 30 29 75 37 100 19 53 78 166 102 195 9 11 34 46 55 78 21 31 42 57 47
57 5 0 9 7 9 15 0 9 10 20 22 25 13 5 19 9 13 9 -13 1 77 91 92 91 6 0 16 6
20 14 11 19 96 82 122 91 12 3 19 10 16 14 -4 8 131 74 205 101 19 7 50 19 68
27 33 14 182 47 252 56 73 8 238 6 300 -4z"/>
<path d="M1269 2466 c-2 -2 -40 -7 -84 -10 -106 -8 -105 -8 -105 -17 0 -4 -9
-11 -21 -14 -11 -4 -18 -9 -15 -12 3 -4 1 -12 -5 -19 -29 -35 31 -84 103 -84
18 0 43 -3 55 -6 25 -7 26 -3 -3 -136 -16 -74 -18 -78 -51 -89 -19 -6 -40 -12
-46 -13 -44 -9 -99 -32 -114 -48 -15 -16 -30 -88 -16 -74 3 3 18 -1 34 -10 25
-12 33 -13 57 -1 15 7 35 12 46 9 11 -2 16 0 12 7 -7 11 6 16 16 6 3 -3 -1
-31 -9 -63 -7 -31 -15 -64 -17 -72 -2 -8 -14 -58 -26 -110 -11 -52 -30 -124
-40 -160 -11 -36 -22 -78 -25 -95 -2 -16 -9 -45 -14 -63 -5 -18 -10 -34 -11
-37 -2 -15 -13 -42 -21 -58 -5 -10 -8 -21 -5 -25 2 -4 -2 -34 -11 -67 -8 -33
-20 -84 -26 -112 -6 -29 -14 -53 -19 -53 -5 0 -6 -5 -3 -10 4 -6 0 -32 -9 -58
-18 -56 -28 -98 -30 -130 -1 -13 -6 -26 -11 -30 -6 -4 -11 -16 -12 -27 -2 -11
-5 -41 -9 -67 -5 -43 -3 -49 28 -83 30 -32 40 -37 77 -37 30 1 50 7 66 22 13
12 28 19 34 15 6 -3 11 1 11 9 0 8 5 27 12 43 6 15 11 31 10 35 -1 4 17 78 39
165 59 229 61 237 61 253 0 8 3 24 8 35 5 11 20 69 34 128 15 59 38 126 51
147 14 22 25 43 25 47 1 13 125 143 137 143 6 0 13 3 15 8 2 4 27 18 57 32 71
32 157 34 198 4 46 -34 57 -84 43 -184 -7 -47 -21 -108 -31 -137 -9 -28 -15
-53 -13 -56 2 -2 -5 -29 -15 -60 -11 -32 -17 -57 -13 -57 4 0 2 -4 -5 -8 -6
-4 -14 -19 -17 -32 -2 -14 -12 -43 -21 -65 -10 -22 -19 -50 -21 -63 -3 -13
-12 -35 -21 -48 -8 -13 -12 -24 -8 -24 4 0 2 -7 -6 -16 -8 -9 -13 -44 -13 -92
0 -104 30 -164 109 -217 17 -11 39 -21 50 -23 45 -7 170 -1 173 8 2 5 9 10 15
10 20 0 104 72 140 120 30 40 93 176 102 223 2 10 7 27 10 38 10 31 -20 69
-54 69 -26 0 -33 -7 -57 -57 -16 -32 -32 -61 -36 -64 -5 -3 -6 -13 -2 -22 3
-10 1 -17 -5 -17 -6 0 -11 -11 -11 -25 0 -14 -7 -28 -15 -31 -8 -4 -15 -13
-15 -20 0 -8 -7 -17 -15 -20 -8 -4 -12 -10 -10 -15 3 -5 -4 -16 -16 -26 -12
-10 -31 -26 -41 -36 -11 -10 -37 -20 -58 -23 -33 -4 -39 -2 -46 18 -4 13 -7
34 -6 48 1 41 43 179 76 255 8 17 19 48 26 70 6 22 16 49 21 60 18 40 49 151
49 178 0 15 3 27 8 27 9 0 11 21 15 148 2 57 -1 105 -5 108 -4 3 -16 24 -26
47 -24 55 -77 100 -149 127 -50 19 -72 21 -158 17 -60 -3 -115 -11 -137 -21
-21 -9 -38 -13 -38 -9 0 5 -6 1 -13 -7 -7 -8 -18 -16 -25 -18 -8 -1 -27 -12
-43 -24 -21 -16 -32 -19 -40 -11 -7 7 -8 17 -3 25 5 7 9 25 10 40 1 15 5 35 9
45 5 10 10 27 12 38 2 11 8 21 13 23 5 2 6 10 4 17 -14 37 37 126 75 131 28 4
45 9 76 21 28 11 249 73 373 104 28 7 52 17 52 21 0 5 4 7 8 4 6 -4 69 15 144
43 4 2 16 5 25 7 20 6 29 59 12 69 -5 4 -7 11 -4 16 5 8 -24 14 -48 10 -4 -1
-20 -2 -35 -3 -15 -1 -38 -8 -51 -14 -13 -7 -30 -10 -39 -7 -8 4 -13 2 -9 -3
3 -5 -2 -10 -11 -11 -28 -2 -138 -32 -231 -62 -49 -16 -108 -32 -132 -36 -24
-4 -50 -11 -59 -16 -8 -4 -29 -12 -47 -18 -38 -12 -46 4 -26 59 7 19 12 44 13
55 0 11 7 39 15 62 17 49 14 101 -6 114 -14 8 -192 13 -200 5z m194 -30 c3 -7
-12 -80 -33 -162 -21 -82 -37 -150 -36 -150 0 -1 156 43 346 97 190 55 354 98
365 97 14 -2 20 -11 20 -27 0 -23 -15 -29 -374 -132 l-374 -107 -47 -184 c-25
-100 -52 -198 -58 -217 -19 -53 -16 -53 46 8 103 103 253 154 390 132 76 -12
119 -32 162 -74 105 -104 92 -291 -45 -657 -84 -226 -101 -313 -69 -358 31
-44 119 -18 187 57 45 50 62 82 103 196 27 78 35 90 57 93 35 4 38 -14 13 -94
-45 -141 -120 -252 -204 -302 -39 -22 -59 -27 -117 -27 -86 0 -137 24 -180 84
-45 64 -47 141 -5 257 124 346 160 478 160 594 0 152 -79 209 -227 165 -95
-28 -170 -82 -246 -178 -65 -81 -76 -113 -171 -492 -105 -416 -107 -422 -182
-432 -31 -4 -44 0 -62 17 -20 19 -23 30 -20 69 3 33 257 1058 314 1268 l6 22
-85 -26 c-93 -28 -120 -26 -115 9 3 20 17 27 110 53 l106 30 26 110 c29 121
31 141 16 150 -6 4 -47 9 -93 13 -79 7 -82 8 -85 33 -5 42 19 52 161 64 191
17 234 17 240 1z"/>
</g>
</svg>
