<svg width="512" height="512" viewBox="0 0 512 512" fill="none" xmlns="http://www.w3.org/2000/svg">
<path d="M178.668 39.8989C187.907 29.853 202.116 26.0457 215.139 30.1266C226.53 33.6958 238.89 32.3967 249.29 26.5372C261.18 19.8378 275.87 20.6077 286.995 28.5133C296.726 35.4277 308.882 38.0116 320.583 35.6526C333.962 32.9555 347.695 38.2272 355.833 49.1837C362.95 58.7666 373.713 64.9804 385.571 66.3529C399.128 67.922 410.56 77.1794 414.914 90.1144C418.721 101.428 427.037 110.663 437.89 115.633C450.299 121.315 458.311 133.652 458.455 147.299C458.58 159.235 463.635 170.588 472.421 178.668C482.467 187.907 486.274 202.116 482.194 215.139C478.624 226.53 479.923 238.89 485.783 249.29C492.482 261.18 491.713 275.87 483.807 286.995C476.892 296.726 474.309 308.882 476.668 320.583C479.365 333.962 474.093 347.695 463.136 355.833C453.554 362.95 447.34 373.713 445.967 385.571C444.398 399.128 435.141 410.56 422.206 414.914C410.893 418.721 401.657 427.037 396.687 437.89C391.006 450.299 378.669 458.311 365.021 458.455C353.085 458.58 341.732 463.635 333.652 472.421C324.413 482.467 310.205 486.274 297.181 482.194C285.79 478.624 273.43 479.923 263.031 485.783C251.14 492.482 236.45 491.712 225.325 483.807C215.595 476.892 203.439 474.309 191.737 476.668C178.358 479.365 164.625 474.093 156.487 463.137C149.37 453.554 138.607 447.34 126.75 445.967C113.192 444.398 101.76 435.141 97.4066 422.206C93.5988 410.893 85.283 401.657 74.4297 396.687C62.0207 391.006 54.009 378.669 53.8656 365.021C53.7401 353.085 48.6853 341.732 39.8989 333.652C29.853 324.413 26.0457 310.205 30.1266 297.181C33.6958 285.79 32.3967 273.43 26.5372 263.031C19.8378 251.14 20.6077 236.45 28.5133 225.325C35.4278 215.595 38.0116 203.439 35.6526 191.737C32.9555 178.358 38.2271 164.625 49.1837 156.487C58.7666 149.37 64.9804 138.607 66.3529 126.75C67.922 113.192 77.1794 101.76 90.1144 97.4066C101.428 93.5987 110.663 85.283 115.633 74.4297C121.315 62.0207 133.652 54.009 147.299 53.8656C159.235 53.7401 170.588 48.6853 178.668 39.8989Z" fill="#1C1D1E" stroke="#EAE4D9" stroke-width="8"/>
<path d="M186.407 177.26V335.948C186.407 342.202 175.95 342.666 170.141 343.361V346.141H230.558V343.361H229.861C223.819 343.361 209.877 341.739 209.877 335.948V288.921C209.877 256.025 253.099 208.071 282.378 193.013C291.441 188.38 300.271 186.99 303.292 186.99C307.939 186.99 306.08 190.697 301.201 194.172C242.874 234.944 229.861 247.917 244.036 266.913L293.067 333.399C294.229 335.253 294.926 336.874 294.926 338.033C294.926 341.739 289.349 342.434 283.54 343.129V346.141H348.141V343.129C342.099 342.434 328.621 341.276 323.276 334.558L270.295 262.511C267.041 257.646 265.647 252.782 265.647 248.148C265.647 230.079 287.026 214.558 301.201 203.67C319.791 189.075 334.895 181.894 334.895 174.48C334.895 170.542 330.48 166.141 319.558 166.141C289.349 166.141 224.052 223.361 209.877 272.936V177.26C209.877 171.005 220.566 169.847 226.143 169.847H228.234V167.067H170.141V169.847C175.95 170.542 186.407 171.005 186.407 177.26Z" fill="#EAE4D9"/>
<circle cx="256" cy="256" r="200" stroke="#EAE4D9" stroke-width="8"/>
</svg>
