<svg xmlns="http://www.w3.org/2000/svg" xmlns:xlink="http://www.w3.org/1999/xlink" viewBox="0 0 378.81 483.5"><defs><style>.cls-1{fill:none;}.cls-2{isolation:isolate;}.cls-3{clip-path:url(#clip-path);}.cls-4{fill:url(#linear-gradient);}.cls-5{fill:url(#linear-gradient-2);}.cls-6{fill:url(#linear-gradient-3);}.cls-7{mix-blend-mode:multiply;fill:url(#linear-gradient-4);}.cls-8{fill:url(#linear-gradient-5);}.cls-9{mix-blend-mode:screen;opacity:0.7;fill:url(#linear-gradient-6);}.cls-10{mix-blend-mode:hue;fill:url(#linear-gradient-7);}.cls-11{fill:#311b98;opacity:0.2;}.cls-12{fill:#fff;opacity:0.3;}</style><clipPath id="clip-path" transform="translate(5.2 5.87)"><path class="cls-1" d="M94.84,193.79,150.55,62.91c1.55-3.26,3.33-5.19,7.13-7.75L246.28.62a4.17,4.17,0,0,1,6,5.16l-22.5,58,47.94,107.37,16.54-43A19.39,19.39,0,0,1,301,120l33.33-20.32a4.17,4.17,0,0,1,6.11,4.71l-7.07,46.55,36,210.4a31.86,31.86,0,0,1-17.92,34.34L197.63,467.42a31.89,31.89,0,0,1-27.07-.06L18.28,395.56A31.88,31.88,0,0,1,.41,361.62L29,139.18a16.14,16.14,0,0,1,7.37-9.89l46.66-27.84a4.17,4.17,0,0,1,6,5.07L78.44,152.2Z"/></clipPath><linearGradient id="linear-gradient" x1="190.26" y1="479.61" x2="190.26" y2="101.15" gradientUnits="userSpaceOnUse"><stop offset="0.7" stop-color="#cfe4f3"/><stop offset="1" stop-color="#6bc3f9"/></linearGradient><linearGradient id="linear-gradient-2" x1="188.68" y1="473.74" x2="188.68" y2="-5.87" gradientUnits="userSpaceOnUse"><stop offset="0" stop-color="#b18cf9"/><stop offset="1" stop-color="#4f3dd5"/></linearGradient><linearGradient id="linear-gradient-3" x1="190.32" y1="479.42" x2="190.32" y2="99.84" gradientUnits="userSpaceOnUse"><stop offset="0" stop-color="#b1d6f9"/><stop offset="1" stop-color="#9193ee"/></linearGradient><linearGradient id="linear-gradient-4" x1="190.26" y1="479.61" x2="190.26" y2="101.15" gradientUnits="userSpaceOnUse"><stop offset="0" stop-color="#cfe4f3"/><stop offset="1" stop-color="#6bc3f9"/></linearGradient><linearGradient id="linear-gradient-5" x1="119.29" y1="483.5" x2="119.29" y2="101.88" xlink:href="#linear-gradient-3"/><linearGradient id="linear-gradient-6" x1="190.26" y1="479.61" x2="190.26" y2="111.2" xlink:href="#linear-gradient-3"/><linearGradient id="linear-gradient-7" x1="-21.27" y1="452.31" x2="403.59" y2="27.45" gradientUnits="userSpaceOnUse"><stop offset="0" stop-color="#a684f8"/><stop offset="0.5" stop-color="#8272fa"/><stop offset="1" stop-color="#90aefb"/></linearGradient></defs><g class="cls-2"><g id="Layer_2" data-name="Layer 2"><g id="Layer_1-2" data-name="Layer 1"><g class="cls-3"><polygon class="cls-4" points="98.61 101.15 83.64 158.06 101.64 203.53 378.75 391.19 189.29 479.61 1.77 391.19 34.64 139.41 98.61 101.15"/><path class="cls-5" d="M229.79,63.77,257.06-5.87,156.41,54.58a21.38,21.38,0,0,0-7.28,9.34L96.74,189.28,3.8,393l180.28,80.76,189.47-88.42Z" transform="translate(5.2 5.87)"/><polygon class="cls-6" points="301.72 128.78 238.17 296 1.83 391 189.34 479.42 378.81 391 338.63 156.56 347.77 99.84 301.72 128.78"/><polygon class="cls-7" points="98.61 101.15 83.64 158.06 100.04 199.66 378.75 391.19 189.29 479.61 1.77 391.19 34.25 138.13 98.61 101.15"/><polygon class="cls-8" points="238.59 294.89 0 391.75 187.52 483.5 189.29 479.61 238.59 294.89"/><polygon class="cls-9" points="1.77 391.19 189.29 479.61 378.75 391.19 238.59 294.89 1.77 391.19"/><rect class="cls-10" x="3.41" y="5.86" width="372.41" height="471.14"/><path class="cls-11" d="M195.34,465.27a28.16,28.16,0,0,1-23.32,0L4.36,386.49a31.82,31.82,0,0,0,13.92,12.79l152.28,71.8a31.89,31.89,0,0,0,27.07.06l153.82-71.79a31.73,31.73,0,0,0,13.71-12.28Z" transform="translate(5.2 5.87)"/><path class="cls-12" d="M303.05,120.87,338.92,99a4.14,4.14,0,0,0-5.84-1.87l-33.33,20.32a19.39,19.39,0,0,0-6.72,8.22l-14.62,44.46,17.2-40.45C297.62,125.36,299.21,123.22,303.05,120.87Z" transform="translate(5.2 5.87)"/><path class="cls-12" d="M159.69,56.09,252.06-.63c.1-3.08-5.29-3.95-8.26-2.16L150.89,54.5a4.19,4.19,0,0,0-1.31,1.58L95.84,190.92l55-124.29C153.18,61.2,155.18,58.84,159.69,56.09Z" transform="translate(5.2 5.87)"/><path class="cls-12" d="M37.26,131.41l49.33-30.86a4.13,4.13,0,0,0-5.84-1.74L34.09,126.66a16.11,16.11,0,0,0-7.37,9.89l-26,223L30.6,141.33A13.7,13.7,0,0,1,37.26,131.41Z" transform="translate(5.2 5.87)"/></g></g></g></g></svg>