<?xml version="1.0" standalone="no"?>
<!DOCTYPE svg PUBLIC "-//W3C//DTD SVG 20010904//EN"
 "http://www.w3.org/TR/2001/REC-SVG-20010904/DTD/svg10.dtd">
<svg version="1.0" xmlns="http://www.w3.org/2000/svg"
 width="412.000000pt" height="156.000000pt" viewBox="0 0 412.000000 156.000000"
 preserveAspectRatio="xMidYMid meet">

<g transform="translate(0.000000,156.000000) scale(0.100000,-0.100000)"
fill="#000000" stroke="none">
<path d="M0 780 l0 -780 2060 0 2060 0 0 780 0 780 -2060 0 -2060 0 0 -780z
m3516 468 c-27 -244 -36 -334 -41 -403 -6 -84 -12 -159 -20 -235 -2 -25 -9
-103 -16 -173 -9 -103 -15 -130 -29 -137 -9 -5 -68 -23 -131 -40 -63 -16 -147
-39 -187 -50 -80 -22 -81 -22 -267 30 -55 16 -128 36 -161 46 l-62 17 -7 121
c-3 66 -13 175 -20 241 -14 119 -38 379 -50 548 l-7 87 502 0 502 0 -6 -52z
m-1771 -385 c32 -76 73 -173 91 -215 l33 -78 -69 0 -69 0 -12 35 -13 35 -78 0
-78 0 -14 -35 -15 -35 -67 0 c-49 0 -65 3 -61 13 3 6 40 93 82 192 42 99 81
190 86 203 7 19 16 22 67 22 l59 0 58 -137z m-895 77 l0 -50 -110 0 -110 0 0
-30 0 -30 100 0 100 0 0 -50 0 -50 -100 0 -100 0 0 -30 0 -30 110 0 110 0 0
-49 c0 -38 -4 -50 -16 -53 -9 -2 -88 -2 -175 0 l-159 3 0 209 0 210 175 0 175
0 0 -50z m201 28 c7 -13 27 -47 46 -77 l34 -53 47 76 46 76 68 0 68 0 0 -210
0 -210 -65 0 -64 0 -3 108 -3 107 -45 -72 c-25 -40 -47 -73 -50 -73 -3 0 -27
35 -55 77 l-50 77 -3 -112 -3 -112 -59 0 -60 0 0 210 0 210 70 0 c62 0 71 -2
81 -22z m979 -188 l0 -210 -60 0 -60 0 0 210 0 210 60 0 60 0 0 -210z m190 55
l0 -155 100 0 100 0 0 -55 0 -55 -165 0 -165 0 0 210 0 210 65 0 65 0 0 -155z"/>
<path d="M2723 1077 c-3 -5 -2 -39 2 -75 4 -37 9 -78 10 -92 1 -14 6 -58 10
-97 l7 -73 211 -2 212 -3 -3 -70 c-2 -38 -5 -77 -8 -86 -2 -9 -34 -24 -78 -37
-71 -21 -77 -21 -123 -5 -93 31 -93 31 -93 62 0 53 -8 61 -60 61 l-47 0 2 -37
c1 -21 3 -61 4 -88 l1 -51 123 -32 122 -31 73 17 c40 10 69 22 65 27 -4 4 -3
5 4 1 7 -3 32 -1 57 5 40 10 46 15 50 43 8 46 26 257 26 294 l0 32 -225 0
-225 0 -1 40 c-1 22 -2 52 -3 68 l-1 27 235 5 235 5 0 50 0 50 -288 0 c-159 0
-291 -4 -294 -8z"/>
<path d="M1608 794 c-9 -27 -15 -50 -14 -52 2 -2 20 -2 39 0 l34 3 -21 48 -21
48 -17 -47z"/>
</g>
</svg>
