<svg xmlns="http://www.w3.org/2000/svg" xmlns:xlink="http://www.w3.org/1999/xlink" width="500" zoomAndPan="magnify" viewBox="0 0 375 374.999991" height="500" preserveAspectRatio="xMidYMid meet" version="1.0"><defs><clipPath id="id1"><path d="M 14 15.058594 L 361.226562 15.058594 L 361.226562 360.058594 L 14 360.058594 Z M 14 15.058594 " clip-rule="nonzero"/></clipPath></defs><rect x="-37.5" width="450" fill="#ffffff" y="-37.499999" height="449.999989" fill-opacity="1"/><rect x="-37.5" width="450" fill="#000000" y="-37.499999" height="449.999989" fill-opacity="1"/><rect x="-37.5" width="450" fill="#ffffff" y="-37.499999" height="449.999989" fill-opacity="1"/><rect x="-37.5" width="450" fill="#000000" y="-37.499999" height="449.999989" fill-opacity="1"/><g clip-path="url(#id1)"><path fill="#5271ff" d="M 359.980469 211.34375 C 336.09375 267.695312 281.101562 304.117188 219.886719 304.117188 C 136.03125 304.117188 67.800781 235.910156 67.800781 152.066406 C 67.800781 94.460938 99.742188 42.46875 151.164062 16.390625 L 153.785156 15.058594 L 150.914062 15.683594 C 112.71875 24.050781 78.007812 45.441406 53.164062 75.929688 C 40.78125 91.136719 31.128906 108.152344 24.476562 126.503906 C 17.589844 145.496094 14.101562 165.46875 14.101562 185.859375 C 14.101562 209.378906 18.710938 232.1875 27.796875 253.667969 C 36.574219 274.414062 49.132812 293.039062 65.136719 309.039062 C 81.140625 325.039062 99.769531 337.59375 120.519531 346.371094 C 142.003906 355.453125 164.820312 360.058594 188.34375 360.058594 C 209.738281 360.058594 230.628906 356.226562 250.441406 348.671875 C 269.582031 341.375 287.160156 330.820312 302.675781 317.3125 C 334.042969 290.015625 354.652344 252.457031 360.699219 211.546875 L 361.125 208.640625 Z M 359.980469 211.34375 " fill-opacity="1" fill-rule="nonzero"/></g><path fill="#5271ff" d="M 104.28125 85.433594 L 104.929688 85.816406 C 121.9375 60.328125 155.46875 48.175781 155.820312 48.050781 C 185.78125 35.878906 214 39.0625 232.402344 43.882812 C 252.347656 49.105469 265.378906 57.320312 265.496094 57.402344 C 291.023438 74.414062 305.03125 96.300781 312.292969 111.660156 C 320.164062 128.3125 322.019531 141.105469 322.042969 141.253906 C 325.808594 161.167969 323.316406 175.769531 314.632812 184.640625 C 302.582031 196.953125 282.5 193.78125 282.273438 193.746094 C 261.804688 191.621094 245.511719 182.183594 235.449219 174.640625 C 224.527344 166.460938 218.378906 158.679688 218.332031 158.621094 C 204 137.308594 191.617188 133.910156 190.726562 133.691406 C 184.074219 130.824219 177.601562 130.710938 171.488281 133.351562 C 156.394531 139.878906 148.242188 161.320312 147.839844 162.410156 C 134.175781 183.425781 108.878906 192.171875 108.628906 192.261719 L 108.15625 192.421875 L 108.4375 192.835938 C 114.472656 201.617188 123.851562 209.480469 136.324219 216.203125 C 146.285156 221.574219 158.226562 226.230469 171.824219 230.054688 C 194.964844 236.558594 215.15625 238.40625 215.375 238.417969 C 219.945312 238.640625 224.425781 238.75 228.820312 238.75 C 251.863281 238.75 272.371094 235.726562 289.925781 229.730469 C 306.65625 224.015625 320.761719 215.601562 331.835938 204.714844 C 350.714844 186.167969 354.296875 166.601562 354.335938 166.402344 L 354.34375 166.367188 C 355.277344 153.046875 354.769531 140.230469 352.847656 128.261719 C 349.679688 108.578125 342.601562 90.710938 331.796875 75.160156 C 323.160156 62.71875 312.144531 51.722656 299.050781 42.484375 C 276.753906 26.75 255.878906 21.488281 255.667969 21.4375 C 248.332031 19.671875 241.023438 18.40625 233.953125 17.699219 C 213.691406 15.640625 194.296875 17.871094 176.320312 24.320312 C 161.90625 29.492188 148.355469 37.386719 136.050781 47.765625 C 114.792969 65.667969 104.699219 84.632812 104.28125 85.433594 Z M 104.28125 85.433594 " fill-opacity="1" fill-rule="nonzero"/></svg>
