<svg width="453" height="450" viewBox="0 0 453 450" fill="none" xmlns="http://www.w3.org/2000/svg">
<mask id="mask0_2557_13779" style="mask-type:alpha" maskUnits="userSpaceOnUse" x="0" y="0" width="214" height="450">
<rect width="214" height="450" rx="8" fill="#C4C4C4"/>
</mask>
<g mask="url(#mask0_2557_13779)">
<path d="M225 450C349.264 450 450 349.264 450 225C450 100.736 349.264 0 225 0C100.736 0 0 100.736 0 225C0 349.264 100.736 450 225 450Z" fill="#C8ECE1"/>
<path d="M75.4638 167.98C72.4612 165.185 75.2629 161.691 77.7216 159.771C80.8069 156.88 83.8627 153.742 86.7589 150.976C99.6497 137.854 112.546 125.111 127.11 113.97C129.096 107.409 138.269 112.829 134.392 118.107C116.205 132.582 99.7146 149.214 83.2716 165.675L83.4903 165.457C83.544 165.412 83.5935 165.363 83.6381 165.309C81.5694 167.596 78.4545 170.723 75.4638 167.98Z" fill="#308D8A"/>
<path d="M132.3 119.206C131.303 119.16 130.36 118.743 129.655 118.036C128.951 117.329 128.537 116.385 128.493 115.388C128.483 114.82 128.592 114.255 128.813 113.732C129.034 113.208 129.362 112.736 129.776 112.346C130.191 111.957 130.681 111.658 131.218 111.469C131.754 111.281 132.324 111.206 132.891 111.251C138.021 110.559 142.602 110.128 147.667 109.85C222.595 104.684 298.054 106.812 372.893 110.695C375.092 110.518 377.031 112.527 377.066 114.655C376.936 120.418 370.05 118.645 366.268 118.615C288.503 114.567 210.005 112.356 132.3 119.206Z" fill="#308D8A"/>
<path d="M318.687 176.201C317.464 176.154 316.323 176.107 315.366 176.201C272.107 173.772 228.652 174.074 185.246 174.369C154.358 174.588 123.487 174.789 92.7583 174.032C91.6114 173.404 90.3631 172.982 89.0702 172.785C87.143 172.131 85.1665 171.633 83.1597 171.296C82.3854 171.13 81.6053 170.982 80.831 170.835C80.5177 170.716 80.2399 170.622 79.9207 170.521C78.8548 170.179 77.742 170.006 76.6226 170.007C76.5576 170.007 76.4868 170.007 76.4218 169.978C76.4822 169.991 76.5434 170.001 76.605 170.007H76.5399C75.6482 169.853 74.7483 169.751 73.8447 169.7C73.9187 169.141 74.1163 168.607 74.4231 168.134C74.7298 167.662 75.1379 167.264 75.6179 166.969C78.2421 165.119 81.5285 165.054 84.5842 165.468C97.345 167.117 110.123 166.756 122.937 166.408C130.621 166.213 138.305 166 145.988 166.23C163.832 166.573 181.699 166.425 199.567 166.278C221.885 166.094 244.227 165.917 266.533 166.721C276.504 166.544 286.493 166.922 296.464 167.312C305.412 167.672 314.361 168.021 323.297 167.974C323.851 167.827 324.429 167.795 324.995 167.881C325.561 167.967 326.104 168.169 326.588 168.474C327.073 168.779 327.49 169.181 327.812 169.654C328.135 170.127 328.356 170.662 328.463 171.225C328.723 175.634 324.976 176.284 321.105 176.284C320.313 176.26 319.485 176.231 318.687 176.201Z" fill="#308D8A"/>
<path d="M87.5508 172.549H87.9164C87.8103 172.589 87.6746 172.589 87.5508 172.549Z" fill="#308D8A"/>
<path d="M79.9317 170.492C78.8669 170.146 77.7532 169.974 76.6337 169.984C76.5687 169.984 76.4979 169.984 76.4329 169.948C76.4979 169.948 76.5687 169.948 76.616 169.984H76.551C75.4685 169.77 74.3682 169.66 73.2649 169.653H72.9279C72.5664 168.865 72.4303 167.992 72.5346 167.131C72.6389 166.27 72.9796 165.455 73.519 164.777C74.9552 162.944 76.096 160.154 78.7852 160.101C83.2415 160.137 83.9862 165.22 81.1493 167.897C81.2123 168.38 81.1773 168.871 81.0463 169.34C80.9153 169.81 80.691 170.247 80.3868 170.628L79.9317 170.492Z" fill="#308D8A"/>
<path d="M96.0376 174.771C92.2785 174.665 88.3126 174.328 84.6482 174.275C80.7414 173.897 76.3087 174.996 72.7388 173.093C67.2244 169.233 76.1549 158.092 81.0783 159.156C84.199 159.847 85.5347 164.162 82.8218 166.207C87.5501 166.325 92.1072 166.538 96.8296 166.798C101.989 167.389 101.215 175.167 96.0376 174.771Z" fill="#308D8A"/>
<path d="M317.83 202.693C240.107 199.708 162.33 202.61 84.5775 201.694C79.6658 201.499 79.4826 193.933 84.5775 193.756C164.293 194.388 244.02 191.983 323.7 194.731C328.818 194.613 329.232 202.486 323.966 202.711C321.903 202.77 319.852 202.752 317.83 202.693Z" fill="#308D8A"/>
<path d="M367.188 260.511C320.666 258.229 273.932 259.464 227.304 258.862C209.49 258.602 191.788 257.538 173.991 258.034C161.313 257.833 148.535 260.481 135.934 259.589C131.294 258.347 132.275 251.408 137.234 251.745C162.862 250.906 188.596 248.695 214.289 250.664C248.316 251.178 282.36 250.664 316.393 251.497C333.533 251.639 350.739 250.871 367.814 252.543C371.361 252.656 377.064 251.467 377.419 256.432C377.277 261.888 370.781 260.499 367.07 260.511H367.188Z" fill="#308D8A"/>
<path d="M132.99 258.482L132.647 258.186L132.482 258.056C132.665 258.198 132.854 258.358 133.073 258.5C112.557 242.157 96.4279 221.405 78.8206 202.202C74.6123 198.886 79.5416 192.745 83.5075 195.742C98.9102 211.186 111.517 229.154 128.149 243.375C131.577 246.803 135.307 249.746 138.829 252.932C141.986 256.626 136.578 261.839 132.99 258.482Z" fill="#308D8A"/>
<path d="M134.078 289.158C133.056 288.902 132.174 288.255 131.622 287.357C131.069 286.459 130.89 285.381 131.123 284.352C131.714 281.71 134.297 281.06 136.69 281.397C139.858 280.815 143.054 280.403 146.265 280.161C221.27 275.846 296.771 279.334 371.989 278.943C376.9 279.091 377.137 286.705 372.018 286.882C292.758 287.544 212.859 283.075 134.078 289.158Z" fill="#308D8A"/>
<path d="M85.1337 344.694C79.5305 345.498 78.0824 337.276 83.9516 336.738C92.7227 337.276 101.358 336.442 110.1 336.076C181.959 334.976 253.843 336.277 325.715 336.72C330.207 337.701 329.414 344.7 324.822 344.6C244.676 344.387 164.648 342.607 84.5781 344.664L85.1337 344.694Z" fill="#308D8A"/>
<path d="M80.6884 342.015C73.9267 338.894 80.4697 332.771 83.6436 329.786C92.4622 319.928 101.671 309.738 111.364 300.872C117.416 294.714 123.776 288.915 130.219 283.194C131.401 282.077 132.914 280.889 134.581 280.913C138.972 280.741 140.231 287.178 136.07 288.649C118.338 304.117 102.073 321.263 86.3683 338.569C84.9852 340.602 83.7146 342.978 80.6884 342.015Z" fill="#308D8A"/>
<path d="M131.651 284.623C212.041 277.778 293.525 282.597 374.4 282.062C359.88 299.297 347.077 318.361 332.737 335.829L332.681 335.892C331.276 337.363 329.435 339.311 328.428 341.351C253.89 340.803 179.321 339.311 104.801 340.606C96.9661 340.978 89.2554 341.745 81.4204 341.591C97.3081 321.844 113.768 302.308 131.651 284.623Z" fill="#308D8A"/>
<path d="M375.765 255.694C374.923 255.694 374.117 255.755 373.392 255.734C355.617 253.818 337.732 254.699 319.901 254.531C284.505 253.596 249.085 254.174 213.689 253.596C187.048 251.356 160.358 253.838 133.76 254.793C130.514 251.679 127.169 248.74 124.04 245.29C108.945 231.168 97.0421 213.804 83.5957 197.913C162.854 198.793 242.137 195.713 321.365 199.022C322.398 199.056 323.443 199.076 324.476 199.076C325.023 199.512 325.631 199.848 326.277 200.071C343.714 217.449 360.978 235.465 375.765 255.694Z" fill="#308D8A"/>
<path d="M375.834 116.369C376.553 116.369 377.387 116.441 378.245 116.513C361.883 133.74 346.574 151.894 330.83 169.702C330.41 170.004 330.05 170.387 329.77 170.831C320.301 170.89 310.794 170.505 301.293 170.107C290.644 169.67 279.969 169.245 269.32 169.454C245.496 168.56 221.64 168.763 197.797 168.965C178.714 169.128 159.637 169.291 140.573 168.906C132.366 168.652 124.16 168.906 115.953 169.108C102.267 169.493 88.6191 169.891 74.9837 168.071C74.6491 168.012 74.3525 167.979 73.999 167.94C74.0369 167.888 74.0684 167.816 74.1063 167.758C91.0685 150.204 108.1 132.52 126.779 116.957C209.494 109.478 293.024 111.919 375.834 116.369Z" fill="#308D8A"/>
</g>
<mask id="mask1_2557_13779" style="mask-type:alpha" maskUnits="userSpaceOnUse" x="239" y="0" width="214" height="450">
<rect x="239" width="214" height="450" rx="8" fill="#C4C4C4"/>
</mask>
<g mask="url(#mask1_2557_13779)">
<path d="M228 450C352.264 450 453 349.264 453 225C453 100.736 352.264 0 228 0C103.736 0 3 100.736 3 225C3 349.264 103.736 450 228 450Z" fill="black"/>
<path fill-rule="evenodd" clip-rule="evenodd" d="M141.848 287.021C142.695 286.09 143.726 285.346 144.877 284.836C146.027 284.327 147.272 284.064 148.53 284.062L354.72 284.231C355.599 284.233 356.457 284.49 357.192 284.97C357.928 285.451 358.507 286.135 358.86 286.938C359.215 287.741 359.327 288.631 359.185 289.497C359.044 290.364 358.653 291.17 358.061 291.819L314.153 340.166C313.306 341.098 312.273 341.842 311.122 342.352C309.97 342.862 308.725 343.125 307.465 343.125L101.28 342.956C100.402 342.954 99.5436 342.697 98.8087 342.217C98.0737 341.737 97.4941 341.053 97.1403 340.249C96.7865 339.446 96.6735 338.556 96.8154 337.69C96.9571 336.824 97.3476 336.017 97.9392 335.368L141.848 287.021ZM358.061 246.774C358.653 247.423 359.044 248.23 359.185 249.096C359.327 249.963 359.215 250.852 358.86 251.656C358.507 252.459 357.928 253.143 357.192 253.623C356.457 254.104 355.599 254.36 354.72 254.362L148.536 254.531C147.277 254.531 146.032 254.268 144.88 253.758C143.728 253.249 142.695 252.504 141.848 251.572L97.9392 203.197C97.3476 202.548 96.9571 201.742 96.8154 200.875C96.6735 200.009 96.7865 199.119 97.1403 198.316C97.4941 197.513 98.0737 196.829 98.8087 196.348C99.5436 195.868 100.402 195.612 101.28 195.609L307.47 195.441C308.729 195.442 309.973 195.705 311.124 196.215C312.275 196.724 313.307 197.468 314.153 198.399L358.061 246.774ZM141.848 109.834C142.695 108.903 143.726 108.158 144.877 107.649C146.027 107.139 147.272 106.876 148.53 106.875L354.72 107.044C355.599 107.045 356.457 107.302 357.192 107.783C357.928 108.263 358.507 108.947 358.86 109.75C359.215 110.554 359.327 111.443 359.185 112.31C359.044 113.176 358.653 113.983 358.061 114.632L314.153 162.979C313.306 163.91 312.273 164.655 311.122 165.165C309.97 165.674 308.725 165.937 307.465 165.937L101.28 165.769C100.402 165.766 99.5436 165.51 98.8087 165.03C98.0737 164.549 97.4941 163.865 97.1403 163.062C96.7865 162.259 96.6735 161.369 96.8154 160.503C96.9571 159.636 97.3476 158.83 97.9392 158.181L141.848 109.834Z" fill="url(#paint0_linear_2557_13779)"/>
</g>
<defs>
<linearGradient id="paint0_linear_2557_13779" x1="104.723" y1="348.277" x2="351.278" y2="101.722" gradientUnits="userSpaceOnUse">
<stop stop-color="#9945FF"/>
<stop offset="0.2" stop-color="#7962E7"/>
<stop offset="1" stop-color="#00D18C"/>
</linearGradient>
</defs>
</svg>
