<?xml version="1.0" encoding="utf-8"?>
<!-- Generator: Adobe Illustrator 23.0.1, SVG Export Plug-In . SVG Version: 6.00 Build 0)  -->
<svg version="1.1" id="圖層_1" xmlns="http://www.w3.org/2000/svg" xmlns:xlink="http://www.w3.org/1999/xlink" x="0px" y="0px"
	 viewBox="0 0 400 400" style="enable-background:new 0 0 400 400;" xml:space="preserve">
<style type="text/css">
	.st0{fill:#F1D6C8;}
	.st1{fill:#020507;}
	.st2{fill:#FFFFFF;}
	.st3{fill:#B1B6C6;}
	.st4{fill:#717171;}
	.st5{fill:#89909C;}
	.st6{fill:#1C2647;}
</style>
<circle class="st0" cx="200" cy="200" r="200"/>
<g id="主扇貝_1_">
	<g>
		<path class="st1" d="M321.52,149.69c11.7-10.46,24-27.35,18.04-35.69s-38-8.31-49.07-6.08c-14.36-13.59-29.24-29.13-68.46-19.39
			c-7.75-9-25.32-21.24-31.76-18.36c-12.91,5.36-18.18,34.9-18.18,34.9c-36.32,9.52-71.95,28.17-80.72,33.23
			c-16.4,8.82-33.41,26.07-27.32,51.55c-15.18,13.92-18.76,76.85,27.15,89.76c18.67,26.93,34.81,25.72,55.59,25.35
			c6.48,16.01,31.01,35.98,65.34,14.9c23.27,5.03,51.51,6.23,73.16-15.76c29.47-1.02,65.59-26.9,55.68-70.06
			C359.02,208.34,324.42,155.06,321.52,149.69z"/>
		<path class="st2" d="M280.43,300.01c-0.24,0.25-0.49,0.5-0.73,0.75C279.94,300.51,280.18,300.26,280.43,300.01z"/>
		<g>
			<path class="st3" d="M336.5,196.66c-23.66-62.68-57.88-96.43-76.99-102.27c-21.09-6.49-42.3,1.88-91,18.33
				c-51.62,17.44-87.03,32.3-96.42,53.97c-9.08,20.93,7.71,47.37,28.2,51.81c-0.32-2.92,0.19-7.09,0.3-7.75
				c0.57-3.54,7.1-32.77,40.47-45.46c-20.16,11.3-45.48,40.38-31.62,66.66c7.26,9.25,19.64,16.22,39.96,10.99
				c1.79-27.06,22.86-60.31,49.48-82.54c-17.71,20.74-39.37,49.64-42.42,77.2c-0.24,2.16-0.3,11.97,5.02,18.96
				c16.9,15.79,48.71,22.43,68.04,0.9c19.47-23.94,14.88-68.24,12.1-91.37c8.55,30.81,9.95,65.73-3.79,88.87
				c11.26,11.51,31.99,13.45,50.79-1.9c12.47-28.96,12.21-65.99-13.16-100.02c26.2,31.02,28.79,56.72,20.76,96.67
				C320.48,243.14,348.97,236.08,336.5,196.66z"/>
			<g>
				<path class="st3" d="M91.9,247.73c-11.54-3.36-30.3-18.72-29.75-38.97c-2.7,11.9-6.54,52.81,32.81,65.59
					C90.86,265.86,90.89,255.94,91.9,247.73z"/>
				<path class="st3" d="M142.42,275.37c-14.05,0.98-39.96-11.42-42.95-27.91c-3.8,4.57-8.6,22.09,1.97,35.61c0,0,0,0,0,0
					c13.76,16.43,27.22,16.73,46.77,15.52C143.69,290.23,142.19,282.33,142.42,275.37z"/>
				<path class="st3" d="M286.74,279.33C286.74,279.32,286.74,279.32,286.74,279.33c-9.51,10.38-35.63,16.89-58.82,6.16
					c-0.38,6.47-7.69,21.69-15.47,27.65c15.15,3.52,44.64,9.98,67.04-12.19C284.61,293.47,286.49,285.91,286.74,279.33z"/>
				<path class="st3" d="M147.35,275.71c-1.06,10.73,0.58,18.49,2.91,24.81c6.13,12.76,27.45,33.65,60.16,13.56
					c8.39-7.12,10.44-18.29,10.22-26.08C205.17,299.73,160.25,299.22,147.35,275.71z"/>
				<path class="st3" d="M291.98,277.57C291.98,277.57,291.98,277.57,291.98,277.57c-0.13,4.48-1.71,11.55-9.69,20.51
					c27.8-0.36,48.68-19.39,52.46-39.08C326.44,272.01,307.18,280.07,291.98,277.57z"/>
			</g>
		</g>
		<path class="st2" d="M150.26,300.52c-0.19-0.52-0.38-1.06-0.56-1.6C149.88,299.46,150.07,299.99,150.26,300.52z"/>
		<path class="st2" d="M149.57,298.5c-0.36-1.11-0.7-2.26-1-3.46C148.87,296.24,149.2,297.4,149.57,298.5z"/>
		<path class="st4" d="M149.7,298.91c-0.05-0.14-0.09-0.27-0.13-0.41C149.61,298.64,149.66,298.78,149.7,298.91z"/>
		<path class="st4" d="M210.42,314.08c2.93-1.8,4.65-4.73,6.09-7.56C215.01,309.28,213.02,311.88,210.42,314.08z"/>
		<path class="st4" d="M148.57,295.04c-0.04-0.15-0.07-0.29-0.11-0.44C148.49,294.75,148.53,294.89,148.57,295.04z"/>
		<g>
			<path class="st5" d="M61.1,232.54c1.93,15.76,9.86,34.01,33.86,41.8c-1.54-3.18-2.5-6.57-3.04-9.99c0,0,0,0,0,0
				C72.38,264.01,63.16,242.15,61.1,232.54z"/>
			<path class="st5" d="M95.16,266.9c0.48,5.35,2.28,11.04,6.28,16.17c0,0,0,0,0,0c13.76,16.43,27.22,16.73,46.77,15.52
				c-1.24-2.3-2.25-4.56-3.06-6.77c0,0,0,0,0,0C109.55,296.59,99.14,277.12,95.16,266.9z"/>
			<path class="st5" d="M216.52,306.52c0.16-0.3,0.31-0.61,0.46-0.91c-8.01,6.06-16.26,11.09-33.98,10.33
				c-21.49-1.71-31.76-12.56-34.96-23.2c0.13,0.64,0.27,1.26,0.42,1.87c0.04,0.15,0.07,0.29,0.11,0.44c0.3,1.2,0.64,2.36,1,3.46
				c0.04,0.14,0.09,0.27,0.13,0.41c0.18,0.54,0.37,1.08,0.56,1.6c6.13,12.76,27.45,33.65,60.16,13.56
				C213.02,311.88,215.01,309.28,216.52,306.52z"/>
			<path class="st5" d="M279.5,300.95c1.88-2.75,3.32-5.52,4.41-8.24c-24.53,23.87-57.08,16.8-64.19,12.22l0,0
				c-2.22,3.31-4.72,6.25-7.26,8.2C227.6,316.66,257.09,323.11,279.5,300.95z"/>
			<path class="st5" d="M287.61,291c-1.34,2.2-3.08,4.57-5.32,7.08c22.71-0.29,40.79-13.04,48.71-28.43
				C322.42,285.85,295.11,291.77,287.61,291z"/>
		</g>
		<path class="st6" d="M66.82,197.1c-2.9,3.81-3.82,8.27-3.82,8.27c-0.74,12.3,16.56,41.2,38.67,38.33
			c0.94,16.16,31.35,33.96,45.34,25.99c9.67,22.95,59.13,28.88,78.6,10.04c11.77,10.82,53.6,9.53,62.25-7.75
			c13.3,7.18,42.38-5.24,47.97-20.51c1.18-5.74-0.5-11.45-0.5-11.45c-6.02,7.41-26.15,22.24-41.72,17.21
			c-11.68,10.71-38.34,21.3-58.79,3.98c-23.54,29.91-78.95,13.86-83.92-12.04c-15.5,4.16-44.63,2.76-51.13-24.19
			C94.98,222.97,78.3,220.16,66.82,197.1z"/>
		<g>
			<path class="st2" d="M179.39,102.39c8.36-3.16,25.71-8.59,35.96-11.56c-5.94-6.14-18.99-15.53-22.68-14.72
				C187.37,77.58,181.23,93.74,179.39,102.39z"/>
			<path class="st2" d="M295.59,113.51c11.6,12.71,20.78,27.76,22.66,30.54c8.05-6.79,19.2-24.03,15.77-26.56
				C327.36,112.59,303.83,112.36,295.59,113.51z"/>
			<path class="st2" d="M164.91,113.95c-0.63,0.22-1.26,0.43-1.89,0.65c-0.31,0.11-0.62,0.21-0.93,0.32
				c-0.63,0.22-1.25,0.43-1.87,0.65c-0.28,0.1-0.57,0.19-0.85,0.29c-0.88,0.3-1.75,0.61-2.62,0.91c-0.03,0.01-0.06,0.02-0.09,0.03
				c-0.85,0.3-1.69,0.59-2.53,0.89c-0.28,0.1-0.55,0.19-0.82,0.29c-0.6,0.21-1.2,0.42-1.8,0.64c-0.29,0.1-0.59,0.21-0.88,0.31
				c-0.6,0.22-1.2,0.43-1.8,0.64c-0.26,0.09-0.51,0.18-0.77,0.28c-1.68,0.61-3.34,1.21-4.97,1.81c-0.25,0.09-0.5,0.18-0.75,0.28
				c-0.57,0.21-1.14,0.42-1.71,0.64c-0.28,0.1-0.55,0.21-0.83,0.31c-0.57,0.21-1.13,0.43-1.7,0.64c-0.24,0.09-0.48,0.18-0.72,0.27
				c-0.79,0.3-1.58,0.6-2.36,0.9c0,0,0,0,0,0c-0.78,0.3-1.55,0.6-2.31,0.9c-0.23,0.09-0.45,0.18-0.68,0.27
				c-0.55,0.21-1.09,0.43-1.63,0.64c-0.25,0.1-0.5,0.2-0.75,0.3c-0.54,0.21-1.07,0.43-1.6,0.64c-0.22,0.09-0.45,0.18-0.67,0.27
				c-1.48,0.6-2.94,1.2-4.37,1.8c-0.21,0.09-0.41,0.17-0.61,0.26c-0.51,0.22-1.03,0.44-1.54,0.65c-0.23,0.1-0.46,0.2-0.69,0.3
				c-0.51,0.22-1.01,0.44-1.51,0.66c-0.2,0.09-0.39,0.17-0.59,0.26c-1.37,0.61-2.72,1.21-4.04,1.82c-0.19,0.09-0.38,0.18-0.57,0.26
				c-0.47,0.22-0.95,0.44-1.41,0.66c-0.21,0.1-0.42,0.2-0.63,0.3c-0.47,0.22-0.93,0.44-1.39,0.66c-0.18,0.09-0.36,0.17-0.54,0.26
				c-1.26,0.61-2.49,1.23-3.7,1.85c-0.17,0.09-0.34,0.18-0.51,0.26c-0.43,0.22-0.86,0.45-1.29,0.67c-0.19,0.1-0.38,0.2-0.57,0.3
				c-0.43,0.23-0.85,0.45-1.27,0.68c-0.16,0.09-0.32,0.17-0.48,0.26c-1.14,0.62-2.26,1.25-3.34,1.88c-0.16,0.09-0.31,0.18-0.47,0.27
				c-0.39,0.23-0.78,0.46-1.16,0.69c-0.17,0.1-0.34,0.2-0.51,0.31c-0.38,0.23-0.76,0.47-1.14,0.7c-0.14,0.09-0.29,0.18-0.43,0.26
				c-0.51,0.32-1.02,0.64-1.52,0.97c0,0,0,0,0,0c20.54-9.68,90.56-35.44,125.61-9.28c35.05,26.16,80.97-4.43,56.86-31.96
				c-5.99-4.65-11.46-7.67-16.06-9.08c-21.09-6.49-42.3,1.88-91,18.33c-0.91,0.31-1.82,0.62-2.73,0.92
				C165.49,113.75,165.2,113.85,164.91,113.95z"/>
		</g>
		<g>
			<path class="st5" d="M174.32,186.06c-20.53,25.84-25.86,45.19-38.45,47.47c-10.04,1.82-22.07,3.05-29.91-11.75
				c0.58,3.4,1.71,6.81,3.48,10.16c7.26,9.25,19.64,16.22,39.96,10.99C150.58,225.03,160.22,204.41,174.32,186.06z"/>
			<path class="st5" d="M157.29,247.28c0.73,3.09,2.01,6.42,4.19,9.28c16.9,15.79,48.71,22.43,68.04,0.9
				c10.92-13.42,14.27-33.25,14.62-52.16C231.3,272.25,167.05,275.49,157.29,247.28z"/>
			<path class="st5" d="M290.02,249.57c0.23-0.59,0.45-1.17,0.67-1.76c0.13-0.36,0.25-0.72,0.38-1.08c0.19-0.53,0.37-1.07,0.55-1.6
				c0.13-0.39,0.26-0.79,0.38-1.18c0.16-0.51,0.33-1.03,0.48-1.54c0.12-0.41,0.25-0.83,0.36-1.24c0.14-0.5,0.28-1.01,0.42-1.51
				c0.12-0.43,0.23-0.86,0.34-1.29c0.13-0.49,0.25-0.99,0.37-1.49c0.11-0.45,0.21-0.89,0.31-1.34c0.11-0.49,0.21-0.98,0.31-1.47
				c0.1-0.46,0.19-0.92,0.28-1.38c0.09-0.48,0.17-0.96,0.26-1.43c0.09-0.48,0.18-0.96,0.26-1.45c0.07-0.41,0.12-0.83,0.18-1.24
				c0.17-1.14,0.32-2.28,0.45-3.42c0.04-0.32,0.08-0.64,0.11-0.96c0.06-0.6,0.11-1.21,0.16-1.82c0.03-0.37,0.07-0.73,0.09-1.1
				c0.04-0.61,0.08-1.22,0.11-1.83c0.02-0.37,0.04-0.73,0.06-1.1c0.03-0.62,0.04-1.24,0.06-1.86c0.01-0.36,0.02-0.72,0.02-1.07
				c0.01-0.64,0.01-1.27,0-1.91c0-0.34-0.01-0.68-0.01-1.02c-0.01-0.66-0.03-1.32-0.06-1.99c-0.01-0.31-0.03-0.61-0.04-0.92
				c-0.03-0.7-0.07-1.4-0.12-2.1c-0.02-0.24-0.04-0.49-0.06-0.73c-0.06-0.77-0.13-1.54-0.21-2.31c-0.01-0.09-0.02-0.18-0.03-0.26
				c-0.4-3.76-1.03-7.54-1.9-11.34c-0.01-0.03-0.01-0.06-0.02-0.1c-0.2-0.87-0.42-1.74-0.64-2.61c-0.04-0.14-0.07-0.29-0.11-0.43
				c-0.22-0.83-0.45-1.66-0.7-2.48c-0.05-0.18-0.11-0.36-0.16-0.54c-0.24-0.82-0.5-1.64-0.77-2.45c-0.06-0.18-0.12-0.36-0.18-0.55
				c-0.28-0.83-0.56-1.66-0.87-2.49c-0.05-0.15-0.11-0.3-0.17-0.45c-0.32-0.87-0.65-1.73-1-2.6c-0.03-0.07-0.06-0.14-0.09-0.22
				c-1.95-4.84-4.33-9.68-7.17-14.47c0,0,0,0,0,0c13.8,35.29,10.89,77.94-12.07,90.1c-8.36,4.43-20.09,7.15-31.57-0.09
				c0,0-0.01,0-0.01,0c-0.29,0.52-0.58,1.05-0.88,1.56c11.26,11.51,31.99,13.45,50.79-1.9c0.37-0.86,0.73-1.73,1.08-2.61
				C289.8,250.16,289.91,249.86,290.02,249.57z"/>
			<path class="st5" d="M336.5,196.66c-11.22-29.73-24.81-52.94-38.05-69.76c22.97,43.55,35.9,74.41,26.53,96.37
				c-3.6,7.47-8.49,17.4-25.72,21.9c-0.3,0.09-1.68-0.02-1.94,0.11c-0.25,1.35-0.83,3.04-1.11,4.42
				C306.28,256,352.12,237.88,336.5,196.66z"/>
			<path class="st5" d="M330.96,128.32c-14.34,7.68-29.15-10.12-35.36-14.8c11.6,12.71,20.78,27.76,22.66,30.54
				C322.49,140.48,327.58,134.01,330.96,128.32z"/>
			<g>
				<path class="st5" d="M117,180.75c-20.1,20.32-33.69,23.98-42.95,16.09c5.46,10.69,15.33,19.3,26.24,21.67
					c-0.32-2.92,0.19-7.09,0.3-7.75C100.97,208.32,104.18,193.75,117,180.75z"/>
			</g>
		</g>
	</g>
</g>
</svg>
