<svg width="715" height="716" xmlns="http://www.w3.org/2000/svg" xmlns:xlink="http://www.w3.org/1999/xlink" xml:space="preserve" overflow="hidden"><defs><clipPath id="clip0"><rect x="1069" y="950" width="715" height="716"/></clipPath><linearGradient x1="26.9431" y1="356.948" x2="688.284" y2="356.948" gradientUnits="userSpaceOnUse" spreadMethod="pad" id="fill1"><stop offset="0" stop-color="#008EF0"/><stop offset="0.00127816" stop-color="#008EF0"/><stop offset="1" stop-color="#7FFDFF"/></linearGradient><clipPath id="clip2"><rect x="1259" y="1076" width="329" height="287"/></clipPath><clipPath id="clip3"><rect x="1259" y="1076" width="329" height="287"/></clipPath><clipPath id="clip4"><rect x="1259" y="1076" width="329" height="287"/></clipPath><clipPath id="clip5"><rect x="1259" y="1434" width="146" height="139"/></clipPath><clipPath id="clip6"><rect x="1259" y="1434" width="146" height="139"/></clipPath><clipPath id="clip7"><rect x="1259" y="1434" width="146" height="139"/></clipPath><linearGradient x1="73.9466" y1="70.1485" x2="140.983" y2="70.1485" gradientUnits="userSpaceOnUse" spreadMethod="pad" id="fill8"><stop offset="0" stop-color="#3B8270"/><stop offset="1" stop-color="#305C6E"/></linearGradient><linearGradient x1="3.9606" y1="70.1485" x2="71.8207" y2="70.1485" gradientUnits="userSpaceOnUse" spreadMethod="pad" id="fill9"><stop offset="0" stop-color="#4E7F98"/><stop offset="1" stop-color="#3BC0B5"/></linearGradient><linearGradient x1="3.9606" y1="109.301" x2="71.8207" y2="109.301" gradientUnits="userSpaceOnUse" spreadMethod="pad" id="fill10"><stop offset="0" stop-color="#30435C"/><stop offset="1" stop-color="#299AA9"/></linearGradient><linearGradient x1="74.463" y1="108.805" x2="140.983" y2="108.805" gradientUnits="userSpaceOnUse" spreadMethod="pad" id="fill11"><stop offset="0" stop-color="#2E2C29"/><stop offset="1" stop-color="#323232"/></linearGradient><clipPath id="clip12"><rect x="1467" y="1434" width="130" height="130"/></clipPath><clipPath id="clip13"><rect x="1467" y="1434" width="130" height="130"/></clipPath><clipPath id="clip14"><rect x="1467" y="1434" width="130" height="130"/></clipPath></defs><g clip-path="url(#clip0)" transform="translate(-1069 -950)"><path d="M591.437 123.125C528.981 60.6688 445.948 26.2694 357.619 26.2694 269.29 26.2694 186.244 60.6688 123.788 123.125 61.3311 185.582 26.9449 268.628 26.9449 356.944 26.9449 445.26 61.3444 528.306 123.788 590.762 186.231 653.219 269.277 687.618 357.606 687.618 445.935 687.618 528.968 653.219 591.424 590.762 653.881 528.306 688.28 445.273 688.28 356.944 688.28 268.615 653.894 185.582 591.437 123.125Z" fill="url(#fill1)" transform="matrix(1 0 0 1.0014 1069 950)"/><path d="M357.619 714.444C262.127 714.444 172.355 677.264 104.827 609.736 37.2992 542.208 0.119121 452.436 0.119121 356.944 0.119121 261.452 37.2992 171.679 104.827 104.152 172.355 36.624 262.127-0.556008 357.619-0.556008 453.111-0.556008 542.884 36.624 610.411 104.152 677.939 171.679 715.119 261.452 715.119 356.944 715.119 452.436 677.939 542.208 610.411 609.736 542.884 677.264 453.111 714.444 357.619 714.444ZM357.619 26.283C269.29 26.283 186.257 60.6824 123.801 123.139 61.3444 185.595 26.9449 268.628 26.9449 356.944 26.9449 445.26 61.3444 528.306 123.788 590.762 186.231 653.219 269.277 687.618 357.606 687.618 445.935 687.618 528.968 653.219 591.424 590.762 653.881 528.306 688.28 445.273 688.28 356.944 688.28 268.615 653.881 185.582 591.424 123.126 528.968 60.6692 445.935 26.283 357.619 26.283Z" fill="#FFFFFF" transform="matrix(1 0 0 1.0014 1069 950)"/><g clip-path="url(#clip2)"><g clip-path="url(#clip3)"><g clip-path="url(#clip4)"><path d="M240.488 284.964C229.705 284.964 218.936 282.761 208.868 278.339 188.424 269.365 172.709 252.045 165.763 230.828L163.108 222.715 160.452 230.828C153.506 252.045 137.791 269.365 117.348 278.354 96.9044 287.328 73.5283 287.182 53.2018 277.945L24.5872 264.944C9.61601 258.144 0 243.217 0 226.772L0 121.565C0 113.714 5.64704 107.002 13.3807 105.674 58.5279 97.882 110.3 93.7526 163.108 93.7526 180.37 93.7526 197.515 94.1903 214.354 95.0512 232.214 95.9705 245.727 111.598 244.18 129.43 218.002 127.168 190.73 126.015 163.108 126.015 117.275 126.015 72.3609 129.211 32.248 135.296L32.248 226.786C32.248 230.58 34.4659 234.024 37.9242 235.6L65.2839 248.047C77.5556 253.621 91.7389 254.321 104.113 248.966 116.472 243.611 125.592 233.615 129.78 220.833L135.193 204.286C139.133 192.233 150.135 183.478 162.816 183.376 175.715 183.259 186.673 191.138 190.672 203.366L195.968 219.534C200.171 232.346 209.232 243.246 221.533 248.747 233.834 254.248 247.39 254.204 259.633 248.63L288.247 235.629C291.705 234.053 293.923 230.609 293.923 226.816L293.923 0 326.186 0 326.186 226.743C326.186 243.188 316.57 258.115 301.599 264.915L272.984 277.916C262.711 282.615 251.607 284.964 240.488 284.964Z" fill="#FFFFFF" transform="matrix(1.00044 0 0 1 1260 1077)"/></g></g></g><g clip-path="url(#clip5)"><g clip-path="url(#clip6)"><g clip-path="url(#clip7)"><path d="M144.717 86.9902 75.1251 138.447C74.2029 139.123 72.8504 139.184 71.9283 138.508L1.22954 88.5271C-0.122954 87.5435-0.43034 85.5762 0.676249 84.2852L70.2069 0.922158C71.1906-0.307386 73.0349-0.307386 74.08 0.922158L145.086 83.7934C145.885 84.777 145.762 86.2525 144.717 86.9902Z" fill="#FFF4FC" transform="matrix(1.00161 0 0 1 1259.06 1434)"/><path d="M140.967 85.2688 74.8177 134.143 74.4488 84.3467 73.957 6.14772 139.43 83.4245Z" fill="url(#fill8)" transform="matrix(1.00161 0 0 1 1259.06 1434)"/><path d="M3.93454 86.3139 71.8053 134.143 70.2684 6.14772Z" fill="url(#fill9)" transform="matrix(1.00161 0 0 1 1259.06 1434)"/><path d="M71.252 84.4696 4.42636 85.7607 3.93454 86.3139 71.8053 134.143Z" fill="url(#fill10)" transform="matrix(1.00161 0 0 1 1259.06 1434)"/><path d="M74.4488 84.3467 139.43 83.4245 140.967 85.2688 74.8177 134.143Z" fill="url(#fill11)" transform="matrix(1.00161 0 0 1 1259.06 1434)"/><path d="M74.4488 83.7319 139.43 82.8097M71.252 83.8549 4.42636 85.1459M70.9446 62.0305C56.559 51.026 50.4728 49.3047 48.1981 51.149 41.9274 56.3746 65.1658 90.3714 55.8827 98.9168 53.1777 101.376 47.5833 101.929 36.8248 102.974 33.5051 103.282 30.7386 103.405 28.9557 103.405M96.3962 83.4245 74.3259 64.1207M59.7558 18.2587C59.5714 21.2711 59.6943 27.2344 62.7682 33.8124 65.2273 39.0995 68.6085 42.5422 70.7602 44.448M123.508 97.5643C124.061 96.7651 130.946 86.6213 126.704 77.0924 123.569 70.0225 115.884 66.7642 114.716 66.2724 113.179 65.5961 113.118 65.7806 105.925 63.4444 101.56 61.969 99.3471 61.2927 97.4413 60.555 94.4904 59.4484 88.773 57.2352 82.2564 53.0548 80.1048 51.7023 77.3383 49.735 74.2029 47.153" stroke="#98C9C0" stroke-width="1.22954" stroke-miterlimit="10" fill="none" transform="matrix(1.00161 0 0 1 1259.06 1434)"/></g></g></g><g clip-path="url(#clip12)"><g clip-path="url(#clip13)"><g clip-path="url(#clip14)"><path d="M1531.5 1563C1567.24 1563 1596 1534.24 1596 1498.5 1596 1462.76 1567.24 1434 1531.5 1434 1495.76 1434 1467 1462.76 1467 1498.5 1467 1534.24 1495.76 1563 1531.5 1563Z" fill="#2775CA"/><path d="M1549.24 1508.71C1549.24 1499.31 1543.59 1496.08 1532.31 1494.74 1524.24 1493.66 1522.63 1491.51 1522.63 1487.75 1522.63 1483.99 1525.32 1481.57 1530.69 1481.57 1535.53 1481.57 1538.22 1483.18 1539.56 1487.21 1539.83 1488.02 1540.64 1488.56 1541.44 1488.56L1545.74 1488.56C1546.82 1488.56 1547.62 1487.75 1547.62 1486.68L1547.62 1486.41C1546.55 1480.49 1541.71 1475.93 1535.53 1475.39L1535.53 1468.94C1535.53 1467.86 1534.73 1467.06 1533.38 1466.79L1529.35 1466.79C1528.28 1466.79 1527.47 1467.59 1527.2 1468.94L1527.2 1475.12C1519.14 1476.19 1514.03 1481.57 1514.03 1488.29 1514.03 1497.16 1519.41 1500.65 1530.69 1501.99 1538.22 1503.34 1540.64 1504.95 1540.64 1509.25 1540.64 1513.55 1536.87 1516.51 1531.77 1516.51 1524.78 1516.51 1522.36 1513.55 1521.56 1509.52 1521.29 1508.44 1520.48 1507.91 1519.68 1507.91L1515.11 1507.91C1514.03 1507.91 1513.23 1508.71 1513.23 1509.79L1513.23 1510.06C1514.3 1516.77 1518.6 1521.61 1527.47 1522.96L1527.47 1529.41C1527.47 1530.48 1528.28 1531.29 1529.62 1531.56L1533.65 1531.56C1534.73 1531.56 1535.53 1530.75 1535.8 1529.41L1535.8 1522.96C1543.86 1521.61 1549.24 1515.97 1549.24 1508.71Z" fill="#FFFFFF"/><path d="M1517.79 1536.93C1496.83 1529.41 1486.08 1506.03 1493.88 1485.33 1497.91 1474.04 1506.78 1465.44 1517.79 1461.41 1518.87 1460.88 1519.41 1460.07 1519.41 1458.72L1519.41 1454.96C1519.41 1453.89 1518.87 1453.08 1517.79 1452.81 1517.52 1452.81 1516.99 1452.81 1516.72 1453.08 1491.19 1461.14 1477.21 1488.29 1485.27 1513.82 1490.11 1528.87 1501.67 1540.43 1516.72 1545.26 1517.79 1545.8 1518.87 1545.26 1519.14 1544.19 1519.41 1543.92 1519.41 1543.65 1519.41 1543.11L1519.41 1539.35C1519.41 1538.54 1518.6 1537.47 1517.79 1536.93ZM1546.28 1453.08C1545.21 1452.54 1544.13 1453.08 1543.86 1454.16 1543.59 1454.43 1543.59 1454.69 1543.59 1455.23L1543.59 1458.99C1543.59 1460.07 1544.4 1461.14 1545.21 1461.68 1566.17 1469.21 1576.92 1492.59 1569.12 1513.28 1565.09 1524.57 1556.22 1533.17 1545.21 1537.2 1544.13 1537.74 1543.59 1538.54 1543.59 1539.89L1543.59 1543.65C1543.59 1544.73 1544.13 1545.53 1545.21 1545.8 1545.48 1545.8 1546.01 1545.8 1546.28 1545.53 1571.81 1537.47 1585.79 1510.32 1577.73 1484.79 1572.89 1469.48 1561.06 1457.92 1546.28 1453.08Z" fill="#FFFFFF"/></g></g></g></g></svg>