<?xml version="1.0" encoding="utf-8"?>
<!-- Generator: Adobe Illustrator 24.0.2, SVG Export Plug-In . SVG Version: 6.00 Build 0)  -->
<svg version="1.1" id="Layer_1" xmlns="http://www.w3.org/2000/svg" xmlns:xlink="http://www.w3.org/1999/xlink" x="0px" y="0px"
	 viewBox="0 0 409.6 409.6" style="enable-background:new 0 0 409.6 409.6;" xml:space="preserve">
<style type="text/css">
	.st0{fill:url(#SVGID_1_);}
	.st1{fill:url(#SVGID_2_);}
</style>
<g>
	
		<linearGradient id="SVGID_1_" gradientUnits="userSpaceOnUse" x1="208.8" y1="3962.2512" x2="208.8" y2="4223.5366" gradientTransform="matrix(1 0 0 1 0 -3879.3711)">
		<stop  offset="0.2202" style="stop-color:#20DDFF"/>
		<stop  offset="1" style="stop-color:#024AB0"/>
	</linearGradient>
	<path class="st0" d="M208.8,100.3c-50.3,0-94.5,26.2-119.6,65.7l28.3-51.8V62.7H67.1v179.1c0,0.1,0,0.1,0,0.2s0,0.1,0,0.2v2.2
		l0-0.4c1,77.4,64.1,139.8,141.7,139.8c78.3,0,141.7-63.4,141.7-141.7S287.1,100.3,208.8,100.3z M208.8,286.2
		c-24.4,0-44.2-19.8-44.2-44.2s19.8-44.2,44.2-44.2S253,217.6,253,242S233.2,286.2,208.8,286.2z"/>
	
		<linearGradient id="SVGID_2_" gradientUnits="userSpaceOnUse" x1="208.8" y1="4214.1914" x2="208.8" y2="4028.5508" gradientTransform="matrix(1 0 0 1 0 -3879.3711)">
		<stop  offset="0.2682" style="stop-color:#20DDFF"/>
		<stop  offset="1" style="stop-color:#024AB0"/>
	</linearGradient>
	<path class="st1" d="M208.8,149.2c-51.3,0-92.8,41.6-92.8,92.8s41.6,92.8,92.8,92.8s92.8-41.6,92.8-92.8S260.1,149.2,208.8,149.2z
		 M208.8,286.2c-24.4,0-44.2-19.8-44.2-44.2s19.8-44.2,44.2-44.2S253,217.6,253,242S233.2,286.2,208.8,286.2z"/>
</g>
</svg>
