<?xml version="1.0" encoding="utf-8"?>
<!-- Generator: Adobe Illustrator 24.0.2, SVG Export Plug-In . SVG Version: 6.00 Build 0)  -->
<svg version="1.1" id="Layer_1" xmlns="http://www.w3.org/2000/svg" xmlns:xlink="http://www.w3.org/1999/xlink" x="0px" y="0px"
	 viewBox="0 0 409.6 409.6" style="enable-background:new 0 0 409.6 409.6;" xml:space="preserve">
<style type="text/css">
	.st0{fill:url(#SVGID_1_);}
	.st1{fill:url(#SVGID_2_);}
</style>
<g>
	
		<linearGradient id="SVGID_1_" gradientUnits="userSpaceOnUse" x1="208.8" y1="3969.7007" x2="208.8" y2="4217.1172" gradientTransform="matrix(1 0 0 1 0 -3879.3711)">
		<stop  offset="0.2202" style="stop-color:#20DDFF"/>
		<stop  offset="1" style="stop-color:#024AB0"/>
	</linearGradient>
	<path class="st0" d="M208.8,106.8c-47.6,0-89.5,24.8-113.3,62.2l26.8-49V71.2H74.6v169.6c0,0.1,0,0.1,0,0.1c0,0.1,0,0.1,0,0.2v2
		l0-0.4c1,73.3,60.7,132.4,134.2,132.4c74.1,0,134.2-60.1,134.2-134.2S282.9,106.8,208.8,106.8z M208.8,282.9
		c-23.1,0-41.9-18.7-41.9-41.9s18.7-41.9,41.9-41.9s41.9,18.7,41.9,41.9S231.9,282.9,208.8,282.9z"/>
	
		<linearGradient id="SVGID_2_" gradientUnits="userSpaceOnUse" x1="208.8" y1="4208.2681" x2="208.8" y2="4032.481" gradientTransform="matrix(1 0 0 1 0 -3879.3711)">
		<stop  offset="0.2682" style="stop-color:#20DDFF"/>
		<stop  offset="1" style="stop-color:#024AB0"/>
	</linearGradient>
	<path class="st1" d="M208.8,153.1c-48.5,0-87.9,39.4-87.9,87.9s39.4,87.9,87.9,87.9s87.9-39.4,87.9-87.9S257.3,153.1,208.8,153.1z
		 M208.8,282.9c-23.1,0-41.9-18.7-41.9-41.9s18.7-41.9,41.9-41.9s41.9,18.7,41.9,41.9S231.9,282.9,208.8,282.9z"/>
</g>
</svg>
