<?xml version="1.0" encoding="utf-8"?>
<!-- Generator: Adobe Illustrator 24.0.2, SVG Export Plug-In . SVG Version: 6.00 Build 0)  -->
<svg version="1.1" id="Capa_1" xmlns="http://www.w3.org/2000/svg" xmlns:xlink="http://www.w3.org/1999/xlink" x="0px" y="0px"
	 viewBox="0 0 1024 1024" style="enable-background:new 0 0 1024 1024;" xml:space="preserve">
<style type="text/css">
	.st0{fill:url(#SVGID_1_);}
	.st1{fill:url(#SVGID_2_);}
	.st2{fill:#FFFFFF;}
</style>
<g>
	
		<linearGradient id="SVGID_1_" gradientUnits="userSpaceOnUse" x1="512" y1="3943.6731" x2="512" y2="4777.1826" gradientTransform="matrix(1 0 0 1 0 -3879.3711)">
		<stop  offset="0.2202" style="stop-color:#20DDFF"/>
		<stop  offset="1" style="stop-color:#024AB0"/>
	</linearGradient>
	<path class="st0" d="M512,119.8c-160.4,0-301.4,83.6-381.6,209.6l90.4-165.1V0H59.9v571.4c0,0.2,0,0.3,0,0.5s0,0.4,0,0.6v6.9
		L60,578c3.3,247,204.4,446,452,446c249.7,0,452.1-202.4,452.1-452.1S761.7,119.8,512,119.8z M512,712.9c-77.9,0-141-63.1-141-141
		s63.1-141,141-141s141,63.1,141,141S589.9,712.9,512,712.9z"/>
	
		<linearGradient id="SVGID_2_" gradientUnits="userSpaceOnUse" x1="512" y1="4747.3711" x2="512" y2="4155.1714" gradientTransform="matrix(1 0 0 1 0 -3879.3711)">
		<stop  offset="0.2682" style="stop-color:#20DDFF"/>
		<stop  offset="1" style="stop-color:#024AB0"/>
	</linearGradient>
	<path class="st1" d="M512,275.8c-163.5,0-296.1,132.6-296.1,296.1S348.5,868,512,868s296.1-132.6,296.1-296.1
		S675.5,275.8,512,275.8z M512,712.9c-77.9,0-141-63.1-141-141s63.1-141,141-141s141,63.1,141,141S589.9,712.9,512,712.9z"/>
</g>
<g>
	<g>
		<path class="st2" d="M358.8,1191.9c7.7,0,7.7-12,0-12C351.1,1179.9,351.1,1191.9,358.8,1191.9L358.8,1191.9z"/>
	</g>
</g>
</svg>
