<?xml version="1.0" encoding="utf-8"?>
<!-- Generator: Adobe Illustrator 24.0.2, SVG Export Plug-In . SVG Version: 6.00 Build 0)  -->
<svg version="1.1" id="Capa_1" xmlns="http://www.w3.org/2000/svg" xmlns:xlink="http://www.w3.org/1999/xlink" x="0px" y="0px"
	 viewBox="0 0 1024 1024" style="enable-background:new 0 0 1024 1024;" xml:space="preserve">
<style type="text/css">
	.st0{fill:url(#SVGID_1_);}
	.st1{fill:url(#SVGID_2_);}
	.st2{fill:#FFFFFF;}
</style>
<g>
	
		<linearGradient id="SVGID_1_" gradientUnits="userSpaceOnUse" x1="512" y1="3950.7041" x2="512" y2="4771.1235" gradientTransform="matrix(1 0 0 1 0 -3879.3711)">
		<stop  offset="0.2202" style="stop-color:#20DDFF"/>
		<stop  offset="1" style="stop-color:#024AB0"/>
	</linearGradient>
	<path class="st0" d="M512,126c-157.9,0-296.7,82.3-375.6,206.3l89-162.5V8H67v562.4c0,0.2,0,0.3,0,0.5c0,0.2,0,0.4,0,0.6v6.8
		l0.1-1.4c3.2,243.1,201.2,439,444.9,439c245.8,0,445-199.2,445-445S757.8,126,512,126z M512,709.7c-76.7,0-138.8-62.1-138.8-138.8
		S435.3,432.2,512,432.2S650.8,494.3,650.8,571S588.7,709.7,512,709.7z"/>
	
		<linearGradient id="SVGID_2_" gradientUnits="userSpaceOnUse" x1="512" y1="4741.7803" x2="512" y2="4158.8804" gradientTransform="matrix(1 0 0 1 0 -3879.3711)">
		<stop  offset="0.2682" style="stop-color:#20DDFF"/>
		<stop  offset="1" style="stop-color:#024AB0"/>
	</linearGradient>
	<path class="st1" d="M512,279.5C351.1,279.5,220.6,410,220.6,571S351.1,862.4,512,862.4S803.4,731.9,803.4,571
		S672.9,279.5,512,279.5z M512,709.7c-76.7,0-138.8-62.1-138.8-138.8S435.3,432.2,512,432.2S650.8,494.3,650.8,571
		S588.7,709.7,512,709.7z"/>
</g>
<g>
	<g>
		<path class="st2" d="M358.8,1191.9c7.7,0,7.7-12,0-12C351.1,1179.9,351.1,1191.9,358.8,1191.9L358.8,1191.9z"/>
	</g>
</g>
</svg>
