<?xml version="1.0" encoding="utf-8"?>
<!-- Generator: Adobe Illustrator 25.2.0, SVG Export Plug-In . SVG Version: 6.00 Build 0)  -->
<svg version="1.1" id="Layer_1" xmlns="http://www.w3.org/2000/svg" xmlns:xlink="http://www.w3.org/1999/xlink" x="0px" y="0px"
	 viewBox="0 0 1296 720" enable-background="new 0 0 1296 720" xml:space="preserve">
<radialGradient id="SVGID_1_" cx="312.66" cy="373.04" r="226.3" gradientUnits="userSpaceOnUse">
	<stop  offset="0.2235" style="stop-color:#7AC943"/>
	<stop  offset="1" style="stop-color:#39924A"/>
</radialGradient>
<circle fill="url(#SVGID_1_)" cx="344.5" cy="360" r="186"/>
<polygon fill="#0F0E0B" points="464.986,458.081 483.071,385.656 320.611,223.705 206.157,278.447 243.492,281.841 217.541,489.151 
	218.013,488.678 "/>
<radialGradient id="SVGID_2_" cx="398.0582" cy="417.5534" r="206.0458" gradientTransform="matrix(0.7071 0.7071 -0.7071 0.7071 443.6138 -288.0384)" gradientUnits="userSpaceOnUse">
	<stop  offset="0.2235" style="stop-color:#7AC943"/>
	<stop  offset="1" style="stop-color:#39924A"/>
</radialGradient>
<polygon fill="url(#SVGID_2_)" points="458.905,485.431 513.647,370.977 351.186,209.026 236.732,263.768 274.067,267.162 
	248.116,474.471 248.588,473.999 455.511,448.096 "/>
<g>
	<polygon fill="#0F0E0B" points="416.468,302.348 370.966,256.847 346.784,314.469 	"/>
	<polygon fill="#0F0E0B" points="270.326,452.247 401.128,378.689 343.539,321.1 	"/>
	<polygon fill="#0F0E0B" points="415.672,306.915 348.391,318.618 403.969,374.196 	"/>
	<polygon fill="#0F0E0B" points="465.735,351.615 420.239,306.119 408.21,375.272 	"/>
	<polygon fill="#0F0E0B" points="296.971,267.197 342.899,313.125 366.052,257.953 	"/>
	<polygon fill="#0F0E0B" points="270.537,456.717 453.701,431.262 404.066,381.627 	"/>
	<polygon fill="#0F0E0B" points="340.596,318.157 291.326,268.887 265.878,452.001 	"/>
	<polygon fill="#0F0E0B" points="464.637,356.51 409.117,379.343 455.39,425.617 	"/>
</g>
<g>
	<path d="M645.038,325.392c-5.61-0.242-13.359-0.242-18.929-0.242c-5.529,0-17.919,0-26.92,0.242v-1.655
		c5.247-0.242,6.175-1.09,6.175-7.103v-41.005c0-6.014-0.969-6.861-6.175-7.104v-1.655c9,0.242,21.391,0.242,26.92,0.242
		c5.045,0,12.188,0,17.274-0.242c-0.404,4.884-0.565,9.848-0.565,12.229c0,2.18,0.081,4.278,0.242,5.61h-1.897
		c-1.655-12.108-5.973-15.942-13.561-15.942h-3.39c-4.803,0-5.69,0.727-5.69,5.893v20.462h2.664c6.619,0,8.96-6.417,9.848-10.897
		h1.897c-0.242,3.511-0.283,5.892-0.283,7.789c0,1.534,0.041,2.745,0.041,3.956c0,2.704,0.081,5.448,0.484,11.745h-1.897
		c-0.848-5.812-3.471-10.938-10.09-10.938h-2.664v20.825c0,5.166,0.888,5.893,5.69,5.893h4.076c7.386,0,12.471-4.278,14.53-17.597
		h1.897c-0.162,1.776-0.242,4.238-0.242,6.942C644.473,315.302,644.553,320.428,645.038,325.392z"/>
	<path d="M690.607,284.71c1.815,2.099,2.582,5.125,2.582,10.735v22.278c0,4.601,1.453,5.933,5.287,5.933v1.735
		c-2.098-0.081-6.861-0.323-10.896-0.323c-4.238,0-8.718,0.242-10.736,0.323v-1.735c3.27,0,4.439-1.332,4.439-5.933v-25.709
		c0-4.117-0.968-6.901-5.084-6.901c-4.643,0-8.193,4.117-8.193,9.565v23.045c0,4.601,1.17,5.933,4.439,5.933v1.735
		c-1.938-0.081-6.216-0.323-10.252-0.323c-4.237,0-9.201,0.242-11.381,0.323v-1.735c3.834,0,5.287-1.332,5.287-5.933v-26.072
		c0-4.964-1.291-7.305-5.287-7.305v-1.736c1.735,0.162,3.471,0.283,5.125,0.283c4.602,0,8.598-0.363,12.068-1.17v7.466
		c2.744-5.61,7.668-7.708,13.48-7.708C686.207,281.481,688.912,282.772,690.607,284.71z"/>
	<path d="M718.257,289.149c2.744-5.61,7.708-7.668,13.521-7.668c4.722,0,7.426,1.292,9.121,3.229
		c1.816,2.099,2.583,5.125,2.583,10.735v22.278c0,4.601,1.452,5.933,5.287,5.933v1.735c-2.099-0.081-6.861-0.323-10.897-0.323
		c-4.237,0-8.717,0.242-10.735,0.323v-1.735c3.269,0,4.439-1.332,4.439-5.933v-25.709c0-4.117-0.969-6.901-5.085-6.901
		c-4.561,0-8.233,3.955-8.233,9.565v23.045c0,4.601,1.21,5.933,4.479,5.933v1.735c-1.938-0.081-6.215-0.323-10.251-0.323
		c-4.237,0-9.202,0.242-11.382,0.323v-1.735c3.834,0,5.287-1.332,5.287-5.933v-47.1c0-4.924-1.291-7.265-5.287-7.265v-1.735
		c1.736,0.162,3.471,0.242,5.086,0.242c4.641,0,8.637-0.323,12.067-1.13V289.149z"/>
	<path d="M783.643,285.194c2.422,2.502,2.946,5.812,2.946,11.583v22.48c0,2.664,0.444,3.673,1.776,3.673
		c1.17,0,2.098-0.686,3.026-1.413l0.848,1.413c-2.503,2.018-5.247,3.027-9.444,3.027c-6.054,0-7.91-3.148-7.951-6.7
		c-2.824,4.642-7.547,6.7-12.188,6.7c-6.176,0-10.453-3.39-10.453-9.404c0-5.973,3.955-9.323,11.623-12.148
		c6.094-2.301,10.856-3.875,10.856-7.426v-6.458c0-4.318-1.856-7.386-6.739-7.386c-1.979,0-4.4,0.565-5.893,2.018
		c2.945,1.009,4.883,3.148,4.883,6.498c0,3.431-2.664,5.933-6.74,5.933c-3.592,0-5.852-2.745-5.852-6.377
		c0-3.027,1.938-5.327,4.641-6.901c2.947-1.655,6.982-2.825,12.553-2.825C776.862,281.481,780.979,282.45,783.643,285.194z
		 M774.683,300.369c-0.767,1.251-2.341,2.341-5.126,4.076c-2.905,2.139-5.609,4.843-5.609,9.808c0,4.561,2.22,6.417,5.166,6.417
		c2.018,0,3.834-0.888,5.569-3.35V300.369z"/>
	<path d="M834.418,284.71c1.815,2.099,2.582,5.125,2.582,10.735v22.278c0,4.601,1.453,5.933,5.287,5.933v1.735
		c-2.098-0.081-6.861-0.323-10.896-0.323c-4.238,0-8.718,0.242-10.736,0.323v-1.735c3.27,0,4.439-1.332,4.439-5.933v-25.709
		c0-4.117-0.968-6.901-5.084-6.901c-4.643,0-8.193,4.117-8.193,9.565v23.045c0,4.601,1.17,5.933,4.439,5.933v1.735
		c-1.938-0.081-6.216-0.323-10.252-0.323c-4.237,0-9.201,0.242-11.381,0.323v-1.735c3.834,0,5.287-1.332,5.287-5.933v-26.072
		c0-4.964-1.291-7.305-5.287-7.305v-1.736c1.735,0.162,3.471,0.283,5.125,0.283c4.602,0,8.598-0.363,12.068-1.17v7.466
		c2.744-5.61,7.668-7.708,13.48-7.708C830.018,281.481,832.723,282.772,834.418,284.71z"/>
	<path d="M877.162,284.023c2.784,1.695,4.561,4.44,4.561,7.709c0,3.915-2.745,6.659-6.539,6.659c-3.914,0-6.377-2.421-6.377-6.135
		c0-3.471,2.503-5.973,5.449-6.78c-0.848-1.13-2.785-1.978-4.965-1.978c-6.861,0-10.453,8.354-10.453,19.574
		c0,12.834,5.489,16.668,10.938,16.668c3.068,0,7.467-1.211,10.816-6.74l1.453,0.524c-1.896,6.175-6.982,13.036-16.426,13.036
		c-10.776,0-19.252-6.821-19.252-22.319c0-14.933,8.718-22.763,20.422-22.763C871.067,281.481,874.78,282.53,877.162,284.023z"/>
	<path d="M921.52,313.123l1.493,0.565c-1.978,6.215-7.386,12.875-16.548,12.875c-11.139,0-19.049-7.022-19.049-22.117
		c0-15.336,8.475-22.964,20.22-22.964c9.646,0,15.538,5.408,15.538,18.364h-23.126c-0.121,1.21-0.161,2.583-0.161,3.915
		c0,11.502,5.529,15.982,10.775,15.982C913.973,319.742,918.17,318.612,921.52,313.123z M899.806,298.271h12.956
		c0.161-8.072-1.574-15.014-5.61-15.014C903.438,283.257,900.492,287.575,899.806,298.271z"/>
	<path d="M985.332,282.611v1.736c-2.059,0.524-3.955,2.179-5.691,7.103l-11.623,32.651l-3.188,8.879
		c-1.009,2.825-2.14,4.682-3.593,5.893c-1.654,1.372-3.995,2.059-7.224,2.059c-3.955,0-8.96-1.897-8.96-6.659
		c0-3.391,2.583-5.57,6.578-5.57c3.674,0,6.176,1.776,6.176,5.247c0,2.18-1.412,4.318-4.117,5.287
		c0.565,0.161,1.413,0.161,1.896,0.161c3.311,0,5.934-2.018,7.508-6.578l1.372-3.996l-17.517-39.835
		c-1.977-4.238-3.914-4.641-5.125-4.641v-1.736c3.592,0.363,7.588,0.525,11.341,0.525c4.399,0,8.153-0.242,11.462-0.525v1.736
		c-2.704,0-5.246,0.04-5.246,2.341c0,0.605,0.201,1.372,0.605,2.341l10.13,24.417l5.69-15.942c0.889-2.624,1.332-4.803,1.332-6.579
		c0-4.278-2.422-6.336-6.135-6.579v-1.736c2.543,0.242,5.771,0.323,7.991,0.323S983.879,282.853,985.332,282.611z"/>
	<path d="M1028.196,304.042c0,16.386-8.354,22.521-20.261,22.521c-11.865,0-20.22-6.135-20.22-22.521
		c0-16.346,8.354-22.561,20.22-22.561C1019.842,281.481,1028.196,287.696,1028.196,304.042z M1000.187,304.042
		c0,14.812,3.269,20.866,7.749,20.866c4.521,0,7.789-6.054,7.789-20.866c0-14.771-3.269-20.906-7.789-20.906
		C1003.455,283.136,1000.187,289.271,1000.187,304.042z"/>
	<path d="M1074.451,316.432c0,4.924,1.292,7.265,5.287,7.265v1.736c-1.735-0.162-3.471-0.242-5.125-0.242
		c-4.602,0-8.637,0.323-12.068,1.13v-7.466c-2.703,5.529-7.627,7.708-13.318,7.708c-4.561,0-7.305-1.332-9.041-3.269
		c-1.815-2.059-2.502-5.247-2.502-10.695v-20.947c0-4.964-1.291-7.305-5.287-7.305v-1.736c1.736,0.162,3.471,0.283,5.126,0.283
		c4.601,0,8.597-0.363,12.067-1.17v34.265c0,4.117,0.807,6.942,4.924,6.942c4.399,0,8.031-4.117,8.031-9.565v-21.713
		c0-4.964-1.291-7.305-5.287-7.305v-1.736c1.736,0.162,3.471,0.283,5.126,0.283c4.601,0,8.638-0.363,12.067-1.17V316.432z"/>
	<path d="M1119.295,289.109c0,4.076-2.543,6.942-6.418,6.942c-3.874,0-6.175-2.099-6.175-5.328c0-3.027,1.574-5.004,3.632-6.376
		c-0.322-0.121-0.686-0.202-1.09-0.202c-0.362,0-0.766,0.081-1.17,0.202c-4.398,0.726-7.507,6.215-7.507,10.655v21.875
		c0,5.327,2.543,6.78,7.749,6.78v1.735c-2.543-0.081-7.91-0.323-13.117-0.323c-4.52,0-9.564,0.242-11.824,0.323v-1.735
		c3.834,0,5.287-1.332,5.287-5.933v-26.072c0-4.964-1.292-7.305-5.287-7.305v-1.736c1.734,0.162,3.471,0.283,5.125,0.283
		c4.602,0,8.597-0.363,12.067-1.17v7.708c1.978-4.439,5.974-7.951,11.18-7.951C1117.115,281.481,1119.295,285.396,1119.295,289.109z
		"/>
	<path d="M712.383,378.616c0,2.462,0.08,4.763,0.242,6.296h-1.897c-2.18-12.834-6.498-16.95-14.206-16.95h-2.745
		c-4.803,0-5.69,0.727-5.69,5.893v20.825h2.906c6.618,0,8.959-6.458,9.807-10.938h1.938c-0.242,3.632-0.322,6.094-0.322,8.031
		c0,1.413,0.039,2.583,0.039,3.713c0,2.745,0.082,5.449,0.525,11.745h-1.896c-0.889-5.771-3.472-10.897-10.09-10.897h-2.906v19.01
		c0,6.457,1.493,7.346,8.838,7.426v1.816c-3.39-0.121-9.161-0.242-15.053-0.242c-4.764,0-9.525,0.121-13.117,0.242v-1.654
		c5.246-0.242,6.175-1.09,6.175-7.104v-41.006c0-6.013-0.969-6.86-6.175-7.103v-1.655c9,0.242,21.391,0.242,26.92,0.242
		c5.045,0,12.188,0,17.273-0.242C712.543,371.069,712.383,376.154,712.383,378.616z"/>
	<path d="M758.072,415.626c0,4.924,1.292,7.265,5.287,7.265v1.735c-1.735-0.161-3.471-0.242-5.125-0.242
		c-4.602,0-8.637,0.323-12.068,1.131v-7.467c-2.703,5.529-7.627,7.709-13.318,7.709c-4.561,0-7.305-1.332-9.041-3.27
		c-1.815-2.059-2.502-5.247-2.502-10.695v-20.946c0-4.965-1.291-7.306-5.287-7.306v-1.735c1.736,0.162,3.471,0.282,5.126,0.282
		c4.601,0,8.597-0.362,12.067-1.17v34.266c0,4.116,0.807,6.941,4.924,6.941c4.399,0,8.031-4.116,8.031-9.565v-21.713
		c0-4.965-1.291-7.306-5.287-7.306v-1.735c1.736,0.162,3.471,0.282,5.126,0.282c4.601,0,8.638-0.362,12.067-1.17V415.626z"/>
	<path d="M793.512,381.886v1.654h-9.768v33.337c0,3.391,1.211,4.602,3.633,4.602c2.018,0,4.035-1.292,5.65-4.965l1.371,0.768
		c-1.815,4.924-5.205,8.476-11.3,8.476c-3.714,0-6.417-0.929-8.274-2.785c-2.381-2.422-2.986-5.771-2.986-11.543V383.54h-6.941
		v-1.654h6.941v-10.938c4.642-0.04,8.476-0.808,11.906-2.664v13.602H793.512z"/>
	<path d="M837.183,415.626c0,4.924,1.292,7.265,5.287,7.265v1.735c-1.735-0.161-3.472-0.242-5.126-0.242
		c-4.602,0-8.637,0.323-12.067,1.131v-7.467c-2.704,5.529-7.628,7.709-13.319,7.709c-4.561,0-7.305-1.332-9.04-3.27
		c-1.815-2.059-2.502-5.247-2.502-10.695v-20.946c0-4.965-1.292-7.306-5.287-7.306v-1.735c1.735,0.162,3.471,0.282,5.126,0.282
		c4.601,0,8.596-0.362,12.066-1.17v34.266c0,4.116,0.808,6.941,4.924,6.941c4.4,0,8.032-4.116,8.032-9.565v-21.713
		c0-4.965-1.292-7.306-5.287-7.306v-1.735c1.735,0.162,3.471,0.282,5.126,0.282c4.601,0,8.637-0.362,12.067-1.17V415.626z"/>
	<path d="M882.025,388.303c0,4.076-2.543,6.941-6.417,6.941s-6.175-2.099-6.175-5.327c0-3.026,1.574-5.005,3.632-6.377
		c-0.323-0.121-0.687-0.201-1.09-0.201c-0.362,0-0.767,0.08-1.171,0.201c-4.398,0.727-7.506,6.216-7.506,10.655v21.875
		c0,5.327,2.543,6.78,7.748,6.78v1.735c-2.542-0.081-7.91-0.323-13.116-0.323c-4.521,0-9.565,0.242-11.825,0.323v-1.735
		c3.834,0,5.287-1.332,5.287-5.933v-26.072c0-4.965-1.291-7.306-5.287-7.306v-1.735c1.735,0.162,3.471,0.282,5.125,0.282
		c4.602,0,8.598-0.362,12.068-1.17v7.709c1.978-4.439,5.973-7.951,11.18-7.951C879.846,380.675,882.025,384.59,882.025,388.303z"/>
	<path d="M918.674,412.316l1.494,0.565c-1.979,6.215-7.387,12.875-16.548,12.875c-11.14,0-19.05-7.023-19.05-22.117
		c0-15.337,8.476-22.965,20.221-22.965c9.646,0,15.537,5.408,15.537,18.363h-23.125c-0.121,1.211-0.162,2.583-0.162,3.915
		c0,11.503,5.529,15.982,10.776,15.982C911.127,418.936,915.324,417.806,918.674,412.316z M896.961,397.465h12.955
		c0.162-8.072-1.574-15.015-5.609-15.015C900.593,382.45,897.646,386.77,896.961,397.465z"/>
	<path fill="#39B54A" d="M958.714,368.204c1.331,0.807,2.058,1.17,2.784,1.17c1.09,0,1.494-1.251,1.857-3.632h1.896
		c-0.283,3.269-0.443,7.224-0.443,18.848h-1.897c-0.565-8.597-5.206-17.597-14.046-17.597c-5.287,0-9.08,3.188-9.08,8.435
		c0,6.659,5.045,9.363,14.287,15.579c7.83,5.206,13.965,9.687,13.965,18.646c0,10.896-9.404,16.104-20.503,16.104
		c-6.861,0-10.493-1.574-13.278-3.067c-1.332-0.848-2.18-1.171-2.825-1.171c-1.09,0-1.493,1.251-1.816,3.633h-1.896
		c0.241-3.875,0.323-9.162,0.323-22.319h1.896c0.686,11.019,4.479,20.745,15.054,20.745c5.771,0,10.251-3.067,10.251-9.242
		c0-6.78-5.125-10.695-12.39-15.377c-7.87-5.005-14.731-9.646-14.731-18.849c0-10.412,8.839-15.094,18.525-15.094
		C953.104,365.016,956.131,366.67,958.714,368.204z"/>
	<path fill="#39B54A" d="M1008.641,412.316l1.494,0.565c-1.978,6.215-7.386,12.875-16.547,12.875
		c-11.14,0-19.051-7.023-19.051-22.117c0-15.337,8.477-22.965,20.221-22.965c9.646,0,15.538,5.408,15.538,18.363H987.17
		c-0.121,1.211-0.161,2.583-0.161,3.915c0,11.503,5.529,15.982,10.776,15.982C1001.094,418.936,1005.291,417.806,1008.641,412.316z
		 M986.928,397.465h12.955c0.162-8.072-1.574-15.015-5.609-15.015C990.561,382.45,987.614,386.77,986.928,397.465z"/>
	<path fill="#39B54A" d="M1031.973,416.918c0,4.601,1.452,5.933,5.287,5.933v1.735c-2.1-0.081-6.74-0.323-11.019-0.323
		c-4.319,0-9.243,0.242-11.462,0.323v-1.735c3.874,0,5.287-1.332,5.287-5.933v-47.1c0-4.965-1.292-7.306-5.287-7.306v-1.735
		c1.734,0.162,3.471,0.242,5.125,0.242c4.602,0,8.637-0.322,12.068-1.13V416.918z"/>
	<path fill="#39B54A" d="M1071.525,362.675c1.574,1.291,2.826,3.431,2.826,6.175c0,3.067-2.382,5.771-5.853,5.771
		c-3.714,0-6.296-2.22-6.296-5.893c0-2.825,1.654-5.206,4.843-6.135c-0.363-0.646-1.372-1.171-2.986-1.171
		c-2.14,0-3.593,0.848-4.479,2.18c-1.131,1.655-1.534,4.399-1.534,10.776v7.507h8.839v1.654h-8.839v32.53
		c0,5.367,2.905,6.78,7.789,6.78v1.735c-2.865-0.081-8.516-0.323-14.247-0.323c-4.197,0-8.637,0.242-10.735,0.323v-1.735
		c3.874,0,5.287-1.332,5.287-5.933V383.54h-5.61v-1.654h5.61c0-9.727,1.372-14.086,5.206-17.799c2.422-2.381,6.7-4.157,11.342-4.157
		C1066.521,359.93,1069.307,361.02,1071.525,362.675z"/>
</g>
</svg>
