<?xml version="1.0" encoding="UTF-8"?><svg id="Layer_1" xmlns="http://www.w3.org/2000/svg" viewBox="0 0 1080 1080"><defs><style>.cls-1{fill:#fff;}.cls-2{fill:#5acafc;}</style></defs><rect class="cls-2" width="1080" height="1080"/><g><g><path class="cls-1" d="M471.4,765.11c-.49,9.47-4.27,40.01-4.41,49.89-48.2-.11-98.78-.2-146.98-.3,1.89-9.75,7.13-40.19,8.78-49.59h142.61Z"/><g><path class="cls-1" d="M772.17,486.86c0,75.15,9.2,106.89-64.69,115.18,23.09,21.54,30.75,35.68,37.48,80.7,5.6,34.6,7.49,93.51,6.32,132.81-43.31-.07-92.76-.18-136.42-.28-.12-10.97,.75-41.35,.5-50.16h.07c-.98-35.7-3.42-67.72-8.64-95.24h-.14c-4.74-23.74-11.31-41.99-21.05-60.33l-86.69-.07c-6.22,19.78-11.64,40.03-15.77,60.4h-141.01c6.3-60.63,7.85-121.68,5-183.01h.05c-3.76-76.45-11.97-143.58-23.18-222.41,35.56,1.47,355.23,3.14,383.78,3.14,60.63,0,61.74,53.13,61.74,124.01h-157.76c-6.25-13.22-19.69-22.11-34.86-22.11h-105.76v137.77h105.76c14.47,0,27.43-8.05,34.01-20.41h161.26Z"/><path class="cls-1" d="M347.18,486.86h-.05c-.09-1.98-.19-3.97-.28-5.95l.33,5.95Z"/><path class="cls-1" d="M608.39,679.27c-.54-3.21-1.11-6.33-1.74-9.4h.14l1.6,9.4Z"/><path class="cls-1" d="M615.44,765.11h-.07c-.05-2.45-.12-4.84-.19-7.17l.26,7.17Z"/><path class="cls-1" d="M772.22,739.05c.03,1.16,.09,2.33,.12,3.51h.02c-.05-1.18-.09-2.34-.14-3.51Zm-184.62-46.62h-.02c.05,.29,.09,.61,.14,.92-.03-.31-.09-.62-.12-.92Zm-264.4-230.24c.03,.71,.09,1.42,.12,2.12h.02c-.03-.69-.09-1.41-.14-2.12Z"/></g></g><g><g><path class="cls-1" d="M591.98,742.55H175.25v-50.13h412.34c2.34,16.3,3.57,33.46,4.39,50.13Z"/><path class="cls-1" d="M587.73,693.34c-.05-.31-.09-.62-.14-.92h.02c.03,.29,.09,.61,.12,.92Z"/><path class="cls-1" d="M615.17,757.94c.07,2.33,.14,4.72,.19,7.17h.07l-.26-7.17Zm-8.38-88.08h-.14c.62,3.07,1.2,6.19,1.74,9.4l-1.6-9.4Z"/></g><g><path class="cls-1" d="M904.75,692.42v50.13h-132.39c-.62-16.74-1.62-33.66-3.45-50.13h135.84Z"/><path class="cls-1" d="M772.36,742.55h-.02c-.03-1.18-.09-2.34-.12-3.51,.05,1.16,.09,2.33,.14,3.51Z"/></g><g><path class="cls-1" d="M323.32,464.3H175.25v-50.15h144.24c1.51,16.7,2.84,33.45,3.83,50.15Z"/><path class="cls-1" d="M323.34,464.3h-.02c-.03-.69-.09-1.41-.12-2.12,.05,.71,.1,1.42,.14,2.12Z"/><path class="cls-1" d="M346.85,480.91c.09,1.98,.19,3.97,.28,5.95h.05l-.33-5.95Z"/></g><rect class="cls-1" x="493.7" y="414.16" width="411.05" height="50.15"/></g></g></svg>