<?xml version="1.0" encoding="utf-8"?>
<!-- Generator: Adobe Illustrator 24.0.1, SVG Export Plug-In . SVG Version: 6.00 Build 0)  -->
<svg version="1.1" id="Layer_1" xmlns="http://www.w3.org/2000/svg" xmlns:xlink="http://www.w3.org/1999/xlink" x="0px" y="0px"
	 viewBox="0 0 3000 3000" style="enable-background:new 0 0 3000 3000;" xml:space="preserve">
<style type="text/css">
	.st0{fill:#0F1214;}
	.st1{fill:url(#SVGID_1_);}
	.st2{fill:url(#SVGID_2_);}
	.st3{fill:url(#SVGID_3_);}
	.st4{fill:url(#SVGID_4_);}
</style>
<rect class="st0" width="3009.85" height="3009.85"/>
<g>
	<linearGradient id="SVGID_1_" gradientUnits="userSpaceOnUse" x1="-47.921" y1="500.2565" x2="2309.6558" y2="2354.6919">
		<stop  offset="0" style="stop-color:#945D21"/>
		<stop  offset="0.156" style="stop-color:#C58A37"/>
		<stop  offset="0.2886" style="stop-color:#FBBD55"/>
		<stop  offset="0.4958" style="stop-color:#C78528"/>
		<stop  offset="0.6318" style="stop-color:#AD6B15"/>
		<stop  offset="0.6928" style="stop-color:#B06E18"/>
		<stop  offset="0.7594" style="stop-color:#B77A21"/>
		<stop  offset="0.8286" style="stop-color:#C48D32"/>
		<stop  offset="0.8997" style="stop-color:#D7AA4D"/>
		<stop  offset="0.9714" style="stop-color:#F2D275"/>
		<stop  offset="1" style="stop-color:#FEE588"/>
	</linearGradient>
	<path class="st1" d="M1423.16,1570.83c-2.55,72.08-35.47,131.53-105.53,171.84c-12.38-27.39-39.81-46.54-71.82-46.54
		c-43.59,0-78.93,35.34-78.93,78.93c0,43.59,35.34,78.93,78.93,78.93c33.43,0,61.84-20.85,73.35-50.2
		c106.3-46.49,158.21-124.05,158.21-233.12V1342.4l-510.52-338.35v64.94l456.32,302.56V1570.83z M1245.8,1813.18
		c-21.05,0-38.11-17.06-38.11-38.11c0-21.04,17.06-38.11,38.11-38.11c21.04,0,38.1,17.06,38.1,38.11
		C1283.91,1796.12,1266.85,1813.18,1245.8,1813.18z"/>
	<linearGradient id="SVGID_2_" gradientUnits="userSpaceOnUse" x1="-38.5807" y1="488.382" x2="2318.9961" y2="2342.8174">
		<stop  offset="0" style="stop-color:#945D21"/>
		<stop  offset="0.156" style="stop-color:#C58A37"/>
		<stop  offset="0.2886" style="stop-color:#FBBD55"/>
		<stop  offset="0.4958" style="stop-color:#C78528"/>
		<stop  offset="0.6318" style="stop-color:#AD6B15"/>
		<stop  offset="0.6928" style="stop-color:#B06E18"/>
		<stop  offset="0.7594" style="stop-color:#B77A21"/>
		<stop  offset="0.8286" style="stop-color:#C48D32"/>
		<stop  offset="0.8997" style="stop-color:#D7AA4D"/>
		<stop  offset="0.9714" style="stop-color:#F2D275"/>
		<stop  offset="1" style="stop-color:#FEE588"/>
	</linearGradient>
	<path class="st2" d="M1620.32,1553.76c0.14,15.91,1.27,360.21-299.07,412.71c-11.45-29.46-39.91-50.43-73.42-50.43
		c-43.59,0-78.93,35.34-78.93,78.93c0,43.59,35.34,78.93,78.93,78.93c34.33,0,63.25-22.06,74.11-52.67
		c354.44-54.61,352.61-463.59,352.57-467.75v-312.75L858.19,701.62v64.94l762.13,503.34V1553.76z M1247.84,2033.08
		c-21.05,0-38.11-17.06-38.11-38.1c0-21.05,17.06-38.11,38.11-38.11c21.04,0,38.1,17.06,38.1,38.11
		C1285.94,2016.02,1268.89,2033.08,1247.84,2033.08z"/>
	<linearGradient id="SVGID_3_" gradientUnits="userSpaceOnUse" x1="-31.6394" y1="479.5574" x2="2325.9375" y2="2333.9927">
		<stop  offset="0" style="stop-color:#945D21"/>
		<stop  offset="0.156" style="stop-color:#C58A37"/>
		<stop  offset="0.2886" style="stop-color:#FBBD55"/>
		<stop  offset="0.4958" style="stop-color:#C78528"/>
		<stop  offset="0.6318" style="stop-color:#AD6B15"/>
		<stop  offset="0.6928" style="stop-color:#B06E18"/>
		<stop  offset="0.7594" style="stop-color:#B77A21"/>
		<stop  offset="0.8286" style="stop-color:#C48D32"/>
		<stop  offset="0.8997" style="stop-color:#D7AA4D"/>
		<stop  offset="0.9714" style="stop-color:#F2D275"/>
		<stop  offset="1" style="stop-color:#FEE588"/>
	</linearGradient>
	<polygon class="st3" points="1341.47,1510.52 1084.01,1341.28 1084.01,1406.22 1341.47,1575.46 	"/>
	<linearGradient id="SVGID_4_" gradientUnits="userSpaceOnUse" x1="55.8244" y1="368.3631" x2="2413.4011" y2="2222.7986">
		<stop  offset="0" style="stop-color:#945D21"/>
		<stop  offset="0.156" style="stop-color:#C58A37"/>
		<stop  offset="0.2886" style="stop-color:#FBBD55"/>
		<stop  offset="0.4958" style="stop-color:#C78528"/>
		<stop  offset="0.6318" style="stop-color:#AD6B15"/>
		<stop  offset="0.6928" style="stop-color:#B06E18"/>
		<stop  offset="0.7594" style="stop-color:#B77A21"/>
		<stop  offset="0.8286" style="stop-color:#C48D32"/>
		<stop  offset="0.8997" style="stop-color:#D7AA4D"/>
		<stop  offset="0.9714" style="stop-color:#F2D275"/>
		<stop  offset="1" style="stop-color:#FEE588"/>
	</linearGradient>
	<path class="st4" d="M2085.25,958.93c-206.71-232.71-461.24-32.07-545.51,78.74l45.69,27.57c66.4-81.54,281-272.61,459.93-69.62
		c27.21,31.42,66.98,105.33,19.14,212.12c-20.71-87.15-128.11-124.22-194.07-59.68c-57.2,56.84-58.86,169.77-58.58,192.7
		c-1.17,81.29,0.88,167.55-0.65,257.27c-0.18,5.3-20.87,537.27-490.55,591.01c-11.91-28.49-40.02-48.52-72.82-48.52
		c-43.59,0-78.93,35.34-78.93,78.93c0,43.59,35.34,78.93,78.93,78.93c35.21,0,64.69-23.22,74.86-55.06
		c519.56-55.78,542.49-637.73,542.68-643.53c1.9-91.94-0.8-174.86,0.68-257.46h0.04c0-41.33,6.28-118,42.6-155.88
		c22.02-24.11,67.62-20.81,86.98,3.39c28.28,33.25,31.28,58.39,37.92,103.37l12.12,91.77l24.57-54.43
		c1.8-3.63,44.38-89.94,63.29-159.26C2166.91,1049.1,2088.52,962.46,2085.25,958.93z M1247.84,2257.56
		c-21.05,0-38.11-17.06-38.11-38.11c0-21.04,17.06-38.11,38.11-38.11c21.04,0,38.1,17.06,38.1,38.11
		C1285.94,2240.5,1268.89,2257.56,1247.84,2257.56z"/>
</g>
</svg>
