<svg width="451" height="451" viewBox="0 0 451 451" fill="none" xmlns="http://www.w3.org/2000/svg">
<path d="M225.44 450.841C349.704 450.841 450.44 350.105 450.44 225.841C450.44 101.576 349.704 0.840546 225.44 0.840546C101.176 0.840546 0.44043 101.576 0.44043 225.841C0.44043 350.105 101.176 450.841 225.44 450.841Z" fill="#C8ECE1"/>
<path d="M85.8205 172.244C83.0357 169.651 85.6342 166.412 87.9147 164.63C90.7762 161.949 93.6104 159.038 96.2966 156.473C108.253 144.303 120.214 132.484 133.722 122.15C135.564 116.065 144.072 121.092 140.475 125.988C123.607 139.413 108.313 154.839 93.0621 170.107L93.265 169.904C93.3149 169.862 93.3607 169.816 93.4021 169.767C91.4834 171.888 88.5944 174.788 85.8205 172.244Z" fill="#308D8A"/>
<path d="M315.755 176.795C315.424 176.39 315.18 175.923 315.036 175.421C314.893 174.919 314.853 174.393 314.92 173.875C314.986 173.358 315.158 172.859 315.424 172.41C315.69 171.961 316.045 171.57 316.467 171.263C331.592 154.708 346.278 137.824 362.187 121.986C363.601 120.051 367.033 119.837 368.31 122.145C369.582 124.234 368.475 126.41 366.89 127.945C363.344 131.925 359.336 135.45 355.696 139.342C346.377 148.963 337.606 159.028 328.835 169.125C325.195 172.014 321.072 181.416 315.755 176.795Z" fill="#308D8A"/>
<path d="M138.535 127.007C137.611 126.964 136.736 126.577 136.083 125.922C135.43 125.266 135.045 124.39 135.005 123.466C134.996 122.939 135.097 122.415 135.302 121.929C135.507 121.443 135.811 121.006 136.195 120.644C136.579 120.283 137.034 120.006 137.532 119.831C138.029 119.656 138.558 119.587 139.084 119.628C143.842 118.987 148.09 118.587 152.788 118.329C222.283 113.538 292.271 115.512 361.683 119.113C363.722 118.949 365.52 120.813 365.553 122.786C365.432 128.131 359.046 126.486 355.538 126.459C283.412 122.704 210.606 120.654 138.535 127.007Z" fill="#308D8A"/>
<path d="M311.407 179.869C310.272 179.825 309.214 179.781 308.326 179.869C268.204 177.616 227.901 177.896 187.642 178.17C158.993 178.373 130.361 178.559 101.861 177.857C100.797 177.274 99.6394 176.883 98.4403 176.701C96.6528 176.094 94.8196 175.632 92.9583 175.319C92.2402 175.166 91.5166 175.029 90.7985 174.892C90.508 174.782 90.2503 174.694 89.9543 174.601C88.9657 174.284 87.9336 174.123 86.8953 174.124C86.835 174.124 86.7693 174.124 86.709 174.097C86.765 174.109 86.8218 174.119 86.879 174.124H86.8186C85.9915 173.981 85.1569 173.886 84.3188 173.839C84.3875 173.321 84.5708 172.825 84.8553 172.387C85.1398 171.949 85.5183 171.58 85.9634 171.307C88.3974 169.591 91.4454 169.53 94.2796 169.914C106.115 171.444 117.967 171.109 129.852 170.786C136.978 170.605 144.105 170.408 151.231 170.621C167.781 170.939 184.353 170.802 200.925 170.665C221.624 170.495 242.346 170.331 263.035 171.076C272.283 170.912 281.547 171.263 290.795 171.624C299.095 171.959 307.394 172.282 315.683 172.238C316.196 172.102 316.732 172.072 317.257 172.152C317.783 172.232 318.286 172.419 318.735 172.702C319.185 172.985 319.571 173.358 319.87 173.797C320.17 174.236 320.375 174.731 320.474 175.253C320.715 179.343 317.24 179.946 313.649 179.946C312.915 179.924 312.147 179.896 311.407 179.869Z" fill="#308D8A"/>
<path d="M97.0312 176.481H97.3703C97.2719 176.519 97.1461 176.519 97.0312 176.481Z" fill="#308D8A"/>
<path d="M89.9646 174.574C88.977 174.253 87.9441 174.094 86.9058 174.102C86.8455 174.102 86.7798 174.103 86.7195 174.07C86.7798 174.07 86.8455 174.07 86.8893 174.102H86.8291C85.8251 173.905 84.8046 173.802 83.7812 173.796H83.4687C83.1334 173.065 83.0071 172.255 83.1039 171.457C83.2007 170.658 83.5167 169.903 84.0169 169.273C85.349 167.574 86.407 164.986 88.9012 164.937C93.0345 164.969 93.7252 169.684 91.0939 172.167C91.1523 172.615 91.1199 173.071 90.9984 173.506C90.8769 173.941 90.6688 174.347 90.3867 174.7L89.9646 174.574Z" fill="#308D8A"/>
<path d="M104.903 178.543C101.416 178.444 97.7379 178.132 94.3392 178.082C90.7157 177.732 86.6044 178.751 83.2934 176.986C78.1788 173.406 86.4618 163.073 91.0281 164.06C93.9225 164.701 95.1614 168.703 92.6452 170.6C97.0307 170.709 101.257 170.906 105.637 171.148C110.423 171.696 109.705 178.91 104.903 178.543Z" fill="#308D8A"/>
<path d="M310.613 204.44C238.525 201.671 166.388 204.363 94.2736 203.514C89.7181 203.333 89.5482 196.315 94.2736 196.151C168.208 196.737 242.154 194.506 316.056 197.055C320.804 196.946 321.187 204.248 316.303 204.457C314.39 204.511 312.488 204.495 310.613 204.44Z" fill="#308D8A"/>
<path d="M356.391 258.065C313.243 255.949 269.897 257.095 226.651 256.535C210.128 256.294 193.71 255.307 177.204 255.768C165.445 255.582 153.593 258.038 141.906 257.21C137.603 256.059 138.513 249.623 143.112 249.935C166.881 249.157 190.75 247.106 214.579 248.932C246.139 249.409 277.714 248.932 309.279 249.705C325.177 249.837 341.135 249.124 356.972 250.675C360.261 250.779 365.551 249.677 365.88 254.282C365.748 259.342 359.724 258.054 356.281 258.065H356.391Z" fill="#308D8A"/>
<path d="M139.176 256.183L138.858 255.909L138.704 255.789C138.874 255.92 139.05 256.068 139.252 256.2C120.225 241.042 105.265 221.795 88.9343 203.984C85.0312 200.909 89.6031 195.213 93.2814 197.993C107.567 212.317 119.26 228.982 134.686 242.172C137.866 245.351 141.325 248.081 144.592 251.036C147.519 254.462 142.503 259.297 139.176 256.183Z" fill="#308D8A"/>
<path d="M361.918 257.822C361.287 257.675 360.705 257.367 360.229 256.928C359.753 256.49 359.398 255.935 359.2 255.318C359.002 254.701 358.967 254.044 359.098 253.41C359.23 252.776 359.523 252.186 359.95 251.699C346.58 234.793 330.869 219.778 314.966 205.306C307.708 202.828 314.966 193.508 319.79 199.615C335.538 213.292 350.216 228.155 363.694 244.074C365.772 246.497 366.983 248.531 368.705 251.025C370.771 255.328 365.98 258.957 361.918 257.822Z" fill="#308D8A"/>
<path d="M140.185 284.635C139.236 284.397 138.419 283.798 137.906 282.965C137.394 282.132 137.228 281.132 137.444 280.178C137.992 277.727 140.387 277.124 142.608 277.436C145.545 276.897 148.51 276.515 151.488 276.291C221.054 272.288 291.08 275.523 360.844 275.161C365.399 275.298 365.618 282.36 360.871 282.524C287.358 283.138 213.253 278.994 140.185 284.635Z" fill="#308D8A"/>
<path d="M94.7894 336.144C89.5926 336.89 88.2495 329.263 93.6931 328.765C101.828 329.263 109.837 328.49 117.945 328.15C184.594 327.131 251.265 328.337 317.925 328.748C322.091 329.658 321.357 336.15 317.097 336.056C242.763 335.859 168.538 334.209 94.2742 336.117L94.7894 336.144Z" fill="#308D8A"/>
<path d="M316.093 333.759C312.014 330.596 316.641 326.594 319.152 324.232C319.07 324.319 318.982 324.396 318.9 324.473C332.693 309.622 344.869 293.28 359.182 278.928C359.533 274.51 366.479 274.713 366.517 279.18C366.566 280.182 366.377 281.181 365.968 282.096C365.558 283.011 364.939 283.817 364.16 284.449C352.648 295.813 342.977 308.86 332.079 320.805C328.592 325.005 324.799 329.028 321.169 333.074C320.556 333.793 319.699 334.261 318.762 334.388C317.826 334.514 316.875 334.29 316.093 333.759V333.759Z" fill="#308D8A"/>
<path d="M90.6663 333.659C84.395 330.765 90.4635 325.086 93.4073 322.317C101.586 313.173 110.127 303.723 119.118 295.5C124.731 289.788 130.63 284.41 136.605 279.104C137.701 278.068 139.105 276.966 140.651 276.988C144.724 276.829 145.891 282.798 142.032 284.163C125.586 298.509 110.5 314.412 95.9344 330.463C94.6516 332.349 93.4731 334.553 90.6663 333.659Z" fill="#308D8A"/>
<path d="M137.934 280.429C212.494 274.08 288.069 278.549 363.08 278.054C349.613 294.039 337.738 311.721 324.438 327.922L324.387 327.98C323.083 329.344 321.376 331.151 320.442 333.044C251.308 332.535 182.146 331.151 113.031 332.352C105.764 332.698 98.6121 333.409 91.3452 333.265C106.081 314.951 121.347 296.832 137.934 280.429Z" fill="#308D8A"/>
<path d="M364.347 253.598C363.565 253.598 362.818 253.654 362.145 253.635C345.66 251.857 329.071 252.675 312.534 252.519C279.704 251.652 246.852 252.188 214.023 251.652C189.314 249.574 164.559 251.876 139.89 252.762C136.879 249.874 133.777 247.148 130.874 243.948C116.875 230.85 105.835 214.745 93.3633 200.006C166.874 200.823 240.408 197.966 313.891 201.035C314.849 201.066 315.818 201.085 316.776 201.085C317.284 201.49 317.848 201.801 318.447 202.008C334.619 218.126 350.632 234.836 364.347 253.598Z" fill="#308D8A"/>
<path d="M364.409 124.376C365.077 124.376 365.85 124.442 366.646 124.509C351.47 140.487 337.272 157.325 322.67 173.841C322.279 174.121 321.945 174.477 321.686 174.888C312.904 174.943 304.086 174.586 295.274 174.217C285.397 173.811 275.497 173.418 265.619 173.611C243.523 172.782 221.397 172.97 199.283 173.157C181.583 173.309 163.89 173.46 146.208 173.103C138.597 172.867 130.985 173.103 123.374 173.291C110.68 173.648 98.0218 174.017 85.3752 172.328C85.0649 172.274 84.7898 172.243 84.4619 172.207C84.497 172.159 84.5263 172.092 84.5614 172.038C100.294 155.757 116.09 139.355 133.415 124.92C210.132 117.984 287.604 120.248 364.409 124.376Z" fill="#308D8A"/>
</svg>
