<svg xmlns="http://www.w3.org/2000/svg" xmlns:xlink="http://www.w3.org/1999/xlink" viewBox="0 0 950.31 950.31"><defs><style>.cls-1{fill:url(#linear-gradient);}.cls-2{fill:url(#linear-gradient-2);}.cls-3{fill:url(#linear-gradient-3);}.cls-4{fill:url(#linear-gradient-4);}.cls-5{fill:url(#linear-gradient-5);}.cls-6{fill:url(#linear-gradient-6);}.cls-7{fill:url(#linear-gradient-7);}.cls-8{fill:url(#linear-gradient-8);}.cls-9{fill:url(#linear-gradient-9);}.cls-10{fill:#684302;}</style><linearGradient id="linear-gradient" x1="845.1" y1="123.22" x2="174.73" y2="793.59" gradientTransform="matrix(0.7, 0.72, -0.72, 0.7, 457.51, -209.8)" gradientUnits="userSpaceOnUse"><stop offset="0" stop-color="#eda82f"/><stop offset="0.04" stop-color="#f3c54f"/><stop offset="0.08" stop-color="#f8de6b"/><stop offset="0.12" stop-color="#fcf17f"/><stop offset="0.16" stop-color="#fefb8b"/><stop offset="0.2" stop-color="#ffff8f"/><stop offset="0.28" stop-color="#f4d45b"/><stop offset="0.34" stop-color="#ecb131"/><stop offset="0.35" stop-color="#e1a72e"/><stop offset="0.39" stop-color="#cd9629"/><stop offset="0.43" stop-color="#c18b26"/><stop offset="0.47" stop-color="#bd8825"/><stop offset="0.51" stop-color="#c18d2a"/><stop offset="0.56" stop-color="#cc9c39"/><stop offset="0.61" stop-color="#deb552"/><stop offset="0.67" stop-color="#f7d775"/><stop offset="0.68" stop-color="#ffe280"/><stop offset="0.72" stop-color="#fdde79"/><stop offset="0.77" stop-color="#f9d266"/><stop offset="0.83" stop-color="#f1bf48"/><stop offset="0.87" stop-color="#ecb131"/><stop offset="1" stop-color="#ffe280"/></linearGradient><linearGradient id="linear-gradient-2" x1="129.11" y1="129.11" x2="838.08" y2="838.08" gradientTransform="matrix(1, 0, 0, 1, 0, 0)" xlink:href="#linear-gradient"/><linearGradient id="linear-gradient-3" x1="-205.87" y1="1156.18" x2="1459.88" y2="-509.57" gradientUnits="userSpaceOnUse"><stop offset="0" stop-color="#f4cc59"/><stop offset="0.2" stop-color="#d79300"/><stop offset="0.26" stop-color="#c07f00"/><stop offset="0.32" stop-color="#af6f00"/><stop offset="0.39" stop-color="#a46600"/><stop offset="0.47" stop-color="#a16300"/><stop offset="0.52" stop-color="#aa6b00"/><stop offset="0.6" stop-color="#c17f00"/><stop offset="0.65" stop-color="#d79300"/><stop offset="0.69" stop-color="#e0ac1b"/><stop offset="0.77" stop-color="#efd346"/><stop offset="0.82" stop-color="#f9eb61"/><stop offset="0.86" stop-color="#fcf46b"/><stop offset="0.88" stop-color="#faef66"/><stop offset="0.91" stop-color="#f5e057"/><stop offset="0.94" stop-color="#edc73e"/><stop offset="0.98" stop-color="#e1a51c"/><stop offset="1" stop-color="#d88900"/></linearGradient><linearGradient id="linear-gradient-4" x1="103.8" y1="475.15" x2="846.51" y2="475.15" gradientTransform="matrix(1, 0, 0, 1, 0, 0)" xlink:href="#linear-gradient"/><linearGradient id="linear-gradient-5" x1="97.2" y1="475.39" x2="839.67" y2="475.39" gradientTransform="matrix(1, 0, 0, 1, 0, 0)" xlink:href="#linear-gradient"/><linearGradient id="linear-gradient-6" x1="430.91" y1="-42.48" x2="541.34" y2="-42.48" gradientTransform="matrix(0.64, -0.77, 0.77, 0.64, 562.34, 875.39)" xlink:href="#linear-gradient"/><linearGradient id="linear-gradient-7" x1="378.81" y1="534.89" x2="661.78" y2="267.9" gradientTransform="matrix(1, 0, 0, 1, 0, 0)" xlink:href="#linear-gradient"/><linearGradient id="linear-gradient-8" x1="572.09" y1="298.35" x2="903.92" y2="630.17" gradientTransform="matrix(1, 0, 0, 1, 0, 0)" xlink:href="#linear-gradient"/><linearGradient id="linear-gradient-9" x1="57.4" y1="309.2" x2="370.25" y2="622.05" gradientTransform="matrix(1, 0, 0, 1, 0, 0)" xlink:href="#linear-gradient"/></defs><g id="Layer_2" data-name="Layer 2"><g id="Coins"><g id="Dusk"><circle class="cls-1" cx="475.15" cy="475.15" r="475.15" transform="translate(-196.82 475.15) rotate(-45)"/><circle class="cls-2" cx="475.15" cy="475.15" r="444.36"/><circle class="cls-3" cx="475.15" cy="475.15" r="438.51"/><path class="cls-4" d="M475.15,846.51c-204.76,0-371.35-166.59-371.35-371.36S270.39,103.8,475.15,103.8,846.51,270.39,846.51,475.15,679.92,846.51,475.15,846.51Zm0-738.78c-202.6,0-367.42,164.83-367.42,367.42S272.55,842.58,475.15,842.58,842.58,677.75,842.58,475.15,677.75,107.73,475.15,107.73Z"/><path class="cls-5" d="M454.23,852.77q-10.1-.57-20-1.64a9.82,9.82,0,0,1,2.11-19.52,370.09,370.09,0,0,0,38.74,2.12,9.68,9.68,0,0,1,9.8,9.82,9.82,9.82,0,0,1-9.82,9.81C468.15,853.35,461.14,853.15,454.23,852.77Zm-58.81-8a8.46,8.46,0,0,1-1.57-.21,376.25,376.25,0,0,1-39.42-10.91,9.81,9.81,0,1,1,6.26-18.6,357.84,357.84,0,0,0,37.36,10.34,9.81,9.81,0,0,1-2.63,19.38Zm118.86,6.48a9.81,9.81,0,0,1-.49-19.55,358.47,358.47,0,0,0,38.27-6.23,9.82,9.82,0,0,1,4.19,19.18,374.23,374.23,0,0,1-40.37,6.56A9.56,9.56,0,0,1,514.28,851.24ZM320,819.39a9.77,9.77,0,0,1-3.57-.89,380.08,380.08,0,0,1-36.15-19.19,9.82,9.82,0,0,1,10.14-16.82,359.91,359.91,0,0,0,34.25,18.2,9.81,9.81,0,0,1-4.67,18.7Zm272,14.83a9.81,9.81,0,0,1-2.59-19.1,360.63,360.63,0,0,0,36-14.36,9.82,9.82,0,0,1,8.25,17.82,378.25,378.25,0,0,1-38,15.14A9.73,9.73,0,0,1,592,834.22ZM251.82,778.31a9.77,9.77,0,0,1-5.4-2,382.82,382.82,0,0,1-31.16-26.5,9.82,9.82,0,0,1,13.51-14.25,358.54,358.54,0,0,0,29.55,25.14,9.82,9.82,0,0,1-6.5,17.61ZM664.21,800.8a9.81,9.81,0,0,1-4.53-18.2,364.14,364.14,0,0,0,32.11-21.77,9.81,9.81,0,1,1,11.87,15.63,380.92,380.92,0,0,1-33.85,22.95A9.77,9.77,0,0,1,664.21,800.8ZM194.07,723.57a9.8,9.8,0,0,1-6.93-3.45,381,381,0,0,1-24.77-32.54,9.81,9.81,0,0,1,16.23-11,363.62,363.62,0,0,0,23.5,30.86,9.83,9.83,0,0,1-8,16.16Zm533.49,29.1a9.81,9.81,0,0,1-6.2-16.93,363.8,363.8,0,0,0,26.72-28.12A9.81,9.81,0,0,1,763,720.35,379.08,379.08,0,0,1,734.85,750,9.76,9.76,0,0,1,727.56,752.67ZM149.37,657.76a9.78,9.78,0,0,1-8.12-5.19A378.87,378.87,0,0,1,124,615.48a9.82,9.82,0,1,1,18.23-7.29,360.18,360.18,0,0,0,16.31,35.16,9.81,9.81,0,0,1-4,13.27A9.68,9.68,0,0,1,149.37,657.76Zm629.8,34.35a9.82,9.82,0,0,1-7.56-15.33,356.43,356.43,0,0,0,20-33.2A9.82,9.82,0,1,1,809,652.81a382.15,382.15,0,0,1-21.15,35A9.83,9.83,0,0,1,779.17,692.11ZM119.85,583.89a9.82,9.82,0,0,1-8.91-7.17,376.41,376.41,0,0,1-8.8-40,9.81,9.81,0,1,1,19.37-3.17,356.68,356.68,0,0,0,8.34,37.86A9.82,9.82,0,0,1,123,583.54,9.6,9.6,0,0,1,119.85,583.89Zm696.71,38a9.52,9.52,0,0,1-3.1-.69A9.81,9.81,0,0,1,808,608.41a355.78,355.78,0,0,0,12.4-36.75,9.82,9.82,0,0,1,18.92,5.26,378.2,378.2,0,0,1-13.09,38.77A9.82,9.82,0,0,1,816.56,621.85ZM107,505.37a9.82,9.82,0,0,1-9.25-9.28,382,382,0,0,1,0-40.89,9.81,9.81,0,0,1,10.33-9.27c5.31.64,9.56,4.91,9.27,10.33a363.52,363.52,0,0,0,0,38.78,9.82,9.82,0,0,1-9.27,10.33C107.7,505.39,107.34,505.38,107,505.37Zm4.27-79.45a9.42,9.42,0,0,1-1-.11,9.82,9.82,0,0,1-8.12-11.26,384.44,384.44,0,0,1,8.71-40,9.82,9.82,0,0,1,18.93,5.22,360.58,360.58,0,0,0-8.26,37.88A9.81,9.81,0,0,1,111.26,425.92Zm21.14-76.7a10,10,0,0,1-3.08-.68,9.82,9.82,0,0,1-5.5-12.75A379.23,379.23,0,0,1,141,298.64a9.82,9.82,0,0,1,17.35,9.19A354.77,354.77,0,0,0,142.07,343,9.83,9.83,0,0,1,132.4,349.22Zm696.79,36.56a9.82,9.82,0,0,1-8.91-7.15,358.77,358.77,0,0,0-12.48-36.71A9.81,9.81,0,1,1,826,334.59a378.83,378.83,0,0,1,13.17,38.73,9.83,9.83,0,0,1-6.8,12.11A10,10,0,0,1,829.19,385.78ZM169.64,278.88a9.69,9.69,0,0,1-5-1.68,9.81,9.81,0,0,1-2.61-13.63A379.8,379.8,0,0,1,186.82,231a9.81,9.81,0,0,1,15,12.7,361.24,361.24,0,0,0-23.47,30.89A9.78,9.78,0,0,1,169.64,278.88ZM799.52,312a9.8,9.8,0,0,1-8.12-5.17,356.14,356.14,0,0,0-20.09-33.16,9.81,9.81,0,1,1,16.21-11.07,380.61,380.61,0,0,1,21.2,35,9.81,9.81,0,0,1-9.2,14.42ZM221.14,218.21a9.82,9.82,0,0,1-6.21-16.92,381.41,381.41,0,0,1,31.13-26.51A9.81,9.81,0,1,1,258,190.38a362.61,362.61,0,0,0-29.53,25.15A9.79,9.79,0,0,1,221.14,218.21Zm533.53,28a9.85,9.85,0,0,1-6.92-3.43A360,360,0,0,0,721,214.71a9.82,9.82,0,1,1,13.48-14.27,380.89,380.89,0,0,1,28.18,29.64,9.81,9.81,0,0,1-8,16.17ZM284.41,170a9.82,9.82,0,0,1-4.54-18.2A379.26,379.26,0,0,1,316,132.52a9.82,9.82,0,0,1,8.28,17.8A356.19,356.19,0,0,0,290,168.56,9.79,9.79,0,0,1,284.41,170Zm412.4,21.66a9.68,9.68,0,0,1-5.38-2,361.93,361.93,0,0,0-32.13-21.73,9.81,9.81,0,1,1,10.1-16.83A379.16,379.16,0,0,1,703.29,174a9.82,9.82,0,0,1-6.48,17.62ZM356.52,136.41a9.82,9.82,0,0,1-2.61-19.1,374.74,374.74,0,0,1,39.41-11,9.81,9.81,0,0,1,4.24,19.16,357.9,357.9,0,0,0-37.34,10.43A10.1,10.1,0,0,1,356.52,136.41Zm272,14.27a9.93,9.93,0,0,1-3.55-.89A358.83,358.83,0,0,0,589,135.51a9.81,9.81,0,1,1,6.22-18.61A377.9,377.9,0,0,1,633.22,132a9.82,9.82,0,0,1-4.66,18.72ZM434.19,119.22a9.82,9.82,0,0,1-.51-19.56,381,381,0,0,1,40.83-2.23,9.82,9.82,0,1,1,0,19.63,359.81,359.81,0,0,0-38.71,2.12A9.8,9.8,0,0,1,434.19,119.22Zm118.92,6.23a9.16,9.16,0,0,1-1.55-.21,362.06,362.06,0,0,0-38.29-6.15,9.82,9.82,0,1,1,2.08-19.52,382.94,382.94,0,0,1,40.37,6.49,9.81,9.81,0,0,1-2.61,19.39Z"/><path class="cls-6" d="M848.12,540.53a9.81,9.81,0,0,1-16.89-8.15,362.49,362.49,0,0,0,3.77-38.6,9.81,9.81,0,1,1,19.61.85,380.6,380.6,0,0,1-4,40.7A9.75,9.75,0,0,1,848.12,540.53ZM851.59,461a9.81,9.81,0,0,1-17-6.05A360.78,360.78,0,0,0,830,416.48a9.81,9.81,0,0,1,19.34-3.36,382,382,0,0,1,4.81,40.62A9.76,9.76,0,0,1,851.59,461Z"/><path class="cls-7" d="M479.62,243.11H319.72V620.93h.06v6.25H489.4c82.05,0,148.81-69.5,148.81-154.92s-66.76-154.92-147.9-154.92H407.54v.1h-.2V542.19h40.33l45.19-64.55-7.65,64.55h45.66L601.1,441.88a127.06,127.06,0,0,1,3.65,30.38c0,67-51.74,121.46-115.35,121.46H351.89V355.5h.17V323.34h-.17V275.27H479.62c108.62,0,197,88.37,197,197s-88.36,197-197,197H351.89v-.12H319.72v32.29h159.9A229.14,229.14,0,0,0,708.76,472.26C708.76,345.91,606,243.11,479.62,243.11Zm56.79,229.78,8.19-69.14.06-.09h-43v.09l-57.73,73.9V350.79H489.4c39.55,0,74.51,21.08,95.3,53.12Z"/><path class="cls-8" d="M748.37,784.58l-1.8-2A410.37,410.37,0,0,0,841,289.72,414,414,0,0,0,722.73,148.23l1.64-2.16a416.56,416.56,0,0,1,119,142.42,412.51,412.51,0,0,1-95,496.09Z"/><path class="cls-9" d="M205,787.28A412.76,412.76,0,0,1,62.37,475.16,408.55,408.55,0,0,1,106.93,288.4,416.7,416.7,0,0,1,226.1,146l1.64,2.16A413.71,413.71,0,0,0,109.36,289.64,405.63,405.63,0,0,0,65.09,475.16,410,410,0,0,0,206.8,785.22Z"/><path class="cls-10" d="M249,808.61l-19.72,6.11-1.15-.83L228,793.36l-16.22,22.4L206,811.55l22.31-30.8,6.69,4.84,0,20.23,19.23-6.27,6.65,4.82-22.32,30.8L232.79,831Z"/><path class="cls-10" d="M265.84,851.1,284,817.69l6.26,3.39L272.1,854.5Z"/><path class="cls-10" d="M337.36,842.37,344,845l-14.1,35.38-4.14-1.65,0,0-9.06-31.28-9.49,23.83-6.66-2.66,14.07-35.33,5.41,2.15,8.58,28.81Z"/><path class="cls-10" d="M377,861.62l-11.72-2.86,1.55-6.34,30.4,7.43-1.55,6.33L384,863.32l-7.47,30.61-7-1.7Z"/><path class="cls-10" d="M445.25,904.67l-28.33-2.94c1.31-12.59,2.63-25.24,3.94-37.83l28.32,2.94-.72,6.92-21.24-2.21-.91,8.7,20.49,2.13-.69,6.65-20.49-2.13-.88,8.54L446,897.65Z"/><path class="cls-10" d="M508.55,885.16c.55,9.61-4.93,19.56-18.23,20.08l-14.93.6-1.51-38,14.93-.59C501.84,866.72,508,875.78,508.55,885.16Zm-26.33,13.5,7.82-.31c8.64-.34,11.81-6.78,11.4-13-.4-5.91-4.11-11.69-12.36-11.36l-7.82.31Z"/><path class="cls-10" d="M565.38,868.54c-2.06-7.78,4.37-13.13,11.14-15,7.34-2,16.12-1.17,18.49,7.54,2.54,9.33-4,13-11.71,15.12-3,.82-7.76,2.95-6.68,6.94l.86,3.14,22.81-6.2,1.75,6.45-29.73,8.08L569.68,885c-2.29-8.44,4.68-13,11.92-15,2.78-.76,7.74-2.61,6.58-6.86-1.08-4-5.21-4.89-9.93-3.61-3.62,1-6.84,3.83-6,7.15Z"/><path class="cls-10" d="M621.27,857c-9-20.84,21.61-34.05,30.61-13.26l2.19,5c9,20.79-21.59,34.1-30.62,13.26Zm8.71,2.2c5.49,12.67,23,5.07,17.55-7.6l-2.18-5c-5.4-12.47-23-5-17.55,7.6Z"/><path class="cls-10" d="M671.6,827.61c-4.14-6.9.55-13.83,6.53-17.48,6.5-4,15.16-5.61,19.86,2.1,5,8.26-.23,13.62-7,17.78-2.69,1.64-6.63,5-4.48,8.52l1.7,2.78L708.34,829l3.48,5.71-26.31,16-5.2-8.54c-4.55-7.47.86-13.82,7.27-17.72,2.46-1.5,6.7-4.66,4.41-8.42-2.14-3.53-6.37-3.25-10.54-.7-3.2,2-5.51,5.58-3.77,8.53Z"/><path class="cls-10" d="M730.7,813.78l4.48-3.53-15.76-20L714.77,794l-4-5.11L721,780.76l19.8,25.08,4.14-3.27,3.77,4.78-14.2,11.21Z"/><path class="cls-10" d="M272.67,121.77c4.73,7.33,4.87,17.63-5.38,24l-11.51,7.16-18.21-29.29,11.5-7.16C259.12,110.24,268,114.61,272.67,121.77ZM258,144.21l6-3.75c6.66-4.14,6.27-10.63,3.18-15.32-3-4.49-8.47-7.38-14.83-3.43l-6,3.75Z"/><path class="cls-10" d="M315.82,82.19l8,18.06c4.13,9.32.53,16.63-7.4,20.15-7.56,3.35-16,1.62-20.25-7.89l-8-18.05,5.9-2.62,8,18.06c2.51,5.67,7.09,7.25,12,5.07s6.24-6.7,3.85-12.1l-8-18.06Z"/><path class="cls-10" d="M366.42,74.11c-1.68-1.57-5.33-2.46-8.92-1.42-4.64,1.34-6.31,3.93-5.59,6.39.83,2.89,4.47,2.7,8.59,2,7.15-1.15,14.11-1.21,16.4,6.69,2.13,7.38-3.48,12.44-10.86,14.58-6.77,2-12.58,1.38-16.79-4l4.42-4.21c2.52,3.22,6.82,3.72,10.84,2.56s7.23-3.58,6.18-7.18c-.9-3.12-4.53-3.45-9.07-2.65-7,1.15-13.77,1.16-15.92-6.27-2-6.82,3.94-11.55,10-13.37,5.16-1.49,10.93-1.57,14.92,2.82Z"/><path class="cls-10" d="M425,54.33,412.33,73l19,14.69.06.39-7.94,1.21L406.91,76.34l2.31,15.09-6.43,1-5.21-34.1,6.43-1,2.2,14.42L417,55.36l8-1.22Z"/><path class="cls-10" d="M490.31,85.94l-5.52,0L480.56,75,477,64.14l-3.66,11-4.25,10.72-5.51,0L451.08,51.24l7.29,0,8,24.92,8.51-24.83,4.24,0,8.48,24.92,8-24.83,7.29,0Z"/><path class="cls-10" d="M561.27,77.63c-1.61,8.77-8.52,16.63-20.47,14.56s-16-11.62-14.45-20.55,8.83-16.93,20.58-14.89S562.91,68.76,561.27,77.63Zm-28.62-4.8c-.82,5.61,1.16,12.1,9.17,13.49S553.88,82.2,555,76.64c1.08-5.72-1-12.68-9-14.07S533.49,67.07,532.65,72.83Z"/><path class="cls-10" d="M610.1,109.61l-7.36-2.38-6-14.06-6-1.92-3.54,11-6.19-2,10.61-32.86c5.21,1.68,10.39,3.41,15.6,5.09,7.72,2.54,10.13,9,8.3,14.69-1.45,4.5-5,8.38-11.63,7.63l6.32,14.42ZM596,75.17l-3.39,10.5,9.43,3c3.93,1.28,6.47-.8,7.32-3.43s0-5.81-3.93-7.07Z"/><path class="cls-10" d="M669.55,98.57l-20.93,8.31,7.52,22.85-.17.35-7.25-3.45-6.48-20-6.56,13.8-5.87-2.8,14.82-31.14,5.87,2.79-6.26,13.17,18.1-7.53,7.29,3.47Z"/><path class="cls-10" d="M707.14,130.44c.08-2.3-1.63-5.63-4.78-7.66-4.05-2.62-7.1-2.19-8.48,0-1.64,2.52.89,5.15,4.1,7.81,5.56,4.65,10.17,9.85,5.7,16.76-4.17,6.46-11.67,5.54-18.12,1.37-5.92-3.82-9.3-8.58-8-15.27l6.07.58c-.78,4,1.67,7.59,5.18,9.86s7.44,3.11,9.47,0c1.77-2.73-.37-5.69-4-8.59-5.46-4.53-9.9-9.63-5.71-16.12,3.85-6,11.31-4.61,16.67-1.2,4.51,2.91,8.36,7.22,7.66,13.1Z"/></g></g></g></svg>