<svg xmlns="http://www.w3.org/2000/svg" viewBox="0 0 1920 1080"><defs><style>.cls-1{fill:#00e969;}.cls-1,.cls-2,.cls-3,.cls-4{stroke:#000;stroke-miterlimit:10;}.cls-1,.cls-2,.cls-3{stroke-width:7px;}.cls-2{fill:#ffd36a;}.cls-3{fill:none;}.cls-4{fill:#5fddff;stroke-width:5px;}</style></defs><g id="Layer_2" data-name="Layer 2"><circle class="cls-1" cx="904.5" cy="560.5" r="374"/></g><g id="Layer_1" data-name="Layer 1"><path class="cls-2" d="M797.5,267.5c-60.34-47.14-68.64-80.18-98-81-17.87-.5-39.66,11.05-47,28-12.91,29.79,26.78,57.83,40,136,3.62,21.38,2.79,31.94,2,38-5,38.09-27.66,43.85-27,69,.73,27.69,21.67,27.35,33,68,11,39.53-8.15,50.76,6,96,4.67,14.94,8.45,19.09,15,42,6.77,23.65,6.33,31.74,13,46,8.54,18.25,19.63,27.16,28,36,47.4,50.06,21.64,112.49,66,140,4.27,2.65,18.32,11.1,37,10,5.22-.31,21.74-1.29,33-13,14-14.54,4.91-30.1,17-40,14-11.44,43.76-5.17,50,8,3.06,6.46-1.55,10.34,1,26,1,6.33,2.17,13.29,7,20,7,9.79,17.62,13,21,14,17.11,5,36.25-1.59,48-13,9.28-9,12.18-20,18-42,7.46-28.22,2.92-32,10-43,2.9-4.54,9-12.2,45-28,22.6-9.91,25.87-9.38,47-18a418.73,418.73,0,0,0,66-34c10.23-6.44,25.87-16.46,41-34,19.57-22.69,21.87-41.42,31-41s8.56,18.63,26,40c3.22,4,22.56,27,54,33,9.81,1.88,27.59,5.29,41-5,8.77-6.73,12.41-16.83,15-24a68.25,68.25,0,0,0,4-27c-.6-9.17-2.63-9.46-7-28-5.3-22.53-3.52-27.32-2-30a32.38,32.38,0,0,1,12-12c8.21-5,28.9-67.94,2-117-31.37-57.22-110.14-63.84-123-65-126.46-11.43-229.11,98.23-256,75-1.08-.93-2.63-8.78-5.91-24.28-9.17-43.43-5.76-45.39-11.09-60.72-11.42-32.81-31.9-35.74-29-56,1.37-9.61,5.86-10.2,17-32a241.1,241.1,0,0,0,17-43c7.4-26.39,12.49-44.5,4-62-1-2.1-11.41-23-31-27-25.69-5.26-43,23.46-113,74-32.09,23.19-45.63,29.56-62,29C791.25,293.41,835.2,297,797.5,267.5Z"/><path class="cls-3" d="M1044.5,529.5a390.16,390.16,0,0,1-104,61c-40,15.74-81.38,33.06-135,27-46.26-5.23-80.5-25.16-99-38"/><path class="cls-3" d="M747.5,480.5c27.55,37,38.31,52.94,38.45,55.53,0,0,.06,1,.13,2.27,0,0,.19,3.1.42,6.2.21,2.77,1.37,16.39,2,20,2,11.64,17.44,26.25,33,27,10,.48,20.82-8.67,42-27,18.53-16,15.12-15.68,30-28,18.81-15.57,27.73-19,36-33,5.94-10.06,9.63-22.31,7-24s-9.54,7.31-25,21c-6.72,5.95-20.63,18.28-34,26a98.49,98.49,0,0,1-10.62,5.35,104.33,104.33,0,0,1-40.38,8.65,102.05,102.05,0,0,1-29-4"/><path class="cls-3" d="M872.5,427.5h0c1.84-2.81,8.19-11.77,20-15,12.91-3.53,27.22,1.19,37,12"/><path class="cls-3" d="M746.5,425.5a28.35,28.35,0,0,1,52,2"/><path class="cls-3" d="M796.5,487.5c-2.5,2-13.73,10.76-12,21,1.33,7.84,9.5,12.15,13,14,12.69,6.7,35.92,9.14,47-6,6.27-8.57,8.31-22.3,2-31C836.57,471.8,810.33,476.67,796.5,487.5Z"/><path class="cls-3" d="M704.5,457.5c-.56,6.46-1.8,29.87,14,52,19.59,27.45,50,31.43,55,32"/><path class="cls-3" d="M913.5,531.5c8.73-1.65,41.1-8.85,65-39a108.84,108.84,0,0,0,23-60"/><path class="cls-3" d="M876.5,432.5l50-1"/><path class="cls-3" d="M752.5,430.5l38,1"/><path class="cls-3" d="M866.5,534.5c0,28-3,30-3,30"/><path class="cls-3" d="M925.5,306.5c16.71-19.37,44.47-48.54,57-42,6.61,3.45,6.86,15.73,7,31a175.94,175.94,0,0,1-12,65"/><path class="cls-3" d="M735.5,344.5c-2-1.27-32.72-20.92-31-52,.53-9.51,4.44-26.56,14-29,18.15-4.64,44.26,46.54,47,52"/><path class="cls-4" d="M495.13,831.16a36.3,36.3,0,0,1-4,15.92,46.11,46.11,0,0,1-12.69,15.28c-1.81,1.43-4,3-6.61,4.68s-5.4,3.39-8.43,5.11-6.21,3.39-9.55,5a104.81,104.81,0,0,1-10.11,4.25,89.2,89.2,0,0,1-10,3,40.93,40.93,0,0,1-9.18,1.13,15.83,15.83,0,0,1-3.7-.38,8.06,8.06,0,0,1-2.86-1.34,12,12,0,0,1-2.52-2.69,42.3,42.3,0,0,1-2.63-4.31,15.24,15.24,0,0,1-4.73,2.86,14.58,14.58,0,0,1-5,.91h-2.62a2.1,2.1,0,0,1-1.41-.59A6.87,6.87,0,0,1,398,878.5a7.94,7.94,0,0,1-1.07-3.88,40.11,40.11,0,0,1,1.35-10.49q1.36-5,3.14-10Q404,845,406.71,835T412,814.8q2.52-10.11,4.82-20T421,776.18l2.62-12.48q0-.33-.09-1.83c-.06-1-.14-2.1-.23-3.29s-.18-2.27-.24-3.28l-.09-1.4.47-1.82-.1.1c.31-1.29.75-2.76,1.31-4.41a27.36,27.36,0,0,1,2.07-4.63,17,17,0,0,1,2.66-3.6,4.39,4.39,0,0,1,3.14-1.45,39.34,39.34,0,0,1,4.08.27,41.38,41.38,0,0,0,4.45.27,15.47,15.47,0,0,0,1.82-.11,12.47,12.47,0,0,0,2.25-.54c.9-.29,2.09-.7,3.56-1.24s3.39-1.27,5.76-2.2q5.34-2.16,9.79-3.61t8.43-2.36a71.2,71.2,0,0,1,7.72-1.35,68.94,68.94,0,0,1,7.68-.43,42.32,42.32,0,0,1,9.61,1.08,24.59,24.59,0,0,1,8.24,3.49,18,18,0,0,1,5.76,6.35,19.61,19.61,0,0,1,2.15,9.52,33.89,33.89,0,0,1-4.4,17.22A52,52,0,0,1,497,778.65a104,104,0,0,1-19.34,12.21q-11.28,5.65-25.15,11.14a137.12,137.12,0,0,1,19.06,4.57,53.6,53.6,0,0,1,13.26,6.19,24,24,0,0,1,7.77,8.07A20.72,20.72,0,0,1,495.13,831.16Zm-31.85-9.9c-.62-.15-1.76-.4-3.41-.76s-3.6-.75-5.81-1.18-4.61-.88-7.17-1.35-5-.93-7.3-1.39-4.42-.92-6.32-1.35-3.3-.79-4.17-1.07q-3.57,13.23-6.23,25.33t-5.39,24.37l6.18.76,3.8.37c1.09.11,1.73.16,1.92.16a54.86,54.86,0,0,0,8.24-1.66,98,98,0,0,0,9.32-3.12q4.81-1.89,9.79-4.42t9.74-5.43a42.29,42.29,0,0,0,3.75-3.12,27.31,27.31,0,0,0,3.55-4,23,23,0,0,0,2.63-4.68,13.19,13.19,0,0,0,1-5.06,9.38,9.38,0,0,0-3.94-7.48A27.68,27.68,0,0,0,463.28,821.26Zm-29.59-25q5.24-1.95,11.05-4.58T456.68,786q6.13-3.12,12.46-6.62t12.6-7.05h-.1a31,31,0,0,0,4.45-3.39,30.13,30.13,0,0,0,3.94-4.3,23.69,23.69,0,0,0,2.81-4.84,12.83,12.83,0,0,0,1.07-5,8.61,8.61,0,0,0-.65-3.22,8.13,8.13,0,0,0-2.06-2.91,10,10,0,0,0-3.7-2,18.43,18.43,0,0,0-5.67-.76,47.93,47.93,0,0,0-10.58,1.35,92.1,92.1,0,0,0-11.43,3.39,65,65,0,0,0-9.84,4.52q-4.31,2.48-5.71,4.73a15.78,15.78,0,0,0-.8,2.37c-.34,1.22-.73,2.56-1.17,4s-.89,2.89-1.35,4.25a13.83,13.83,0,0,1-1.36,3c-.13.71-.38,1.81-.75,3.28S438,780,437.48,782s-1.12,4.23-1.78,6.67S434.37,793.64,433.69,796.3Z"/><path class="cls-4" d="M525.48,827.6q2.06-10.86,4.45-19.42t4.73-15.92q2.34-7.37,4.44-14.09t3.71-13.94l1.12-5.16c.25-1.29.47-2.91.65-4.84s.39-4,.61-6.08.52-4.22.89-6.3a25.33,25.33,0,0,1,1.64-5.59,11.91,11.91,0,0,1,2.77-4,6.13,6.13,0,0,1,4.3-1.56,9.54,9.54,0,0,1,4.92,1.19,9.37,9.37,0,0,1,3.23,3.12,14,14,0,0,1,1.78,4.46,23.72,23.72,0,0,1,.56,5.22,42.76,42.76,0,0,1-.23,4.52,32.82,32.82,0,0,1-.7,4.2A87.69,87.69,0,0,1,561,764.66q-2.36,6.47-5.16,14.26t-5.71,16.89Q547.2,804.9,545,815q-1.32,5.7-2.3,12.48a86.87,86.87,0,0,0-1,12.26,50.35,50.35,0,0,0,.66,8.34,20.45,20.45,0,0,0,2.34,6.89,12.74,12.74,0,0,0,4.54,4.68,14,14,0,0,0,7.26,1.72,39.69,39.69,0,0,0,7-.65,33,33,0,0,0,8.57-3.12,63.39,63.39,0,0,0,13.81-9.73,92.71,92.71,0,0,0,12.09-13.61,140.89,140.89,0,0,0,10.3-16.47,188.76,188.76,0,0,0,8.57-18.29q3.84-9.46,6.79-19.15t5-19q.84-4,1.31-7.48c.31-2.33.55-4.71.71-7.16s.28-5.05.37-7.85.26-6,.52-9.57a16.87,16.87,0,0,1,2.1-7.48,6,6,0,0,1,5.58-3.18,5.11,5.11,0,0,1,4.07,2.16,18.11,18.11,0,0,1,2.86,5.32,37.44,37.44,0,0,1,1.68,6.73,40.27,40.27,0,0,1,.56,6.34,79.1,79.1,0,0,1-.93,11.62q-.95,6.24-2.25,12-2.71,12.38-6.51,24.85a218.64,218.64,0,0,1-9,24.42,184.76,184.76,0,0,1-12.22,23.19,137,137,0,0,1-16.06,21q-4.5,4.85-9.75,9.53a94.13,94.13,0,0,1-11,8.44,61.27,61.27,0,0,1-11.7,6.08,32.91,32.91,0,0,1-11.9,2.31,36.74,36.74,0,0,1-14.8-2.74,28.2,28.2,0,0,1-10.44-7.69,32.66,32.66,0,0,1-6.23-11.78,52,52,0,0,1-2.06-15,73.33,73.33,0,0,1,.56-8.56C524.45,833.68,524.92,830.62,525.48,827.6Z"/><path class="cls-4" d="M694.92,763.16a32,32,0,0,0-1.92,4.46q-1.18,3.18-2.44,7.32c-.84,2.76-1.69,5.68-2.53,8.77s-1.62,6-2.34,8.66-1.33,5.06-1.83,7.1-.81,3.39-.93,4-.36,2-.71,3.55-.64,3-.89,4.09a192.69,192.69,0,0,1,20.75-6.78,80.89,80.89,0,0,1,20.56-2.68c1.06,0,2.47,0,4.22.1a23.12,23.12,0,0,1,5.15.81,11.63,11.63,0,0,1,4.35,2.21,5.24,5.24,0,0,1,1.83,4.3c0,.07,0,.52-.1,1.34a14.3,14.3,0,0,1-.56,2.86,13.07,13.07,0,0,1-1.45,3.22,5.79,5.79,0,0,1-2.67,2.37,20,20,0,0,0-2-.11h-2A67.32,67.32,0,0,0,716,820.13a104.93,104.93,0,0,0-13.49,3.66A131.89,131.89,0,0,0,689,829.27q-6.74,3.18-13.48,6.73l-9.46,47a5.58,5.58,0,0,1-1.55,3.29,3.8,3.8,0,0,1-2.67,1.45H659.6a4.9,4.9,0,0,1-4.91-3.34,23,23,0,0,1-1.36-8.6,79,79,0,0,1,.65-9.63q.66-5.22,1.5-10.17c.57-3.3,1.06-6.31,1.5-9a42.31,42.31,0,0,0,.66-6.24q-1.12-1.83-2.25-3.87a10.38,10.38,0,0,1-1.12-5.06,12,12,0,0,1,2.15-7.53,30.12,30.12,0,0,1,5.71-5.49,3.75,3.75,0,0,0,.8-1.18,13.1,13.1,0,0,0,.75-1.94c.22-.71.4-1.43.56-2.15s.3-1.33.42-1.83l3.84-15.92q2.25-9.36,4-16.41t3.28-12.64q1.5-5.6,2.76-10.06t2.48-8.66c.25-.94.67-2.26,1.27-4a38.6,38.6,0,0,1,2.15-5.06,22,22,0,0,1,2.86-4.31,4.59,4.59,0,0,1,3.46-1.82q4.22,0,5.76.8a3.91,3.91,0,0,1,2,2.1l.84,2.37q1.5-.21,4.26-.81t5.72-1.34q2.94-.75,5.48-1.46c1.68-.46,2.9-.84,3.65-1.13q6.27-1.94,11.52-3.33c3.5-.93,6.8-1.7,9.93-2.32s6.12-1.05,9-1.34a86.54,86.54,0,0,1,8.71-.43,30.81,30.81,0,0,1,3.84.22,10,10,0,0,1,3,.8,4.85,4.85,0,0,1,2,1.72,5.28,5.28,0,0,1,.75,3,10,10,0,0,1-.38,2.42,11.61,11.61,0,0,1-1.21,2.91,11.37,11.37,0,0,1-2.3,2.74,9.44,9.44,0,0,1-3.6,1.94c-.44.14-1.22.34-2.35.59s-2.42.52-3.88.81l-4.69.91-4.73.92q-3.55,1-8,2.09t-9.28,2.53c-3.21.94-6.45,1.94-9.69,3s-6.31,2.18-9.18,3.33a77.74,77.74,0,0,0-7.73,3.55A23.37,23.37,0,0,0,694.92,763.16Z"/><path class="cls-4" d="M800.85,763.16a32,32,0,0,0-1.92,4.46q-1.17,3.18-2.44,7.32T794,783.71q-1.26,4.62-2.34,8.66c-.72,2.69-1.32,5.06-1.82,7.1s-.82,3.39-.94,4-.36,2-.7,3.55-.64,3-.89,4.09A192.54,192.54,0,0,1,808,804.36a80.89,80.89,0,0,1,20.56-2.68c1.06,0,2.47,0,4.22.1a23,23,0,0,1,5.15.81,11.6,11.6,0,0,1,4.36,2.21,5.26,5.26,0,0,1,1.82,4.3c0,.07,0,.52-.09,1.34a14.3,14.3,0,0,1-.56,2.86,13.5,13.5,0,0,1-1.46,3.22,5.81,5.81,0,0,1-2.66,2.37,20,20,0,0,0-2-.11h-2A67.34,67.34,0,0,0,822,820.13a105.37,105.37,0,0,0-13.49,3.66A131.73,131.73,0,0,0,795,829.27q-6.75,3.18-13.49,6.73L772,883a5.56,5.56,0,0,1-1.54,3.29,3.84,3.84,0,0,1-2.67,1.45h-2.25a4.91,4.91,0,0,1-4.92-3.34,23,23,0,0,1-1.36-8.6,77.17,77.17,0,0,1,.66-9.63q.65-5.22,1.5-10.17t1.5-9a43.42,43.42,0,0,0,.65-6.24q-1.12-1.83-2.25-3.87a10.38,10.38,0,0,1-1.12-5.06,12.09,12.09,0,0,1,2.15-7.53,29.9,29.9,0,0,1,5.72-5.49,3.76,3.76,0,0,0,.79-1.18,13.1,13.1,0,0,0,.75-1.94c.22-.71.41-1.43.56-2.15s.3-1.33.43-1.83l3.84-15.92q2.23-9.36,4-16.41t3.28-12.64q1.5-5.6,2.77-10.06c.84-3,1.66-5.87,2.48-8.66.25-.94.67-2.26,1.26-4a37.35,37.35,0,0,1,2.16-5.06,21.49,21.49,0,0,1,2.85-4.31,4.61,4.61,0,0,1,3.47-1.82q4.21,0,5.76.8a3.92,3.92,0,0,1,2,2.1l.85,2.37q1.49-.21,4.26-.81t5.71-1.34c2-.5,3.79-1,5.48-1.46s2.9-.84,3.65-1.13q6.28-1.94,11.52-3.33t9.93-2.32q4.68-.9,9-1.34a86.69,86.69,0,0,1,8.71-.43,30.58,30.58,0,0,1,3.84.22,10,10,0,0,1,3,.8,4.88,4.88,0,0,1,2,1.72,5.28,5.28,0,0,1,.75,3,9.9,9.9,0,0,1-.37,2.42,11.65,11.65,0,0,1-1.22,2.91,11.14,11.14,0,0,1-2.3,2.74,9.37,9.37,0,0,1-3.6,1.94c-.44.14-1.22.34-2.34.59s-2.42.52-3.89.81l-4.68.91-4.73.92q-3.57,1-8,2.09t-9.27,2.53q-4.83,1.41-9.7,3T814,755.84a76.48,76.48,0,0,0-7.72,3.55A23.46,23.46,0,0,0,800.85,763.16Z"/><path class="cls-4" d="M958.39,833.52a88,88,0,0,1,1.31-14.15A64.09,64.09,0,0,1,964.29,804a202.24,202.24,0,0,1,10-20q5.52-9.63,11.33-17.75a150.48,150.48,0,0,1,11.61-14.42,65.43,65.43,0,0,1,11.06-9.84l-.1.11q3.28-2.37,6.93-4.95a85.77,85.77,0,0,1,7.5-4.74,51.32,51.32,0,0,1,7.77-3.55,23.13,23.13,0,0,1,7.77-1.4,16.2,16.2,0,0,1,7.5,1.83,20.09,20.09,0,0,1,6.23,5,24.35,24.35,0,0,1,4.21,7.37,25.59,25.59,0,0,1,1.55,8.93,31.79,31.79,0,0,1-.33,5.21,7,7,0,0,1-1,2.86,2.84,2.84,0,0,1-1.78,1.18,13.12,13.12,0,0,1-2.48.21,4.74,4.74,0,0,1-3.23-1,7.54,7.54,0,0,1-1.88-2.47,14.09,14.09,0,0,1-1.08-3.23,26.29,26.29,0,0,0-.88-3.23,8.89,8.89,0,0,0-1.32-2.47,2.64,2.64,0,0,0-2.2-1,20.05,20.05,0,0,0-8.1,1.94,51.45,51.45,0,0,0-8.9,5.17,95,95,0,0,0-9.08,7.37q-4.54,4.14-8.67,8.44t-7.63,8.5q-3.51,4.2-6,7.53-3.75,5.49-6.84,11.14a94.76,94.76,0,0,0-5.34,11.51,72.78,72.78,0,0,0-3.46,12.05,65.85,65.85,0,0,0-1.22,12.86,29.28,29.28,0,0,0,1.26,9,42.24,42.24,0,0,0,2.77,6.67,10,10,0,0,0,4.4,4.46,14.52,14.52,0,0,0,6.27,1.24,59.3,59.3,0,0,0,14.71-1.72,72.84,72.84,0,0,0,12.93-4.63,90.26,90.26,0,0,0,12.08-6.88q5.9-4,12.17-8.5h2.44a4.84,4.84,0,0,1,2.48.75,8.79,8.79,0,0,1,2.25,1.94,9.75,9.75,0,0,1,1.59,2.69,8.14,8.14,0,0,1,.61,3.12,12.2,12.2,0,0,1-2.44,7,34.12,34.12,0,0,1-6.22,6.67,63.15,63.15,0,0,1-8.57,6q-4.79,2.79-9.42,4.95t-8.66,3.65a50.86,50.86,0,0,1-6.46,2.05l-4,1c-1.28.32-2.8.65-4.55,1a60.15,60.15,0,0,1-6.27.75q-3.66.27-9.18.27a15.06,15.06,0,0,1-6.18-1.24,24.28,24.28,0,0,1-5-2.9,23.08,23.08,0,0,1-3.75-3.5c-1-1.22-1.86-2.26-2.48-3.12a55.56,55.56,0,0,1-8.06-14.63A47.67,47.67,0,0,1,958.39,833.52Z"/><path class="cls-4" d="M1071.91,824.59a111.35,111.35,0,0,1,4.88-16.51,168.68,168.68,0,0,1,7.49-17,187.44,187.44,0,0,1,9.6-16.73q5.3-8.24,11.24-15.92T1117.39,744q6.31-6.83,12.69-12.53a17,17,0,0,1,5.53-3.12,18.63,18.63,0,0,1,5.34-.76,13.06,13.06,0,0,1,5.33,1,13.85,13.85,0,0,1,4.69,3.71,12.51,12.51,0,0,0,1.59,1.72,2.47,2.47,0,0,0,1.59.75c.13,0,.28-.16.47-.48s.39-.7.61-1.13a14.18,14.18,0,0,1,.79-1.35,3,3,0,0,1,1.13-1,10.68,10.68,0,0,1,3.79-1.13,36.54,36.54,0,0,1,4.45-.27,19.66,19.66,0,0,1,8.15,1.78,21.39,21.39,0,0,1,6.93,5,51,51,0,0,1,10.82,18.29,69.54,69.54,0,0,1,3.7,22.92,110.07,110.07,0,0,1-2.81,23.67,118.84,118.84,0,0,1-7,21.73,126,126,0,0,1-10.68,19.8,112.48,112.48,0,0,1-13.67,16.89,94.25,94.25,0,0,1-16.06,13.13,78,78,0,0,1-17.8,8.55,59.46,59.46,0,0,1-18.83,3.07,39.2,39.2,0,0,1-16-3.12,33.49,33.49,0,0,1-12-8.82,39.51,39.51,0,0,1-7.49-13.56,55.66,55.66,0,0,1-2.58-17.43,78.65,78.65,0,0,1,.43-8.23A76.71,76.71,0,0,1,1071.91,824.59Zm15.83,7.21a52.65,52.65,0,0,0-1,9.68,28.39,28.39,0,0,0,1.83,10.6,20.55,20.55,0,0,0,5.15,7.64,21.81,21.81,0,0,0,8,4.63,31.7,31.7,0,0,0,10.16,1.56,40.33,40.33,0,0,0,13.35-2.37,54,54,0,0,0,13.25-6.89,80.75,80.75,0,0,0,12.46-10.86,94,94,0,0,0,11.1-14.42,119.57,119.57,0,0,0,9.09-17.54,121.91,121.91,0,0,0,6.41-20.12,58.55,58.55,0,0,0,1.36-8.07q.42-4.18.42-8.07a57.15,57.15,0,0,0-1.21-11.94,30.74,30.74,0,0,0-4-10.11,21.18,21.18,0,0,0-7.4-7,22.23,22.23,0,0,0-11.24-2.64,1.59,1.59,0,0,0-1.45.92,18.34,18.34,0,0,0-1.08,2.31c-.31.79-.67,1.62-1.08,2.48a8.35,8.35,0,0,1-1.59,2.31,7.77,7.77,0,0,1-2.43,1.67,8.94,8.94,0,0,1-3.61.64,5,5,0,0,1-2.81-.8,12.51,12.51,0,0,1-2.44-2.21q-.56-.64-.93-1a1.17,1.17,0,0,0-.85-.38,4.56,4.56,0,0,0-2.2.86,31.39,31.39,0,0,0-2.81,2c-1,.79-1.9,1.61-2.81,2.47a20.85,20.85,0,0,0-2.1,2.26q-6.37,7.53-12.7,16.41a207.91,207.91,0,0,0-11.66,18.34,176.71,176.71,0,0,0-9.32,19.1A100.42,100.42,0,0,0,1087.74,831.8Z"/><path class="cls-4" d="M1209.32,865.8q5.34-24.64,11-48.69t11.05-48.68c.44-2.15.88-4.2,1.32-6.13s.84-3.88,1.21-5.81.67-3.89.89-5.87a55.7,55.7,0,0,0,.33-6.18,32.9,32.9,0,0,0-.28-4.52,33.86,33.86,0,0,1-.28-4.63,27.11,27.11,0,0,1,.56-5.27q1.41-6.57,4-9.79T1247,717a17.89,17.89,0,0,1,4.17.48c1.34.33,2.67.7,4,1.13a40.07,40.07,0,0,0,4.45,1.29,20.15,20.15,0,0,0,4.64.54,31.26,31.26,0,0,0,3.65-.21c1.18-.15,2.54-.29,4.07-.43s3.34-.29,5.44-.43,4.73-.22,7.91-.22q2.63,0,6.18.22a54.3,54.3,0,0,1,7.4,1,50.36,50.36,0,0,1,7.78,2.2,30.61,30.61,0,0,1,7.35,3.93,27.23,27.23,0,0,1,6,6.08,25.26,25.26,0,0,1,3.93,8.66,30.91,30.91,0,0,1,.89,4.52,34.1,34.1,0,0,1,.24,4,30.71,30.71,0,0,1-2.91,12.91,53.65,53.65,0,0,1-8.85,13.5,88.3,88.3,0,0,1-13,11.89,80.8,80.8,0,0,1-6.74,4.68q-3.84,2.43-7.54,4.63t-6.65,4a35.58,35.58,0,0,0-4.08,2.8c2.19,1.22,4.37,2.49,6.56,3.82a58.36,58.36,0,0,1,13.63,11.57,88.41,88.41,0,0,1,7.3,9.73,154.57,154.57,0,0,1,7.87,13.61q4.08,7.86,8.48,18.51a13.58,13.58,0,0,1,1.12,5.49,13.74,13.74,0,0,1-.79,4.51,15.5,15.5,0,0,1-2.16,4.09,11.08,11.08,0,0,1-3.23,3,7.69,7.69,0,0,1-4,1.13,6.59,6.59,0,0,1-5.43-2.8,34.51,34.51,0,0,1-4.12-7.31q-2-4.51-4.08-10.22a93.61,93.61,0,0,0-5.19-11.52,106.38,106.38,0,0,0-7.45-11.83,61.28,61.28,0,0,0-8.66-9.68,42.87,42.87,0,0,0-9.47-6.51,21.6,21.6,0,0,0-9.74-2.42h-1.4a20.6,20.6,0,0,0-5.2.59c-1.53.39-3,.73-4.45,1a7.77,7.77,0,0,1-4.21-3.87,13.54,13.54,0,0,1-1.31-6v-1.51l-7.5,33.9c-.25,1.07-.59,2.54-1,4.41s-.93,3.91-1.5,6.13-1.14,4.56-1.73,7-1.16,4.74-1.69,6.89-1,4.09-1.4,5.81-.7,3-.89,3.87a11.72,11.72,0,0,1-3.33,4.25,7,7,0,0,1-4.35,1.56q-4.12,0-5.71-2.85a13.24,13.24,0,0,1-1.6-6.62,24.64,24.64,0,0,1,.19-3.06C1209,867.72,1209.13,866.73,1209.32,865.8Zm46-121.36c-.38,1.43-.92,3.51-1.64,6.24s-1.51,5.81-2.39,9.25L1248.47,771q-1.5,5.93-3,11.89t-2.9,11.57q-1.41,5.6-2.53,10a16.94,16.94,0,0,1,5.62-5,67.59,67.59,0,0,1,8.43-4.14q3.66-1.51,9-4.25t11.19-6.3q5.87-3.54,11.71-7.69a96.06,96.06,0,0,0,10.49-8.5,50.48,50.48,0,0,0,7.54-8.71,15.26,15.26,0,0,0,2.91-8.45,8.24,8.24,0,0,0-2.44-6.29,15.59,15.59,0,0,0-6.09-3.5,35.78,35.78,0,0,0-8-1.56q-4.35-.37-8.1-.38a94,94,0,0,0-13.48,1A55.74,55.74,0,0,0,1255.31,744.44Z"/><path class="cls-4" d="M1443.57,803.07c-.75.22-2.09.69-4,1.4S1435.42,806,1433,807s-5,2-7.73,3.12-5.29,2.15-7.73,3.12l-6.36,2.53c-1.82.72-3,1.18-3.66,1.4a6,6,0,0,0-1.68.64l-2.11,1.08-2.06,1a3.92,3.92,0,0,1-1.55.49,6.76,6.76,0,0,1-3.51-.92,9,9,0,0,1-2.67-2.42,10.62,10.62,0,0,1-1.69-3.55,15.93,15.93,0,0,1-.56-4.2,10.55,10.55,0,0,1,2.16-7,14.38,14.38,0,0,1,5.1-3.93,22,22,0,0,1,6.14-1.77q3.18-.43,5.24-.76a4,4,0,0,0,1.13-.32c.56-.21,1.18-.46,1.87-.75a21.32,21.32,0,0,1,2.06-.75,5.82,5.82,0,0,1,1.69-.33q1.68-.86,5.24-2.58c2.37-1.15,5-2.31,7.77-3.5s5.61-2.22,8.39-3.12a24.1,24.1,0,0,1,7.16-1.34,13.84,13.84,0,0,1,6,1.24,13.16,13.16,0,0,1,4.49,3.44A15.43,15.43,0,0,1,1459,793a20.48,20.48,0,0,1,1,6.51,26.73,26.73,0,0,1-.18,3.07c-.13,1-.35,2.31-.66,3.82a86.34,86.34,0,0,1-8.57,22.43A97.68,97.68,0,0,1,1437,847.67a101.89,101.89,0,0,1-17.14,14.9,107.56,107.56,0,0,1-19.3,10.65l.09-.1c-1.06.5-2.35,1-3.88,1.56s-3.13,1-4.78,1.5a48.59,48.59,0,0,1-4.87,1.13,23.58,23.58,0,0,1-4.17.43,59.7,59.7,0,0,1-6.18-.27,38.91,38.91,0,0,1-4.26-.64,14.3,14.3,0,0,1-2.91-.92c-.78-.36-1.48-.71-2.1-1.07a49.29,49.29,0,0,1-9.79-6.73,39.85,39.85,0,0,1-7.63-9.09,44.85,44.85,0,0,1-5-11.46,50.11,50.11,0,0,1-1.78-13.72,66.14,66.14,0,0,1,2.25-16.62,112.56,112.56,0,0,1,6.18-17.48,149.23,149.23,0,0,1,9.23-17.43,178.67,178.67,0,0,1,11.47-16.52,169.57,169.57,0,0,1,12.88-14.68,136.53,136.53,0,0,1,13.35-12q4-3.12,8.66-6.34a90.3,90.3,0,0,1,9.51-5.81,63.42,63.42,0,0,1,9.88-4.25,30.94,30.94,0,0,1,9.79-1.67,23.09,23.09,0,0,1,7.58,1.29,23.51,23.51,0,0,1,6.75,3.6,18.63,18.63,0,0,1,4.87,5.65,14.91,14.91,0,0,1,1.87,7.43,18.35,18.35,0,0,1-.47,4c-.12.57-.37,1.58-.75,3a10.31,10.31,0,0,1-1.4,3.34l.19-.22c-.25.93-.67,1.47-1.27,1.61a7.83,7.83,0,0,1-6.6-1.39,33.58,33.58,0,0,1-3.65-3.5c-1.13-1.26-2.24-2.42-3.33-3.5a5.37,5.37,0,0,0-3.89-1.61h-2.52a56.93,56.93,0,0,0-15.55,6.83,118.89,118.89,0,0,0-16.44,12.16,149.43,149.43,0,0,0-15.69,16A139.69,139.69,0,0,0,1373,794a103.51,103.51,0,0,0-9.13,19.2,56.26,56.26,0,0,0-3.42,18.67,25.34,25.34,0,0,0,2.91,12.53,41.31,41.31,0,0,0,8.43,10.28h-.1a33.4,33.4,0,0,0,6.32,3.66,16.59,16.59,0,0,0,6.7,1.5,20.94,20.94,0,0,0,7.35-1.5,57.39,57.39,0,0,0,8-3.77,91.6,91.6,0,0,0,7.77-5q3.79-2.68,6.88-4.95a71.69,71.69,0,0,0,16.77-17.64,115.54,115.54,0,0,0,11.24-21.2c.12-.36.25-.72.38-1.07a5.46,5.46,0,0,0,.28-.92Q1443.48,803.4,1443.57,803.07Z"/><path class="cls-4" d="M1483.57,817.6q.84-4.2,2-9.31t2.53-10.6c.9-3.65,1.83-7.35,2.76-11.08s1.86-7.31,2.77-10.76,1.73-6.65,2.48-9.63,1.4-5.5,2-7.58q1.77-7,3.37-14t3.09-14.8a12.24,12.24,0,0,1,5.06-6,14,14,0,0,1,6.93-1.77,13.08,13.08,0,0,1,4.73,5,14.74,14.74,0,0,1,1.73,7.15,30.24,30.24,0,0,1-.8,6.41q-.79,3.6-2,7.74t-2.72,8.72q-1.48,4.57-2.9,9.41-2.62,8.82-5.24,17.65t-5.16,18.61q-.64,2.58-1.4,5.17t-1.55,5.59q-.79,3-1.73,6.72c-.62,2.48-1.25,5.33-1.87,8.56q-1.12,5.7-2,11.46t-1.59,11.56q-.75,5.82-1.69,11.73t-2.25,11.94a10.34,10.34,0,0,1-1.63,3.82,14,14,0,0,1-2.67,2.85,12.19,12.19,0,0,1-3.19,1.83,8.94,8.94,0,0,1-3.18.65,14.61,14.61,0,0,1-2.86-.27,3.37,3.37,0,0,1-2.11-1.24,11.44,11.44,0,0,1-1.78-3.12,10.29,10.29,0,0,1-.65-3.66c0-.35,0-.7,0-1s.08-.66.15-1Z"/></g></svg>