<svg xmlns="http://www.w3.org/2000/svg" viewBox="0 0 1412.53 1407"><defs><style>.cls-1{fill:#fe0000;}.cls-2{fill:#ff9f00;}.cls-3{fill:#f15a24;}.cls-4{fill:#dddad9;}.cls-5{fill:#fff;}.cls-6{fill:#ddc0c0;}.cls-7{fill:#654a37;}.cls-8{fill:#4e3a1d;}.cls-9{fill:#1a1a1a;}.cls-10{fill:#b26d78;}.cls-11{fill:#3a3a3a;}</style></defs><title>samo inu</title><g id="Layer_2" data-name="Layer 2"><g id="Layer_1-2" data-name="Layer 1"><circle class="cls-1" cx="708.18" cy="703.5" r="703.5"/><ellipse class="cls-2" cx="708.18" cy="706.91" rx="703.5" ry="666"/><path class="cls-3" d="M1412.53,706.91a654.35,654.35,0,0,1-13.87,133.74,651.39,651.39,0,0,1-17.23,65.12,659.16,659.16,0,0,1-23.89,63,668.67,668.67,0,0,1-66.44,117.36,684.76,684.76,0,0,1-88.68,102A698.87,698.87,0,0,1,974,1331.76a719,719,0,0,1-130.67,36.57A737.91,737.91,0,0,1,708.18,1380a746.41,746.41,0,0,1-134.84-13.24,733,733,0,0,1-130-37.65,725.65,725.65,0,0,1-227.64-142.88,697.86,697.86,0,0,1-89.56-100.74q-19.86-27.29-36.94-56.47A666.21,666.21,0,0,1,58.17,969.1a650.7,650.7,0,0,1-24.76-62.83,634,634,0,0,1-18.11-65.1A646,646,0,0,1,0,706.91,636.6,636.6,0,0,1,54.56,443.1a655,655,0,0,1,67.62-117.68,684.35,684.35,0,0,1,90-101.71,708.79,708.79,0,0,1,108-82.4A726.88,726.88,0,0,1,572.78,44a750.77,750.77,0,0,1,135.4-12.18c90.72.17,181.5,16.72,266.05,49.57q31.69,12.3,62.11,27.6t59.14,33.41a699.25,699.25,0,0,1,107.1,83.05,686.09,686.09,0,0,1,88.65,102.09A669.57,669.57,0,0,1,1357.66,445,658.51,658.51,0,0,1,1381.55,508a650.77,650.77,0,0,1,31,198.89Zm-1.7,0a635.93,635.93,0,0,0-3.65-67,617.81,617.81,0,0,0-53.69-193,634,634,0,0,0-31.3-59.18A658.19,658.19,0,0,0,1285,332.13a675,675,0,0,0-90-98.35c-66.17-59.47-143.61-105.83-226.57-137a728.24,728.24,0,0,0-128-35.18A745.68,745.68,0,0,0,576.05,62,728.82,728.82,0,0,0,448.24,97.4,702.91,702.91,0,0,0,223.05,235.53a676.36,676.36,0,0,0-88.69,98.74A656.51,656.51,0,0,0,67,448.71a625.59,625.59,0,0,0-3.61,518,641.22,641.22,0,0,0,67,115.72,663,663,0,0,0,89.12,99.72,683.1,683.1,0,0,0,107,80.13,704.17,704.17,0,0,0,120.26,58c83.55,31,172.64,46.05,261.44,45.49q33.32-.24,66.49-3.35t65.91-9.13a738.75,738.75,0,0,0,128-35.66c83-31.41,160.33-77.94,226.47-137.47a676,676,0,0,0,90-98.43,656.74,656.74,0,0,0,37.24-55.55,635.49,635.49,0,0,0,31.29-59.2,615.88,615.88,0,0,0,53.62-193.1A633.1,633.1,0,0,0,1410.83,706.91Z"/><path class="cls-4" d="M1113.52,690.6q6.81,16,13.63,32C1127.36,710.54,1121.93,699.19,1113.52,690.6Z"/><path d="M1134,757.8l-42.79-100.59,27.63,28.18c10.39,10.6,16,23.88,15.76,37.39Z"/><path class="cls-4" d="M1156.25,885.24,1178,901.43c2.24-86.72-39.57-173.44-108.8-225.7l43.5,12.63-67.94-161.11,21.73,10.35L922.6,251c-8.62-17.16-17.48-34.68-31.26-48.06S857.7,180.84,839,185.29c-49.83,11.86-46.28,94.79-92.91,116-24.19,11-53.57,0-72.81-18.34s-31.14-42.82-45.07-65.45-31.64-44.9-56.64-53.92c-87.8-31.68-95.46,110.87-113.3,160.36A890.74,890.74,0,0,1,401.45,450c-17,31.09-44.86,96.94-75.74,115.73L384.3,530.1,280.7,709.18l51.8-48.87L255.64,891.55c-14.43,43.41-28.25,93.5-4.58,132.65,33.75,55.81,121.31,53.35,161.75,104.52l-37.68,13.09c39.44,40.86,99,61.3,155.21,53.28l-5.7,17.54,155.21,31.76c12.54,2.57,25.52,5.13,38,2.4s24.48-12.25,25.83-25c102.64,6.94,207.4-23.63,290.19-84.7l-14.16,20.63c57.81-10.73,109.67-49.75,136-102.32S1182.27,938,1156.25,885.24Z"/><path d="M693.6,1254.46c-5.27-.73-10.38-1.77-15.25-2.77L515,1218.26l4.71-14.52a185.52,185.52,0,0,1-39.48-1.27c-41.55-5.75-81.25-25.24-110.45-55.48l-8.1-8.39,38.14-13.25c-17.86-17.68-42.64-27.78-68.68-38.41-33.17-13.53-67.47-27.52-86.44-58.88-25.16-41.63-11.19-93.5,3.89-138.86L316.09,686,248.7,749.62l114.52-198-33.63,20.47-7.75-12.73C344.69,545.49,367,501.26,383.29,469c4.19-8.31,8.14-16.15,11.63-22.51a886,886,0,0,0,56.36-125c3.55-9.85,6.7-23.63,10.35-39.6,10.58-46.3,23.74-103.91,59.66-123.53,15.2-8.3,33-8.88,52.83-1.71,29.21,10.54,48.49,37.59,60.45,57,3.14,5.09,6.2,10.33,9.17,15.39,10.53,18,20.49,35,34.7,48.58,16.38,15.6,42.7,26.9,64.59,16.94,19.69-8.95,29.56-31,40-54.37,12.11-27.05,24.63-55,54.24-62.08,19.38-4.62,42.07,2.87,59.24,19.54,14.83,14.41,24.34,33.35,32.73,50.07l153.61,306-23.65-11.27,66.4,157.48-25.68-7.46c55.33,54.21,87.5,131.56,85.49,209.2l-.37,14.38-11.88-8.86c16,49.32,12.44,105.29-10.78,151.63-27.28,54.46-81.43,95.19-141.31,106.3l-17.68,3.29,2.33-3.4a451.87,451.87,0,0,1-256.23,64.67c-4.73,13.27-18.09,21.83-30,24.44C710.72,1256,702,1255.62,693.6,1254.46ZM534.31,1207l147,30.09c11.68,2.39,23.77,4.86,34.94,2.42,9.18-2,19-9,20-18.48l.76-7.13,7.15.48c100.35,6.79,204.32-23.55,285.26-83.26l35.61-26.26-28.18,41.05c47.85-14.44,89.8-49.13,112.18-93.82,25.24-50.36,25.43-113,.5-163.55l-13.71-27.8,34.62,25.81c-2.56-79.46-42.24-156.9-105.79-204.87l-32.33-24.4,67.37,19.56L1030.26,512.1l19.8,9.43L915.94,254.33c-8.25-16.42-16.77-33.41-29.8-46.05C875.53,198,858,188.42,840.75,192.54c-22.47,5.35-33,28.82-44.1,53.67S774,296.78,749.2,308.06c-28.22,12.83-61-.66-81-19.72-15.74-15-26.69-33.73-37.29-51.84-2.92-5-5.94-10.16-9-15.11-10.79-17.52-28-41.85-52.82-50.81-15.89-5.73-29.18-5.48-40.62.77-30,16.4-42.89,72.68-52.28,113.77-3.76,16.44-7,30.63-10.85,41.34A902.33,902.33,0,0,1,408,453.61c-3.36,6.14-7.26,13.87-11.39,22.06-9,17.77-19.67,39-31.64,57.48l40.42-24.6L312.71,668.74l36.19-34.15L262.71,893.9c-14,42.2-27.15,90.25-5.27,126.44,16.41,27.14,47,39.61,79.31,52.8,30.21,12.33,61.44,25.07,81.91,51l6.5,8.22L389,1144.87c37.57,33.67,90.23,50,140.25,42.84l11.83-1.69Z"/><path class="cls-5" d="M362,674c30.13,6.87,45,49.15,25.79,73.36,18.95-11.2,45.49.52,55.17,20.29s5.5,44-4.8,63.42-26,35.37-40.58,51.88-28.5,34.57-34,55.89c-9.25,36,8,74.63,34.49,100.69s61,42,94.87,57.37,68.43,31.15,95.13,57l17.32-31.19c28.21,24,71,11.77,105.51-1.65l106.9-41.53,148.95,9.23-13.34-31.69c42.71,4.84,86.28-27.87,93.56-70.23l29-12.67a302.46,302.46,0,0,1-92.23-169.65l35.81,12.74L1010.89,721l35.84,5Q994.47,521.82,938.22,318.74c-7.87-28.39-16.38-57.87-36.08-79.78S848,205.38,822.72,220.53c-27,16.22-31.69,53.2-50.39,78.59-27.29,37.05-88.6,41.92-121.4,9.64-16.16-15.9-24.8-37.66-35-57.9s-23.7-40.66-44.64-49.35c-32.87-13.64-57.2,12.63-67.8,39.94-18.41,47.42-31.87,97.45-47.69,145.81Z"/><path class="cls-6" d="M512,241.76c5.08-13.75,12-23.13,32-23.66,21.67-.57,43.65,13.2,53,32.68,13,27.28,4.72,61.35-14.61,84.59S534.52,372.43,505.51,381l21.38,9.74a156.17,156.17,0,0,0-81.12,50.38q30.06-90.22,60.11-180.46C508.15,253.8,509.93,247.41,512,241.76Z"/><path class="cls-6" d="M807.12,250.26c11.81-15.69,30.92-26.29,48.15-20.4,18.6,6.35,31.15,23.53,41,40.55a348.06,348.06,0,0,1,46,154.66,116.84,116.84,0,0,0-64.16-35.44c7.62-12.89,2.28-30.17-8-41.09s-24.35-17.17-37.61-24.12-26.67-15.52-33.44-28.87C792,281.64,796.77,264,807.12,250.26Z"/><path class="cls-7" d="M594.57,550.71a36,36,0,0,1,11.76-2.54A34,34,0,0,1,631,558.35c6.13,6.31,9.52,16.49,4.93,24-5,8.09-16.08,9.18-25.56,9.17-6.7,0-13.53-.13-19.89-2.25s-12.29-6.55-14.58-12.85C571.59,564.68,583.09,555.08,594.57,550.71Z"/><path d="M594.53,550.58a45.33,45.33,0,0,1,10.29-2.69,33.26,33.26,0,0,1,10.75.58,30.88,30.88,0,0,1,18.2,11.4,26,26,0,0,1,4.44,10,20,20,0,0,1,.34,5.46,15.38,15.38,0,0,1-1.29,5.29,15.58,15.58,0,0,1-3,4.51,18.63,18.63,0,0,1-4.29,3.31,31.08,31.08,0,0,1-5,2.1,42.93,42.93,0,0,1-5.25,1.21,71.21,71.21,0,0,1-10.69.85,82.16,82.16,0,0,1-10.73-.32,39,39,0,0,1-10.64-2.54,25.67,25.67,0,0,1-9.17-6.32,18.09,18.09,0,0,1-4.71-10.23,13.2,13.2,0,0,1,0-2.88,9.57,9.57,0,0,1,.24-1.42,9.12,9.12,0,0,1,.35-1.39,14.36,14.36,0,0,1,1.09-2.61c.23-.41.43-.84.69-1.23l.79-1.14a28.43,28.43,0,0,1,8-7.2A53.91,53.91,0,0,1,594.53,550.58Zm.09.26a38.05,38.05,0,0,0-9.2,5.08,26.43,26.43,0,0,0-7,7.56l-.61,1.1c-.2.37-.33.77-.49,1.15a15.32,15.32,0,0,0-.76,2.35,13.11,13.11,0,0,0-.18,4.79c.07.4.11.79.19,1.19l.36,1.15a11.49,11.49,0,0,0,.9,2.25,17.24,17.24,0,0,0,2.81,4,24.16,24.16,0,0,0,8.14,5.67,35.8,35.8,0,0,0,9.84,2.6,99.8,99.8,0,0,0,10.43.71,83.16,83.16,0,0,0,10.48-.18,28,28,0,0,0,10-2.64,16.65,16.65,0,0,0,4.14-3.06,14,14,0,0,0,2.78-4.29,15.62,15.62,0,0,0,.3-10.06,25,25,0,0,0-4.77-9,36.61,36.61,0,0,0-16.85-11.14,31.68,31.68,0,0,0-10.25-1.51A32.83,32.83,0,0,0,594.62,550.84Z"/><path class="cls-8" d="M793.21,551.43c7.46-5.47,19.22-7.38,28.6-5.07a38.49,38.49,0,0,1,25.37,21l-16,10.31c-7,4.51-14.53,9.18-22.86,9.2a22.42,22.42,0,0,1-19.21-11.2C783,564.85,786.2,556.57,793.21,551.43Z"/><path d="M793.13,551.32a33.36,33.36,0,0,1,7-3.84,39,39,0,0,1,7.74-2.33,33.21,33.21,0,0,1,16.26.61,35.56,35.56,0,0,1,14,8.33,43.4,43.4,0,0,1,9.37,13.13l.15.32-.3.19c-6.66,4.26-13,8.88-19.61,13.31a52,52,0,0,1-10.71,5.57,25.51,25.51,0,0,1-12.28,1.45A23.22,23.22,0,0,1,793.47,583a21.81,21.81,0,0,1-4.23-4.61,14.16,14.16,0,0,1-.84-1.33,11.34,11.34,0,0,1-.72-1.38l-.65-1.39-.55-1.44a18.82,18.82,0,0,1-.54-12.1A19.14,19.14,0,0,1,793.13,551.32Zm.16.22a16,16,0,0,0-6.44,9.41,17,17,0,0,0,1.66,11l.61,1.28.71,1.24c.23.42.47.82.73,1.2a12.69,12.69,0,0,0,.79,1.13,22.37,22.37,0,0,0,3.88,4,22.09,22.09,0,0,0,10,4.44,23,23,0,0,0,11-1,57,57,0,0,0,10.45-4.9c6.78-4,13.61-8,20.24-12.24l-.15.52a33.72,33.72,0,0,0-9.7-12.24,42.42,42.42,0,0,0-13.65-7.23,36.43,36.43,0,0,0-7.55-1.56,40.73,40.73,0,0,0-7.81-.09A29.55,29.55,0,0,0,793.29,551.54Z"/><path d="M589.43,864.09c9.92,8.67,19.5,17.62,29.47,25.94s20.16,16.22,31.07,22.62a139.67,139.67,0,0,0,16.73,8.57c2.9,1.11,5.75,2.34,8.71,3.22,1.48.46,2.92,1,4.41,1.39l4.47,1.13a103,103,0,0,0,18.18,2.56,117.55,117.55,0,0,0,18.46-.66,123.89,123.89,0,0,0,18.31-3.4c3-.72,6-1.67,9-2.57l4.45-1.53c1.48-.51,2.93-1.12,4.41-1.65a177.08,177.08,0,0,0,17.23-7.77q8.43-4.41,16.58-9.51c21.7-13.62,41.54-30.72,62-47.28-16.43,20.5-34.44,40-56,56.08s-47,28-74.5,31.1a127.12,127.12,0,0,1-20.75.53,108.68,108.68,0,0,1-20.56-3.47l-5-1.48c-1.66-.5-3.25-1.18-4.88-1.76-3.29-1.12-6.37-2.69-9.5-4.1a128.9,128.9,0,0,1-17.56-10.49c-11.13-7.78-20.87-17-29.87-26.74-4.47-4.9-8.79-9.89-12.89-15.05S593.3,869.42,589.43,864.09Z"/><path class="cls-9" d="M847.37,751.49C839.71,765.65,831.83,780.1,820,791s-28.65,17.77-44.24,13.73C752.27,798.66,737,770.19,712.81,771c-21.12.7-34.47,23.39-54.1,31.2-17.09,6.8-37.11,1.18-51.93-9.72s-25.47-26.39-35.84-41.58c17.28,44.57,42.68,84.55,76.94,117.89,11.11,10.82,23.11,21,36.89,28.09s29.49,11.16,44.89,9.24c22.26-2.78,41.27-17.44,56.58-33.83C818.09,838.16,841.13,797.74,847.37,751.49Z"/><path d="M847.16,752.13a5,5,0,0,0-.21,1.29,3.38,3.38,0,0,1-.12,1l-.08.21-.14.3-.28.62-.55,1.22c-.75,1.63-1.48,3.27-2.26,4.89-1.56,3.24-3.17,6.47-4.9,9.66a107.64,107.64,0,0,1-12.34,18.18,66.15,66.15,0,0,1-17.36,14.47,52.58,52.58,0,0,1-22.26,6.88,40.53,40.53,0,0,1-12.09-1,49.5,49.5,0,0,1-11.2-4.22c-7-3.58-12.92-8.19-18.55-12.61s-11-8.73-16.62-11.78a36.65,36.65,0,0,0-8.43-3.39,24,24,0,0,0-8.52-.58A27.18,27.18,0,0,0,707,778l-2.11.7c-.35.12-.71.22-1.06.35l-1.05.47a51.41,51.41,0,0,0-8.38,4.65c-5.54,3.74-11,8.23-17,12.57a88.36,88.36,0,0,1-9.54,6.06,54.06,54.06,0,0,1-5.28,2.47c-.92.36-1.79.77-2.74,1.06l-2.83.87a49.54,49.54,0,0,1-11.55,1.56,58.33,58.33,0,0,1-11.39-1.1,67.71,67.71,0,0,1-20.78-8.09,72.5,72.5,0,0,1-9.12-6.26,93.12,93.12,0,0,1-8.19-7.28,160.07,160.07,0,0,1-14.27-16.37c-4.41-5.72-8.47-11.64-12.64-17.44l4.06-2.14c1.79,4.19,3.5,8.41,5.44,12.52s4,8.2,6,12.26c4.18,8.07,8.76,15.92,13.58,23.59s10,15.07,15.46,22.28,11.15,14.18,17.05,21,12.12,13.29,18.56,19.54a214.81,214.81,0,0,0,20.09,17.57,114.74,114.74,0,0,0,22.08,13.47A79.25,79.25,0,0,0,715.42,899a60,60,0,0,0,12.2,0,65.26,65.26,0,0,0,11.93-2.49A73.39,73.39,0,0,0,751,891.67,86.92,86.92,0,0,0,761.89,885a146.53,146.53,0,0,0,19.79-17.17c6.24-6.44,12.18-13.17,17.89-20.08A259.68,259.68,0,0,0,815.44,826c1.2-1.89,2.5-3.73,3.63-5.67l3.46-5.79c2.14-3.94,4.37-7.86,6.34-11.91l1.52-3,1.4-3.07c.9-2.07,1.92-4.09,2.72-6.2l2.57-6.27,2.31-6.38c.81-2.13,1.38-4.32,2.11-6.47l1-3.25.89-3.29,1.72-6.34c.27-.92.62-1.83,1-2.87A30.81,30.81,0,0,0,847.16,752.13Zm.42-1.29c-.08,1.08-.08,2.2-.06,3.44s0,2.58-.08,3.91c0,.67-.1,1.34-.16,2l-.23,1.74-.5,3.43-.49,3.44-.65,3.41c-.46,2.27-.83,4.57-1.41,6.82a183,183,0,0,1-8.29,26.65,196.66,196.66,0,0,1-12,25.33L822,834.08l-1.8,3c-1.23,2-2.39,4-3.7,6l-3.86,5.87-4,5.74A273.93,273.93,0,0,1,791,876.51a146.91,146.91,0,0,1-21,19.61,91.27,91.27,0,0,1-26,14.11,70.38,70.38,0,0,1-30.14,3.19,85.27,85.27,0,0,1-14.71-3,95.44,95.44,0,0,1-13.8-5.41A126.3,126.3,0,0,1,661,889.32a228.31,228.31,0,0,1-20.68-19.25c-3.29-3.33-6.41-6.8-9.54-10.27s-6.1-7.07-9-10.73a297,297,0,0,1-30.51-46.68q-6.53-12.3-12.11-25c-1.83-4.25-3.7-8.48-5.36-12.79s-3.37-8.58-5-12.89L561,731.38l11.81,18.2c3.88,6,7.89,11.86,12.13,17.52A124,124,0,0,0,598.86,783a81.18,81.18,0,0,0,8,6.72,61.51,61.51,0,0,0,8.78,5.47,57.76,57.76,0,0,0,19.42,6.1,46.15,46.15,0,0,0,10,.16,42.34,42.34,0,0,0,9.49-2.14l2.23-.91c.74-.29,1.45-.72,2.17-1.07a42.9,42.9,0,0,0,4.23-2.45,92.18,92.18,0,0,0,8.07-6.12c5.32-4.38,10.48-9.43,16.59-14a57.39,57.39,0,0,1,10.1-6.13l1.38-.66c.47-.2,1-.37,1.45-.55,1-.36,2-.73,3-1a38.93,38.93,0,0,1,6.26-1.23,34.55,34.55,0,0,1,12.74.81,45.4,45.4,0,0,1,11.36,4.64c6.91,3.91,12.6,8.74,18.09,13.27s10.74,8.93,16.37,12.1a39,39,0,0,0,8.64,3.71,34,34,0,0,0,9.15,1.2A43.36,43.36,0,0,0,805,796.38a60.26,60.26,0,0,0,16.44-11.52,111.59,111.59,0,0,0,13.48-15.93c2.07-2.86,4.06-5.8,6-8.79l2.93-4.48,1.52-2.34a8.84,8.84,0,0,1,1.15-1.41C846.92,751.49,847.29,751.17,847.58,750.84Z"/><path class="cls-10" d="M663.74,859.7a67.57,67.57,0,0,0,8.6,8.73c15.56,13.2,37.28,19.33,57.16,14.73s37.12-20.42,42-40.23A53.47,53.47,0,0,0,759.6,795.4a55.32,55.32,0,0,0-45.79-17.84c-17.61,1.66-33,11.49-46.66,22-5.67,4.35-12.29,7.13-14.46,14.21-2.59,8.45-2.09,18,.45,26.4A57.42,57.42,0,0,0,663.74,859.7Z"/><path d="M706.79,887.4A72.51,72.51,0,0,1,670.15,871a71.12,71.12,0,0,1-9-9.18h0a60.32,60.32,0,0,1-11.22-20.69c-2.94-9.68-3.1-19.75-.45-28.37,2-6.58,7-9.93,11.76-13.17,1.3-.88,2.64-1.79,3.88-2.74,13.32-10.22,29.49-20.9,48.4-22.69a58.86,58.86,0,0,1,48.64,19,56.64,56.64,0,0,1,12.67,50.6c-5.08,20.56-23,37.72-44.54,42.72A64.85,64.85,0,0,1,706.79,887.4Zm19-106.2a50.18,50.18,0,0,0-11.62-.27c-17.2,1.62-32.36,11.69-44.92,21.32-1.4,1.07-2.82,2-4.2,3-4.17,2.82-7.77,5.25-9.08,9.55-2.22,7.24-2.06,16.14.45,24.42a53.86,53.86,0,0,0,10,18.37h0a63.84,63.84,0,0,0,8.16,8.29c15.18,12.87,36,18.24,54.2,14,19.14-4.44,35-19.6,39.5-37.74a49.8,49.8,0,0,0-11.16-44.47A51.76,51.76,0,0,0,725.75,781.2Z"/><path d="M596.28,571.37c2.38,4.55,7.87,7.06,13,6.49a17.46,17.46,0,0,0,12.44-8.21,11.56,11.56,0,0,0,2-5.66,9.78,9.78,0,0,0-4.52-8.2,16.1,16.1,0,0,0-9.34-2.39C601,553.6,591.1,561.41,596.28,571.37Z"/><path d="M605.82,578.49a13.5,13.5,0,0,1-10.14-6.81h0a11.12,11.12,0,0,1,0-11.3c2.6-4.38,8.41-7.53,14.13-7.66a16.75,16.75,0,0,1,9.73,2.51,10.52,10.52,0,0,1,4.82,8.79,12.17,12.17,0,0,1-2.11,6,18.11,18.11,0,0,1-12.95,8.53A14.7,14.7,0,0,1,605.82,578.49Zm-8.94-7.44c2.18,4.17,7.23,6.7,12.31,6.14a16.73,16.73,0,0,0,11.94-7.91A10.76,10.76,0,0,0,623,564a9.15,9.15,0,0,0-4.23-7.62,15.55,15.55,0,0,0-8.94-2.27c-5.28.11-10.62,3-13,7a9.84,9.84,0,0,0,0,10Z"/><path d="M798.19,563.09a13.13,13.13,0,0,0,7.63,7.42,21,21,0,0,0,10.8,1c3.45-.51,7.23-2,8.42-5.29a9.12,9.12,0,0,0,.18-4.67c-1-5.49-4.47-10.7-9.64-12.78C807.16,545.33,794.68,553.44,798.19,563.09Z"/><path d="M809.77,572.23a17.74,17.74,0,0,1-4.2-1.09,13.86,13.86,0,0,1-8-7.82h0c-1.48-4.09-.37-8.34,3.05-11.65,4.18-4,10.44-5.51,15.23-3.58,5.13,2.06,9,7.16,10.06,13.3a9.54,9.54,0,0,1-.21,5c-1.47,4-6.25,5.32-9,5.73A24.3,24.3,0,0,1,809.77,572.23Zm-10.94-9.37a12.47,12.47,0,0,0,7.24,7,20.18,20.18,0,0,0,10.45.91c2.42-.36,6.65-1.47,7.88-4.85a8.22,8.22,0,0,0,.15-4.32c-1-5.59-4.6-10.41-9.22-12.27-4.25-1.71-10-.32-13.79,3.29-3,2.92-4,6.65-2.71,10.22Z"/><circle class="cls-5" cx="613.44" cy="560.25" r="10.16"/><path d="M612,571a10.84,10.84,0,1,1,12.23-9.25A10.85,10.85,0,0,1,612,571Zm2.79-20.13a9.48,9.48,0,1,0,8.1,10.7A9.5,9.5,0,0,0,614.74,550.85Z"/><circle class="cls-5" cx="806.98" cy="555.6" r="10.16"/><path d="M805.49,566.34a10.84,10.84,0,1,1,12.23-9.25A10.85,10.85,0,0,1,805.49,566.34Zm2.79-20.13a9.48,9.48,0,1,0,8.1,10.7A9.5,9.5,0,0,0,808.28,546.21Z"/><path class="cls-11" d="M716.19,636.84c19.06-.68,38.67,6.92,50.86,21.58S783,694.86,774.66,712c-6.64,13.71-20.18,23.45-35,27.13s-30.62,1.68-44.81-3.87c-15.17-5.92-29.15-16.35-36.39-30.95C639.07,665.17,681.3,638.09,716.19,636.84Z"/><path d="M696.58,675.11c4.08,3.09,6.21,8,6.79,13.24,1.78,16.18-14.85,35.89-25.17,15.61-4.74-9.33-7.1-33.37,9.18-32.13A17,17,0,0,1,696.58,675.11Z"/><path d="M740.18,676.72c3.34-3.56,8.4-5.08,13.28-5.14s9.66,1.19,14.38,2.43c3.49,6.76,4.45,15.09,1.32,22S758.35,708,750.83,706.82C739.7,705.12,732.51,684.9,740.18,676.72Z"/><path d="M721.67,668.61a78.6,78.6,0,0,1,3.52,15.56,121.9,121.9,0,0,1,0,31.55,78.57,78.57,0,0,1-3.58,15.54,124.18,124.18,0,0,1-1.75-15.75c-.29-5.21-.41-10.39-.4-15.57s.15-10.37.46-15.58A126.36,126.36,0,0,1,721.67,668.61Z"/><path d="M714.27,777.34a115,115,0,0,1,3.54,20.18,194.7,194.7,0,0,1,1,20.18,200.21,200.21,0,0,1-1.08,20.16A116.57,116.57,0,0,1,714,858h-.55q-.12-10.08-.12-20.17l0-20.17.15-20.17q0-10.08.24-20.17Z"/><path class="cls-4" d="M630.14,325C678,293.43,744.45,292.69,793,323.21"/><path d="M630.14,325c10.25-10.51,23.3-18.23,37.2-23.52a130.58,130.58,0,0,1,88-1c14,5,27.24,12.41,37.71,22.7a256,256,0,0,0-40.77-11.38,210.25,210.25,0,0,0-81.63.9A255.22,255.22,0,0,0,630.14,325Z"/></g></g></svg>