<?xml version="1.0" encoding="UTF-8"?>
<svg id="Calque_1" data-name="Calque 1" xmlns="http://www.w3.org/2000/svg" xmlns:xlink="http://www.w3.org/1999/xlink" viewBox="0 0 77.22 77.22">
  <defs>
    <style>
      .cls-1 {
        fill: url(#Dégradé_sans_nom_2);
      }

      .cls-2 {
        fill: none;
      }
    </style>
    <linearGradient id="Dégradé_sans_nom_2" data-name="Dégradé sans nom 2" x1=".87" y1="37.61" x2="76.35" y2="37.61" gradientUnits="userSpaceOnUse">
      <stop offset="0" stop-color="#6c9a8e"/>
      <stop offset="1" stop-color="#683972"/>
    </linearGradient>
  </defs>
  <circle class="cls-2" cx="38.61" cy="38.61" r="38.61"/>
  <path class="cls-1" d="M44.69,37.66c10.51,0,15.8,3.5,15.8,10.57v16.72c0,6.69-5.18,10.03-15.53,10.03h-7.39c-1.83,0-2.75-.75-2.75-2.21s.92-2.21,2.75-2.21h7.28c6.52,0,9.81-1.94,9.81-5.72v-16.45c0-4.21-3.34-6.31-10.24-6.31h-11.65c-6.79,0-10.24,2.1-10.24,6.31v10.19c0,1.51-.97,2.26-2.91,2.26s-2.91-.75-2.91-2.26v-10.35c0-7.06,5.34-10.57,15.8-10.57h12.19Zm-1.53,5.1c6.56,8.22,7.11,14.54,1.59,18.94l-13.07,10.42c-5.23,4.17-11.07,2.2-17.52-5.89l-4.61-5.78c-1.14-1.43-1.12-2.62,.01-3.53,1.14-.91,2.3-.66,3.44,.77l4.54,5.69c4.07,5.1,7.64,6.46,10.59,4.11l12.86-10.25c3.29-2.62,2.85-6.55-1.46-11.94l-7.26-9.11c-4.24-5.31-8.03-6.7-11.32-4.08l-7.97,6.35c-1.18,.94-2.38,.65-3.59-.87-1.21-1.52-1.23-2.75-.04-3.69l8.09-6.45c5.52-4.4,11.59-2.42,18.11,5.76l7.6,9.53Zm-4.94,1.98c-2.34,10.25-6.93,14.62-13.82,13.05l-16.3-3.72c-6.52-1.49-8.62-7.28-6.32-17.37l1.64-7.2c.41-1.79,1.35-2.51,2.77-2.19,1.42,.32,1.95,1.39,1.54,3.17l-1.62,7.1c-1.45,6.36-.29,10,3.39,10.84l16.04,3.66c4.1,.94,6.89-1.85,8.43-8.58l2.59-11.36c1.51-6.62,.23-10.45-3.87-11.39l-9.94-2.27c-1.47-.34-1.99-1.45-1.56-3.34,.43-1.89,1.38-2.67,2.86-2.34l10.09,2.3c6.89,1.57,9.12,7.56,6.79,17.75l-2.71,11.88Zm-4.63-2.63c-9.47,4.56-15.75,3.7-18.82-2.67l-7.25-15.06c-2.9-6.02,.31-11.28,9.64-15.77l6.66-3.21c1.65-.8,2.81-.51,3.44,.8s.13,2.39-1.52,3.19l-6.56,3.16c-5.88,2.83-8,6.01-6.36,9.41l7.14,14.82c1.82,3.79,5.75,4.23,11.97,1.24l10.49-5.05c6.12-2.95,8.32-6.34,6.49-10.13l-4.42-9.18c-.66-1.36-.11-2.46,1.64-3.3,1.75-.84,2.95-.58,3.61,.78l4.49,9.33c3.06,6.36-.22,11.84-9.65,16.38l-10.98,5.29Zm-.83-5.26c-9.47-4.56-12.71-10.01-9.65-16.38l7.25-15.06c2.9-6.02,9.02-6.79,18.34-2.3l6.66,3.21c1.65,.8,2.15,1.87,1.52,3.19-.63,1.31-1.78,1.59-3.44,.8l-6.56-3.16c-5.88-2.83-9.68-2.51-11.32,.89l-7.14,14.82c-1.82,3.79,.28,7.13,6.49,10.13l10.49,5.05c6.12,2.95,10.14,2.55,11.97-1.24l4.42-9.18c.66-1.36,1.86-1.62,3.61-.78,1.75,.84,2.3,1.94,1.64,3.3l-4.49,9.33c-3.06,6.36-9.4,7.21-18.82,2.67l-10.98-5.29Zm3.59-3.93c-2.34-10.25-.1-16.18,6.79-17.75l16.3-3.72c6.52-1.49,10.93,2.81,13.23,12.91l1.64,7.2c.41,1.79-.12,2.85-1.54,3.17-1.42,.32-2.36-.4-2.77-2.19l-1.62-7.1c-1.45-6.36-4.08-9.14-7.76-8.3l-16.03,3.66c-4.1,.94-5.41,4.66-3.87,11.39l2.59,11.35c1.51,6.62,4.33,9.52,8.43,8.58l9.94-2.27c1.47-.34,2.42,.44,2.86,2.34,.43,1.89-.09,3.01-1.56,3.34l-10.09,2.3c-6.89,1.57-11.49-2.85-13.82-13.05l-2.71-11.88Zm5.31,.36c6.56-8.22,12.59-10.17,18.11-5.76l13.07,10.42c5.23,4.17,4.61,10.3-1.84,18.39l-4.61,5.78c-1.14,1.43-2.31,1.68-3.44,.77s-1.16-2.1-.01-3.53l4.54-5.69c4.07-5.1,4.6-8.88,1.65-11.24l-12.86-10.25c-3.29-2.62-7.02-1.32-11.32,4.08l-7.26,9.11c-4.24,5.31-4.74,9.32-1.46,11.94l7.97,6.35c1.18,.94,1.16,2.17-.05,3.69-1.21,1.52-2.41,1.81-3.59,.87l-8.09-6.46c-5.52-4.4-4.93-10.76,1.59-18.94l7.6-9.53Z"/>
</svg>