<?xml version="1.0" encoding="UTF-8"?>
<svg id="Calque_1" data-name="Calque 1" xmlns="http://www.w3.org/2000/svg" xmlns:xlink="http://www.w3.org/1999/xlink" viewBox="0 0 396 396">
  <defs>
    <style>
      .cls-1 {
        fill: url(#Dégradé_sans_nom);
      }

      .cls-2 {
        fill: none;
      }
    </style>
    <linearGradient id="Dégradé_sans_nom" data-name="Dégradé sans nom" x1="9.36" y1="650" x2="386.64" y2="650" gradientTransform="translate(0 -452)" gradientUnits="userSpaceOnUse">
      <stop offset="0" stop-color="#6b9a8e"/>
      <stop offset="1" stop-color="#673972"/>
    </linearGradient>
  </defs>
  <path class="cls-1" d="M228.28,200.36c52,0,78.1,17.39,78.1,52.18v82.63c0,33.16-25.55,49.65-76.83,49.65h-36.6c-9.06,0-13.59-3.81-13.59-10.87s4.53-10.87,13.59-10.87h36.06c32.25,0,48.56-9.6,48.56-28.27v-81.36c0-20.84-16.49-31.17-50.74-31.17h-57.62c-33.52,0-50.74,10.33-50.74,31.17v50.37c0,7.43-4.71,11.23-14.31,11.23s-14.31-3.81-14.31-11.23v-51.28c0-34.97,26.45-52.18,78.1-52.18h60.34Zm-9.24,24.46c32.43,40.59,35.15,71.94,7.79,93.68l-64.69,51.46c-25.91,20.66-54.72,10.87-86.61-29.17l-22.83-28.63c-5.62-7.07-5.62-13.05,0-17.39,5.62-4.53,11.42-3.26,17.03,3.81l22.47,28.09c20.11,25.19,37.69,31.89,52.37,20.29l63.6-50.74c16.31-13.05,14.13-32.43-7.25-59.07l-35.88-45.12c-21.02-26.27-39.68-33.16-55.99-20.11l-39.5,31.35c-5.8,4.71-11.78,3.26-17.76-4.35-5.98-7.43-5.98-13.59-.18-18.3l40.04-31.89c27.36-21.74,57.26-11.96,89.51,28.45l37.87,47.65h0Zm-25.01,7.97c-11.6,50.74-34.25,72.3-68.31,64.51l-80.63-18.48c-32.25-7.43-42.58-36.06-31.35-85.89l8.15-35.7c1.99-8.88,6.7-12.5,13.77-10.87,7.07,1.63,9.6,6.89,7.61,15.76l-7.97,35.15c-7.25,31.53-1.45,49.47,16.85,53.63l79.36,18.12c20.29,4.71,34.07-9.24,41.68-42.4l12.86-56.17c7.43-32.8,1.09-51.64-19.21-56.35l-49.1-11.23c-7.25-1.63-9.78-7.25-7.79-16.49,2.17-9.42,6.89-13.23,14.13-11.6l50.01,11.42c34.07,7.79,45.12,37.33,33.52,87.88l-13.59,58.71h0Zm-21.56-14.68c-46.93,22.47-77.91,18.3-93.14-13.23l-35.88-74.47c-14.31-29.72,1.63-55.81,47.65-78.1l32.98-15.76c8.15-3.99,13.95-2.54,17.03,3.99,3.08,6.52,.72,11.78-7.43,15.76l-32.43,15.58c-28.99,13.95-39.5,29.72-31.53,46.57l35.33,73.2c9.06,18.66,28.45,21.02,59.25,6.16l51.82-25.01c30.26-14.5,41.13-31.35,32.07-50.01l-21.92-45.48c-3.26-6.7-.54-12.14,8.15-16.31,8.7-4.17,14.68-2.9,17.76,3.81l22.29,46.21c15.22,31.53-1.09,58.53-47.65,81l-54.36,26.09h0Zm-2.36-25.91c-46.93-22.47-62.88-49.47-47.65-81l35.88-74.47c14.31-29.72,44.57-33.52,90.78-11.42l32.98,15.76c8.15,3.99,10.69,9.24,7.43,15.76-3.08,6.52-8.88,7.79-17.03,3.99l-32.43-15.58c-28.99-13.95-47.84-12.32-55.99,4.35l-35.33,73.2c-9.06,18.66,1.45,35.33,32.07,50.01l51.82,25.01c30.26,14.5,50.19,12.68,59.25-6.16l21.92-45.48c3.26-6.7,9.24-7.97,17.76-3.81,8.7,4.17,11.42,9.6,8.15,16.31l-22.11,46.39c-15.22,31.53-46.39,35.7-93.14,13.23l-54.36-26.09h0Zm19.03-17.94c-11.6-50.74-.54-80.09,33.52-87.88l80.63-18.48c32.25-7.43,54,13.95,65.41,63.78l8.15,35.7c1.99,8.88-.54,14.13-7.61,15.76-7.07,1.63-11.6-1.99-13.77-10.87l-7.97-35.15c-7.25-31.53-20.11-45.12-38.41-40.95l-79.36,18.12c-20.29,4.71-26.82,23.01-19.21,56.35l12.86,56.17c7.43,32.8,21.38,47.11,41.68,42.4l49.1-11.23c7.25-1.63,11.96,2.17,14.13,11.6,2.17,9.42-.36,14.86-7.79,16.49l-50.01,11.42c-34.07,7.79-56.9-14.13-68.31-64.51l-13.05-58.71h0Zm25.91,3.62c32.43-40.59,62.33-50.37,89.51-28.45l64.69,51.46c25.91,20.66,22.83,50.92-9.06,90.96l-22.83,28.63c-5.62,7.07-11.42,8.34-17.03,3.81-5.62-4.53-5.8-10.33,0-17.39l22.47-28.09c20.11-25.19,22.83-43.85,8.15-55.63l-63.6-50.74c-16.31-13.05-34.79-6.52-55.99,20.11l-35.88,45.12c-21.02,26.27-23.37,46.02-7.25,59.07l39.5,31.35c5.8,4.71,5.8,10.69-.18,18.3-5.98,7.43-11.96,8.88-17.76,4.35l-40.04-31.89c-27.36-21.74-24.46-53.27,7.79-93.68l37.51-47.29h0Z"/>
  <circle class="cls-2" cx="198" cy="198" r="198"/>
</svg>