<?xml version="1.0" encoding="UTF-8"?>
<svg id="Calque_1" data-name="Calque 1" xmlns="http://www.w3.org/2000/svg" xmlns:xlink="http://www.w3.org/1999/xlink" viewBox="0 0 390 390">
  <defs>
    <style>
      .cls-1 {
        fill: url(#Dégradé_sans_nom_7);
      }

      .cls-2 {
        fill: none;
      }
    </style>
    <linearGradient id="Dégradé_sans_nom_7" data-name="Dégradé sans nom 7" x1="21.53" y1="195" x2="368.47" y2="195" gradientTransform="matrix(1, 0, 0, 1, 0, 0)" gradientUnits="userSpaceOnUse">
      <stop offset="0" stop-color="#6b9a8e"/>
      <stop offset="1" stop-color="#673972"/>
    </linearGradient>
  </defs>
  <path class="cls-1" d="M222.87,197.18c47.83,0,71.87,15.94,71.87,48.08v76.04c0,30.42-23.55,45.63-70.65,45.63h-33.61c-8.34,0-12.51-3.43-12.51-10.06s4.17-10.06,12.51-10.06h33.12c29.68,0,44.64-8.83,44.64-26v-74.82c0-19.13-15.21-28.7-46.61-28.7h-52.99c-30.91,0-46.61,9.57-46.61,28.7v46.36c0,6.87-4.41,10.3-13.25,10.3s-13.25-3.43-13.25-10.3v-47.1c0-32.13,24.28-48.08,71.87-48.08h55.44Zm-8.57,22.45c29.82,37.4,32.35,66.13,7.22,86.17l-59.45,47.41c-23.78,18.97-50.35,10.03-79.72-26.79l-20.95-26.27c-5.2-6.52-5.12-11.92,.06-16.05,5.18-4.13,10.46-3.01,15.66,3.51l20.65,25.89c18.51,23.21,34.74,29.4,48.16,18.69l58.49-46.65c14.96-11.93,12.96-29.78-6.62-54.33l-33.04-41.43c-19.27-24.16-36.54-30.47-51.5-18.54l-36.25,28.9c-5.37,4.28-10.81,2.97-16.31-3.93s-5.57-12.5-.2-16.78l36.82-29.36c25.12-20.03,52.73-10.99,82.4,26.22l34.57,43.34Zm-22.9,7.3c-10.64,46.63-31.54,66.52-62.87,59.37l-74.14-16.92c-29.65-6.77-39.24-33.11-28.76-79.03l7.48-32.76c1.86-8.13,6.13-11.43,12.59-9.96,6.46,1.47,8.88,6.3,7.02,14.43l-7.37,32.29c-6.6,28.94-1.32,45.49,15.42,49.31l72.94,16.65c18.65,4.26,31.36-8.44,38.35-39.05l11.79-51.66c6.88-30.13,1.04-47.57-17.61-51.82l-45.2-10.32c-6.7-1.53-9.06-6.6-7.1-15.21,1.97-8.61,6.3-12.15,12.99-10.62l45.92,10.48c31.33,7.15,41.47,34.37,30.88,80.77l-12.34,54.05Zm-19.98-13.35c-43.1,20.75-71.67,16.82-85.61-12.13l-32.99-68.51c-13.2-27.4,1.42-51.32,43.85-71.76l30.28-14.58c7.51-3.62,12.76-2.33,15.63,3.63,2.87,5.97,.61,10.87-6.91,14.49l-29.84,14.37c-26.74,12.88-36.39,27.33-28.94,42.8l32.46,67.41c8.3,17.24,26.16,19.26,54.44,5.64l47.74-22.99c27.85-13.41,37.84-28.84,29.54-46.08l-20.12-41.77c-2.98-6.19-.49-11.2,7.46-15.03,7.96-3.83,13.42-2.65,16.4,3.53l20.44,42.43c13.94,28.95-1.02,53.85-43.89,74.5l-49.95,24.05Zm-2.02-23.95c-43.1-20.75-57.84-45.55-43.89-74.5l32.99-68.51c13.2-27.4,41.01-30.89,83.45-10.45l30.28,14.58c7.51,3.62,9.78,8.52,6.91,14.49s-8.12,7.25-15.63,3.63l-29.84-14.37c-26.74-12.88-44.05-11.41-51.5,4.06l-32.46,67.41c-8.3,17.24,1.25,32.46,29.54,46.08l47.74,22.99c27.85,13.41,46.14,11.6,54.44-5.64l20.12-41.77c2.98-6.19,8.45-7.37,16.4-3.54,7.96,3.83,10.44,8.84,7.46,15.03l-20.44,42.43c-13.94,28.95-42.74,32.78-85.61,12.13l-49.95-24.05Zm17.46-16.51c-10.64-46.63-.45-73.62,30.88-80.77l74.14-16.92c29.65-6.77,49.72,12.81,60.2,58.72l7.48,32.76c1.86,8.13-.56,12.96-7.02,14.43-6.46,1.47-10.73-1.83-12.59-9.96l-7.37-32.29c-6.6-28.94-18.54-41.56-35.28-37.74l-72.94,16.65c-18.65,4.26-24.6,21.21-17.61,51.82l11.79,51.66c6.88,30.13,19.7,43.31,38.35,39.05l45.2-10.32c6.7-1.53,11.03,2.01,12.99,10.62,1.96,8.61-.4,13.68-7.1,15.21l-45.92,10.48c-31.33,7.15-52.28-12.98-62.87-59.37l-12.34-54.05Zm23.8,3.36c29.82-37.4,57.28-46.25,82.4-26.21l59.45,47.41c23.78,18.96,20.99,46.86-8.37,83.68l-20.95,26.27c-5.2,6.52-10.48,7.64-15.66,3.51-5.18-4.13-5.26-9.53-.06-16.05l20.65-25.89c18.51-23.21,20.93-40.41,7.51-51.12l-58.49-46.65c-14.96-11.93-31.92-6.01-51.5,18.54l-33.04,41.43c-19.27,24.16-21.58,42.4-6.62,54.33l36.25,28.91c5.37,4.28,5.3,9.88-.2,16.78-5.51,6.9-10.94,8.21-16.31,3.93l-36.82-29.36c-25.12-20.03-22.45-48.96,7.22-86.17l34.57-43.34Z"/>
  <circle class="cls-2" cx="195" cy="195" r="195"/>
</svg>