<svg id="logo" xmlns="http://www.w3.org/2000/svg" viewBox="0 0 363.25 363.25">
  <defs>
    <style>
      .cls-1 {
        fill: #3069b0;
      }
    </style>
  </defs>
  <g>
    <g>
      <path class="cls-1" d="M321.94,453.09c42.12,0,63.28,14,63.28,42.34v67q0,40.18-62.2,40.18h-29.6c-7.34,0-11-3-11-8.86s3.67-8.85,11-8.85h29.16c26.14,0,39.32-7.78,39.32-22.9V496.08c0-16.85-13.4-25.27-41-25.27H274.2c-27.22,0-41,8.42-41,25.27V536.9q0,9.08-11.67,9.08t-11.66-9.08V495.43c0-28.3,21.38-42.34,63.29-42.34Z" transform="translate(-116.01 -239.32)"/>
      <path class="cls-1" d="M292.09,460.86c29.78,29.78,34.82,54.68,14.81,74.69L259.55,582.9q-28.41,28.4-72.4-15.58l-20.92-20.93c-5.19-5.19-5.65-9.93-1.53-14s8.86-3.67,14.05,1.53l20.62,20.62c18.48,18.48,33.3,22.3,44,11.6L290,519.51c11.91-11.91,8.4-27.34-11.15-46.89l-33-33c-19.25-19.25-35-23.07-46.89-11.15l-28.87,28.86q-6.42,6.42-14.67-1.83t-1.83-14.66l29.33-29.33c20-20,45.06-14.81,74.69,14.82Z" transform="translate(-116.01 -239.32)"/>
      <path class="cls-1" d="M265.49,445.24c0,42.12-14,63.29-42.34,63.29h-67q-40.17,0-40.18-62.21V416.73c0-7.35,3-11,8.86-11s8.86,3.67,8.86,11v29.16c0,26.14,7.77,39.31,22.89,39.31H222.5c16.85,0,25.28-13.39,25.28-41V397.5c0-27.21-8.43-41-25.28-41H181.68q-9.08,0-9.07-11.66t9.07-11.66h41.47c28.3,0,42.34,21.38,42.34,63.28Z" transform="translate(-116.01 -239.32)"/>
      <path class="cls-1" d="M257.72,415.39C227.94,445.18,203,450.22,183,430.21l-47.35-47.35q-28.41-28.41,15.58-72.4l20.92-20.92c5.19-5.2,9.93-5.65,14.05-1.53s3.67,8.86-1.53,14.05L164.1,322.68c-18.48,18.48-22.3,33.3-11.61,44l46.58,46.58c11.92,11.92,27.34,8.4,46.89-11.15l33-33c19.24-19.24,23.06-35,11.14-46.89l-28.86-28.87q-6.42-6.41,1.83-14.66t14.66-1.83l29.33,29.33c20,20,14.81,45.05-14.82,74.68Z" transform="translate(-116.01 -239.32)"/>
      <path class="cls-1" d="M273.34,388.8c-42.12,0-63.29-14-63.29-42.34v-67q0-40.18,62.21-40.18h29.59c7.35,0,11,3,11,8.86s-3.67,8.85-11,8.85H272.69c-26.13,0-39.31,7.78-39.31,22.9v65.88c0,16.85,13.39,25.27,41,25.27h46.66c27.21,0,41-8.42,41-25.27V305q0-9.08,11.66-9.08T385.45,305v41.47c0,28.3-21.39,42.34-63.29,42.34Z" transform="translate(-116.01 -239.32)"/>
      <path class="cls-1" d="M303.19,381c-29.78-29.78-34.82-54.68-14.81-74.69L335.72,259q28.41-28.4,72.4,15.58l20.93,20.93c5.19,5.19,5.65,9.93,1.52,14.05s-8.86,3.67-14.05-1.53L395.9,287.4c-18.48-18.48-33.29-22.3-44-11.6l-46.58,46.58c-11.91,11.91-8.4,27.34,11.15,46.89l33,33c19.25,19.25,35,23.06,46.89,11.15l28.87-28.87q6.4-6.41,14.66,1.84T441.72,401L412.4,430.37c-20,20-45.06,14.81-74.69-14.82Z" transform="translate(-116.01 -239.32)"/>
      <path class="cls-1" d="M329.79,396.65c0-42.12,14-63.29,42.33-63.29h67q40.17,0,40.17,62.21v29.59c0,7.34-3,11-8.85,11s-8.86-3.68-8.86-11V396c0-26.14-7.78-39.31-22.9-39.31H372.77c-16.85,0-25.27,13.39-25.27,41v46.65c0,27.22,8.42,41.05,25.27,41.05H413.6q9.06,0,9.07,11.66t-9.07,11.66H372.12c-28.29,0-42.33-21.38-42.33-63.29Z" transform="translate(-116.01 -239.32)"/>
      <path class="cls-1" d="M337.55,426.5c29.78-29.79,54.68-34.83,74.69-14.82L459.59,459Q488,487.44,444,531.43l-20.93,20.92c-5.19,5.2-9.92,5.65-14.05,1.53s-3.66-8.86,1.53-14l20.62-20.62c18.48-18.48,22.3-33.3,11.61-44L396.2,428.64c-11.91-11.92-27.34-8.4-46.89,11.15l-33,33c-19.24,19.24-23.06,35-11.15,46.89L334,548.54q6.4,6.4-1.83,14.66T317.54,565l-29.32-29.32c-20-20-14.82-45.06,14.81-74.69Z" transform="translate(-116.01 -239.32)"/>
    </g>
    <path class="cls-1" d="M297.64,456a35,35,0,1,1,35-35.05A35.08,35.08,0,0,1,297.64,456Zm0-61.08a26,26,0,1,0,26,26A26.07,26.07,0,0,0,297.64,394.91Z" transform="translate(-116.01 -239.32)"/>
    <path class="cls-1" d="M297.64,553.67c-73.19,0-132.73-59.54-132.73-132.73s59.54-132.72,132.73-132.72,132.72,59.54,132.72,132.72S370.82,553.67,297.64,553.67Zm0-256.45A123.73,123.73,0,1,0,421.36,420.94,123.87,123.87,0,0,0,297.64,297.22Z" transform="translate(-116.01 -239.32)"/>
  </g>
</svg>
