<svg id="logo" xmlns="http://www.w3.org/2000/svg" viewBox="0 0 457.08 457.08"><defs><style>.cls-1{font-size:216px;font-family:NeuropolXRg-Regular, Neuropol X;}.cls-1,.cls-2{fill:#3069b0;}</style></defs><text class="cls-1" transform="translate(336.86 260.69) rotate(180)">G</text><text class="cls-1" transform="translate(282.4 327.87) rotate(-135)">G</text><text class="cls-1" transform="translate(196.39 336.86) rotate(-90)">G</text><text class="cls-1" transform="translate(129.21 282.4) rotate(-45)">G</text><text class="cls-1" transform="translate(120.22 196.39)">G</text><text class="cls-1" transform="translate(174.68 129.21) rotate(45)">G</text><text class="cls-1" transform="translate(260.69 120.22) rotate(90)">G</text><text class="cls-1" transform="translate(327.87 174.68) rotate(135)">G</text><path class="cls-2" d="M297.64,456a35,35,0,1,1,35-35.05A35.08,35.08,0,0,1,297.64,456Zm0-61.08a26,26,0,1,0,26,26A26.07,26.07,0,0,0,297.64,394.91Z" transform="translate(-69.1 -192.4)"/><path class="cls-2" d="M297.64,553.67c-73.19,0-132.73-59.54-132.73-132.73s59.54-132.72,132.73-132.72,132.72,59.54,132.72,132.72S370.82,553.67,297.64,553.67Zm0-256.45A123.73,123.73,0,1,0,421.36,420.94,123.87,123.87,0,0,0,297.64,297.22Z" transform="translate(-69.1 -192.4)"/></svg>