<?xml version="1.0" encoding="UTF-8"?>
<svg id="Calque_1" data-name="Calque 1" xmlns="http://www.w3.org/2000/svg" xmlns:xlink="http://www.w3.org/1999/xlink" viewBox="0 0 112 112">
  <defs>
    <style>
      .cls-1 {
        fill: #303032;
        stroke: url(#Dégradé_sans_nom_7);
        stroke-miterlimit: 10;
        stroke-width: 3px;
      }

      .cls-2 {
        fill: url(#Dégradé_sans_nom_7-2);
      }

      .cls-3 {
        fill: none;
      }
    </style>
    <linearGradient id="Dégradé_sans_nom_7" data-name="Dégradé sans nom 7" x1=".5" y1="56" x2="111.5" y2="56" gradientTransform="matrix(1, 0, 0, 1, 0, 0)" gradientUnits="userSpaceOnUse">
      <stop offset="0" stop-color="#6b9a8e"/>
      <stop offset="1" stop-color="#673972"/>
    </linearGradient>
    <linearGradient id="Dégradé_sans_nom_7-2" data-name="Dégradé sans nom 7" x1="13.24" y1="54.92" x2="98.76" y2="54.92" xlink:href="#Dégradé_sans_nom_7"/>
  </defs>
  <circle class="cls-1" cx="56" cy="56" r="54"/>
  <path class="cls-2" d="M62.87,55.46c11.79,0,17.72,3.93,17.72,11.85v18.74c0,7.5-5.8,11.25-17.41,11.25h-8.28c-2.06,0-3.08-.85-3.08-2.48s1.03-2.48,3.08-2.48h8.16c7.32,0,11-2.18,11-6.41v-18.44c0-4.72-3.75-7.07-11.49-7.07h-13.06c-7.62,0-11.49,2.36-11.49,7.07v11.43c0,1.69-1.09,2.54-3.26,2.54s-3.26-.85-3.26-2.54v-11.61c0-7.92,5.99-11.85,17.72-11.85h13.66Zm-2.11,5.53c7.35,9.22,7.97,16.3,1.78,21.24l-14.65,11.69c-5.86,4.67-12.41,2.47-19.65-6.6l-5.16-6.48c-1.28-1.61-1.26-2.94,.02-3.96,1.28-1.02,2.58-.74,3.86,.87l5.09,6.38c4.56,5.72,8.56,7.25,11.87,4.61l14.42-11.5c3.69-2.94,3.19-7.34-1.63-13.39l-8.14-10.21c-4.75-5.96-9.01-7.51-12.69-4.57l-8.93,7.12c-1.32,1.06-2.66,.73-4.02-.97s-1.37-3.08-.05-4.14l9.08-7.24c6.19-4.94,13-2.71,20.31,6.46l8.52,10.68Zm-5.64,1.8c-2.62,11.49-7.77,16.4-15.5,14.63l-18.27-4.17c-7.31-1.67-9.67-8.16-7.09-19.48l1.84-8.08c.46-2,1.51-2.82,3.1-2.45,1.59,.36,2.19,1.55,1.73,3.56l-1.82,7.96c-1.63,7.13-.33,11.21,3.8,12.15l17.98,4.1c4.6,1.05,7.73-2.08,9.45-9.63l2.91-12.73c1.7-7.43,.26-11.72-4.34-12.77l-11.14-2.54c-1.65-.38-2.23-1.63-1.75-3.75,.48-2.12,1.55-2.99,3.2-2.62l11.32,2.58c7.72,1.76,10.22,8.47,7.61,19.91l-3.04,13.32Zm-4.93-3.29c-10.62,5.12-17.67,4.15-21.1-2.99l-8.13-16.89c-3.25-6.75,.35-12.65,10.81-17.69l7.46-3.59c1.85-.89,3.15-.58,3.85,.9s.15,2.68-1.7,3.57l-7.35,3.54c-6.59,3.17-8.97,6.74-7.13,10.55l8,16.62c2.05,4.25,6.45,4.75,13.42,1.39l11.77-5.67c6.86-3.31,9.33-7.11,7.28-11.36l-4.96-10.3c-.73-1.53-.12-2.76,1.84-3.7,1.96-.94,3.31-.65,4.04,.87l5.04,10.46c3.44,7.14-.25,13.27-10.82,18.36l-12.31,5.93Zm-.5-5.9c-10.62-5.12-14.26-11.23-10.82-18.36l8.13-16.89c3.25-6.75,10.11-7.61,20.57-2.58l7.46,3.59c1.85,.89,2.41,2.1,1.7,3.57s-2,1.79-3.85,.9l-7.35-3.54c-6.59-3.17-10.86-2.81-12.7,1l-8,16.61c-2.05,4.25,.31,8,7.28,11.36l11.77,5.67c6.86,3.31,11.37,2.86,13.42-1.39l4.96-10.3c.73-1.53,2.08-1.82,4.04-.87,1.96,.94,2.57,2.18,1.84,3.7l-5.04,10.46c-3.44,7.14-10.53,8.08-21.1,2.99l-12.31-5.93Zm4.3-4.07c-2.62-11.49-.11-18.15,7.61-19.91l18.27-4.17c7.31-1.67,12.26,3.16,14.84,14.47l1.84,8.08c.46,2-.14,3.19-1.73,3.56-1.59,.36-2.65-.45-3.1-2.45l-1.82-7.96c-1.63-7.13-4.57-10.24-8.7-9.3l-17.98,4.1c-4.6,1.05-6.06,5.23-4.34,12.77l2.91,12.73c1.7,7.43,4.86,10.67,9.45,9.63l11.14-2.54c1.65-.38,2.72,.5,3.2,2.62,.48,2.12-.1,3.37-1.75,3.75l-11.32,2.58c-7.72,1.76-12.89-3.2-15.5-14.63l-3.04-13.32Zm5.87,.83c7.35-9.22,14.12-11.4,20.31-6.46l14.65,11.69c5.86,4.67,5.17,11.55-2.06,20.63l-5.16,6.48c-1.28,1.61-2.58,1.88-3.86,.87-1.28-1.02-1.3-2.35-.02-3.96l5.09-6.38c4.56-5.72,5.16-9.96,1.85-12.6l-14.42-11.5c-3.69-2.94-7.87-1.48-12.69,4.57l-8.14,10.21c-4.75,5.96-5.32,10.45-1.63,13.39l8.93,7.12c1.32,1.06,1.31,2.43-.05,4.14-1.36,1.7-2.7,2.02-4.02,.97l-9.08-7.24c-6.19-4.94-5.53-12.07,1.78-21.24l8.52-10.68Z"/>
  <circle class="cls-3" cx="56" cy="56" r="56"/>
</svg>