<?xml version="1.0" encoding="utf-8"?>
<!-- Generator: Adobe Illustrator 26.3.1, SVG Export Plug-In . SVG Version: 6.00 Build 0)  -->
<svg version="1.1" id="Calque_1" xmlns="http://www.w3.org/2000/svg" xmlns:xlink="http://www.w3.org/1999/xlink" x="0px" y="0px"
	 viewBox="0 0 390 390" style="enable-background:new 0 0 390 390;" xml:space="preserve">
<style type="text/css">
	.st0{fill:url(#SVGID_1_);}
	.st1{fill:none;}
</style>
<linearGradient id="SVGID_1_" gradientUnits="userSpaceOnUse" x1="90.916" y1="197.89" x2="299.084" y2="197.89" gradientTransform="matrix(1 0 0 -1 0 389.89)">
	<stop  offset="0" style="stop-color:#6B9A8E"/>
	<stop  offset="1" style="stop-color:#673972"/>
</linearGradient>
<path class="st0" d="M211.7,193.3c28.7,0,43.1,9.6,43.1,28.8v45.6c0,18.3-14.1,27.4-42.4,27.4h-20.2c-5,0-7.5-2.1-7.5-6
	c0-4,2.5-6,7.5-6h19.9c17.8,0,26.8-5.3,26.8-15.6v-44.9c0-11.5-9.1-17.2-28-17.2h-31.8c-18.5,0-28,5.7-28,17.2v27.8
	c0,4.1-2.6,6.2-7.9,6.2s-7.9-2.1-7.9-6.2v-28.3c0-19.3,14.6-28.8,43.1-28.8L211.7,193.3L211.7,193.3z M206.6,206.8
	c17.9,22.4,19.4,39.7,4.3,51.7l-35.7,28.4c-14.3,11.4-30.2,6-47.8-16.1l-12.6-15.8c-3.1-3.9-3.1-7.2,0-9.6c3.1-2.5,6.3-1.8,9.4,2.1
	l12.4,15.5c11.1,13.9,20.8,17.6,28.9,11.2l35.1-28c9-7.2,7.8-17.9-4-32.6l-19.8-24.9c-11.6-14.5-21.9-18.3-30.9-11.1l-21.8,17.3
	c-3.2,2.6-6.5,1.8-9.8-2.4c-3.3-4.1-3.3-7.5-0.1-10.1l22.1-17.6c15.1-12,31.6-6.6,49.4,15.7L206.6,206.8L206.6,206.8z M192.8,211.2
	c-6.4,28-18.9,39.9-37.7,35.6l-44.5-10.2c-17.8-4.1-23.5-19.9-17.3-47.4l4.5-19.7c1.1-4.9,3.7-6.9,7.6-6s5.3,3.8,4.2,8.7l-4.4,19.4
	c-4,17.4-0.8,27.3,9.3,29.6l43.8,10c11.2,2.6,18.8-5.1,23-23.4l7.1-31c4.1-18.1,0.6-28.5-10.6-31.1l-27.1-6.2c-4-0.9-5.4-4-4.3-9.1
	c1.2-5.2,3.8-7.3,7.8-6.4l27.6,6.3c18.8,4.3,24.9,20.6,18.5,48.5L192.8,211.2L192.8,211.2z M180.9,203.1
	c-25.9,12.4-43,10.1-51.4-7.3l-19.8-41.1c-7.9-16.4,0.9-30.8,26.3-43.1l18.2-8.7c4.5-2.2,7.7-1.4,9.4,2.2c1.7,3.6,0.4,6.5-4.1,8.7
	l-17.9,8.6c-16,7.7-21.8,16.4-17.4,25.7l19.5,40.4c5,10.3,15.7,11.6,32.7,3.4l28.6-13.8c16.7-8,22.7-17.3,17.7-27.6l-12.1-25.1
	c-1.8-3.7-0.3-6.7,4.5-9c4.8-2.3,8.1-1.6,9.8,2.1l12.3,25.5c8.4,17.4-0.6,32.3-26.3,44.7L180.9,203.1L180.9,203.1z M179.6,188.8
	c-25.9-12.4-34.7-27.3-26.3-44.7l19.8-41.1c7.9-16.4,24.6-18.5,50.1-6.3l18.2,8.7c4.5,2.2,5.9,5.1,4.1,8.7c-1.7,3.6-4.9,4.3-9.4,2.2
	l-17.9-8.6c-16-7.7-26.4-6.8-30.9,2.4l-19.5,40.4c-5,10.3,0.8,19.5,17.7,27.6l28.6,13.8c16.7,8,27.7,7,32.7-3.4l12.1-25.1
	c1.8-3.7,5.1-4.4,9.8-2.1c4.8,2.3,6.3,5.3,4.5,9L261,195.9c-8.4,17.4-25.6,19.7-51.4,7.3L179.6,188.8L179.6,188.8z M190.1,178.9
	c-6.4-28-0.3-44.2,18.5-48.5l44.5-10.2c17.8-4.1,29.8,7.7,36.1,35.2l4.5,19.7c1.1,4.9-0.3,7.8-4.2,8.7s-6.4-1.1-7.6-6l-4.4-19.4
	c-4-17.4-11.1-24.9-21.2-22.6l-43.8,10c-11.2,2.6-14.8,12.7-10.6,31.1l7.1,31c4.1,18.1,11.8,26,23,23.4l27.1-6.2
	c4-0.9,6.6,1.2,7.8,6.4c1.2,5.2-0.2,8.2-4.3,9.1l-27.6,6.3c-18.8,4.3-31.4-7.8-37.7-35.6L190.1,178.9L190.1,178.9z M204.4,180.9
	c17.9-22.4,34.4-27.8,49.4-15.7l35.7,28.4c14.3,11.4,12.6,28.1-5,50.2l-12.6,15.8c-3.1,3.9-6.3,4.6-9.4,2.1c-3.1-2.5-3.2-5.7,0-9.6
	l12.4-15.5c11.1-13.9,12.6-24.2,4.5-30.7l-35.1-28c-9-7.2-19.2-3.6-30.9,11.1l-19.8,24.9c-11.6,14.5-12.9,25.4-4,32.6l21.8,17.3
	c3.2,2.6,3.2,5.9-0.1,10.1c-3.3,4.1-6.6,4.9-9.8,2.4l-22.1-17.6c-15.1-12-13.5-29.4,4.3-51.7L204.4,180.9L204.4,180.9z"/>
<circle class="st1" cx="195" cy="195" r="108.8"/>
</svg>
