<?xml version="1.0" encoding="utf-8"?>
<!-- Generator: Adobe Illustrator 23.0.1, SVG Export Plug-In . SVG Version: 6.00 Build 0)  -->
<svg version="1.1" id="圖層_1" xmlns="http://www.w3.org/2000/svg" xmlns:xlink="http://www.w3.org/1999/xlink" x="0px" y="0px"
	 viewBox="0 0 200 200" style="enable-background:new 0 0 200 200;" xml:space="preserve">
<style type="text/css">
	.st0{fill:#9BCBD7;}
	.st1{opacity:0.3;}
	.st2{fill:#FFFFFF;}
	.st3{fill:#B1AB97;}
	.st4{fill:#CEC4B1;}
	.st5{fill:#838996;}
	.st6{fill:#A0A7B6;}
	.st7{fill:none;}
	.st8{fill:#51545D;}
	.st9{fill:#9298A7;}
	.st10{fill:#8C919E;}
	.st11{fill:#747983;}
	.st12{fill:#BBC1D2;}
	.st13{fill:#7D818C;}
	.st14{fill:#6C717C;}
	.st15{fill:#636772;}
	.st16{fill:#EFE3CC;}
</style>
<path class="st0" d="M100,0L100,0c55.2,0,100,44.8,100,100l0,0c0,55.2-44.8,100-100,100l0,0C44.8,200,0,155.2,0,100l0,0
	C0,44.8,44.8,0,100,0z"/>
<g class="st1">
	<circle class="st2" cx="100" cy="100" r="100"/>
</g>
<path class="st3" d="M151.3,146.1c0,0,7.9,18.9,20.9,23.1c4.4-4.6,8.3-9.5,11.7-14.8c2.8-4.3,5.3-8.9,7.4-13.6
	C177.4,144.5,157.4,146.1,151.3,146.1z"/>
<path class="st4" d="M88.8,144.2l-63.7,22.1c0,0-7.9-9-13.9-20.1C26.6,147.8,60,139.2,88.8,144.2z"/>
<g>
	<g>
		<path class="st5" d="M134.3,141.9c1.4-1.1,2-2.4,2.1-2.6c0.5-1.6,5.9-11.8,9.2-18.5L135,124c0,0,0,0,0,0c-0.3,1-0.7,1.9-1.1,2.4
			c-1,1.3-5.8,7.7-6.8,10.4c-0.2,0.7-2.1,3.6-3.8,6.3c1.7,0.2,3.9,0.7,6.4,1.4C131.5,143.6,133.2,142.8,134.3,141.9z"/>
	</g>
	<g>
		<path class="st6" d="M123.6,140.4c0.8-3.5,9.8-15.7,10.9-18.9c0-0.2,0.1-0.4,0.1-0.7c-0.1-2.2,2-14.7,1.8-17.1
			c-0.2-2.5,1.7-12.7,1.9-13.7s0.3-5,0.4-6.3c0,0,0.2,0.2,0.4,0.4c0.3-3.2,0.6-6.2,0.8-8.7c-0.3,0.2-0.5,0.4-0.5,0.4
			c0.1-1,0.4-8.5,0-9.7c-0.4-1.1-2-9.7-5.6-12.7c-7.3-6-13.5-9.7-16.2-11c-2.7-1.2-18.4,4.3-21.8,4.4c-2.3,0-8.7,2.9-13.3,4.5
			c-0.6,0.2-1,0.7-1.2,1.3c-0.9,3.2-2.1,6-3.7,6.6c-3.8,1.5-8.3,8.6-10.1,9.1c-0.5,0.1-2.7-0.1-5.1-0.4c-0.7-0.1-1.4,0.3-1.6,1
			c-1.1,2.8-2.3,6.1-4,8.9c-3.2,5.3-5.8,20.1-5.9,20.6c0,0,0,0,0,0c-0.1,0.4-2.5,11.2-1.3,13.2c1.3,2.4,3,11,5.4,13.7
			c1.3,1.4,1.1,4.5,1.8,6.7c0.3,0.7-3,3.6-2.9,5.5c0.1,1.2,2.4,6,3.1,8c2.4,2,4.5,0.9,5.1,0.9c3,0.3,5.1,1.9,7.1,2
			c0.4,0,6.3-0.1,7.2-0.2c2.1-0.3,13.9,0.9,15.5,0.6c1.4-0.2,4.3-0.2,7.1-0.2c8.5-2.8,16-5.5,22.8-5.6
			C122.8,141.8,123.5,140.8,123.6,140.4z"/>
		<path class="st7" d="M134.6,120.9c0,0,0-0.1,0-0.1c0,0.2-0.1,0.5-0.1,0.7C134.6,121.3,134.6,121.1,134.6,120.9z"/>
		<path class="st8" d="M138.6,83.7c-0.1,1.3-0.2,5.2-0.4,6.3s-2.1,11.2-1.9,13.7c0.2,2.4-1.9,14.9-1.8,17.1
			c1.3-8.1,3.2-24.3,4.4-36.7C138.8,83.9,138.6,83.7,138.6,83.7z"/>
	</g>
	<path class="st5" d="M136.4,139.3c0.5-1.6,5.9-11.8,9.2-18.5L135,124c0,0,0,0,0,0c-0.3,1-0.7,1.9-1.1,2.4c-1,1.3-5.8,7.7-6.8,10.4
		c-0.2,0.5-1,1.8-2,3.5c4.1,0.2,7.7,0.4,10.5,0.4C136.1,140,136.4,139.5,136.4,139.3z"/>
	<path class="st7" d="M134.6,120.9c0,0,0-0.1,0-0.1c0,0.2-0.1,0.5-0.1,0.7C134.6,121.3,134.6,121.1,134.6,120.9z"/>
	<path class="st8" d="M138.6,83.7c-0.1,1.3-0.2,5.2-0.4,6.3s-2.1,11.2-1.9,13.7c0.2,2.4-1.9,14.9-1.8,17.1
		c1.3-8.1,3.2-24.3,4.4-36.7C138.8,83.9,138.6,83.7,138.6,83.7z"/>
	<g>
		<path class="st7" d="M149.3,71.1c-0.1-0.3-0.2-0.8-0.4-1.4c0.2,0.6,0.3,1.1,0.5,1.7C149.3,71.3,149.3,71.2,149.3,71.1z"/>
		<path class="st9" d="M150.1,90.7c1.2-3.1-0.3-15.8-0.8-19.3c-0.1-0.6-0.3-1.1-0.5-1.7c-1.8-4.7-8.6-16.8-11.5-19.4
			c-1.9-1.8-9.1-5.6-10.9-6.1c-0.3-0.1-0.8-0.3-1.3-0.5c5.1,3.1,10.6,7.5,12,10.9c2,4.8,4.4,9.3,3.7,19c-0.1,1.5-1.5,2.3-1.5,2.3
			c0-0.1,0-0.2,0-0.4c-1.1,1.5-3.2,2.6-3.4,4.5c-0.1,0.8,2.9,3.2,3,4.2c0.2,0.3,0.5,0.7,0.6,1.1c0.2,0.9-0.3,3.4-0.3,5.3
			c0,1.9-1.5,4.2-1.1,6.6c0.4,2.5-1,7.8-0.7,9.8c0.3,2-1.4,6.6-1.3,8.6c0.1,1.5-0.3,5.5-1.2,8.4l10.6-3.2c1.2-2.4,2.1-4.3,2.5-5.2
			C149.5,112.1,148.9,93.9,150.1,90.7z"/>
	</g>
	<g>
		<path class="st10" d="M64,135.8c3.1,1.6,4.7,1.2,6.2,2.6c1.4,1.4,4.1,1.1,5.8,1.8c-1.2-1.5-5.7-4-5.7-4l-0.6-0.5l-1.5,0.2
			C68.2,135.9,67.3,136.4,64,135.8z"/>
		<path class="st8" d="M63.4,135.5c2.5,1.3,4.7,1.1,6.3,0.8c1.4,1,2.3,1.6,3.5,2.1s2.7,1.8,3.5,2.4c-0.8-1.3-2.2-2.9-4.1-3.7
			c-1.7-0.7-1.8-1.2-2.4-1.4c-0.6-0.3-0.8-0.3-1.8,0C67.4,135.8,65.8,136.1,63.4,135.5z"/>
	</g>
	<path class="st8" d="M139.2,78.1c0,0.8-0.1,1.7-0.1,1.7c0.3,0,0.7,0,0.8-0.2c0.1-0.2,0.5-0.8,0.3-1.5
		C140.1,77.4,139.2,78.1,139.2,78.1z"/>
	<g>
		<path class="st11" d="M117.9,71.2c0.5-0.4,0.6-0.6,0.9-0.6c0.2-0.1,0.3,0.3,0.5,0.2c0.3-0.1,0.2-0.3,0.7-0.7
			c-0.7,0.4-0.7,0.5-1,0.3c-0.2-0.2-0.8-0.3-1.2,0.4C117.9,70.9,117.9,71.2,117.9,71.2z"/>
		<g>
			<path class="st7" d="M129.2,111.8C129.2,111.9,129.2,111.9,129.2,111.8C129.2,111.9,129.2,111.9,129.2,111.8z"/>
			<path class="st7" d="M125.2,82.4C125.1,82.4,125.1,82.4,125.2,82.4C125.1,82.4,125.1,82.4,125.2,82.4z"/>
			<path class="st7" d="M59,104C59,104,59,104,59,104C59,104,59,104,59,104z"/>
			<path class="st7" d="M129.5,110.6c0,0.1,0,0.1,0,0.2C129.4,110.8,129.4,110.7,129.5,110.6z"/>
			<path class="st7" d="M59,105.1C59,105.1,59,105.1,59,105.1C59,105.1,59,105.1,59,105.1z"/>
			<path class="st7" d="M118.5,74C118.5,74,118.5,74,118.5,74C118.5,74,118.5,74,118.5,74z"/>
			<path class="st7" d="M128.9,112.9c0,0.1,0,0.1-0.1,0.2C128.8,113.1,128.9,113,128.9,112.9z"/>
			<path class="st7" d="M128.4,114.1C128.4,114.1,128.4,114.1,128.4,114.1C128.4,114.1,128.4,114.1,128.4,114.1z"/>
			<path class="st7" d="M129.5,106.7c0,0.1,0,0.2,0,0.3C129.5,106.9,129.5,106.8,129.5,106.7z"/>
			<path class="st7" d="M129.6,109.3c0,0.1,0,0.1,0,0.2C129.6,109.5,129.6,109.4,129.6,109.3z"/>
			<path class="st7" d="M59.1,101.9c0,0,0-0.1,0-0.1C59.1,101.8,59.1,101.9,59.1,101.9z"/>
			<path class="st7" d="M122.1,73.9C122.1,73.9,122.1,73.9,122.1,73.9C122.1,73.9,122.1,73.9,122.1,73.9z"/>
			<path class="st7" d="M119.6,73.9c0.1,0,0.1,0,0.2,0C119.7,73.9,119.6,73.9,119.6,73.9z"/>
			<path class="st7" d="M129.6,108.1c0,0.1,0,0.1,0,0.2C129.6,108.2,129.6,108.2,129.6,108.1z"/>
			<path class="st7" d="M59,102.9c0,0,0-0.1,0-0.1C59,102.9,59,102.9,59,102.9z"/>
			<path class="st7" d="M59.2,100.9c0,0,0-0.1,0-0.1C59.3,100.8,59.3,100.9,59.2,100.9z"/>
			<path class="st7" d="M60,98.4c0-0.1,0.1-0.1,0.1-0.2C60.1,98.3,60,98.3,60,98.4z"/>
			<path class="st7" d="M124.1,119.2C124.1,119.2,124.1,119.2,124.1,119.2C124.1,119.2,124.1,119.2,124.1,119.2z"/>
			<path class="st7" d="M60.7,111.8C60.7,111.8,60.6,111.8,60.7,111.8C60.6,111.8,60.7,111.8,60.7,111.8z"/>
			<path class="st7" d="M125.8,117.7C125.8,117.8,125.8,117.8,125.8,117.7C125.8,117.8,125.8,117.8,125.8,117.7z"/>
			<path class="st7" d="M59.2,107.4C59.2,107.4,59.2,107.3,59.2,107.4C59.2,107.3,59.2,107.4,59.2,107.4z"/>
			<path class="st7" d="M59.7,99.1C59.7,99.1,59.7,99,59.7,99.1C59.7,99,59.7,99.1,59.7,99.1z"/>
			<path class="st7" d="M127.3,116C127.2,116.1,127.2,116.1,127.3,116C127.2,116.1,127.2,116.1,127.3,116z"/>
			<path class="st7" d="M117.3,74.1c0.1,0,0.1,0,0.2,0C117.4,74.1,117.4,74.1,117.3,74.1z"/>
			<path class="st7" d="M127.9,115c0,0-0.1,0.1-0.1,0.1C127.8,115.1,127.9,115.1,127.9,115z"/>
			<path class="st7" d="M126.6,116.9C126.5,116.9,126.5,116.9,126.6,116.9C126.5,116.9,126.5,116.9,126.6,116.9z"/>
			<path class="st7" d="M59.4,100c0-0.1,0-0.1,0-0.2C59.5,99.9,59.5,100,59.4,100z"/>
			<path class="st7" d="M59.8,109.6C59.8,109.6,59.8,109.6,59.8,109.6C59.8,109.6,59.8,109.6,59.8,109.6z"/>
			<path class="st9" d="M126.8,87.4c-1.7-2.5-1.3-3.5-0.5-4.7c0.4-0.5,0.8-1.2,1.1-2c0,0,0,0,0,0c2.4-5.5,0.1-6.3-2.1-7.2l0,0
				c-1.9-0.8-4.6-1-6.3-0.7c-2.6,0.5-3.4,0.4-5.2-1.5c-1.8-2-9.9-4.1-12.8-3.1s-3.1-0.2-4.5-1.3c-1.3-1.1-3.6-2.3-6.1-2.6
				c-2.5-0.4-3.8,2.6-4.6,6.2c-0.8,3.5-1.4,3.8-3.7,4.9c0,0-2.5,1.3-12,5c-9.5,3.7-11.6,11-11.4,13.6c0.2,2.7-0.6,3.9-1.6,6.4
				c-1,2.5,0.2,8.4,4.7,13.6l0,0l0,0c-0.5-0.6-0.9-1.3-1.2-2c0,0,0,0,0,0c-0.3-0.7-0.6-1.4-0.9-2.2c0,0,0,0,0,0
				c-0.2-0.7-0.4-1.5-0.5-2.2c0,0,0,0,0-0.1c-0.1-0.7-0.2-1.5-0.2-2.2c0,0,0-0.1,0-0.1c0-0.3,0-0.7,0-1c0,0,0,0,0,0c0-0.3,0-0.7,0-1
				c0,0,0-0.1,0-0.1c0-0.3,0.1-0.6,0.1-0.9c0,0,0-0.1,0-0.1c0-0.3,0.1-0.6,0.1-0.9c0,0,0-0.1,0-0.1c0.1-0.3,0.1-0.5,0.2-0.7
				c0-0.1,0-0.1,0-0.2c0.1-0.3,0.2-0.5,0.2-0.8c0,0,0-0.1,0-0.1c0.1-0.2,0.2-0.4,0.2-0.6c0-0.1,0.1-0.1,0.1-0.2
				c0.1-0.2,0.2-0.4,0.3-0.6c0.4-0.7,0.5-1.5,0.4-2.3c-0.9-5.4,2.8-9.4,6.4-11.5c2-1.2,9.6-5.6,17.7-8.4c1-0.3,1.7-1.1,1.9-2.1
				c0.5-2.2,1.6-6.1,3.8-7.1c1.3-0.7,4.7,1.3,6.9,3.2c0.7,0.6,1.6,0.8,2.5,0.6c7.8-1.8,11.4,0.9,14.6,3.7c0.5,0.4,1.1,0.6,1.8,0.5
				c0.3,0,0.6-0.1,0.9-0.1c0.1,0,0.1,0,0.2,0c0.3,0,0.6-0.1,1-0.1c0,0,0,0,0,0c0.4,0,0.7,0,1.1-0.1c0.1,0,0.1,0,0.2,0
				c0.8,0,1.6,0,2.3,0c0,0,0,0,0,0c2.4,0.1,4.6,0.5,5.4,1.5c1.2,1.6-0.3,4.5-2.3,7c0,0,0,0.1-0.1,0.1c-0.2,0.2-0.3,0.4-0.5,0.6
				c-0.6,0.7-0.7,1.8-0.2,2.6c2.3,3.6,7.8,12.9,5,18.4c-0.2,0.4-0.2,0.9-0.1,1.4c0.1,0.4,0.2,0.8,0.2,1.2c0,0.1,0,0.2,0,0.3
				c0,0.4,0.1,0.8,0.1,1.2c0,0.1,0,0.1,0,0.2c0,0.3,0,0.7,0,1c0,0.1,0,0.1,0,0.2c0,0.4-0.1,0.7-0.1,1.1c0,0.1,0,0.1,0,0.2
				c-0.1,0.3-0.1,0.7-0.2,1c0,0,0,0.1,0,0.1c-0.1,0.3-0.2,0.7-0.3,1c0,0.1,0,0.1-0.1,0.2c-0.1,0.3-0.3,0.7-0.4,1c0,0,0,0,0,0
				c-0.1,0.3-0.3,0.6-0.5,0.9c0,0-0.1,0.1-0.1,0.1c-0.2,0.3-0.4,0.6-0.6,0.9c0,0,0,0.1-0.1,0.1c-0.2,0.3-0.4,0.5-0.6,0.8
				c0,0,0,0,0,0c-0.2,0.3-0.5,0.5-0.7,0.8c0,0-0.1,0-0.1,0.1c-0.5,0.5-1,1-1.6,1.4c0,0,0,0-0.1,0c-0.9,0.7-1.8,1.2-2.8,1.7
				c0,0,0,0,0,0c0.2,0.1,0.5,0.1,0.8,0c3.9-1.1,9.5-7.7,8.9-11.2c-0.6-3.5-0.3-5.4,0.2-9.7S128.6,89.9,126.8,87.4z"/>
			<path class="st8" d="M59.8,109.6c-0.2-0.7-0.4-1.5-0.5-2.2C59.4,108.1,59.5,108.9,59.8,109.6z"/>
			<path class="st8" d="M60.6,111.8c-0.3-0.7-0.6-1.4-0.9-2.2C60,110.4,60.3,111.1,60.6,111.8z"/>
			<path class="st8" d="M59.3,100.8c0.1-0.3,0.1-0.5,0.2-0.7C59.4,100.3,59.3,100.5,59.3,100.8z"/>
			<path class="st8" d="M61.9,113.8c-0.5-0.6-0.9-1.3-1.2-2C61,112.5,61.4,113.2,61.9,113.8z"/>
			<path class="st8" d="M59.5,99.9c0.1-0.3,0.2-0.5,0.2-0.8C59.6,99.3,59.6,99.6,59.5,99.9z"/>
			<path class="st8" d="M59.1,101.8c0-0.3,0.1-0.6,0.1-0.9C59.2,101.2,59.1,101.5,59.1,101.8z"/>
			<path class="st8" d="M59,102.8c0-0.3,0.1-0.6,0.1-0.9C59,102.2,59,102.5,59,102.8z"/>
			<path class="st8" d="M59,104c0-0.3,0-0.7,0-1C59,103.3,59,103.6,59,104z"/>
			<path class="st8" d="M59,105c0-0.3,0-0.7,0-1C58.9,104.3,59,104.7,59,105z"/>
			<path class="st8" d="M59.2,107.3c-0.1-0.7-0.2-1.5-0.2-2.2C59,105.8,59.1,106.6,59.2,107.3z"/>
			<path class="st8" d="M121.2,120.9c1-0.4,1.9-1,2.8-1.7C123.2,119.9,122.2,120.5,121.2,120.9z"/>
			<path class="st8" d="M128.4,114.1c-0.1,0.3-0.3,0.6-0.5,0.9C128.1,114.7,128.2,114.4,128.4,114.1z"/>
			<path class="st8" d="M128.8,113.1c-0.1,0.3-0.3,0.7-0.4,1C128.5,113.8,128.7,113.4,128.8,113.1z"/>
			<path class="st8" d="M129.2,111.9c-0.1,0.3-0.2,0.7-0.3,1C129,112.6,129.1,112.3,129.2,111.9z"/>
			<path class="st8" d="M127.8,115.2c-0.2,0.3-0.4,0.6-0.6,0.9C127.5,115.7,127.6,115.5,127.8,115.2z"/>
			<path class="st8" d="M129.6,109.5c0,0.4-0.1,0.7-0.1,1.1C129.5,110.3,129.6,109.9,129.6,109.5z"/>
			<path class="st8" d="M129.4,110.8c-0.1,0.3-0.1,0.7-0.2,1C129.3,111.5,129.4,111.2,129.4,110.8z"/>
			<path class="st8" d="M125.7,117.8c-0.5,0.5-1,1-1.6,1.4C124.7,118.8,125.2,118.3,125.7,117.8z"/>
			<path class="st8" d="M59.8,99c0.1-0.2,0.2-0.4,0.2-0.6C59.9,98.6,59.8,98.8,59.8,99z"/>
			<path class="st8" d="M127.2,116.1c-0.2,0.3-0.4,0.5-0.6,0.8C126.8,116.7,127,116.4,127.2,116.1z"/>
			<path class="st8" d="M126.5,117c-0.2,0.3-0.5,0.5-0.7,0.8C126.1,117.5,126.3,117.2,126.5,117z"/>
			<path class="st8" d="M118.5,74c0.4,0,0.7,0,1.1-0.1C119.2,73.9,118.8,73.9,118.5,74z"/>
			<path class="st8" d="M117.5,74.1c0.3,0,0.6-0.1,1-0.1C118.1,74,117.8,74,117.5,74.1z"/>
			<path class="st8" d="M116.4,74.2c0.3,0,0.6-0.1,0.9-0.1C117,74.1,116.7,74.2,116.4,74.2z"/>
			<path class="st8" d="M60.1,98.2c0.1-0.2,0.2-0.4,0.3-0.6C60.3,97.8,60.2,98,60.1,98.2z"/>
			<path class="st8" d="M129.6,108.3c0,0.3,0,0.7,0,1C129.6,109,129.6,108.7,129.6,108.3z"/>
			<path class="st8" d="M129.5,107c0,0.4,0.1,0.8,0.1,1.2C129.6,107.7,129.6,107.3,129.5,107z"/>
			<path class="st8" d="M129.3,105.4c0.1,0.4,0.2,0.8,0.2,1.2C129.4,106.3,129.3,105.9,129.3,105.4z"/>
			<path class="st8" d="M119.7,73.9c0.8,0,1.6,0,2.3,0C121.3,73.9,120.5,73.9,119.7,73.9z"/>
			<path class="st8" d="M125.1,82.5c-0.2,0.2-0.3,0.4-0.5,0.6C124.7,82.9,124.9,82.7,125.1,82.5z"/>
		</g>
		<path class="st11" d="M116.4,74.5c-0.2-1.8-0.9-2,1.1-2.5c0.8-0.3,0.8-0.7,0.2-2.5c-0.1-0.4,0.3-0.1,0.6-0.8c-0.6,0.3-1,0.5-1,0.5
			l0.1,0.9l0.2,1l-0.5,0.5l-1.4,0.1l-0.4,1.3l0.1,1.5L116.4,74.5z"/>
		<path class="st8" d="M129.4,104c2.7-5.5-2.7-14.7-5-18.4c-0.5-0.8-0.4-1.9,0.2-2.6c2.3-2.6,4.3-6,2.9-7.7
			c-1.4-1.8-7.8-1.7-11.1-1.2c-0.2,0-0.3,0-0.5,0c-0.2-0.1-0.1-0.6-0.1-1c0-0.6,0-0.9,0.2-1.1c0.3,0,0.6-0.1,1.5-0.4
			c0.6-0.2,0.7-0.6,0.6-1c0.1-0.2,0.4-0.4,0.6-0.5c0.2-0.1,0.6,0.3,0.7,0.2c0.1,0,0.3-0.3,0.7-0.5c-0.5,0.1-0.8,0.4-0.8,0.3
			c-0.1-0.1-0.2-0.3-0.5-0.3c-0.4-0.1-0.5,0.1-0.8,0.4c-0.1-0.2-0.2-0.5-0.3-0.7c-0.3-0.8,0.4-0.5,1-1.2c-1,0.4-1.5,0.2-1.5,0.8
			c0.1,1.6,0.8,1.9-0.1,2c-0.8,0-1.4-0.2-1.6,0c-0.3,0.3-0.3,1.2-0.5,1.9c0,0.2-0.2,0.5-0.4,0.3c-0.1,0-0.1-0.1-0.1-0.1
			c-3.1-2.7-6.8-5.2-14.2-3.4c-0.9,0.2-1.8,0-2.5-0.6c-2.2-1.9-5.6-3.8-6.9-3.2c-2.2,1-3.3,4.9-3.8,7.1c-0.2,1-0.9,1.8-1.9,2.1
			c-8.2,2.8-15.8,7.2-17.7,8.4c-3.6,2.1-7.3,6.1-6.4,11.5c0.1,0.8,0,1.6-0.4,2.3c-2.7,4.7-2.3,17.6,7.5,20.5
			c0.4,0.1,0.9,0.4,1.1,0.8c4.2,5.2,7.7,5.4,12,5.1c0.8,0,1.5,0.3,1.9,0.9c2.2,3.4,7.7,6.7,14.8,2.4c0.5-0.3,1-0.4,1.5-0.3
			c5.3,0.8,11.6,0.6,16.3-4.1c0.4-0.4,0.8-0.6,1.3-0.7c6.8-0.9,14.4-7.2,12.3-16.7C129.1,105,129.2,104.5,129.4,104z"/>
		<g>
			<path class="st12" d="M117,122.2c-0.5,0.1-1,0.3-1.3,0.7c-4.8,4.8-11,5-16.3,4.1c-0.5-0.1-1.1,0-1.5,0.3
				c-7.1,4.3-12.6,1-14.8-2.4c-0.4-0.6-1.2-1-1.9-0.9c-4.3,0.2-7.8,0.1-12-5.1c-0.3-0.4-0.7-0.6-1.1-0.8c-0.8-0.2-1.6-0.6-2.3-0.9
				c0,0,0,0,0,0c1.7,1.1,2.4,1.7,3.8,3.9c1.4,2.2,3.8,5.3,9.9,4.7c1.8-0.2,3.1,2.2,5.4,3.9c2.3,1.7,7.7,3.2,11.8,0.1
				c2.1-1.7,3.8,0.1,8.5-0.4c4.7-0.6,6.2-1.5,8.5-3.3c2-1.6,3.7-2.9,5.9-3.7c1.2-0.4,2.5-1,3.5-2.2C121,121.2,119,121.9,117,122.2z"
				/>
		</g>
		<path class="st8" d="M124.4,85.7c-0.5-0.8-0.4-1.9,0.2-2.6c2.3-2.6,4.3-6,2.9-7.7c-1.4-1.8-7.8-1.7-11.1-1.2
			c-0.6,0.1-1.3-0.1-1.8-0.5c-3.2-2.8-6.9-5.6-14.6-3.7c-0.9,0.2-1.8,0-2.5-0.6c-2.2-1.9-5.6-3.8-6.9-3.2c-2.2,1-3.3,4.9-3.8,7.1
			c-0.2,1-0.9,1.8-1.9,2.1c-8.2,2.8-15.8,7.2-17.7,8.4c-3.6,2.1-7.3,6.1-6.4,11.5c0.1,0.8,0,1.6-0.4,2.3c-2.7,4.7-2.3,17.6,7.5,20.5
			c0.5,0.1,0.9,0.4,1.1,0.8c4.2,5.2,7.7,5.4,12,5.1c0.8,0,1.5,0.3,1.9,0.9c2.2,3.4,7.7,6.7,14.8,2.4c0.5-0.3,1-0.4,1.5-0.3
			c5.3,0.8,11.6,0.6,16.3-4.1c0.4-0.4,0.8-0.6,1.3-0.7c6.8-0.9,14.4-7.2,12.3-16.7c-0.1-0.5-0.1-1,0.1-1.4
			C132.1,98.5,126.7,89.3,124.4,85.7z"/>
		<g>
			<path class="st8" d="M104.9,129.3c-4.7,0.6-6.4-1.2-8.5,0.4c-2.8,2.2-6.4,2.1-9,1.2c0,0,0,0,0,0c1.1,0.8,2.2,1,4.1,0.9
				c1.9-0.1,4.3-0.9,5.4-1.9c1.1-1,3-0.5,3.9-0.3C101.8,129.7,103.5,129.5,104.9,129.3z"/>
		</g>
		<path class="st10" d="M123.7,86.3c-0.7-1.2-0.6-2.7,0.3-3.8c2.1-2.3,3.7-5,2.5-6.5c-1.5-1.9-9.1-1.6-11.7-1
			c-3.5-3.1-7.2-6.6-16.4-3.9c-1.9-2-6.2-4.8-7.7-4c-3,1.4-3.7,8.2-3.7,8.2c-8.5,2.6-17,7.6-19,8.9c-3.8,2.2-7.6,6.5-5.9,12.5
			c-3.4,3.4-3.7,17.6,6.5,20.7c0.5,0.2,1,0.5,1.4,1c4.1,5,7.6,5,11.8,4.8c0.6,0,1.1,0.2,1.4,0.7c2,3.4,7.4,6.7,14.3,2.6
			c0.6-0.4,1.3-0.5,2-0.4c5.2,0.7,11.1,0.5,15.6-4.2c0.3-0.3,0.6-0.4,1-0.5c6.6-0.8,14-6.7,12.1-15.9c-0.1-0.7,0-1.4,0.2-2.1
			C130.6,98.3,126,90.2,123.7,86.3z"/>
		<path class="st13" d="M65,98.8c-0.6,0.9-0.8,1.9-0.8,1.9c-0.1,2.8,4.1,9.1,9.1,8.3c0.4,3.6,7.4,7.4,10.5,5.4
			c2.4,5.1,13.6,6,17.8,1.5c2.8,2.3,12.2,1.6,14-2.3c3.1,1.5,9.5-1.6,10.6-5.1c0.2-1.3-0.2-2.6-0.2-2.6c-1.3,1.7-5.7,5.3-9.3,4.3
			c-2.5,2.5-8.5,5.2-13.2,1.5c-5,7-17.7,3.9-19.1-1.9c-3.5,1.1-10.1,1-11.8-5C71.6,104.4,67.8,103.9,65,98.8z"/>
		<path class="st13" d="M92.3,70.3c-1.2,0.4-2.4,4.1-2.8,6.1c1.9-0.8,5.7-2.2,8-2.9C96.1,72.1,93.1,70.1,92.3,70.3z"/>
		<path class="st7" d="M89.1,73.9c-0.1,0.9-0.2,1.6-0.5,2.1C88.9,75.6,89.1,75,89.1,73.9z"/>
		<path class="st7" d="M109.5,73.7c1.3,1,1.8,2.4,4.4,3.1c0.1,0,0.1,0,0.2,0c-0.3-0.2-0.6-0.4-1-0.7
			C112.4,75.5,111.4,74.5,109.5,73.7z"/>
		<path class="st7" d="M65.9,116.2c-1.3-1.8-3.5-5-4.3-9C62.2,110.7,63.9,114.2,65.9,116.2z"/>
		<path class="st11" d="M126.5,76c-1.4-1.8-7.8-1.6-10.9-1.1c-0.5,0.1-1,0-1.3-0.4c-3.2-2.8-6.8-5.7-14.6-3.7c-0.7,0.2-1.4,0-2-0.5
			c-0.6-0.6-1.4-1.1-2.2-1.6c-1.8-1.2-3.8-2-4.7-1.6c-2.2,1-3.1,4.9-3.5,6.9c-0.1,0.8-0.7,1.5-1.5,1.7c-8,2.7-15.8,7.3-17.8,8.4
			c-4.2,2.4-7.2,6.7-6.2,11.5c0.1,0.6,0,1.2-0.3,1.7c-2.5,3.8-2.6,14.5,4.3,18.8c-2-2-3.7-5.4-4.3-9c-0.5-3-0.3-6.1,1.3-8.6
			c1.2-1.9,0.4-2.8,0.2-4.4c-0.2-1.5,0.9-5.4,5.8-8.5c5.7-3.7,13-6.9,16.3-7.6c3.3-0.7,3.6-1.7,4-4.2c0.3-2.5,1.4-3.7,2.5-4.2
			c1.1-0.5,2,0,3,0.7c1,0.8,2.1,1.9,3.3,2.3c0.5,0.2,0.9,0.2,1.3,0.2c1.7-0.1,3.1-1.4,6.7-0.5c1.4,0.3,2.6,0.7,3.5,1.2
			c1.9,0.9,2.9,1.8,3.6,2.4c0.3,0.3,0.6,0.5,1,0.7c0.5,0.3,1.1,0.4,1.9,0.2c0.2-0.1,0.5-0.1,0.8-0.2c1.8-0.6,8.9-1.2,10.1,0.7
			C126.9,76.9,126.8,76.4,126.5,76z"/>
		<g>
			<polygon class="st7" points="73.6,117.9 73.6,117.9 73.6,117.9 			"/>
			<path class="st11" d="M71.1,110c-2.6-0.7-7-3.9-7.1-8.5c-0.5,2.7-1,12,8,14.5C71.1,114.1,71,111.9,71.1,110z"/>
			<path class="st11" d="M82.8,115.8c-3.2,0.4-9.1-2.2-10-5.9c-0.8,1.1-1.7,5.1,0.8,8c0,0,0,0,0,0l0,0c0.5,0,0.9-0.1,1.3-0.1
				c0.7-0.1,1.2-0.1,1.5,0.2c0.1,0.1,0.2,0.2,0.3,0.4c0.4,0.8,0.6,2,1,2.3c0,0,0,0,0,0c2,0.7,4.1,0.5,6.7,0.3
				C83.2,119.1,82.8,117.3,82.8,115.8z"/>
			<path class="st11" d="M115.4,115.3c-2,2.4-7.9,4.2-13.2,1.9c0,1.5-1.5,5-3.2,6.4c3.5,0.7,10.2,1.8,15-3.4
				C115.1,118.5,115.4,116.8,115.4,115.3C115.4,115.3,115.4,115.3,115.4,115.3z"/>
			<path class="st11" d="M100.6,117.9c-3.4,2.8-13.5,3.1-16.7-2.1c-0.1,2.4,0.3,4.2,0.9,5.6c1.5,2.8,6.5,7.3,13.7,2.5
				C100.4,122.2,100.7,119.6,100.6,117.9z"/>
			<path class="st11" d="M126.1,110.3c-1.8,3-6,5-9.5,4.6c0,0,0,0,0,0c0,1-0.3,2.6-2,4.7c1.6-0.1,3-0.4,4.4-1
				c1.1-0.5,1.5-1.6,1.9-2.2c0.1-0.1,0.1-0.1,0.2-0.2l0,0c0.8-0.2,1.2-0.3,1.5-0.3c0.3,0,0.4-0.2,0.7-0.3
				C124.8,114.1,125.8,112.2,126.1,110.3z"/>
			<path class="st14" d="M122.4,115.9c-0.3,0-0.5,0-1.3,0.3l0,0c0.5-0.2,1.4,0,1.6-0.1c0,0,0,0,0,0c0.2-0.2,0.3-0.3,0.5-0.5
				C123,115.8,122.7,115.9,122.4,115.9z"/>
		</g>
		<polygon class="st7" points="73.6,117.9 73.6,117.9 73.6,117.9 		"/>
		<path class="st11" d="M82.8,115.8c-3.2,0.4-9.1-2.2-10-5.9c-0.8,1.1-1.7,5.1,0.8,8c0,0,0,0,0,0l0,0c0.5,0,0.9-0.1,1.3-0.1
			c0.7-0.1,1.2-0.1,1.5,0.2c0.1,0.1,0.2,0.2,0.3,0.4c0.4,0.8,0.6,2,1,2.3c0,0,0,0,0,0c2,0.7,4.1,0.5,6.7,0.3
			C83.2,119.1,82.8,117.3,82.8,115.8z"/>
		<path class="st11" d="M85.7,122.7c-0.1-0.1-0.2-0.3-0.3-0.4C85.5,122.5,85.6,122.6,85.7,122.7z"/>
		<path class="st11" d="M87.1,124.1c-0.1-0.1-0.3-0.2-0.4-0.4C86.8,123.8,86.9,124,87.1,124.1z"/>
		<path class="st11" d="M88.3,124.9c-0.2-0.1-0.4-0.2-0.5-0.3C87.9,124.7,88.1,124.8,88.3,124.9z"/>
		<path class="st11" d="M86.6,123.7c-0.1-0.1-0.3-0.3-0.4-0.4C86.3,123.4,86.5,123.5,86.6,123.7z"/>
		<path class="st11" d="M86.1,123.2c-0.1-0.1-0.2-0.3-0.4-0.4C85.9,122.9,86,123,86.1,123.2z"/>
		<path class="st11" d="M87.6,124.5c-0.2-0.1-0.3-0.2-0.5-0.4C87.3,124.3,87.5,124.4,87.6,124.5z"/>
		<path class="st11" d="M85.4,122.3c-0.1-0.1-0.2-0.3-0.3-0.4C85.2,122,85.3,122.1,85.4,122.3z"/>
		<path class="st11" d="M85,121.8c-0.1-0.1-0.2-0.3-0.2-0.4C84.9,121.5,85,121.6,85,121.8z"/>
		<path class="st14" d="M87.7,124.6c0,0-0.1,0-0.1-0.1C87.7,124.5,87.7,124.5,87.7,124.6z"/>
		<path class="st14" d="M87.2,124.1C87.1,124.1,87.1,124.1,87.2,124.1C87.1,124.1,87.1,124.1,87.2,124.1z"/>
		<path class="st14" d="M85.7,122.8C85.7,122.7,85.7,122.7,85.7,122.8C85.7,122.7,85.7,122.7,85.7,122.8z"/>
		<path class="st14" d="M85.1,121.9C85.1,121.8,85.1,121.8,85.1,121.9C85.1,121.8,85.1,121.8,85.1,121.9z"/>
		<path class="st14" d="M85.4,122.3C85.4,122.3,85.4,122.3,85.4,122.3C85.4,122.3,85.4,122.3,85.4,122.3z"/>
		<path class="st14" d="M86.2,123.3C86.2,123.2,86.1,123.2,86.2,123.3C86.1,123.2,86.2,123.2,86.2,123.3z"/>
		<path class="st14" d="M86.6,123.7C86.6,123.7,86.6,123.7,86.6,123.7C86.6,123.7,86.6,123.7,86.6,123.7z"/>
		<path class="st11" d="M124.4,79.7C124.4,79.7,124.4,79.7,124.4,79.7c0,0,0,0.1,0,0.1C124.4,79.8,124.4,79.7,124.4,79.7z"/>
		<path class="st14" d="M80.6,82.2c0.3,0.1,0.6,0.1,0.9,0.2C81.2,82.4,80.9,82.3,80.6,82.2z"/>
		<g>
			<path class="st13" d="M125.9,96.4c-0.2-0.3-0.7-0.3-1-0.5c-0.3-0.3,0.1-0.8,0.1-1.4c0,0,0,0,0,0c-0.3-0.5-1.1-0.4-1.5-0.8
				c-0.4-0.4,0.1-1.2,0.1-2.1c-0.4-0.9-0.9-1.7-1.3-2.5c-1.1-0.7-3.8-5.3-7.6-9c-0.4-0.4-0.8-0.7-1.2-1.1c0,0,0,0,0,0
				c-0.4-0.4-0.8-0.7-1.3-1c0,0,0,0,0,0c-0.9-0.6-1.8-1.2-2.7-1.6c0,0,0,0,0,0c-0.1-0.1-0.2-0.1-0.4-0.2c-0.2-0.1-0.3-0.2-0.5-0.2
				c0,0,0,0-0.1,0c-0.2-0.1-0.3-0.1-0.5-0.2c0,0,0,0,0,0c-0.3-0.1-0.6-0.1-1-0.2c0,0-0.1,0-0.1,0c-0.3,0-0.7-0.1-1.1-0.1
				c0,0,0,0,0,0c-0.3,0-0.7,0-1,0c-0.1,0-0.2,0-0.3,0c-0.4,0-0.7,0.1-1.1,0.1c-3.5,0.5-9.2,1.9-16.3,4.8c-0.9,0.4-2.6,3.1-3.5,3.5
				c-0.9,0.4-3.6-0.5-4.4-0.1c-4,1.9-6.5,3.4-9,5.5C68,91.2,65,94.9,67.5,100c0,0,0,0,0,0c-1.8-2.3-2.7-5.3-1.6-8.1
				c0.7-1.9,2.3-3.6,4.5-5.2c0,0,0,0,0,0c0,0,0,0,0,0c0,0,0,0,0,0c0,0,0,0,0,0c0.1-0.1,0.2-0.2,0.3-0.2c0,0,0.1,0,0.1-0.1
				c0.1-0.1,0.2-0.1,0.3-0.2c0,0,0.1,0,0.1-0.1c0.1-0.1,0.2-0.1,0.3-0.2c0,0,0.1,0,0.1-0.1c0,0,0,0,0,0c0,0,0.1,0,0.1-0.1
				c0.2-0.1,0.4-0.3,0.6-0.4c0,0,0.1,0,0.1-0.1c0.1-0.1,0.2-0.1,0.3-0.2c0,0,0.1,0,0.1-0.1c0,0,0.1,0,0.1,0c0,0,0,0,0.1,0
				c0,0,0.1-0.1,0.1-0.1c0,0,0.1,0,0.1-0.1c0.3-0.2,0.5-0.3,0.8-0.5c0,0,0.1,0,0.1-0.1c0.1,0,0.1-0.1,0.2-0.1c0,0,0,0,0.1,0
				c0,0,0.1,0,0.1,0c0,0,0.1,0,0.1-0.1c0.1-0.1,0.2-0.1,0.3-0.2c0,0,0.1,0,0.1-0.1c0.2-0.1,0.5-0.3,0.8-0.4c0,0,0.1,0,0.1-0.1
				c0,0,0,0,0,0c0,0,0.1,0,0.1-0.1c0.1-0.1,0.2-0.1,0.3-0.2c0.1,0,0.1,0,0.2-0.1c0.1-0.1,0.2-0.1,0.3-0.2c0,0,0.1,0,0.1-0.1
				c0.1-0.1,0.2-0.1,0.3-0.2c0.1,0,0.2-0.1,0.3-0.1c0.1,0,0.2-0.1,0.3-0.1c0,0,0.1,0,0.1-0.1c0.1-0.1,0.2-0.1,0.4-0.2
				c0.1,0,0.1,0,0.2-0.1c0.1,0,0.2-0.1,0.3-0.1c0.1,0,0.1,0,0.2,0c0.5-0.1,0.9,0,1.4,0.1c-0.5-0.1-1-0.2-1.4-0.1c-0.1,0-0.2,0-0.2,0
				c-0.1,0-0.2,0.1-0.3,0.1c-0.1,0-0.1,0-0.2,0.1c-0.1,0.1-0.2,0.1-0.4,0.2c0,0-0.1,0-0.1,0.1c-0.1,0-0.2,0.1-0.3,0.1
				c-0.1,0-0.2,0.1-0.3,0.1C77.2,82.9,77.1,83,77,83c0,0-0.1,0-0.1,0.1c-0.1,0.1-0.2,0.1-0.3,0.2c-0.1,0-0.1,0-0.2,0.1
				c-0.1,0.1-0.2,0.1-0.3,0.2c0,0-0.1,0-0.1,0.1c0,0,0,0,0,0c0,0-0.1,0-0.1,0.1c-0.3,0.1-0.5,0.3-0.8,0.4c0,0-0.1,0-0.1,0.1
				c-0.1,0.1-0.2,0.1-0.3,0.2c0,0-0.1,0-0.1,0.1c0,0-0.1,0-0.1,0c0,0,0,0-0.1,0c-0.1,0-0.1,0.1-0.2,0.1c0,0-0.1,0-0.1,0.1
				c-0.3,0.2-0.6,0.3-0.8,0.5c0,0-0.1,0-0.1,0.1c0,0-0.1,0.1-0.1,0.1c0,0,0,0-0.1,0c0,0-0.1,0-0.1,0c0,0-0.1,0-0.1,0.1
				c-0.1,0.1-0.2,0.1-0.3,0.2c0,0-0.1,0-0.1,0.1c-0.2,0.1-0.4,0.3-0.6,0.4c0,0-0.1,0-0.1,0.1c0,0,0,0,0,0c0,0-0.1,0-0.1,0.1
				c-0.1,0.1-0.2,0.1-0.3,0.2c0,0-0.1,0-0.1,0.1c-0.1,0.1-0.2,0.1-0.3,0.2c0,0-0.1,0-0.1,0.1c-0.1,0.1-0.2,0.2-0.3,0.2c0,0,0,0,0,0
				c0,0,0,0,0,0c0,0,0,0,0,0c0,0,0,0,0,0c-2.3,1.6-3.8,3.3-4.5,5.2c-1.9,4.8,2.2,10.6,6.9,11.4c-0.1-0.7,0-1.6,0-1.8
				c0.1-0.8,1.3-7.5,8.7-10.6c-4.4,2.7-9.9,9.5-6.5,15.4c1.7,2,4.6,3.5,9.1,2.1c0.1-6.1,4.6-13.8,10.4-19.1c-3.1,3.9-6.6,9-8.2,14.1
				c0,0,0,0,0,0c-0.1,0.4,0.5,1.1,1,1.9c0.3,0.5,0.5,1,0.5,1.6c0,0.2-0.3,0.6-0.6,0.9c-0.6,0.6-1.3,1.3-1.3,1.5
				c0.2,0.7,0.5,1.4,1,2.1c4,3.4,11.2,4.6,15.4-0.4c4.2-5.6,2.7-15.6,1.9-20.7c2.2,6.9,2.9,14.8,0,20.1c2.7,2.5,7.4,2.7,11.5-0.9
				c2.5-6.7,2.1-15-3.9-22.5c6.2,6.8,7,12.5,5.6,21.6C122.6,106.8,129,105,125.9,96.4z M109.7,76.3c0.2,0.1,0.4,0.2,0.5,0.3
				C110.1,76.6,109.9,76.5,109.7,76.3z"/>
		</g>
		<path class="st14" d="M124.4,79.9c0,0,0-0.1,0-0.1C124.4,79.8,124.4,79.9,124.4,79.9C124.3,79.9,124.4,79.9,124.4,79.9z"/>
		<g>
			<path class="st11" d="M123.7,86.4c-0.2-0.4-0.3-0.8-0.5-1.2C123.3,85.6,123.4,86,123.7,86.4C123.7,86.3,123.7,86.3,123.7,86.4z"
				/>
			<path class="st11" d="M123.2,85.2C123.2,85.2,123.2,85.2,123.2,85.2L123.2,85.2C123.2,85.2,123.2,85.2,123.2,85.2z"/>
			<path class="st11" d="M128.2,105.5c-0.1-0.7,0-1.4,0.2-2.1c2-5.1-2.4-13.2-4.8-17c1.9,4.9,5,10.8,4.1,14
				c-0.9,3.4-0.7,3.7-0.2,8.2c0.5,4.5-1.3,7.1-2.2,8C127.8,113.8,129.2,110.1,128.2,105.5z"/>
		</g>
		<g>
			<path class="st8" d="M57.2,100.2c1-2.5,1.8-3.8,1.6-6.4c-0.1-0.9,0.1-2.2,0.7-3.7l0,0c-1.3,1.9-1.2,3.2-1.1,4.1
				c0.1,0.9,0.3,2-0.8,3.9s-1,3.9-0.6,5.2c0,0,0,0,0,0.1C56.8,102.1,56.9,101,57.2,100.2z"/>
		</g>
		<g>
			<path class="st12" d="M58.3,94.2c-0.1-0.7-0.2-1.6,0.4-2.9l0,0c-0.9,1.6-1,2.4-1,4.7c0,1.3-1.2,2.1-1,4.7c0,0,0,0,0,0
				c0.1-0.8,0.3-1.7,0.9-2.6C58.6,96.2,58.4,95.1,58.3,94.2z"/>
		</g>
		<g>
			<path class="st8" d="M85.9,70.4c0.8-3.5,2.1-6.5,4.6-6.2c2.5,0.4,4.8,1.5,6.1,2.6c1.3,1.1,1.6,2.3,4.5,1.3c-3.2,0.9-3-1.2-6.8-3
				c-3.3-1.6-4.9-1.8-6.1-0.7C86,66.7,85.1,73.9,85.9,70.4z"/>
		</g>
		<g>
			<path class="st8" d="M59.8,109.6c0.2,0.7,0.5,1.5,0.9,2.2C60.3,111.1,60,110.4,59.8,109.6z"/>
			<path class="st8" d="M60.7,111.8c0.3,0.7,0.8,1.4,1.2,2C61.4,113.2,61,112.5,60.7,111.8z"/>
			<path class="st8" d="M121.2,120.9c1-0.4,1.9-1,2.8-1.7C123.2,119.9,122.2,120.5,121.2,120.9z"/>
			<path class="st8" d="M124.1,119.2c0.6-0.4,1.1-0.9,1.6-1.4C125.2,118.3,124.7,118.8,124.1,119.2z"/>
			<path class="st8" d="M122.1,73.9c-0.8,0-1.6,0-2.3,0C120.5,73.9,121.3,73.9,122.1,73.9z"/>
			<path class="st8" d="M127.4,80.7c-0.3,0.8-0.7,1.5-1.1,2c-0.9,1.2-1.2,2.2,0.5,4.7c0.3,0.4,0.6,0.9,0.9,1.5c0,0,0,0,0,0
				c-1-1.9-1.9-3.3-1.7-4.6c0.2-1.3,1-1.6,1.7-4.4l0,0C127.7,80.1,127.6,80.4,127.4,80.7C127.4,80.7,127.4,80.7,127.4,80.7z"/>
		</g>
		<g>
			<path class="st8" d="M59.8,109.6c0.2,0.7,0.5,1.5,0.9,2.2C60.3,111.1,60,110.4,59.8,109.6z"/>
			<path class="st8" d="M60.7,111.8c0.3,0.7,0.8,1.4,1.2,2C61.4,113.2,61,112.5,60.7,111.8z"/>
			<path class="st8" d="M121.2,120.9c1-0.4,1.9-1,2.8-1.7C123.2,119.9,122.2,120.5,121.2,120.9z"/>
			<path class="st8" d="M124.1,119.2c0.6-0.4,1.1-0.9,1.6-1.4C125.2,118.3,124.7,118.8,124.1,119.2z"/>
			<path class="st8" d="M122.1,73.9c-0.8,0-1.6,0-2.3,0C120.5,73.9,121.3,73.9,122.1,73.9z"/>
			<path class="st8" d="M130.2,93.9c0.6,1.6,1,3.3,1.1,4.8c0,0,0-0.1,0-0.1C131.3,97.7,131.2,95.5,130.2,93.9z"/>
		</g>
		<polygon class="st7" points="73.6,117.9 73.6,117.9 73.6,117.9 		"/>
		<path class="st14" d="M109.2,76.1c-0.4-0.2-0.7-0.3-1.1-0.4C108.5,75.8,108.8,75.9,109.2,76.1z"/>
		<path class="st7" d="M107.1,75.5c0,0-0.1,0-0.1,0C107,75.5,107.1,75.5,107.1,75.5z"/>
		<path class="st7" d="M104.6,75.4c0.1,0,0.2,0,0.3,0C104.7,75.4,104.7,75.4,104.6,75.4z"/>
		<path class="st7" d="M105.9,75.4C105.9,75.4,105.9,75.4,105.9,75.4C105.9,75.4,105.9,75.4,105.9,75.4z"/>
		<path class="st7" d="M108.7,75.9C108.7,75.9,108.6,75.9,108.7,75.9C108.6,75.9,108.7,75.9,108.7,75.9z"/>
		<path class="st7" d="M113.6,78.9c-0.4-0.4-0.8-0.7-1.3-1C112.7,78.2,113.1,78.6,113.6,78.9z"/>
		<path class="st7" d="M108.1,75.7C108.1,75.7,108.1,75.7,108.1,75.7C108.1,75.7,108.1,75.7,108.1,75.7
			C108.1,75.7,108.1,75.7,108.1,75.7z"/>
		<path class="st7" d="M109.6,76.3c0.9,0.4,1.9,1,2.7,1.6C111.4,77.3,110.5,76.7,109.6,76.3C109.6,76.3,109.6,76.3,109.6,76.3z"/>
		<path class="st7" d="M114.1,78.1c0.3,0.3,0.6,0.5,0.9,0.8C114.7,78.7,114.4,78.4,114.1,78.1z"/>
		<path class="st7" d="M113.6,79c0.4,0.4,0.8,0.7,1.2,1.1C114.4,79.7,114,79.3,113.6,79z"/>
		<path class="st11" d="M120.5,85.9c1,1.6,1.6,2.5,1.8,2.9C121.6,87.8,121.1,86.8,120.5,85.9z"/>
		<path class="st13" d="M115.8,79.8c1.9,2,3.5,4.3,4.6,6.1c1.2-1.1,3.1-4.1,3.9-6c0,0,0-0.1,0-0.1c0.1,0,0.1,0,0.1,0
			c0,0,0-0.1,0-0.1c0.2-0.6,0.3-1.2,0.1-1.4c-1.6-1-6.2-1.1-10.5-0.2c0,0,0.1,0.1,0.1,0.1c0.3,0.3,0.6,0.5,0.9,0.8
			C115.3,79.2,115.6,79.5,115.8,79.8z"/>
		<path class="st14" d="M122.4,89.1c0,0,0-0.1-0.1-0.2C122.3,88.9,122.3,89,122.4,89.1C122.4,89.1,122.4,89.1,122.4,89.1z"/>
		<path class="st14" d="M120.5,85.9C120.4,85.9,120.4,85.9,120.5,85.9C120.4,85.9,120.4,85.9,120.5,85.9
			C120.4,85.9,120.4,85.9,120.5,85.9z"/>
		<path class="st14" d="M107,75.5c-0.3,0-0.7-0.1-1.1-0.1C106.3,75.4,106.6,75.4,107,75.5z"/>
		<path class="st14" d="M112.3,77.9C112.3,77.9,112.3,77.9,112.3,77.9C112.3,77.9,112.3,77.9,112.3,77.9z"/>
		<path class="st14" d="M104.8,75.4c0.4,0,0.7,0,1,0C105.5,75.4,105.2,75.4,104.8,75.4z"/>
		<path class="st14" d="M113.6,78.9C113.6,78.9,113.6,79,113.6,78.9C113.6,79,113.6,78.9,113.6,78.9z"/>
		<path class="st14" d="M108.6,75.9c-0.2-0.1-0.3-0.1-0.5-0.2C108.3,75.7,108.4,75.8,108.6,75.9z"/>
		<path class="st14" d="M104.6,75.4c-0.4,0-0.7,0.1-1.1,0.1C103.8,75.5,104.2,75.5,104.6,75.4z"/>
		<path class="st14" d="M108.1,75.7c-0.3-0.1-0.6-0.1-1-0.2C107.4,75.5,107.8,75.6,108.1,75.7z"/>
		<path class="st14" d="M109.2,76.1c0.1,0.1,0.2,0.1,0.4,0.2c-0.3-0.2-0.6-0.3-0.9-0.4C108.9,76,109,76,109.2,76.1z"/>
		<path class="st13" d="M104.8,118C104.8,118,104.8,118,104.8,118c-0.8,0.3-4.1,5.5-5.1,5.8c-0.1,0-0.2,0-0.2,0
			c3.6,0.7,9.9,1.5,14.5-3.5c1.1-1.7,1.4-3.5,1.4-5c0,0,0,0,0,0C113.7,117.3,109.3,118.9,104.8,118z"/>
		<path class="st14" d="M99.5,123.7c-0.2,0-0.4-0.1-0.6-0.1C99.3,123.7,99.3,123.7,99.5,123.7z"/>
		<g>
			<path class="st15" d="M104.8,118C104.8,118,104.8,118,104.8,118c-0.9-0.2-1.8-0.4-2.6-0.8c0,1.5-1.5,5-3.2,6.4
				c0.2,0,0.4,0.1,0.6,0.1c0.1,0,0.1,0,0.2,0C100.7,123.5,104.1,118.3,104.8,118z"/>
			<path class="st15" d="M97.5,73.4c-1.6-1.8-4.4-3.1-5-3.1c-0.1,0-0.2,0-0.2,0c-1.2,0.4-2.4,4.1-2.8,6.1c1.5-3,2.3-5.3,3.9-4.9
				C95.2,72,96.6,72.8,97.5,73.4z"/>
			<g>
				<path class="st15" d="M63.8,104.2c0-0.2,0-0.4,0-0.6C63.8,103.8,63.8,104,63.8,104.2z"/>
				<path class="st15" d="M63.8,103.5c0-0.2,0-0.4,0-0.6C63.8,103.2,63.8,103.3,63.8,103.5z"/>
				<path class="st15" d="M64,101.8c0-0.1,0-0.3,0.1-0.4C64,101.6,64,101.7,64,101.8z"/>
				<path class="st15" d="M63.9,102.4c0-0.1,0-0.3,0.1-0.4C64,102.1,63.9,102.2,63.9,102.4z"/>
				<path class="st15" d="M63.8,104.2c0,2.5,0.6,5.9,2.8,8.5C64.4,110.1,63.8,106.7,63.8,104.2z"/>
				<path class="st15" d="M63.9,102.9c0-0.2,0-0.4,0-0.5C63.9,102.5,63.9,102.7,63.9,102.9z"/>
				<polygon class="st15" points="66.7,112.7 66.7,112.7 66.7,112.7 				"/>
				<path class="st15" d="M63.8,104.2C63.8,104.2,63.8,104.2,63.8,104.2C63.8,104.2,63.8,104.2,63.8,104.2z"/>
				<path class="st15" d="M63.8,103.5C63.8,103.5,63.8,103.5,63.8,103.5C63.8,103.5,63.8,103.5,63.8,103.5z"/>
				<path class="st15" d="M64,101.9C64,101.9,64,101.9,64,101.9C64,101.9,64,101.9,64,101.9z"/>
				<path class="st15" d="M63.9,102.4C63.9,102.4,63.9,102.4,63.9,102.4C63.9,102.4,63.9,102.4,63.9,102.4z"/>
				<path class="st15" d="M63.9,103C63.9,103,63.9,102.9,63.9,103C63.9,102.9,63.9,103,63.9,103z"/>
				<path class="st15" d="M65.1,105.2C65.1,105.2,65.1,105.2,65.1,105.2c-0.6-1.1-1-2.4-1.1-3.7c0,0.1,0,0.2-0.1,0.4
					c0,0,0,0.1,0,0.1c0,0.1,0,0.3-0.1,0.4c0,0,0,0,0,0c0,0.2,0,0.3,0,0.5c0,0,0,0.1,0,0.1c0,0.2,0,0.4,0,0.6c0,0,0,0,0,0
					c0,0.2,0,0.4,0,0.6c0,0,0,0,0,0c0,2.5,0.6,5.9,2.8,8.5c0,0,0,0,0,0C66.1,111.8,64.4,108.6,65.1,105.2z"/>
			</g>
			<path class="st15" d="M121.1,116.2L121.1,116.2c0.5-0.2,1.4,0,1.7-0.1c0,0,0,0,0,0c0.2-0.2,0.3-0.3,0.5-0.5
				c-0.3,0.1-0.5,0.3-0.7,0.3C122.3,115.9,121.9,116,121.1,116.2z"/>
			<g>
				<path class="st15" d="M85.4,122.3C85.4,122.3,85.4,122.3,85.4,122.3c0.1,0.1,0.2,0.3,0.3,0.4c0,0,0,0,0,0
					C85.6,122.6,85.5,122.5,85.4,122.3z"/>
				<path class="st15" d="M85,121.8c-0.1-0.1-0.2-0.3-0.2-0.4C84.9,121.5,85,121.6,85,121.8z"/>
				<path class="st15" d="M86.1,123.2c-0.1-0.1-0.2-0.3-0.4-0.4c0.3,0.3,0.5,0.6,0.9,0.9C86.5,123.5,86.3,123.4,86.1,123.2
					C86.2,123.2,86.1,123.2,86.1,123.2z"/>
				<path class="st15" d="M85.4,122.3c-0.1-0.1-0.2-0.3-0.3-0.4C85.2,122,85.3,122.1,85.4,122.3z"/>
				<path class="st15" d="M86.6,123.7c0.2,0.1,0.3,0.3,0.5,0.4c0,0,0,0-0.1-0.1C86.9,124,86.8,123.8,86.6,123.7z"/>
				<path class="st15" d="M87.2,124.1c0.2,0.1,0.4,0.3,0.5,0.4c0,0,0,0-0.1,0C87.5,124.4,87.3,124.3,87.2,124.1z"/>
				<path class="st15" d="M88.3,124.9c-0.2-0.1-0.4-0.2-0.5-0.3C87.9,124.7,88.1,124.8,88.3,124.9z"/>
				<path class="st15" d="M87.2,124.1C87.2,124.1,87.2,124.1,87.2,124.1C87.1,124.1,87.1,124.1,87.2,124.1
					C87.1,124.1,87.1,124.1,87.2,124.1z"/>
				<path class="st15" d="M87.7,124.6C87.7,124.6,87.7,124.6,87.7,124.6C87.7,124.6,87.7,124.6,87.7,124.6
					C87.7,124.6,87.7,124.6,87.7,124.6z"/>
				<path class="st15" d="M85.7,122.8C85.7,122.8,85.7,122.8,85.7,122.8C85.7,122.8,85.7,122.7,85.7,122.8
					C85.7,122.7,85.7,122.8,85.7,122.8z"/>
				<path class="st15" d="M86.6,123.7C86.6,123.7,86.6,123.7,86.6,123.7C86.6,123.7,86.6,123.7,86.6,123.7
					C86.6,123.7,86.6,123.7,86.6,123.7C86.6,123.7,86.6,123.7,86.6,123.7z"/>
				<path class="st15" d="M85.4,122.3C85.4,122.3,85.4,122.3,85.4,122.3C85.4,122.3,85.4,122.3,85.4,122.3
					C85.4,122.3,85.4,122.3,85.4,122.3z"/>
				<path class="st15" d="M85,121.8C85.1,121.8,85.1,121.8,85,121.8C85.1,121.9,85.1,121.9,85,121.8C85.1,121.8,85.1,121.8,85,121.8
					C85,121.8,85,121.8,85,121.8z"/>
				<path class="st15" d="M85.7,117.7c-0.7-0.5-1.3-1.2-1.8-1.9c-0.1,2.4,0.3,4.2,0.9,5.6c0.1,0.1,0.1,0.3,0.2,0.4
					c0,0,0,0.1,0.1,0.1c0.1,0.1,0.2,0.3,0.3,0.4c0,0,0,0,0,0c0,0,0,0,0,0c0.1,0.1,0.2,0.3,0.3,0.4c0,0,0,0,0,0c0,0,0,0,0,0
					c0.1,0.1,0.2,0.3,0.4,0.4c0,0,0.1,0.1,0.1,0.1c0.1,0.1,0.3,0.3,0.4,0.4c0,0,0,0,0,0c0.1,0.1,0.3,0.2,0.4,0.4c0,0,0,0,0.1,0.1
					c0,0,0,0,0,0c0.2,0.1,0.3,0.2,0.5,0.4c0,0,0,0,0.1,0c0,0,0,0,0,0c0.2,0.1,0.4,0.2,0.5,0.3C85.1,122.7,85.6,118.4,85.7,117.7z"/>
			</g>
			<g>
				<path class="st15" d="M118.8,114.8C118.8,114.8,118.8,114.8,118.8,114.8c-0.8,0.1-1.5,0.1-2.2,0c0,0,0,0,0,0c0,1-0.3,2.6-2,4.7
					c0.3,0,0.7-0.1,1-0.1C116.9,118.4,118.8,114.8,118.8,114.8z"/>
			</g>
			<g>
				<path class="st15" d="M85.2,111.4C85.2,111.4,85.2,111.4,85.2,111.4c-0.3-0.5-0.5-1-0.7-1.6c-2,0.6-4.9,0.9-7.4-0.1l-0.2,0
					C80.3,111.7,82.3,111.5,85.2,111.4z"/>
			</g>
			<path class="st15" d="M66.4,103.1c1.1-0.1,2.6,0.9,3.7,0.8c0,0,0,0,0,0c-1.6-0.7-3.5-2.1-5.1-5.1c-0.6,0.9-0.8,1.9-0.8,1.9
				c0,0.3,0.1,0.7,0.2,1.1l0,0c0,0.1,0,0.1,0,0.2c0,0.1,0.1,0.2,0.1,0.3c0.1,0.2,0.1,0.4,0.2,0.6c0,0,0,0.1,0.1,0.1
				c0.1,0.3,0.2,0.5,0.4,0.8c0,0,0,0,0,0c0.6,1.1,1.4,2.3,2.5,3.3C66.1,105.5,65.5,103.2,66.4,103.1z"/>
			<g>
				<path class="st15" d="M92.6,115.5C92.6,115.5,92.6,115.5,92.6,115.5C92.6,115.5,92.6,115.5,92.6,115.5z"/>
				<path class="st15" d="M92.6,115.5c5.5,1.1,9-0.5,12.6-2.8l0,0c-0.6-0.3-1.2-0.6-1.7-1C101,115.2,96.6,116.2,92.6,115.5z"/>
				<path class="st15" d="M92.6,115.5C92.6,115.5,92.6,115.5,92.6,115.5C92.6,115.5,92.6,115.5,92.6,115.5
					C92.6,115.5,92.6,115.5,92.6,115.5z"/>
			</g>
			<g>
				<path class="st15" d="M111,113.3C111,113.3,111,113.3,111,113.3C111,113.3,111,113.3,111,113.3z"/>
				<path class="st15" d="M111,113.3c-0.1,0-0.2,0-0.4,0.1l0,0C110.8,113.4,110.9,113.3,111,113.3z"/>
				<path class="st15" d="M116.8,110.2c-1.3,1.3-3.4,2.6-5.8,3.1c4-0.8,6.1-1.5,7.9-3c0,0,0,0,0,0
					C118.2,110.5,117.5,110.4,116.8,110.2z"/>
			</g>
			<g>
				<path class="st15" d="M126.3,107.2c-0.1-0.7-0.2-1.2-0.2-1.2c-0.8,1.1-2.9,2.9-5.2,3.8l0,0C124.2,108.9,126.3,107.2,126.3,107.2
					z"/>
			</g>
			<g>
				<path class="st15" d="M73.3,109c0.2,1.6,1.6,3.3,3.5,4.4c-1.5-1-2.3-2.6-2.8-4C73.8,109.2,73.5,109.1,73.3,109z"/>
			</g>
			<g>
				<path class="st15" d="M84.7,114.8c-0.2-0.2-0.5-0.1-0.9-0.4c1,2.1,3.4,3.4,6.3,4C86.4,117.1,84.9,115.1,84.7,114.8z"/>
			</g>
			<g>
				<path class="st15" d="M101.6,116c1.1,0.9,3.1,1.3,5.4,1.3c-1.6-0.1-4-0.8-4.4-1.1C102.2,115.9,102.1,116,101.6,116z"/>
			</g>
			<g>
				<path class="st15" d="M116.7,113.6c-0.3-0.2-0.6,0-1.1,0c0.9,0.4,2,0.5,3.3,0.2C117.8,114,116.7,113.6,116.7,113.6z"/>
			</g>
			<g>
				<path class="st15" d="M73.3,99.6c-0.4,1-0.5,1.8-0.5,2L73.3,99.6z"/>
				<path class="st15" d="M76.8,97.1C78.2,94.3,76.8,97.1,76.8,97.1c0.8-2.3,3.2-4.4,4.6-6.1c-2.2,1.4-4.7,3.8-6.2,6.5l0,0
					c0,0,0,0,0,0c-0.5,0.8-0.8,1.7-1.1,2.6c0,0,0,0,0,0.1c0,0.2-0.1,0.3-0.1,0.5c0,0,0,0,0,0.1c0,0.1-0.1,0.3-0.1,0.4
					c0,0,0,0.1,0,0.1c0,0.2,0,0.3-0.1,0.5c0,0,0,0,0,0.1c0,0.2,0,0.3,0,0.5c0,0,0,0.1,0,0.1c0,0.2,0,0.3,0,0.5c0,0,0,0,0,0.1
					c0,0.1,0,0.3,0,0.4c0,0,0,0.1,0,0.1c0,0.1,0,0.2,0,0.3c0,0.1,0,0.2,0.1,0.3c0.1,0.3,0.2,0.7,0.3,1c0,0,0,0.1,0,0.1
					c0,0.1,0.1,0.2,0.1,0.3c0.1,0.3,0.3,0.5,0.4,0.8c0.2,0.2,0.4,0.5,0.7,0.7c0.1,0.1,0.2,0.2,0.3,0.3c0.1,0.1,0.3,0.2,0.4,0.3
					c0,0,0,0,0.1,0c0,0,0,0,0,0c0.5,0.4,1.1,0.7,1.7,0.9C75.1,106.1,75.4,99.8,76.8,97.1z"/>
			</g>
			<g>
				<path class="st15" d="M104.2,90.2c2.2,6.9,2.9,14.8,0,20.1c0.8,0.8,1.9,1.4,3.1,1.6c0,0,0,0,0,0
					C108.8,107.6,107.5,95.8,104.2,90.2z"/>
			</g>
			<g>
				<path class="st15" d="M111.7,86.9c6.2,6.8,7,12.5,5.6,21.6c1.1-0.4,1.1-0.3,2.2-0.7C119.8,96.6,115.5,90.5,111.7,86.9z"/>
			</g>
			<path class="st15" d="M88.8,108.3c0.4-0.5,0.8-0.9,0.8-1.2c0-0.7-0.4-1.4-0.8-2c0.3-3.5,1.4-7.2,2.3-9.6c1.2-2.3,2.4-4.4,3.3-6.3
				c-2.3,2.9-4.8,6.4-6.6,10.1c0,0,0,0.1-0.1,0.1c-0.2,0.3-0.3,0.6-0.4,0.9c0,0.1-0.1,0.1-0.1,0.2c-0.1,0.3-0.2,0.6-0.4,0.9
				c0,0.1-0.1,0.2-0.1,0.3c-0.1,0.3-0.2,0.5-0.3,0.8c0,0.1-0.1,0.3-0.1,0.4c0,0.1-0.1,0.3-0.1,0.4c-0.1,0.4,0.5,1.1,1,1.9
				c0,0,0,0,0,0c0,0,0,0,0,0.1c0.1,0.1,0.1,0.2,0.2,0.4c0,0.1,0,0.1,0.1,0.2c0,0.1,0.1,0.2,0.1,0.3c0,0.1,0,0.1,0,0.2
				c0,0.2,0.1,0.3,0.1,0.5c0,0.1,0,0.1-0.1,0.2c0,0,0,0.1,0,0.1c0,0.1-0.1,0.1-0.1,0.2c0,0,0,0.1-0.1,0.1c-0.1,0.1-0.1,0.2-0.2,0.3
				c0,0,0,0,0,0c0,0,0,0,0,0c-0.6,0.6-1.3,1.3-1.3,1.5c0.2,0.7,0.5,1.4,1,2.1c1.4,1.2,3.2,2.1,5.1,2.6C89.9,113.2,89,111,88.8,108.3
				z"/>
			<path class="st15" d="M77.2,118.5c-0.2-0.2-0.3-0.3-0.8-0.6c0.4,0.8,0.8,2.4,1.2,2.7c0.1,0.1,0.5,0.2,0.7,0.2
				C77.7,120.5,77.5,119,77.2,118.5z"/>
			<path class="st15" d="M73.6,117.9c0.5,0,0.1,0,0.5,0c-1.5-3.8-0.4-6.3-0.4-6.3c-0.4-0.7-0.5-0.7-0.9-1.7
				C72,110.9,71.1,114.9,73.6,117.9C73.6,117.9,73.6,117.9,73.6,117.9L73.6,117.9z"/>
			<path class="st15" d="M122.2,88.8c-0.2-0.4-0.8-1.3-1.8-2.9c0,0,0,0,0,0c0,0,0,0,0,0c-1.1-1.8-2.7-4.1-4.6-6.1
				c-0.3-0.3-0.5-0.6-0.8-0.9c-0.3-0.3-0.6-0.5-0.9-0.8c-1-1-2-1.8-2.9-2.4c0,0,0,0,0,0c-0.2-0.1-0.3-0.2-0.5-0.3
				c-0.2-0.1-0.3-0.2-0.5-0.3c-0.2-0.1-0.4-0.2-0.5-0.3c-0.2-0.1-0.3-0.2-0.5-0.3c-0.2-0.1-0.4-0.2-0.6-0.3
				c-0.1-0.1-0.2-0.1-0.3-0.2c-0.3-0.1-0.6-0.2-0.8-0.3c0,0,0,0,0,0c-4.8-1.3-9.5,0.8-20.4,5c-1,0.4-1.8,1.7-2.6,2.4
				c-0.9,0.7-1.3,1.3-1.9,1.4c-0.3,0-0.6,0-1.1-0.1c-0.3-0.1-0.6-0.1-0.9-0.2c-0.5-0.1-1-0.2-1.4-0.1c-0.1,0-0.2,0-0.2,0
				c-0.1,0-0.2,0.1-0.3,0.1c-0.1,0-0.1,0-0.2,0.1c-0.1,0.1-0.2,0.1-0.4,0.2c0,0-0.1,0-0.1,0.1c-0.1,0-0.2,0.1-0.3,0.1
				c-0.1,0-0.2,0.1-0.3,0.1C77.3,82.9,77.1,83,77,83c0,0-0.1,0-0.1,0.1c-0.1,0.1-0.2,0.1-0.3,0.2c-0.1,0-0.1,0-0.2,0.1
				c-0.1,0.1-0.2,0.1-0.3,0.2c0,0-0.1,0-0.1,0.1c0,0,0,0,0,0c0,0-0.1,0-0.1,0.1c-0.3,0.1-0.5,0.3-0.8,0.4c0,0-0.1,0-0.1,0.1
				c-0.1,0.1-0.2,0.1-0.3,0.2c0,0-0.1,0-0.1,0.1c0,0-0.1,0-0.1,0c0,0,0,0-0.1,0c-0.1,0-0.1,0.1-0.2,0.1c0,0-0.1,0-0.1,0.1
				c-0.3,0.2-0.6,0.3-0.8,0.5c0,0-0.1,0-0.1,0.1c0,0-0.1,0.1-0.1,0.1c0,0,0,0-0.1,0c0,0-0.1,0-0.1,0c0,0-0.1,0-0.1,0.1
				c-0.1,0.1-0.2,0.1-0.3,0.2c0,0-0.1,0-0.1,0.1c-0.2,0.1-0.4,0.3-0.6,0.4c0,0-0.1,0-0.1,0.1c0,0,0,0,0,0c0,0-0.1,0-0.1,0.1
				c-0.1,0.1-0.2,0.1-0.3,0.2c0,0-0.1,0-0.1,0.1c-0.1,0.1-0.2,0.1-0.3,0.2c0,0-0.1,0-0.1,0.1c-0.1,0.1-0.2,0.2-0.3,0.2c0,0,0,0,0,0
				c0,0,0,0,0,0c0,0,0,0,0,0c0,0,0,0,0,0c-2.3,1.6-3.8,3.3-4.5,5.2c-1.1,2.7-0.2,5.8,1.6,8.1c0,0,0,0,0,0c-2.5-5.1,0.5-8.8,2.7-10.8
				c2.5-2.1,5-3.7,9-5.5c0.9-0.4,3.5,0.4,4.4,0.1c0.9-0.4,2.6-3.1,3.5-3.5c7.1-2.8,12.8-4.3,16.3-4.8c0.4-0.1,0.7-0.1,1.1-0.1
				c0.1,0,0.2,0,0.3,0c0.4,0,0.7,0,1,0c0,0,0,0,0,0c0.4,0,0.7,0,1.1,0.1c0,0,0.1,0,0.1,0c0.3,0,0.7,0.1,1,0.2c0,0,0,0,0,0
				c0,0,0,0,0,0c0.2,0,0.3,0.1,0.5,0.2c0,0,0,0,0.1,0c0.3,0.1,0.6,0.2,0.9,0.4c0.9,0.4,1.9,1,2.7,1.7c0,0,0,0,0,0
				c0.4,0.3,0.9,0.7,1.3,1c0,0,0,0,0,0c0.4,0.4,0.8,0.7,1.2,1.1c3.7,3.7,6.4,8.3,7.6,9C122.3,89,122.3,88.9,122.2,88.8z"/>
			<g>
				<path class="st15" d="M124.4,79.8c0,0,0-0.1,0-0.1c0.2-0.6,0.3-1.2,0.1-1.4c-1.6-1-6.2-1.1-10.5-0.2c0,0,0.1,0.1,0.1,0.1
					c0.3,0.3,0.6,0.5,0.9,0.8c0.1,0.1,0.3,0.3,0.4,0.4l-0.4-0.4C117.2,78.5,124.6,77.7,124.4,79.8z"/>
			</g>
			<g>
				<path class="st15" d="M125.1,94.4c-0.3-0.5-1.1-0.4-1.5-0.8c-0.1,0-0.1-0.1-0.1-0.2c0,0,0,0,0,0c0,0.1,0.2,0.6,0.2,0.7
					c0.3,0.3,0.9,0.3,1.3,0.6C125,94.7,125.1,94.5,125.1,94.4z"/>
				<path class="st15" d="M125,95.9c0,0-0.1-0.1-0.1-0.1c0,0,0,0,0,0c0,0.1,0.2,0.4,0.2,0.5c0.2,0.2,0.7,0.2,0.9,0.4
					c0-0.1-0.1-0.2-0.1-0.3C125.7,96,125.2,96.1,125,95.9z"/>
			</g>
		</g>
	</g>
	<path class="st12" d="M51.1,94c4-3,7.9-18.6,10.8-18.8s6.6-1.5,8.9-4.7c2.3-3.2,3.9-4.8,7.8-7.3c3.9-2.5,3.4-5.8,5-7.2
		c1.6-1.4,7.2-2.8,11.2-4c4.1-1.1,12.7-5.7,18.7-5.9c6.5-0.2,15.7,5.1,20.3,6c-2.7-1.5-17.4-11-17.4-11l-15.4,4.4l-10.5,1.4
		l-8.5,3.2l-2.8,4.4l-2,4.2l-3.3,1.9L67,67.6l-6.2-0.3C55.9,76.2,52.3,85,51.1,94z"/>
	<path class="st8" d="M138.3,76.7c-0.6,0.4-1.1,0.6-1.5,0.9c-0.8,0.6-1.3,1.2-1.3,2c0,0.5,0.4,0.9,0.8,1.4c0.1,0.2,0.5,0.5,0.7,0.8
		c0.2,0.3,0.6,0.4,0.8,0.5c-0.9-1.3-1.5-1.9-1.6-2.6S138.3,77.1,138.3,76.7z"/>
	<g>
		<path class="st12" d="M126.3,59.9c-3.2-1.3-4.8-0.6-6.4-1.9c-1.5-1.2-4.2-0.6-6-1.2c1.4,1.3,6.1,3.3,6.1,3.3l0.6,0.4l1.5-0.4
			C122,60.3,122.9,59.7,126.3,59.9z"/>
		<path class="st8" d="M126.9,60.1c-2.6-1-4.7-0.5-6.3-0.1c-1.5-0.9-2.5-1.3-3.7-1.7c-1.2-0.3-2.9-1.5-3.8-1.9
			c1,1.2,2.5,2.7,4.5,3.2c1.7,0.5,1.9,1,2.5,1.2s0.8,0.2,1.8-0.2C122.9,60.3,124.4,59.8,126.9,60.1z"/>
	</g>
	<path class="st8" d="M94.2,149c6.5-2.3,21.6-8.1,29.3-7.1c-1.4,2.8-1.4,2.8-1.4,2.8l-22.1,5.7L94.2,149z"/>
	<path class="st8" d="M123.6,142c0.7,0.1,6.9,1.8,7.9,2.4c-0.9,0.7-1.1,0.8-1.1,0.8l-7.8-1.5L123.6,142z"/>
	<path class="st4" d="M61.7,146.6c-0.5,0.1-1.4,0.3-2.5,0.1C60.3,146.9,61.2,146.7,61.7,146.6z"/>
	<path class="st4" d="M85.2,151.2c-1.4,0.3-5.1-0.9-8.8-1.1c-3-0.1-9.4,0.4-9.7-0.4c-0.3-0.9-10.9-0.9-12.1-3.6
		c-0.7,0.2-1.8,0.6-1.6,0.8c1.3,1.3,10.3,4.1,11,5c0.7,1,14.8,0.3,19.2,1.1c3.4-0.7,6.6-1.6,9.7-2.5
		C89.8,150.7,86.5,150.9,85.2,151.2z"/>
	<path class="st8" d="M138.8,83.8c0.1,0.1,0.2,0.2,0.3,0.3C138.9,84,138.8,83.9,138.8,83.8z"/>
	<path class="st7" d="M136.2,142.3c0,0-0.1,0.1-0.1,0.1C136.1,142.4,136.1,142.4,136.2,142.3z"/>
	<path class="st7" d="M136.7,141.8C136.7,141.8,136.6,141.9,136.7,141.8C136.6,141.9,136.7,141.8,136.7,141.8z"/>
	<path class="st7" d="M136.4,139.3c0.7-2.1,10.2-20.1,11.7-23.7c1.4-3.5,0.8-21.7,2-24.9c1.2-3.2-0.3-16.6-0.8-19.6
		c-0.5-3-8.7-17.8-12-20.8c-1.9-1.8-9.1-5.6-10.9-6.1c-0.3-0.1-0.8-0.3-1.3-0.5c5.1,3.1,10.6,7.5,12,10.9c2,4.8,4.4,9.3,3.7,19
		c-0.1,1.5-1.5,2.3-1.5,2.3c0.1-1,0.4-8.5,0-9.7c-0.4-1.1-2-9.7-5.6-12.7c-7.3-6-13.5-9.7-16.2-11c-2.7-1.2-18.4,4.3-21.8,4.4
		c-2.3,0-8.7,2.9-13.3,4.5c-0.6,0.2-1,0.7-1.2,1.3c-0.9,3.2-2.1,6-3.7,6.6c-3.8,1.5-8.3,8.6-10.1,9.1c-0.5,0.1-2.7-0.1-5.1-0.4
		c-0.7-0.1-1.4,0.3-1.6,1c-1.1,2.8-2.3,6.1-4,8.9c-3.2,5.3-5.8,20.1-5.9,20.6c0,0,0,0,0,0c-0.1,0.4-2.5,11.2-1.3,13.2
		c1.3,2.4,3,11,5.4,13.7c1.3,1.4,1.1,4.5,1.8,6.7c0.3,0.7-3,3.6-2.9,5.5c0.1,1.2,2.4,6,3.1,8c2.4,2,4.5,0.9,5.1,0.9
		c3,0.3,5.1,1.9,7.1,2c0.4,0,6.3-0.1,7.2-0.2c2.1-0.3,13.9,0.9,15.5,0.6c1.4-0.2,4.3-0.2,7.1-0.2c8.5-2.8,16-5.5,22.8-5.6
		c0.9-1.3,1.6-2.2,1.7-2.7c0.9-3.8,11.2-17.6,11-19.4c-0.2-1.8,2-14.7,1.8-17.2c-0.2-2.5,1.7-12.7,1.9-13.7s0.3-5,0.4-6.3
		c0,0,0.8,0.7,1,1.6c0.2,0.9-0.3,3.4-0.3,5.3c0,1.9-1.5,4.2-1.1,6.6c0.4,2.5-1,7.8-0.7,9.8c0.3,2-1.4,6.6-1.3,8.6
		c0.1,2-0.7,8.8-2.3,10.8c-1,1.3-5.8,7.7-6.8,10.4c-0.2,0.7-2.1,3.6-3.8,6.3c1.7,0.2,3.9,0.7,6.4,1.4c1.8-0.9,3.5-1.7,4.6-2.6
		C135.8,140.8,136.3,139.6,136.4,139.3z"/>
	<path class="st8" d="M136,142.5c0.1,0,0.1-0.1,0.1-0.1c0.2-0.1,0.3-0.3,0.4-0.4c0,0,0.1-0.1,0.1-0.1c0.3-0.4,0.6-0.7,0.9-1.1
		c0.9-1.4,1.1-2.6,1.3-3.3c1.4-5.8,8.7-12.6,9.8-17.1c1.4-5.4,1.3-14.5,2.2-17.2c0.9-2.7,0.4-13.9,1-21.4c0.6-7.6-3.2-12.8-4.1-17.6
		c-0.9-4.8-9.4-13.7-10.9-16c-1.5-2.4-12.3-7.4-18.2-7.7c0,0,0,0,0.1,0.1c-5.7-1.7-18,4.4-22.6,4.4c-4.2,0-8.6,2.7-13.9,4.3
		c-0.7,0.2-1.4,0.4-2.1,0.6c-0.2,0.2-0.4,0.4-0.7,0.6c-0.2,0.8-0.4,1.5-0.6,2.3c-0.8,2.8-1.9,5.2-3.3,5.7c-3.5,1.4-7.7,8-9.4,8.4
		c-0.4,0.1-2.6-0.1-4.3-0.3c-0.5-0.1-1-0.1-1.3-0.1c-0.4,0-0.7,0.1-0.9,0.5c-0.1,0.2-0.3,0.5-0.4,0.8c0,0,0,0,0,0c0,0,0,0,0,0
		c0,0,0,0,0,0c0,0,0,0,0,0c0,0,0,0,0,0C56.9,72,55,77,53.7,79.7c-2.5,5.1-4.8,25.8-6.2,29.3c-0.6,1.4,2.2,9.9,3.7,14.3
		c0.4,1.3,0.5,5.1,2.8,8c0.6,0.7-3.6,5-3,5.6c1.7,2.1,3.2,8.1,3.5,9.2c1,2.8,11.8,2.8,12.1,3.6c0.3,0.8,6.7,0.3,9.7,0.4
		c3.7,0.1,7.4,1.4,8.8,1.1c1.3-0.3,4.6-0.5,7.7-0.6c2.1-0.6,4.2-1.3,6.2-2c-2.8,0-5.8,0-7.1,0.2c-1.6,0.3-13.4-0.9-15.5-0.6
		c-1,0.1-6.9,0.2-7.2,0.2c-2-0.1-4.1-1.7-7.1-2c-0.6-0.1-2.7,1-5.1-0.9c-0.7-2-3-6.8-3.1-8c-0.1-1.9,3.1-4.7,2.9-5.5
		c-0.7-2.2-0.5-5.3-1.8-6.7c-2.4-2.7-4-11.3-5.4-13.7c-1.1-2,1.2-12.8,1.3-13.2c0,0,0,0,0,0c0.1-0.5,2.7-15.3,5.9-20.6
		c1.7-2.8,2.9-6.1,4-8.9c0.3-0.7,0.9-1.1,1.6-1c2.4,0.3,4.6,0.5,5.1,0.4c1.8-0.5,6.3-7.6,10.1-9.1c1.6-0.6,2.8-3.4,3.7-6.6
		c0.2-0.6,0.6-1,1.2-1.3c4.6-1.6,11-4.5,13.3-4.5c3.3-0.1,19.1-5.6,21.8-4.4c2.7,1.2,9,5,16.2,11c3.6,3,5.2,11.5,5.6,12.7
		c0.4,1.1,0.1,8.7,0,9.7c0,0,1.3-0.7,1.5-2.3c0.7-9.8-1.7-14.2-3.7-19c-1.4-3.4-6.9-7.8-12-10.9c0.5,0.2,1,0.4,1.3,0.5
		c1.8,0.5,9,4.4,10.9,6.1c3.3,3,11.5,17.9,12,20.8c0.5,3,2,16.4,0.8,19.6c-1.2,3.2-0.6,21.4-2,24.9c-1.5,3.7-11,21.6-11.7,23.7
		c-0.1,0.2-0.6,1.5-2.1,2.6c-1.1,0.9-2.8,1.7-4.6,2.6c0.6,0.2,1.1,0.3,1.7,0.5c1.5-0.7,3-1.4,3.9-2.1
		C135.6,142.8,135.8,142.7,136,142.5z"/>
	<path class="st8" d="M133.9,126.4c1.6-2,2.4-8.8,2.3-10.8c-0.1-2,1.5-6.6,1.3-8.6c-0.3-2,1.1-7.3,0.7-9.8c-0.4-2.5,1.1-4.7,1.1-6.6
		c0-1.9,0.5-4.4,0.3-5.3c-0.2-0.9-1-1.6-1-1.6c-0.1,1.3-0.2,5.2-0.4,6.3s-2.1,11.2-1.9,13.7c0.2,2.5-1.9,15.4-1.8,17.2
		c0.2,1.8-10.1,15.7-11,19.4c-0.1,0.5-0.8,1.4-1.7,2.7c0.1,0,0.2,0,0.3,0c0.4,0,0.7,0,1.1,0.1c1.7-2.7,3.6-5.6,3.8-6.3
		C128.1,134.2,133,127.7,133.9,126.4z"/>
	<polygon class="st7" points="160.4,152.8 160.4,152.8 160.4,152.8 	"/>
	<path class="st7" d="M91,150.7c-0.1,0-0.2,0-0.3,0c-0.3,0-0.6,0-0.9,0c-0.1,0-0.1,0-0.2,0c-0.3,0-0.5,0-0.8,0c-0.1,0-0.1,0-0.2,0
		c-0.4,0-0.9,0.1-1.3,0.1c0,0,0,0,0,0c-0.3,0-0.6,0.1-0.9,0.1c0,0,0,0,0,0c-0.3,0-0.5,0.1-0.8,0.1c-0.2,0-0.4,0.1-0.6,0.1
		c-1.4,0.3-5.1-0.9-8.8-1.1c-3-0.1-9.4,0.4-9.7-0.4c0,0,0-0.1-0.1-0.1c0,0,0,0,0,0c0,0-0.1,0-0.1-0.1c-0.1,0-0.1-0.1-0.2-0.1
		c0,0,0,0,0,0c-0.1,0-0.2,0-0.2-0.1c-0.1,0-0.1,0-0.2-0.1c-0.2,0-0.3-0.1-0.5-0.1c0,0,0,0,0,0c-0.2,0-0.4-0.1-0.6-0.1c0,0,0,0,0,0
		c-0.2,0-0.4-0.1-0.6-0.1c0,0,0,0,0,0c-0.2,0-0.4-0.1-0.7-0.1c-1.6-0.2-3.4-0.5-5-0.9c-1.3-0.3-2.4-0.7-3.1-1.2c0,0,0,0,0,0
		c-0.1-0.1-0.3-0.2-0.4-0.3c0,0,0,0,0,0c-0.1-0.1-0.2-0.3-0.3-0.4c0,0,0,0,0,0c-0.7,0.2-1.8,0.6-1.6,0.8c1.3,1.3,10.3,4.1,11,5
		c0.7,1,14.8,0.3,19.2,1.1c3.4-0.7,6.6-1.6,9.7-2.5c-0.1,0-0.3,0-0.4,0c-0.2,0-0.5,0-0.7,0C91.5,150.7,91.3,150.7,91,150.7z"/>
	<path class="st16" d="M66.3,149.5C66.3,149.5,66.3,149.5,66.3,149.5C66.3,149.5,66.3,149.5,66.3,149.5z"/>
	<path class="st16" d="M95,148.7C95,148.7,95,148.7,95,148.7c0,0,0.1,0,0.1,0C95.1,148.7,95,148.7,95,148.7z"/>
	<path class="st16" d="M96.4,148.7c0,0-0.1,0-0.1,0C96.3,148.7,96.3,148.7,96.4,148.7C96.4,148.7,96.4,148.7,96.4,148.7z"/>
	<path class="st16" d="M97.1,148.7C97.1,148.7,97.1,148.7,97.1,148.7c0.1,0,0.1,0,0.2,0C97.2,148.7,97.2,148.7,97.1,148.7z"/>
	<path class="st16" d="M56.8,145.1c0,0,0-0.1,0-0.1C56.7,145,56.8,145.1,56.8,145.1C56.8,145.1,56.8,145.1,56.8,145.1z"/>
	<path class="st16" d="M56.6,144.6C56.5,144.6,56.5,144.6,56.6,144.6C56.5,144.6,56.5,144.6,56.6,144.6
		C56.6,144.6,56.6,144.6,56.6,144.6z"/>
	<path class="st16" d="M136.7,141.8c0.3-0.4,0.6-0.7,0.8-1.1C137.3,141.1,137,141.5,136.7,141.8z"/>
	<path class="st16" d="M183.6,154.9L183.6,154.9C183.6,154.9,183.5,154.9,183.6,154.9c-2.9-0.2-6.5-0.3-10.7-0.5
		c-2.9-0.2-5.8-0.6-8.5-1c-1.4-0.2-2.7-0.4-4-0.7c0,0,0,0,0,0c0,0,0,0,0,0c-12.2-2.2-21.9-5.6-28.9-7.7c-0.6-0.2-1.2-0.4-1.7-0.5
		c0,0,0,0,0,0c-0.6-0.2-1.2-0.3-1.7-0.5c0,0-0.1,0-0.1,0c-1.1-0.3-2.2-0.5-3.1-0.7c0,0,0,0-0.1,0c-0.9-0.2-1.8-0.3-2.5-0.3
		c-0.1,0-0.2,0-0.3,0c0,0,0,0,0,0c-1.2,0-2.5,0.1-3.8,0.3c-0.1,0-0.2,0-0.2,0c-0.4,0.1-0.8,0.1-1.2,0.2c-0.1,0-0.2,0-0.2,0
		c-1.7,0.3-3.4,0.7-5.2,1.2c-0.1,0-0.2,0-0.3,0.1c-0.4,0.1-0.8,0.2-1.2,0.3c-0.1,0-0.2,0.1-0.3,0.1c-1.3,0.4-2.7,0.8-4.1,1.3
		c-0.1,0-0.1,0-0.2,0.1c-0.4,0.1-0.8,0.3-1.2,0.4c-0.2,0.1-0.3,0.1-0.5,0.2c-0.5,0.2-1.1,0.4-1.6,0.5c-0.3,0.1-0.6,0.2-0.8,0.3
		c-0.5,0.2-1,0.3-1.5,0.5c-0.2,0-0.3,0.1-0.5,0.1c-2,0.7-4,1.3-6.2,2c-0.1,0-0.3,0-0.4,0c0.1,0,0.3,0,0.4,0
		c-3.1,0.9-6.3,1.8-9.7,2.5c-4.4-0.8-18.5-0.1-19.2-1.1c-0.7-0.9-9.7-3.7-11-5c-0.2-0.2,0.9-0.6,1.6-0.8c0,0,0,0,0,0
		c0,0,0-0.1,0-0.1c-0.1-0.3-0.3-1.1-0.6-2.1c-14.2,4.6-29.8,10.3-37.5,10.9h0.1c0,0-0.1,0-0.1,0C34.3,182.1,65,200,100,200
		C135,200,165.7,182.1,183.6,154.9C183.6,154.9,183.6,154.9,183.6,154.9z"/>
	<path class="st16" d="M56.3,144c0,0,0-0.1-0.1-0.1c0,0,0,0,0,0C56.3,143.9,56.3,143.9,56.3,144C56.3,144,56.3,144,56.3,144z"/>
	<path class="st8" d="M88.7,150.8C88.7,150.8,88.7,150.8,88.7,150.8c0,0,0.1,0,0.1,0C88.8,150.8,88.8,150.8,88.7,150.8z"/>
	<path class="st8" d="M58.3,148.1c1.6,0.4,3.5,0.7,5,0.9C61.7,148.8,59.9,148.5,58.3,148.1z"/>
	<polygon class="st8" points="87.4,150.9 87.4,150.9 87.4,150.9 	"/>
	<path class="st8" d="M66,149.4c-0.1,0-0.1,0-0.2-0.1c0,0,0,0,0,0C65.9,149.4,66,149.4,66,149.4C66,149.4,66,149.4,66,149.4z"/>
	<path class="st8" d="M66.6,149.6C66.5,149.6,66.5,149.6,66.6,149.6C66.5,149.6,66.5,149.6,66.6,149.6
		C66.5,149.6,66.5,149.6,66.6,149.6C66.6,149.6,66.6,149.6,66.6,149.6z"/>
	<path class="st8" d="M66.6,149.7L66.6,149.7C66.6,149.7,66.7,149.7,66.6,149.7C66.7,149.7,66.6,149.7,66.6,149.7z"/>
	<path class="st8" d="M91.9,148.9c0.1,0,0.3,0,0.5-0.1C92.2,148.9,92,148.9,91.9,148.9z"/>
	<path class="st8" d="M54.8,146.6c-0.1-0.1-0.2-0.3-0.3-0.4l0,0C54.6,146.3,54.7,146.4,54.8,146.6z"/>
	<path class="st8" d="M54.6,146.2L54.6,146.2c0.1,0.1,0.1,0.3,0.3,0.4c0.1,0.1,0.2,0.2,0.4,0.3c0,0,0,0,0,0c0.7,0.5,1.8,0.9,3.1,1.2
		c1.6,0.4,3.5,0.7,5,0.9c0.2,0,0.5,0.1,0.7,0.1c0,0,0,0,0,0c0.2,0,0.4,0.1,0.6,0.1c0,0,0,0,0,0c0.2,0,0.4,0.1,0.6,0.1c0,0,0,0,0,0
		c0.2,0,0.3,0.1,0.5,0.1c0,0,0,0,0,0c0,0,0,0,0,0c0.1,0,0.1,0,0.2,0.1c0,0,0,0,0,0c0,0,0,0,0,0c0.1,0,0.1,0,0.2,0.1c0,0,0,0,0,0
		c0,0,0,0,0,0c0,0,0,0,0,0c0,0,0.1,0,0.1,0.1c0,0,0,0,0,0c0,0,0,0,0,0c0,0,0.1,0,0.1,0.1c0,0,0,0,0,0c0,0,0,0,0,0h0
		c0,0,0.1,0.1,0.1,0.1c0.3,0.8,6.7,0.3,9.7,0.4c3.7,0.1,7.4,1.4,8.8,1.1c0.2,0,0.4-0.1,0.6-0.1c0.2,0,0.5-0.1,0.8-0.1c0,0,0,0,0,0
		c0.3,0,0.6-0.1,0.9-0.1c0,0,0,0,0,0c0,0,0,0,0,0c0.4,0,0.8-0.1,1.3-0.1c0,0,0,0,0.1,0c0,0,0.1,0,0.1,0c0.3,0,0.5,0,0.8,0
		c0.1,0,0.1,0,0.2,0c0.3,0,0.6,0,0.9,0c0.1,0,0.2,0,0.3,0c0.3,0,0.5,0,0.8,0c0.2,0,0.5,0,0.7,0c0.1,0,0.3,0,0.4,0
		c2.1-0.6,4.2-1.3,6.2-2c-0.6,0-1.2,0-1.8,0c-0.1,0-0.1,0-0.2,0c-0.2,0-0.5,0-0.7,0c0,0-0.1,0-0.1,0c-0.4,0-0.7,0-1.1,0
		c0,0-0.1,0-0.1,0c-0.2,0-0.4,0-0.6,0c-0.1,0-0.2,0-0.3,0c0,0,0,0,0,0c-0.2,0-0.3,0-0.5,0c0,0,0,0,0,0c-0.1,0-0.2,0-0.3,0
		c0,0,0,0,0,0c-0.2,0-0.3,0-0.5,0c0,0,0,0,0,0c0,0-0.1,0-0.1,0c-0.1,0-0.2,0-0.3,0c-0.2,0-0.3,0-0.5,0.1c-1.6,0.3-13.4-0.9-15.5-0.6
		c-1,0.1-6.9,0.2-7.2,0.2c-2-0.1-4.1-1.7-7.1-2c-0.6-0.1-2.7,1-5.1-0.9c0-0.1-0.1-0.3-0.2-0.5c0,0,0-0.1,0-0.1c0,0,0,0,0,0
		c0,0,0,0,0,0c0-0.1-0.1-0.2-0.2-0.4c0,0,0,0,0,0c-0.1-0.2-0.1-0.4-0.2-0.6c0,0,0-0.1-0.1-0.1c-0.1-0.2-0.2-0.4-0.2-0.6
		c-0.7,0.2-1.4,0.5-2.1,0.7C54.2,145,54.4,145.8,54.6,146.2C54.5,146.1,54.6,146.1,54.6,146.2z"/>
	<path class="st8" d="M66.3,149.5c-0.1,0-0.1,0-0.2-0.1c0,0,0,0,0,0C66.1,149.5,66.2,149.5,66.3,149.5
		C66.3,149.5,66.3,149.5,66.3,149.5z"/>
	<path class="st8" d="M66.4,149.6c0,0-0.1,0-0.1-0.1c0,0,0,0,0,0C66.4,149.5,66.4,149.6,66.4,149.6
		C66.5,149.6,66.5,149.6,66.4,149.6z"/>
	<path class="st8" d="M65.8,149.4c-0.1,0-0.3-0.1-0.5-0.1C65.5,149.3,65.7,149.3,65.8,149.4C65.8,149.4,65.8,149.4,65.8,149.4z"/>
	<path class="st8" d="M94.4,148.7c-0.1,0-0.2,0-0.3,0c0,0,0,0,0,0C94.2,148.7,94.3,148.7,94.4,148.7z"/>
	<path class="st8" d="M93.5,148.8C93.6,148.8,93.6,148.8,93.5,148.8c-0.1,0-0.2,0-0.3,0c0,0,0,0,0,0
		C93.3,148.8,93.4,148.8,93.5,148.8z"/>
	<path class="st8" d="M56.7,145C56.7,145,56.7,145,56.7,145C56.7,145,56.7,145,56.7,145C56.7,145,56.7,145,56.7,145z"/>
	<path class="st8" d="M92.7,148.8c0,0-0.1,0-0.1,0C92.7,148.8,92.7,148.8,92.7,148.8C92.7,148.8,92.7,148.8,92.7,148.8z"/>
	<path class="st8" d="M55.2,146.9c0.7,0.5,1.8,0.9,3.1,1.2C57,147.8,55.9,147.4,55.2,146.9z"/>
	<path class="st8" d="M56.5,144.4c-0.1-0.1-0.1-0.3-0.2-0.4c0.1,0.2,0.2,0.4,0.2,0.6C56.5,144.5,56.5,144.5,56.5,144.4z"/>
	<path class="st8" d="M92.5,148.8c0,0-0.1,0-0.1,0c0.1,0,0.2,0,0.3,0C92.6,148.8,92.5,148.8,92.5,148.8z"/>
	<path class="st8" d="M99,148.7c-0.6,0-1.1,0-1.7,0c0,0-0.1,0-0.1,0C97.9,148.7,98.4,148.7,99,148.7L99,148.7z"/>
	<path class="st8" d="M55.2,146.9c-0.1-0.1-0.3-0.2-0.4-0.3c0,0,0,0,0,0C54.9,146.7,55.1,146.8,55.2,146.9z"/>
	<path class="st8" d="M94.4,148.7C94.4,148.7,94.4,148.7,94.4,148.7c0.1,0,0.3,0,0.6,0C94.8,148.7,94.6,148.7,94.4,148.7z"/>
	<path class="st8" d="M96,148.7c-0.2,0-0.4,0-0.6,0c-0.1,0-0.2,0-0.2,0c0.4,0,0.7,0,1.1,0C96.2,148.7,96.1,148.7,96,148.7z"/>
	<path class="st4" d="M164.4,153.5c-1.4-0.2-2.7-0.4-4-0.7C161.7,153,163.1,153.2,164.4,153.5z"/>
	<path class="st4" d="M146.2,143c-3.9-1.8-5.8-2.1-8.6-2.3c0,0,0,0,0,0c0,0,0,0,0,0c-0.2,0.3-0.5,0.7-0.8,1.1c0,0-0.1,0.1-0.1,0.1
		c-0.1,0.1-0.3,0.3-0.4,0.4c0,0-0.1,0.1-0.1,0.1c-0.2,0.2-0.4,0.4-0.6,0.5c-0.9,0.7-2.4,1.4-3.9,2.1c7.1,2.2,16.8,5.5,28.9,7.7
		c0,0,0,0,0,0c1.3,0.2,2.6,0.5,4,0.7C159.6,151,152.6,146,146.2,143z"/>
	<path class="st4" d="M137.6,140.7c-0.2,0.4-0.5,0.7-0.9,1.1C137,141.4,137.3,141.1,137.6,140.7z"/>
	<path class="st4" d="M136,142.5c-0.2,0.2-0.4,0.4-0.6,0.5C135.6,142.8,135.8,142.7,136,142.5z"/>
	<path class="st4" d="M136.6,141.9c-0.1,0.1-0.3,0.3-0.4,0.4C136.3,142.2,136.5,142,136.6,141.9z"/>
</g>
</svg>
