<?xml version="1.0" encoding="utf-8"?>
<!-- Generator: Adobe Illustrator 24.1.3, SVG Export Plug-In . SVG Version: 6.00 Build 0)  -->
<svg version="1.1" id="图层_1" xmlns="http://www.w3.org/2000/svg" xmlns:xlink="http://www.w3.org/1999/xlink" x="0px" y="0px"
	 viewBox="0 0 200 200" style="enable-background:new 0 0 200 200;" xml:space="preserve">
<style type="text/css">
	.st0{fill-rule:evenodd;clip-rule:evenodd;fill:#1E253D;stroke:#979797;}
	.st1{fill:url(#Combined-Shape_1_);stroke:#38D0FE;stroke-width:0.2;}
</style>
<desc>Created with Sketch.</desc>
<g id="Artboard">
	<rect id="Rectangle" x="0.5" y="0.5" class="st0" width="199" height="199"/>
	<g id="Combined-Shape-3" transform="translate(10.000000, 10.000000)">
		
			<linearGradient id="Combined-Shape_1_" gradientUnits="userSpaceOnUse" x1="-863.7278" y1="628.5611" x2="-863.7278" y2="627.5389" gradientTransform="matrix(180 0 0 -180 155561 113141)">
			<stop  offset="0" style="stop-color:#34C6F8"/>
			<stop  offset="1" style="stop-color:#C83AFA"/>
		</linearGradient>
		<path id="Combined-Shape" class="st1" d="M104.4,77.7C104.4,77.7,104.4,77.7,104.4,77.7c2.3,2.2,11.8,10.7,21.3,10.7
			c9.2,0,15.1-5.5,22.3-12c3.4-3.3,8-5.3,13.2-5.3c10.4,0,18.9,8.5,18.9,18.9s-8.5,18.9-18.9,18.9c-3.5,0-6.8-1-9.6-2.6
			c0,0,0,0-0.1,0c-0.1-0.1-0.2-0.2-0.4-0.3c-1.5-0.9-2.8-2.1-4-3.3c-5.4-4.8-13.1-11.3-21.4-10.8c-10.9,0.6-16.8,7.1-23.7,12.8
			c0,0,0,0,0,0c-3.3,2.7-7.4,4.2-11.9,4.2c-10.4,0-18.9-8.5-18.9-18.9S79.6,71.1,90,71.1C95.7,71.1,100.9,73.7,104.4,77.7z
			 M67.7,112.9c3.5,3.1,12.3,11.6,21.5,11.6c8.8,0,16.3-5.4,23-11.5c0.7-0.7,1.4-1.4,2.2-2c0.2-0.2,0.3-0.3,0.5-0.5
			c0.1,0,0.2-0.1,0.3-0.1c3.1-2.2,6.8-3.5,10.9-3.5c10.4,0,18.9,8.5,18.9,18.9s-8.5,18.9-18.9,18.9c-3.1,0-6-0.7-8.6-2.1
			c0,0-0.1,0-0.1,0c-0.1-0.1-0.2-0.2-0.4-0.3c-1.8-1-3.4-2.2-4.7-3.7c-5.8-4.5-15.1-11-22.2-11c-9.5,0-16.3,6.2-23.1,12
			c-3.4,3.1-7.9,5.1-12.9,5.1c-10.4,0-18.9-8.5-18.9-18.9c0-4.7,1.7-8.9,4.5-12.2c0,0,0,0,0,0c0,0,0,0,0.1-0.1
			c0.5-0.6,1-1.1,1.6-1.6c3.6-4,10.9-13.3,10.9-22.5c0-11.1-10.9-21.4-12.7-23.5c-0.1-0.1-0.1-0.2,0-0.3c-2.2-3.1-3.4-6.8-3.4-10.8
			C36,44.5,44.5,36,54.9,36c5.4,0,10.2,2.2,13.7,5.8c5.1,4.7,11.8,10.5,21.4,10.5c10,0,20.1-8,23.3-11.5c0,0,0,0,0,0
			c3.3-3,7.8-4.8,12.6-4.8c10.4,0,18.9,8.5,18.9,18.9s-8.5,18.9-18.9,18.9c-6.9,0-13-3.7-16.3-9.3c-4.5-3.9-11.4-8.1-19.7-8.1
			c-11.7,0-18.3,7.9-20.7,10.7c-0.8,0.9-1.6,1.7-2.5,2.5c-2.3,2.1-10.4,11.3-10.4,19.1c0,7.7,6.2,18.2,11.1,24.1
			C67.6,112.9,67.6,112.9,67.7,112.9z M18.9,108.9C8.5,108.9,0,100.4,0,90s8.5-18.9,18.9-18.9S37.8,79.6,37.8,90
			S29.3,108.9,18.9,108.9z M90,37.8c-10.4,0-18.9-8.5-18.9-18.9S79.6,0,90,0s18.9,8.5,18.9,18.9S100.4,37.8,90,37.8z M90,180
			c-10.4,0-18.9-8.5-18.9-18.9c0-10.4,8.5-18.9,18.9-18.9s18.9,8.5,18.9,18.9C108.9,171.5,100.4,180,90,180z"/>
	</g>
</g>
</svg>
