<svg xmlns="http://www.w3.org/2000/svg" width="201.174" height="59.536" viewBox="0 0 201.174 59.536">
  <g id="Group_187" data-name="Group 187" transform="translate(0 0)">
    <g id="Group_186" data-name="Group 186" transform="translate(0 0)">
      <path id="Path_1303" data-name="Path 1303" d="M1040.341,163.677h8.253c-1.1,2.956-3.8,4.765-7.9,4.765-6,0-9.708-3.839-9.708-9.09a9.282,9.282,0,0,1,16.638-5.649l6-3.442a15.8,15.8,0,0,0-13.5-7.061,16.02,16.02,0,0,0-16.2,16.107c0,8.87,6.973,16.02,16.681,16.02,8.65,0,15.225-5.736,15.225-15.181V157.5h-15.49Z" transform="translate(-1023.924 -124.022)" fill="#230541"/>
      <path id="Path_1304" data-name="Path 1304" d="M1145.33,157.207c-3.133,0-5.164,1.147-6.4,2.913a6.565,6.565,0,0,0-5.78-2.913c-2.957,0-4.9,1.147-5.914,2.648v-2.03h-6.62V179.89h6.62V167.446c0-2.6,1.236-4.149,3.442-4.149,2.118,0,3.177,1.412,3.177,3.618V179.89h6.62V167.446c0-2.6,1.236-4.149,3.442-4.149,2.118,0,3.177,1.412,3.177,3.618V179.89h6.62V166.342C1153.714,160.826,1150.4,157.207,1145.33,157.207Z" transform="translate(-1059.691 -129.203)" fill="#230541"/>
      <rect id="Rectangle_76" data-name="Rectangle 76" width="6.62" height="22.065" transform="translate(97.524 28.622)" fill="#230541"/>
      <path id="Path_1305" data-name="Path 1305" d="M1195.58,152.623h-2.956v6.354h2.956v15.711h6.62V158.978h4.1v-6.354h-4.1c0-2.559,1.633-3.31,4.1-3.089v-6.355C1198.979,142.737,1195.58,146.444,1195.58,152.623Z" transform="translate(-1086.327 -124.001)" fill="#230541"/>
      <path id="Path_1306" data-name="Path 1306" d="M1230.815,158.188l-4.148,13.5-4.9-13.5h-7.282l8.782,21.05c-.971,2.692-2.427,3.663-5.516,3.663v6.178c6.178.309,10.106-2.471,12.577-9.488l7.546-21.4Z" transform="translate(-1094.414 -129.566)" fill="#230541"/>
      <g id="Group_153" data-name="Group 153" transform="translate(87.872)">
        <ellipse id="Ellipse_25" data-name="Ellipse 25" cx="3.738" cy="3.738" rx="3.738" ry="3.738" transform="translate(9.224 18.448)" fill="#230541"/>
        <ellipse id="Ellipse_26" data-name="Ellipse 26" cx="3.738" cy="3.738" rx="3.738" ry="3.738" transform="translate(0 9.224)" fill="#230541"/>
        <ellipse id="Ellipse_27" data-name="Ellipse 27" cx="3.738" cy="3.738" rx="3.738" ry="3.738" transform="translate(9.224)" fill="#230541"/>
        <ellipse id="Ellipse_28" data-name="Ellipse 28" cx="3.738" cy="3.738" rx="3.738" ry="3.738" transform="translate(18.448 9.224)" fill="#230541"/>
      </g>
      <path id="Path_1307" data-name="Path 1307" d="M1094.138,157.825V159.9a8.287,8.287,0,0,0-6.575-2.692c-5.782,0-10.548,5.075-10.548,11.651s4.766,11.65,10.548,11.65a8.286,8.286,0,0,0,6.575-2.692v2.074h6.62V157.825Zm2.266,11.8a1.509,1.509,0,0,1-1.509,1.509h-2.227a1.509,1.509,0,0,0-1.509,1.509v2.227a1.509,1.509,0,0,1-1.509,1.509h-1.527a1.509,1.509,0,0,1-1.509-1.509v-2.227a1.51,1.51,0,0,0-1.509-1.509h-2.228a1.509,1.509,0,0,1-1.509-1.509v-1.527a1.509,1.509,0,0,1,1.509-1.509h2.228a1.509,1.509,0,0,0,1.509-1.509v-2.227a1.509,1.509,0,0,1,1.509-1.51h1.527a1.509,1.509,0,0,1,1.509,1.51v2.227a1.509,1.509,0,0,0,1.509,1.509h2.227a1.509,1.509,0,0,1,1.509,1.509Z" transform="translate(-1043.563 -129.203)" fill="#230541"/>
    </g>
    <g id="Group_154" data-name="Group 154" transform="translate(143.558 14.05)">
      <path id="Path_1308" data-name="Path 1308" d="M1322.642,155.737a1.2,1.2,0,0,0-.558-1.5,1.02,1.02,0,0,0-.848-.026l-1.882.7.782,2.1,1.881-.7A1.063,1.063,0,0,0,1322.642,155.737Z" transform="translate(-1276.763 -142.116)" fill="#4e3bd3"/>
      <path id="Path_1309" data-name="Path 1309" d="M1324.661,160.051a1.166,1.166,0,0,0-.907-.019l-2.167.807.837,2.249,2.168-.807a1.116,1.116,0,0,0,.669-.621,1.173,1.173,0,0,0,.014-.921A1.221,1.221,0,0,0,1324.661,160.051Z" transform="translate(-1277.588 -144.268)" fill="#4e3bd3"/>
      <path id="Path_1310" data-name="Path 1310" d="M1309.125,157.344,1301.8,137.65a3.971,3.971,0,0,0-5.108-2.337L1258.827,149.4a3.97,3.97,0,0,0-2.366,2.417L1251.98,164.7a3.972,3.972,0,0,0,1.766,4.746l11.81,6.816a3.973,3.973,0,0,0,3.37.282l37.861-14.089A3.972,3.972,0,0,0,1309.125,157.344Zm-49.778,9.68a2.218,2.218,0,1,1,1.3-2.852A2.218,2.218,0,0,1,1259.346,167.024Zm15.526-3.537a5.193,5.193,0,0,1-2.171,1.507,5.3,5.3,0,1,1-3.693-9.925,5.2,5.2,0,0,1,2.628-.28,4.674,4.674,0,0,1,2.313,1l-1.273,1.544a2.791,2.791,0,0,0-2.988-.44,3.2,3.2,0,0,0-1.925,1.71,3.38,3.38,0,0,0,0,2.578,3.344,3.344,0,0,0,1.682,1.934,3.2,3.2,0,0,0,2.575.035,3.245,3.245,0,0,0,1.349-.921,2.544,2.544,0,0,0,.63-1.352l1.972.336A4.656,4.656,0,0,1,1274.873,163.486Zm3.719-.9-3.551-9.543,1.881-.7,2.882,7.743,3.64-1.354.669,1.8Zm13.005-5.647a4.563,4.563,0,0,1-5.248,1.953,3.258,3.258,0,0,1-1.921-2.033l-2.39-6.421,1.868-.7,2.333,6.271a1.605,1.605,0,0,0,2.377.963c1.186-.441,1.569-1.2,1.168-2.282l-2.333-6.271,1.882-.7,2.389,6.421A3.256,3.256,0,0,1,1291.6,156.937Zm9.642-3.666a3.245,3.245,0,0,1-1.823,1.563l-4.05,1.507-3.551-9.543,3.763-1.4a3.184,3.184,0,0,1,2.343,0,2.648,2.648,0,0,1,1.561,1.609,2.475,2.475,0,0,1-.19,2.242,2.526,2.526,0,0,1,2.067,1.714A2.742,2.742,0,0,1,1301.24,153.271Z" transform="translate(-1251.759 -135.062)" fill="#4e3bd3"/>
    </g>
  </g>
</svg>
