<?xml version="1.0" encoding="utf-8"?>
<!-- Generator: Adobe Illustrator 19.0.0, SVG Export Plug-In . SVG Version: 6.00 Build 0)  -->
<svg version="1.1" id="Layer_1" xmlns="http://www.w3.org/2000/svg" xmlns:xlink="http://www.w3.org/1999/xlink" x="0px" y="0px"
	 viewBox="0 0 340 200" style="enable-background:new 0 0 340 200;" xml:space="preserve">
<style type="text/css">
	.st0{fill:none;}
	.st1{fill:#CB1F3B;}
	.st2{fill:#FFFFFF;}
</style>
<rect id="XMLID_657_" x="-430" y="-499" class="st0" width="1200" height="1199.8"/>
<g id="XMLID_384_">
	<path id="XMLID_708_" class="st1" d="M334,48V6h-92.5L228,38.1V103c0,2.8,0,6,0.2,9H226l-9.5-29.2L207,112h-4c0,0,0,0,0,0V86.6
		c0-2-0.4-3.7-0.7-5.3c-0.1-0.4-0.2-0.8-0.3-1.3l0,0c-3.2-16.8-15-26-33.1-26h-19.5l-1.5-0.3V48h51.1l17-42h-76.8
		c-14.5,0-25,5.6-30.6,16c-1.5-3-3.6-5.7-6.4-8.1c-6.3-5.5-13.7-8-24.1-8H6v141h11v41h20v-11h1.3c0.5,0,0.7,0.4,1.7,0.4V188h19v-0.9
		c1,0.3,2.7,0.9,4.2,0.9h7.2c0.6,0,1.6-0.5,1.6-0.5v0.5h19.2c0.9,0,1.8-0.5,2.8-0.6v8.6h19v-8h0.3c2.4,0,4.6-0.7,6.6-2
		c1.9,1.2,4.3,2,7.4,2h7.2c0.7,0,1.5-0.5,2.5-0.6v0.6h10.6h8.3H167v-0.5c0,0,0.7,0.1,1,0.1c2,0,4-0.4,5.7-1.5c2,1,4.4,1.9,7.5,1.9h7
		c2.9,0,5.5-0.8,7.6-2.2c2,1.4,4.5,2.2,7.3,2.2h7.5c0.6,0,1.4-0.5,1.4-0.5v0.5h20v-0.9c1,0.3,2.1,0.9,3.4,0.9h7.5
		c6.4,0,11-4.1,11.9-10.3c0.1-0.7,0.2-1.6,0.2-2.2V152h-15.9l-7.3-22.1l0.3-0.1c3.6,6.9,10.8,13.8,23.8,16.3v42h9.7H276h21v-0.6
		c1,0.1,1.7,0.6,2.5,0.6H315v-0.5c2-0.3,4.3-1.3,5.9-2.9c2-2,3.1-4.6,3.1-7.3c0-2.8-1.1-5.4-3.1-7.3c-1.6-1.6-3.9-2.6-5.9-2.9v-15
		h-16.6c-2.5,0-4.7,0.6-6.5,1.8c-1.9-1.2-4.1-1.8-6.7-1.8h-7.5c-0.6,0-1.2,0.5-1.7,0.6V147h22.4c14.8,0,25.4-6.6,31.6-19.8
		c2.1-4.5,2.1-10,2-17.7l0-0.4c0-0.8,0-1.7,0-2.6V59h-57v43h16v2c-0.2,0-0.3,0-0.6,0H270V48H334z M167,173.8c0.1,0,0.2-0.1,0.3-0.1
		c0,0.1,0,0.2,0,0.3c-0.1,0-0.2,0.1-0.3,0.1V173.8z M49,48h20v10.7c0,0.1,0,0.2,0,0.3c0,0-0.1,0-0.2,0H49V48z M69,170.1
		c-1,0.5-1.3,1-2,1.3c-0.7-0.3-2-0.7-2-1.3v-0.2c0-0.5,1.3-1,2-1.3c0.7,0.3,1,0.7,2,1.3V170.1z M73.2,152.5
		c-0.9-0.2-1.8-0.5-2.8-0.5h-7.2c-0.1,0-0.2,0.5-0.2,0.5V152H52.2c-0.8,0-1.6,0.3-2.4,0.4c-0.8-1.8-1.9-3-2.9-3.9
		c-0.7-0.6-1.5-1.1-2.4-1.5H49h29.3C76.1,148.2,74.3,150,73.2,152.5z M109.7,171.5c-0.7-0.3-1.7-0.7-1.7-1.3v-0.4c0-0.5,1-1,1.7-1.2
		c0.3,0.1,0.4,0.2,0.7,0.4l0.3,1.8C110.4,171.1,110.1,171.3,109.7,171.5z M133,170.1c-1,0.5-1.3,1-2,1.3c-0.7-0.3-1-0.7-2-1.3v-0.2
		c1-0.5,1.3-1,2-1.3c0.7,0.3,1,0.7,2,1.3V170.1z M148,152.5c-3,0.2-4.4,0.7-6.1,1.7c-1.6-1-4.2-2.2-7.4-2.2h-7.2
		c-2.8,0-5.3,0.9-7.2,2.3c-1.3-0.9-2.8-1.6-4.5-1.9c-0.9-0.2-1.6-0.4-2.4-0.4h-7.7c-0.4,0-0.4,0.5-1.4,0.5V147h44V152.5z M159,104
		H49v-2h31.3c9.1,0,16.7-3,23.1-9.3c3-3,5.2-6.5,6.7-10.8c0.1,0.1,0.1,0.2,0.2,0.3C116.6,91.8,126.8,97,139,97h20V104z M168,180.9
		c-0.4,0-0.7-0.1-1.1-0.2v-0.3c0.3,0.1,0.7,0.2,1.1,0.2c0.2,0,0.4,0,0.5,0c0,0.1,0.1,0.2,0.1,0.3C168.5,180.9,168.2,180.9,168,180.9
		z M170.8,148.8c-1,1-1.7,2.2-2.3,3.2H167v-5h0.4c2.7,0,5.2-0.2,7.7-0.6C173.4,147,172,147.6,170.8,148.8z M196.2,145h-15
		c-0.9,0-1.7,0.3-2.5,0.3c5.6-1.5,10.4-4.1,14.3-7.9c2.6-2.5,4.7-5.4,6.3-8.7l1.8,1.1L196.2,145z M231.9,152h-7.2H223h-21.8
		l15.3-11.1L231.9,152z M315,180.3c0-0.2,0.7-0.4,1-0.6c0.7-0.7,1-1.4,1-2.4c0-0.9-0.4-1.7-1-2.4c-0.3-0.3-1-0.5-1-0.6v-0.3
		c1,0.2,0.9,0.5,1.3,0.8c0.6,0.6,1,1.4,1.1,2.2c0.1,1.1-0.4,2.2-1.1,3c-0.3,0.3-0.2,0.5-1.2,0.7V180.3z"/>
	<g id="XMLID_471_">
		<path id="XMLID_705_" class="st2" d="M23.8,180.6v-28.2h14.1c1.8,0,3.2,0.5,4.4,1.5c1.1,1,1.7,2.4,1.7,4.1v6.9c0,1.7-0.5,3-1.5,4
			c-1,1-2.4,1.5-4.1,1.5h-8.5v10.1H23.8z M35.8,164.2c0.8,0,1.3-0.1,1.5-0.2c0.4-0.2,0.6-0.7,0.6-1.3v-2.8c-0.1-0.8-0.6-1.3-1.6-1.5
			h-6.5v5.8H35.8z"/>
		<path id="XMLID_703_" class="st2" d="M46.8,164.8c0-3.6,1.8-5.4,5.4-5.4h3.6v5.4h-2.3c-0.9,0.1-1.4,0.5-1.4,1.1v14.6h-5.4V164.8z"
			/>
		<path id="XMLID_700_" class="st2" d="M57.9,175.8v-11.6c0-0.2,0-0.6,0.1-1c0.5-2.5,2.2-3.8,5.2-3.8h7.2c1.6,0,2.9,0.4,3.8,1.2
			c1,0.8,1.5,2,1.5,3.5v11.6c0,1.6-0.5,2.7-1.5,3.5c-1,0.8-2.3,1.2-3.8,1.2h-7.2c-3.1,0-4.9-1.3-5.2-3.8L57.9,175.8z M64.4,175.2
			h4.7c0.3,0,0.6-0.2,0.8-0.5c0.3-0.3,0.4-0.7,0.4-1v-7.4c0-0.3-0.1-0.6-0.4-0.9c-0.3-0.3-0.5-0.5-0.8-0.5h-4.7
			c-0.3,0-0.6,0.2-0.8,0.5c-0.2,0.3-0.4,0.6-0.4,1v7.5c0,0.3,0.1,0.6,0.4,1C63.8,175,64.1,175.2,64.4,175.2z"/>
		<path id="XMLID_698_" class="st2" d="M79.1,158c0-0.5,0.1-1,0.2-1.4c0.7-2.8,2.6-4.1,5.6-4.1h12.3v6.1H86.5c-0.6,0-1,0.3-1.3,0.8
			c-0.1,0.3-0.1,0.5-0.1,0.6v1.9c0,0.2,0,0.3,0,0.4c0.1,0.7,0.6,1.1,1.5,1.2c0.1,0,0.2,0,0.4,0h4.4c3.2,0,5,1.5,5.6,4.4
			c0.1,0.4,0.1,0.8,0.1,1.2v5.7c0,1.9-0.5,3.3-1.6,4.4c-1.1,1-2.6,1.6-4.4,1.6h-12v-6.1h10.6l0.4-0.1c0.7-0.2,1.1-0.8,1.1-1.5v-2
			c0-0.8-0.4-1.3-1.3-1.4h-5c-2.1,0-3.7-0.8-4.8-2.5c-0.6-0.9-0.9-1.9-0.9-3V158z"/>
		<path id="XMLID_695_" class="st2" d="M100.6,188.5v-23.4c0-0.3,0-0.6,0.1-1.1c0.3-2.6,1.6-4,4-4.5c0.3-0.1,0.5-0.1,0.7-0.1h7.7
			c0.3,0,0.7,0,1.1,0.1c2.7,0.5,4.1,2.3,4.1,5.3v11c0,0.9-0.3,1.8-1,2.7c-0.1,0.2-0.3,0.4-0.6,0.6c-1,1-2.2,1.5-3.4,1.5H106v7.9
			h-1.4C103.7,188.5,102.4,188.5,100.6,188.5z M106,173.9c0.1,0.7,0.5,1.1,1.3,1.2c0.1,0,0.2,0,0.3,0h4.1c0.3-0.1,0.6-0.2,0.8-0.5
			c0.2-0.3,0.3-0.6,0.3-0.8v-8c-0.1-0.6-0.4-0.9-1-1c-0.1,0-0.1,0-0.2,0h-4.2c-0.6,0-1.1,0.3-1.3,0.9c-0.1,0.2-0.2,0.5-0.2,0.7v7.2
			C106,173.7,106,173.8,106,173.9z"/>
		<path id="XMLID_692_" class="st2" d="M122,175.8v-11.6c0-0.2,0-0.6,0.1-1c0.5-2.5,2.2-3.8,5.2-3.8h7.2c1.6,0,2.9,0.4,3.8,1.2
			c1,0.8,1.5,2,1.5,3.5v11.6c0,1.6-0.5,2.7-1.5,3.5c-1,0.8-2.3,1.2-3.8,1.2h-7.2c-3.1,0-4.9-1.3-5.2-3.8L122,175.8z M128.5,175.2
			h4.7c0.3,0,0.6-0.2,0.8-0.5s0.4-0.7,0.4-1v-7.4c0-0.3-0.1-0.6-0.4-0.9c-0.3-0.3-0.5-0.5-0.8-0.5h-4.7c-0.3,0-0.6,0.2-0.8,0.5
			c-0.2,0.3-0.4,0.6-0.4,1v7.5c0,0.3,0.1,0.6,0.4,1C127.9,175,128.2,175.2,128.5,175.2z"/>
		<path id="XMLID_589_" class="st2" d="M143.5,164.8c0-3.6,1.8-5.4,5.4-5.4h3.6v5.4h-2.3c-0.9,0.1-1.4,0.5-1.4,1.1v14.6h-5.4V164.8z
			"/>
		<path id="XMLID_587_" class="st2" d="M154.6,180.6v-29h5.4v7.9h3.6v5.4H160v15.7H154.6z"/>
		<path id="XMLID_577_" class="st2" d="M164.7,177.3c-0.1-0.9,0.3-1.7,0.9-2.4s1.5-1,2.4-1c0.9,0,1.7,0.3,2.4,1c0.6,0.6,1,1.4,1,2.4
			c0,0.9-0.3,1.7-1,2.4c-0.7,0.7-1.4,1-2.4,1s-1.7-0.3-2.3-0.9C165.1,179,164.7,178.2,164.7,177.3z"/>
		<path id="XMLID_575_" class="st2" d="M174.2,172.6v-13.3c0-2.6,0.5-4.4,1.6-5.4c1-1,2.8-1.6,5.4-1.6h11.4v6.1h-11.2
			c-0.6,0.1-1,0.5-1.1,1.2v13.7c0.2,0.6,0.6,1,1.3,1.2h4.8c1.2,0,1.8-0.4,1.9-1.2v-8.9h6v9c0,1.8-0.2,3.1-0.5,3.8
			c-1,2.2-2.9,3.3-5.7,3.3h-7c-4.1,0-6.4-1.6-6.8-4.8C174.3,175.3,174.2,174.2,174.2,172.6z"/>
		<path id="XMLID_573_" class="st2" d="M198.1,175.6v-16.1h5.4V174c0.1,0.8,0.7,1.2,1.7,1.2h3.3c1,0,1.6-0.4,1.7-1.2
			c0-0.1,0-0.2,0-0.3v-14.3h5.4v16.1c0,0.3,0,0.6-0.1,1c-0.4,2.7-2.1,4.1-5,4.1h-7.5c-2.9,0-4.6-1.4-5-4.1
			C198.1,176.1,198.1,175.8,198.1,175.6z"/>
		<path id="XMLID_571_" class="st2" d="M219.3,164.8c0-3.6,1.8-5.4,5.4-5.4h3.6v5.4H226c-0.9,0.1-1.4,0.5-1.4,1.1v14.6h-5.4V164.8z"
			/>
		<path id="XMLID_569_" class="st2" d="M230.4,175.6v-16.1h5.4V174c0.1,0.8,0.7,1.2,1.7,1.2h3.3c1,0,1.6-0.4,1.7-1.2
			c0-0.1,0-0.2,0-0.3v-14.3h5.4v16.1c0,0.3,0,0.6-0.1,1c-0.4,2.7-2.1,4.1-5,4.1h-7.5c-2.9,0-4.6-1.4-5-4.1
			C230.4,176.1,230.4,175.8,230.4,175.6z"/>
		<path id="XMLID_567_" class="st2" d="M263,180.6v-28.2h6v28.2H263z"/>
		<path id="XMLID_514_" class="st2" d="M272.7,180.6v-16.1c0-0.3,0-0.6,0.1-1c0.4-2.7,2.1-4.1,5-4.1h7.5c2.9,0,4.6,1.4,5,4.1
			c0.1,0.4,0.1,0.7,0.1,1v16.1h-5.4v-14.3c0-0.1,0-0.2,0-0.3c-0.1-0.8-0.7-1.2-1.7-1.2h-3.3c-1,0-1.6,0.4-1.7,1.2v14.6H272.7z"/>
		<path id="XMLID_512_" class="st2" d="M293.9,175.1v-10.7c0-3.3,1.5-5,4.5-5h9.7v5.4h-7.3c-0.9,0-1.5,0.3-1.6,0.9v8
			c0,0.3,0.1,0.6,0.3,0.8c0.2,0.4,0.6,0.6,1.2,0.6h7.4v5.4h-8.6C295.8,180.6,293.9,178.8,293.9,175.1z"/>
		<path id="XMLID_507_" class="st2" d="M310.4,177.3c-0.1-0.9,0.3-1.7,0.9-2.4s1.5-1,2.4-1c0.9,0,1.7,0.3,2.4,1c0.6,0.6,1,1.4,1,2.4
			c0,0.9-0.3,1.7-1,2.4c-0.7,0.7-1.4,1-2.4,1s-1.7-0.3-2.3-0.9C310.8,179,310.4,178.2,310.4,177.3z"/>
	</g>
	<g id="XMLID_385_">
		<path id="XMLID_469_" class="st2" d="M195.1,81.3C192.5,67.8,183.7,61,168.9,61h-19.7c-0.7,0-1.4-0.2-1.7-0.2l-0.3-0.1
			c-4.3-0.1-6.3-2-6.3-6.4V46c0-3.8,1.3-5,5.5-5h47.9l11.3-28h-66.4c-14.7,0-23.7,6.3-26.8,18.6c-0.2,0.6-0.4,1.2-0.6,1.8
			c-0.5,1.2-0.9,2.4-0.9,4.1v26.8c0,4.3,1.6,8.8,5.1,14.1c5,7.5,13.1,11.6,22.9,11.6h22.3c0.3,0.2,0.6,0.3,0.9,0.5
			c3,1.5,3.9,2,3.9,4.6v9c0,2.6-0.7,6.9-5.1,6.9H51v29h116.4c8.5,0,15.7-2.6,20.8-7.5c5.1-5,7.8-12.1,7.8-20.5V86.6
			c0-1.2-0.3-2.4-0.5-3.7C195.4,82.4,195.2,81.9,195.1,81.3z"/>
		<path id="XMLID_388_" class="st2" d="M268.1,41H327V13h-80.8L235,39.5V103c0,6.9,0.2,12.2,0.6,14.7c2.1,14.8,12.8,22.3,31.6,22.3
			h31.1c12.2,0,20.2-5,25.2-15.7c1.4-3.1,1.4-8,1.4-14.7c0-1,0-2,0-3V66h-43v29h16v10.9c0,3.2-2.8,5.1-7.6,5.1h-21.6
			c-2.7,0-5.9-2.9-5.9-4.8V45C263,42.8,265.8,41,268.1,41z"/>
		<path id="XMLID_387_" class="st2" d="M76,46.3v12.4c0,2.6-0.2,5.1-1.5,5.8l-0.4,0.2C73,65.3,71.6,66,68.8,66H51v29h29.3
			c7.3,0,13.1-2.3,18.2-7.3c4.4-4.2,6.5-10.5,6.5-19.1v-31c0-8.4-2.2-13.9-7.2-18.4C92.8,14.9,87,13,78.3,13H13v127h29V41h29.3
			C74.6,41,76,42.6,76,46.3z"/>
		<polygon id="XMLID_386_" class="st2" points="220.9,119 216.5,105.4 212.1,119 197.8,119 209.4,127.4 205,141.1 216.5,132.7 
			228,141 223.6,127.4 235.2,119 		"/>
	</g>
</g>
<g id="XMLID_1_">
</g>
<g id="XMLID_2_">
</g>
<g id="XMLID_3_">
</g>
<g id="XMLID_4_">
</g>
<g id="XMLID_5_">
</g>
<g id="XMLID_6_">
</g>
</svg>
