<svg width="28" height="24" fill="none" xmlns="http://www.w3.org/2000/svg"><path d="M25.831 4.863c-1.096-1.594-2.192-2.79-3.388-3.588C20.15-.22 17.459-.419 13.97.777c-2.293.698-5.183 2.691-7.775 5.382-2.292 2.292-4.086 4.984-5.182 7.675-1.196 2.79-1.296 5.382-.499 7.276C1.412 23.103 3.505 24 5.5 24c.598 0 1.295-.1 1.893-.299 2.692-.698 5.383-2.79 7.177-4.386.1-.1.199-.299.199-.498 0-.2-.1-.299-.2-.498-.199-.3-.597-.399-.996-.1-2.492 1.894-4.684 2.99-6.678 3.09-.598-1.894-.2-4.286 1.096-6.877a18.863 18.863 0 0 1 2.692-3.788c1.096-1.196 2.292-2.193 3.687-2.99.399-.2.399-.698.2-.997-.1-.199-.2-.299-.399-.299-.2-.1-.399 0-.598.1-1.495.897-2.89 1.894-4.086 3.19-1.296 1.295-2.293 2.69-3.19 4.186-1.096 1.993-1.794 3.986-1.894 5.78-.1.499-.398.698-.598.698-.299.1-.697 0-.897-.299-.897-1.196-.897-3.19 0-5.681.897-2.292 2.492-4.784 4.585-6.778 2.093-2.093 4.485-3.687 6.778-4.584 1.196-.399 2.292-.698 3.19-.698 1.395 0 2.49.498 3.089 1.395 1.794 2.89.797 6.18-1.296 10.067-.1.2-.1.399-.1.598.1.2.2.299.3.399.299.199.697.199.996-.2 1.097-1.495 1.994-3.09 2.592-4.584.1-.1.1-.3.299-.3.1-.1.299-.1.398-.1.399 0 .598.2.798.5.199.398.299 1.096.299 1.893 0 .698-.1 1.495-.3 2.392-.697 3.09-2.79 6.479-5.182 8.572-.2.1-.2.299-.2.498 0 .2.1.299.2.399.1.1.299.199.398.199.2 0 .4 0 .499-.1 3.19-2.491 5.681-6.08 6.678-9.468.897-3.489.498-7.177-1.097-9.569z" fill="url(#a)"/><defs><linearGradient id="a" x1="27.398" y1="12" x2="0" y2="12" gradientUnits="userSpaceOnUse"><stop stop-color="#FF5D00"/><stop offset="1" stop-color="#EB0000"/></linearGradient></defs></svg>