<svg width="100" height="100" viewBox="0 0 100 100" fill="none" xmlns="http://www.w3.org/2000/svg">
<rect width="100" height="100" fill="#171C28"/>
<path d="M18.0781 53.2969H23.5469C23.474 54.8802 23.0469 56.276 22.2656 57.4844C21.4844 58.6927 20.401 59.6354 19.0156 60.3125C17.6406 60.9792 16.0156 61.3125 14.1406 61.3125C12.6198 61.3125 11.2604 61.0573 10.0625 60.5469C8.875 60.0365 7.86458 59.3021 7.03125 58.3438C6.20833 57.3854 5.57812 56.224 5.14062 54.8594C4.71354 53.4948 4.5 51.9583 4.5 50.25V49.0156C4.5 47.3073 4.72396 45.7708 5.17188 44.4062C5.63021 43.0312 6.27604 41.8646 7.10938 40.9062C7.95312 39.9375 8.96354 39.1979 10.1406 38.6875C11.3177 38.1771 12.625 37.9219 14.0625 37.9219C16.0417 37.9219 17.7135 38.276 19.0781 38.9844C20.4427 39.6927 21.5 40.6667 22.25 41.9062C23 43.1354 23.4427 44.5365 23.5781 46.1094H18.1094C18.0885 45.2552 17.9427 44.5417 17.6719 43.9688C17.401 43.3854 16.974 42.9479 16.3906 42.6562C15.8073 42.3646 15.0312 42.2188 14.0625 42.2188C13.3854 42.2188 12.7969 42.3438 12.2969 42.5938C11.7969 42.8438 11.3802 43.2396 11.0469 43.7812C10.7135 44.3229 10.4635 45.026 10.2969 45.8906C10.1406 46.7448 10.0625 47.776 10.0625 48.9844V50.25C10.0625 51.4583 10.1354 52.4896 10.2812 53.3438C10.4271 54.1979 10.6615 54.8958 10.9844 55.4375C11.3073 55.9792 11.724 56.3802 12.2344 56.6406C12.7552 56.8906 13.3906 57.0156 14.1406 57.0156C14.974 57.0156 15.6771 56.8854 16.25 56.625C16.8229 56.3542 17.2656 55.9479 17.5781 55.4062C17.8906 54.8542 18.0573 54.151 18.0781 53.2969ZM35.4219 51.3281H29.5625L29.5312 47.7344H34.2812C35.1354 47.7344 35.8177 47.6406 36.3281 47.4531C36.8385 47.2552 37.2083 46.9688 37.4375 46.5938C37.6771 46.2188 37.7969 45.75 37.7969 45.1875C37.7969 44.5417 37.6771 44.0208 37.4375 43.625C37.1979 43.2292 36.8177 42.9427 36.2969 42.7656C35.7865 42.5781 35.125 42.4844 34.3125 42.4844H31.625V61H26.1406V38.25H34.3125C35.7188 38.25 36.974 38.3802 38.0781 38.6406C39.1823 38.8906 40.1198 39.276 40.8906 39.7969C41.6719 40.3177 42.2656 40.974 42.6719 41.7656C43.0781 42.5469 43.2812 43.4688 43.2812 44.5312C43.2812 45.4583 43.0833 46.3281 42.6875 47.1406C42.2917 47.9531 41.6302 48.6146 40.7031 49.125C39.7865 49.625 38.5312 49.8854 36.9375 49.9062L35.4219 51.3281ZM35.2031 61H28.2344L30.1094 56.7812H35.2031C35.9531 56.7812 36.5521 56.6667 37 56.4375C37.4583 56.1979 37.7865 55.8854 37.9844 55.5C38.1927 55.1042 38.2969 54.6667 38.2969 54.1875C38.2969 53.6042 38.1979 53.099 38 52.6719C37.8125 52.2448 37.5104 51.9167 37.0938 51.6875C36.6771 51.4479 36.1198 51.3281 35.4219 51.3281H30.8125L30.8438 47.7344H36.3594L37.6406 49.1719C39.1615 49.1094 40.3646 49.3229 41.25 49.8125C42.1458 50.3021 42.7865 50.9479 43.1719 51.75C43.5573 52.5521 43.75 53.3906 43.75 54.2656C43.75 55.7552 43.4271 57 42.7812 58C42.1458 59 41.1927 59.75 39.9219 60.25C38.651 60.75 37.0781 61 35.2031 61ZM49.5156 38.25H53.9844L59.0625 54.0781L64.1406 38.25H68.6094L60.875 61H57.25L49.5156 38.25ZM46.7969 38.25H51.4219L52.2812 55.6875V61H46.7969V38.25ZM66.7031 38.25H71.3438V61H65.8438V55.6875L66.7031 38.25ZM93.8594 38.25V61H88.3906L80.3438 46.8438V61H74.8594V38.25H80.3438L88.3906 52.4062V38.25H93.8594Z" fill="#A7B6D9"/>
</svg>
