<svg width="100" height="100" viewBox="0 0 100 100" fill="none" xmlns="http://www.w3.org/2000/svg">
<rect width="100" height="100" rx="50" fill="#171C28"/>
<path d="M22.0059 53.2598H26.791C26.7272 54.6452 26.3535 55.8665 25.6699 56.9238C24.9863 57.9811 24.0384 58.806 22.8262 59.3984C21.623 59.9818 20.2012 60.2734 18.5605 60.2734C17.2298 60.2734 16.0404 60.0501 14.9922 59.6035C13.9531 59.1569 13.069 58.5143 12.3398 57.6758C11.6198 56.8372 11.0684 55.821 10.6855 54.627C10.3118 53.4329 10.125 52.0885 10.125 50.5938V49.5137C10.125 48.0189 10.321 46.6745 10.7129 45.4805C11.1139 44.2773 11.679 43.2565 12.4082 42.418C13.1465 41.5703 14.0306 40.9232 15.0605 40.4766C16.0905 40.0299 17.2344 39.8066 18.4922 39.8066C20.224 39.8066 21.6868 40.1165 22.8809 40.7363C24.0749 41.3561 25 42.2083 25.6562 43.293C26.3125 44.3685 26.6999 45.5944 26.8184 46.9707H22.0332C22.015 46.2233 21.8874 45.599 21.6504 45.0977C21.4134 44.5872 21.0397 44.2044 20.5293 43.9492C20.0189 43.694 19.3398 43.5664 18.4922 43.5664C17.8997 43.5664 17.3848 43.6758 16.9473 43.8945C16.5098 44.1133 16.1452 44.4596 15.8535 44.9336C15.5618 45.4076 15.3431 46.0228 15.1973 46.7793C15.0605 47.5267 14.9922 48.429 14.9922 49.4863V50.5938C14.9922 51.651 15.056 52.5534 15.1836 53.3008C15.3112 54.0482 15.5163 54.6589 15.7988 55.1328C16.0814 55.6068 16.446 55.9577 16.8926 56.1855C17.3483 56.4043 17.9043 56.5137 18.5605 56.5137C19.2897 56.5137 19.9049 56.3997 20.4062 56.1719C20.9076 55.9349 21.2949 55.5794 21.5684 55.1055C21.8418 54.6224 21.9876 54.0072 22.0059 53.2598ZM37.1816 51.5371H32.0547L32.0273 48.3926H36.1836C36.931 48.3926 37.528 48.3105 37.9746 48.1465C38.4212 47.9733 38.7448 47.7227 38.9453 47.3945C39.1549 47.0664 39.2598 46.6562 39.2598 46.1641C39.2598 45.599 39.1549 45.1432 38.9453 44.7969C38.7357 44.4505 38.403 44.1999 37.9473 44.0449C37.5007 43.8809 36.9219 43.7988 36.2109 43.7988H33.8594V60H29.0605V40.0938H36.2109C37.4414 40.0938 38.5397 40.2077 39.5059 40.4355C40.472 40.6543 41.2923 40.9915 41.9668 41.4473C42.6504 41.903 43.1699 42.4772 43.5254 43.1699C43.8809 43.8535 44.0586 44.6602 44.0586 45.5898C44.0586 46.401 43.8854 47.1621 43.5391 47.873C43.1927 48.584 42.6139 49.1628 41.8027 49.6094C41.0007 50.0469 39.9023 50.2747 38.5078 50.293L37.1816 51.5371ZM36.9902 60H30.8926L32.5332 56.3086H36.9902C37.6465 56.3086 38.1706 56.2083 38.5625 56.0078C38.9635 55.7982 39.2507 55.5247 39.4238 55.1875C39.6061 54.8411 39.6973 54.4583 39.6973 54.0391C39.6973 53.5286 39.6107 53.0866 39.4375 52.7129C39.2734 52.3392 39.0091 52.0521 38.6445 51.8516C38.2799 51.6419 37.7923 51.5371 37.1816 51.5371H33.1484L33.1758 48.3926H38.002L39.123 49.6504C40.4538 49.5957 41.5065 49.7826 42.2812 50.2109C43.0651 50.6393 43.6257 51.2044 43.9629 51.9062C44.3001 52.6081 44.4688 53.3418 44.4688 54.1074C44.4688 55.4108 44.1862 56.5 43.6211 57.375C43.0651 58.25 42.2311 58.9062 41.1191 59.3438C40.0072 59.7812 38.6309 60 36.9902 60ZM49.5137 40.0938H53.4238L57.8672 53.9434L62.3105 40.0938H66.2207L59.4531 60H56.2812L49.5137 40.0938ZM47.1348 40.0938H51.1816L51.9336 55.3516V60H47.1348V40.0938ZM64.5527 40.0938H68.6133V60H63.8008V55.3516L64.5527 40.0938ZM88.3145 40.0938V60H83.5293L76.4883 47.6133V60H71.6895V40.0938H76.4883L83.5293 52.4805V40.0938H88.3145Z" fill="#A7B6D9"/>
</svg>
