<svg width="1200" height="1200" viewBox="0 0 1200 1200" fill="none" xmlns="http://www.w3.org/2000/svg">
<g clip-path="url(#clip0_471_79)">
<mask id="mask0_471_79" style="mask-type:alpha" maskUnits="userSpaceOnUse" x="0" y="0" width="1201" height="1201">
<path fill-rule="evenodd" clip-rule="evenodd" d="M0.0429041 600.001L600.051 0L1200.06 600.001L600.051 1200L0.0429041 600.001ZM427.436 599.968L600.051 427.355L772.665 599.968L600.051 772.58L427.436 599.968Z" fill="#C4C4C4"/>
</mask>
<g mask="url(#mask0_471_79)">
<rect width="1200" height="1200" transform="matrix(-1 0 0 1 1200.02 0)" fill="url(#paint0_radial_471_79)" fill-opacity="0.4"/>
<path d="M1200.02 600.009V600.009C1082.11 482.106 890.955 482.106 773.052 600.009L422.546 950.515C402.664 970.397 402.664 1002.63 422.546 1022.51L600.029 1200L1200.02 600.009Z" fill="url(#paint1_radial_471_79)"/>
<path d="M777.506 249.487C797.387 229.606 797.387 197.371 777.506 177.489L600.022 0.00550878L0.0338524 599.994V599.994C117.937 717.897 309.096 717.897 426.999 599.994L777.506 249.487Z" fill="url(#paint2_radial_471_79)"/>
</g>
</g>
<defs>
<radialGradient id="paint0_radial_471_79" cx="0" cy="0" r="1" gradientUnits="userSpaceOnUse" gradientTransform="translate(-799.976 1200) rotate(-22.6199) scale(1950 2751.59)">
<stop stop-color="#FF5BA0"/>
<stop offset="0.581721" stop-color="#FC5BFF"/>
<stop offset="1" stop-color="#3984FF"/>
</radialGradient>
<radialGradient id="paint1_radial_471_79" cx="0" cy="0" r="1" gradientUnits="userSpaceOnUse" gradientTransform="translate(1874.99 1075) rotate(-174.382) scale(1532.36 3940.25)">
<stop stop-color="#FF5BA0"/>
<stop offset="0.581721" stop-color="#FC5BFF"/>
<stop offset="1" stop-color="#3984FF"/>
</radialGradient>
<radialGradient id="paint2_radial_471_79" cx="0" cy="0" r="1" gradientUnits="userSpaceOnUse" gradientTransform="translate(200.004 724.999) rotate(-61.1134) scale(828.025 2010.38)">
<stop stop-color="#4F6BFF"/>
<stop offset="1" stop-color="#00C4FF"/>
</radialGradient>
<clipPath id="clip0_471_79">
<rect width="1200" height="1200" fill="white"/>
</clipPath>
</defs>
</svg>
