<?xml version="1.0" encoding="UTF-8" standalone="no"?>
<svg
   xmlns:dc="http://purl.org/dc/elements/1.1/"
   xmlns:cc="http://creativecommons.org/ns#"
   xmlns:rdf="http://www.w3.org/1999/02/22-rdf-syntax-ns#"
   xmlns:svg="http://www.w3.org/2000/svg"
   xmlns="http://www.w3.org/2000/svg"
   viewBox="0 0 165.24133 165.24133"
   height="165.24133"
   width="165.24133"
   xml:space="preserve"
   id="svg2"
   version="1.1"><metadata
     id="metadata8"><rdf:RDF><cc:Work
         rdf:about=""><dc:format>image/svg+xml</dc:format><dc:type
           rdf:resource="http://purl.org/dc/dcmitype/StillImage" /></cc:Work></rdf:RDF></metadata><defs
     id="defs6"><clipPath
       id="clipPath18"
       clipPathUnits="userSpaceOnUse"><path
         id="path16"
         d="M 0,123.931 H 123.931 V 0 H 0 Z" /></clipPath></defs><g
     transform="matrix(1.3333333,0,0,-1.3333333,0,165.24133)"
     id="g10"><g
       id="g12"><g
         clip-path="url(#clipPath18)"
         id="g14"><g
           transform="translate(123.9307,61.9653)"
           id="g20"><path
             id="path22"
             style="fill:#000000;fill-opacity:1;fill-rule:nonzero;stroke:none"
             d="m 0,0 c 0,-34.223 -27.743,-61.965 -61.965,-61.965 -34.223,0 -61.966,27.742 -61.966,61.965 0,34.223 27.743,61.965 61.966,61.965 C -27.743,61.965 0,34.223 0,0" /></g><path
           id="path24"
           style="fill:#ffffff;fill-opacity:1;fill-rule:nonzero;stroke:none"
           d="M 41.958,44.839 H 77.96 V 80.842 H 41.958 Z M 79.222,43.577 H 40.696 v 38.526 h 38.526 z" /><g
           transform="translate(29.099,69.6362)"
           id="g26"><path
             id="path28"
             style="fill:#ffffff;fill-opacity:1;fill-rule:nonzero;stroke:none"
             d="m 0,0 h 53.903 c 6.447,0 11.692,5.245 11.692,11.692 0,6.447 -5.245,11.691 -11.692,11.691 L 0,23.383 Z M 53.903,-1.262 H -1.262 v 25.907 h 55.165 c 7.143,0 12.954,-5.811 12.954,-12.953 0,-7.143 -5.811,-12.954 -12.954,-12.954" /></g><g
           transform="translate(29.099,32.6617)"
           id="g30"><path
             id="path32"
             style="fill:#ffffff;fill-opacity:1;fill-rule:nonzero;stroke:none"
             d="m 0,0 h 53.903 c 6.447,0 11.692,5.245 11.692,11.692 0,6.446 -5.245,11.691 -11.692,11.691 L 0,23.383 Z M 53.903,-1.262 H -1.262 v 25.907 h 55.165 c 7.143,0 12.954,-5.811 12.954,-12.953 0,-7.143 -5.811,-12.954 -12.954,-12.954" /></g></g></g></g></svg>