<svg xmlns="http://www.w3.org/2000/svg" width="360" height="360" xmlns:v="https://vecta.io/nano"><svg y="-1" x="-105" width="576" height="360"><path fill="#8789fe" d="M132.115 90L288 0l155.885 90v180L288 360l-155.885-90V90z"/><svg y="99" x="199.26" width="177.48" height="162"><svg width="177.48" height="162"><svg width="177.48" height="162" viewBox="0 0 230.4 210.304"><svg y="129.976" width="230.4" height="80.328" x="0"><svg width="230.4" height="80.328"><svg width="230.4" height="80.328"><svg height="80.328" viewBox="2.75 -36.3 132.79 46.3" width="230.4"><path fill="#fff" d="M16.65.8q-4.3 0-7.43-2.13-3.12-2.12-4.8-6.1-1.67-3.97-1.67-9.52h0q0-5.6 1.63-9.63Q6-30.6 9.03-32.73q3.02-2.12 7.17-2.12h0q4.25 0 7.28 1.87 3.02 1.88 4.72 5.28h0l-3 1.75q-1.6-2.95-3.75-4.23-2.15-1.27-5.25-1.27h0q-4.45 0-6.98 3.82Q6.7-23.8 6.7-17h0q0 4.45 1.15 7.7Q9-6.05 11.15-4.33q2.15 1.73 5 1.73h0q3.55 0 5.53-1.57 1.97-1.58 3.67-4.93h0l3.15 1.9q-1.8 3.9-4.77 5.95Q20.75.8 16.65.8h0zm27.9-25q2.45 0 4.52 1 2.08 1 3.3 2.95 1.23 1.95 1.23 4.6h0V0h-3.4v-14.15q0-6.95-6.2-6.95h0q-3.6 0-5.4 2.55-1.8 2.55-1.8 6.85h0V0h-3.4v-36.3h3.4v16.8q1.2-2.25 3.17-3.48 1.98-1.22 4.58-1.22h0zm32.7.8h3.4V0h-3.4v-3.9q-1.2 2.25-3.18 3.47Q72.1.8 69.5.8h0q-2.45 0-4.53-1-2.07-1-3.3-2.95-1.22-1.95-1.22-4.6h0V-23.4h3.4v14.15q0 6.95 6.2 6.95h0q3.6 0 5.4-2.55 1.8-2.55 1.8-6.85h0v-11.7zm20.84-.8q2.45 0 4.53 1 2.07 1 3.3 2.95 1.22 1.95 1.22 4.6h0V0h-3.4v-14.15q0-6.95-6.2-6.95h0q-3.6 0-5.4 2.55-1.8 2.55-1.8 6.85h0V0h-3.4v-23.4h3.4v3.9q1.2-2.25 3.18-3.48 1.97-1.22 4.57-1.22h0zm34.05.8h3.4V-.9q0 3.15-1.3 5.63-1.3 2.47-3.65 3.87-2.35 1.4-5.35 1.4h0-9.7V6.9h9.7q3.05 0 4.98-2.2 1.92-2.2 1.92-5.6h0v-2.55q-1.45 2-3.55 3.12-2.1 1.13-4.6 1.13h0q-3.35 0-6-1.6-2.65-1.6-4.15-4.45-1.5-2.85-1.5-6.5h0q0-3.6 1.48-6.43 1.47-2.82 4.1-4.42 2.62-1.6 5.97-1.6h0q2.55 0 4.68 1.12 2.12 1.13 3.57 3.18h0v-3.5zm-8.25 21.1q2.4 0 4.28-1.2 1.87-1.2 2.92-3.35 1.05-2.15 1.05-4.85h0q0-2.7-1.05-4.85-1.05-2.15-2.92-3.35-1.88-1.2-4.28-1.2h0q-2.35 0-4.2 1.2-1.85 1.2-2.9 3.33-1.05 2.12-1.05 4.82h0q0 2.75 1.05 4.9 1.05 2.15 2.9 3.35 1.85 1.2 4.2 1.2h0z"/></svg></svg></svg></svg><svg x="46.661" width="137.077" height="111.013" y="0"><svg fill="#fff" width="137.077" height="111.013" viewBox="12 19.226 76 61.549"><path d="M62 19.892l-24 8-26-8.666v52.216l26 8.667 24-8 26 8.666V28.559l-26-8.667zm-22 11.55l20-6.667v43.783l-20 6.666V31.442zm-24-6.667l20 6.667v43.782l-20-6.666V24.775zm68 50.451l-20-6.667V24.775l20 6.666v43.785z"/></svg></svg></svg></svg></svg></svg></svg>