<?xml version="1.0" standalone="no"?>
<!DOCTYPE svg PUBLIC "-//W3C//DTD SVG 20010904//EN"
 "http://www.w3.org/TR/2001/REC-SVG-20010904/DTD/svg10.dtd">
<svg version="1.0" xmlns="http://www.w3.org/2000/svg"
 width="800.000000pt" height="800.000000pt" viewBox="0 0 800.000000 800.000000"
 preserveAspectRatio="xMidYMid meet">
<metadata>
Created by potrace 1.16, written by Peter Selinger 2001-2019
</metadata>
<g transform="translate(0.000000,800.000000) scale(0.200000,-0.200000)"
fill="#000000" stroke="none">
<path d="M1099 3827 c-205 -108 -475 -850 -585 -1607 -22 -152 -28 -233 -31
-452 -4 -176 -9 -268 -16 -268 -5 0 -74 20 -152 45 -78 25 -149 43 -158 40
-20 -8 -29 -43 -16 -66 6 -12 51 -31 127 -54 64 -20 138 -44 163 -53 l46 -16
7 -110 c3 -61 15 -154 27 -206 11 -52 22 -107 26 -121 5 -28 4 -29 -355 -140
-52 -17 -68 -77 -25 -93 14 -6 156 34 336 95 31 10 63 19 71 19 8 0 30 -35 50
-77 136 -285 355 -485 636 -579 l85 -29 628 -3 c693 -3 714 -2 863 58 228 91
425 280 554 531 l50 98 58 -19 c206 -67 321 -100 335 -94 43 16 27 76 -25 93
-150 46 -333 104 -336 106 -1 1 9 49 23 106 17 67 28 145 31 219 3 63 7 124 9
135 5 23 11 25 188 80 98 30 120 41 129 61 10 21 8 28 -9 45 l-20 21 -132 -42
c-73 -23 -139 -39 -147 -36 -13 5 -15 50 -13 313 2 320 0 353 -32 543 -84 486
-280 1046 -459 1310 -51 75 -129 146 -177 160 -146 44 -291 -166 -471 -680
l-30 -85 -347 0 -347 0 -32 90 c-110 304 -254 564 -359 645 -25 19 -81 40
-107 40 -9 0 -37 -10 -61 -23z m112 -130 c88 -59 240 -354 345 -667 14 -41 31
-78 37 -82 7 -4 195 -8 419 -8 315 0 409 3 415 13 4 6 31 84 61 172 59 178
145 377 204 472 38 60 98 123 119 123 124 0 364 -504 505 -1061 86 -343 96
-426 101 -830 l5 -357 -129 -40 c-70 -22 -168 -53 -216 -68 -105 -33 -130 -57
-103 -99 9 -14 21 -25 27 -25 7 0 53 13 103 29 50 16 134 43 186 60 53 16 104
33 114 37 18 7 19 3 12 -76 -7 -90 -38 -259 -55 -302 l-10 -27 -58 19 c-155
50 -285 90 -293 90 -5 0 -17 -11 -26 -25 -15 -22 -15 -27 -1 -48 14 -22 61
-40 271 -104 32 -9 60 -23 63 -30 5 -14 -64 -146 -106 -203 -125 -170 -285
-292 -451 -344 -135 -43 -224 -48 -810 -43 -448 3 -556 7 -605 19 -208 54
-357 151 -496 325 -55 69 -149 227 -149 251 0 6 66 32 148 57 81 26 153 52
160 57 19 16 15 66 -8 78 -15 8 -34 6 -77 -9 -32 -10 -98 -31 -148 -46 -49
-15 -95 -30 -102 -32 -22 -8 -73 223 -73 330 l0 50 32 -7 c18 -3 104 -29 192
-57 114 -37 164 -49 176 -42 19 13 25 66 8 80 -7 6 -80 32 -163 57 -82 26
-172 55 -198 64 l-48 16 4 281 c5 381 36 605 137 1005 78 311 154 530 255 736
65 132 142 234 177 234 8 0 30 -10 49 -23z"/>
<path d="M990 2020 c-20 -20 -27 -73 -12 -97 14 -22 58 -31 218 -48 88 -9 188
-20 224 -25 36 -5 106 -12 155 -15 79 -6 93 -5 105 10 17 21 19 90 3 106 -14
14 -68 24 -203 38 -58 6 -159 18 -225 26 -244 28 -242 28 -265 5z"/>
<path d="M2870 2025 c-63 -8 -182 -21 -263 -30 -196 -21 -238 -30 -254 -51
-18 -24 -16 -65 3 -93 16 -23 21 -23 98 -17 79 6 252 25 469 51 123 14 147 28
147 82 0 39 -30 74 -62 72 -13 -1 -75 -7 -138 -14z"/>
<path d="M2521 1091 c-7 -4 -16 -35 -21 -68 -19 -139 -97 -213 -223 -213 -111
0 -192 75 -212 197 -7 42 -17 70 -28 77 -25 16 -37 -2 -47 -73 -13 -96 -57
-153 -143 -190 -66 -28 -139 -27 -202 3 -86 40 -127 100 -141 205 -7 56 -24
72 -50 50 -13 -11 -15 -25 -9 -74 15 -136 99 -238 223 -269 l46 -12 13 -78
c37 -221 199 -341 376 -280 55 19 126 84 156 143 26 49 51 143 51 188 0 29 4
33 41 43 79 22 156 86 185 155 18 43 36 153 29 175 -7 22 -27 31 -44 21z
m-430 -292 c32 -31 79 -55 148 -75 10 -3 12 -15 6 -50 -15 -104 -56 -174 -127
-221 -54 -36 -147 -38 -201 -4 -70 43 -120 127 -133 221 l-6 49 43 10 c71 18
132 55 169 105 l35 47 15 -23 c8 -13 31 -39 51 -59z"/>
</g>
</svg>
