<?xml version="1.0" encoding="UTF-8" standalone="no"?>
<!-- Generator: Adobe Illustrator 24.0.0, SVG Export Plug-In . SVG Version: 6.00 Build 0)  -->

<svg
   version="1.1"
   x="0px"
   y="0px"
   viewBox="0 0 850.39 850.39"
   style="enable-background:new 0 0 850.39 850.39;"
   xml:space="preserve"
   id="svg77"
   xmlns="http://www.w3.org/2000/svg"
   xmlns:svg="http://www.w3.org/2000/svg"><defs
   id="defs81"><clipPath
     clipPathUnits="userSpaceOnUse"
     id="clipPath1224"><circle
       style="fill:#ff0000;fill-rule:evenodd;stroke-width:1.12093"
       id="circle1226"
       cx="424.61499"
       cy="426.01001"
       r="327.9104" /></clipPath></defs>
<style
   type="text/css"
   id="style2">
	.st0{fill-rule:evenodd;clip-rule:evenodd;fill:url(#SVGID_1_);}
	.st1{fill:#666666;}
	.st2{fill:#999999;}
	.st3{fill:#FFFFFF;}
	.st4{fill:#1A1A1A;}
	.st5{fill-rule:evenodd;clip-rule:evenodd;fill:#FFFFFF;}
</style>
<g
   id="Layer_2"
   clip-path="url(#clipPath1224)">
	<linearGradient
   id="SVGID_1_"
   gradientUnits="userSpaceOnUse"
   x1="54.2319"
   y1="426.0063"
   x2="795"
   y2="426.0063">
		<stop
   offset="0"
   style="stop-color:#FF15E5"
   id="stop4" />
		<stop
   offset="0.5019"
   style="stop-color:#8289F3"
   id="stop6" />
		<stop
   offset="0.8439"
   style="stop-color:#34D2FC"
   id="stop8" />
		<stop
   offset="1"
   style="stop-color:#15EEFF"
   id="stop10" />
	</linearGradient>
	<path
   class="st0"
   d="M795,426.01c0,204.56-165.83,370.38-370.38,370.38S54.23,630.56,54.23,426.01   c0-204.56,165.83-370.38,370.38-370.38S795,221.45,795,426.01L795,426.01z"
   id="path13" />
</g>
<g
   id="Layer_1">
	<path
   class="st1"
   d="M319.09,589.45c2.73-8.1,7.26-15.53,13.63-21.25c3.9-3.5,8.48-6.37,13.73-8.35c-0.46-0.44-0.92-0.88-1.37-1.32   c-14.08-13.86-23.62-31.84-28.94-51.6c-0.81,4.61-1.5,9.09-2.04,13.33c-1.18,9.21-1.69,17.3-1.21,23.18l0.43,5.77   C314.2,561.25,315.42,577.89,319.09,589.45L319.09,589.45L319.09,589.45z"
   id="path16" />
	<path
   class="st2"
   d="M353.97,566.24c-6.24,1.49-11.46,4.36-15.68,8.15c-5.94,5.33-9.96,12.52-12.13,20.33   c-2.19,7.91-2.46,16.45-0.88,24.39c1.48,7.41,4.57,14.23,9.22,19.41c2.84,3.16,6.23,6.2,10.03,9.08   c14.34,10.85,34.34,19.25,53.06,22.86c18.13,3.5,34.79,2.56,43.23-5.03c0.8-0.72,1.53-1.5,2.17-2.35   c7.42-9.8,6.82-22.88,1.49-36.17c-6.41-15.99-19.52-32.14-34.11-43.75c-6.74,1.69-14.38,1.71-22.79-0.54   C374.69,579.16,363.51,573.53,353.97,566.24L353.97,566.24L353.97,566.24z"
   id="path18" />
	<path
   class="st1"
   d="M324.53,614.06c0.17,1.7,0.42,3.39,0.75,5.04c1.48,7.41,4.57,14.23,9.22,19.41c2.84,3.16,6.23,6.2,10.03,9.08   c14.34,10.85,34.34,19.25,53.06,22.86c18.13,3.5,34.79,2.56,43.23-5.03c0.8-0.72,1.53-1.5,2.17-2.35   c7.42-9.8,6.82-22.88,1.49-36.17c-6.41-15.99-19.52-32.14-34.11-43.75c-6.74,1.69-14.38,1.71-22.79-0.54   c-0.44-0.12-0.87-0.24-1.3-0.36c5.39,6.39,13.75,16,22.11,24.37c14.02,14.02,20.52,43.55-22.53,39.55   C342.86,642.17,324.56,614.11,324.53,614.06L324.53,614.06L324.53,614.06z"
   id="path20" />
	<path
   class="st2"
   d="M552.66,631.68c-1.45-1.61-2.76-3.36-3.94-5.2c-5.33-8.32-7.87-25.55-0.8-34.65   c-0.22,8.25,1.79,20.77,7.8,30.16c4.01,6.26,9.88,11.06,18.16,11.92c7.95,0.83,18.65-8.3,28.64-21.73   c11.23-15.1,21.11-35.4,25.32-53.66c3.17-13.75-2.01-25.41-10.81-33.32c-4.4-3.96-9.69-6.99-15.31-8.91   c-5.62-1.92-11.54-2.72-17.17-2.21c-10.33,0.94-19.82,6.37-24.82,17.56c-2.48,6.34-5.62,12.51-9.5,18.44   c-0.63,0.96-1.36,2.02-2.17,3.17c-2.86,4.02-5.94,7.28-9.17,9.86c-0.36,4.79-1.12,9.32-2.23,13.59   c-4.92,18.99-16.67,32.65-30.95,41.36c-1.34,0.82-2.71,1.59-4.09,2.32C514.14,623.71,535.01,628.92,552.66,631.68L552.66,631.68   L552.66,631.68z"
   id="path22" />
	<path
   class="st1"
   d="M552.66,631.68c-1.45-1.61-2.76-3.36-3.94-5.2c-5.33-8.32-7.87-25.55-0.8-34.65   c-0.22,8.25,1.79,20.77,7.8,30.16c4.01,6.26,9.88,11.06,18.16,11.92c7.95,0.83,18.65-8.3,28.64-21.73   c7.64-10.27,14.65-22.94,19.68-35.75c-13.32,26.41-29.49,46.71-50.62,40.21c-21.13-6.51,2.03-99.55,2.05-99.61   c-5.81,2.8-10.74,7.56-13.9,14.61c-2.48,6.34-5.62,12.51-9.5,18.44c-0.63,0.96-1.36,2.02-2.17,3.17c-2.86,4.02-5.94,7.28-9.17,9.86   c-0.36,4.79-1.12,9.32-2.23,13.59c-4.92,18.99-16.67,32.65-30.95,41.36c-1.34,0.82-2.71,1.59-4.09,2.32   C514.14,623.71,535.01,628.92,552.66,631.68L552.66,631.68L552.66,631.68z"
   id="path24" />
	<path
   class="st1"
   d="M307.36,573.89c-1.2-8.43-1.83-17.01-2.34-24.1c-0.14-1.88-0.27-3.64-0.43-5.7   c-0.34-4.25-0.23-9.51,0.26-15.44c-3.34-1.66-7.24-2.99-11.31-3.25c-3.74-0.24-7.67,0.43-11.47,2.62   c-5.65,3.25-8.8,12.63-8.49,22.34c0.14,4.27,0.97,8.55,2.58,12.37c1.54,3.65,3.81,6.87,6.87,9.2   C288.32,575.95,296.26,577.37,307.36,573.89L307.36,573.89L307.36,573.89z"
   id="path26" />
	<path
   class="st2"
   d="M358.71,364.41c-0.67,0.59-1.37,1.26-2.08,1.99c-14.99,15.23-25.76,35.83-31.76,58.24   c-6.08,22.68-7.27,47.15-3.04,69.78c4.2,22.45,13.72,43.05,29.09,58.18c10.25,10.09,23.13,17.77,38.82,21.97   c14.16,3.79,25.51-0.24,33.2-7.76c3.92-3.84,6.93-8.58,8.9-13.65c1.98-5.09,2.92-10.51,2.71-15.69c-0.38-9.29-4.51-17.8-13.1-22.07   c-3.46-1.72-6.79-3.56-9.97-5.49c-23.07-14.07-38.92-33.78-46.1-55.86c-7.21-22.17-5.68-46.66,6.01-70.19   c1.42-2.85,2.97-5.67,4.68-8.47c0.52-0.85,0.97-1.65,1.36-2.4c-1.49-0.51-2.94-1.03-4.36-1.58   C367.82,369.36,363.04,367.03,358.71,364.41L358.71,364.41L358.71,364.41z"
   id="path28" />
	<path
   class="st1"
   d="M358.71,364.41c-0.67,0.59-1.37,1.26-2.08,1.99c-14.99,15.23-25.76,35.83-31.76,58.24   c-6.08,22.68-7.27,47.15-3.04,69.78c4.2,22.45,13.72,43.05,29.09,58.18c10.25,10.09,23.13,17.77,38.82,21.97   c14.16,3.79,25.51-0.24,33.2-7.76c3.92-3.84,6.93-8.58,8.9-13.65c1.98-5.09,2.92-10.51,2.71-15.69c-0.19-4.76-1.37-9.33-3.64-13.21   c-22.82,46.15-98.58,18.01-100.35-47.97c-1.39-51.62,22.98-93.05,33.76-108.76C362.37,366.53,360.5,365.5,358.71,364.41   L358.71,364.41L358.71,364.41z"
   id="path30" />
	<path
   class="st1"
   d="M358.71,364.41c-0.67,0.59-1.37,1.26-2.08,1.99c-2.58,2.62-5.04,5.4-7.36,8.32   c5.54,3.86,11.95,7.21,19.25,10.04c0.68,0.26,1.37,0.52,2.07,0.78c0.27-0.57,0.54-1.13,0.82-1.69c1.42-2.85,2.97-5.67,4.68-8.47   c0.52-0.85,0.97-1.65,1.36-2.4c-1.49-0.51-2.94-1.03-4.36-1.58C367.82,369.36,363.04,367.03,358.71,364.41L358.71,364.41   L358.71,364.41z"
   id="path32" />
	<path
   class="st1"
   d="M425.41,178.11c-52.55,0-62.82,30.37-73.22,61.15c-1.84,5.44-3.68,10.9-5.76,16.27   c-6.58,17-10.32,32.48-10.98,46.2c-0.71,14.7,2.12,27.36,8.75,37.71c6.64,10.35,17.17,18.52,31.88,24.21   c13.1,5.08,29.49,8.2,49.34,9.17c19.85-0.97,36.23-4.09,49.34-9.17c14.7-5.7,25.24-13.86,31.87-24.21   c6.63-10.34,9.46-23.01,8.75-37.71c-1.1-22.73-9.65-41.48-16.74-62.47C488.23,208.48,477.97,178.11,425.41,178.11L425.41,178.11   L425.41,178.11z"
   id="path34" />
	<path
   class="st2"
   d="M425.41,180.8c-45.43,0-54.3,26.25-63.29,52.85c-1.59,4.71-3.18,9.42-4.98,14.06   c-5.69,14.69-8.92,28.07-9.49,39.94c-0.61,12.7,1.83,23.65,7.56,32.59c5.74,8.95,14.84,16.01,27.55,20.93   c11.33,4.39,25.49,7.09,42.65,7.93c17.16-0.84,31.32-3.54,42.65-7.93c12.71-4.92,21.81-11.98,27.55-20.93   c5.73-8.94,8.18-19.89,7.56-32.59c-0.95-19.64-8.34-35.85-14.47-54C479.71,207.05,470.84,180.8,425.41,180.8L425.41,180.8   L425.41,180.8z"
   id="path36" />
	<path
   class="st2"
   d="M488.27,366.6c4.83,8.6,9.08,22.67,13.47,37.2c2.21,7.31,4.45,14.74,6.79,21.55   c-0.35-4.15-1.07-8.12-2.27-11.87c12.51,3.9,9.55,37.06,7.3,48.48c-3.86,19.61-11.8,39.51-21.95,56.01   c-6.54,10.63-5.12,21.93,0.49,30.49c2.37,3.61,5.47,6.74,9.01,9.12h0.02c3.54,2.39,7.52,4.04,11.65,4.73   c9.52,1.57,20.11-2.04,28.51-13.88c0.61-0.86,1.27-1.84,1.98-2.91c20.49-31.31,18.62-70.24,6.69-104.89   c-11.93-34.64-33.77-64.86-53.46-79.07C493.94,363.36,491.2,365.04,488.27,366.6L488.27,366.6L488.27,366.6z"
   id="path38" />
	<path
   class="st1"
   d="M489.81,521.34c-4.4,9.61-2.74,19.47,2.29,27.12c2.37,3.61,5.47,6.74,9.01,9.12h0.02   c3.54,2.39,7.52,4.04,11.65,4.73c9.52,1.57,20.11-2.04,28.51-13.88c0.61-0.86,1.27-1.84,1.98-2.91   c20.49-31.31,18.62-70.24,6.69-104.89c-10.84-31.48-29.86-59.3-48.02-74.78c37.22,42.3,47.62,100.37,46.12,125.9   c-1.5,25.53-13.26,46.81-37.79,43.8C496.68,533.88,491.62,527.08,489.81,521.34L489.81,521.34L489.81,521.34z"
   id="path40" />
	<path
   class="st1"
   d="M488.27,366.6c1.96,3.49,3.82,7.88,5.64,12.83c4.91-2.67,9.28-5.64,13.13-8.92   c-3.54-3.44-7.08-6.44-10.55-8.95C493.94,363.36,491.2,365.04,488.27,366.6L488.27,366.6L488.27,366.6z"
   id="path42" />
	<path
   class="st2"
   d="M492.44,202.59c12.64-4.23,24.02-1.72,33.53,4.65c9.8,6.56,17.51,17.28,22.46,28.83   c0.2,0.45,0.42,0.98,0.65,1.53c5.2,12.82,8.4,28.41,11.83,45.13c9.95,48.44,21.93,106.74,91.88,128.23l-0.01,0.02   c12.42,3.02,24.21,4.64,33.96,4.67c7.6,0.03,13.77-0.91,17.75-2.88c2.83-1.4,4.29-3.42,3.88-6.1c-0.93-6-8.16-14.87-24.21-27.07   c-55.82-42.43-75.35-88.49-91.42-126.39c-7.52-17.74-14.27-33.64-23.6-46.21c-4.88-6.57-10.34-11.7-16.1-15.59   c-11.4-7.7-23.94-10.53-35.36-10.15c-11.35,0.37-21.51,3.88-28.26,8.89c-1.3,0.97-2.47,1.99-3.48,3.05   C488.37,196.16,490.51,199.3,492.44,202.59L492.44,202.59L492.44,202.59z"
   id="path44" />
	<path
   class="st1"
   d="M597.24,388.26c-29.07-28.9-37.28-68.84-44.47-103.86c-3.34-16.28-6.46-31.45-11.41-43.66l-0.57-1.39   c-4.37-10.2-11.05-19.58-19.44-25.19c-7.11-4.76-15.56-6.76-24.95-4.06c2.15,4.52,4.03,9.24,5.79,14.05   c3.09,1.37,6.12,3.57,8.94,6.89c2.86,3.38,5.51,7.95,7.73,14.02v0.02c3.22,8.81,5.46,18.65,7.87,29.27   c7.13,31.45,15.85,69.85,57.09,104.27C587.91,382.03,592.43,385.25,597.24,388.26L597.24,388.26L597.24,388.26z"
   id="path46" />
	<path
   class="st3"
   d="M429.6,311.91c0.05,6.03,0.12,17.54,0.01,21.7c2.17,3.6,8.99,9.47,14.22,5.69   c-0.65,8.99-11.94,7.62-18.41,2.03c-6.47,5.6-17.76,6.96-18.41-2.03c5.23,3.78,12.06-2.09,14.22-5.69   c-0.11-4.16-0.04-15.66,0.01-21.7c-7.98-1.44-18.48-6.62-8.69-15.73c0.02,0.02,7.26,7.8,12.85,7.8c5.58,0,12.83-7.78,12.85-7.8   C448.04,305.28,437.58,310.47,429.6,311.91L429.6,311.91L429.6,311.91z"
   id="path48" />
	<path
   class="st3"
   d="M476.72,253.22c4.7,0,8.51,6.11,8.51,13.64c0,7.53-3.81,13.64-8.51,13.64c-4.7,0-8.51-6.11-8.51-13.64   C468.21,259.33,472.02,253.22,476.72,253.22L476.72,253.22L476.72,253.22z"
   id="path50" />
	<path
   class="st3"
   d="M374.1,253.22c4.7,0,8.51,6.11,8.51,13.64c0,7.53-3.81,13.64-8.51,13.64c-4.7,0-8.51-6.11-8.51-13.64   C365.59,259.33,369.4,253.22,374.1,253.22L374.1,253.22L374.1,253.22z"
   id="path52" />
	<path
   class="st1"
   d="M253.58,388.26c4.81-3,9.33-6.22,13.44-9.65c41.24-34.42,49.95-72.83,57.09-104.27   c2.41-10.61,4.64-20.46,7.87-29.27v-0.02c2.22-6.07,4.86-10.64,7.73-14.02c2.81-3.32,5.84-5.52,8.94-6.89   c1.76-4.81,3.64-9.53,5.79-14.05c-9.39-2.7-17.84-0.7-24.95,4.06c-8.39,5.61-15.07,15-19.44,25.19l-0.58,1.39   c-4.95,12.21-8.07,27.38-11.41,43.66C290.86,319.42,282.65,359.36,253.58,388.26L253.58,388.26L253.58,388.26z"
   id="path54" />
	<path
   class="st2"
   d="M364.87,193.22c-1.01-1.06-2.18-2.08-3.48-3.05c-6.75-5.01-16.92-8.52-28.26-8.89   c-11.42-0.38-23.96,2.45-35.36,10.15c-5.75,3.89-11.22,9.01-16.1,15.59c-9.34,12.57-16.08,28.48-23.6,46.21   c-16.07,37.9-35.6,83.96-91.42,126.39c-16.04,12.19-23.28,21.07-24.21,27.07c-0.41,2.67,1.05,4.69,3.87,6.1   c3.98,1.97,10.16,2.9,17.75,2.88c9.75-0.03,21.54-1.65,33.96-4.67l-0.01-0.02c69.95-21.5,81.93-79.79,91.88-128.23   c3.43-16.72,6.64-32.31,11.83-45.13l0.64-1.54c4.96-11.54,12.66-22.26,22.47-28.83c9.52-6.37,20.89-8.88,33.54-4.65   C360.31,199.3,362.46,196.16,364.87,193.22L364.87,193.22L364.87,193.22z"
   id="path56" />
	<path
   class="st1"
   d="M364.87,193.22c-1.01-1.06-2.18-2.08-3.48-3.05c-4.67-3.47-10.97-6.21-18.17-7.7   c-2.28,3.52-6.35,6.91-13.16,9.69c-27.03,11.01-47.55,32.04-55.56,85.6c-8.01,53.56-50.4,132.9-132.07,130.53   c0.28,1.9,1.65,3.4,3.89,4.5c3.98,1.97,10.16,2.9,17.75,2.88c9.75-0.03,21.54-1.65,33.96-4.67l-0.01-0.02   c69.95-21.5,81.93-79.79,91.88-128.23c3.43-16.72,6.64-32.31,11.83-45.13l0.64-1.54c4.96-11.54,12.66-22.26,22.47-28.83   c9.52-6.37,20.89-8.88,33.54-4.65C360.31,199.3,362.46,196.16,364.87,193.22L364.87,193.22L364.87,193.22z"
   id="path58" />
	<path
   class="st2"
   d="M450.59,620.07c3.08,0.68,6.34,1.1,9.7,1.28c13.42,0.7,28.38-2.65,41.08-10.39   c12.58-7.67,22.92-19.67,27.24-36.34c0.51-1.98,0.94-4.03,1.28-6.15c-6.11,2.52-12.43,3.05-18.46,2.06   c-5.37-0.89-10.48-3-14.97-6.03c-4.48-3.03-8.38-6.96-11.34-11.47c-7.25-11.06-9.08-25.67-0.62-39.42   c9.66-15.7,17.2-34.62,20.87-53.24c0.97-4.94,1.82-9.86,2.43-14.68c-5.24-10.31-9.71-25.14-14.05-39.51   c-4.38-14.5-8.61-28.51-13.01-35.99c-0.98,0.42-1.98,0.82-3,1.21c-13.98,5.41-31.3,8.73-52.14,9.73h-0.39   c-15.05-0.73-28.26-2.66-39.7-5.71l-0.24,0.5h-0.02c-0.62,1.28-1.32,2.54-2.08,3.79c-1.58,2.6-3.02,5.21-4.32,7.81   c-10.68,21.49-12.1,43.8-5.55,63.93c6.57,20.22,21.18,38.33,42.51,51.33c2.98,1.82,6.09,3.53,9.31,5.14   c11.64,5.78,17.24,17.03,17.73,29.21c0.26,6.31-0.88,12.88-3.27,19.02c-2.39,6.16-6.05,11.91-10.83,16.59   c-2.8,2.74-5.97,5.11-9.5,6.99C432.28,590.92,443.86,605.4,450.59,620.07L450.59,620.07L450.59,620.07z"
   id="path60" />
	<path
   class="st1"
   d="M393.74,377.36c-2.84-0.59-5.58-1.23-8.22-1.94l-0.24,0.5h-0.02c-0.62,1.28-1.32,2.54-2.08,3.79   c-1.58,2.6-3.02,5.21-4.32,7.81c-10.68,21.49-12.1,43.8-5.55,63.93c3.42,10.53,9.02,20.49,16.62,29.45   C360.52,429.35,381.79,392.24,393.74,377.36L393.74,377.36L393.74,377.36z"
   id="path62" />
	<path
   class="st1"
   d="M450.59,620.07c3.08,0.68,6.34,1.1,9.7,1.28c13.42,0.7,28.38-2.65,41.08-10.39   c12.58-7.67,22.92-19.67,27.24-36.34c0.51-1.98,0.94-4.03,1.28-6.15c-6.11,2.52-12.43,3.05-18.46,2.06   c-5.37-0.89-10.48-3-14.97-6.03c-4.48-3.03-8.38-6.96-11.34-11.47c-2.27-3.46-4.01-7.26-5.06-11.28c-2.39,4.5-6.99,9.82-15.6,11.07   c-11.05,1.61-19.05-1.61-22.74-3.6c-0.53,2.35-1.24,4.67-2.12,6.93c-2.39,6.16-6.05,11.91-10.83,16.59   c-2.8,2.74-5.97,5.11-9.5,6.99C432.28,590.92,443.86,605.4,450.59,620.07L450.59,620.07L450.59,620.07z"
   id="path64" />
	<path
   class="st1"
   d="M486.39,383.09c-1.87-5.2-3.74-9.67-5.65-12.9c-0.98,0.42-1.98,0.82-3,1.21c-13.98,5.41-31.3,8.73-52.14,9.73   h-0.39c-15.05-0.73-28.26-2.66-39.7-5.71l-0.24,0.5h-0.02c-0.62,1.28-1.32,2.54-2.08,3.79c-1.58,2.6-3.02,5.21-4.32,7.81   l-0.31,0.63c13.2,3.87,28.78,6.3,46.86,7.18c22.89-1.12,41.79-4.72,56.9-10.58C483.71,384.23,485.07,383.67,486.39,383.09   L486.39,383.09L486.39,383.09z"
   id="path66" />
	<path
   class="st4"
   d="M319.09,589.45c2.73-8.1,7.26-15.53,13.63-21.25c3.9-3.5,8.48-6.37,13.73-8.35c-0.46-0.44-0.92-0.88-1.37-1.32   c-14.08-13.86-23.62-31.84-28.94-51.6c-0.81,4.61-1.5,9.09-2.04,13.33c-1.18,9.21-1.69,17.3-1.21,23.18l0.43,5.77   C314.2,561.25,315.42,577.89,319.09,589.45L319.09,589.45L319.09,589.45z M353.97,566.24c-6.24,1.49-11.46,4.36-15.68,8.15   c-5.94,5.33-9.96,12.52-12.13,20.33c-2.19,7.91-2.46,16.45-0.88,24.39c1.48,7.41,4.57,14.23,9.22,19.41   c2.84,3.16,6.23,6.2,10.03,9.08c14.34,10.85,34.34,19.25,53.06,22.86c18.13,3.5,34.79,2.56,43.23-5.03c0.8-0.72,1.53-1.5,2.17-2.35   c7.42-9.8,6.82-22.88,1.49-36.17c-6.41-15.99-19.52-32.14-34.11-43.75c-6.74,1.69-14.38,1.71-22.79-0.54   C374.69,579.16,363.51,573.53,353.97,566.24L353.97,566.24L353.97,566.24z M552.66,631.68c-1.45-1.61-2.76-3.36-3.94-5.2   c-5.33-8.32-7.87-25.55-0.8-34.65c-0.22,8.25,1.79,20.77,7.8,30.16c4.01,6.26,9.88,11.06,18.16,11.92   c7.95,0.83,18.65-8.3,28.64-21.73c11.23-15.1,21.11-35.4,25.32-53.66c3.17-13.75-2.01-25.41-10.81-33.32   c-4.4-3.96-9.69-6.99-15.31-8.91c-5.62-1.92-11.54-2.72-17.17-2.21c-10.33,0.94-19.82,6.37-24.82,17.56   c-2.48,6.34-5.62,12.51-9.5,18.44c-0.63,0.96-1.36,2.02-2.17,3.17c-2.86,4.02-5.94,7.28-9.17,9.86c-0.36,4.79-1.12,9.32-2.23,13.59   c-4.92,18.99-16.67,32.65-30.95,41.36c-1.34,0.82-2.71,1.59-4.09,2.32C514.14,623.71,535.01,628.92,552.66,631.68L552.66,631.68   L552.66,631.68z M307.36,573.89c-1.2-8.43-1.83-17.01-2.34-24.1c-0.14-1.88-0.27-3.64-0.43-5.7c-0.34-4.25-0.23-9.51,0.26-15.44   c-3.34-1.66-7.24-2.99-11.31-3.25c-3.74-0.24-7.67,0.43-11.47,2.62c-5.65,3.25-8.8,12.63-8.49,22.34   c0.14,4.27,0.97,8.55,2.58,12.37c1.54,3.65,3.81,6.87,6.87,9.2C288.32,575.95,296.26,577.37,307.36,573.89L307.36,573.89   L307.36,573.89z M358.71,364.41c-0.67,0.59-1.37,1.26-2.08,1.99c-14.99,15.23-25.76,35.83-31.76,58.24   c-6.08,22.68-7.27,47.15-3.04,69.78c4.2,22.45,13.72,43.05,29.09,58.18c10.25,10.09,23.13,17.77,38.82,21.97   c14.16,3.79,25.51-0.24,33.2-7.76c3.92-3.84,6.93-8.58,8.9-13.65c1.98-5.09,2.92-10.51,2.71-15.69c-0.38-9.29-4.51-17.8-13.1-22.07   c-3.46-1.72-6.79-3.56-9.97-5.49c-23.07-14.07-38.92-33.78-46.1-55.86c-7.21-22.17-5.68-46.66,6.01-70.19   c1.42-2.85,2.97-5.67,4.68-8.47c0.52-0.85,0.97-1.65,1.36-2.4c-1.49-0.51-2.94-1.03-4.36-1.58   C367.82,369.36,363.04,367.03,358.71,364.41L358.71,364.41L358.71,364.41z M425.41,178.11c-52.55,0-62.82,30.37-73.22,61.15   c-1.84,5.44-3.68,10.9-5.76,16.27c-6.58,17-10.32,32.48-10.98,46.2c-0.71,14.7,2.12,27.36,8.75,37.71   c6.64,10.35,17.17,18.52,31.88,24.21c13.1,5.08,29.49,8.2,49.34,9.17c19.85-0.97,36.23-4.09,49.34-9.17   c14.7-5.7,25.24-13.86,31.87-24.21c6.63-10.34,9.46-23.01,8.75-37.71c-1.1-22.73-9.65-41.48-16.74-62.47   C488.23,208.48,477.97,178.11,425.41,178.11L425.41,178.11L425.41,178.11z M488.27,366.6c4.83,8.6,9.08,22.67,13.47,37.2   c2.21,7.31,4.45,14.74,6.79,21.55c-0.35-4.15-1.07-8.12-2.27-11.87c12.51,3.9,9.55,37.06,7.3,48.48   c-3.86,19.61-11.8,39.51-21.95,56.01c-6.54,10.63-5.12,21.93,0.49,30.49c2.37,3.61,5.47,6.74,9.01,9.12h0.02   c3.54,2.39,7.52,4.04,11.65,4.73c9.52,1.57,20.11-2.04,28.51-13.88c0.61-0.86,1.27-1.84,1.98-2.91   c20.49-31.31,18.62-70.24,6.69-104.89c-11.93-34.64-33.77-64.86-53.46-79.07C493.94,363.36,491.2,365.04,488.27,366.6L488.27,366.6   L488.27,366.6z M492.44,202.59c12.64-4.23,24.02-1.72,33.53,4.65c9.8,6.56,17.51,17.28,22.46,28.83c0.2,0.45,0.42,0.98,0.65,1.53   c5.2,12.82,8.4,28.41,11.83,45.13c9.95,48.44,21.93,106.74,91.88,128.23l-0.01,0.02c12.42,3.02,24.21,4.64,33.96,4.67   c7.6,0.03,13.77-0.91,17.75-2.88c2.83-1.4,4.29-3.42,3.88-6.1c-0.93-6-8.16-14.87-24.21-27.07   c-55.82-42.43-75.35-88.49-91.42-126.39c-7.52-17.74-14.27-33.64-23.6-46.21c-4.88-6.57-10.34-11.7-16.1-15.59   c-11.4-7.7-23.94-10.53-35.36-10.15c-11.35,0.37-21.51,3.88-28.26,8.89c-1.3,0.97-2.47,1.99-3.48,3.05   C488.37,196.16,490.51,199.3,492.44,202.59L492.44,202.59L492.44,202.59z M597.24,388.26c-29.07-28.9-37.28-68.84-44.47-103.86   c-3.34-16.28-6.46-31.45-11.41-43.66l-0.57-1.39c-4.37-10.2-11.05-19.58-19.44-25.19c-7.11-4.76-15.56-6.76-24.95-4.06   c2.15,4.52,4.03,9.24,5.79,14.05c3.09,1.37,6.12,3.57,8.94,6.89c2.86,3.38,5.51,7.95,7.73,14.02v0.02   c3.22,8.81,5.46,18.65,7.87,29.27c7.13,31.45,15.85,69.85,57.09,104.27C587.91,382.03,592.43,385.25,597.24,388.26L597.24,388.26   L597.24,388.26z M429.6,311.91c0.05,6.03,0.12,17.54,0.01,21.7c2.17,3.6,8.99,9.47,14.22,5.69c-0.65,8.99-11.94,7.62-18.41,2.03   c-6.47,5.6-17.76,6.96-18.41-2.03c5.23,3.78,12.06-2.09,14.22-5.69c-0.11-4.16-0.04-15.66,0.01-21.7   c-7.98-1.44-18.48-6.62-8.69-15.73c0.02,0.02,7.26,7.8,12.85,7.8c5.58,0,12.83-7.78,12.85-7.8   C448.04,305.28,437.58,310.47,429.6,311.91L429.6,311.91L429.6,311.91z M476.72,253.22c4.7,0,8.51,6.11,8.51,13.64   c0,7.53-3.81,13.64-8.51,13.64c-4.7,0-8.51-6.11-8.51-13.64C468.21,259.33,472.02,253.22,476.72,253.22L476.72,253.22   L476.72,253.22z M374.1,253.22c4.7,0,8.51,6.11,8.51,13.64c0,7.53-3.81,13.64-8.51,13.64c-4.7,0-8.51-6.11-8.51-13.64   C365.59,259.33,369.4,253.22,374.1,253.22L374.1,253.22L374.1,253.22z M327.58,295.54c-7.47,28.38-20.1,60.13-55.21,89.45   c-19.02,15.87-46.39,27.56-71.5,33.81l-0.39,0.12l-0.01-0.02c-13.31,3.28-25.96,5.04-36.39,5.07c-8.85,0.03-16.29-1.18-21.44-3.73   c-6.3-3.12-9.49-8.01-8.44-14.83c1.24-8,9.46-18.75,27.43-32.41c54.04-41.08,73.1-86.02,88.78-123   c7.73-18.24,14.67-34.6,24.58-47.94c5.49-7.4,11.64-13.17,18.12-17.54c12.97-8.76,27.26-11.98,40.28-11.55   c13.09,0.43,24.96,4.59,32.96,10.53c1.56,1.16,2.98,2.39,4.25,3.67c11.51-10.58,28.31-17.4,54.82-17.4   c26.51,0,43.31,6.81,54.82,17.4c1.27-1.28,2.68-2.51,4.24-3.67c8-5.94,19.87-10.09,32.95-10.53c13.02-0.43,27.31,2.79,40.28,11.55   c6.48,4.38,12.63,10.14,18.12,17.54c9.91,13.34,16.85,29.7,24.58,47.94c15.68,36.98,34.74,81.92,88.78,123   c17.97,13.66,26.2,24.41,27.43,32.41c1.05,6.82-2.14,11.71-8.44,14.83c-5.14,2.55-12.58,3.75-21.43,3.73   c-10.43-0.04-23.09-1.79-36.39-5.07l-0.01,0.02l-0.39-0.12c-25.12-6.25-52.49-17.94-71.5-33.81   c-35.12-29.32-47.74-61.07-55.22-89.45c0.2,1.96,0.35,3.89,0.44,5.79c0.79,16.44-2.45,30.75-10.05,42.6   c-2.86,4.46-6.32,8.55-10.41,12.27c20.41,15.6,42.51,46.57,54.62,81.73c8.23,23.92,11.89,49.84,7.38,74.34   c5.52-3.77,11.92-5.85,18.58-6.46c6.83-0.62,13.92,0.32,20.59,2.6c6.68,2.28,12.97,5.89,18.21,10.6   c10.89,9.79,17.3,24.26,13.35,41.37c-4.46,19.34-14.9,40.81-26.75,56.75c-11.65,15.66-25,26.22-36.17,25.06   c-0.86-0.09-1.7-0.21-2.52-0.36c-24.9-0.52-73.26-13.94-81.25-16.2c-9.77,3.22-19.93,4.53-29.4,4.04c-1.95-0.1-3.87-0.28-5.76-0.53   c4.45,14.09,3.9,27.91-4.47,38.97c-0.97,1.28-2.05,2.45-3.25,3.52c-10.57,9.49-29.87,10.97-50.37,7.02   c-19.9-3.84-41.19-12.8-56.51-24.39c-4.22-3.19-8-6.59-11.2-10.15c-5.7-6.34-9.46-14.54-11.21-23.35   c-1.15-5.77-1.44-11.83-0.87-17.83c-3.52-5.15-5.86-12.61-7.48-20.75c-13.52,3.97-23.65,1.8-30.79-3.63   c-4.27-3.25-7.39-7.64-9.48-12.59c-2.02-4.79-3.06-10.09-3.23-15.33c-0.4-12.52,4.3-24.99,12.66-29.8   c5.4-3.11,10.92-4.06,16.14-3.73c4.19,0.27,8.16,1.37,11.71,2.84l0.09-0.71c1.35-10.49,3.54-22.31,6.18-34.03   c-2.36-20.72-0.65-42.41,4.78-62.69c6.36-23.73,17.83-45.62,33.88-61.92c0.32-0.33,0.65-0.65,0.98-0.97   c-5.9-4.56-10.71-9.8-14.47-15.67c-7.6-11.85-10.85-26.15-10.05-42.6C327.23,299.43,327.38,297.5,327.58,295.54L327.58,295.54   L327.58,295.54z M253.58,388.26c4.81-3,9.33-6.22,13.44-9.65c41.24-34.42,49.95-72.83,57.09-104.27   c2.41-10.61,4.64-20.46,7.87-29.27v-0.02c2.22-6.07,4.86-10.64,7.73-14.02c2.81-3.32,5.84-5.52,8.94-6.89   c1.76-4.81,3.64-9.53,5.79-14.05c-9.39-2.7-17.84-0.7-24.95,4.06c-8.39,5.61-15.07,15-19.44,25.19l-0.58,1.39   c-4.95,12.21-8.07,27.38-11.41,43.66C290.86,319.42,282.65,359.36,253.58,388.26L253.58,388.26L253.58,388.26z M364.87,193.22   c-1.01-1.06-2.18-2.08-3.48-3.05c-6.75-5.01-16.92-8.52-28.26-8.89c-11.42-0.38-23.96,2.45-35.36,10.15   c-5.75,3.89-11.22,9.01-16.1,15.59c-9.34,12.57-16.08,28.48-23.6,46.21c-16.07,37.9-35.6,83.96-91.42,126.39   c-16.04,12.19-23.28,21.07-24.21,27.07c-0.41,2.67,1.05,4.69,3.87,6.1c3.98,1.97,10.16,2.9,17.75,2.88   c9.75-0.03,21.54-1.65,33.96-4.67l-0.01-0.02c69.95-21.5,81.93-79.79,91.88-128.23c3.43-16.72,6.64-32.31,11.83-45.13l0.64-1.54   c4.96-11.54,12.66-22.26,22.47-28.83c9.52-6.37,20.89-8.88,33.54-4.65C360.31,199.3,362.46,196.16,364.87,193.22L364.87,193.22   L364.87,193.22z M450.59,620.07c3.08,0.68,6.34,1.1,9.7,1.28c13.42,0.7,28.38-2.65,41.08-10.39c12.58-7.67,22.92-19.67,27.24-36.34   c0.51-1.98,0.94-4.03,1.28-6.15c-6.11,2.52-12.43,3.05-18.46,2.06c-5.37-0.89-10.48-3-14.97-6.03c-4.48-3.03-8.38-6.96-11.34-11.47   c-7.25-11.06-9.08-25.67-0.62-39.42c9.66-15.7,17.2-34.62,20.87-53.24c0.97-4.94,1.82-9.86,2.43-14.68   c-5.24-10.31-9.71-25.14-14.05-39.51c-4.38-14.5-8.61-28.51-13.01-35.99c-0.98,0.42-1.98,0.82-3,1.21   c-13.98,5.41-31.3,8.73-52.14,9.73h-0.39c-15.05-0.73-28.26-2.66-39.7-5.71l-0.24,0.5h-0.02c-0.62,1.28-1.32,2.54-2.08,3.79   c-1.58,2.6-3.02,5.21-4.32,7.81c-10.68,21.49-12.1,43.8-5.55,63.93c6.57,20.22,21.18,38.33,42.51,51.33   c2.98,1.82,6.09,3.53,9.31,5.14c11.64,5.78,17.24,17.03,17.73,29.21c0.26,6.31-0.88,12.88-3.27,19.02   c-2.39,6.16-6.05,11.91-10.83,16.59c-2.8,2.74-5.97,5.11-9.5,6.99C432.28,590.92,443.86,605.4,450.59,620.07L450.59,620.07   L450.59,620.07z"
   id="path68" />
	<path
   class="st1"
   d="M485.95,193.23c1.01-1.06,2.18-2.08,3.48-3.05c4.67-3.47,10.98-6.22,18.18-7.7c2.28,3.52,6.35,6.91,13.16,9.69   c27.03,11.01,47.55,32.03,55.56,85.6c8.01,53.56,50.4,132.9,132.08,130.53c-0.28,1.9-1.66,3.4-3.89,4.5   c-3.98,1.97-10.16,2.9-17.75,2.88c-9.75-0.03-21.54-1.64-33.96-4.67l0.01-0.02c-69.95-21.5-81.93-79.79-91.88-128.24   c-3.44-16.72-6.64-32.31-11.83-45.13l-0.64-1.54c-4.96-11.54-12.66-22.26-22.47-28.83c-9.52-6.37-20.89-8.88-33.54-4.65   C490.51,199.3,488.37,196.17,485.95,193.23L485.95,193.23L485.95,193.23z"
   id="path70" />
	<path
   class="st5"
   d="M371.7,258.22c1.28,0,2.32,1.93,2.32,4.32c0,2.39-1.04,4.32-2.32,4.32c-1.28,0-2.32-1.93-2.32-4.32   C369.38,260.15,370.42,258.22,371.7,258.22L371.7,258.22L371.7,258.22z"
   id="path72" />
	<path
   class="st5"
   d="M479.13,258.22c1.28,0,2.32,1.93,2.32,4.32c0,2.39-1.04,4.32-2.32,4.32c-1.28,0-2.32-1.93-2.32-4.32   C476.81,260.15,477.85,258.22,479.13,258.22L479.13,258.22L479.13,258.22z"
   id="path74" />
</g>
</svg>
