<svg width="1000" height="1000" viewBox="0 0 1000 1000" fill="none" xmlns="http://www.w3.org/2000/svg">
<path d="M500 1000C777.085 1000 1000 777.085 1000 500C1000 222.915 777.085 0 500 0C222.915 0 0 222.915 0 500C0 777.085 222.915 1000 500 1000Z" fill="url(#paint0_radial_130_60)"/>
<path d="M274.415 312H229.5V525.478C229.5 529.079 229.617 532.601 229.852 536.044V750.816H274.415V616.878C288.873 625.97 305.847 630.516 325.338 630.516H364.91C379.749 630.516 395.001 625.573 410.665 615.687C426.329 605.801 438.901 593.444 448.382 578.615V625.573H491.663V312H447.145V510.649C442.611 533.716 432.306 552.87 416.229 568.111C400.153 583.352 382.635 590.972 363.673 590.972H325.338C310.086 590.972 297.72 585.205 288.239 573.672C280.341 563.721 275.733 551.196 274.415 536.1V312Z" fill="url(#paint1_linear_130_60)"/>
<path fill-rule="evenodd" clip-rule="evenodd" d="M559.871 728.757C577.595 743.586 600.061 751 627.266 751H678.586C713.624 751 741.035 740.496 760.821 719.489C780.607 698.481 790.5 669.235 790.5 631.751V317.256H747.218V351.857C739.386 340.324 728.463 330.85 714.448 323.435C700.433 316.021 686.83 312.313 673.639 312.313H630.358C595.732 312.313 567.702 323.641 546.268 346.296C525.245 368.951 514.734 398.609 514.734 435.269V507.56C514.734 531.039 519.268 551.634 528.337 569.347C537.405 587.059 550.184 600.858 566.672 610.744C583.16 620.63 601.916 625.573 622.938 625.573H668.075C681.678 625.573 695.693 621.866 710.12 614.451C724.959 606.625 736.913 596.533 745.982 584.176V631.751C745.982 657.29 740.005 677.062 728.051 691.067C716.509 705.484 700.021 712.692 678.586 712.692H627.266C613.251 712.692 601.297 708.779 591.404 700.953C581.924 693.538 576.359 683.652 574.71 671.295H530.192C532.253 695.186 542.146 714.34 559.871 728.757ZM720.631 561.932C706.204 577.997 688.685 586.029 668.075 586.029H624.175C605.213 586.029 589.549 578.821 577.183 564.404C565.229 549.575 559.252 530.627 559.252 507.56V435.269C559.252 410.143 565.848 389.959 579.038 374.718C592.229 359.477 609.747 351.857 631.594 351.857H673.639C692.601 351.857 708.883 358.654 722.486 372.247C736.501 385.428 744.333 402.522 745.982 423.53V499.528C743.921 524.654 735.47 545.456 720.631 561.932Z" fill="url(#paint2_linear_130_60)"/>
<defs>
<radialGradient id="paint0_radial_130_60" cx="0" cy="0" r="1" gradientUnits="userSpaceOnUse" gradientTransform="translate(-481.5 -318) rotate(41.6575) scale(1982.92)">
<stop offset="0.381374" stop-color="#ECB91D"/>
<stop offset="0.529997" stop-color="#F681AE"/>
<stop offset="0.948773" stop-color="#17B2E8"/>
</radialGradient>
<linearGradient id="paint1_linear_130_60" x1="510" y1="312" x2="510" y2="751" gradientUnits="userSpaceOnUse">
<stop stop-color="white"/>
<stop offset="1" stop-color="#D1FFEF"/>
</linearGradient>
<linearGradient id="paint2_linear_130_60" x1="510" y1="312" x2="510" y2="751" gradientUnits="userSpaceOnUse">
<stop stop-color="white"/>
<stop offset="1" stop-color="#D1FFEF"/>
</linearGradient>
</defs>
</svg>
