<?xml version="1.0" standalone="no"?>
<!DOCTYPE svg PUBLIC "-//W3C//DTD SVG 20010904//EN"
 "http://www.w3.org/TR/2001/REC-SVG-20010904/DTD/svg10.dtd">
<svg version="1.0" xmlns="http://www.w3.org/2000/svg"
 width="1500.000000pt" height="1500.000000pt" viewBox="0 0 1500.000000 1500.000000"
 preserveAspectRatio="xMidYMid meet">

<g transform="translate(0.000000,1500.000000) scale(0.100000,-0.100000)"
fill="#000000" stroke="none">
<path d="M7230 12724 c-96 -35 -120 -62 -120 -131 0 -69 38 -101 145 -123 73
-16 95 -26 95 -45 0 -35 -100 -32 -115 3 -9 19 -17 22 -73 22 l-62 0 6 -27
c17 -79 75 -113 189 -113 126 0 188 45 188 135 0 73 -34 100 -162 129 -74 17
-90 28 -71 51 19 22 77 19 92 -5 10 -16 24 -20 70 -20 46 0 58 3 58 15 0 32
-30 73 -66 90 -37 18 -146 30 -174 19z"/>
<path d="M7885 12683 c-35 -9 -85 -53 -105 -92 -46 -92 -34 -201 30 -262 47
-45 108 -62 198 -57 57 3 76 8 107 32 50 39 76 99 76 181 1 128 -71 195 -215
201 -39 2 -80 0 -91 -3z m149 -114 c22 -17 26 -29 26 -68 0 -93 -26 -131 -90
-131 -76 0 -97 45 -74 158 12 59 86 82 138 41z"/>
<path d="M6175 12581 c-112 -28 -150 -41 -149 -52 4 -48 89 -379 98 -379 21 0
321 73 329 80 12 11 -11 90 -26 90 -7 0 -55 -11 -107 -25 -99 -25 -113 -23
-108 20 3 16 19 23 88 39 47 11 86 21 88 22 2 1 -2 22 -8 46 l-11 44 -89 -20
c-49 -11 -91 -18 -93 -15 -3 2 -7 14 -11 26 -6 20 0 23 86 43 51 11 100 23
109 26 14 4 15 11 6 49 -13 55 -4 55 -202 6z"/>
<path d="M8481 12394 c-29 -108 -51 -197 -49 -199 5 -5 302 -85 314 -85 10 0
34 62 34 87 0 9 -30 19 -157 52 l-41 11 34 128 c19 70 37 136 40 148 4 17 -1
22 -43 31 -26 7 -55 14 -64 18 -12 5 -24 -29 -68 -191z"/>
<path d="M5495 12365 c-67 -26 -110 -48 -109 -57 1 -11 133 -358 139 -366 6
-8 115 43 115 54 0 7 -9 35 -19 62 l-19 49 68 30 c78 35 103 66 103 126 0 82
-60 148 -133 146 -19 0 -84 -20 -145 -44z m133 -77 c25 -25 14 -58 -24 -74
-20 -8 -37 -14 -38 -12 -8 11 -28 69 -25 72 31 26 69 32 87 14z"/>
<path d="M9106 12198 c-81 -88 -146 -161 -144 -162 1 -1 30 -13 62 -26 l59
-24 18 23 19 23 65 -27 c61 -26 65 -30 65 -60 0 -30 4 -34 57 -54 40 -15 58
-18 63 -10 11 17 23 410 14 418 -5 4 -36 19 -69 33 l-61 26 -148 -160z m165
-45 c-4 -35 -10 -66 -14 -69 -8 -8 -67 15 -67 26 0 8 82 111 86 107 1 -1 -1
-30 -5 -64z"/>
<path d="M4902 12084 c-52 -30 -61 -39 -57 -57 3 -12 18 -107 35 -211 16 -104
31 -190 32 -191 2 -2 28 11 57 29 48 28 55 36 55 64 1 30 7 36 59 64 l58 31
21 -21 21 -21 59 32 c32 18 57 35 55 38 -4 11 -315 279 -324 279 -4 0 -36 -16
-71 -36z m122 -153 l48 -48 -37 -23 c-20 -12 -37 -21 -39 -19 -8 9 -32 139
-27 139 4 0 28 -22 55 -49z"/>
<path d="M9786 12078 c-38 -60 -187 -311 -189 -319 -1 -5 20 -22 48 -38 l49
-30 42 70 c42 72 64 100 64 84 0 -20 39 -235 44 -243 7 -11 95 -57 99 -52 2 3
49 81 105 175 l101 169 -47 28 c-26 15 -50 28 -54 28 -3 0 -27 -36 -53 -80
-26 -45 -49 -79 -51 -78 -1 2 -12 59 -24 128 -12 69 -22 125 -23 126 -1 1 -23
13 -49 28 l-47 27 -15 -23z"/>
<path d="M10330 11519 c-91 -55 -171 -103 -178 -108 -10 -6 0 -19 37 -50 50
-42 52 -43 76 -27 25 16 27 16 80 -26 55 -43 56 -46 38 -94 -3 -9 97 -97 104
-90 1 1 34 93 72 204 l70 202 -55 45 c-31 25 -61 45 -67 44 -7 0 -86 -46 -177
-100z m138 -99 l-31 -69 -29 24 c-16 13 -29 27 -29 31 0 5 110 84 118 84 1 0
-12 -31 -29 -70z"/>
<path d="M4033 11462 c-37 -20 -191 -153 -192 -166 -1 -11 258 -296 269 -296
15 0 180 162 196 191 19 37 18 112 -2 152 -20 40 -81 104 -116 123 -36 19
-116 17 -155 -4z m126 -147 c49 -53 53 -86 14 -127 -15 -15 -30 -28 -34 -28
-3 0 -37 34 -75 76 l-68 77 29 23 c48 38 85 32 134 -21z"/>
<path d="M8974 11096 c-12 -32 -222 -123 -459 -200 -132 -43 -249 -82 -260
-87 -11 -5 -177 -10 -370 -12 -375 -4 -362 -2 -625 -68 -162 -40 -270 -76
-380 -125 -99 -44 -393 -194 -411 -210 -8 -8 -19 -14 -23 -14 -8 0 -207 -132
-260 -173 -106 -79 -244 -178 -298 -211 -62 -39 -90 -60 -357 -272 l-134 -106
-31 33 c-18 19 -54 63 -81 98 -27 36 -105 120 -174 188 -114 112 -133 127
-225 172 -129 63 -195 81 -293 81 -213 0 -406 -152 -584 -460 -31 -52 -71
-126 -90 -165 -19 -38 -40 -76 -46 -83 -7 -7 -13 -22 -13 -33 0 -10 -4 -19
-10 -19 -5 0 -13 -12 -16 -27 -4 -16 -36 -91 -72 -168 -35 -77 -70 -153 -77
-170 -7 -16 -18 -41 -24 -55 -86 -195 -68 -419 55 -699 14 -31 30 -69 37 -86
33 -81 122 -254 162 -315 92 -142 252 -313 338 -363 73 -43 144 -50 516 -50
459 1 578 17 697 96 25 16 47 27 50 25 16 -16 -57 -484 -85 -553 -17 -39 -40
-111 -51 -155 -6 -25 -18 -72 -26 -105 -43 -171 -56 -287 -73 -689 -6 -134 -6
-228 0 -243 l9 -24 30 21 c20 14 31 32 35 58 8 52 11 60 32 117 21 58 70 145
82 145 7 0 31 -127 46 -245 4 -28 15 -59 26 -71 20 -21 53 -81 131 -234 23
-47 45 -87 48 -90 3 -3 11 -16 18 -30 47 -95 179 -260 208 -260 7 0 14 -6 17
-12 3 -10 7 -10 20 1 21 17 22 68 3 107 -21 41 -36 180 -35 314 1 63 4 106 6
95 3 -11 9 -24 13 -30 4 -5 11 -26 15 -45 4 -19 11 -41 16 -50 4 -8 33 -68 64
-132 31 -65 61 -118 66 -118 5 0 9 -5 9 -10 0 -17 51 -60 70 -60 9 0 22 -10
28 -22 14 -27 35 -61 42 -68 11 -11 50 -70 50 -75 0 -9 43 -67 68 -91 12 -12
22 -25 22 -29 0 -9 77 -100 114 -136 14 -13 26 -29 26 -35 0 -12 60 -72 89
-88 11 -6 53 -41 94 -78 41 -38 82 -68 91 -68 9 0 16 -6 16 -13 0 -7 21 -24
48 -37 26 -14 66 -42 89 -62 27 -25 56 -40 82 -44 23 -4 46 -13 52 -20 6 -8
18 -14 25 -14 8 0 14 -4 14 -9 0 -9 72 -50 164 -92 50 -24 66 -33 66 -41 0 -5
9 -3 19 4 15 9 25 9 43 0 13 -6 43 -17 68 -22 217 -52 224 -53 395 -54 171 0
249 10 375 50 52 17 163 73 168 86 2 4 10 8 17 8 33 0 211 161 266 242 21 32
39 61 39 64 0 7 44 69 88 124 13 16 55 50 93 76 192 127 269 283 241 484 -6
44 -15 87 -20 97 -5 10 -23 48 -41 85 -62 127 -206 291 -348 396 -50 36 -63
51 -63 73 l0 27 153 5 c289 11 379 29 534 104 118 57 226 180 236 269 2 17 7
36 12 44 14 22 18 249 6 330 -22 149 -29 187 -46 246 -27 92 -55 177 -64 199
-5 11 -19 45 -31 75 -12 30 -42 93 -68 139 -33 63 -42 86 -32 89 26 9 206 135
282 198 67 55 192 179 363 359 71 74 165 181 226 256 29 35 69 82 90 104 40
44 109 140 109 153 0 4 12 24 26 43 107 142 172 439 145 662 -12 106 -41 211
-72 262 -10 17 -27 46 -38 65 -26 47 -116 140 -169 173 -87 56 -138 69 -263
69 -124 0 -153 -4 -239 -32 -125 -42 -217 -96 -315 -184 -27 -25 -51 -43 -52
-42 -2 2 9 47 23 102 15 54 39 151 54 214 15 63 34 137 41 164 l14 49 -116
111 c-64 61 -139 138 -166 171 -79 96 -173 247 -173 276 0 7 25 36 56 65 32
29 54 58 52 65 -6 17 -108 15 -140 -2 -36 -19 -33 1 5 36 74 68 44 76 -104 29
-143 -45 -186 -56 -218 -52 -25 3 -22 7 45 78 76 80 124 144 124 166 0 18 -39
18 -46 0z m-184 -326 c0 -5 -7 -10 -15 -10 -8 0 -15 -4 -15 -9 0 -5 -8 -11
-17 -15 -10 -3 -25 -9 -33 -13 -21 -9 18 29 44 43 27 15 36 16 36 4z m190 -50
c0 -5 -6 -10 -14 -10 -8 0 -23 -3 -33 -7 -16 -6 -16 -5 -4 10 15 18 51 23 51
7z m210 -500 c27 -14 67 -79 82 -132 16 -59 21 -316 8 -402 -6 -39 -14 -189
-17 -334 -3 -144 -10 -265 -15 -268 -4 -3 -8 -12 -8 -20 0 -38 -125 -269 -185
-341 -5 -7 -28 -37 -50 -68 l-40 -56 -85 5 c-197 13 -206 16 -285 88 -43 39
-144 88 -182 88 -42 0 -50 16 -59 123 l-7 87 25 0 c15 0 44 -19 78 -50 30 -27
60 -50 67 -50 7 0 13 -4 13 -8 0 -5 33 -19 73 -33 59 -20 92 -24 182 -24 95 0
118 4 165 25 30 13 61 30 69 38 7 7 16 10 19 7 8 -8 -26 -37 -81 -69 -30 -18
-47 -35 -47 -47 0 -10 6 -19 13 -19 19 0 117 67 165 113 55 52 105 136 91 153
-6 7 -2 20 12 37 25 33 17 50 -20 42 -32 -7 -42 5 -96 110 -51 99 -68 162 -73
272 l-4 102 53 -20 c30 -12 77 -38 105 -60 53 -40 74 -48 74 -26 0 23 -29 54
-82 89 -86 56 -141 72 -248 72 -147 1 -245 -38 -388 -154 -35 -28 -66 -49 -70
-46 -3 3 0 23 7 43 31 97 47 354 28 430 -8 32 -8 33 50 58 32 13 65 29 73 35
8 5 24 15 35 20 11 6 47 28 80 50 101 67 168 106 205 119 100 38 221 47 270
21z m-1490 -130 c75 -14 144 -31 165 -40 64 -27 146 -47 329 -80 60 -11 112
-23 116 -27 18 -22 32 -99 33 -192 1 -70 6 -106 14 -108 20 -7 33 66 33 190 0
71 4 117 10 117 6 0 10 -2 10 -4 0 -3 5 -38 10 -78 15 -109 -12 -306 -70 -514
-39 -140 -54 -273 -47 -417 l6 -119 -37 6 c-95 17 -212 18 -277 1 -133 -33
-268 -108 -361 -201 l-57 -58 -241 -3 c-290 -5 -371 -20 -508 -100 -66 -39
-87 -40 -194 -12 -149 39 -217 74 -306 158 -100 94 -137 165 -162 317 -15 91
-15 106 -1 159 8 33 15 65 15 73 0 7 11 37 24 65 13 29 27 62 30 73 20 66 93
171 243 347 240 281 542 429 943 461 59 5 223 -4 280 -14z m-3060 -1 c46 -5
89 -14 95 -18 5 -5 24 -11 40 -15 17 -4 44 -13 60 -21 103 -48 122 -57 139
-68 11 -7 26 -18 35 -25 9 -7 38 -31 65 -52 41 -32 85 -79 169 -180 6 -8 20
-30 31 -50 10 -19 21 -37 25 -40 15 -12 91 -160 91 -178 0 -7 6 -21 12 -32 10
-15 10 -22 0 -32 -9 -9 -12 -9 -12 1 0 7 -13 30 -30 51 -16 21 -30 42 -30 47
0 13 -149 182 -201 227 -24 21 -56 49 -71 62 -14 13 -29 24 -32 24 -3 0 -26
13 -50 29 -63 39 -144 54 -263 49 -71 -3 -117 -12 -168 -30 -91 -33 -181 -76
-196 -94 -6 -8 -17 -14 -23 -14 -6 0 -37 -23 -69 -50 -32 -28 -62 -50 -66 -50
-7 0 -61 -53 -128 -125 -7 -8 -13 -23 -13 -34 0 -32 43 -27 79 9 17 17 32 26
36 20 3 -5 2 -10 -4 -10 -5 0 -12 -13 -16 -30 -4 -16 -11 -30 -16 -30 -5 0 -9
-7 -9 -16 0 -9 -7 -30 -15 -47 -41 -88 -85 -380 -87 -582 -2 -141 13 -315 31
-360 4 -11 16 -45 25 -75 55 -171 199 -384 325 -477 178 -133 445 -213 616
-183 33 5 88 10 123 10 66 0 191 37 222 65 9 8 21 15 26 15 6 0 40 29 77 65
37 36 70 65 73 65 11 0 -3 -171 -15 -183 -8 -8 -11 -7 -11 4 0 8 -9 20 -21 27
-24 15 -78 2 -118 -29 -13 -11 -30 -19 -37 -19 -8 0 -14 -4 -14 -9 0 -5 -12
-12 -27 -15 -24 -6 -48 -16 -113 -46 -8 -4 -16 -17 -18 -29 -3 -18 2 -21 29
-21 21 0 30 -3 23 -10 -17 -17 -196 -32 -384 -31 -235 1 -370 14 -440 41 -30
12 -64 24 -75 27 -11 3 -27 11 -35 18 -8 7 -31 20 -50 29 -98 46 -181 129
-255 254 -5 10 -20 31 -31 47 -25 35 -74 137 -74 153 0 7 -4 12 -9 12 -5 0
-12 12 -15 28 -4 15 -13 41 -20 57 -31 68 -37 82 -51 130 -51 164 -84 319 -85
391 0 51 39 282 51 306 5 9 9 24 9 34 0 9 22 66 50 126 27 59 53 120 56 136 4
15 28 68 53 117 109 218 198 348 313 462 95 93 153 130 258 164 67 22 57 21
160 8z m5510 -281 c25 0 124 -29 135 -40 7 -7 2 -9 -15 -4 -46 13 -229 19
-242 9 -7 -6 -34 -14 -60 -17 -27 -4 -48 -11 -48 -17 0 -5 -4 -9 -9 -9 -5 0
-57 -23 -116 -51 -105 -51 -218 -121 -262 -162 -13 -11 -23 -16 -23 -10 0 5
11 20 25 33 14 13 25 29 25 35 0 13 52 65 64 65 5 0 25 12 45 28 128 97 297
156 411 145 30 -3 62 -6 70 -5z m-5295 -18 c3 -5 14 -10 23 -10 21 0 151 -95
215 -158 48 -46 197 -234 197 -247 0 -4 13 -24 30 -45 16 -20 27 -40 23 -44
-3 -3 -35 -6 -70 -6 -44 0 -89 -9 -140 -26 l-75 -26 -32 31 c-39 37 -145 94
-219 115 -31 9 -91 16 -137 16 -155 0 -272 -52 -381 -168 -38 -41 -69 -80 -69
-87 0 -33 25 -22 81 34 109 111 188 146 329 145 87 0 102 -3 173 -36 43 -19
98 -49 123 -67 l45 -31 -67 -63 c-105 -97 -162 -193 -209 -348 -19 -64 -17
-262 5 -358 12 -57 45 -111 67 -111 15 0 17 22 4 35 -36 37 -53 276 -25 365 9
30 21 62 25 70 4 8 19 40 32 70 33 73 102 158 179 220 121 96 245 138 368 124
96 -12 106 -25 126 -165 8 -57 19 -138 25 -179 24 -168 -17 -317 -158 -565
-12 -22 -29 -55 -37 -72 -8 -18 -47 -65 -85 -105 -67 -68 -85 -98 -61 -98 35
0 187 134 247 217 24 34 48 63 52 63 3 0 22 26 41 58 l35 57 7 -50 c12 -96 9
-294 -6 -323 -21 -39 -71 -83 -146 -128 -36 -21 -72 -44 -81 -51 -8 -7 -51
-23 -95 -34 -65 -18 -106 -22 -239 -22 -140 0 -174 4 -270 27 -163 40 -262 93
-360 191 -155 154 -244 329 -271 530 -12 88 -10 275 4 395 30 248 80 387 211
583 25 38 51 76 56 85 34 55 125 152 142 152 7 0 21 4 31 9 48 26 115 39 219
40 65 0 114 -3 118 -9z m5485 -50 c0 -5 -9 -6 -20 -3 -11 3 -20 9 -20 13 0 5
9 6 20 3 11 -3 20 -9 20 -13z m-35 -49 c33 -18 69 -42 81 -52 20 -19 64 -26
64 -10 0 4 -11 20 -26 36 -39 42 -22 41 19 -1 51 -53 92 -135 118 -239 19 -76
22 -115 22 -255 -1 -143 -5 -179 -28 -270 -21 -86 -102 -280 -124 -300 -3 -3
-13 -18 -21 -33 -8 -16 -29 -44 -47 -64 -18 -19 -33 -37 -33 -40 0 -3 -25 -32
-56 -66 -30 -33 -67 -77 -80 -99 -30 -47 -427 -448 -444 -448 -6 0 -32 -17
-58 -39 -26 -21 -60 -46 -77 -55 -16 -9 -37 -21 -45 -26 -66 -43 -144 -81
-156 -76 -17 7 -20 96 -3 96 7 0 32 17 58 38 25 20 63 49 86 63 22 14 56 40
75 58 19 18 71 62 114 99 89 75 238 222 306 302 25 28 57 65 73 81 15 16 27
33 27 38 0 4 9 16 20 26 11 10 20 24 20 32 0 7 5 13 10 13 6 0 13 8 17 18 3 9
18 33 32 52 33 44 101 181 101 203 0 10 4 17 9 17 5 0 13 14 16 32 4 18 11 39
16 48 17 31 39 179 39 260 0 82 -27 260 -41 270 -4 3 -11 18 -14 33 -4 15 -11
27 -16 27 -5 0 -9 6 -9 14 0 7 -9 25 -20 39 -11 14 -20 28 -20 31 0 3 9 6 20
6 14 0 20 7 20 23 0 70 -255 88 -465 32 -33 -8 -68 -20 -78 -26 -32 -18 -33 2
-2 27 51 41 167 96 250 118 11 2 58 4 105 2 74 -2 93 -7 145 -35z m-1380 -168
c14 -135 59 -265 132 -377 21 -33 29 -54 23 -60 -21 -21 -205 -38 -459 -43
l-264 -4 5 58 c3 32 14 96 24 142 15 72 24 90 61 131 52 58 188 149 258 173
51 17 166 44 197 46 13 1 18 -12 23 -66z m1277 5 c82 -83 120 -168 143 -313 9
-60 14 -125 11 -145 -4 -19 -11 -61 -17 -93 -29 -169 -128 -378 -263 -552 -61
-78 -82 -102 -221 -240 -227 -228 -315 -299 -400 -325 -22 -7 -46 -17 -53 -23
-15 -12 -32 6 -32 36 0 9 -10 51 -22 92 l-22 75 23 24 c16 17 39 27 74 31 116
16 249 65 297 111 22 21 -2 41 -32 27 -46 -23 -93 -33 -173 -39 l-82 -7 -6 63
c-4 35 -17 83 -29 108 -22 42 -119 142 -139 142 -21 0 -71 47 -84 78 -14 31
-13 45 6 87 38 89 89 223 89 237 0 23 110 140 188 198 78 60 187 114 277 140
l70 19 18 -22 c29 -36 63 -108 82 -177 21 -73 26 -309 8 -332 -6 -7 -14 -28
-18 -46 -12 -55 -79 -173 -132 -232 -28 -30 -29 -40 -5 -40 34 0 132 121 179
220 53 113 66 182 61 332 -4 112 -9 145 -31 208 -15 41 -27 79 -27 84 0 5 26
6 58 4 62 -6 137 -36 188 -74 55 -43 85 -24 45 28 -30 37 -127 84 -216 103
-88 19 -197 17 -326 -8 -74 -15 -222 -79 -290 -127 -16 -12 -32 -20 -35 -18
-2 3 4 23 13 44 21 45 112 132 198 189 33 22 62 42 65 45 13 14 155 76 240
106 120 41 122 41 199 43 l63 1 60 -62z m-1101 -505 c-34 -64 -167 -138 -265
-148 -127 -14 -306 34 -362 96 -17 18 -15 19 59 19 69 0 80 -3 124 -32 42 -29
55 -32 118 -33 78 0 151 27 179 67 12 16 34 26 74 34 84 17 84 17 73 -3z
m-871 -232 c20 -6 15 -9 -30 -14 -30 -3 -84 -13 -120 -21 -36 -8 -94 -21 -130
-30 -36 -8 -79 -22 -95 -30 -17 -9 -36 -16 -43 -16 -7 0 -24 -7 -38 -16 -13
-9 -27 -14 -30 -11 -12 11 175 105 261 131 52 15 182 19 225 7z m915 -71 c-4
-17 -14 -44 -22 -61 -9 -18 -13 -42 -9 -60 6 -30 5 -30 -32 -23 -20 3 -41 10
-45 14 -10 9 90 160 105 160 5 0 7 -13 3 -30z m-668 -15 c29 -15 61 -37 70
-48 18 -19 17 -19 -117 -13 -147 7 -294 -3 -495 -34 -71 -11 -143 -19 -160
-19 -27 0 -24 4 30 29 33 16 66 30 73 30 7 0 20 4 30 9 21 12 111 38 177 52
28 5 66 14 85 19 19 5 85 8 145 6 100 -2 115 -5 162 -31z m-60 -129 c4 -4 9
-66 11 -138 5 -139 1 -159 -49 -289 -16 -41 -29 -82 -29 -90 0 -8 -6 -23 -14
-34 -26 -37 -38 -127 -26 -197 13 -87 27 -111 110 -193 74 -72 97 -106 115
-164 14 -46 41 -63 61 -37 42 58 -6 157 -154 315 -41 44 -54 52 -65 42 -12 -9
-16 -6 -21 20 -16 84 5 190 64 314 51 107 89 380 61 434 l-12 22 143 -6 c79
-4 159 -11 178 -16 19 -4 87 -11 150 -15 183 -10 305 -60 379 -154 61 -77 68
-187 16 -248 -65 -77 -187 -106 -420 -100 -119 2 -140 1 -140 -12 0 -10 12
-16 39 -18 85 -7 306 -196 476 -408 105 -130 145 -197 211 -349 84 -194 137
-501 123 -713 -7 -114 -30 -173 -93 -245 -40 -44 -148 -117 -174 -117 -7 0 4
10 23 21 19 12 67 54 107 93 77 78 83 94 87 218 1 49 -1 53 -29 66 -72 34
-169 109 -295 227 -262 246 -455 371 -665 431 -129 38 -383 75 -515 77 -88 1
-309 -21 -380 -38 -147 -35 -286 -79 -360 -113 -118 -54 -317 -182 -413 -266
-172 -151 -370 -448 -467 -701 -12 -33 -26 -69 -31 -80 -34 -85 -44 -193 -24
-271 13 -54 27 -80 68 -128 126 -149 415 -406 497 -443 8 -4 29 -16 45 -28 61
-45 408 -224 435 -225 8 0 26 -6 40 -13 85 -44 267 -92 460 -122 131 -21 480
-16 605 8 110 21 178 38 190 47 6 4 26 11 45 15 19 4 41 11 50 16 8 4 40 20
70 34 68 32 85 42 136 82 56 44 89 129 88 233 0 82 -14 130 -71 248 -21 42
-39 80 -41 85 -2 4 1 7 7 7 7 0 14 -8 18 -17 3 -10 12 -25 18 -33 22 -27 71
-125 90 -181 12 -36 19 -84 19 -144 0 -81 -3 -96 -30 -151 -17 -34 -43 -78
-58 -97 -50 -65 -188 -157 -291 -194 -89 -32 -304 -69 -488 -85 -139 -12 -227
-7 -421 23 -73 11 -86 8 -70 -19 11 -17 98 -35 236 -50 37 -4 70 -11 73 -14 4
-4 -6 -13 -22 -21 -36 -20 -103 -81 -103 -96 0 -21 29 -11 96 34 86 58 190 89
369 112 154 19 182 20 239 8 37 -8 39 -7 33 14 -3 13 -1 23 6 25 7 2 26 8 43
13 l31 10 -53 -81 c-29 -44 -68 -100 -85 -124 -36 -48 -157 -148 -209 -174
-19 -9 -62 -30 -95 -46 -33 -16 -85 -37 -116 -46 -71 -20 -256 -46 -329 -46
-124 0 -356 48 -530 111 -305 109 -655 361 -885 636 -259 310 -371 554 -370
808 1 100 4 120 38 220 36 105 75 194 154 350 122 240 487 778 689 1015 73 86
169 201 229 275 56 69 119 139 153 169 31 28 173 103 242 128 62 23 82 36 74
49 -7 12 -59 12 -82 0 -87 -46 -234 -73 -365 -68 -274 11 -415 55 -500 157
-55 64 -39 164 36 237 99 96 313 162 487 150 101 -7 584 25 680 44 111 23 429
33 447 15z m873 -698 c22 -90 26 -148 10 -148 -5 0 -15 10 -21 22 -6 12 -16
27 -20 32 -5 6 -28 36 -52 66 -23 30 -59 70 -79 89 -21 19 -35 38 -32 42 3 5
29 9 57 10 29 0 61 4 72 8 26 11 39 -13 65 -121z m-1370 -663 c12 -19 26 -35
31 -35 16 0 21 27 9 49 -11 21 -10 21 172 20 101 0 203 -4 228 -8 85 -16 195
-41 215 -50 11 -4 54 -22 96 -38 95 -38 221 -111 214 -124 -14 -22 -271 5
-299 32 -13 12 -49 12 -62 0 -20 -19 -145 -42 -279 -52 -77 -5 -190 -14 -251
-19 -161 -15 -354 -13 -355 3 -1 6 -1 31 0 54 3 49 -13 85 -34 77 -11 -5 -15
-23 -15 -68 0 -40 -6 -69 -16 -85 -15 -21 -22 -22 -93 -18 -42 2 -96 9 -121
15 -25 6 -90 11 -145 12 l-100 0 55 33 c177 107 308 159 515 206 185 42 207
41 235 -4z m-2188 -241 c-5 -11 -13 -41 -16 -69 -10 -70 -15 -85 -32 -85 -10
0 -14 -13 -14 -50 0 -27 -4 -50 -10 -50 -6 0 -10 45 -10 115 0 63 4 115 9 115
5 0 11 9 14 20 6 22 47 43 60 30 5 -4 5 -16 -1 -26z m2798 -42 c0 -138 -72
-408 -117 -437 -36 -24 -249 -46 -458 -48 -221 -2 -276 9 -321 68 -35 46 -53
112 -42 150 4 17 11 71 15 120 4 54 13 102 23 120 16 29 18 29 106 32 186 5
516 23 524 28 4 3 54 10 109 15 56 6 111 15 124 19 12 5 25 7 30 4 4 -2 7 -34
7 -71z m170 56 c41 -5 116 -7 166 -4 l92 5 63 -48 c35 -27 97 -79 137 -116
l72 -67 0 -85 c0 -80 -2 -86 -29 -114 -16 -16 -38 -29 -48 -29 -11 0 -23 -4
-28 -9 -6 -5 -43 -13 -82 -17 -65 -6 -73 -5 -73 10 0 27 -30 77 -42 70 -6 -4
-8 -24 -4 -50 3 -26 2 -44 -4 -44 -6 0 -10 7 -10 15 0 22 -27 18 -33 -4 -4
-16 -18 -20 -105 -26 -116 -8 -196 6 -224 39 -22 26 -20 128 6 276 9 52 16
114 16 138 0 55 16 86 38 77 9 -4 51 -11 92 -17z m-1345 -63 c44 -8 104 -15
133 -15 48 0 53 -2 63 -27 24 -61 -19 -373 -58 -429 -10 -13 -40 -36 -67 -50
-43 -23 -64 -26 -191 -31 -135 -6 -146 -5 -187 16 -23 13 -62 41 -86 64 -44
43 -126 155 -156 215 l-17 33 95 94 c56 55 107 97 123 101 15 4 33 11 39 15
16 13 175 38 204 33 14 -2 61 -11 105 -19z m-1577 -179 c0 -46 3 -94 7 -106
14 -44 -17 -15 -32 30 -14 42 -13 126 2 150 16 26 23 3 23 -74z m3537 -83 c28
-27 83 -68 123 -92 69 -42 72 -45 72 -82 0 -61 -54 -139 -136 -198 -76 -54
-81 -59 -127 -115 -29 -34 -39 -39 -107 -52 -83 -14 -189 -17 -292 -7 l-68 6
0 37 c0 54 -27 75 -86 66 -26 -3 -52 -10 -58 -14 -6 -5 -30 -14 -53 -20 -26
-8 -71 -38 -123 -82 -44 -39 -87 -70 -95 -70 -14 0 -71 81 -100 142 -8 18 -33
56 -55 83 -22 28 -40 57 -40 65 0 9 -7 25 -15 37 -10 14 -11 24 -5 28 5 3 70
9 143 13 126 7 135 9 163 35 33 31 44 34 44 12 0 -8 11 -22 24 -31 23 -14 37
-14 168 0 79 8 175 18 213 21 39 3 85 8 103 11 28 5 31 4 26 -11 -6 -15 -3
-16 27 -10 19 4 48 16 65 26 17 10 38 19 46 19 19 0 65 66 78 111 6 19 10 53
10 76 0 24 1 43 3 43 1 0 25 -21 52 -47z m-2510 -83 l45 -69 -31 -73 c-80
-189 -128 -264 -165 -256 -10 2 -38 27 -62 57 -33 41 -42 59 -38 77 5 20 70
139 104 190 47 74 95 144 98 144 2 0 24 -31 49 -70z m838 -150 c7 0 25 -7 40
-15 18 -9 77 -17 166 -21 l138 -7 90 -86 c84 -81 186 -205 222 -271 62 -113
112 -224 125 -276 22 -91 40 -344 31 -447 l-7 -89 -136 7 c-153 8 -423 37
-552 60 -151 27 -210 15 -265 -52 l-20 -24 -42 58 c-60 82 -113 138 -148 156
-16 9 -75 37 -129 63 -55 27 -120 64 -145 84 -57 45 -84 60 -109 60 -21 0 -26
12 -38 95 -3 28 -10 55 -14 60 -4 6 -11 26 -15 45 -11 55 -44 118 -67 126 -24
7 -108 -4 -124 -17 -8 -6 -26 4 -55 31 -24 22 -51 43 -61 46 -25 8 -22 50 5
98 32 56 49 64 75 38 14 -14 35 -22 57 -22 30 0 40 7 76 53 23 28 54 80 69
113 27 59 30 62 84 79 l56 18 34 -26 c59 -45 120 -60 216 -54 129 9 222 24
255 41 17 9 37 16 45 16 25 0 200 -188 223 -240 4 -8 49 -82 100 -165 100
-162 136 -199 185 -186 37 10 34 33 -5 43 -34 9 -82 66 -125 153 -14 28 -38
70 -52 95 -14 25 -31 56 -38 70 -7 14 -15 27 -18 30 -11 10 -50 69 -50 75 0 8
-68 83 -132 146 l-48 47 16 32 16 32 30 -36 c16 -20 35 -36 41 -36z m-2199
-67 c5 -68 4 -79 -14 -98 -11 -12 -20 -25 -20 -30 0 -4 -11 -23 -25 -41 -14
-18 -25 -40 -25 -49 0 -9 -4 -13 -10 -10 -17 10 -12 105 5 111 8 4 15 15 15
25 0 10 4 19 9 19 5 0 12 20 15 45 4 25 11 45 17 45 5 0 9 14 9 30 0 62 17 27
24 -47z m3236 -222 c5 -11 10 -53 10 -93 0 -40 3 -82 6 -93 4 -12 31 -33 67
-51 67 -33 92 -69 68 -98 -11 -13 -32 -15 -110 -12 -112 5 -152 -9 -189 -64
-20 -29 -23 -43 -18 -82 8 -57 -10 -67 -19 -10 -18 123 -43 209 -92 321 -8 18
-11 36 -6 40 113 82 238 160 255 160 10 1 22 -8 28 -18z m-2790 -128 c2 -61 5
-573 3 -573 -1 0 -14 21 -29 48 -27 46 -27 49 -28 229 -1 133 2 185 12 194 6
7 12 27 12 44 0 40 10 75 21 75 5 0 9 -8 9 -17z m622 -50 c31 -21 60 -44 63
-51 3 -8 -20 -28 -58 -52 -56 -36 -63 -38 -74 -23 -17 22 -18 163 -1 163 6 0
38 -17 70 -37z m251 -76 c15 -23 50 -149 62 -223 5 -36 3 -44 -23 -72 -16 -17
-35 -45 -42 -62 -7 -16 -17 -30 -22 -30 -10 0 -268 258 -268 269 0 9 82 63
160 105 77 42 112 45 133 13z m2047 -142 c92 -10 127 -37 181 -140 26 -50 51
-103 54 -120 4 -16 12 -36 17 -42 6 -7 8 -19 5 -27 -5 -13 -10 -13 -38 1 -38
19 -111 13 -160 -14 -28 -15 -92 -57 -194 -127 -17 -13 -75 31 -105 80 -22 35
-22 39 -11 123 15 105 16 114 6 171 -6 37 -3 49 13 68 22 25 88 42 142 37 19
-2 60 -7 90 -10z m-1850 -206 c82 -70 165 -115 255 -138 54 -14 89 -39 126
-88 75 -101 89 -127 89 -168 0 -67 -8 -71 -83 -35 -211 99 -419 226 -535 326
l-33 29 26 47 c15 27 34 53 43 58 26 16 73 3 112 -31z m2049 -163 c41 -22 65
-64 65 -116 -1 -54 -32 -121 -71 -148 -94 -65 -292 -144 -371 -146 -31 -1 -39
4 -52 29 -25 50 -37 117 -26 152 8 27 17 35 60 49 28 10 78 37 111 61 96 69
208 133 233 133 13 0 36 -7 51 -14z m-1234 -142 c190 -29 331 -44 495 -52 91
-5 174 -13 185 -20 12 -6 26 -21 32 -34 21 -42 52 -158 47 -172 -7 -19 -52
-25 -264 -32 -195 -7 -302 3 -506 46 -95 20 -273 76 -288 90 -13 13 44 128 81
160 40 36 69 37 218 14z"/>
<path d="M8453 8885 c-6 -17 34 -56 81 -79 53 -26 80 8 29 35 -16 8 -30 16
-33 19 -8 9 -59 40 -65 40 -3 0 -8 -7 -12 -15z"/>
<path d="M7599 9785 c-48 -7 -131 -27 -185 -45 -95 -31 -235 -96 -242 -112 -2
-5 -8 -8 -14 -8 -19 0 -225 -169 -319 -262 -52 -51 -130 -138 -173 -193 -44
-55 -97 -119 -119 -142 l-41 -43 88 -84 c72 -70 105 -94 189 -135 139 -68 356
-118 396 -92 30 19 -6 38 -86 44 -43 3 -109 16 -146 28 -73 23 -212 87 -205
94 2 3 41 -8 85 -24 44 -16 136 -39 204 -52 106 -21 154 -24 329 -24 196 0
208 2 279 27 65 23 76 25 86 12 8 -12 16 -13 35 -5 27 12 62 32 70 42 3 3 23
16 45 29 72 44 147 109 139 121 -11 18 -37 8 -94 -36 -88 -68 -81 -37 10 45
93 84 104 109 67 148 -57 61 -99 172 -117 312 -13 99 -6 250 11 250 5 0 46
-16 90 -36 114 -53 125 -25 18 48 -80 55 -147 85 -209 92 -30 4 -66 9 -80 11
-14 1 -64 -3 -111 -10z m172 -81 l36 -6 6 -132 c5 -120 21 -215 49 -291 22
-59 51 -120 69 -147 11 -14 19 -28 19 -31 0 -12 -201 -44 -365 -57 -66 -6
-174 -15 -240 -20 -137 -12 -766 -13 -749 -2 6 4 35 36 63 72 135 170 226 260
382 380 162 124 331 205 476 230 59 9 205 12 254 4z m149 -673 c0 -12 -132
-128 -185 -163 -93 -62 -197 -83 -415 -82 -261 1 -465 45 -618 133 l-63 36
278 6 278 6 32 -27 c48 -42 96 -55 213 -55 134 0 209 25 269 91 35 38 45 44
83 45 24 1 57 5 73 9 43 11 55 11 55 1z m-94 -169 c-17 -16 -18 -16 -5 5 7 12
15 20 18 17 3 -2 -3 -12 -13 -22z m-1096 -12 c0 -5 -2 -10 -4 -10 -3 0 -8 5
-11 10 -3 6 -1 10 4 10 6 0 11 -4 11 -10z"/>
<path d="M8332 9588 c-7 -7 -12 -22 -12 -35 0 -33 37 -31 46 1 10 40 -10 58
-34 34z"/>
<path d="M8858 8443 c-67 -28 -49 -43 50 -43 100 0 145 -10 196 -45 45 -31 58
-31 54 -3 -4 28 -72 76 -121 84 -20 4 -40 11 -43 15 -8 14 -95 9 -136 -8z"/>
<path d="M7253 8418 c-13 -6 -23 -14 -23 -18 0 -4 64 -10 143 -14 78 -4 157
-9 175 -12 25 -5 32 -3 32 10 0 9 -11 18 -27 22 -16 3 -38 10 -51 15 -31 12
-222 10 -249 -3z"/>
<path d="M8750 8400 c-9 -18 -8 -20 15 -20 18 0 25 5 25 20 0 11 -7 20 -15 20
-8 0 -19 -9 -25 -20z"/>
<path d="M7622 8353 c2 -10 12 -18 23 -18 11 0 21 8 23 18 3 13 -3 17 -23 17
-20 0 -26 -4 -23 -17z"/>
<path d="M8775 8348 c-174 -58 -296 -188 -345 -367 -24 -85 -25 -107 -5 -114
19 -8 23 1 36 67 5 31 16 68 24 83 8 16 15 33 15 38 1 18 37 54 66 67 18 7
106 13 232 15 183 4 206 6 238 25 41 24 54 45 54 90 0 48 -22 73 -79 92 -55
18 -187 20 -236 4z"/>
<path d="M7273 8319 c-85 -16 -183 -76 -183 -112 0 -38 33 -77 88 -103 67 -32
154 -35 323 -10 235 34 358 29 405 -15 28 -26 91 -153 99 -200 8 -45 20 -63
34 -55 25 16 2 119 -48 221 -52 107 -242 232 -410 269 -78 17 -235 20 -308 5z"/>
<path d="M8332 8248 c-14 -14 -16 -64 -3 -72 10 -6 31 37 31 64 0 23 -10 26
-28 8z"/>
<path d="M7065 8110 c-14 -22 62 -77 91 -66 21 8 17 23 -13 44 -38 26 -70 35
-78 22z"/>
<path d="M7415 7747 c-66 -71 -95 -111 -95 -128 0 -19 3 -18 39 10 44 35 51
37 51 16 0 -23 11 -18 63 30 53 50 62 80 22 73 -17 -4 -25 -1 -25 8 0 21 -32
15 -55 -9z"/>
<path d="M9040 7668 c0 -19 52 -68 72 -68 27 0 22 15 -14 49 -34 32 -58 40
-58 19z"/>
<path d="M7316 7340 c-50 -28 -97 -56 -105 -63 -9 -8 -52 -35 -95 -62 -234
-143 -510 -441 -655 -705 -23 -41 -45 -82 -51 -90 -51 -81 -110 -229 -164
-411 -17 -59 -22 -204 -7 -213 5 -3 12 -17 15 -32 10 -39 54 -104 71 -104 19
0 20 43 1 59 -8 6 -24 39 -36 71 -19 50 -21 71 -16 121 4 34 11 69 16 78 4 9
18 48 30 86 32 104 37 116 128 295 102 202 189 333 308 464 186 207 275 278
614 493 40 25 66 63 43 63 -4 0 -48 -23 -97 -50z"/>
<path d="M9072 7151 c-28 -17 -5 -47 78 -102 85 -56 210 -170 263 -242 31 -41
47 -47 47 -18 0 38 -103 157 -252 292 -85 76 -108 88 -136 70z"/>
<path d="M8560 4610 c0 -36 4 -50 14 -50 17 0 26 22 26 66 0 27 -4 34 -20 34
-17 0 -20 -7 -20 -50z"/>
<path d="M8332 4567 c-37 -38 -53 -67 -36 -67 29 0 104 66 104 92 0 29 -23 21
-68 -25z"/>
<path d="M3498 10929 c-60 -70 -108 -132 -108 -137 0 -9 293 -262 303 -262 2
0 48 53 102 118 54 64 105 125 114 135 14 17 13 20 -19 45 -19 15 -37 27 -41
27 -3 0 -37 -36 -74 -80 -69 -80 -78 -85 -104 -60 -15 15 -12 21 66 112 l42
49 -36 29 -36 28 -31 -34 c-17 -19 -45 -51 -61 -71 -29 -36 -31 -36 -53 -20
l-23 18 71 83 71 84 -23 24 c-45 49 -46 48 -160 -88z"/>
<path d="M11180 10841 c-97 -30 -190 -134 -190 -213 0 -38 46 -124 89 -167 49
-49 104 -66 160 -51 64 17 69 33 27 85 -31 38 -40 43 -56 35 -29 -16 -45 -12
-74 16 -25 26 -32 56 -20 89 12 30 95 85 129 85 59 0 96 -70 59 -111 -15 -17
-14 -22 21 -69 36 -50 38 -50 57 -33 51 46 63 134 29 201 -25 49 -87 107 -133
127 -40 16 -59 17 -98 6z"/>
<path d="M3164 10462 c-27 -17 -176 -235 -177 -258 0 -5 76 -56 169 -115 l169
-107 33 51 c17 28 32 54 32 58 0 4 -27 24 -60 44 -54 33 -59 39 -49 57 10 19
17 20 97 13 l87 -6 36 59 37 60 -46 6 c-24 3 -66 6 -92 6 l-47 0 -6 42 c-12
86 -111 135 -183 90z m74 -140 c4 -25 -34 -92 -51 -92 -7 0 -22 8 -35 18 l-23
18 31 43 c35 48 72 54 78 13z"/>
<path d="M11490 10223 c-91 -53 -167 -97 -169 -99 -3 -2 152 -277 165 -293 5
-6 84 43 84 52 0 6 -20 45 -45 88 -25 43 -45 82 -45 86 0 4 54 39 120 77 66
38 123 73 126 77 7 12 -48 109 -61 109 -5 -1 -84 -44 -175 -97z"/>
<path d="M2845 9842 c-78 -37 -137 -135 -139 -234 -1 -48 4 -63 29 -99 50 -72
157 -112 250 -95 83 16 161 147 153 258 -5 71 -38 117 -110 152 -73 36 -133
41 -183 18z m116 -133 c63 -28 85 -64 69 -115 -7 -21 -23 -40 -41 -50 -27 -14
-35 -14 -77 1 -26 8 -54 21 -63 28 -46 35 -47 101 -2 137 33 25 52 25 114 -1z"/>
<path d="M11836 9699 c-66 -27 -128 -57 -139 -66 -56 -51 -63 -144 -18 -238
41 -86 90 -125 158 -125 23 0 270 94 285 108 11 12 -38 117 -53 114 -8 -2 -65
-23 -127 -48 -127 -51 -152 -52 -178 -3 -27 53 -7 82 84 120 178 73 174 70
168 94 -12 46 -37 95 -49 94 -6 0 -66 -23 -131 -50z"/>
<path d="M2564 9181 c-20 -12 -37 -35 -48 -63 -23 -63 -76 -261 -71 -266 10
-10 381 -110 386 -104 11 13 79 267 79 295 0 36 -25 83 -49 97 -32 17 -96 12
-124 -10 l-25 -20 -6 25 c-7 28 -59 65 -91 65 -11 0 -34 -9 -51 -19z m84 -143
c2 -9 -2 -35 -8 -58 -11 -40 -13 -42 -42 -36 -18 3 -33 8 -34 9 -5 5 19 81 29
95 14 18 51 11 55 -10z m136 -14 c19 -7 20 -43 3 -95 -12 -34 -13 -35 -45 -27
-29 8 -32 11 -26 36 11 46 32 92 43 92 5 0 16 -3 25 -6z"/>
<path d="M12020 9003 c-96 -24 -176 -46 -178 -47 -1 -2 14 -70 34 -152 31
-123 43 -154 66 -178 26 -26 34 -28 79 -24 56 6 85 27 95 71 5 24 8 27 15 15
5 -8 22 -21 38 -28 38 -15 93 1 115 35 23 35 20 74 -16 223 -28 117 -35 132
-53 131 -11 0 -99 -21 -195 -46z m179 -190 c1 -27 -35 -41 -54 -22 -7 8 -17
33 -23 56 -10 43 -10 43 22 51 29 8 32 7 43 -27 6 -20 12 -46 12 -58z m-160
20 c15 -53 13 -90 -4 -97 -34 -13 -53 15 -67 98 -3 18 16 30 54 35 4 1 12 -16
17 -36z"/>
<path d="M2522 7640 c-97 -22 -143 -155 -81 -234 91 -115 280 -42 266 103 -10
93 -93 151 -185 131z"/>
<path d="M12125 7635 c-104 -37 -133 -166 -54 -244 55 -56 150 -54 207 2 112
113 -3 295 -153 242z"/>
<path d="M11921 6683 c-64 -246 -69 -275 -49 -318 26 -57 120 -74 163 -30 16
16 25 19 25 10 0 -30 44 -66 87 -72 38 -5 46 -2 76 28 29 30 37 51 66 172 18
77 29 142 25 147 -5 4 -85 26 -179 49 -93 23 -178 44 -187 47 -13 4 -19 -4
-27 -33z m131 -130 c4 -2 5 -9 3 -16 -2 -7 -9 -31 -15 -53 -10 -43 -28 -58
-55 -48 -17 7 -19 44 -4 97 9 34 12 37 37 31 15 -4 30 -9 34 -11z m126 -29
c25 -7 28 -33 11 -83 -9 -27 -16 -32 -38 -29 -31 4 -36 22 -21 77 11 43 12 44
48 35z"/>
<path d="M2692 6550 c-18 -11 -35 -28 -38 -38 -3 -9 -8 -23 -10 -31 -4 -11 -9
-10 -25 5 -49 44 -142 8 -155 -62 -6 -31 58 -287 77 -308 7 -7 374 87 387 99
6 5 -69 268 -84 297 -16 31 -61 58 -96 58 -13 0 -38 -9 -56 -20z m97 -178 c8
-29 12 -55 9 -58 -3 -3 -18 -6 -34 -7 -25 -2 -29 2 -42 46 -17 61 -11 79 25
75 24 -3 30 -10 42 -56z m-153 -27 c21 -51 18 -74 -10 -81 -35 -8 -44 0 -51
51 -8 50 -2 65 26 65 13 0 25 -12 35 -35z"/>
<path d="M11784 6036 c-41 -18 -100 -89 -118 -144 -20 -57 -20 -134 -2 -170
51 -98 201 -151 293 -103 96 48 156 218 110 308 -48 91 -194 148 -283 109z
m126 -138 c53 -27 76 -63 66 -101 -16 -66 -74 -83 -153 -48 -76 35 -91 93 -38
147 30 30 68 31 125 2z"/>
<path d="M2788 5844 c-71 -31 -128 -61 -128 -66 0 -19 43 -108 52 -108 6 0 61
23 123 50 62 28 122 50 134 50 52 0 83 -88 44 -122 -10 -9 -69 -38 -130 -64
-62 -27 -113 -52 -113 -56 0 -4 11 -32 24 -62 l25 -55 120 54 c149 67 165 77
186 122 36 75 -8 224 -81 280 -62 47 -109 43 -256 -23z"/>
<path d="M11442 5403 c-18 -31 -31 -57 -30 -58 2 -1 28 -16 58 -34 30 -19 57
-35 58 -36 2 -2 1 -13 -3 -25 -7 -21 -11 -22 -93 -15 l-87 6 -32 -56 c-18 -31
-33 -61 -33 -66 0 -5 40 -9 89 -9 l89 0 7 -39 c8 -50 41 -86 93 -102 35 -10
45 -9 79 8 31 16 52 42 110 139 40 65 72 124 73 130 0 9 -238 155 -341 210 -3
2 -20 -22 -37 -53z m209 -198 c29 -15 29 -16 14 -46 -27 -51 -52 -71 -75 -59
-26 14 -25 40 1 84 24 42 21 41 60 21z"/>
<path d="M3263 5328 c-18 -11 -33 -24 -33 -29 0 -5 23 -45 50 -89 28 -44 50
-82 50 -84 0 -3 -56 -40 -125 -82 -69 -42 -125 -80 -125 -83 0 -3 15 -29 33
-58 l32 -51 160 99 c88 55 166 104 173 108 10 6 -8 43 -74 149 -48 78 -92 142
-98 141 -6 0 -26 -10 -43 -21z"/>
<path d="M11029 4783 c-51 -65 -100 -126 -108 -136 -15 -17 -13 -21 17 -48 18
-16 36 -29 41 -29 4 0 34 33 65 74 74 97 76 98 103 76 l23 -18 -59 -73 -59
-74 31 -27 c18 -15 35 -27 38 -28 4 0 32 32 64 71 56 70 70 77 88 48 8 -12 -6
-36 -56 -100 l-66 -83 32 -28 c18 -15 37 -27 42 -27 9 0 206 246 212 266 3 9
-297 253 -310 253 -3 0 -47 -53 -98 -117z"/>
<path d="M3564 4776 c-18 -8 -35 -19 -38 -25 -11 -17 65 -104 78 -91 21 21 63
11 90 -21 14 -17 26 -35 26 -40 0 -46 -91 -129 -142 -129 -55 0 -88 69 -56
119 10 16 7 25 -22 58 -19 21 -41 38 -49 38 -8 0 -26 -18 -39 -40 -46 -80 -3
-198 97 -265 94 -63 230 -19 296 95 45 76 30 158 -45 238 -66 73 -128 92 -196
63z"/>
<path d="M10623 4327 c-69 -71 -92 -102 -100 -135 -12 -45 -4 -101 18 -130 31
-41 86 -95 111 -108 36 -19 116 -17 155 4 38 20 193 159 193 173 0 11 -269
289 -280 289 -4 0 -47 -42 -97 -93z m151 -144 l70 -76 -30 -23 c-45 -37 -82
-32 -132 19 -51 52 -56 91 -16 131 15 14 29 26 33 26 3 0 37 -35 75 -77z"/>
<path d="M4295 3913 c-31 -98 -60 -190 -65 -204 -7 -23 -2 -30 47 -69 31 -24
61 -43 67 -43 9 0 337 203 358 222 5 4 -15 24 -44 45 -49 37 -52 38 -77 23
-25 -15 -28 -14 -83 26 -39 29 -56 47 -52 57 16 40 13 46 -34 83 -27 20 -52
37 -55 37 -4 0 -31 -80 -62 -177z m152 -77 c15 -13 26 -26 23 -28 -40 -32
-110 -78 -110 -72 0 17 43 124 51 124 4 0 21 -11 36 -24z"/>
<path d="M9882 3737 c-48 -29 -52 -34 -46 -62 5 -28 1 -32 -49 -62 -63 -37
-70 -39 -87 -18 -18 21 -28 19 -89 -19 l-53 -33 158 -128 c88 -71 164 -132
170 -137 16 -12 134 59 134 81 1 28 -74 411 -79 411 -4 -1 -30 -15 -59 -33z
m-3 -225 c6 -21 14 -54 17 -73 l7 -34 -52 50 c-28 27 -51 52 -51 55 0 6 52 39
62 40 4 0 12 -17 17 -38z"/>
<path d="M4816 3518 c-53 -96 -96 -177 -96 -180 0 -14 94 -58 103 -49 6 6 29
45 53 88 24 43 44 75 44 72 0 -3 11 -61 25 -129 14 -68 25 -124 25 -126 0 -2
22 -15 49 -29 38 -19 52 -22 58 -12 4 6 49 86 100 176 l92 165 -49 28 c-27 15
-52 28 -54 28 -3 0 -24 -36 -48 -80 -24 -44 -45 -80 -48 -80 -3 0 -17 55 -30
121 -24 121 -25 122 -63 146 -21 13 -44 26 -52 29 -8 4 -45 -53 -109 -168z"/>
<path d="M9275 3410 c-22 -11 -44 -21 -50 -23 -5 -2 3 -31 17 -64 l26 -61 -65
-27 c-45 -20 -71 -38 -84 -59 -53 -86 14 -216 111 -216 37 0 260 90 260 105 0
25 -150 360 -162 362 -7 1 -31 -7 -53 -17z m43 -265 c18 -40 15 -51 -19 -65
-38 -16 -63 -4 -67 33 -2 20 3 29 25 41 39 21 48 20 61 -9z"/>
<path d="M5487 3237 c-4 -83 -7 -180 -7 -217 l0 -67 72 -27 c69 -25 73 -25 88
-9 9 10 63 72 120 138 57 66 114 132 127 146 l24 26 -61 23 -61 23 -23 -22
-23 -21 -64 24 c-61 23 -64 26 -61 55 2 17 2 31 0 31 -3 0 -31 11 -65 24 l-60
23 -6 -150z m176 -74 c25 -8 22 -19 -23 -75 l-40 -51 0 56 c0 69 7 90 29 81 9
-3 24 -9 34 -11z"/>
<path d="M8573 3162 c-180 -50 -170 -42 -142 -118 l8 -22 106 30 c59 16 108
28 110 26 1 -2 5 -15 9 -30 6 -25 3 -28 -36 -38 -95 -25 -123 -34 -131 -40 -5
-4 -3 -26 4 -49 10 -32 16 -40 30 -36 59 19 162 45 165 42 2 -2 5 -14 6 -27 3
-22 -4 -26 -96 -52 -54 -15 -101 -30 -104 -33 -3 -2 1 -24 7 -48 l13 -44 166
46 c92 24 169 46 171 47 8 7 -104 394 -114 393 -5 -1 -83 -22 -172 -47z"/>
<path d="M6115 3156 c-2 -6 -8 -28 -14 -49 -11 -44 -19 -39 98 -66 46 -11 86
-23 89 -26 3 -3 -9 -68 -27 -146 -18 -77 -32 -142 -30 -144 2 -2 30 -10 62
-18 43 -12 59 -12 62 -4 3 7 24 96 48 200 44 185 44 187 23 192 -12 3 -85 20
-164 39 -99 23 -145 30 -147 22z"/>
<path d="M6815 3018 c-51 -18 -82 -46 -105 -93 -18 -38 -21 -59 -19 -124 3
-66 8 -83 31 -113 39 -51 89 -72 185 -76 75 -4 87 -2 127 22 104 61 128 246
42 332 -54 54 -183 79 -261 52z m151 -111 c24 -21 27 -30 25 -82 -2 -93 -47
-138 -116 -115 -44 14 -59 46 -53 114 8 97 79 138 144 83z"/>
<path d="M7498 3000 c-80 -24 -121 -95 -98 -166 15 -43 55 -70 130 -84 96 -19
101 -20 107 -36 8 -21 -14 -34 -55 -34 -26 0 -35 5 -39 20 -4 17 -14 20 -57
20 -72 0 -81 -8 -62 -54 22 -53 85 -79 175 -74 119 6 190 67 175 148 -10 61
-49 90 -149 110 -89 17 -95 20 -95 40 0 14 10 21 36 26 41 7 84 -8 84 -31 0
-12 13 -15 60 -15 59 0 60 0 60 29 0 36 -34 79 -76 97 -36 15 -152 17 -196 4z"/>
</g>
</svg>
