<svg width="51" height="51" viewBox="0 0 51 51" fill="none" xmlns="http://www.w3.org/2000/svg">
<circle cx="25.3066" cy="25.5427" r="25" fill="#000051"/>
<path d="M28.4442 27.6417C29.6339 30.7204 30.1969 36.8799 30.3451 38.7616C30.3705 39.0871 30.633 39.3412 30.9611 39.3643C40.6414 40.03 42.8683 35.5716 43.3319 34.1414C43.4123 33.8894 43.3361 33.6164 43.1329 33.4442C39.2845 30.1933 34.3861 27.4527 32.7943 26.598C32.536 26.4594 32.2143 26.5014 32.0132 26.7114C31.6406 27.0999 30.76 27.6333 28.7405 27.5745H28.4082L28.4442 27.6417Z" fill="#F2F2F2"/>
<path d="M30.9756 21.7741C30.6242 21.3268 29.3689 20.0142 26.1894 19.0629C26.1048 19.0377 26.0349 18.9747 26.0032 18.8907L23.4058 12.0382C23.3254 11.8282 23.5116 11.614 23.7318 11.6602C25.6285 12.0592 32.504 13.8505 38.4671 19.8315C38.628 19.9932 38.5391 20.2704 38.3126 20.3103C37.0594 20.5267 33.846 21.1168 31.2825 21.8728C31.1682 21.9043 31.0497 21.8665 30.9756 21.7741Z" fill="#F2F2F2"/>
<path d="M21.1916 20.4594C21.0794 22.0975 21.6044 23.3344 21.9875 24.0044C22.159 24.3047 22.0151 24.6827 21.6869 24.7961C19.6971 25.4786 13.8525 27.5199 11.4415 28.7799C11.1917 28.9101 10.8869 28.8387 10.726 28.6098C9.49398 26.8647 4.99994 19.8546 8.65783 15.1631C8.80601 14.9741 9.05791 14.8985 9.28441 14.9783C10.8191 15.518 16.8267 17.7 20.891 20.1171C20.9312 20.1402 20.9672 20.1696 21.0011 20.2011L21.145 20.3439L21.1916 20.4594Z" fill="#F2F2F2"/>
<path d="M30.0626 25.157C30.7359 24.1891 29.891 22.4522 28.1755 21.2776C26.46 20.103 24.5234 19.9354 23.8501 20.9033C23.1767 21.8712 24.0216 23.6081 25.7371 24.7827C27.4527 25.9573 29.3892 26.1249 30.0626 25.157Z" fill="#F2F2F2"/>
</svg>
