<?xml version="1.0" encoding="UTF-8"?>
<!DOCTYPE svg PUBLIC "-//W3C//DTD SVG 1.1//EN" "http://www.w3.org/Graphics/SVG/1.1/DTD/svg11.dtd">
<svg xmlns="http://www.w3.org/2000/svg" version="1.1" width="421px" height="302px" style="shape-rendering:geometricPrecision; text-rendering:geometricPrecision; image-rendering:optimizeQuality; fill-rule:evenodd; clip-rule:evenodd" xmlns:xlink="http://www.w3.org/1999/xlink">
<g><path style="opacity:1" fill="#fc32a9" d="M -0.5,-0.5 C 132.167,-0.5 264.833,-0.5 397.5,-0.5C 396.328,1.84388 396.328,4.17721 397.5,6.5C 389.95,8.90276 382.45,11.2361 375,13.5C 374.167,12.5 373.333,11.5 372.5,10.5C 372.264,11.2472 371.93,12.0805 371.5,13C 370.234,13.3095 369.067,13.8095 368,14.5C 368,11.8333 368,9.16667 368,6.5C 367.667,7.5 367.333,8.5 367,9.5C 364.515,10.9874 362.348,12.8208 360.5,15C 362.901,17.4941 362.901,19.8274 360.5,22C 362.329,22.2735 363.829,23.1068 365,24.5C 365.718,23.5494 366.551,23.3828 367.5,24C 366.667,25.5 365.5,26.6667 364,27.5C 363.417,25.9984 362.584,24.6651 361.5,23.5C 361.167,24.1667 360.833,24.8333 360.5,25.5C 361.651,27.3254 362.318,29.3254 362.5,31.5C 358.922,29.9249 355.589,27.9249 352.5,25.5C 342.301,19.262 331.301,15.262 319.5,13.5C 318.391,12.71 317.058,12.21 315.5,12C 306.167,11.3333 296.833,11.3333 287.5,12C 286.584,12.2784 285.918,12.7784 285.5,13.5C 266.76,15.7903 251.593,24.457 240,39.5C 230.469,53.5751 226.302,69.2417 227.5,86.5C 214.821,85.1861 202.154,85.1861 189.5,86.5C 190.869,53.5462 176.702,30.2129 147,16.5C 140.655,14.4737 134.155,13.1404 127.5,12.5C 118.676,11.3427 109.676,11.176 100.5,12C 99.5842,12.2784 98.9175,12.7784 98.5,13.5C 85.7015,14.8762 74.0349,19.2095 63.5,26.5C 51.765,33.0452 41.265,41.3785 32,51.5C 31.5172,52.448 31.3505,53.448 31.5,54.5C 30.1851,55.4756 28.8518,56.4756 27.5,57.5C 9.36088,81.4796 4.19421,108.146 12,137.5C 13.4424,139.391 14.6091,141.391 15.5,143.5C 14.5,143.5 13.5,143.5 12.5,143.5C 12.7692,141.571 12.2692,139.905 11,138.5C 9.84033,140.797 8.84033,140.464 8,137.5C 7.50999,138.793 7.34332,140.127 7.5,141.5C 3.4,142.26 2.4,140.927 4.5,137.5C 3.33636,134.933 2.66969,132.266 2.5,129.5C 3.97782,129.762 5.31116,129.429 6.5,128.5C 3.83333,124.833 3.83333,121.167 6.5,117.5C 5.91692,115.998 5.08359,114.665 4,113.5C 3.58605,113.957 3.08605,114.291 2.5,114.5C 1.26501,113.66 0.265012,112.66 -0.5,111.5C -0.5,74.1667 -0.5,36.8333 -0.5,-0.5 Z"/></g>
<g><path style="opacity:1" fill="#844cd1" d="M 127.5,12.5 C 117.801,12.2747 108.134,12.608 98.5,13.5C 98.9175,12.7784 99.5842,12.2784 100.5,12C 109.676,11.176 118.676,11.3427 127.5,12.5 Z"/></g>
<g><path style="opacity:1" fill="#884cd3" d="M 319.5,13.5 C 308.167,12.1667 296.833,12.1667 285.5,13.5C 285.918,12.7784 286.584,12.2784 287.5,12C 296.833,11.3333 306.167,11.3333 315.5,12C 317.058,12.21 318.391,12.71 319.5,13.5 Z"/></g>
<g><path style="opacity:1" fill="#0c63f8" d="M 127.5,12.5 C 134.155,13.1404 140.655,14.4737 147,16.5C 176.702,30.2129 190.869,53.5462 189.5,86.5C 183.129,88.3435 176.796,90.3435 170.5,92.5C 170.792,86.7099 170.125,81.0432 168.5,75.5C 167.31,82.2466 165.81,88.9133 164,95.5C 156.963,100.704 151.13,107.038 146.5,114.5C 146.667,114.833 146.833,115.167 147,115.5C 150.123,111.863 153.623,108.863 157.5,106.5C 159.436,107.259 161.269,108.259 163,109.5C 165.719,108.272 167.886,108.939 169.5,111.5C 169.167,111.5 168.833,111.5 168.5,111.5C 165.482,111.335 162.482,111.502 159.5,112C 160.938,112.219 162.271,112.719 163.5,113.5C 161.185,116.189 159.185,115.855 157.5,112.5C 157.167,113.167 156.833,113.833 156.5,114.5C 157.091,116.266 157.924,117.933 159,119.5C 159.71,118.027 160.876,117.36 162.5,117.5C 161.861,119.76 160.694,121.76 159,123.5C 156.957,121.792 155.29,119.792 154,117.5C 154.801,120.705 155.635,124.038 156.5,127.5C 148.774,135.085 142.274,143.752 137,153.5C 136.187,155.436 135.687,157.436 135.5,159.5C 133.89,162.189 133.057,165.189 133,168.5C 132.329,167.748 131.496,167.414 130.5,167.5C 129.29,167.068 128.29,166.401 127.5,165.5C 125.96,163.49 124.96,161.156 124.5,158.5C 125.056,148.922 128.056,140.256 133.5,132.5C 131.181,133.091 129.181,134.758 127.5,137.5C 125.031,139.32 122.364,140.654 119.5,141.5C 114.253,140.536 109.587,138.536 105.5,135.5C 108.609,141.273 113.276,145.273 119.5,147.5C 119.611,151.349 118.278,154.516 115.5,157C 106.957,158.91 98.2905,159.91 89.5,160C 98.8802,164.885 108.88,166.718 119.5,165.5C 119.5,166.5 119.5,167.5 119.5,168.5C 119.5,170.833 119.5,173.167 119.5,175.5C 118.833,175.5 118.167,175.5 117.5,175.5C 113.668,176.443 110.001,177.777 106.5,179.5C 103.848,179.41 101.515,180.076 99.5,181.5C 89.008,182.659 78.3414,182.825 67.5,182C 43.7855,177.656 26.4522,164.823 15.5,143.5C 14.6091,141.391 13.4424,139.391 12,137.5C 4.19421,108.146 9.36088,81.4796 27.5,57.5C 28.8518,56.4756 30.1851,55.4756 31.5,54.5C 30.6186,57.929 28.9519,60.929 26.5,63.5C 17.0546,89.5828 20.3879,113.916 36.5,136.5C 36.9727,132.698 36.1393,129.032 34,125.5C 29.9511,111.779 28.6178,97.7791 30,83.5C 33.4854,63.9652 35.1521,63.9652 35,83.5C 35.6621,88.6608 36.8288,93.6608 38.5,98.5C 39.281,89.4936 40.1143,80.4936 41,71.5C 41.096,68.5488 41.9293,65.8822 43.5,63.5C 46.135,67.9535 48.135,72.7868 49.5,78C 50.8217,80.321 52.3217,82.4877 54,84.5C 51.8513,74.0206 50.6846,63.354 50.5,52.5C 54.8461,52.3343 59.1794,52.501 63.5,53C 70.6217,54.2253 77.6217,55.5586 84.5,57C 76.5885,51.8803 68.2552,48.047 59.5,45.5C 62.6866,44.1345 66.0199,43.3012 69.5,43C 113.254,42.5737 113.254,40.2403 69.5,36C 70.5505,34.6152 71.8839,33.6152 73.5,33C 86.0955,30.0879 98.7622,29.7546 111.5,32C 121.225,34.418 130.558,37.418 139.5,41C 122.599,27.3676 103.266,21.3676 81.5,23C 75.8293,23.8905 70.3293,25.3905 65,27.5C 64.2352,27.4301 63.7352,27.0967 63.5,26.5C 74.0349,19.2095 85.7015,14.8762 98.5,13.5C 108.134,12.608 117.801,12.2747 127.5,12.5 Z"/></g>
<g><path style="opacity:1" fill="#0c47b9" d="M 352.5,25.5 C 355.589,27.9249 358.922,29.9249 362.5,31.5C 371.124,37.1237 378.458,44.1237 384.5,52.5C 383.833,54.8194 383.666,57.1527 384,59.5C 384.368,58.09 385.201,57.09 386.5,56.5C 396.061,74.4761 398.228,93.4761 393,113.5C 388.937,122.667 383.937,131.334 378,139.5C 378.779,135.343 380.279,131.343 382.5,127.5C 388.305,108.916 388.805,90.2493 384,71.5C 383.667,70.8333 383.333,70.1667 383,69.5C 382.727,80.4125 381.06,91.0792 378,101.5C 378.089,89.0209 376.923,76.6876 374.5,64.5C 373.833,63.1667 373.167,63.1667 372.5,64.5C 370.599,70.7958 368.099,76.7958 365,82.5C 364,83.5 363,84.5 362,85.5C 363.089,79.8723 364.422,74.2057 366,68.5C 366.667,63.5 366.667,58.5 366,53.5C 355.961,51.908 346.128,52.908 336.5,56.5C 335.614,55.675 335.281,54.675 335.5,53.5C 338.358,53.4046 340.691,52.2379 342.5,50C 346.5,49 350.5,48 354.5,47C 353.953,46.0754 353.287,45.2421 352.5,44.5C 339.979,42.0602 327.312,40.8935 314.5,41C 324.585,37.7626 334.919,35.5959 345.5,34.5C 343.228,33.5147 340.895,32.6813 338.5,32C 319.951,29.7052 301.951,31.7052 284.5,38C 282.465,40.3147 280.132,41.1481 277.5,40.5C 299.601,22.2824 324.267,17.949 351.5,27.5C 352.298,27.0431 352.631,26.3764 352.5,25.5 Z"/></g>
<g><path style="opacity:1" fill="#0b47ba" d="M 31.5,54.5 C 31.3505,53.448 31.5172,52.448 32,51.5C 41.265,41.3785 51.765,33.0452 63.5,26.5C 63.7352,27.0967 64.2352,27.4301 65,27.5C 70.3293,25.3905 75.8293,23.8905 81.5,23C 103.266,21.3676 122.599,27.3676 139.5,41C 130.558,37.418 121.225,34.418 111.5,32C 98.7622,29.7546 86.0955,30.0879 73.5,33C 71.8839,33.6152 70.5505,34.6152 69.5,36C 113.254,40.2403 113.254,42.5737 69.5,43C 66.0199,43.3012 62.6866,44.1345 59.5,45.5C 68.2552,48.047 76.5885,51.8803 84.5,57C 77.6217,55.5586 70.6217,54.2253 63.5,53C 59.1794,52.501 54.8461,52.3343 50.5,52.5C 50.6846,63.354 51.8513,74.0206 54,84.5C 52.3217,82.4877 50.8217,80.321 49.5,78C 48.135,72.7868 46.135,67.9535 43.5,63.5C 41.9293,65.8822 41.096,68.5488 41,71.5C 40.1143,80.4936 39.281,89.4936 38.5,98.5C 36.8288,93.6608 35.6621,88.6608 35,83.5C 35.1521,63.9652 33.4854,63.9652 30,83.5C 28.6178,97.7791 29.9511,111.779 34,125.5C 36.1393,129.032 36.9727,132.698 36.5,136.5C 20.3879,113.916 17.0546,89.5828 26.5,63.5C 28.9519,60.929 30.6186,57.929 31.5,54.5 Z"/></g>
<g><path style="opacity:1" fill="#4b92fb" d="M 151.5,40.5 C 159.853,45.8508 165.853,53.1842 169.5,62.5C 167.31,64.8557 165.31,67.3557 163.5,70C 162.207,70.49 160.873,70.6567 159.5,70.5C 158.72,66.8733 157.22,63.54 155,60.5C 151.686,56.3519 148.186,52.3519 144.5,48.5C 146.856,45.8136 149.189,43.147 151.5,40.5 Z"/></g>
<g><path style="opacity:1" fill="#4791fc" d="M 139.5,52.5 C 144.683,54.8399 148.85,58.5065 152,63.5C 154.937,67.3736 156.771,71.7069 157.5,76.5C 156.178,76.67 155.011,76.3366 154,75.5C 150.506,68.1692 145.673,61.8358 139.5,56.5C 138.374,55.1916 138.374,53.8583 139.5,52.5 Z"/></g>
<g><path style="opacity:1" fill="#4c93fa" d="M 139.5,84.5 C 134.833,78.1667 130.167,71.8333 125.5,65.5C 127.628,63.5975 129.961,61.9308 132.5,60.5C 140.32,65.8197 145.654,72.9864 148.5,82C 146.344,86.431 143.344,87.2643 139.5,84.5 Z"/></g>
<g><path style="opacity:1" fill="#0c68f5" d="M 125.5,65.5 C 130.167,71.8333 134.833,78.1667 139.5,84.5C 137.801,84.6602 136.134,84.4935 134.5,84C 135.38,82.6439 135.714,81.1439 135.5,79.5C 134.167,79.5 132.833,79.5 131.5,79.5C 130.626,89.1896 127.293,90.0229 121.5,82C 120.552,81.5172 119.552,81.3505 118.5,81.5C 118.616,84.9103 116.95,86.2436 113.5,85.5C 113.629,87.2161 113.962,88.8828 114.5,90.5C 111.333,87.502 108,84.6686 104.5,82C 102.16,81.2516 100.16,81.7516 98.5,83.5C 98.4889,81.4534 98.1556,79.4534 97.5,77.5C 97.8333,76.8333 98.1667,76.1667 98.5,75.5C 99.4287,76.6888 99.762,78.0222 99.5,79.5C 100.5,79.5 101.5,79.5 102.5,79.5C 103.167,72.8333 103.833,72.8333 104.5,79.5C 105.5,79.5 106.5,79.5 107.5,79.5C 107.123,76.4752 106.956,73.4752 107,70.5C 108.333,69.1667 109.667,69.1667 111,70.5C 111.47,68.2262 112.47,66.2262 114,64.5C 114.925,65.0465 115.758,65.7132 116.5,66.5C 114.995,67.8415 114.328,69.5082 114.5,71.5C 116.903,71.607 118.736,70.607 120,68.5C 121.113,70.3293 122.613,71.1626 124.5,71C 124.673,69.0905 125.007,67.2572 125.5,65.5 Z"/></g>
<g><path style="opacity:1" fill="#4b92fb" d="M 114.5,90.5 C 117.42,93.874 119.586,97.5407 121,101.5C 112.918,106.911 105.418,113.078 98.5,120C 96.8314,120.122 95.1647,119.788 93.5,119C 89.5,116.333 85.5,113.667 81.5,111C 79.1122,108.95 77.1122,106.616 75.5,104C 81.7847,95.5449 89.4513,88.7116 98.5,83.5C 100.16,81.7516 102.16,81.2516 104.5,82C 108,84.6686 111.333,87.502 114.5,90.5 Z"/></g>
<g><path style="opacity:1" fill="#0d47bb" d="M 157.5,106.5 C 153.623,108.863 150.123,111.863 147,115.5C 146.833,115.167 146.667,114.833 146.5,114.5C 151.13,107.038 156.963,100.704 164,95.5C 165.81,88.9133 167.31,82.2466 168.5,75.5C 170.125,81.0432 170.792,86.7099 170.5,92.5C 176.796,90.3435 183.129,88.3435 189.5,86.5C 202.154,85.1861 214.821,85.1861 227.5,86.5C 233.757,87.231 239.757,88.8977 245.5,91.5C 246.345,85.4122 247.511,79.4122 249,73.5C 248.698,80.921 250.198,87.921 253.5,94.5C 258.979,99.7352 264.646,104.735 270.5,109.5C 271.833,110.833 271.833,112.167 270.5,113.5C 262.788,105.646 253.788,99.813 243.5,96C 235.088,93.4846 226.422,91.818 217.5,91C 196.899,89.8526 177.566,94.1859 159.5,104C 158.619,104.708 157.953,105.542 157.5,106.5 Z"/></g>
<g><path style="opacity:1" fill="#0663f8" d="M 319.5,13.5 C 331.301,15.262 342.301,19.262 352.5,25.5C 352.631,26.3764 352.298,27.0431 351.5,27.5C 324.267,17.949 299.601,22.2824 277.5,40.5C 280.132,41.1481 282.465,40.3147 284.5,38C 301.951,31.7052 319.951,29.7052 338.5,32C 340.895,32.6813 343.228,33.5147 345.5,34.5C 334.919,35.5959 324.585,37.7626 314.5,41C 327.312,40.8935 339.979,42.0602 352.5,44.5C 353.287,45.2421 353.953,46.0754 354.5,47C 350.5,48 346.5,49 342.5,50C 340.691,52.2379 338.358,53.4046 335.5,53.5C 335.281,54.675 335.614,55.675 336.5,56.5C 346.128,52.908 355.961,51.908 366,53.5C 366.667,58.5 366.667,63.5 366,68.5C 364.422,74.2057 363.089,79.8723 362,85.5C 363,84.5 364,83.5 365,82.5C 368.099,76.7958 370.599,70.7958 372.5,64.5C 373.167,63.1667 373.833,63.1667 374.5,64.5C 376.923,76.6876 378.089,89.0209 378,101.5C 381.06,91.0792 382.727,80.4125 383,69.5C 383.333,70.1667 383.667,70.8333 384,71.5C 388.805,90.2493 388.305,108.916 382.5,127.5C 380.279,131.343 378.779,135.343 378,139.5C 383.937,131.334 388.937,122.667 393,113.5C 398.228,93.4761 396.061,74.4761 386.5,56.5C 385.201,57.09 384.368,58.09 384,59.5C 383.666,57.1527 383.833,54.8194 384.5,52.5C 406.099,76.6106 412.933,104.611 405,136.5C 391.081,167.978 366.748,183.311 332,182.5C 327.153,182.264 322.32,181.931 317.5,181.5C 310.803,178.74 303.803,176.74 296.5,175.5C 296.5,175.167 296.5,174.833 296.5,174.5C 297.043,174.44 297.376,174.107 297.5,173.5C 296.83,171.137 296.163,168.804 295.5,166.5C 295.5,165.5 295.5,164.5 295.5,163.5C 298.999,164.1 302.499,164.766 306,165.5C 311.582,163.19 317.416,162.023 323.5,162C 325.833,161 328.167,160 330.5,159C 322.531,159.488 314.531,159.488 306.5,159C 303.061,157.91 299.727,156.744 296.5,155.5C 295.833,153.181 295.666,150.847 296,148.5C 302.452,146.091 307.619,142.091 311.5,136.5C 310.635,135.417 309.635,135.251 308.5,136C 307.449,137.385 306.116,138.385 304.5,139C 300.826,139.682 297.326,140.848 294,142.5C 291.132,141.48 288.632,139.813 286.5,137.5C 286.167,138 285.833,138.5 285.5,139C 289.82,147.635 290.486,156.468 287.5,165.5C 287.5,165.833 287.5,166.167 287.5,166.5C 287.158,167.338 286.492,167.672 285.5,167.5C 284.5,167.5 283.5,167.5 282.5,167.5C 282.784,165.585 282.451,163.919 281.5,162.5C 281.144,160.81 280.144,159.81 278.5,159.5C 278.477,157.073 277.977,154.74 277,152.5C 271.32,142.131 263.986,133.131 255,125.5C 250.388,126.609 250.555,127.609 255.5,128.5C 261.708,136.917 266.874,145.917 271,155.5C 271.494,157.134 271.66,158.801 271.5,160.5C 271.5,161.167 271.5,161.833 271.5,162.5C 270.504,162.414 269.671,162.748 269,163.5C 268.647,166.152 267.48,168.152 265.5,169.5C 265.843,163.674 263.176,161.174 257.5,162C 255.963,163.11 255.297,164.61 255.5,166.5C 253.72,167.99 253.054,169.99 253.5,172.5C 251.606,171.952 249.94,170.952 248.5,169.5C 246.224,170.213 243.891,170.713 241.5,171C 239.957,172.739 238.29,174.239 236.5,175.5C 231.578,175.8 227.244,177.467 223.5,180.5C 222.5,180.5 221.5,180.5 220.5,180.5C 220.707,176.882 221.707,173.548 223.5,170.5C 218.213,169.939 214.38,167.272 212,162.5C 209.31,139.994 206.31,139.994 203,162.5C 199.986,166.585 196.152,169.585 191.5,171.5C 193.488,173.309 194.822,175.476 195.5,178C 195.333,178.833 195.167,179.667 195,180.5C 194.329,179.748 193.496,179.414 192.5,179.5C 189.425,178.483 186.425,177.317 183.5,176C 180.183,175.502 176.85,175.335 173.5,175.5C 173.5,174.167 173.5,172.833 173.5,171.5C 172.5,171.5 171.5,171.5 170.5,171.5C 169.185,170.524 167.852,169.524 166.5,168.5C 165.719,169.737 164.719,170.737 163.5,171.5C 162.534,169.604 162.201,167.604 162.5,165.5C 161.5,165.5 160.5,165.5 159.5,165.5C 158.828,163.332 157.328,161.999 155,161.5C 153.301,161.387 152.134,162.053 151.5,163.5C 149.836,164.949 149.002,166.949 149,169.5C 148.617,168.944 148.117,168.611 147.5,168.5C 147.657,167.127 147.49,165.793 147,164.5C 145.198,163.211 144.031,161.544 143.5,159.5C 144.996,154.126 146.829,148.793 149,143.5C 152.1,139.422 154.767,135.089 157,130.5C 157.74,129.251 157.573,128.251 156.5,127.5C 155.635,124.038 154.801,120.705 154,117.5C 155.29,119.792 156.957,121.792 159,123.5C 160.694,121.76 161.861,119.76 162.5,117.5C 160.876,117.36 159.71,118.027 159,119.5C 157.924,117.933 157.091,116.266 156.5,114.5C 156.833,113.833 157.167,113.167 157.5,112.5C 159.185,115.855 161.185,116.189 163.5,113.5C 162.271,112.719 160.938,112.219 159.5,112C 162.482,111.502 165.482,111.335 168.5,111.5C 167.942,112.79 166.942,113.623 165.5,114C 165.833,114.333 166.167,114.667 166.5,115C 171.155,115.499 175.821,115.666 180.5,115.5C 181.607,111.952 183.274,108.619 185.5,105.5C 185,105.167 184.5,104.833 184,104.5C 178.921,106.358 174.088,108.691 169.5,111.5C 167.886,108.939 165.719,108.272 163,109.5C 161.269,108.259 159.436,107.259 157.5,106.5C 157.953,105.542 158.619,104.708 159.5,104C 177.566,94.1859 196.899,89.8526 217.5,91C 226.422,91.818 235.088,93.4846 243.5,96C 253.788,99.813 262.788,105.646 270.5,113.5C 271.833,112.167 271.833,110.833 270.5,109.5C 264.646,104.735 258.979,99.7352 253.5,94.5C 250.198,87.921 248.698,80.921 249,73.5C 247.511,79.4122 246.345,85.4122 245.5,91.5C 239.757,88.8977 233.757,87.231 227.5,86.5C 226.302,69.2417 230.469,53.5751 240,39.5C 251.593,24.457 266.76,15.7903 285.5,13.5C 296.833,12.1667 308.167,12.1667 319.5,13.5 Z"/></g>
<g><path style="opacity:1" fill="#4a92fb" d="M 216.5,111.5 C 209.929,112.012 203.429,113.012 197,114.5C 195.317,113.824 195.15,112.824 196.5,111.5C 198.253,108.09 199.92,104.59 201.5,101C 219.588,99.6045 235.921,104.271 250.5,115C 244.207,114.195 237.874,113.195 231.5,112C 226.511,111.501 221.511,111.334 216.5,111.5 Z"/></g>
<g><path style="opacity:1" fill="#4c92fa" d="M 311.5,81.5 C 312.873,81.3433 314.207,81.51 315.5,82C 322.185,86.0088 328.518,90.5088 334.5,95.5C 337.036,98.199 339.369,101.032 341.5,104C 335.517,111.173 328.184,116.673 319.5,120.5C 311.767,113.427 303.767,106.76 295.5,100.5C 297.751,96.0835 300.584,92.0835 304,88.5C 306.998,86.6671 309.498,84.3338 311.5,81.5 Z"/></g>
<g><path style="opacity:1" fill="#4791fc" d="M 274.5,52.5 C 277.076,52.7218 277.91,54.0551 277,56.5C 271.113,61.944 266.446,68.2773 263,75.5C 261.989,76.3366 260.822,76.67 259.5,76.5C 262.025,66.9705 267.025,58.9705 274.5,52.5 Z"/></g>
<g><path style="opacity:1" fill="#4992fb" d="M 283.5,60.5 C 286.719,61.7129 289.385,63.7129 291.5,66.5C 285.387,72.1077 280.221,78.4411 276,85.5C 270.921,86.7564 268.588,84.7564 269,79.5C 272.578,72.1039 277.411,65.7706 283.5,60.5 Z"/></g>
<g><path style="opacity:1" fill="#4a92fb" d="M 263.5,40.5 C 267.224,42.3854 270.224,45.2187 272.5,49C 265.802,55.6216 259.969,62.7883 255,70.5C 252.167,68.0299 249.667,65.1965 247.5,62C 249.533,58.1016 251.7,54.2682 254,50.5C 257.343,47.3239 260.51,43.9905 263.5,40.5 Z"/></g>
<g><path style="opacity:1" fill="#4891fa" d="M 168.5,111.5 C 168.833,111.5 169.167,111.5 169.5,111.5C 174.088,108.691 178.921,106.358 184,104.5C 184.5,104.833 185,105.167 185.5,105.5C 183.274,108.619 181.607,111.952 180.5,115.5C 175.821,115.666 171.155,115.499 166.5,115C 166.167,114.667 165.833,114.333 165.5,114C 166.942,113.623 167.942,112.79 168.5,111.5 Z"/></g>
<g><path style="opacity:1" fill="#4290fc" d="M 189.5,114.5 C 187.821,114.715 186.821,114.048 186.5,112.5C 189.171,108.83 191.838,105.164 194.5,101.5C 194.833,101.833 195.167,102.167 195.5,102.5C 193.454,106.592 191.454,110.592 189.5,114.5 Z"/></g>
<g><path style="opacity:1" fill="#4b92fb" d="M 67.5,112.5 C 69.7834,112.608 71.7834,113.441 73.5,115C 78.7592,120.101 84.4258,124.601 90.5,128.5C 87.6961,133.136 84.6961,137.636 81.5,142C 72.5717,141.122 64.7383,137.622 58,131.5C 57.3333,130.5 57.3333,129.5 58,128.5C 61.4524,123.242 64.6191,117.909 67.5,112.5 Z"/></g>
<g><path style="opacity:1" fill="#4b92fb" d="M 345.5,112.5 C 347.903,112.393 349.736,113.393 351,115.5C 354.712,120.479 357.379,125.812 359,131.5C 352.579,136.87 345.245,140.537 337,142.5C 335.739,142.241 334.739,141.574 334,140.5C 331.116,136.566 328.616,132.399 326.5,128C 330.47,125.344 334.47,122.677 338.5,120C 341.039,117.63 343.372,115.13 345.5,112.5 Z"/></g>
<g><path style="opacity:1" fill="#0a67f0" d="M 196.5,111.5 C 195.15,112.824 195.317,113.824 197,114.5C 203.429,113.012 209.929,112.012 216.5,111.5C 216.389,112.117 216.056,112.617 215.5,113C 210.201,113.93 204.867,114.597 199.5,115C 202.092,117.457 204.592,117.624 207,115.5C 209,116.167 210.333,117.5 211,119.5C 212.965,118.17 214.965,116.836 217,115.5C 218.879,117.013 221.046,117.679 223.5,117.5C 223.657,118.873 223.49,120.207 223,121.5C 222.481,120.484 221.647,119.818 220.5,119.5C 218.695,120.472 217.028,121.639 215.5,123C 216.973,123.71 217.64,124.876 217.5,126.5C 214.899,125.72 212.899,124.054 211.5,121.5C 209.929,120.691 208.262,120.357 206.5,120.5C 206.808,122.924 206.474,125.257 205.5,127.5C 202.907,123.614 201.907,124.281 202.5,129.5C 199.303,129.973 196.137,130.639 193,131.5C 192.127,131.265 191.293,130.931 190.5,130.5C 189.887,129.02 189.554,127.687 189.5,126.5C 188.065,127.824 187.065,129.49 186.5,131.5C 185.914,131.291 185.414,130.957 185,130.5C 184.584,132.55 183.417,133.884 181.5,134.5C 181.5,133.833 181.167,133.5 180.5,133.5C 181.029,131.417 182.029,129.583 183.5,128C 175.552,125.232 175.885,123.065 184.5,121.5C 186.524,122.021 188.524,122.188 190.5,122C 188.532,120.456 186.365,119.289 184,118.5C 183.395,115.797 184.228,113.797 186.5,112.5C 186.821,114.048 187.821,114.715 189.5,114.5C 188.791,115.404 187.791,115.737 186.5,115.5C 186.281,116.675 186.614,117.675 187.5,118.5C 188.736,117.754 190.07,117.421 191.5,117.5C 191.626,119.2 192.293,120.7 193.5,122C 192.813,123.162 192.647,124.328 193,125.5C 193.667,126.833 194.333,126.833 195,125.5C 195.49,124.207 195.657,122.873 195.5,121.5C 198.5,121.5 201.5,121.5 204.5,121.5C 204.646,119.058 203.813,118.391 202,119.5C 200.214,116.638 197.881,115.972 195,117.5C 194.5,117 194,116.5 193.5,116C 193.915,113.974 194.915,112.474 196.5,111.5 Z"/></g>
<g><path style="opacity:1" fill="#0948bb" d="M 156.5,127.5 C 157.573,128.251 157.74,129.251 157,130.5C 154.767,135.089 152.1,139.422 149,143.5C 146.829,148.793 144.996,154.126 143.5,159.5C 141.167,159.5 138.833,159.5 136.5,159.5C 136.167,159.5 135.833,159.5 135.5,159.5C 135.687,157.436 136.187,155.436 137,153.5C 142.274,143.752 148.774,135.085 156.5,127.5 Z"/></g>
<g><path style="opacity:1" fill="#fd32a9" d="M 397.5,-0.5 C 405.167,-0.5 412.833,-0.5 420.5,-0.5C 420.5,100.167 420.5,200.833 420.5,301.5C 308.5,301.5 196.5,301.5 84.5,301.5C 83.2376,296.848 83.2376,292.181 84.5,287.5C 88.1667,287.5 91.8333,287.5 95.5,287.5C 95.3433,286.127 95.51,284.793 96,283.5C 97.1937,285.623 97.8603,287.957 98,290.5C 100.599,286.661 101.766,287.328 101.5,292.5C 102.833,292.5 104.167,292.5 105.5,292.5C 105.5,290.833 105.5,289.167 105.5,287.5C 108.385,286.455 110.552,284.455 112,281.5C 113.574,282.984 114.907,284.651 116,286.5C 116.49,285.207 116.657,283.873 116.5,282.5C 119.487,282.002 122.487,281.502 125.5,281C 126.26,279.559 126.926,278.059 127.5,276.5C 126.675,275.614 125.675,275.281 124.5,275.5C 124.5,274.167 124.5,272.833 124.5,271.5C 140.13,283.385 157.13,285.551 175.5,278C 176.252,277.329 176.586,276.496 176.5,275.5C 177.434,276.568 177.768,277.901 177.5,279.5C 187.572,283.642 198.072,285.976 209,286.5C 220.343,285.789 231.176,283.123 241.5,278.5C 247.688,281.738 254.355,283.071 261.5,282.5C 287.614,280.06 304.948,266.394 313.5,241.5C 314.654,235.013 314.821,228.346 314,221.5C 313.617,220.944 313.117,220.611 312.5,220.5C 311.504,216.499 309.504,213.166 306.5,210.5C 306.5,210.167 306.5,209.833 306.5,209.5C 312.121,200.976 315.788,191.643 317.5,181.5C 322.32,181.931 327.153,182.264 332,182.5C 366.748,183.311 391.081,167.978 405,136.5C 412.933,104.611 406.099,76.6106 384.5,52.5C 378.458,44.1237 371.124,37.1237 362.5,31.5C 362.318,29.3254 361.651,27.3254 360.5,25.5C 360.833,24.8333 361.167,24.1667 361.5,23.5C 362.584,24.6651 363.417,25.9984 364,27.5C 365.5,26.6667 366.667,25.5 367.5,24C 366.551,23.3828 365.718,23.5494 365,24.5C 363.829,23.1068 362.329,22.2735 360.5,22C 362.901,19.8274 362.901,17.4941 360.5,15C 362.348,12.8208 364.515,10.9874 367,9.5C 367.333,8.5 367.667,7.5 368,6.5C 368,9.16667 368,11.8333 368,14.5C 369.067,13.8095 370.234,13.3095 371.5,13C 371.93,12.0805 372.264,11.2472 372.5,10.5C 373.333,11.5 374.167,12.5 375,13.5C 382.45,11.2361 389.95,8.90276 397.5,6.5C 396.328,4.17721 396.328,1.84388 397.5,-0.5 Z"/></g>
<g><path style="opacity:1" fill="#0749be" d="M 127.5,165.5 C 124.224,165.144 121.557,166.144 119.5,168.5C 119.5,167.5 119.5,166.5 119.5,165.5C 108.88,166.718 98.8802,164.885 89.5,160C 98.2905,159.91 106.957,158.91 115.5,157C 118.278,154.516 119.611,151.349 119.5,147.5C 113.276,145.273 108.609,141.273 105.5,135.5C 109.587,138.536 114.253,140.536 119.5,141.5C 122.364,140.654 125.031,139.32 127.5,137.5C 129.181,134.758 131.181,133.091 133.5,132.5C 128.056,140.256 125.056,148.922 124.5,158.5C 124.96,161.156 125.96,163.49 127.5,165.5 Z"/></g>
<g><path style="opacity:1" fill="#4690fb" d="M 53.5,136.5 C 57.2625,138.413 60.9291,140.579 64.5,143C 68.6529,145.079 72.9862,146.579 77.5,147.5C 77.5,148.5 77.5,149.5 77.5,150.5C 68.1444,149.439 59.9778,145.772 53,139.5C 52.5304,138.423 52.6971,137.423 53.5,136.5 Z"/></g>
<g><path style="opacity:1" fill="#4891fd" d="M 361.5,136.5 C 363.225,136.843 363.725,137.843 363,139.5C 356.492,145.949 348.659,149.616 339.5,150.5C 339.281,149.325 339.614,148.325 340.5,147.5C 348.428,145.452 355.428,141.785 361.5,136.5 Z"/></g>
<g><path style="opacity:1" fill="#4e93fa" d="M 49.5,143.5 C 50.552,143.351 51.552,143.517 52.5,144C 58.5004,149.501 65.5004,153.168 73.5,155C 74.0219,155.561 74.3552,156.228 74.5,157C 73.139,158.927 72.3057,161.094 72,163.5C 61.7641,163.976 53.2641,160.309 46.5,152.5C 47.3578,149.38 48.3578,146.38 49.5,143.5 Z"/></g>
<g><path style="opacity:1" fill="#0848bc" d="M 234.5,134.5 C 235.376,134.369 236.043,134.702 236.5,135.5C 240.587,143.759 243.254,152.426 244.5,161.5C 241.873,162.092 239.206,162.425 236.5,162.5C 236.794,153.072 236.127,143.738 234.5,134.5 Z"/></g>
<g><path style="opacity:1" fill="#0847bb" d="M 278.5,159.5 C 276.05,159.298 273.717,159.631 271.5,160.5C 271.66,158.801 271.494,157.134 271,155.5C 266.874,145.917 261.708,136.917 255.5,128.5C 250.555,127.609 250.388,126.609 255,125.5C 263.986,133.131 271.32,142.131 277,152.5C 277.977,154.74 278.477,157.073 278.5,159.5 Z"/></g>
<g><path style="opacity:1" fill="#4b92fa" d="M 364.5,143.5 C 365.5,143.5 366.5,143.5 367.5,143.5C 368.756,147.087 369.256,150.754 369,154.5C 362.215,159.307 354.715,162.64 346.5,164.5C 343.857,162.071 342.69,159.071 343,155.5C 348.608,153.45 354.108,150.95 359.5,148C 361.618,146.951 363.284,145.451 364.5,143.5 Z"/></g>
<g><path style="opacity:1" fill="#0748bd" d="M 180.5,133.5 C 181.167,133.5 181.5,133.833 181.5,134.5C 179.716,144.054 179.05,153.721 179.5,163.5C 176.142,162.715 172.809,161.715 169.5,160.5C 172.515,153.286 175.015,145.952 177,138.5C 178.189,136.767 179.356,135.1 180.5,133.5 Z"/></g>
<g><path style="opacity:1" fill="#0947ba" d="M 295.5,166.5 C 292.946,165.612 290.279,165.279 287.5,165.5C 290.486,156.468 289.82,147.635 285.5,139C 285.833,138.5 286.167,138 286.5,137.5C 288.632,139.813 291.132,141.48 294,142.5C 297.326,140.848 300.826,139.682 304.5,139C 306.116,138.385 307.449,137.385 308.5,136C 309.635,135.251 310.635,135.417 311.5,136.5C 307.619,142.091 302.452,146.091 296,148.5C 295.666,150.847 295.833,153.181 296.5,155.5C 299.727,156.744 303.061,157.91 306.5,159C 314.531,159.488 322.531,159.488 330.5,159C 328.167,160 325.833,161 323.5,162C 317.416,162.023 311.582,163.19 306,165.5C 302.499,164.766 298.999,164.1 295.5,163.5C 295.5,164.5 295.5,165.5 295.5,166.5 Z"/></g>
<g><path style="opacity:1" fill="#1249bb" d="M 223.5,180.5 C 222.22,181.931 220.553,182.598 218.5,182.5C 213.802,179.802 210.135,176.135 207.5,171.5C 204.881,175.787 201.547,179.454 197.5,182.5C 197.167,182.5 196.833,182.5 196.5,182.5C 194.596,182.262 193.262,181.262 192.5,179.5C 193.496,179.414 194.329,179.748 195,180.5C 195.167,179.667 195.333,178.833 195.5,178C 194.822,175.476 193.488,173.309 191.5,171.5C 196.152,169.585 199.986,166.585 203,162.5C 206.31,139.994 209.31,139.994 212,162.5C 214.38,167.272 218.213,169.939 223.5,170.5C 221.707,173.548 220.707,176.882 220.5,180.5C 221.5,180.5 222.5,180.5 223.5,180.5 Z"/></g>
<g><path style="opacity:1" fill="#1c4183" d="M 287.5,166.5 C 287.5,166.167 287.5,165.833 287.5,165.5C 290.279,165.279 292.946,165.612 295.5,166.5C 296.163,168.804 296.83,171.137 297.5,173.5C 297.376,174.107 297.043,174.44 296.5,174.5C 296.63,168.296 293.63,165.629 287.5,166.5 Z"/></g>
<g><path style="opacity:1" fill="#27232b" d="M 159.5,165.5 C 161.172,168.342 162.172,171.509 162.5,175C 162.43,175.765 162.097,176.265 161.5,176.5C 158.904,175.735 156.237,175.401 153.5,175.5C 152.928,173.745 152.094,172.078 151,170.5C 150.297,168.071 150.463,165.738 151.5,163.5C 152.134,162.053 153.301,161.387 155,161.5C 157.328,161.999 158.828,163.332 159.5,165.5 Z"/></g>
<g><path style="opacity:1" fill="#fe32a9" d="M -0.5,111.5 C 0.265012,112.66 1.26501,113.66 2.5,114.5C 3.08605,114.291 3.58605,113.957 4,113.5C 5.08359,114.665 5.91692,115.998 6.5,117.5C 3.83333,121.167 3.83333,124.833 6.5,128.5C 5.31116,129.429 3.97782,129.762 2.5,129.5C 2.66969,132.266 3.33636,134.933 4.5,137.5C 2.4,140.927 3.4,142.26 7.5,141.5C 7.34332,140.127 7.50999,138.793 8,137.5C 8.84033,140.464 9.84033,140.797 11,138.5C 12.2692,139.905 12.7692,141.571 12.5,143.5C 13.5,143.5 14.5,143.5 15.5,143.5C 26.4522,164.823 43.7855,177.656 67.5,182C 78.3414,182.825 89.008,182.659 99.5,181.5C 101.834,191.506 105.834,200.84 111.5,209.5C 109.926,209.937 108.759,210.937 108,212.5C 106.369,215.038 105.036,217.705 104,220.5C 101.338,241.353 108.171,258.353 124.5,271.5C 124.5,272.833 124.5,274.167 124.5,275.5C 125.675,275.281 126.675,275.614 127.5,276.5C 126.926,278.059 126.26,279.559 125.5,281C 122.487,281.502 119.487,282.002 116.5,282.5C 116.657,283.873 116.49,285.207 116,286.5C 114.907,284.651 113.574,282.984 112,281.5C 110.552,284.455 108.385,286.455 105.5,287.5C 105.5,289.167 105.5,290.833 105.5,292.5C 104.167,292.5 102.833,292.5 101.5,292.5C 101.766,287.328 100.599,286.661 98,290.5C 97.8603,287.957 97.1937,285.623 96,283.5C 95.51,284.793 95.3433,286.127 95.5,287.5C 91.8333,287.5 88.1667,287.5 84.5,287.5C 83.2376,292.181 83.2376,296.848 84.5,301.5C 56.1667,301.5 27.8333,301.5 -0.5,301.5C -0.5,238.167 -0.5,174.833 -0.5,111.5 Z"/></g>
<g><path style="opacity:1" fill="#272226" d="M 136.5,159.5 C 138.833,159.5 141.167,159.5 143.5,159.5C 144.031,161.544 145.198,163.211 147,164.5C 147.49,165.793 147.657,167.127 147.5,168.5C 148.227,170.954 149.227,173.287 150.5,175.5C 147.5,175.5 144.5,175.5 141.5,175.5C 134.89,171.731 133.224,166.398 136.5,159.5 Z"/></g>
<g><path style="opacity:1" fill="#2350b2" d="M 151.5,163.5 C 150.463,165.738 150.297,168.071 151,170.5C 152.094,172.078 152.928,173.745 153.5,175.5C 152.5,175.5 151.5,175.5 150.5,175.5C 149.227,173.287 148.227,170.954 147.5,168.5C 148.117,168.611 148.617,168.944 149,169.5C 149.002,166.949 149.836,164.949 151.5,163.5 Z"/></g>
<g><path style="opacity:1" fill="#333c8a" d="M 135.5,159.5 C 135.833,159.5 136.167,159.5 136.5,159.5C 133.224,166.398 134.89,171.731 141.5,175.5C 141.5,176.167 141.5,176.833 141.5,177.5C 139.435,177.517 137.435,177.85 135.5,178.5C 136.058,177.21 137.058,176.377 138.5,176C 135.497,173.504 132.831,170.671 130.5,167.5C 131.496,167.414 132.329,167.748 133,168.5C 133.057,165.189 133.89,162.189 135.5,159.5 Z"/></g>
<g><path style="opacity:1" fill="#282328" d="M 265.5,169.5 C 264.167,171.5 262.833,173.5 261.5,175.5C 258.833,175.833 256.167,176.167 253.5,176.5C 255.178,173.448 255.845,170.115 255.5,166.5C 255.297,164.61 255.963,163.11 257.5,162C 263.176,161.174 265.843,163.674 265.5,169.5 Z"/></g>
<g><path style="opacity:1" fill="#1e489a" d="M 281.5,162.5 C 282.451,163.919 282.784,165.585 282.5,167.5C 283.5,167.5 284.5,167.5 285.5,167.5C 283.058,170.729 280.392,173.729 277.5,176.5C 276.833,176.5 276.5,176.167 276.5,175.5C 277.75,173.068 279.25,170.734 281,168.5C 281.495,166.527 281.662,164.527 281.5,162.5 Z"/></g>
<g><path style="opacity:1" fill="#1a49bb" d="M 159.5,165.5 C 160.5,165.5 161.5,165.5 162.5,165.5C 162.201,167.604 162.534,169.604 163.5,171.5C 164.719,170.737 165.719,169.737 166.5,168.5C 167.852,169.524 169.185,170.524 170.5,171.5C 169.766,172.708 169.433,174.041 169.5,175.5C 167.516,176.156 165.516,176.822 163.5,177.5C 162.584,177.457 161.917,177.124 161.5,176.5C 162.097,176.265 162.43,175.765 162.5,175C 162.172,171.509 161.172,168.342 159.5,165.5 Z"/></g>
<g><path style="opacity:1" fill="#2751a9" d="M 271.5,162.5 C 269.501,166.828 267.501,171.162 265.5,175.5C 264.167,175.5 262.833,175.5 261.5,175.5C 262.833,173.5 264.167,171.5 265.5,169.5C 267.48,168.152 268.647,166.152 269,163.5C 269.671,162.748 270.504,162.414 271.5,162.5 Z"/></g>
<g><path style="opacity:1" fill="#2d262b" d="M 278.5,159.5 C 280.144,159.81 281.144,160.81 281.5,162.5C 281.662,164.527 281.495,166.527 281,168.5C 279.25,170.734 277.75,173.068 276.5,175.5C 272.833,175.5 269.167,175.5 265.5,175.5C 267.501,171.162 269.501,166.828 271.5,162.5C 271.5,161.833 271.5,161.167 271.5,160.5C 273.717,159.631 276.05,159.298 278.5,159.5 Z"/></g>
<g><path style="opacity:1" fill="#2d49b8" d="M 253.5,172.5 C 252.766,173.708 252.433,175.041 252.5,176.5C 252.265,177.097 251.765,177.43 251,177.5C 249.433,176.144 247.6,175.477 245.5,175.5C 245.5,174.5 245.5,173.5 245.5,172.5C 243.011,172.241 241.344,173.241 240.5,175.5C 239.167,175.5 237.833,175.5 236.5,175.5C 238.29,174.239 239.957,172.739 241.5,171C 243.891,170.713 246.224,170.213 248.5,169.5C 249.94,170.952 251.606,171.952 253.5,172.5 Z"/></g>
<g><path style="opacity:1" fill="#e1acb4" d="M 245.5,175.5 C 243.833,175.5 242.167,175.5 240.5,175.5C 241.344,173.241 243.011,172.241 245.5,172.5C 245.5,173.5 245.5,174.5 245.5,175.5 Z"/></g>
<g><path style="opacity:1" fill="#1a3572" d="M 255.5,166.5 C 255.845,170.115 255.178,173.448 253.5,176.5C 253.167,176.5 252.833,176.5 252.5,176.5C 252.433,175.041 252.766,173.708 253.5,172.5C 253.054,169.99 253.72,167.99 255.5,166.5 Z"/></g>
<g><path style="opacity:1" fill="#d7b2b3" d="M 170.5,171.5 C 171.5,171.5 172.5,171.5 173.5,171.5C 173.5,172.833 173.5,174.167 173.5,175.5C 172.167,175.5 170.833,175.5 169.5,175.5C 169.433,174.041 169.766,172.708 170.5,171.5 Z"/></g>
<g><path style="opacity:1" fill="#2d252a" d="M 287.5,166.5 C 293.63,165.629 296.63,168.296 296.5,174.5C 296.5,174.833 296.5,175.167 296.5,175.5C 295.833,177.167 295.167,178.833 294.5,180.5C 293.5,181.167 292.5,181.833 291.5,182.5C 289.821,182.285 288.821,182.952 288.5,184.5C 285.327,181.087 281.66,178.42 277.5,176.5C 280.392,173.729 283.058,170.729 285.5,167.5C 286.492,167.672 287.158,167.338 287.5,166.5 Z"/></g>
<g><path style="opacity:1" fill="#beb4d0" d="M 117.5,175.5 C 116.313,177.975 114.313,178.975 111.5,178.5C 109.958,179.301 108.292,179.634 106.5,179.5C 110.001,177.777 113.668,176.443 117.5,175.5 Z"/></g>
<g><path style="opacity:1" fill="#282228" d="M 127.5,165.5 C 128.29,166.401 129.29,167.068 130.5,167.5C 132.831,170.671 135.497,173.504 138.5,176C 137.058,176.377 136.058,177.21 135.5,178.5C 133.114,179.373 131.114,180.873 129.5,183C 128.207,183.49 126.873,183.657 125.5,183.5C 122.345,181.681 120.345,179.015 119.5,175.5C 119.5,173.167 119.5,170.833 119.5,168.5C 121.557,166.144 124.224,165.144 127.5,165.5 Z"/></g>
<g><path style="opacity:1" fill="#d85bad" d="M 141.5,177.5 C 138.217,180.606 134.717,183.606 131,186.5C 129.667,188.5 128.333,190.5 127,192.5C 126.542,189.904 127.375,187.737 129.5,186C 128.181,185.805 126.847,185.972 125.5,186.5C 125.5,185.5 125.5,184.5 125.5,183.5C 126.873,183.657 128.207,183.49 129.5,183C 131.114,180.873 133.114,179.373 135.5,178.5C 137.435,177.85 139.435,177.517 141.5,177.5 Z"/></g>
<g><path style="opacity:1" fill="#4958c2" d="M 291.5,182.5 C 291.5,183.833 291.5,185.167 291.5,186.5C 289.973,186.573 288.973,185.906 288.5,184.5C 288.821,182.952 289.821,182.285 291.5,182.5 Z"/></g>
<g><path style="opacity:1" fill="#facda9" d="M 218.5,182.5 C 218.5,183.167 218.5,183.833 218.5,184.5C 212.696,189.788 209.863,196.454 210,204.5C 209.586,204.957 209.086,205.291 208.5,205.5C 206.927,196.756 203.261,189.09 197.5,182.5C 201.547,179.454 204.881,175.787 207.5,171.5C 210.135,176.135 213.802,179.802 218.5,182.5 Z"/></g>
<g><path style="opacity:1" fill="#cf958d" d="M 117.5,175.5 C 118.167,175.5 118.833,175.5 119.5,175.5C 120.345,179.015 122.345,181.681 125.5,183.5C 125.5,184.5 125.5,185.5 125.5,186.5C 121.046,192.659 119.379,199.659 120.5,207.5C 119.178,207.67 118.011,207.337 117,206.5C 113.129,200.559 113.962,195.393 119.5,191C 118.449,189.615 117.116,188.615 115.5,188C 116.793,187.51 118.127,187.343 119.5,187.5C 119.649,186.448 119.483,185.448 119,184.5C 116.522,182.361 114.022,180.361 111.5,178.5C 114.313,178.975 116.313,177.975 117.5,175.5 Z"/></g>
<g><path style="opacity:1" fill="#fbcdaa" d="M 296.5,175.5 C 303.803,176.74 310.803,178.74 317.5,181.5C 315.788,191.643 312.121,200.976 306.5,209.5C 304.804,207.871 303.804,208.204 303.5,210.5C 301.549,213.786 299.215,216.786 296.5,219.5C 295.5,220.167 294.5,220.833 293.5,221.5C 295.01,216.953 296.01,212.287 296.5,207.5C 297.822,207.67 298.989,207.337 300,206.5C 303.935,200.458 303.102,195.292 297.5,191C 298.551,189.615 299.884,188.615 301.5,188C 300.062,187.781 298.729,187.281 297.5,186.5C 299.688,183.478 302.355,180.978 305.5,179C 301.988,178.878 298.655,179.711 295.5,181.5C 294.893,181.376 294.56,181.043 294.5,180.5C 295.167,178.833 295.833,177.167 296.5,175.5 Z"/></g>
<g><path style="opacity:1" fill="#fbccaa" d="M 111.5,178.5 C 114.022,180.361 116.522,182.361 119,184.5C 119.483,185.448 119.649,186.448 119.5,187.5C 118.127,187.343 116.793,187.51 115.5,188C 117.116,188.615 118.449,189.615 119.5,191C 113.962,195.393 113.129,200.559 117,206.5C 118.011,207.337 119.178,207.67 120.5,207.5C 121.002,212.351 122.002,217.017 123.5,221.5C 122.167,220.5 120.833,219.5 119.5,218.5C 117.058,215.271 114.392,212.271 111.5,209.5C 105.834,200.84 101.834,191.506 99.5,181.5C 101.515,180.076 103.848,179.41 106.5,179.5C 108.292,179.634 109.958,179.301 111.5,178.5 Z"/></g>
<g><path style="opacity:1" fill="#cc928c" d="M 296.5,207.5 C 297.484,199.802 295.817,192.802 291.5,186.5C 291.5,185.167 291.5,183.833 291.5,182.5C 292.5,181.833 293.5,181.167 294.5,180.5C 294.56,181.043 294.893,181.376 295.5,181.5C 298.655,179.711 301.988,178.878 305.5,179C 302.355,180.978 299.688,183.478 297.5,186.5C 298.729,187.281 300.062,187.781 301.5,188C 299.884,188.615 298.551,189.615 297.5,191C 303.102,195.292 303.935,200.458 300,206.5C 298.989,207.337 297.822,207.67 296.5,207.5 Z"/></g>
<g><path style="opacity:1" fill="#898bbb" d="M 306.5,209.5 C 306.5,209.833 306.5,210.167 306.5,210.5C 305.5,210.5 304.5,210.5 303.5,210.5C 303.804,208.204 304.804,207.871 306.5,209.5 Z"/></g>
<g><path style="opacity:1" fill="#ba44c4" d="M 312.5,220.5 C 313.117,220.611 313.617,220.944 314,221.5C 314.821,228.346 314.654,235.013 313.5,241.5C 313.76,234.443 313.427,227.443 312.5,220.5 Z"/></g>
<g><path style="opacity:1" fill="#f53ca6" d="M 141.5,175.5 C 144.5,175.5 147.5,175.5 150.5,175.5C 151.5,175.5 152.5,175.5 153.5,175.5C 156.237,175.401 158.904,175.735 161.5,176.5C 161.917,177.124 162.584,177.457 163.5,177.5C 165.516,176.822 167.516,176.156 169.5,175.5C 170.833,175.5 172.167,175.5 173.5,175.5C 176.85,175.335 180.183,175.502 183.5,176C 186.425,177.317 189.425,178.483 192.5,179.5C 193.262,181.262 194.596,182.262 196.5,182.5C 194.429,183.787 194.096,185.453 195.5,187.5C 194.423,188.705 193.09,189.372 191.5,189.5C 188.631,186.978 185.297,185.311 181.5,184.5C 178.983,183.027 176.15,182.36 173,182.5C 168.523,183.321 164.023,183.988 159.5,184.5C 159.5,184.167 159.5,183.833 159.5,183.5C 157.527,182.837 155.361,182.504 153,182.5C 149.523,182.328 146.356,182.994 143.5,184.5C 139.637,185.694 136.637,188.027 134.5,191.5C 132.554,192.035 131.554,193.368 131.5,195.5C 130.778,195.918 130.278,196.584 130,197.5C 129.333,203.5 129.333,209.5 130,215.5C 130.942,218.374 132.109,221.04 133.5,223.5C 139.567,235.037 148.9,242.537 161.5,246C 169.448,245.028 176.448,241.861 182.5,236.5C 184.861,234.806 186.861,232.806 188.5,230.5C 192.51,225.479 195.177,219.813 196.5,213.5C 196.5,213.167 196.5,212.833 196.5,212.5C 197.485,208.366 197.818,204.032 197.5,199.5C 196.845,196.036 195.845,192.703 194.5,189.5C 196.06,189.481 197.56,189.148 199,188.5C 200.811,189.424 200.645,190.257 198.5,191C 199.793,191.49 201.127,191.657 202.5,191.5C 204.052,195.943 204.885,200.609 205,205.5C 207.041,206.423 209.208,206.756 211.5,206.5C 211.643,200.74 212.977,195.406 215.5,190.5C 215.435,190.938 215.601,191.272 216,191.5C 221.552,184.439 228.385,179.106 236.5,175.5C 237.833,175.5 239.167,175.5 240.5,175.5C 242.167,175.5 243.833,175.5 245.5,175.5C 247.6,175.477 249.433,176.144 251,177.5C 251.765,177.43 252.265,177.097 252.5,176.5C 252.833,176.5 253.167,176.5 253.5,176.5C 256.167,176.167 258.833,175.833 261.5,175.5C 262.833,175.5 264.167,175.5 265.5,175.5C 269.167,175.5 272.833,175.5 276.5,175.5C 276.5,176.167 276.833,176.5 277.5,176.5C 281.66,178.42 285.327,181.087 288.5,184.5C 288.973,185.906 289.973,186.573 291.5,186.5C 295.817,192.802 297.484,199.802 296.5,207.5C 296.01,212.287 295.01,216.953 293.5,221.5C 290.324,224.511 288.157,228.178 287,232.5C 282.564,237.286 278.064,241.953 273.5,246.5C 268.91,248.128 264.577,250.295 260.5,253C 252.336,254.45 244.669,253.117 237.5,249C 232.25,244.237 226.916,239.737 221.5,235.5C 219.67,231.169 217.337,227.169 214.5,223.5C 213.885,219.992 212.885,216.659 211.5,213.5C 209.396,213.201 207.396,213.534 205.5,214.5C 203.826,218.529 202.159,222.529 200.5,226.5C 198.265,229.291 196.265,232.291 194.5,235.5C 187.34,243.579 178.674,249.413 168.5,253C 164.833,253.667 161.167,253.667 157.5,253C 152.692,251.095 148.025,248.929 143.5,246.5C 140.516,241.743 136.682,237.743 132,234.5C 129.255,230.075 126.422,225.742 123.5,221.5C 122.002,217.017 121.002,212.351 120.5,207.5C 119.379,199.659 121.046,192.659 125.5,186.5C 126.847,185.972 128.181,185.805 129.5,186C 127.375,187.737 126.542,189.904 127,192.5C 128.333,190.5 129.667,188.5 131,186.5C 134.717,183.606 138.217,180.606 141.5,177.5C 141.5,176.833 141.5,176.167 141.5,175.5 Z"/></g>
<g><path style="opacity:1" fill="#dca596" d="M 214.5,223.5 C 217.337,227.169 219.67,231.169 221.5,235.5C 212.437,239.466 203.437,239.466 194.5,235.5C 196.265,232.291 198.265,229.291 200.5,226.5C 204.807,225.253 209.473,225.253 214.5,226.5C 214.5,225.5 214.5,224.5 214.5,223.5 Z"/></g>
<g><path style="opacity:1" fill="#312b2a" d="M 134.5,191.5 C 135.563,195.639 136.23,199.972 136.5,204.5C 138.144,204.286 139.644,204.62 141,205.5C 141.483,204.552 141.649,203.552 141.5,202.5C 142.822,202.33 143.989,202.663 145,203.5C 145.246,206.89 145.746,210.223 146.5,213.5C 145.635,214.583 144.635,214.749 143.5,214C 142.773,212.601 142.273,211.101 142,209.5C 140.635,210.593 140.301,211.926 141,213.5C 150.102,229.635 163.935,237.302 182.5,236.5C 176.448,241.861 169.448,245.028 161.5,246C 148.9,242.537 139.567,235.037 133.5,223.5C 133.382,220.312 132.549,217.312 131,214.5C 130.347,208.138 130.513,201.805 131.5,195.5C 131.554,193.368 132.554,192.035 134.5,191.5 Z"/></g>
<g><path style="opacity:1" fill="#fe7fd1" d="M 198.5,220.5 C 199.043,220.56 199.376,220.893 199.5,221.5C 194.928,230.471 188.595,237.971 180.5,244C 178.598,245.301 176.598,245.968 174.5,246C 185.101,239.901 193.101,231.401 198.5,220.5 Z"/></g>
<g><path style="opacity:1" fill="#312b29" d="M 280.5,189.5 C 286.56,195.502 288.726,202.836 287,211.5C 282.801,227.695 272.968,238.861 257.5,245C 243.997,245.038 233.663,239.205 226.5,227.5C 227.247,223.807 228.58,223.807 230.5,227.5C 231.446,227.013 232.446,226.68 233.5,226.5C 236.41,227.973 239.41,228.806 242.5,229C 247.619,226.979 252.619,224.812 257.5,222.5C 259.11,220.275 260.443,217.941 261.5,215.5C 261.833,215.5 262.167,215.5 262.5,215.5C 262.772,220.558 260.439,223.558 255.5,224.5C 255.719,225.675 255.386,226.675 254.5,227.5C 249.018,230.878 243.018,233.045 236.5,234C 236.043,234.414 235.709,234.914 235.5,235.5C 236.628,236.262 237.795,236.929 239,237.5C 248.24,235.564 256.74,231.897 264.5,226.5C 270.927,220.637 275.594,213.637 278.5,205.5C 282.998,202.67 283.665,199.004 280.5,194.5C 280.5,192.833 280.5,191.167 280.5,189.5 Z"/></g>
<g><path style="opacity:1" fill="#fdcaaa" d="M 214.5,223.5 C 214.5,224.5 214.5,225.5 214.5,226.5C 209.473,225.253 204.807,225.253 200.5,226.5C 202.159,222.529 203.826,218.529 205.5,214.5C 207.396,213.534 209.396,213.201 211.5,213.5C 212.885,216.659 213.885,219.992 214.5,223.5 Z"/></g>
<g><path style="opacity:1" fill="#2d1e27" d="M 245.5,204.5 C 246.122,207.647 245.788,210.814 244.5,214C 242.888,214.72 241.388,214.554 240,213.5C 239.692,214.308 239.192,214.975 238.5,215.5C 236.644,214.724 235.311,213.391 234.5,211.5C 231.234,214.22 231.234,217.22 234.5,220.5C 235.799,219.91 236.632,218.91 237,217.5C 237.242,220.072 238.575,221.739 241,222.5C 243.658,219.92 246.824,218.587 250.5,218.5C 252.183,213.337 252.85,208.004 252.5,202.5C 253.489,207.975 253.822,213.642 253.5,219.5C 256.408,218.713 259.074,217.38 261.5,215.5C 260.443,217.941 259.11,220.275 257.5,222.5C 252.619,224.812 247.619,226.979 242.5,229C 239.41,228.806 236.41,227.973 233.5,226.5C 232.446,226.68 231.446,227.013 230.5,227.5C 228.58,223.807 227.247,223.807 226.5,227.5C 224.229,225.388 222.896,222.721 222.5,219.5C 223.716,217.153 223.716,214.653 222.5,212C 224.33,211.654 225.663,210.154 226.5,207.5C 227.761,209.453 228.927,211.453 230,213.5C 231.153,210.644 231.986,207.644 232.5,204.5C 236.853,201.841 241.187,201.841 245.5,204.5 Z"/></g>
<g><path style="opacity:1" fill="#1f1e1e" d="M 252.5,202.5 C 252.85,208.004 252.183,213.337 250.5,218.5C 246.824,218.587 243.658,219.92 241,222.5C 238.575,221.739 237.242,220.072 237,217.5C 236.632,218.91 235.799,219.91 234.5,220.5C 231.234,217.22 231.234,214.22 234.5,211.5C 235.311,213.391 236.644,214.724 238.5,215.5C 239.192,214.975 239.692,214.308 240,213.5C 241.388,214.554 242.888,214.72 244.5,214C 245.788,210.814 246.122,207.647 245.5,204.5C 248.211,204.815 250.544,204.148 252.5,202.5 Z"/></g>
<g><path style="opacity:1" fill="#fd7dd1" d="M 292.5,201.5 C 293.82,210.886 291.654,219.553 286,227.5C 286.705,223.727 288.039,220.06 290,216.5C 291.16,211.547 291.993,206.547 292.5,201.5 Z"/></g>
<g><path style="opacity:1" fill="#2d1f27" d="M 175.5,195.5 C 178.001,195.511 178.168,196.178 176,197.5C 173.861,196.231 171.695,196.231 169.5,197.5C 166.453,199.918 164.12,202.918 162.5,206.5C 163.539,221.775 171.206,226.108 185.5,219.5C 187.445,215.726 188.779,211.726 189.5,207.5C 190.086,207.709 190.586,208.043 191,208.5C 191.333,210.5 191.667,212.5 192,214.5C 192.308,213.692 192.808,213.025 193.5,212.5C 194.417,213.127 195.417,213.461 196.5,213.5C 195.177,219.813 192.51,225.479 188.5,230.5C 188.719,229.325 188.386,228.325 187.5,227.5C 185.5,228.5 183.5,229.5 181.5,230.5C 177.914,230.26 174.248,230.093 170.5,230C 167.185,229.009 164.185,227.509 161.5,225.5C 160.328,225.919 159.328,226.585 158.5,227.5C 157.261,225.993 157.595,224.826 159.5,224C 155.235,218.614 153.235,212.447 153.5,205.5C 153.833,205.5 154.167,205.5 154.5,205.5C 156.857,205.663 159.19,205.497 161.5,205C 162.406,203.301 162.739,201.467 162.5,199.5C 165.55,200.077 167.55,198.91 168.5,196C 170.81,195.503 173.143,195.337 175.5,195.5 Z"/></g>
<g><path style="opacity:1" fill="#221f20" d="M 159.5,183.5 C 159.5,183.833 159.5,184.167 159.5,184.5C 165.645,184.92 171.978,184.92 178.5,184.5C 181.604,187.101 184.604,189.934 187.5,193C 185.942,193.21 184.609,193.71 183.5,194.5C 182.542,194.953 181.708,195.619 181,196.5C 178.995,203.49 181.495,206.324 188.5,205C 189.381,204.292 190.047,203.458 190.5,202.5C 191.117,202.389 191.617,202.056 192,201.5C 194.857,204.578 196.357,208.244 196.5,212.5C 196.5,212.833 196.5,213.167 196.5,213.5C 195.417,213.461 194.417,213.127 193.5,212.5C 192.808,213.025 192.308,213.692 192,214.5C 191.667,212.5 191.333,210.5 191,208.5C 190.586,208.043 190.086,207.709 189.5,207.5C 188.779,211.726 187.445,215.726 185.5,219.5C 171.206,226.108 163.539,221.775 162.5,206.5C 164.12,202.918 166.453,199.918 169.5,197.5C 171.695,196.231 173.861,196.231 176,197.5C 178.168,196.178 178.001,195.511 175.5,195.5C 175.5,194.167 175.5,192.833 175.5,191.5C 171.669,191.584 168.002,190.917 164.5,189.5C 159.36,188.512 154.026,188.179 148.5,188.5C 147.78,194.138 147.447,199.804 147.5,205.5C 149.5,205.5 151.5,205.5 153.5,205.5C 153.235,212.447 155.235,218.614 159.5,224C 157.595,224.826 157.261,225.993 158.5,227.5C 159.328,226.585 160.328,225.919 161.5,225.5C 164.185,227.509 167.185,229.009 170.5,230C 174.248,230.093 177.914,230.26 181.5,230.5C 183.5,229.5 185.5,228.5 187.5,227.5C 188.386,228.325 188.719,229.325 188.5,230.5C 186.861,232.806 184.861,234.806 182.5,236.5C 163.935,237.302 150.102,229.635 141,213.5C 140.301,211.926 140.635,210.593 142,209.5C 142.273,211.101 142.773,212.601 143.5,214C 144.635,214.749 145.635,214.583 146.5,213.5C 145.746,210.223 145.246,206.89 145,203.5C 143.989,202.663 142.822,202.33 141.5,202.5C 141.649,203.552 141.483,204.552 141,205.5C 139.644,204.62 138.144,204.286 136.5,204.5C 136.23,199.972 135.563,195.639 134.5,191.5C 136.637,188.027 139.637,185.694 143.5,184.5C 148.797,183.725 154.13,183.392 159.5,183.5 Z"/></g>
<g><path style="opacity:1" fill="#4b2344" d="M 131.5,195.5 C 130.513,201.805 130.347,208.138 131,214.5C 132.549,217.312 133.382,220.312 133.5,223.5C 132.109,221.04 130.942,218.374 130,215.5C 129.333,209.5 129.333,203.5 130,197.5C 130.278,196.584 130.778,195.918 131.5,195.5 Z"/></g>
<g><path style="opacity:1" fill="#633144" d="M 220.5,198.5 C 220.5,201.167 220.5,203.833 220.5,206.5C 220.5,209.167 220.5,211.833 220.5,214.5C 218.953,212.193 218.287,209.527 218.5,206.5C 218.287,203.473 218.953,200.807 220.5,198.5 Z"/></g>
<g><path style="opacity:1" fill="#f14ea0" d="M 196.5,182.5 C 196.833,182.5 197.167,182.5 197.5,182.5C 203.261,189.09 206.927,196.756 208.5,205.5C 209.086,205.291 209.586,204.957 210,204.5C 209.863,196.454 212.696,189.788 218.5,184.5C 218.385,186.947 217.385,188.947 215.5,190.5C 212.977,195.406 211.643,200.74 211.5,206.5C 209.208,206.756 207.041,206.423 205,205.5C 204.885,200.609 204.052,195.943 202.5,191.5C 201.127,191.657 199.793,191.49 198.5,191C 200.645,190.257 200.811,189.424 199,188.5C 197.56,189.148 196.06,189.481 194.5,189.5C 195.845,192.703 196.845,196.036 197.5,199.5C 195.517,196.207 193.517,192.874 191.5,189.5C 193.09,189.372 194.423,188.705 195.5,187.5C 194.096,185.453 194.429,183.787 196.5,182.5 Z"/></g>
<g><path style="opacity:1" fill="#8b888b" d="M 173.5,199.5 C 176.91,199.384 178.244,201.05 177.5,204.5C 176.167,204.5 174.833,204.5 173.5,204.5C 173.5,202.833 173.5,201.167 173.5,199.5 Z"/></g>
<g><path style="opacity:1" fill="#929090" d="M 183.5,194.5 C 190.038,193.597 192.371,196.263 190.5,202.5C 190.047,203.458 189.381,204.292 188.5,205C 181.495,206.324 178.995,203.49 181,196.5C 181.708,195.619 182.542,194.953 183.5,194.5 Z"/></g>
<g><path style="opacity:1" fill="#8f8b8d" d="M 280.5,194.5 C 283.665,199.004 282.998,202.67 278.5,205.5C 272.697,205.19 270.53,202.19 272,196.5C 274.219,193.261 277.052,192.594 280.5,194.5 Z"/></g>
<g><path style="opacity:1" fill="#4b413a" d="M 178.5,184.5 C 179.5,184.5 180.5,184.5 181.5,184.5C 185.297,185.311 188.631,186.978 191.5,189.5C 193.517,192.874 195.517,196.207 197.5,199.5C 197.818,204.032 197.485,208.366 196.5,212.5C 196.357,208.244 194.857,204.578 192,201.5C 191.617,202.056 191.117,202.389 190.5,202.5C 192.371,196.263 190.038,193.597 183.5,194.5C 184.609,193.71 185.942,193.21 187.5,193C 184.604,189.934 181.604,187.101 178.5,184.5 Z"/></g>
<g><path style="opacity:1" fill="#201d1e" d="M 280.5,189.5 C 280.5,191.167 280.5,192.833 280.5,194.5C 277.052,192.594 274.219,193.261 272,196.5C 270.53,202.19 272.697,205.19 278.5,205.5C 275.594,213.637 270.927,220.637 264.5,226.5C 256.74,231.897 248.24,235.564 239,237.5C 237.795,236.929 236.628,236.262 235.5,235.5C 235.709,234.914 236.043,234.414 236.5,234C 243.018,233.045 249.018,230.878 254.5,227.5C 255.386,226.675 255.719,225.675 255.5,224.5C 260.439,223.558 262.772,220.558 262.5,215.5C 263.496,215.586 264.329,215.252 265,214.5C 266.352,211.28 267.186,207.947 267.5,204.5C 269.519,203.462 269.853,202.128 268.5,200.5C 268.002,197.513 267.502,194.513 267,191.5C 266.612,190.572 265.945,189.905 265,189.5C 260.356,188.226 255.856,188.226 251.5,189.5C 247.801,190.477 244.134,191.644 240.5,193C 240.167,193.333 239.833,193.667 239.5,194C 241.518,194.505 243.518,195.005 245.5,195.5C 242.833,198.5 242.833,201.5 245.5,204.5C 241.187,201.841 236.853,201.841 232.5,204.5C 231.986,207.644 231.153,210.644 230,213.5C 228.927,211.453 227.761,209.453 226.5,207.5C 225.663,210.154 224.33,211.654 222.5,212C 223.716,214.653 223.716,217.153 222.5,219.5C 221.463,218.07 220.796,216.403 220.5,214.5C 220.5,211.833 220.5,209.167 220.5,206.5C 224.249,198.728 229.249,191.728 235.5,185.5C 240.12,184.507 244.786,184.173 249.5,184.5C 255.706,182.83 262.039,182.33 268.5,183C 272.702,184.892 276.702,187.059 280.5,189.5 Z"/></g>
<g><path style="opacity:1" fill="#462035" d="M 251.5,189.5 C 260.569,195.658 263.903,204.325 261.5,215.5C 259.074,217.38 256.408,218.713 253.5,219.5C 253.822,213.642 253.489,207.975 252.5,202.5C 253.498,196.833 251.164,194.499 245.5,195.5C 243.518,195.005 241.518,194.505 239.5,194C 239.833,193.667 240.167,193.333 240.5,193C 244.134,191.644 247.801,190.477 251.5,189.5 Z"/></g>
<g><path style="opacity:1" fill="#413f3f" d="M 268.5,200.5 C 267.292,199.766 265.959,199.433 264.5,199.5C 264.5,201.167 264.5,202.833 264.5,204.5C 265.5,204.5 266.5,204.5 267.5,204.5C 267.186,207.947 266.352,211.28 265,214.5C 264.329,215.252 263.496,215.586 262.5,215.5C 262.167,215.5 261.833,215.5 261.5,215.5C 263.903,204.325 260.569,195.658 251.5,189.5C 255.856,188.226 260.356,188.226 265,189.5C 265.945,189.905 266.612,190.572 267,191.5C 267.502,194.513 268.002,197.513 268.5,200.5 Z"/></g>
<g><path style="opacity:1" fill="#919391" d="M 268.5,200.5 C 269.853,202.128 269.519,203.462 267.5,204.5C 266.5,204.5 265.5,204.5 264.5,204.5C 264.5,202.833 264.5,201.167 264.5,199.5C 265.959,199.433 267.292,199.766 268.5,200.5 Z"/></g>
<g><path style="opacity:1" fill="#484647" d="M 245.5,195.5 C 251.164,194.499 253.498,196.833 252.5,202.5C 250.544,204.148 248.211,204.815 245.5,204.5C 242.833,201.5 242.833,198.5 245.5,195.5 Z"/></g>
<g><path style="opacity:1" fill="#403e3d" d="M 164.5,189.5 C 162.989,190.502 161.322,191.169 159.5,191.5C 158.702,194.489 157.202,197.155 155,199.5C 154.505,201.473 154.338,203.473 154.5,205.5C 154.167,205.5 153.833,205.5 153.5,205.5C 151.5,205.5 149.5,205.5 147.5,205.5C 147.447,199.804 147.78,194.138 148.5,188.5C 154.026,188.179 159.36,188.512 164.5,189.5 Z"/></g>
<g><path style="opacity:1" fill="#4f3b3b" d="M 249.5,184.5 C 244.786,184.173 240.12,184.507 235.5,185.5C 229.249,191.728 224.249,198.728 220.5,206.5C 220.5,203.833 220.5,201.167 220.5,198.5C 226.093,184.867 235.76,180.2 249.5,184.5 Z"/></g>
<g><path style="opacity:1" fill="#482137" d="M 164.5,189.5 C 168.002,190.917 171.669,191.584 175.5,191.5C 175.5,192.833 175.5,194.167 175.5,195.5C 173.143,195.337 170.81,195.503 168.5,196C 167.55,198.91 165.55,200.077 162.5,199.5C 162.739,201.467 162.406,203.301 161.5,205C 159.19,205.497 156.857,205.663 154.5,205.5C 154.338,203.473 154.505,201.473 155,199.5C 157.202,197.155 158.702,194.489 159.5,191.5C 161.322,191.169 162.989,190.502 164.5,189.5 Z"/></g>
<g><path style="opacity:1" fill="#4b1b36" d="M 181.5,184.5 C 180.5,184.5 179.5,184.5 178.5,184.5C 171.978,184.92 165.645,184.92 159.5,184.5C 164.023,183.988 168.523,183.321 173,182.5C 176.15,182.36 178.983,183.027 181.5,184.5 Z"/></g>
<g><path style="opacity:1" fill="#6f174c" d="M 159.5,183.5 C 154.13,183.392 148.797,183.725 143.5,184.5C 146.356,182.994 149.523,182.328 153,182.5C 155.361,182.504 157.527,182.837 159.5,183.5 Z"/></g>
<g><path style="opacity:1" fill="#e96ecb" d="M 236.5,175.5 C 228.385,179.106 221.552,184.439 216,191.5C 215.601,191.272 215.435,190.938 215.5,190.5C 217.385,188.947 218.385,186.947 218.5,184.5C 218.5,183.833 218.5,183.167 218.5,182.5C 220.553,182.598 222.22,181.931 223.5,180.5C 227.244,177.467 231.578,175.8 236.5,175.5 Z"/></g>
<g><path style="opacity:1" fill="#1047b8" d="M 296.5,219.5 C 296.36,221.124 297.027,222.29 298.5,223C 297.87,226.903 297.87,230.903 298.5,235C 297.913,251.812 289.579,262.812 273.5,268C 267.21,269.676 260.877,269.509 254.5,267.5C 261.885,261.448 268.219,254.448 273.5,246.5C 278.064,241.953 282.564,237.286 287,232.5C 288.157,228.178 290.324,224.511 293.5,221.5C 294.5,220.833 295.5,220.167 296.5,219.5 Z"/></g>
<g><path style="opacity:1" fill="#1e62f5" d="M 303.5,210.5 C 304.5,210.5 305.5,210.5 306.5,210.5C 309.504,213.166 311.504,216.499 312.5,220.5C 313.427,227.443 313.76,234.443 313.5,241.5C 304.948,266.394 287.614,280.06 261.5,282.5C 254.355,283.071 247.688,281.738 241.5,278.5C 240.438,277.425 240.438,276.425 241.5,275.5C 245.861,272.813 250.195,270.146 254.5,267.5C 260.877,269.509 267.21,269.676 273.5,268C 289.579,262.812 297.913,251.812 298.5,235C 297.87,230.903 297.87,226.903 298.5,223C 297.027,222.29 296.36,221.124 296.5,219.5C 299.215,216.786 301.549,213.786 303.5,210.5 Z"/></g>
<g><path style="opacity:1" fill="#0f47b8" d="M 119.5,218.5 C 120.833,219.5 122.167,220.5 123.5,221.5C 126.422,225.742 129.255,230.075 132,234.5C 136.682,237.743 140.516,241.743 143.5,246.5C 148.781,254.448 155.115,261.448 162.5,267.5C 161.504,267.586 160.671,267.252 160,266.5C 159.161,267.624 157.994,268.291 156.5,268.5C 151.889,269.48 147.389,269.814 143,269.5C 124.564,261.571 116.564,247.571 119,227.5C 119.163,225.324 119.996,223.491 121.5,222C 120.177,221.184 119.511,220.017 119.5,218.5 Z"/></g>
<g><path style="opacity:1" fill="#fbcda7" d="M 194.5,235.5 C 203.437,239.466 212.437,239.466 221.5,235.5C 226.916,239.737 232.25,244.237 237.5,249C 244.669,253.117 252.336,254.45 260.5,253C 264.577,250.295 268.91,248.128 273.5,246.5C 268.219,254.448 261.885,261.448 254.5,267.5C 250.195,270.146 245.861,272.813 241.5,275.5C 240.438,276.425 240.438,277.425 241.5,278.5C 231.176,283.123 220.343,285.789 209,286.5C 198.072,285.976 187.572,283.642 177.5,279.5C 177.768,277.901 177.434,276.568 176.5,275.5C 171.579,273.37 166.912,270.703 162.5,267.5C 155.115,261.448 148.781,254.448 143.5,246.5C 148.025,248.929 152.692,251.095 157.5,253C 161.167,253.667 164.833,253.667 168.5,253C 178.674,249.413 187.34,243.579 194.5,235.5 Z"/></g>
<g><path style="opacity:1" fill="#815b54" d="M 204.5,244.5 C 211.131,243.296 215.298,245.962 217,252.5C 218.948,259.865 217.115,266.032 211.5,271C 205.944,272.778 202.11,270.945 200,265.5C 196.91,257.366 198.41,250.366 204.5,244.5 Z"/></g>
<g><path style="opacity:1" fill="#d6d0c7" d="M 214.5,255.5 C 210.366,256.485 206.032,256.818 201.5,256.5C 201.434,251.615 203.601,248.281 208,246.5C 212.103,248.018 214.269,251.018 214.5,255.5 Z"/></g>
<g><path style="opacity:1" fill="#9b0733" d="M 214.5,255.5 C 215.147,256.274 215.48,257.274 215.5,258.5C 214.961,261.248 214.128,263.915 213,266.5C 208.553,270.814 204.886,270.147 202,264.5C 201.503,261.854 201.336,259.187 201.5,256.5C 206.032,256.818 210.366,256.485 214.5,255.5 Z"/></g>
<g><path style="opacity:1" fill="#1862f6" d="M 111.5,209.5 C 114.392,212.271 117.058,215.271 119.5,218.5C 119.511,220.017 120.177,221.184 121.5,222C 119.996,223.491 119.163,225.324 119,227.5C 116.564,247.571 124.564,261.571 143,269.5C 147.389,269.814 151.889,269.48 156.5,268.5C 157.994,268.291 159.161,267.624 160,266.5C 160.671,267.252 161.504,267.586 162.5,267.5C 166.912,270.703 171.579,273.37 176.5,275.5C 176.586,276.496 176.252,277.329 175.5,278C 157.13,285.551 140.13,283.385 124.5,271.5C 108.171,258.353 101.338,241.353 104,220.5C 105.036,217.705 106.369,215.038 108,212.5C 108.759,210.937 109.926,209.937 111.5,209.5 Z"/></g>
<g><path style="opacity:1" fill="#876055" d="M 200.5,273.5 C 205.303,276.123 210.136,276.123 215,273.5C 215.167,273.833 215.333,274.167 215.5,274.5C 209.99,280.056 204.99,279.722 200.5,273.5 Z"/></g>
</svg>
