<?xml version="1.0" encoding="UTF-8" standalone="no"?>
<!DOCTYPE svg PUBLIC "-//W3C//DTD SVG 1.1//EN" "http://www.w3.org/Graphics/SVG/1.1/DTD/svg11.dtd">

<!-- Created with Vectornator (http://vectornator.io/) -->
<svg height="100%" stroke-miterlimit="10" style="fill-rule:nonzero;clip-rule:evenodd;stroke-linecap:round;stroke-linejoin:round;" version="1.1" viewBox="0 0 269.325 269.325" width="100%" xml:space="preserve" xmlns="http://www.w3.org/2000/svg" xmlns:vectornator="http://vectornator.io" xmlns:xlink="http://www.w3.org/1999/xlink">
<metadata>
<vectornator:setting key="IsTimeLapseWatermarkDisabled" value="false"/>
<vectornator:setting key="UndoHistoryDisabled" value="true"/>
<vectornator:setting key="VNDimensionsVisible" value="true"/>
<vectornator:setting key="VNSnapToGuides" value="true"/>
<vectornator:setting key="WDCMYKEnabledKey" value="false"/>
<vectornator:setting key="WDDisplayWhiteBackground" value="false"/>
<vectornator:setting key="WDDynamicGuides" value="false"/>
<vectornator:setting key="WDGuidesVisible" value="false"/>
<vectornator:setting key="WDIsolateActiveLayer" value="false"/>
<vectornator:setting key="WDOutlineMode" value="false"/>
<vectornator:setting key="WDRulersVisible" value="true"/>
<vectornator:setting key="WDSnapToEdges" value="false"/>
<vectornator:setting key="WDSnapToGrid" value="false"/>
<vectornator:setting key="WDSnapToPoints" value="false"/>
<vectornator:setting key="WDUnits" value="Millimeters"/>
</metadata>
<defs>
<filter color-interpolation-filters="sRGB" filterUnits="userSpaceOnUse" height="88.183" id="Filter" width="80.307" x="146.406" y="39.4934">
<feDropShadow dx="5.81268" dy="3.90035" flood-color="#000000" flood-opacity="1" in="SourceGraphic" result="Shadow" stdDeviation="3.54752"/>
</filter>
<filter color-interpolation-filters="sRGB" filterUnits="userSpaceOnUse" height="133.402" id="Filter_2" width="59.568" x="54.4887" y="94.8784">
<feDropShadow dx="6.64306" dy="4.45755" flood-color="#a30f0f" flood-opacity="0.760929" in="SourceGraphic" result="Shadow" stdDeviation="2.94927"/>
</filter>
<filter color-interpolation-filters="sRGB" filterUnits="userSpaceOnUse" height="152.8" id="Filter_3" width="120.254" x="59.9536" y="75.5702">
<feDropShadow dx="5.81268" dy="3.90035" flood-color="#a30f0f" flood-opacity="0.760929" in="SourceGraphic" result="Shadow" stdDeviation="3.3007"/>
</filter>
</defs>
<clipPath id="ArtboardFrame">
<rect height="269.325" width="269.325" x="0" y="0"/>
</clipPath>
<g clip-path="url(#ArtboardFrame)" id="Layer-1" vectornator:layerName="Layer 1">
<g opacity="0.982558">
<path d="M228.675 228.895C215.841 241.252 201.034 250.377 185.243 256.298C137.786 274.095 81.4489 262.953 43.1297 223.635C-7.93935 171.235-7.66718 88.6322 43.7376 39.1371C95.1423-10.358 178.214-8.00308 229.283 44.397C280.352 96.7971 280.08 179.4 228.675 228.895Z" fill="#fafafa" fill-rule="evenodd" stroke="none"/>
<path d="M131.75 0.59375C121.245 0.652623 110.746 1.93371 100.562 4.4375C83.6191 8.60322 67.5495 16.1448 53.5938 26.625C42.8124 34.7213 33.2577 44.5235 25.4688 55.5312C16.9112 67.6252 10.501 81.1657 6.53125 95.4375C3.16074 107.555 1.55323 120.151 1.71875 132.719C1.77392 136.908 2.02161 141.082 2.46875 145.25C6.36052 181.523 25.0713 214.937 53.5 237.719C63.117 245.425 73.7551 251.848 85.0625 256.75C100.036 263.242 116.203 267.01 132.5 267.875C160.346 269.352 188.439 262.077 211.844 246.875C216.849 243.624 221.644 240.032 226.156 236.125C227.302 235.133 228.421 234.125 229.531 233.094C229.811 232.834 229.549 233.081 231.188 231.531C232.47 230.316 232.595 228.44 231.688 227C232.181 226.503 232.67 226.005 233.156 225.5C235.452 223.117 237.645 220.646 239.75 218.094C247.948 208.154 254.612 196.945 259.438 185C265.554 169.859 268.623 153.682 268.75 137.469C268.877 121.256 266.042 105.022 260.344 89.75C254.648 74.4843 246.174 60.3049 235.5 48C221.26 31.5836 203.196 18.4621 183.031 10.3125C166.819 3.76004 149.259 0.495628 131.75 0.59375ZM128.375 6.53125C136.578 6.22023 144.819 6.67785 152.938 7.90625C173.019 10.9447 192.479 18.7266 209.156 30.3125C232.972 46.8578 251.143 71.2421 259.906 98.9062C263.669 110.786 265.758 123.196 266 135.656C266.506 161.744 258.911 187.715 244.188 209.281C240.737 214.335 236.935 219.131 232.781 223.625C232.07 224.395 231.324 225.154 230.594 225.906C229.218 225.024 227.396 225.075 226.156 226.25C225.35 227.015 225.973 226.926 225.375 227.031C225.021 227.094 224.857 227.505 224.594 227.75C223.809 228.482 222.992 229.195 222.188 229.906C219.53 232.254 216.786 234.513 213.938 236.625C203.946 244.035 192.839 249.906 181.094 254C151.909 264.173 119.374 263.044 90.75 251.531C75.8681 245.545 62.1049 236.776 50.3438 225.875C38.1737 214.595 28.1001 201.037 20.9375 186.062C5.49814 153.785 4.02566 115.85 17.75 82.7188C21.9871 72.4901 27.6144 62.8443 34.4375 54.125C42.7807 43.4632 52.918 34.1569 64.25 26.75C76.3811 18.8208 89.9218 13.0812 104.031 9.78125C112.029 7.9107 120.172 6.84227 128.375 6.53125Z" fill="#c61d1d" stroke="none"/>
</g>
<g opacity="0.982558">
<path d="M227.114 226.568C214.473 238.67 199.888 247.608 184.335 253.408C137.59 270.838 82.0997 259.926 44.3562 221.416C-5.94562 170.093-5.67755 89.1879 44.9549 40.71C95.5874-7.76781 177.411-5.46126 227.713 45.8619C278.014 97.185 277.746 178.09 227.114 226.568Z" fill="#fafafa" fill-rule="evenodd" stroke="none"/>
<path d="M136.031 2.96875C107.067 2.19407 78.1948 10.8069 54.625 28.4062C43.7195 36.5493 34.1063 46.4335 26.3125 57.5938C17.9969 69.5012 11.7629 82.8228 7.96875 96.8438C3.76688 112.371 2.52505 128.667 4.25 144.656C8.09166 180.267 26.6009 212.968 54.5625 235.25C64.0448 242.806 74.5219 249.106 85.6562 253.906C100.909 260.482 117.375 264.232 133.969 264.906C160.875 265.999 187.918 258.875 210.562 244.25C215.493 241.065 220.208 237.549 224.656 233.719C225.785 232.747 226.906 231.761 228 230.75C228.275 230.496 228.01 230.737 229.625 229.219C230.914 228.004 231.036 226.1 230.125 224.656C230.591 224.188 231.071 223.725 231.531 223.25C233.792 220.917 235.957 218.501 238.031 216C246.102 206.272 252.68 195.303 257.438 183.594C263.463 168.765 266.499 152.917 266.625 137.031C266.751 121.146 263.955 105.209 258.344 90.25C252.729 75.2804 244.35 61.3889 233.844 49.3438C219.787 33.2275 201.998 20.4415 182.156 12.4375C176.537 10.1706 170.721 8.36881 164.844 6.90625C155.363 4.54722 145.686 3.22698 136.031 2.96875ZM129.344 8.78125C137.762 8.53029 146.22 9.11894 154.531 10.5C173.568 13.6632 191.999 21.1582 207.875 32.125C231.285 48.2963 249.228 72.1147 257.875 99.25C261.58 110.878 263.605 123.047 263.844 135.25C264.345 160.817 256.887 186.247 242.406 207.344C239.007 212.296 235.214 216.975 231.125 221.375C230.437 222.116 229.737 222.838 229.031 223.562C227.66 222.692 225.862 222.741 224.625 223.906C223.831 224.656 224.407 224.559 223.812 224.656C223.464 224.714 223.321 225.166 223.062 225.406C222.29 226.123 221.479 226.804 220.688 227.5C218.071 229.799 215.366 231.995 212.562 234.062C202.718 241.323 191.776 247.056 180.219 251.062C151.477 261.026 119.446 259.964 91.25 248.688C76.6102 242.833 63.0915 234.246 51.5 223.562C39.5315 212.532 29.621 199.267 22.5625 184.594C7.36894 153.01 5.89793 115.866 19.4062 83.4375C23.5798 73.4184 29.1319 63.967 35.8438 55.4375C43.8552 45.2565 53.5145 36.3733 64.3125 29.2188C76.4872 21.152 90.1215 15.3399 104.344 12.0312C112.553 10.1215 120.925 9.03221 129.344 8.78125Z" fill="#000000" stroke="none"/>
</g>
<g filter="url(#Filter)" vectornator:shadowAngle="0.591002" vectornator:shadowColor="#000000" vectornator:shadowOffset="7" vectornator:shadowOpacity="1" vectornator:shadowRadius="7.09505">
<path d="M181.438 44.0938C173.822 43.9612 166.354 47.1413 160.281 51.5312C158.651 52.7097 157.033 53.9396 155.531 55.2812C154.847 55.8925 154.097 56.571 153.594 57.3438C153.252 57.8686 152.905 58.394 152.656 58.9688C152.397 59.567 152.285 60.2202 152.094 60.8438C151.252 65.288 154.149 69.5649 158.594 70.4062C161.708 70.9958 164.672 69.6471 166.5 67.3125C166.457 67.3564 166.452 67.4266 166.406 67.4688C166.351 67.5195 166.509 67.3649 166.562 67.3125C166.627 67.2489 166.684 67.1872 166.75 67.125C167.035 66.8577 167.33 66.5993 167.625 66.3438C168.384 65.6866 169.18 65.0278 169.969 64.4062C172.64 62.3003 175.536 60.6453 178.844 59.75C179.89 59.4669 180.977 59.2803 182.062 59.25C183.208 59.218 184.006 59.1744 184.656 60.3125C184.853 60.6577 184.989 61.0423 185.031 61.4375C185.071 61.8113 185.078 62.1889 185.031 62.5625C184.849 64.0149 184.214 65.4729 183.656 66.8125C182.758 68.9712 181.64 71.0408 180.469 73.0625C176.369 80.1419 171.243 86.5526 165.969 92.7812C163.726 95.4293 161.399 97.9916 158.938 100.438C158.041 101.328 157.129 102.189 156.188 103.031C155.908 103.281 155.581 103.494 155.281 103.719C155.205 103.776 155.21 103.772 155.156 103.812C154.893 103.963 154.583 104.038 154.344 104.219C153.494 104.863 152.794 105.936 152.656 107C152.62 107.278 152.591 107.563 152.594 107.844C152.595 108.029 152.636 108.222 152.656 108.406C152.611 108.448 152.695 108.574 152.719 108.656C152.772 108.841 152.833 109.009 152.906 109.188C153.075 109.599 153.275 109.972 153.562 110.312C153.968 110.794 154.49 111.148 155.062 111.406C155.549 111.626 156.015 111.757 156.469 111.781C157.831 111.854 159.063 111.146 160.281 110.344C160.504 110.197 160.689 109.998 160.906 109.844C160.955 109.82 161.013 109.805 161.062 109.781C162.302 109.174 163.553 108.596 164.812 108.031C168.088 106.563 171.407 105.214 174.75 103.906C177.422 102.861 180.127 101.888 182.875 101.062C185.123 100.387 187.404 99.7901 189.688 99.25C192.409 98.6065 195.153 98.066 197.719 96.9062C199.062 96.2991 200.244 95.4015 201.469 94.5938C203.7 93.1223 205.924 91.339 207 88.8125C207.519 87.5969 206.966 86.2067 205.75 85.6875C204.534 85.1682 203.113 85.7219 202.594 86.9375C202.421 87.3378 202.082 87.6621 201.781 87.9688C200.713 89.0586 199.4 89.7714 198.094 90.5312C197.365 90.9556 196.66 91.4604 195.875 91.7812C193.686 92.6758 191.314 92.9893 189 93.375C186.402 93.808 183.815 94.3075 181.25 94.9062C179.28 95.3662 177.315 95.8961 175.375 96.4688C181.146 90.5445 186.729 84.4018 191.5 77.6562C195.248 72.3564 198.396 66.9982 198.25 60.2812C198.204 58.145 197.812 56.0539 197.031 54.0625C194.478 47.5457 188.268 44.2126 181.438 44.0938ZM168.188 63.875C167.921 64.7136 167.591 65.5588 167.156 66.3438C167.592 65.5777 168.014 64.7897 168.188 63.875Z" fill="#b02121" stroke="none"/>
</g>
<g filter="url(#Filter_2)" vectornator:shadowAngle="0.591002" vectornator:shadowColor="#a30f0f" vectornator:shadowOffset="8" vectornator:shadowOpacity="0.760929" vectornator:shadowRadius="5.89855">
<path d="M94.0938 97.2812C89.6563 96.4044 85.3456 99.2813 84.4688 103.719C83.324 110.6 81.5988 117.333 79.9062 124.094C79.4284 126.002 79.0543 127.932 78.5938 129.844C78.1316 131.762 77.4445 133.594 76.9375 135.5C76.2578 138.055 75.7048 140.654 75.0625 143.219C73.6693 148.782 72.2909 154.364 70.9375 159.938C67.0238 176.055 63.524 192.225 62.7812 208.844C62.7372 209.239 63.011 209.581 63.4062 209.625C63.8015 209.669 64.1747 209.395 64.2188 209C67.7584 189.228 75.1217 170.525 83.125 152.188C84.9525 148 87.0252 143.942 88.9062 139.781C89.7328 137.953 90.3809 136.042 91.2188 134.219C92.0705 132.365 92.9725 130.576 93.75 128.688C96.6502 121.644 98.877 114.329 100.562 106.906C101.439 102.469 98.5312 98.1581 94.0938 97.2812Z" fill="#000000" stroke="none"/>
</g>
<g filter="url(#Filter_3)" vectornator:shadowAngle="0.591002" vectornator:shadowColor="#a30f0f" vectornator:shadowOffset="7" vectornator:shadowOpacity="0.760929" vectornator:shadowRadius="6.6014">
<path d="M125.656 78.8438C123.535 79.008 121.419 79.4248 119.344 79.9062C117.153 80.4145 115.007 81.0333 112.875 81.75C105.941 84.0811 99.3741 87.4662 93.3438 91.5938C86.7218 96.1262 80.697 101.556 74.9375 107.125C72.2973 109.678 69.7269 112.293 67.3125 115.062C65.4734 117.172 63.7504 119.409 62.4688 121.906C61.9514 122.912 61.6423 123.97 61.5625 125.031C61.3231 128.214 62.9835 131.385 66 132.938C70.022 135.007 74.9617 133.428 77.0312 129.406C77.8713 127.784 79.2793 126.361 80.5 125.031C82.3876 122.975 84.3777 121.04 86.4062 119.125C94.169 111.795 102.45 104.725 112.219 100.219C115.734 98.5971 119.415 97.3097 123.188 96.4375C124.453 96.145 125.76 95.8499 127.062 95.7812C127.488 95.7588 127.889 95.7668 128.312 95.8125C128.323 95.8136 128.333 95.8115 128.344 95.8125C128.596 96.076 128.825 96.3487 129.094 96.5938C129.109 96.7203 129.141 96.8324 129.156 96.9688C128.852 98.9603 127.996 100.775 127.156 102.594C124.821 107.654 122.274 112.558 119.062 117.125C114.998 122.906 110.007 127.967 103.812 131.438C101.603 132.676 99.3093 133.769 97.0625 134.938C96.1493 135.412 95.2034 135.88 94.3438 136.438C93.6582 136.882 92.8945 137.182 92.2188 137.656C91.4628 138.187 90.8815 138.951 90.25 139.625C89.9931 139.899 89.7916 140.294 89.625 140.625C88.7784 142.307 88.5615 144.267 89.0312 146.094C89.1636 146.608 89.2902 146.92 89.5 147.406C89.5422 147.504 89.5502 147.673 89.625 147.688C89.6103 147.695 89.6415 147.726 89.6562 147.719C89.7859 147.944 89.8817 148.163 90.0312 148.375C90.3022 148.76 90.5888 149.152 90.9062 149.5C91.7213 150.392 92.7816 151.044 93.9062 151.469C95.2778 151.987 96.7684 152.04 98.2188 151.969C100.63 151.85 102.978 151.288 105.281 150.594C107.851 149.819 110.349 148.775 112.938 148.062C115.916 147.243 119.049 146.784 122.094 146.281C128.312 145.255 134.629 144.615 140.938 144.812C141.827 144.84 142.704 144.883 143.594 144.906C144.474 144.929 145.338 144.916 146.219 144.938C147.867 144.978 151.418 144.932 151.875 147.219C152.41 149.894 151.077 151.623 149.594 153.688C148.95 154.584 148.484 155.186 147.812 156.062C144.679 160.151 141.613 164.307 138.219 168.188C130.318 177.22 120.814 184.847 110.469 190.906C105 194.11 99.2815 196.781 93.4375 199.219C86.4929 202.116 79.4744 204.612 72.25 206.719C71.0548 207.02 70.324 208.211 70.625 209.406C70.926 210.601 72.1485 211.332 73.3438 211.031C77.0766 210.236 80.7815 209.427 84.4688 208.438C88.6164 207.324 92.7335 206.028 96.8125 204.688C102.73 202.743 108.521 200.604 114.156 197.938C126.871 191.92 138.574 183.805 148.938 174.312C152.744 170.825 156.354 167.167 159.531 163.094C160.951 161.273 162.405 159.404 163.469 157.344C165.172 154.045 165.886 150.158 165.562 146.469C165.391 144.516 164.927 142.591 164.094 140.812C161.913 136.156 157.392 132.856 152.438 131.719C149.683 131.087 146.869 131.087 144.062 130.969C140.487 130.818 136.925 130.652 133.344 130.75C131.756 130.794 130.178 130.894 128.594 131C129.008 130.501 129.474 130.041 129.875 129.531C132.271 126.485 134.42 123.264 136.406 119.938C137.394 118.283 138.368 116.617 139.312 114.938C140.57 112.702 141.757 110.418 142.906 108.125C144.633 104.68 146.14 100.802 146.125 96.875C146.117 94.7825 145.675 92.5419 145 90.5625C144.503 89.1051 143.864 87.7382 142.938 86.5C142.277 85.6183 141.49 84.9449 140.688 84.2188C138.791 81.5497 135.121 79.8797 132.031 79.2188C129.917 78.7665 127.778 78.6795 125.656 78.8438Z" fill="#000000" stroke="none"/>
</g>
<g opacity="1">
<path d="M93.6562 98.4688C89.218 97.5959 84.9041 100.499 84.0312 104.938C82.9201 111.681 81.2361 118.248 79.5938 124.875C79.1295 126.748 78.789 128.655 78.3438 130.531C77.8972 132.413 77.2412 134.224 76.75 136.094C76.0914 138.601 75.5276 141.139 74.9062 143.656C73.5583 149.117 72.2174 154.593 70.9062 160.062C67.1145 175.879 63.7296 191.764 63.0312 208.062C62.9874 208.458 63.261 208.8 63.6562 208.844C64.0515 208.888 64.4249 208.614 64.4688 208.219C67.9541 188.837 75.181 170.509 83.0312 152.531C84.8238 148.426 86.8429 144.423 88.6875 140.344C89.4981 138.551 90.1464 136.694 90.9688 134.906C92.0869 132.475 93.2453 130.09 94.2188 127.594C96.6917 121.252 98.621 114.729 100.125 108.094C100.998 103.656 98.0945 99.3416 93.6562 98.4688Z" fill="#000000" stroke="none"/>
</g>
</g>
</svg>
