<?xml version="1.0" encoding="UTF-8"?>
<svg width="622px" height="624px" viewBox="0 0 622 624" version="1.1" xmlns="http://www.w3.org/2000/svg" xmlns:xlink="http://www.w3.org/1999/xlink">
    <g stroke="none" stroke-width="1" fill="none" fill-rule="evenodd">
        <path d="M418.38715,53 C444.467538,53 468.566811,66.9137214 481.607005,89.5 L481.607005,89.5 L588.994155,275.5 C602.034349,298.086279 602.034349,325.913721 588.994155,348.5 L588.994155,348.5 L481.607005,534.5 C468.566811,557.086279 444.467538,571 418.38715,571 L418.38715,571 L203.61285,571 C190.572656,571 178.027741,567.52157 167.11285,561.219854 C156.197959,554.918139 146.913092,545.793139 140.392995,534.5 L140.392995,534.5 L33.0058454,348.5 C19.9656514,325.913721 19.9656514,298.086279 33.0058454,275.5 L33.0058454,275.5 L140.392995,89.5 C153.433189,66.9137214 177.532462,53 203.61285,53 L203.61285,53 Z" stroke="#00FF9B" stroke-width="20" fill="#191A1E"></path>
        <path d="M423.857738,129 L527,312 L423.857738,495 L373,495 L476.142262,312 L373,129 L423.857738,129 Z M198.162751,495 L94,312 L198.162751,129 L336.837249,129 L361.603487,172.51049 L224.757211,172.51049 L156.285394,292.804196 L188.387256,292.804196 L241.561222,199.385876 L292.922147,199.385876 L228.822428,312 L294.150957,426.774273 L242.790032,426.774273 L188.387256,331.195804 L156.286678,331.195804 L224.757211,451.48951 L310.242335,451.48951 L324.638802,426.197119 L259.638983,312 L323.738702,199.385876 L376.900054,199.384615 L441,312 L375.999727,426.197119 L376.328437,426.774273 L375.671017,426.774273 L336.837249,495 L198.162751,495 Z M350.499766,241 L310,312.5 L350.499766,384 L391,312.5 L350.499766,241 Z" fill="#00FF9B"></path>
    </g>
</svg>