<?xml version="1.0" encoding="utf-8"?>
<!-- Generator: Adobe Illustrator 24.0.0, SVG Export Plug-In . SVG Version: 6.00 Build 0)  -->
<svg version="1.1" xmlns="http://www.w3.org/2000/svg" xmlns:xlink="http://www.w3.org/1999/xlink" x="0px" y="0px"
	 viewBox="0 0 1366 768" style="enable-background:new 0 0 1366 768;" xml:space="preserve">
<style type="text/css">
	.st0{display:none;}
	.st1{display:inline;fill:#F89D19;}
	.st2{display:inline;fill:#FFFFFF;}
	.st3{display:inline;fill:url(#SVGID_1_);}
	.st4{display:inline;}
	.st5{fill:#FFFFFF;}
	.st6{fill:url(#SVGID_2_);}
</style>
<g id="Layer_1">
</g>
<g id="Layer_2">
	<g class="st0">
		<path class="st1" d="M-458.5,469.87l38.8-33.16c-11.26-4.95-23.71-7.71-36.8-7.71c-14.11,0-27.47,3.2-39.41,8.9L-458.5,469.87z"/>
		<path class="st2" d="M-404.08,445.5l-33.14,28.32c18.33,7.58,31.23,25.62,31.23,46.68c0,27.89-22.61,50.5-50.5,50.5
			s-50.5-22.61-50.5-50.5c0-20.04,11.67-37.36,28.59-45.51l-32.68-27.92c-22.4,16.68-36.91,43.36-36.91,73.44
			c0,50.53,40.97,91.5,91.5,91.5s91.5-40.97,91.5-91.5C-365,489.47-380.45,462.04-404.08,445.5z"/>
	</g>
	<g class="st0">
		<linearGradient id="SVGID_1_" gradientUnits="userSpaceOnUse" x1="-868.5389" y1="311.2603" x2="-655.4611" y2="188.2397">
			<stop  offset="0" style="stop-color:#B82BF6"/>
			<stop  offset="0.0794" style="stop-color:#AB2BF3"/>
			<stop  offset="0.3606" style="stop-color:#802BEA"/>
			<stop  offset="0.5039" style="stop-color:#6F2BE6"/>
			<stop  offset="0.6631" style="stop-color:#5B55D9"/>
			<stop  offset="1" style="stop-color:#2CB7BB"/>
		</linearGradient>
		<circle class="st3" cx="-762" cy="249.75" r="123"/>
		<g class="st4">
			<g>
				<path class="st5" d="M-758,269.25h-8h-80v19c6,15,15,20,15,20h50c9-10,11-17,11-17h4h8h4c0,0,2,7,11,17h50c0,0,9-5,15-20v-19
					H-758z"/>
				<path class="st5" d="M-758,258.25h79c0,0,0-18,0-28s-8-19-8-19c-13-18-28-20-28-20v1v26h-43h-8h-43v-26v-1c0,0-15,2-28,20
					c0,0-8,9-8,19s0,28,0,28h79H-758z"/>
			</g>
		</g>
	</g>
	<g>
		<linearGradient id="SVGID_2_" gradientUnits="userSpaceOnUse" x1="387.386" y1="554.5284" x2="978.114" y2="213.4715">
			<stop  offset="0" style="stop-color:#B82BF6"/>
			<stop  offset="0.0794" style="stop-color:#AB2BF3"/>
			<stop  offset="0.3606" style="stop-color:#802BEA"/>
			<stop  offset="0.5039" style="stop-color:#6F2BE6"/>
			<stop  offset="0.6631" style="stop-color:#5B55D9"/>
			<stop  offset="1" style="stop-color:#2CB7BB"/>
		</linearGradient>
		<circle class="st6" cx="682.75" cy="384" r="341"/>
		<g>
			<path class="st5" d="M684.05,407.7c79.26,0,158.51,0,237.77,0c0-33.3,0-66.59,0-99.89c0.02-10.03-3.21-18.48-4.3-21.05
				c-18.48-39.6-44.95-73.04-80.08-99.81c-2.68-2.04-5.06-4.47-7.57-6.71c-1.08,0-2.15,0-3.23,0c0,34.23,0,68.47,0,103.27H538.86
				c0-34.8,0-69.04,0-103.27c-1.08,0-2.15,0-3.23,0c-2.52,2.25-4.9,4.67-7.57,6.71c-35.12,26.78-61.6,60.21-80.08,99.81
				c-1.09,2.57-4.32,11.02-4.3,21.05c0,33.3,0,66.59,0,99.89c79.26,0,158.51,0,237.77,0C682.32,407.7,683.18,407.7,684.05,407.7z"/>
			<path class="st5" d="M443.68,486.06c0,0,0.14,7.57,2.34,13.99c7.23,19.59,18.56,37.03,29.92,54.45c49.47,0,98.94,0,148.42,0
				c2.56-3.6,5.28-7.09,7.63-10.82c7.1-11.23,13.91-22.64,21.21-33.74c0.42-0.64,1-1.28,1.64-1.88h55.8
				c0.65,0.6,1.22,1.23,1.64,1.88c7.3,11.09,14.11,22.51,21.21,33.74c2.36,3.73,5.08,7.22,7.63,10.82c49.47,0,98.94,0,148.42,0
				c11.36-17.42,22.69-34.85,29.92-54.45c2.2-6.42,2.34-13.99,2.34-13.99c0-14.84,0-29.69,0-44.53H443.68
				C443.68,456.37,443.68,471.21,443.68,486.06z"/>
		</g>
	</g>
</g>
<g id="Layer_3">
</g>
</svg>
