<?xml version="1.0" encoding="utf-8"?>
<svg width="100" height="100" viewBox="0 0 100 100" fill="none" xmlns="http://www.w3.org/2000/svg">
  <circle cx="50" cy="50" r="50" fill="url(#paint0_linear_666:278)"/>
  <circle cx="50" cy="50" r="37.5" fill="white"/>
  <path d="M 48.25 72 C 45.292 72 42.563 71.458 40.063 70.375 C 37.604 69.25 35.583 67.667 34 65.625 L 39.625 58.875 C 42 62.083 44.708 63.688 47.75 63.688 C 51.875 63.688 53.938 61.271 53.938 56.438 L 53.938 35.625 L 38.563 35.625 L 38.563 27.5 L 64 27.5 L 64 55.875 C 64 61.25 62.667 65.292 60 68 C 57.333 70.667 53.417 72 48.25 72 Z" fill="#100808"/>
  <defs>
    <linearGradient id="paint0_linear_666:278" x1="15" y1="6.25" x2="76.25" y2="93.75" gradientUnits="userSpaceOnUse">
      <stop stop-color="#1BE4AF"/>
      <stop offset="1" stop-color="#619CCC"/>
    </linearGradient>
  </defs>
</svg>