<svg id="visual" viewBox="0 0 900 600" width="900" height="600" xmlns="http://www.w3.org/2000/svg" xmlns:xlink="http://www.w3.org/1999/xlink" version="1.1"><rect x="0" y="0" width="900" height="600" fill="#001220"></rect><defs><linearGradient id="grad1_0" x1="33.3%" y1="0%" x2="100%" y2="100%"><stop offset="20%" stop-color="#fbae3c" stop-opacity="1"></stop><stop offset="80%" stop-color="#fbae3c" stop-opacity="1"></stop></linearGradient></defs><defs><linearGradient id="grad1_1" x1="33.3%" y1="0%" x2="100%" y2="100%"><stop offset="20%" stop-color="#fbae3c" stop-opacity="1"></stop><stop offset="80%" stop-color="#96446e" stop-opacity="1"></stop></linearGradient></defs><defs><linearGradient id="grad1_2" x1="33.3%" y1="0%" x2="100%" y2="100%"><stop offset="20%" stop-color="#001220" stop-opacity="1"></stop><stop offset="80%" stop-color="#96446e" stop-opacity="1"></stop></linearGradient></defs><defs><linearGradient id="grad2_0" x1="0%" y1="0%" x2="66.7%" y2="100%"><stop offset="20%" stop-color="#fbae3c" stop-opacity="1"></stop><stop offset="80%" stop-color="#fbae3c" stop-opacity="1"></stop></linearGradient></defs><defs><linearGradient id="grad2_1" x1="0%" y1="0%" x2="66.7%" y2="100%"><stop offset="20%" stop-color="#96446e" stop-opacity="1"></stop><stop offset="80%" stop-color="#fbae3c" stop-opacity="1"></stop></linearGradient></defs><defs><linearGradient id="grad2_2" x1="0%" y1="0%" x2="66.7%" y2="100%"><stop offset="20%" stop-color="#96446e" stop-opacity="1"></stop><stop offset="80%" stop-color="#001220" stop-opacity="1"></stop></linearGradient></defs><g transform="translate(900, 0)"><path d="M0 486.7C-50.5 473.1 -101 459.5 -141.2 434.6C-181.4 409.8 -211.3 373.6 -254.5 350.3C-297.7 327 -354.2 316.5 -392.4 285.1C-430.5 253.7 -450.3 201.4 -462.9 150.4C-475.6 99.4 -481.2 49.7 -486.7 0L0 0Z" fill="#3d3056"></path><path d="M0 324.5C-33.7 315.4 -67.3 306.3 -94.1 289.8C-120.9 273.2 -140.9 249.1 -169.7 233.5C-198.5 218 -236.2 211 -261.6 190.1C-287 169.1 -300.2 134.3 -308.6 100.3C-317.1 66.3 -320.8 33.1 -324.5 0L0 0Z" fill="#e1685e"></path><path d="M0 162.2C-16.8 157.7 -33.7 153.2 -47.1 144.9C-60.5 136.6 -70.4 124.5 -84.8 116.8C-99.2 109 -118.1 105.5 -130.8 95C-143.5 84.6 -150.1 67.1 -154.3 50.1C-158.5 33.1 -160.4 16.6 -162.2 0L0 0Z" fill="#fbae3c"></path></g><g transform="translate(0, 600)"><path d="M0 -486.7C38.7 -448.3 77.5 -409.8 130.7 -402.3C184 -394.8 251.8 -418.3 286.1 -393.8C320.4 -369.3 321.3 -296.9 343 -249.2C364.7 -201.6 407.2 -178.6 434.6 -141.2C462.1 -103.8 474.4 -51.9 486.7 0L0 0Z" fill="#3d3056"></path><path d="M0 -324.5C25.8 -298.8 51.6 -273.2 87.1 -268.2C122.6 -263.2 167.8 -278.8 190.7 -262.5C213.6 -246.2 214.2 -197.9 228.7 -166.1C243.1 -134.4 271.5 -119.1 289.8 -94.1C308 -69.2 316.3 -34.6 324.5 0L0 0Z" fill="#e1685e"></path><path d="M0 -162.2C12.9 -149.4 25.8 -136.6 43.6 -134.1C61.3 -131.6 83.9 -139.4 95.4 -131.3C106.8 -123.1 107.1 -99 114.3 -83.1C121.6 -67.2 135.7 -59.5 144.9 -47.1C154 -34.6 158.1 -17.3 162.2 0L0 0Z" fill="#fbae3c"></path></g></svg>