<?xml version="1.0" encoding="utf-8"?>
<!-- Generator: Adobe Illustrator 16.0.0, SVG Export Plug-In . SVG Version: 6.00 Build 0)  -->
<!DOCTYPE svg PUBLIC "-//W3C//DTD SVG 1.1//EN" "http://www.w3.org/Graphics/SVG/1.1/DTD/svg11.dtd">
<svg version="1.1" id="Layer_1" xmlns="http://www.w3.org/2000/svg" xmlns:xlink="http://www.w3.org/1999/xlink" x="0px" y="0px"
	 width="62.241px" height="66.973px" viewBox="0 0 62.241 66.973" enable-background="new 0 0 62.241 66.973" xml:space="preserve">
<path fill="#9394C9" d="M59.186,59.1l1.032-0.407l-0.39-1.038c-0.105-0.282-2.525-6.638-7.69-11.772
	c2.757-3.029,5.007-6.797,6.698-11.219c0.093-0.122,0.162-0.264,0.199-0.422c0.014-0.057,0.021-0.113,0.025-0.169
	c3.214-8.763,3.183-16.917,3.181-17.264l-0.01-1.109l-1.109-0.009c-0.367-0.005-8.77-0.034-17.673,3.333
	C39.787,8.565,32.277,1.101,31.948,0.777L31.157,0l-0.791,0.777c-0.33,0.324-7.851,7.799-11.51,18.27
	C9.93,15.656,1.488,15.685,1.118,15.69l-1.109,0.009L0,16.808C-0.001,17-0.025,21.565,1.289,27.54
	c1.161,5.279,3.627,12.627,8.805,18.329l-0.02,0.019l0.017,0.019c-5.147,5.13-7.56,11.467-7.666,11.748l-0.389,1.038L3.067,59.1
	c0.135,0.053,3.354,1.309,7.828,1.909c1.525,0.205,3.011,0.307,4.447,0.307c3.739,0,7.144-0.69,10.049-2.042
	c2.118,4.087,4.85,6.799,4.975,6.922l0.791,0.777l0.791-0.777c0.124-0.122,2.847-2.825,4.963-6.899c2.894,1.337,6.281,2.02,10,2.02
	c1.443,0,2.938-0.103,4.47-0.31C55.844,60.404,59.052,59.152,59.186,59.1 M34.183,54.897c0.72-0.036,1.45-0.09,2.188-0.161
	c-0.146,0.47-0.311,0.941-0.499,1.417C35.282,55.772,34.719,55.354,34.183,54.897 M26.43,56.122
	c-0.183-0.462-0.343-0.922-0.485-1.38c0.718,0.069,1.427,0.121,2.126,0.155C27.55,55.34,27.002,55.75,26.43,56.122 M11.771,44.365
	c-2.63-2.895-4.516-6.264-5.868-9.54c3.76-0.755,7.582-0.929,11.389-0.516c0.347,2.052,0.937,4.062,1.762,6
	c-0.034,0.011-0.068,0.021-0.102,0.032c-0.121,0.038-0.243,0.076-0.363,0.116c-0.082,0.028-0.163,0.057-0.244,0.085
	c-0.116,0.04-0.231,0.082-0.347,0.125c-0.083,0.031-0.165,0.063-0.248,0.095c-0.113,0.045-0.226,0.09-0.339,0.136
	c-0.082,0.034-0.165,0.068-0.247,0.104c-0.113,0.048-0.226,0.099-0.339,0.149c-0.08,0.036-0.16,0.072-0.241,0.109
	c-0.115,0.055-0.229,0.109-0.344,0.166c-0.076,0.037-0.153,0.074-0.23,0.113c-0.121,0.062-0.241,0.125-0.362,0.189
	c-0.068,0.037-0.137,0.071-0.206,0.109c-0.143,0.078-0.286,0.16-0.429,0.243c-0.044,0.025-0.089,0.05-0.133,0.076
	c-0.187,0.11-0.373,0.223-0.559,0.34c-0.042,0.027-0.084,0.055-0.127,0.082c-0.142,0.091-0.284,0.183-0.425,0.278
	c-0.065,0.044-0.13,0.09-0.195,0.135c-0.118,0.081-0.235,0.162-0.352,0.246c-0.072,0.051-0.143,0.104-0.215,0.157
	c-0.109,0.08-0.219,0.161-0.327,0.243c-0.074,0.057-0.148,0.114-0.222,0.172c-0.106,0.083-0.211,0.166-0.316,0.251
	c-0.074,0.059-0.148,0.12-0.222,0.181C11.872,44.284,11.821,44.323,11.771,44.365 M29.586,28.332
	c-0.003,0.004-0.006,0.007-0.009,0.011c-0.187,0.221-0.37,0.445-0.55,0.672c-0.03,0.036-0.059,0.073-0.088,0.11
	c-0.173,0.22-0.342,0.442-0.508,0.667c-0.03,0.041-0.061,0.083-0.091,0.124c-0.166,0.228-0.329,0.458-0.487,0.691
	c-0.021,0.031-0.042,0.063-0.063,0.094c-0.161,0.239-0.319,0.479-0.472,0.723c-0.005,0.009-0.012,0.018-0.018,0.028
	c-0.154,0.246-0.303,0.495-0.449,0.747c-0.023,0.038-0.045,0.077-0.068,0.116c-0.139,0.242-0.274,0.486-0.405,0.733
	c-0.025,0.046-0.049,0.092-0.073,0.138c-0.123,0.234-0.244,0.469-0.36,0.707l-0.02-0.008l-0.006,0.014
	c-2.143-0.718-4.362-1.253-6.619-1.6c-0.324-3.27,0.004-6.7,0.974-10.223C23.964,23.733,27.09,25.831,29.586,28.332 M42.032,22.046
	c0.979,3.538,1.309,6.983,0.981,10.269c-1.682,0.259-3.185,0.6-4.474,0.954c-0.792,0.218-1.531,0.448-2.218,0.68
	c-0.119-0.244-0.242-0.486-0.368-0.727c-0.023-0.046-0.048-0.092-0.071-0.138c-0.133-0.249-0.269-0.495-0.408-0.739
	c-0.022-0.039-0.045-0.078-0.067-0.116c-0.146-0.254-0.297-0.505-0.453-0.754c-0.006-0.009-0.012-0.019-0.018-0.028
	c-0.154-0.246-0.313-0.489-0.476-0.73c-0.021-0.031-0.041-0.061-0.061-0.092c-0.16-0.235-0.324-0.467-0.492-0.697
	c-0.03-0.041-0.06-0.083-0.09-0.124c-0.167-0.227-0.337-0.451-0.511-0.672c-0.03-0.038-0.061-0.075-0.089-0.112
	c-0.182-0.227-0.365-0.453-0.554-0.674c-0.004-0.005-0.007-0.01-0.011-0.014C35.165,25.815,38.313,23.708,42.032,22.046
	 M19.648,34.644c1.834,0.316,3.637,0.764,5.386,1.341c-0.886,2.292-1.489,4.765-1.802,7.393c-0.593-0.924-1.124-1.865-1.585-2.814
	l-0.001-0.001C20.724,38.661,20.054,36.677,19.648,34.644 M28.068,34.69c0.117-0.235,0.239-0.467,0.364-0.698
	c0.04-0.073,0.08-0.145,0.12-0.217c0.089-0.159,0.178-0.318,0.27-0.475c0.047-0.082,0.096-0.163,0.145-0.244
	c0.09-0.15,0.181-0.299,0.275-0.447c0.048-0.078,0.097-0.156,0.147-0.233c0.108-0.168,0.22-0.335,0.333-0.501
	c0.035-0.052,0.069-0.104,0.104-0.156c0.149-0.215,0.302-0.427,0.458-0.638c0.039-0.054,0.081-0.106,0.122-0.16
	c0.118-0.157,0.237-0.313,0.36-0.467c0.057-0.073,0.116-0.145,0.175-0.218c0.06-0.073,0.12-0.145,0.181-0.217
	c0.016,0.018,0.03,0.036,0.046,0.055c0.159,0.193,0.316,0.388,0.47,0.585c0.02,0.026,0.039,0.052,0.059,0.078
	c0.148,0.192,0.292,0.386,0.435,0.582c0.016,0.023,0.032,0.045,0.05,0.068c0.146,0.204,0.288,0.41,0.428,0.618
	c0.027,0.04,0.054,0.081,0.081,0.121c0.137,0.207,0.27,0.415,0.401,0.626c0.021,0.033,0.041,0.067,0.061,0.1
	c0.129,0.21,0.255,0.422,0.377,0.635c0.008,0.014,0.017,0.028,0.025,0.043c0.125,0.22,0.246,0.443,0.363,0.667
	c0.022,0.041,0.044,0.083,0.066,0.125c0.072,0.138,0.141,0.279,0.211,0.42c-1.329,0.542-2.314,1.036-2.908,1.355l-0.093,0.032
	l-0.134-0.055c-0.027-0.015-0.054-0.029-0.082-0.044c-0.007-0.003-0.014-0.007-0.021-0.011c-0.058-0.031-0.12-0.063-0.184-0.096
	c-0.01-0.006-0.021-0.011-0.031-0.016c-0.066-0.035-0.138-0.071-0.211-0.108c-0.016-0.008-0.032-0.016-0.048-0.024
	c-0.075-0.037-0.152-0.076-0.233-0.115c-0.016-0.008-0.032-0.016-0.048-0.024c-0.086-0.042-0.174-0.084-0.266-0.128
	c-0.005-0.002-0.01-0.004-0.014-0.007c-0.091-0.043-0.185-0.087-0.283-0.132c-0.015-0.007-0.031-0.014-0.046-0.022
	c-0.098-0.044-0.198-0.09-0.301-0.136c-0.021-0.01-0.042-0.019-0.064-0.029c-0.105-0.046-0.212-0.094-0.323-0.142
	c-0.017-0.007-0.035-0.015-0.052-0.022c-0.114-0.049-0.231-0.099-0.351-0.149c-0.005-0.003-0.011-0.005-0.016-0.007
	c-0.122-0.051-0.249-0.103-0.377-0.155C28.094,34.701,28.083,34.696,28.068,34.69 M36.355,41.09
	c-0.023-0.03-0.048-0.062-0.071-0.094c-0.058-0.079-0.117-0.158-0.176-0.237c-0.044-0.058-0.089-0.115-0.134-0.174
	c-0.039-0.051-0.078-0.102-0.119-0.152c-0.068-0.088-0.14-0.174-0.21-0.26c-0.054-0.065-0.107-0.131-0.162-0.195
	c-0.028-0.033-0.054-0.066-0.081-0.099c-0.092-0.106-0.187-0.213-0.281-0.318c-0.045-0.051-0.089-0.103-0.135-0.153
	c-0.021-0.023-0.042-0.046-0.063-0.069c-0.049-0.053-0.099-0.104-0.147-0.156c-0.102-0.109-0.204-0.219-0.309-0.327
	c-0.021-0.022-0.044-0.044-0.065-0.066c-0.062-0.063-0.126-0.125-0.188-0.188c-0.099-0.097-0.197-0.195-0.299-0.292
	c-0.033-0.033-0.067-0.066-0.103-0.099c-0.052-0.05-0.106-0.099-0.159-0.148c-0.106-0.099-0.215-0.198-0.325-0.296
	c-0.041-0.037-0.081-0.075-0.123-0.112c0.506-0.246,1.145-0.537,1.9-0.844C35.63,38.167,36.048,39.596,36.355,41.09 M26.009,45.694
	c0.226,0.753,0.474,1.481,0.745,2.185c-0.371-0.397-0.726-0.799-1.069-1.202C25.779,46.348,25.887,46.02,26.009,45.694
	 M27.972,44.358c1.064-0.536,2.12-0.992,3.154-1.362c1.034,0.37,2.092,0.826,3.155,1.362c-0.752,2.743-1.81,5.125-3.155,7.111
	C29.782,49.484,28.725,47.103,27.972,44.358 M36.271,45.608c0.026,0.068,0.052,0.139,0.078,0.209c0.028,0.08,0.06,0.16,0.087,0.241
	c0.041,0.119,0.078,0.239,0.115,0.36c0.022,0.074,0.048,0.148,0.068,0.224c0.004,0.013,0.007,0.025,0.012,0.039
	c-0.376,0.44-0.77,0.879-1.178,1.313C35.752,47.23,36.025,46.435,36.271,45.608 M31.156,38.87c0.052,0.044,0.103,0.088,0.154,0.131
	c0.13,0.11,0.26,0.22,0.385,0.331c0.074,0.064,0.145,0.131,0.216,0.196c0.111,0.101,0.224,0.201,0.33,0.303
	c0.075,0.07,0.147,0.143,0.22,0.213c0.101,0.099,0.2,0.195,0.298,0.293c0.066,0.068,0.131,0.137,0.195,0.205
	c0.01,0.008,0.018,0.018,0.025,0.025c0.09,0.095,0.18,0.188,0.267,0.284c0.061,0.064,0.117,0.13,0.174,0.194
	c0.015,0.016,0.027,0.029,0.04,0.044c0.083,0.095,0.166,0.188,0.246,0.282c0.054,0.063,0.104,0.126,0.156,0.188
	c0.015,0.019,0.031,0.038,0.046,0.057c0.029,0.035,0.059,0.071,0.086,0.106c-0.843-0.379-1.68-0.712-2.505-0.991
	c-0.01-0.004-0.02-0.006-0.03-0.009c-0.02-0.007-0.04-0.013-0.061-0.018c-0.016-0.004-0.032-0.008-0.049-0.011
	c-0.02-0.004-0.039-0.008-0.06-0.011c-0.017-0.002-0.034-0.004-0.052-0.007c-0.019-0.002-0.038-0.003-0.057-0.004
	s-0.037-0.002-0.056-0.002c-0.018,0-0.035,0.001-0.055,0.002c-0.019,0.001-0.038,0.002-0.057,0.004
	c-0.018,0.003-0.034,0.005-0.053,0.007c-0.02,0.003-0.038,0.007-0.059,0.011c-0.016,0.003-0.033,0.007-0.049,0.011
	c-0.021,0.005-0.041,0.011-0.062,0.018c-0.01,0.003-0.02,0.005-0.029,0.009c-0.797,0.27-1.605,0.59-2.42,0.953l0.064-0.078
	C29.18,40.664,30.104,39.746,31.156,38.87 M25.281,49.604c0.93,0.984,1.937,1.949,3.019,2.891c-0.971-0.104-1.919-0.25-2.836-0.436
	C25.38,51.233,25.318,50.412,25.281,49.604 M36.954,49.69c-0.037,0.774-0.097,1.565-0.179,2.369
	c-0.89,0.181-1.808,0.322-2.749,0.426C35.072,51.575,36.051,50.643,36.954,49.69 M27.154,36.756c0.08,0.032,0.16,0.065,0.238,0.096
	c0.028,0.012,0.057,0.024,0.085,0.035c0.256,0.106,0.497,0.209,0.723,0.309c0.03,0.014,0.058,0.026,0.088,0.039
	c0.081,0.037,0.16,0.072,0.238,0.107c0.034,0.016,0.068,0.032,0.102,0.047c0.069,0.032,0.137,0.064,0.203,0.095
	c0.033,0.015,0.065,0.03,0.097,0.046c0.066,0.031,0.129,0.061,0.19,0.091c0.007,0.003,0.013,0.006,0.019,0.009
	c-0.781,0.689-1.493,1.402-2.126,2.132H27l-0.339,0.413c-0.284,0.347-0.551,0.698-0.803,1.056
	C26.172,39.666,26.604,38.171,27.154,36.756 M39.003,43.338c-0.022-0.186-0.046-0.37-0.07-0.554c-0.01-0.07-0.021-0.139-0.03-0.209
	c-0.024-0.167-0.049-0.334-0.076-0.5c-0.01-0.068-0.021-0.136-0.032-0.203c-0.036-0.224-0.075-0.448-0.116-0.67
	c-0.002-0.01-0.004-0.021-0.006-0.031c-0.04-0.213-0.083-0.424-0.128-0.634c-0.014-0.067-0.028-0.134-0.043-0.202
	c-0.034-0.16-0.07-0.319-0.107-0.479c-0.016-0.066-0.03-0.132-0.046-0.198c-0.053-0.216-0.105-0.431-0.161-0.644
	c-0.002-0.008-0.005-0.015-0.007-0.023c-0.055-0.207-0.111-0.412-0.17-0.616c-0.02-0.065-0.038-0.129-0.058-0.193
	c-0.045-0.155-0.092-0.309-0.14-0.461c-0.021-0.063-0.039-0.127-0.06-0.189c-0.066-0.208-0.135-0.414-0.205-0.619
	c-0.001-0.005-0.004-0.009-0.005-0.014c-0.069-0.201-0.142-0.4-0.216-0.598c-0.022-0.061-0.046-0.121-0.068-0.182
	c-0.013-0.03-0.023-0.061-0.035-0.091c0.621-0.208,1.287-0.412,1.997-0.605c1.013-0.277,2.167-0.543,3.44-0.764
	c-0.126,0.633-0.275,1.262-0.452,1.88C41.396,39.146,40.079,41.592,39.003,43.338 M13.788,45.635
	c0.038-0.029,0.077-0.059,0.115-0.089c0.105-0.081,0.21-0.161,0.316-0.239c0.051-0.038,0.102-0.075,0.154-0.113
	c0.094-0.069,0.187-0.136,0.282-0.203c0.055-0.039,0.111-0.078,0.167-0.116c0.091-0.063,0.182-0.126,0.274-0.187
	c0.057-0.038,0.113-0.075,0.17-0.112c0.094-0.061,0.187-0.121,0.281-0.18c0.055-0.034,0.109-0.068,0.164-0.103
	c0.102-0.063,0.204-0.123,0.306-0.184c0.047-0.027,0.094-0.056,0.14-0.082c0.143-0.083,0.286-0.163,0.429-0.24
	c0.007-0.004,0.013-0.008,0.02-0.012c0.151-0.081,0.303-0.16,0.456-0.237c0.043-0.021,0.086-0.042,0.129-0.063
	c0.108-0.054,0.217-0.106,0.326-0.158c0.056-0.026,0.112-0.051,0.167-0.076c0.098-0.045,0.195-0.088,0.293-0.131
	c0.06-0.026,0.12-0.051,0.18-0.076c0.095-0.04,0.19-0.079,0.286-0.117c0.061-0.024,0.122-0.049,0.183-0.072
	c0.097-0.037,0.194-0.073,0.291-0.108c0.059-0.021,0.118-0.043,0.177-0.064c0.105-0.037,0.211-0.071,0.318-0.106
	c0.05-0.018,0.1-0.034,0.151-0.05c0.157-0.051,0.313-0.098,0.471-0.143c0.108,0.206,0.22,0.412,0.334,0.617
	c0.026,0.046,0.053,0.092,0.079,0.138c0.1,0.176,0.201,0.353,0.305,0.528c0.044,0.074,0.089,0.147,0.133,0.222
	c0.091,0.15,0.183,0.3,0.277,0.449c0.048,0.076,0.095,0.152,0.144,0.228c0.103,0.16,0.207,0.32,0.314,0.48
	c0.039,0.058,0.077,0.117,0.116,0.176c0.146,0.215,0.294,0.43,0.446,0.644c0.031,0.043,0.063,0.087,0.095,0.13
	c0.122,0.171,0.247,0.341,0.374,0.511c0.053,0.07,0.106,0.14,0.16,0.21c0.059,0.079,0.118,0.157,0.178,0.235
	c0,0.023,0,0.048,0,0.071c-0.006,0.291-0.008,0.582-0.007,0.875c0,0.055,0.001,0.108,0.001,0.163
	c0.002,0.28,0.006,0.561,0.014,0.839c0,0.022,0,0.045,0.001,0.066c-0.007,0.085-0.011,0.17-0.016,0.255
	c-0.004,0.077-0.01,0.154-0.014,0.231c-0.001,0.027-0.002,0.055-0.003,0.083c-0.002,0.063-0.003,0.126-0.005,0.188
	c0,0.007,0,0.014,0,0.02c-0.002,0.078-0.006,0.154-0.007,0.232c0,0.045,0.001,0.092,0.001,0.137c-0.001,0.07,0,0.141,0.001,0.211
	c0.001,0.06,0,0.12,0.001,0.181c0.002,0.065,0.005,0.131,0.007,0.196c0.003,0.07,0.005,0.142,0.009,0.213
	c0.002,0.041,0.002,0.081,0.005,0.122c0.005,0.091,0.012,0.182,0.019,0.272c0.003,0.049,0.005,0.099,0.009,0.147
	c-0.681-0.204-1.348-0.436-1.995-0.688c-0.001-0.001-0.003-0.001-0.004-0.002c-0.001,0-0.002,0-0.002-0.001
	c-2.831-1.11-5.394-2.716-7.635-4.779C13.507,45.858,13.646,45.745,13.788,45.635 M21.165,53.218
	c0.717,0.25,1.453,0.472,2.199,0.667l0.006,0.029l0.019,0.004c0.014,0.063,0.029,0.125,0.044,0.188l0.045,0.347l0.04,0.006
	c0.236,0.915,0.547,1.84,0.927,2.769c-1.666,0.776-3.408,1.257-5.124,1.528C19.616,57.051,20.234,55.196,21.165,53.218
	 M38.938,53.869c0.68-0.18,1.35-0.382,2.002-0.606c0.913,1.953,1.521,3.783,1.818,5.465c-1.643-0.274-3.306-0.739-4.898-1.477
	C38.326,56.115,38.688,54.983,38.938,53.869 M41.108,50.802c-0.001,0-0.002,0-0.003,0.001c-0.001,0-0.001,0-0.002,0
	c-0.58,0.226-1.18,0.43-1.793,0.616c0.082-1.045,0.064-2.074-0.054-3.077c0.006-0.429,0.003-0.863-0.005-1.3l0.006-0.007v-0.01
	c1.168-1.498,2.18-3.053,3.014-4.636c2.313,0.666,4.528,1.864,6.605,3.578C46.602,48.064,43.993,49.688,41.108,50.802
	 M43.253,40.326c0.426-0.995,0.788-2.009,1.086-3.028c0.306-0.971,0.551-1.97,0.704-2.975c3.265-0.357,7.114-0.35,11.313,0.474
	c-1.541,3.751-3.514,6.958-5.884,9.563C48.214,42.466,45.794,41.113,43.253,40.326 M57.167,32.66
	c-4.379-0.905-8.41-0.965-11.862-0.632c0.28-3.493-0.112-7.131-1.171-10.85c6.685-2.546,13.239-3.087,15.82-3.201
	C59.847,20.412,59.358,26.384,57.167,32.66 M31.158,3.22c2.018,2.204,7.389,8.569,10.198,16.656
	c-4.04,1.773-7.466,4.05-10.215,6.782l-0.021-0.022L31.1,26.658c-2.734-2.717-6.139-4.984-10.15-6.753
	C23.752,11.816,29.138,5.429,31.158,3.22 M18.174,21.203c-1.053,3.707-1.443,7.333-1.165,10.811
	c-3.989-0.379-7.989-0.156-11.922,0.673c-0.699-1.99-1.211-3.895-1.583-5.578c-0.888-4.021-1.145-7.435-1.218-9.132
	C4.875,18.091,11.465,18.636,18.174,21.203 M11.251,58.78c-2.727-0.362-4.992-0.996-6.259-1.401
	c0.891-1.969,3.103-6.296,6.702-9.884c2.184,2.042,4.655,3.681,7.368,4.889c-1.096,2.357-1.787,4.577-2.064,6.623
	C14.896,59.135,12.91,59,11.251,58.78 M31.156,63.728c-0.923-1.058-2.487-3.027-3.781-5.532c1.379-0.862,2.636-1.9,3.75-3.104
	c1.129,1.218,2.401,2.266,3.799,3.134C33.637,60.708,32.077,62.671,31.156,63.728 M45.083,58.996
	c-0.274-2.023-0.957-4.221-2.035-6.555c2.767-1.214,5.283-2.874,7.506-4.951c3.603,3.589,5.815,7.92,6.708,9.889
	c-1.265,0.405-3.521,1.036-6.238,1.398C49.314,59.005,47.259,59.144,45.083,58.996"/>
</svg>
