<?xml version="1.0" encoding="utf-8"?>
<!-- Generator: Adobe Illustrator 16.0.0, SVG Export Plug-In . SVG Version: 6.00 Build 0)  -->
<!DOCTYPE svg PUBLIC "-//W3C//DTD SVG 1.1//EN" "http://www.w3.org/Graphics/SVG/1.1/DTD/svg11.dtd">
<svg version="1.1" id="Layer_1" xmlns="http://www.w3.org/2000/svg" xmlns:xlink="http://www.w3.org/1999/xlink" x="0px" y="0px"
	 width="360px" height="360px" viewBox="0 0 360 360" enable-background="new 0 0 360 360" xml:space="preserve">
<g>
	<defs>
		<rect id="SVGID_1_" width="360" height="360"/>
	</defs>
	<clipPath id="SVGID_2_">
		<use xlink:href="#SVGID_1_"  overflow="visible"/>
	</clipPath>
	<path clip-path="url(#SVGID_2_)" fill="#9797FF" d="M193.373,324.895c-1.01,0-2.012-0.013-3.006-0.038
		c-14.545-0.375-24.018-15.44-18.081-28.725l1.721-3.852c3.371-7.542,10.953-12.075,19.214-12.052
		c0.051,0.001,0.101,0.001,0.151,0.001c10.772,0,19.111-3.748,25.023-11.247c5.912-7.493,8.87-16.632,8.87-27.4
		c0-10.56-2.958-19.588-8.87-27.087c-5.912-7.492-14.251-11.244-25.023-11.244c-6.55,0-12.987,1.162-19.323,3.484
		c-1.481,0.544-2.894,1.156-4.236,1.838c-6.787,3.445-10.973,10.506-10.973,18.117v73.706c0,11.257-9.124,20.381-20.38,20.381
		h-8.972c-11.256,0-20.38-9.124-20.38-20.381V107.854c0-5.405-2.147-10.588-5.969-14.41l-1.05-1.051
		c-3.822-3.821-5.969-9.005-5.969-14.41V55.485c0-11.255,9.124-20.38,20.379-20.38h21.961c11.256,0,20.38,9.125,20.38,20.38v83.494
		c0,12.227,10.66,21.509,22.817,20.211c3.788-0.405,7.693-0.607,11.715-0.607c28.931,0,51.424,10.138,67.473,30.412
		c12.04,14.998,18.06,32.523,18.06,52.587c0,24.288-7.973,44.245-23.92,59.872C239.039,317.084,218.504,324.895,193.373,324.895"/>
	<path clip-path="url(#SVGID_2_)" fill="#9797FF" d="M172.162,140.04l-67.734,14.282c-12.024,2.535-23.333-6.638-23.333-18.926
		c0-9.145,6.404-17.04,15.352-18.927l67.733-14.282c12.024-2.535,23.334,6.638,23.334,18.927
		C187.514,130.258,181.109,138.153,172.162,140.04"/>
	<path clip-path="url(#SVGID_2_)" fill="#9797FF" d="M211.344,242.32c0,10.628-8.614,19.243-19.242,19.243
		s-19.243-8.615-19.243-19.243s8.615-19.243,19.243-19.243S211.344,231.692,211.344,242.32"/>
</g>
<text transform="matrix(1 0 0 1 269.6221 186.6865)" fill="#9797FF" font-family="'ArialMT'" font-size="18.5382">TM</text>
</svg>
