<?xml version="1.0" encoding="utf-8"?>
<!-- Generator: Adobe Illustrator 26.2.1, SVG Export Plug-In . SVG Version: 6.00 Build 0)  -->
<svg version="1.1" id="Layer_1" xmlns="http://www.w3.org/2000/svg" xmlns:xlink="http://www.w3.org/1999/xlink" x="0px" y="0px"
	 viewBox="0 0 540 540" style="enable-background:new 0 0 540 540;" xml:space="preserve">
<style type="text/css">
	.st0{fill:url(#SVGID_1_);}
	.st1{fill:#FFFFFF;}
</style>
<g>
	<linearGradient id="SVGID_1_" gradientUnits="userSpaceOnUse" x1="20.3486" y1="269.5828" x2="519.8232" y2="269.5828">
		<stop  offset="1.278158e-03" style="stop-color:#008EF0"/>
		<stop  offset="1" style="stop-color:#7FFDFF"/>
	</linearGradient>
	<path class="st0" d="M446.68,92.99c-47.17-47.17-109.88-73.15-176.59-73.15S140.66,45.82,93.49,92.99S20.35,202.88,20.35,269.58
		S46.33,399,93.49,446.17s109.88,73.15,176.59,73.15s129.42-25.98,176.59-73.15s73.15-109.88,73.15-176.59
		S493.85,140.16,446.68,92.99z"/>
	<path class="st1" d="M270.09,539.58c-72.12,0-139.92-28.08-190.92-79.08c-51-51-79.08-118.8-79.08-190.92
		c0-72.12,28.08-139.92,79.08-190.92c51-51,118.8-79.08,190.92-79.08c72.12,0,139.92,28.08,190.92,79.08
		c51,51,79.08,118.8,79.08,190.92c0,72.12-28.08,139.92-79.08,190.92C410.01,511.5,342.21,539.58,270.09,539.58z M270.09,19.85
		c-66.71,0-129.42,25.98-176.59,73.15S20.35,202.88,20.35,269.58S46.33,399,93.49,446.17s109.88,73.15,176.59,73.15
		s129.42-25.98,176.59-73.15s73.15-109.88,73.15-176.59s-25.98-129.42-73.15-176.59S336.79,19.85,270.09,19.85z"/>
	<path class="st1" d="M323.11,367.23c-7.39,0-14.77-1.51-21.67-4.54c-14.01-6.15-24.78-18.02-29.54-32.56l-1.82-5.56l-1.82,5.56
		c-4.76,14.54-15.53,26.41-29.54,32.57c-14.01,6.15-30.03,6.05-43.96-0.28l-19.61-8.91c-10.26-4.66-16.85-14.89-16.85-26.16v-72.1
		c0-5.38,3.87-9.98,9.17-10.89h0c30.94-5.34,66.42-8.17,102.61-8.17c11.83,0,23.58,0.3,35.12,0.89
		c12.24,0.63,21.5,11.34,20.44,23.56v0c-17.94-1.55-36.63-2.34-55.56-2.34c-31.41,0-62.19,2.19-89.68,6.36v62.7
		c0,2.6,1.52,4.96,3.89,6.04l18.75,8.53c8.41,3.82,18.13,4.3,26.61,0.63c8.47-3.67,14.72-10.52,17.59-19.28l3.71-11.34
		c2.7-8.26,10.24-14.26,18.93-14.33c8.84-0.08,16.35,5.32,19.09,13.7l3.63,11.08c2.88,8.78,9.09,16.25,17.52,20.02
		c8.43,3.77,17.72,3.74,26.11-0.08l19.61-8.91c2.37-1.08,3.89-3.44,3.89-6.04V171.94h22.11v155.39c0,11.27-6.59,21.5-16.85,26.16
		l-19.61,8.91C338.34,365.62,330.73,367.23,323.11,367.23z"/>
	<g>
		<path class="st1" d="M284.58,223.83c7.15,0.15,14.26,0.38,21.27,0.74c9.31,0.48,17.82,4.62,23.96,11.66
			c0.77,0.88,1.49,1.8,2.16,2.74l15.3-15.3v-62.53L284.58,223.83z"/>
		<path class="st1" d="M394.37,159.44v17.13l28.92-28.92c8.63-8.63,8.63-22.63,0-31.26l0,0v0c-8.63-8.63-22.63-8.63-31.26,0
			l-43.06,43.06H394.37z"/>
		<path class="st1" d="M255.59,223.82L148.14,116.38c-8.63-8.63-22.63-8.63-31.26,0l0,0l0,0c-8.63,8.63-8.63,22.63,0,31.26
			l79.95,79.95C215.62,225.51,235.42,224.23,255.59,223.82z"/>
		<path class="st1" d="M370.19,364.87l-19.61,8.91c-1.78,0.81-3.58,1.51-5.4,2.16l46.85,46.85c8.63,8.63,22.63,8.63,31.26,0l0,0l0,0
			c8.63-8.63,8.63-22.63,0-31.26l-38.2-38.2C381.15,358.18,376.1,362.19,370.19,364.87z"/>
		<path class="st1" d="M189.59,373.78l-19.61-8.91c-5.91-2.68-10.95-6.69-14.9-11.55l-38.2,38.2c-8.63,8.63-8.63,22.63,0,31.26l0,0
			h0c8.63,8.63,22.63,8.63,31.26,0L195,375.94C193.17,375.29,191.37,374.59,189.59,373.78z"/>
	</g>
</g>
</svg>
