<?xml version="1.0" encoding="UTF-8" standalone="no"?>
<!DOCTYPE svg PUBLIC "-//W3C//DTD SVG 1.1//EN" "http://www.w3.org/Graphics/SVG/1.1/DTD/svg11.dtd">

<!-- Created with Vectornator (http://vectornator.io/) -->
<svg height="100%" stroke-miterlimit="10" style="fill-rule:nonzero;clip-rule:evenodd;stroke-linecap:round;stroke-linejoin:round;" version="1.1" viewBox="0 0 500 500" width="100%" xml:space="preserve" xmlns="http://www.w3.org/2000/svg" xmlns:vectornator="http://vectornator.io" xmlns:xlink="http://www.w3.org/1999/xlink">
<metadata>
<vectornator:setting key="IsTimeLapseWatermarkDisabled" value="false"/>
<vectornator:setting key="UndoHistoryDisabled" value="true"/>
<vectornator:setting key="VNDimensionsVisible" value="true"/>
<vectornator:setting key="VNSnapToGuides" value="true"/>
<vectornator:setting key="WDCMYKEnabledKey" value="false"/>
<vectornator:setting key="WDDisplayWhiteBackground" value="false"/>
<vectornator:setting key="WDDynamicGuides" value="false"/>
<vectornator:setting key="WDGuidesVisible" value="true"/>
<vectornator:setting key="WDIsolateActiveLayer" value="false"/>
<vectornator:setting key="WDOutlineMode" value="false"/>
<vectornator:setting key="WDRulersVisible" value="true"/>
<vectornator:setting key="WDSnapToEdges" value="false"/>
<vectornator:setting key="WDSnapToGrid" value="false"/>
<vectornator:setting key="WDSnapToPoints" value="false"/>
<vectornator:setting key="WDUnits" value="Pixels"/>
</metadata>
<defs>
<linearGradient gradientTransform="matrix(7.21652 0 0 7.21652 13.8645 18.0995)" gradientUnits="userSpaceOnUse" id="LinearGradient" x1="32" x2="32" y1="3" y2="61">
<stop offset="0" stop-color="#a4a4a4"/>
<stop offset="0.619" stop-color="#808080"/>
<stop offset="1" stop-color="#6f6f6f"/>
<stop offset="1" stop-color="#6f6f6f"/>
</linearGradient>
<linearGradient gradientTransform="matrix(7.21652 0 0 7.21652 13.8645 18.0995)" gradientUnits="userSpaceOnUse" id="LinearGradient_2" x1="32" x2="32" y1="10" y2="76.129">
<stop offset="0" stop-color="#dff9ff"/>
<stop offset="0" stop-color="#dff9ff"/>
<stop offset="0.173" stop-color="#d8f8ff"/>
<stop offset="0.423" stop-color="#c5f4ff"/>
<stop offset="0.72" stop-color="#a5eeff"/>
<stop offset="1" stop-color="#81e7ff"/>
</linearGradient>
<linearGradient gradientTransform="matrix(7.21652 0 0 7.21652 13.8645 18.0995)" gradientUnits="userSpaceOnUse" id="LinearGradient_3" x1="40" x2="40" y1="50.958" y2="35.958">
<stop offset="0" stop-color="#89e4fa"/>
<stop offset="0.406" stop-color="#94e8fc"/>
<stop offset="1" stop-color="#acf0ff"/>
</linearGradient>
<linearGradient gradientTransform="matrix(7.21652 0 0 7.21652 13.8645 18.0995)" gradientUnits="userSpaceOnUse" id="LinearGradient_4" x1="37.5" x2="37.5" y1="24" y2="19">
<stop offset="0" stop-color="#ecf9fd"/>
<stop offset="0.848" stop-color="#f2fdff"/>
<stop offset="1" stop-color="#f4feff"/>
</linearGradient>
<linearGradient gradientTransform="matrix(7.21652 0 0 7.21652 13.8645 18.0995)" gradientUnits="userSpaceOnUse" id="LinearGradient_5" x1="27" x2="27" y1="43" y2="10">
<stop offset="0" stop-color="#ecf9fd"/>
<stop offset="0.848" stop-color="#f2fdff"/>
<stop offset="1" stop-color="#f4feff"/>
</linearGradient>
</defs>
<g id="Layer-1" vectornator:layerName="Layer 1">
<path d="M1.18432 251.244C1.18432 114.531 112.052 3.66271 248.767 3.66271C385.48 3.66271 496.349 114.531 496.349 251.244C496.349 387.959 385.48 498.827 248.767 498.827C112.052 498.827 1.18432 387.959 1.18432 251.244Z" fill="#ffffff" fill-rule="evenodd" opacity="1" stroke="none"/>
<path d="M443.248 256.245L411.488 256.245C404.401 256.245 397.827 251.46 396.578 244.482C396.42 243.573 396.34 242.67 396.34 241.783C396.355 234.133 402.323 227.877 409.857 227.408C420.79 226.722 430.828 219.484 432.235 208.616C432.358 207.634 432.423 206.667 432.423 205.707C432.408 193.764 422.724 184.079 410.773 184.079L374.691 184.079L374.691 133.99C379.208 129.364 385.458 126.434 392.414 126.347C392.422 126.347 392.429 126.347 392.436 126.347C392.465 126.347 392.487 126.347 392.508 126.347C392.515 126.347 392.53 126.347 392.537 126.347C392.559 126.347 392.588 126.347 392.609 126.347C392.616 126.347 392.624 126.347 392.638 126.347C392.674 126.347 392.703 126.347 392.732 126.347L405.736 126.347C419.332 126.347 431.528 116.23 432.372 102.692C432.38 102.612 432.38 102.533 432.387 102.453C432.408 101.992 432.423 101.544 432.423 101.089C432.423 87.1399 421.115 75.8316 407.165 75.8316L353.041 75.8316L309.742 75.8316L338.608 104.698L114.896 104.698L98.2834 104.698C84.6008 104.698 72.3472 114.938 71.6327 128.599C71.6255 128.772 71.6183 128.938 71.6111 129.111C71.142 143.443 82.6235 155.213 96.8545 155.213L114.896 155.213L114.896 212.946L82.4214 212.946C72.4554 212.946 64.3801 221.021 64.3801 230.987C64.3801 240.953 72.4554 249.028 82.4214 249.028L82.4214 249.028C92.3875 249.028 100.463 257.103 100.463 267.07C100.463 277.036 92.3875 285.111 82.4214 285.111L43.9574 285.111C32.2305 285.111 21.7233 293.893 21.1099 305.599C21.0954 305.988 21.081 306.378 21.081 306.76C21.081 318.711 30.7728 328.41 42.7306 328.41L78.041 328.41C85.2287 328.41 91.8895 333.324 93.0514 340.418C93.1813 341.234 93.2462 342.035 93.2462 342.821C93.2534 350.803 86.7947 357.276 78.8132 357.276L72.8235 357.276C61.1038 357.276 50.5894 366.059 49.9832 377.764C49.9615 378.153 49.9471 378.543 49.9471 378.926C49.9471 390.876 59.6389 400.575 71.5967 400.575L114.896 400.575L114.896 393.359L374.691 393.359L409.546 393.359C420.876 393.359 431.795 384.186 432.387 372.871C433.043 360.386 423.114 350.06 410.773 350.06L410.679 350.06C410.636 350.06 410.6 350.06 410.557 350.06C404.95 350.06 399.451 348.227 395.561 344.517C394.334 343.348 393.266 341.991 392.4 340.447C383.105 323.719 394.962 306.76 410.773 306.76L441.819 306.76C455.501 306.76 467.762 296.513 468.469 282.852C469.227 268.289 457.645 256.245 443.248 256.245Z" fill="#f2c146" fill-rule="evenodd" opacity="1" stroke="none"/>
<path d="M49.9471 230.987C49.9471 221.021 41.8718 212.946 31.9058 212.946C21.9398 212.946 13.8645 221.021 13.8645 230.987C13.8645 240.953 21.9398 249.028 31.9058 249.028C41.8718 249.028 49.9471 240.953 49.9471 230.987Z" fill="#f2c146" fill-rule="evenodd" opacity="1" stroke="none"/>
<path d="M338.608 458.307L150.978 458.307C131.054 458.307 114.896 442.15 114.896 422.225L114.896 75.8316C114.896 55.9068 131.054 39.749 150.978 39.749L338.608 39.749C358.533 39.749 374.691 55.9068 374.691 75.8316L374.691 422.225C374.691 442.15 358.533 458.307 338.608 458.307Z" fill="url(#LinearGradient)" fill-rule="evenodd" opacity="1" stroke="none"/>
<path d="M331.391 386.142L158.195 386.142C146.237 386.142 136.545 376.45 136.545 364.493L136.545 111.914C136.545 99.9565 146.237 90.2647 158.195 90.2647L331.391 90.2647C343.349 90.2647 353.041 99.9565 353.041 111.914L353.041 364.493C353.041 376.45 343.349 386.142 331.391 386.142Z" fill="url(#LinearGradient_2)" fill-rule="evenodd" opacity="1" stroke="none"/>
<path d="M280.876 75.8316L208.711 75.8316C204.727 75.8316 201.494 72.5986 201.494 68.6151L201.494 68.6151C201.494 64.6316 204.727 61.3986 208.711 61.3986L280.876 61.3986C284.859 61.3986 288.092 64.6316 288.092 68.6151L288.092 68.6151C288.092 72.5986 284.859 75.8316 280.876 75.8316Z" fill="#bcbcbc" fill-rule="evenodd" opacity="1" stroke="none"/>
<path d="M244.793 400.575C232.836 400.575 223.144 410.268 223.144 422.225C223.144 434.181 232.836 443.874 244.793 443.874C256.75 443.874 266.443 434.181 266.443 422.225C266.443 410.268 256.75 400.575 244.793 400.575Z" fill="#9e9e9e" fill-rule="evenodd" opacity="1" stroke="none"/>
<path d="M280.876 295.936L280.876 295.936C280.876 305.902 288.951 313.977 298.917 313.977L298.917 313.977C308.883 313.977 316.958 322.052 316.958 332.018L316.958 332.018C316.958 341.984 308.883 350.06 298.917 350.06L270.051 350.06C260.085 350.06 252.01 358.135 252.01 368.101L252.01 368.101C252.01 378.067 260.085 386.142 270.051 386.142L331.391 386.142C343.349 386.142 353.041 376.45 353.041 364.493L353.041 350.06L353.041 313.977L353.041 277.894L298.917 277.894C288.951 277.894 280.876 285.97 280.876 295.936Z" fill="url(#LinearGradient_3)" fill-rule="evenodd" opacity="1" stroke="none"/>
<g opacity="1">
<path d="M266.443 173.255L266.443 173.255C266.443 183.221 274.518 191.296 284.484 191.296L284.484 191.296C294.45 191.296 302.525 183.221 302.525 173.255L302.525 173.255C302.525 163.289 294.45 155.213 284.484 155.213L284.484 155.213C274.518 155.213 266.443 163.289 266.443 173.255Z" fill="url(#LinearGradient_4)" fill-rule="evenodd" opacity="1" stroke="none"/>
<path d="M219.535 191.296L226.752 191.296C236.718 191.296 244.793 183.221 244.793 173.255L244.793 173.255C244.793 163.289 236.718 155.213 226.752 155.213L201.494 155.213C193.52 155.213 187.061 148.755 187.061 140.78L187.061 140.78C187.061 132.806 193.52 126.347 201.494 126.347L262.835 126.347C272.801 126.347 280.876 118.272 280.876 108.306L280.876 108.306C280.876 98.34 272.801 90.2647 262.835 90.2647L158.195 90.2647C146.237 90.2647 136.545 99.9565 136.545 111.914L136.545 328.41L205.102 328.41C215.068 328.41 223.144 320.335 223.144 310.369L223.144 310.369C223.144 300.403 215.068 292.327 205.102 292.327L201.494 292.327C193.52 292.327 187.061 285.869 187.061 277.894L187.061 277.894C187.061 269.92 193.52 263.461 201.494 263.461L241.185 263.461C251.151 263.461 259.226 255.386 259.226 245.42L259.226 245.42C259.226 235.454 251.151 227.379 241.185 227.379L219.535 227.379C209.569 227.379 201.494 219.303 201.494 209.337L201.494 209.337C201.494 199.371 209.569 191.296 219.535 191.296Z" fill="url(#LinearGradient_5)" fill-rule="evenodd" opacity="1" stroke="none"/>
</g>
</g>
</svg>
