<svg id="Capa_1" data-name="Capa 1" xmlns="http://www.w3.org/2000/svg" viewBox="0 0 2000 2000">
  <defs>
    <style>
      .cls-1 {
        fill: #87dcf4;
      }

      .cls-2 {
        fill: #8551a3;
      }

      .cls-3 {
        fill: #fff;
      }
    </style>
  </defs>
  <circle class="cls-1" cx="1000" cy="1000" r="1000"/>
  <path class="cls-2" d="M1751.30005,779.31l-134-123.75V323.26a53.41,53.41,0,0,0-53.4-53.42H1384.23A58.27,58.27,0,0,0,1326,328.11v58.28L1188.80005,259.7c-106.6-98.47-271-98.47-377.6,0L248.7,779.31a70.25,70.25,0,0,0,47.67,121.85h72.87c-1.93,20-3,40.23-3,60.7V1180.4c0,348.57,285.18,633.76,633.75,633.76h0c348.56006,0,633.75-285.19006,633.75-633.76V961.86c0-20.47-1.06006-40.71-3-60.7h72.88a70.25,70.25,0,0,0,47.66-121.85Z"/>
  <path class="cls-3" d="M628.27,1515.73c13.06-13.07,25.4-26.86,38.46-39.92,9.44-9.43994,22.5-65.32,24.68-78.38,2.18-13.79,2.9-28.30005,5.08-42.09,5.08-29.76,3.63-59.51,2.18-89.27-.73-18.87-2.18-38.46-2.18-57.33,0-52.25,0-104.5.72-156.76,0-12.33-4.35-19.59-13.78-26.12-17.42-12.34-37.74-22.5-50.08-40.64-1.45-2.18-2.9-3.63-4.35-5.81-4.36-7.26-2.18-13.06,5.8-16,7.26-2.9,14.52-3.63,22.5-4.35,34.11-2.9,68.94-4.36,103.78-5.81v2.18c28.3-.73,55.88-2.18,84.18-2.9h5.08c17.42-.73,33.39,6.53,46.45,18.87,36.29,32.65,98,124.1,116.84,165.46,11.61,25.4,34.84,76.93005,41.37,103.78.73,2.91,2.18,4.36,3.63,4.36s2.9-1.44995,4.35-3.63c12.34-21.77,30.48-42.09,37-67.49,5.81006-24,10.89-49.35,16-74,4.36-20.31994-2.9-39.91-11.61-58.06005-4.36-7.25-12.34-13.06006-18.87-19.59-13.06006-13.07-26.12-25.4-38.46-37.74-6.54-6.53-11.62-13.79-12.34-22.5-.73-12.34,4.35-18.87,16-21.77,5.8-.73,12.33-2.18,18.87-2.18,88.53-1.45,176.35-3.63,264.16-5.08a82.84179,82.84179,0,0,1,13.79.73c12.34,2.18,16,13.06,9.43006,23.22-6.53,9.44-13.06006,18.87-18.86,28.31-10.16,16-17.42,100.15-18.87,121.92-1.44995,19.59.72,40.64,1.45,61,.72,29,1.44995,58.78,1.44995,88.54,0,48.62-1.44995,97.25-2.9,145.87,0,9.43005,2.17,16,7.25,23.22,11.62,16.69995,23.23,33.39,34.84,49.35,8,10.89,10.16,22.5,8.71,35.57-2.18,18.86-16.68994,21-32.66,21-58.06006,2.18-116.84,3.63-174.9,5.08-8.71,0-17.42,0-26.13-.73-5.80005-.72-11.61-2.17-16.68995-5.8-9.43994-6.53-12.34-16-6.53-26.13,12.34-21,23.22-42.82,34.11-63.86,8.71-16.68995,14.51-33.39,14.51-52.25,1.44995-69.67-2.18005-139.34-13.79-206.84-.72-4.35-2.9-8-4.35-12.33-1.45,3.63-4.35,7.25-5.08,10.88-10.16,50.08-34.84,94.35-59.51,138.62-34.84,62.41-81.28,113.94-131.36,164-5.08,5.08-17.41,13.79-24.67,13.79-5.81,0-10.16-4.35-9.44-11.61,0-5.08,2.91-9.43994,4.36-13.79,7.26-21.77,19.59-42.09,29-63.14a53.40009,53.40009,0,0,0,2.9-31.93c-4.36-20.32-5.81-39.92-9.44-59.51-5.8-34.84-58.78-101.6-81.28-128.46-18.87-22.49-37.74-44.27-56.6-66.76-5.08-5.81006-27.58-30.48-34.11-30.48-2.18-.73-3.63,2.17-4.36,6.53v2.9c-.72,102.33-1.45,204.66-2.18,306.26,0,9.43006,3.63,15.24,9.44,22.5,16,20.32,32.66,39.91,48.62,61,8,10.16,8.71,23.22,8.71,35.56006q0,13.06-15.24,15.24c-11.61,1.44995-22.5,2.18006-34.11,3.63-35.56,4.35-71.12,9.43-106.68,13.79a135.21755,135.21755,0,0,1-16.69.72c-8.71-.72-16-3.63-20.32-10.88-2.18-3.63-5.81-6.54-8.71-9.43994C619.56,1531,621,1523,628.27,1515.73Z"/>
</svg>
