<?xml version="1.0" encoding="UTF-8" standalone="no"?>
<!DOCTYPE svg PUBLIC "-//W3C//DTD SVG 1.1//EN" "http://www.w3.org/Graphics/SVG/1.1/DTD/svg11.dtd">

<!-- Created with Vectornator (http://vectornator.io/) -->
<svg height="100%" stroke-miterlimit="10" style="fill-rule:nonzero;clip-rule:evenodd;stroke-linecap:round;stroke-linejoin:round;" version="1.1" viewBox="0 0 500 500" width="100%" xml:space="preserve" xmlns="http://www.w3.org/2000/svg" xmlns:vectornator="http://vectornator.io" xmlns:xlink="http://www.w3.org/1999/xlink">
<metadata>
<vectornator:setting key="IsTimeLapseWatermarkDisabled" value="false"/>
<vectornator:setting key="UndoHistoryDisabled" value="true"/>
<vectornator:setting key="VNDimensionsVisible" value="true"/>
<vectornator:setting key="VNSnapToGuides" value="true"/>
<vectornator:setting key="WDCMYKEnabledKey" value="false"/>
<vectornator:setting key="WDDisplayWhiteBackground" value="false"/>
<vectornator:setting key="WDDynamicGuides" value="false"/>
<vectornator:setting key="WDGuidesVisible" value="true"/>
<vectornator:setting key="WDIsolateActiveLayer" value="false"/>
<vectornator:setting key="WDOutlineMode" value="false"/>
<vectornator:setting key="WDRulersVisible" value="true"/>
<vectornator:setting key="WDSnapToEdges" value="false"/>
<vectornator:setting key="WDSnapToGrid" value="false"/>
<vectornator:setting key="WDSnapToPoints" value="false"/>
<vectornator:setting key="WDUnits" value="Points"/>
</metadata>
<defs/>
<g id="Layer-1" vectornator:layerName="Layer 1">
<g opacity="1">
<path d="M2.39496 250.537C2.39496 113.823 113.262 2.95488 249.977 2.95488C386.691 2.95488 497.56 113.823 497.56 250.537C497.56 387.252 386.691 498.119 249.977 498.119C113.262 498.119 2.39496 387.252 2.39496 250.537Z" fill="#e5aa17" fill-rule="evenodd" opacity="1" stroke="none"/>
<path d="M261.452 91.8687L261.452 110.331C273.628 111.628 284.006 114.122 292.787 117.814C301.47 121.606 309.053 127.294 315.539 134.879C320.629 140.667 324.62 146.655 327.415 152.742C330.209 158.928 331.606 164.517 331.606 169.606C331.606 175.294 329.51 180.184 325.419 184.376C321.227 188.566 316.238 190.562 310.35 190.562C299.175 190.562 291.988 184.575 288.696 172.501C284.903 158.33 275.923 148.85 261.553 144.16L261.553 215.111C275.622 219.002 286.899 222.495 295.282 225.689C303.664 228.883 311.149 233.473 317.735 239.461C324.82 245.747 330.209 253.232 334.001 261.913C337.792 270.595 339.689 280.174 339.689 290.453C339.689 303.426 336.696 315.601 330.608 326.877C324.521 338.154 315.539 347.435 303.764 354.62C291.889 361.804 277.918 366.096 261.653 367.393L261.653 409.904C261.653 416.59 260.954 421.48 259.657 424.572C258.36 427.666 255.465 429.163 251.075 429.163C246.983 429.163 244.09 427.866 242.492 425.371C240.796 422.877 239.997 418.985 239.997 413.795L239.997 367.792C226.726 366.295 215.05 363.201 205.17 358.411C195.191 353.621 186.909 347.734 180.222 340.549C173.537 333.464 168.646 326.08 165.454 318.395C162.26 310.71 160.664 303.227 160.664 295.843C160.664 290.354 162.759 285.464 167.05 281.073C171.342 276.682 176.63 274.488 183.017 274.488C188.106 274.488 192.498 275.685 195.99 278.08C199.483 280.475 201.978 283.868 203.275 288.158C206.369 297.439 209.063 304.623 211.258 309.513C213.554 314.504 216.947 318.995 221.536 323.085C226.126 327.178 232.215 330.27 239.898 332.466L239.898 253.131C224.63 248.941 211.956 244.25 201.679 239.06C191.4 233.872 183.117 226.488 176.73 217.008C170.344 207.428 167.15 195.153 167.15 180.184C167.15 160.626 173.336 144.559 185.811 132.084C198.286 119.611 216.247 112.327 239.798 110.231L239.798 92.1677C239.798 82.588 243.391 77.7981 250.575 77.7981C257.76 77.8978 261.452 82.4883 261.452 91.8687ZM239.698 208.825L239.698 143.461C230.119 146.254 222.733 150.048 217.345 154.738C211.956 159.428 209.362 166.414 209.362 175.894C209.362 184.874 211.856 191.66 216.845 196.251C221.936 200.941 229.519 205.133 239.698 208.825ZM261.452 259.518L261.452 334.263C272.929 331.967 281.811 327.377 288.097 320.491C294.383 313.605 297.477 305.522 297.477 296.241C297.477 286.363 294.484 278.678 288.396 273.29C282.209 267.801 273.227 263.21 261.452 259.518Z" fill="#ffffff" fill-rule="evenodd" opacity="1" stroke="none"/>
</g>
</g>
</svg>
