<svg width="24" height="24" viewBox="0 0 24 24" fill="none" xmlns="http://www.w3.org/2000/svg">
  <path d="M23 12C23 18.0978 18.0978 23 12 23C5.90225 23 1 18.0978 1 12C1 5.90225 5.90225 1 12 1C18.0978 1 23 5.90225 23 12Z" fill="white" stroke="url(#paint0_linear_2317_9530)" stroke-width="2" />
  <path fill-rule="evenodd" clip-rule="evenodd" d="M6.36746 5.07858L3.01379 12.123C3.00103 12.1492 2.99698 12.1788 3.00225 12.2075C3.00751 12.2361 3.02181 12.2623 3.04305 12.2823L12.1005 20.9616C12.1262 20.9862 12.1605 21 12.1962 21C12.2318 21 12.2661 20.9862 12.2918 20.9616L21.3493 12.2828C21.3705 12.2629 21.3848 12.2367 21.3901 12.208C21.3953 12.1793 21.3913 12.1497 21.3785 12.1235L18.0249 5.07912C18.014 5.05547 17.9966 5.03543 17.9747 5.0214C17.9528 5.00737 17.9273 4.99994 17.9013 5.00001H6.4921C6.46596 4.99969 6.44028 5.00693 6.41816 5.02087C6.39605 5.03481 6.37844 5.05486 6.36746 5.07858V5.07858V5.07858Z" fill="#50AF95" />
  <path fill-rule="evenodd" clip-rule="evenodd" d="M13.3599 12.8461C13.2948 12.851 12.9589 12.871 12.2095 12.871C11.6134 12.871 11.1902 12.8531 11.0417 12.8461C8.7382 12.7448 7.01882 12.3438 7.01882 11.8637C7.01882 11.3836 8.7382 10.9831 11.0417 10.8802V12.4467C11.1924 12.4576 11.6237 12.483 12.2198 12.483C12.935 12.483 13.2932 12.4532 13.3577 12.4473V10.8812C15.6563 10.9837 17.3719 11.3847 17.3719 11.8637C17.3719 12.3427 15.6569 12.7437 13.3577 12.8456L13.3599 12.8461ZM13.3599 10.7192V9.31739H16.5678V7.17969H7.8338V9.31739H11.0412V10.7187C8.4342 10.8384 6.47369 11.3548 6.47369 11.9737C6.47369 12.5925 8.4342 13.1084 11.0412 13.2287V17.7208H13.3593V13.227C15.9603 13.1073 17.9176 12.5914 17.9176 11.9731C17.9176 11.3548 15.962 10.839 13.3593 10.7187L13.3599 10.7192Z" fill="white" />
  <defs>
    <linearGradient id="paint0_linear_2317_9530" x1="10.62" y1="24" x2="15.3546" y2="0.201857" gradientUnits="userSpaceOnUse">
      <stop stop-color="#9E620D" />
      <stop offset="0.581544" stop-color="#FFE8BA" />
      <stop offset="1" stop-color="#D79F14" />
      <stop offset="1" stop-color="#FFE9B2" />
    </linearGradient>
  </defs>
</svg>