<svg width="716" height="716" xmlns="http://www.w3.org/2000/svg" xmlns:xlink="http://www.w3.org/1999/xlink" xml:space="preserve" overflow="hidden"><defs><clipPath id="clip0"><rect x="1650" y="972" width="716" height="716"/></clipPath><linearGradient x1="1676.98" y1="1329.45" x2="2339.25" y2="1329.45" gradientUnits="userSpaceOnUse" spreadMethod="pad" id="fill1"><stop offset="0" stop-color="#008EF0"/><stop offset="0.00127816" stop-color="#008EF0"/><stop offset="1" stop-color="#7FFDFF"/></linearGradient><clipPath id="clip2"><rect x="1842" y="1100" width="327" height="286"/></clipPath><clipPath id="clip3"><rect x="1842" y="1100" width="327" height="286"/></clipPath><clipPath id="clip4"><rect x="1842" y="1100" width="327" height="286"/></clipPath><clipPath id="clip5"><rect x="2039" y="1455" width="131" height="132"/></clipPath><clipPath id="clip6"><rect x="2039" y="1455" width="131" height="132"/></clipPath><clipPath id="clip7"><rect x="2039" y="1455" width="131" height="132"/></clipPath><clipPath id="clip8"><rect x="1840" y="1456" width="147" height="141"/></clipPath><clipPath id="clip9"><rect x="1840" y="1456" width="147" height="141"/></clipPath><clipPath id="clip10"><rect x="1840" y="1456" width="147" height="141"/></clipPath><linearGradient x1="74.4786" y1="70.6531" x2="141.997" y2="70.6531" gradientUnits="userSpaceOnUse" spreadMethod="pad" id="fill11"><stop offset="0" stop-color="#3B8270"/><stop offset="1" stop-color="#305C6E"/></linearGradient><linearGradient x1="3.9891" y1="70.6531" x2="72.3372" y2="70.6531" gradientUnits="userSpaceOnUse" spreadMethod="pad" id="fill12"><stop offset="0" stop-color="#4E7F98"/><stop offset="1" stop-color="#3BC0B5"/></linearGradient><linearGradient x1="3.9891" y1="110.087" x2="72.3372" y2="110.087" gradientUnits="userSpaceOnUse" spreadMethod="pad" id="fill13"><stop offset="0" stop-color="#30435C"/><stop offset="1" stop-color="#299AA9"/></linearGradient><linearGradient x1="74.9988" y1="109.588" x2="141.997" y2="109.588" gradientUnits="userSpaceOnUse" spreadMethod="pad" id="fill14"><stop offset="0" stop-color="#2E2C29"/><stop offset="1" stop-color="#323232"/></linearGradient></defs><g clip-path="url(#clip0)" transform="translate(-1650 -972)"><path d="M2242.26 1095.3C2179.72 1032.75 2096.57 998.306 2008.12 998.306 1919.67 998.306 1836.5 1032.75 1773.96 1095.3 1711.42 1157.84 1676.98 1241 1676.98 1329.44 1676.98 1417.88 1711.43 1501.04 1773.96 1563.59 1836.49 1626.13 1919.65 1660.58 2008.11 1660.58 2096.56 1660.58 2179.71 1626.13 2242.25 1563.59 2304.8 1501.04 2339.24 1417.9 2339.24 1329.44 2339.24 1240.99 2304.81 1157.84 2242.26 1095.3Z" fill="url(#fill1)"/><path d="M2008.12 1687.44C1912.49 1687.44 1822.6 1650.21 1754.97 1582.59 1687.35 1514.97 1650.12 1425.07 1650.12 1329.44 1650.12 1233.82 1687.35 1143.92 1754.97 1076.3 1822.6 1008.68 1912.49 971.443 2008.12 971.443 2103.75 971.443 2193.64 1008.68 2261.27 1076.3 2328.89 1143.92 2366.12 1233.82 2366.12 1329.44 2366.12 1425.07 2328.89 1514.97 2261.27 1582.59 2193.64 1650.21 2103.75 1687.44 2008.12 1687.44ZM2008.12 998.32C1919.67 998.32 1836.52 1032.77 1773.97 1095.31 1711.43 1157.86 1676.98 1241 1676.98 1329.44 1676.98 1417.88 1711.43 1501.04 1773.96 1563.59 1836.49 1626.13 1919.65 1660.58 2008.11 1660.58 2096.56 1660.58 2179.71 1626.13 2242.25 1563.59 2304.8 1501.04 2339.24 1417.9 2339.24 1329.44 2339.24 1240.99 2304.8 1157.84 2242.25 1095.3 2179.71 1032.75 2096.56 998.32 2008.12 998.32Z" fill="#FFFFFF"/><g clip-path="url(#clip2)"><g clip-path="url(#clip3)"><g clip-path="url(#clip4)"><path d="M239.857 284.217C229.102 284.217 218.362 282.019 208.32 277.609 187.93 268.659 172.256 251.384 165.329 230.223L162.68 222.131 160.031 230.223C153.104 251.384 137.429 268.659 117.04 277.624 96.6502 286.574 73.3354 286.429 53.0623 277.216L24.5228 264.249C9.59079 257.467 0 242.579 0 226.177L0 121.246C0 113.416 5.63223 106.721 13.3456 105.397 58.3744 97.6253 110.01 93.5067 162.68 93.5067 179.897 93.5067 196.997 93.9433 213.792 94.8019 231.605 95.7188 245.082 111.306 243.539 129.09 217.43 126.834 190.23 125.685 162.68 125.685 116.967 125.685 72.1711 128.872 32.1634 134.941L32.1634 226.192C32.1634 229.975 34.3755 233.41 37.8247 234.982L65.1127 247.396C77.3522 252.956 91.4983 253.654 103.84 248.313 116.167 242.972 125.263 233.003 129.439 220.254L134.839 203.75C138.768 191.729 149.742 182.997 162.389 182.895 175.254 182.778 186.184 190.637 190.171 202.833L195.454 218.958C199.646 231.736 208.684 242.608 220.952 248.095 233.221 253.581 246.741 253.538 258.952 247.978L287.491 235.011C290.94 233.439 293.152 230.005 293.152 226.221L293.152 0 325.33 0 325.33 226.148C325.33 242.55 315.74 257.438 300.808 264.22L272.268 277.187C262.022 281.873 250.947 284.217 239.857 284.217Z" fill="#FFFFFF" transform="matrix(1 0 0 1.00263 1842 1100)"/></g></g></g><g clip-path="url(#clip5)"><g clip-path="url(#clip6)"><g clip-path="url(#clip7)"><path d="M65 0C100.898-2.4308e-14 130 29.1015 130 65L130 65C130 100.898 100.898 130 65 130L65 130C29.1015 130 0 100.898 0 65L0 65C-1.2154e-14 29.1015 29.1015-1.2154e-14 65-2.4308e-14Z" transform="matrix(1 0 0 1.00769 2039 1455)"/><path d="M50.7643 36.4687C49.3326 34.5553 46.7822 33.7493 44.4507 34.4732 42.1196 35.1975 40.5395 37.2864 40.5395 39.6442L40.5395 50.5111 27.3684 50.5111 27.3684 61.3778 40.5395 61.3778 40.5395 68.6225 27.3684 68.6225 27.3684 79.4891 40.5395 79.4891 40.5395 95.7894 51.8289 95.7894 51.8289 56.4843 79.2356 93.109C80.6674 95.0224 83.2177 95.8284 85.5492 95.1042 87.8803 94.3803 89.4605 92.2914 89.4605 89.9333L89.4605 79.4891 102.632 79.4891 102.632 68.6225 89.4605 68.6225 89.4605 61.3778 102.632 61.3778 102.632 50.5111 89.4605 50.5111 89.4605 34.2108 78.171 34.2108 78.171 73.0935 50.7643 36.4687Z" fill="#FFFFFF" transform="matrix(1 0 0 1.00769 2039 1455)"/></g></g></g><g clip-path="url(#clip8)"><g clip-path="url(#clip9)"><g clip-path="url(#clip10)"><path d="M145.758 87.616 75.6656 139.443C74.7368 140.124 73.3746 140.186 72.4458 139.505L1.23839 89.164C-0.123839 88.1733-0.433436 86.1919 0.681114 84.8916L70.712 0.928792C71.7027-0.309597 73.5603-0.309597 74.613 0.928792L146.13 84.3962C146.935 85.3869 146.811 86.873 145.758 87.616Z" fill="#FFF4FC" transform="matrix(1.00126 0 0 1 1840.06 1456)"/><path d="M141.981 85.8823 75.356 135.108 74.9845 84.9535 74.4891 6.19195 140.433 84.0247Z" fill="url(#fill11)" transform="matrix(1.00126 0 0 1 1840.06 1456)"/><path d="M3.96285 86.9349 72.3219 135.108 70.7739 6.19195Z" fill="url(#fill12)" transform="matrix(1.00126 0 0 1 1840.06 1456)"/><path d="M71.7647 85.0773 4.4582 86.3776 3.96285 86.9349 72.3219 135.108Z" fill="url(#fill13)" transform="matrix(1.00126 0 0 1 1840.06 1456)"/><path d="M74.9845 84.9535 140.433 84.0247 141.981 85.8823 75.356 135.108Z" fill="url(#fill14)" transform="matrix(1.00126 0 0 1 1840.06 1456)"/><path d="M74.9845 84.3343 140.433 83.4055M71.7647 84.4581 4.4582 85.7585M71.4551 62.4767C56.9659 51.3932 50.8359 49.6594 48.5449 51.517 42.2291 56.7801 65.6346 91.0216 56.2848 99.6284 53.5603 102.105 47.9257 102.662 37.0898 103.715 33.7461 104.025 30.9597 104.149 29.1641 104.149M97.0897 84.0247 74.8606 64.582M60.1857 18.3901C60 21.4241 60.1238 27.4303 63.2198 34.0557 65.6965 39.3808 69.1021 42.8483 71.2693 44.7678M124.396 98.2662C124.953 97.4612 131.888 87.2445 127.616 77.647 124.458 70.5263 116.718 67.2445 115.542 66.7492 113.994 66.0681 113.932 66.2538 106.687 63.9009 102.291 62.4148 100.062 61.7337 98.1423 60.9907 95.1702 59.8761 89.4117 57.647 82.8482 53.4365 80.6811 52.0743 77.8947 50.0928 74.7368 47.4922" stroke="#98C9C0" stroke-width="1.23839" stroke-miterlimit="10" fill="none" transform="matrix(1.00126 0 0 1 1840.06 1456)"/></g></g></g></g></svg>