<svg width="715" height="716" xmlns="http://www.w3.org/2000/svg" xmlns:xlink="http://www.w3.org/1999/xlink" xml:space="preserve" overflow="hidden"><defs><clipPath id="clip0"><rect x="877" y="152" width="715" height="716"/></clipPath><linearGradient x1="26.9431" y1="356.948" x2="688.284" y2="356.948" gradientUnits="userSpaceOnUse" spreadMethod="pad" id="fill1"><stop offset="0" stop-color="#008EF0"/><stop offset="0.00127816" stop-color="#008EF0"/><stop offset="1" stop-color="#7FFDFF"/></linearGradient><clipPath id="clip2"><rect x="1069" y="280" width="326" height="286"/></clipPath><clipPath id="clip3"><rect x="1069" y="280" width="326" height="286"/></clipPath><clipPath id="clip4"><rect x="1069" y="280" width="326" height="286"/></clipPath><clipPath id="clip5"><rect x="1069" y="632" width="128" height="131"/></clipPath><clipPath id="clip6"><rect x="1069" y="632" width="128" height="131"/></clipPath><clipPath id="clip7"><rect x="1069" y="632" width="128" height="131"/></clipPath><clipPath id="clip8"><rect x="1266" y="632" width="129" height="131"/></clipPath><clipPath id="clip9"><rect x="1266" y="632" width="129" height="131"/></clipPath><clipPath id="clip10"><rect x="1266" y="632" width="129" height="131"/></clipPath></defs><g clip-path="url(#clip0)" transform="translate(-877 -152)"><path d="M591.437 123.125C528.981 60.6688 445.948 26.2694 357.619 26.2694 269.29 26.2694 186.244 60.6688 123.788 123.125 61.3311 185.582 26.9449 268.628 26.9449 356.944 26.9449 445.26 61.3444 528.306 123.788 590.762 186.231 653.219 269.277 687.618 357.606 687.618 445.935 687.618 528.968 653.219 591.424 590.762 653.881 528.306 688.28 445.273 688.28 356.944 688.28 268.615 653.894 185.582 591.437 123.125Z" fill="url(#fill1)" transform="matrix(1 0 0 1.0014 877 152)"/><path d="M357.619 714.444C262.127 714.444 172.355 677.264 104.827 609.736 37.2992 542.208 0.119121 452.436 0.119121 356.944 0.119121 261.452 37.2992 171.679 104.827 104.152 172.355 36.624 262.127-0.556008 357.619-0.556008 453.111-0.556008 542.884 36.624 610.411 104.152 677.939 171.679 715.119 261.452 715.119 356.944 715.119 452.436 677.939 542.208 610.411 609.736 542.884 677.264 453.111 714.444 357.619 714.444ZM357.619 26.283C269.29 26.283 186.257 60.6824 123.801 123.139 61.3444 185.595 26.9449 268.628 26.9449 356.944 26.9449 445.26 61.3444 528.306 123.788 590.762 186.231 653.219 269.277 687.618 357.606 687.618 445.935 687.618 528.968 653.219 591.424 590.762 653.881 528.306 688.28 445.273 688.28 356.944 688.28 268.615 653.881 185.582 591.424 123.126 528.968 60.6692 445.935 26.283 357.619 26.283Z" fill="#FFFFFF" transform="matrix(1 0 0 1.0014 877 152)"/><g clip-path="url(#clip2)"><g clip-path="url(#clip3)"><g clip-path="url(#clip4)"><path d="M239.647 283.968C228.901 283.968 218.17 281.772 208.137 277.366 187.766 268.423 172.105 251.163 165.184 230.021L162.537 221.936 159.891 230.021C152.969 251.163 137.309 268.423 116.937 277.381 96.5656 286.323 73.2712 286.178 53.0158 276.973L24.5013 264.018C9.58238 257.242 0 242.366 0 225.979L0 121.14C0 113.317 5.6273 106.628 13.3339 105.305 58.3232 97.5398 109.914 93.4247 162.537 93.4247 179.739 93.4247 196.824 93.861 213.605 94.7189 231.403 95.6349 244.867 111.208 243.326 128.977 217.24 126.723 190.063 125.574 162.537 125.574 116.865 125.574 72.1079 128.759 32.1352 134.822L32.1352 225.993C32.1352 229.774 34.3454 233.206 37.7916 234.776L65.0556 247.179C77.2844 252.734 91.4181 253.432 103.749 248.095 116.065 242.759 125.153 232.798 129.326 220.061L134.721 203.571C138.647 191.561 149.61 182.836 162.246 182.734 175.1 182.618 186.021 190.47 190.005 202.655L195.283 218.767C199.471 231.533 208.501 242.395 220.759 247.877 233.017 253.359 246.525 253.316 258.725 247.761L287.239 234.805C290.685 233.235 292.896 229.803 292.896 226.022L292.896 0 325.045 0 325.045 225.95C325.045 242.337 315.463 257.212 300.544 263.988L272.03 276.944C261.793 281.626 250.727 283.968 239.647 283.968Z" fill="#FFFFFF" transform="matrix(1.00088 0 0 1 1069 280)"/></g></g></g><g clip-path="url(#clip5)"><g clip-path="url(#clip6)"><g clip-path="url(#clip7)"><path d="M24.4418 21.972 103.473 21.972 103.473 93.8495 24.4418 93.8495Z" fill="#FFFFFF" transform="matrix(1 0 0 1.00715 1069 633)"/><path d="M127.957 64.0425C127.957 99.3655 99.323 128 63.9999 128 28.6773 128 0.0425815 99.3655 0.0425815 64.0425 0.0425815 28.7198 28.6773 0.0851629 63.9999 0.0851629 99.323 0.0851629 127.957 28.7198 127.957 64.0425ZM45.8762 89.4943 33.4639 89.4943C30.8557 89.4943 29.5674 89.4943 28.7818 88.9918 27.9334 88.4417 27.4149 87.5305 27.352 86.5247 27.3048 85.5981 27.9491 84.4665 29.2375 82.2039L59.885 28.1834C61.1891 25.8894 61.849 24.7425 62.6817 24.3183 63.5773 23.8627 64.6457 23.8627 65.5413 24.3183 66.374 24.7425 67.034 25.8894 68.338 28.1834L74.6385 39.1817 74.6706 39.2378C76.0791 41.6987 76.7934 42.9467 77.1052 44.2565 77.4508 45.6863 77.4508 47.1947 77.1052 48.6245 76.791 49.9442 76.084 51.2012 74.6542 53.6994L58.5557 82.1568 58.5141 82.2297C57.0963 84.711 56.3778 85.9686 55.382 86.9173 54.2978 87.9546 52.9937 88.7083 51.5639 89.1332 50.2598 89.4943 48.7987 89.4943 45.8762 89.4943ZM77.2215 89.4943 95.0069 89.4943C97.6308 89.4943 98.9508 89.4943 99.7369 88.9765 100.585 88.4264 101.119 87.4989 101.167 86.494 101.212 85.5973 100.582 84.5097 99.3468 82.3787 99.3042 82.3061 99.2617 82.2323 99.2182 82.1572L90.3093 66.9168 90.208 66.7452C88.9561 64.6282 88.3242 63.5591 87.5126 63.1459 86.6175 62.6902 85.564 62.6902 84.6689 63.1459 83.8518 63.5701 83.192 64.6857 81.8879 66.9324L73.0107 82.1729 72.9803 82.2254C71.6808 84.4686 71.0313 85.5896 71.0782 86.5093 71.141 87.5151 71.6595 88.4417 72.5079 88.9918 73.2778 89.4943 74.5976 89.4943 77.2215 89.4943Z" fill="#E84142" fill-rule="evenodd" transform="matrix(1 0 0 1.00715 1069 633)"/></g></g></g><g clip-path="url(#clip8)"><g clip-path="url(#clip9)"><g clip-path="url(#clip10)"><path d="M1330.5 762C1366.24 762 1395 733.244 1395 697.5 1395 661.756 1366.24 633 1330.5 633 1294.76 633 1266 661.756 1266 697.5 1266 733.244 1294.76 762 1330.5 762Z" fill="#2775CA"/><path d="M1348.24 707.712C1348.24 698.306 1342.59 695.081 1331.31 693.738 1323.24 692.662 1321.63 690.513 1321.63 686.75 1321.63 682.987 1324.32 680.569 1329.69 680.569 1334.53 680.569 1337.22 682.181 1338.56 686.212 1338.83 687.019 1339.64 687.556 1340.44 687.556L1344.74 687.556C1345.82 687.556 1346.62 686.75 1346.62 685.675L1346.62 685.406C1345.55 679.493 1340.71 674.925 1334.53 674.388L1334.53 667.938C1334.53 666.862 1333.72 666.056 1332.38 665.787L1328.35 665.787C1327.27 665.787 1326.47 666.593 1326.2 667.938L1326.2 674.119C1318.14 675.194 1313.03 680.569 1313.03 687.288 1313.03 696.156 1318.41 699.65 1329.69 700.994 1337.22 702.337 1339.64 703.95 1339.64 708.25 1339.64 712.55 1335.87 715.506 1330.77 715.506 1323.78 715.506 1321.36 712.55 1320.56 708.518 1320.29 707.444 1319.48 706.906 1318.68 706.906L1314.11 706.906C1313.03 706.906 1312.23 707.712 1312.23 708.787L1312.23 709.056C1313.3 715.775 1317.6 720.612 1326.47 721.956L1326.47 728.406C1326.47 729.481 1327.27 730.287 1328.62 730.556L1332.65 730.556C1333.72 730.556 1334.53 729.75 1334.8 728.406L1334.8 721.956C1342.86 720.612 1348.24 714.969 1348.24 707.712Z" fill="#FFFFFF"/><path d="M1316.79 735.931C1295.83 728.406 1285.08 705.025 1292.88 684.331 1296.91 673.043 1305.78 664.444 1316.79 660.412 1317.87 659.875 1318.41 659.069 1318.41 657.725L1318.41 653.962C1318.41 652.887 1317.87 652.081 1316.79 651.813 1316.52 651.813 1315.99 651.813 1315.72 652.081 1290.19 660.143 1276.21 687.288 1284.27 712.819 1289.11 727.869 1300.67 739.425 1315.72 744.263 1316.79 744.8 1317.87 744.263 1318.14 743.187 1318.41 742.919 1318.41 742.65 1318.41 742.113L1318.41 738.35C1318.41 737.544 1317.6 736.469 1316.79 735.931ZM1345.28 652.081C1344.21 651.544 1343.13 652.081 1342.86 653.156 1342.59 653.425 1342.59 653.693 1342.59 654.231L1342.59 657.994C1342.59 659.069 1343.4 660.143 1344.21 660.681 1365.17 668.206 1375.92 691.587 1368.12 712.281 1364.09 723.569 1355.22 732.169 1344.21 736.2 1343.13 736.737 1342.59 737.544 1342.59 738.888L1342.59 742.65C1342.59 743.725 1343.13 744.531 1344.21 744.8 1344.48 744.8 1345.01 744.8 1345.28 744.531 1370.81 736.469 1384.79 709.325 1376.73 683.794 1371.89 668.475 1360.06 656.918 1345.28 652.081Z" fill="#FFFFFF"/></g></g></g></g></svg>