<svg width="25" height="25" viewBox="0 0 25 25" fill="none" xmlns="http://www.w3.org/2000/svg">
<circle cx="12.5" cy="12.5" r="12" fill="white" stroke="#ECECEC"/>
<path d="M15.784 14.1613C15.784 12.6455 14.7504 12.1257 12.6833 11.9085C11.2068 11.7349 10.9115 11.3887 10.9115 10.7826C10.9115 10.1765 11.4041 9.78667 12.388 9.78667C13.2739 9.78667 13.7665 10.0466 14.0122 10.6963C14.0618 10.8263 14.2094 10.9125 14.3571 10.9125H15.1449C15.3422 10.9125 15.4898 10.7826 15.4898 10.609V10.5653C15.2926 9.61202 14.4067 8.87599 13.2751 8.7897V7.75011C13.2751 7.5765 13.1275 7.44655 12.8818 7.40393H12.1435C11.9463 7.40393 11.7986 7.53388 11.7502 7.75011V8.74604C10.2737 8.91965 9.3382 9.78563 9.3382 10.8689C9.3382 12.2983 10.3221 12.8618 12.3892 13.078C13.7677 13.2942 14.2106 13.5541 14.2106 14.2475C14.2106 14.941 13.522 15.4171 12.5865 15.4171C11.3072 15.4171 10.8643 14.941 10.7167 14.2912C10.667 14.1176 10.5194 14.0313 10.3717 14.0313H9.53546C9.3382 14.0313 9.19055 14.1613 9.19055 14.3349V14.3785C9.38781 15.4618 10.1745 16.2415 11.7986 16.4577V17.4973C11.7986 17.6709 11.9463 17.8009 12.192 17.8435H12.9302C13.1275 17.8435 13.2751 17.7135 13.3235 17.4973V16.4577C14.7988 16.2404 15.784 15.3308 15.784 14.1613Z" fill="url(#paint0_linear_8177_19305)"/>
<path d="M10.1587 18.5737C6.59687 17.3283 4.76991 13.4597 6.09492 10.0362C6.7799 8.16862 8.28685 6.74605 10.1587 6.07906C10.3418 5.99048 10.4327 5.85708 10.4327 5.63404V5.01187C10.4327 4.83365 10.3418 4.70025 10.1587 4.65649C10.1127 4.65649 10.0218 4.65649 9.97573 4.70132C5.63791 6.0353 3.26296 10.526 4.63291 14.751C5.45488 17.2408 7.41885 19.1532 9.97573 19.9536C10.1588 20.0422 10.3407 19.9536 10.3867 19.7754C10.4327 19.7306 10.4327 19.6868 10.4327 19.5972V18.975C10.4327 18.8405 10.2957 18.6634 10.1587 18.5737ZM14.9985 4.70025C14.8155 4.61167 14.6336 4.70025 14.5875 4.87847C14.5415 4.92329 14.5415 4.96705 14.5415 5.05669V5.67886C14.5415 5.85708 14.6785 6.03424 14.8155 6.12388C18.3774 7.36929 20.2043 11.2379 18.8793 14.6614C18.1943 16.529 16.6874 17.9516 14.8155 18.6185C14.6325 18.7071 14.5415 18.8405 14.5415 19.0636V19.6857C14.5415 19.864 14.6325 19.9974 14.8155 20.0411C14.8615 20.0411 14.9525 20.0411 14.9985 19.9963C19.3363 18.6623 21.7113 14.1716 20.3413 9.94656C19.5194 7.41305 17.5105 5.50064 14.9985 4.70025Z" fill="url(#paint1_linear_8177_19305)"/>
<defs>
<linearGradient id="paint0_linear_8177_19305" x1="10.3813" y1="8.76797" x2="16.9583" y2="13.2736" gradientUnits="userSpaceOnUse">
<stop stop-color="#5855FF"/>
<stop offset="1" stop-color="#E03DFF"/>
</linearGradient>
<linearGradient id="paint1_linear_8177_19305" x1="7.22225" y1="6.66665" x2="17.5" y2="18.6111" gradientUnits="userSpaceOnUse">
<stop stop-color="#5855FF"/>
<stop offset="1" stop-color="#E03DFF"/>
</linearGradient>
</defs>
</svg>
