<svg width="250" height="250" viewBox="0 0 250 250" fill="none" xmlns="http://www.w3.org/2000/svg">
<path d="M250 125C250 194.036 194.036 250 125 250C55.9644 250 0 194.036 0 125C0 55.9644 55.9644 0 125 0C194.036 0 250 55.9644 250 125Z" fill="url(#paint0_radial_123_26)"/>
<path d="M37.7706 158.291C36.1842 158.291 34.9561 157.856 34.0862 156.986C33.2162 156.116 32.7812 154.888 32.7812 153.301V104.559H38.4614V153.225H67.6299V158.291H37.7706Z" fill="white"/>
<path d="M90.2822 158.905C87.0071 158.905 84.1159 158.188 81.6084 156.756C79.1009 155.272 77.1564 153.199 75.7747 150.538C74.3931 147.826 73.7022 144.73 73.7022 141.25V104.559H79.3824V141.404C79.3824 145.139 80.3803 148.159 82.376 150.461C84.3717 152.713 87.0071 153.839 90.2822 153.839H98.5722C101.847 153.839 104.483 152.713 106.478 150.461C108.474 148.159 109.472 145.139 109.472 141.404V104.559H115.152V141.25C115.152 144.73 114.461 147.826 113.08 150.538C111.698 153.199 109.753 155.272 107.246 156.756C104.738 158.188 101.847 158.905 98.5722 158.905H90.2822Z" fill="white"/>
<path d="M143.045 158.905C139.616 158.905 136.572 158.086 133.911 156.449C131.301 154.811 129.254 152.534 127.77 149.617C126.337 146.649 125.621 143.246 125.621 139.408V123.442C125.621 119.604 126.337 116.201 127.77 113.233C129.254 110.265 131.326 107.988 133.987 106.402C136.7 104.764 139.821 103.945 143.352 103.945H151.489C154.815 103.945 157.732 104.662 160.239 106.095C162.798 107.527 164.768 109.549 166.15 112.159C167.582 114.768 168.299 117.762 168.299 121.139H162.772C162.772 117.506 161.723 114.589 159.625 112.389C157.578 110.137 154.866 109.011 151.489 109.011H143.352C139.719 109.011 136.802 110.342 134.602 113.003C132.401 115.613 131.301 119.092 131.301 123.442V139.408C131.301 143.758 132.376 147.263 134.525 149.924C136.674 152.534 139.514 153.839 143.045 153.839H151.335C154.815 153.839 157.604 152.611 159.702 150.154C161.851 147.698 162.926 144.474 162.926 140.483H168.452C168.452 144.116 167.736 147.34 166.303 150.154C164.87 152.918 162.849 155.067 160.239 156.602C157.68 158.137 154.712 158.905 151.335 158.905H143.045Z" fill="white"/>
<path d="M191.521 137.643L171.717 104.559H177.858L194.361 132.5L210.864 104.559H217.005L197.201 137.643V158.291H191.521V137.643Z" fill="white"/>
<defs>
<radialGradient id="paint0_radial_123_26" cx="0" cy="0" r="1" gradientUnits="userSpaceOnUse" gradientTransform="translate(-120.375 -79.5) rotate(41.6575) scale(495.73)">
<stop offset="0.381374" stop-color="#ECB91D"/>
<stop offset="0.529997" stop-color="#F681AE"/>
<stop offset="0.948773" stop-color="#17B2E8"/>
</radialGradient>
</defs>
</svg>
