<?xml version="1.0" encoding="utf-8"?>
<!DOCTYPE svg PUBLIC "-//W3C//DTD SVG 1.1//EN" "http://www.w3.org/Graphics/SVG/1.1/DTD/svg11.dtd">
<!-- exported from Silhouette Studio® Business Edition V4.4.554ssbe -->
<svg version="1.1" xmlns="http://www.w3.org/2000/svg" xmlns:xlink="http://www.w3.org/1999/xlink" width="279.4mm" height="215.9mm" viewBox="0 0 279.4 215.9">
<defs>
<path id="path_0eced421f5aca3c4616549512667b34c" d="M -116.5789 143.5116 C -116.6349 143.4703 -116.9951 142.9542 -117.3794 142.3647 C -117.7637 141.7751 -118.1013 141.2698 -118.1297 141.2417 C -118.1582 141.2137 -118.4058 140.8463 -118.6801 140.4255 C -118.9543 140.0046 -119.5389 139.1416 -119.9792 138.5076 C -120.4194 137.8736 -120.8563 137.2113 -120.9501 137.0358 C -121.0438 136.8604 -121.1574 136.6898 -121.2025 136.6568 C -121.2475 136.6237 -121.6467 136.0454 -122.0895 135.3717 C -122.5323 134.6979 -123.1584 133.7561 -123.4808 133.2789 C -124.8929 131.1887 -125.5188 130.2167 -125.5804 130.0188 C -125.6477 129.8025 -125.5342 129.5759 -124.58 128.0214 C -124.3387 127.6283 -123.9107 126.9163 -123.6289 126.439 C -123.3471 125.9618 -122.9394 125.2956 -122.7229 124.9588 C -122.5064 124.6219 -122.2598 124.2084 -122.175 124.04 C -122.0902 123.8715 -121.8208 123.4121 -121.5763 123.0191 C -121.3319 122.6261 -121.076 122.1896 -121.0078 122.0493 C -120.9396 121.9089 -120.8604 121.7711 -120.8317 121.743 C -120.7327 121.6459 -120.3657 121.0771 -120.0412 120.5179 C -119.8621 120.2091 -119.5164 119.6349 -119.2731 119.2419 C -119.0297 118.8488 -118.8008 118.4583 -118.7643 118.3741 C -118.7278 118.2899 -118.626 118.1358 -118.5381 118.0316 C -118.3933 117.8601 -118.3755 116.2545 -118.3493 100.983 C -118.3334 91.71042 -118.3461 83.9776 -118.3776 83.79898 C -118.4263 83.52197 -118.5483 83.4081 -119.207 83.02448 C -119.6317 82.7771 -120.0467 82.54398 -120.1293 82.50639 C -120.2118 82.46881 -120.5945 82.25251 -120.9798 82.02573 C -121.365 81.79893 -121.8603 81.52099 -122.0804 81.4081 C -122.3006 81.2952 -122.6608 81.09371 -122.8809 80.96033 C -123.4446 80.61877 -123.9283 80.39796 -124.1188 80.39513 C -124.2993 80.39244 -127.3093 81.35849 -127.7838 81.5714 C -127.9489 81.64547 -128.2641 81.75348 -128.4842 81.81137 C -128.907 81.92259 -129.6513 82.16559 -130.2352 82.38306 C -130.4278 82.45479 -130.9231 82.61791 -131.3359 82.74556 C -131.7486 82.87319 -132.2439 83.03633 -132.4365 83.10806 C -132.866 83.26798 -133.636 83.52628 -134.2376 83.71216 C -134.8116 83.8895 -135.2637 84.04758 -135.8748 84.28455 C -136.3354 84.46312 -136.374 84.46387 -136.5978 84.29848 C -136.7278 84.20238 -136.8635 84.03445 -136.8995 83.92534 C -136.9355 83.81621 -137.1065 83.5176 -137.2796 83.26176 C -137.4526 83.00593 -137.6497 82.68175 -137.7176 82.54138 C -137.7854 82.401 -138.0175 82.01054 -138.2334 81.67365 C -138.6017 81.09863 -139.1375 80.21471 -140.0589 78.66206 C -140.2754 78.29709 -140.6496 77.67691 -140.8904 77.28387 C -141.1311 76.89084 -141.5588 76.17878 -141.8408 75.70152 C -142.1227 75.22427 -142.4969 74.60407 -142.6722 74.32333 C -142.9453 73.88592 -142.9898 73.72342 -142.9829 73.18741 C -142.9703 72.20544 -142.5791 70.98882 -141.9202 69.88253 C -140.9771 68.29898 -140.82 68.09283 -140.2723 67.71912 C -139.5136 67.20149 -137.1854 65.64348 -137.0216 65.54381 C -135.8368 64.82283 -135.7211 64.80047 -136.003 65.34695 C -136.0878 65.51137 -136.5424 66.40389 -137.0131 67.33034 C -137.4839 68.25678 -138.1308 69.52013 -138.4508 70.13776 C -138.7708 70.75539 -139.1481 71.51022 -139.2892 71.81517 L -139.5458 72.36963 L -138.9538 73.44858 C -138.4603 74.34783 -138.3179 74.53292 -138.0985 74.56004 C -137.8841 74.58653 -137.8066 74.52973 -137.6805 74.25377 C -137.5954 74.06744 -137.4276 73.74883 -137.3075 73.54576 C -137.1875 73.34268 -136.9092 72.86729 -136.6891 72.4893 C -136.2898 71.80379 -136.1145 71.50558 -135.7414 70.87788 C -135.633 70.6954 -135.4804 70.40349 -135.4024 70.22921 C -135.2714 69.93652 -134.9247 69.72598 -134.7937 69.8596 C -134.763 69.89093 -134.7379 71.05016 -134.7379 72.43568 C -134.7379 74.92393 -134.7409 74.96031 -134.9847 75.40472 C -135.1204 75.65219 -135.3155 76.01543 -135.4182 76.21196 C -135.521 76.40847 -135.7251 76.78483 -135.8719 77.04829 C -136.1727 77.58824 -136.2068 77.91866 -135.9918 78.20868 C -135.911 78.31767 -135.8435 78.49024 -135.8417 78.59219 C -135.84 78.69416 -135.7823 78.87791 -135.7135 79.00055 C -135.6447 79.12319 -135.5209 79.43027 -135.4383 79.68294 C -135.2635 80.21796 -135.0658 80.29034 -134.4101 80.05939 C -134.1777 79.9775 -133.6498 79.81166 -133.237 79.69083 C -132.8243 79.57001 -132.3515 79.42326 -132.1864 79.36473 C -132.0213 79.30621 -131.6386 79.19854 -131.3359 79.12547 C -131.0332 79.05242 -130.6505 78.94536 -130.4854 78.88756 C -130.1702 78.77725 -129.2937 78.5114 -128.0339 78.14404 C -127.6212 78.02367 -127.216 77.88655 -127.1334 77.83931 C -126.4113 77.4261 -124.3485 76.18015 -124.2231 76.08156 C -124.1359 76.01291 -123.8527 75.58923 -123.5938 75.14005 C -123.3349 74.69086 -123.0813 74.25443 -123.0303 74.17021 C -122.8913 73.94083 -121.9003 72.15887 -121.745 71.85904 C -121.461 71.31065 -121.401 71.76428 -121.379 74.62627 C -121.3551 77.73686 -121.367 77.67902 -120.6816 78.0067 C -120.5154 78.08617 -120.2599 78.23169 -120.1139 78.33006 C -119.9678 78.42845 -119.5455 78.69269 -119.1754 78.91728 C -118.8052 79.14188 -118.3844 79.40553 -118.2402 79.5032 C -118.096 79.60087 -117.8654 79.73685 -117.7278 79.80539 C -117.5903 79.87394 -117.3703 80.01225 -117.2391 80.11273 C -117.1078 80.21323 -116.9014 80.29546 -116.7803 80.29546 C -116.5033 80.29546 -112.4136 78.21688 -112.1862 77.96062 C -112.0389 77.7945 -112.0173 77.45882 -112.0104 75.23058 C -112.0021 72.57764 -111.9442 71.70889 -111.7716 71.65077 C -111.7151 71.63174 -111.6141 71.7429 -111.5473 71.89783 C -111.4805 72.05275 -111.3152 72.36325 -111.18 72.58784 C -111.0448 72.81244 -110.8845 73.08808 -110.8238 73.20038 C -110.7631 73.31268 -110.6035 73.58829 -110.4691 73.8129 C -110.3348 74.03748 -110.1553 74.35906 -110.0702 74.52751 C -109.739 75.18358 -109.2323 75.93386 -109.0456 76.04468 C -107.8879 76.73173 -107.8886 76.73124 -106.9321 77.37425 C -106.5252 77.64777 -105.9849 77.93236 -105.7314 78.00667 C -105.4779 78.08099 -104.9666 78.23587 -104.5951 78.35088 C -104.2236 78.46587 -103.6158 78.65405 -103.2443 78.76906 C -102.8728 78.88406 -102.3663 79.04098 -102.1186 79.11775 C -101.871 79.19453 -101.5333 79.30544 -101.3682 79.36424 C -101.2031 79.42304 -100.7303 79.56994 -100.3175 79.69069 C -99.90477 79.81143 -99.31944 80.00029 -99.01675 80.11035 L -98.46642 80.31047 L -98.10258 79.89456 C -97.90247 79.66583 -97.6636 79.32938 -97.57176 79.14693 C -97.47992 78.96449 -97.31224 78.66447 -97.19916 78.48026 L -96.99355 78.14532 L -97.33835 77.45938 C -97.528 77.08212 -97.79671 76.56671 -97.93549 76.31404 C -99.10175 74.19073 -99.13156 74.07841 -98.91112 72.63889 C -98.85522 72.27393 -98.76729 71.51947 -98.71571 70.96231 C -98.66414 70.40515 -98.58171 69.90827 -98.53256 69.85812 C -98.43433 69.7579 -97.52315 71.11961 -95.92847 73.74983 C -95.51297 74.43515 -95.23866 74.66893 -95.01529 74.52808 C -94.95976 74.49307 -94.91348 74.40971 -94.91245 74.34283 C -94.91141 74.27597 -94.70908 73.80779 -94.46283 73.30246 C -94.21658 72.79712 -94.01483 72.28284 -94.01447 72.15961 C -94.01382 71.94658 -94.29018 71.37358 -96.55376 66.89449 C -97.34178 65.33516 -97.49287 64.96692 -97.36516 64.91692 C -97.27884 64.88312 -97.1311 64.92404 -97.03685 65.00784 C -96.9426 65.09163 -96.49197 65.38432 -96.03548 65.65826 C -95.57898 65.93221 -95.03867 66.25931 -94.83478 66.38517 C -94.63089 66.51103 -94.35152 66.67259 -94.21393 66.7442 C -93.29863 67.22054 -92.74313 67.6848 -92.43091 68.23443 C -91.57161 69.74709 -90.23459 72.02817 -90.13681 72.14837 C -90.07671 72.22227 -89.99701 72.40685 -89.95969 72.55856 C -89.88544 72.86038 -89.85754 72.80583 -91.51233 75.59758 C -91.81502 76.10822 -92.1319 76.65059 -92.21652 76.80286 C -92.30115 76.95511 -92.50325 77.28642 -92.66562 77.53909 C -92.82799 77.79176 -93.01762 78.11333 -93.08701 78.25371 C -93.15639 78.39407 -93.30276 78.64674 -93.41229 78.81519 C -93.52182 78.98361 -93.66718 79.2363 -93.73529 79.37668 C -93.80341 79.51704 -94.0065 79.84962 -94.18661 80.11575 C -94.36673 80.38188 -94.5141 80.64276 -94.5141 80.69547 C -94.5141 80.74818 -94.57581 80.85426 -94.65121 80.9312 C -94.72664 81.00813 -94.86307 81.20667 -94.95444 81.37236 C -95.04579 81.53806 -95.20811 81.81146 -95.31516 81.9799 C -95.4222 82.14833 -95.58965 82.43288 -95.68732 82.6122 C -96.18829 83.53204 -96.51712 84.04475 -96.74344 84.25888 L -96.99416 84.49611 L -97.44963 84.28439 C -97.70015 84.16795 -97.96388 84.07271 -98.03569 84.07272 C -98.1526 84.07274 -98.82214 83.86114 -99.81721 83.50969 C -100.0098 83.44166 -100.5051 83.28258 -100.9179 83.1562 C -101.3307 83.02982 -101.8943 82.83978 -102.1706 82.7339 C -102.4468 82.62802 -102.7386 82.54138 -102.819 82.54138 C -102.8994 82.54138 -103.1913 82.45258 -103.4675 82.34404 C -103.7437 82.2355 -104.3074 82.04768 -104.7202 81.92665 C -105.1329 81.80562 -105.6282 81.64422 -105.8208 81.56798 C -106.0134 81.49175 -106.3286 81.39862 -106.5212 81.36105 C -106.7138 81.32349 -106.9164 81.25697 -106.9715 81.21324 C -107.0265 81.1695 -107.3192 81.06361 -107.6219 80.97791 C -107.9246 80.89221 -108.4808 80.73111 -108.858 80.61996 L -109.5439 80.41785 L -110.2088 80.78238 C -110.5746 80.98287 -111.0539 81.25335 -111.274 81.38344 C -111.4942 81.51353 -111.7418 81.65095 -111.8244 81.68883 C -111.9069 81.7267 -112.4247 82.01936 -112.975 82.33916 C -113.5254 82.65897 -114.0206 82.93937 -114.0757 82.96231 C -114.1307 82.98524 -114.3423 83.1098 -114.5459 83.23911 C -114.8574 83.43698 -114.9268 83.5475 -114.984 83.93721 C -115.0627 84.47215 -114.98 85.48782 -114.8468 85.6237 C -114.7924 85.67925 -112.8713 85.67421 -110.0541 85.61115 C -105.4531 85.50814 -105.3373 85.51037 -104.6609 85.71457 C -104.2808 85.82935 -103.7446 85.98553 -103.4694 86.06165 C -103.1942 86.13776 -102.834 86.24783 -102.6689 86.30624 C -101.9993 86.54314 -101.3439 86.74567 -100.9179 86.84731 C -100.6702 86.90639 -100.4226 86.98935 -100.3676 87.03166 C -100.3125 87.07397 -100.0199 87.16656 -99.71716 87.23741 C -99.41447 87.30827 -99.12181 87.40085 -99.06677 87.44316 C -99.01173 87.48547 -98.7641 87.56845 -98.51645 87.62752 C -98.09079 87.72908 -97.43701 87.93105 -96.76541 88.1685 C -96.16136 88.38206 -95.28166 88.56759 -95.12511 88.51442 C -95.0367 88.48439 -94.80676 88.205 -94.61415 87.89359 C -94.22951 87.27164 -94.17015 87.17537 -93.51352 86.10849 C -93.26587 85.70612 -92.88313 85.09357 -92.66299 84.74728 C -92.44286 84.40099 -92.20901 84.02715 -92.14331 83.91652 C -91.61797 83.03204 -91.34764 82.65266 -91.26218 82.67987 C -91.19879 82.70007 -91.16211 83.69993 -91.16211 85.40845 L -91.16211 88.10516 L -91.57367 88.71768 C -92.33804 89.85531 -93.0132 90.92921 -93.0132 91.00739 C -93.0132 91.05013 -93.10326 91.16823 -93.21332 91.26987 C -93.32338 91.37149 -93.41344 91.49117 -93.41344 91.5358 C -93.41344 91.72593 -94.0424 92.54694 -94.19598 92.55727 C -94.50862 92.57829 -94.86378 92.52656 -94.96436 92.44534 C -95.01939 92.40089 -95.33458 92.30804 -95.66478 92.23901 C -95.99498 92.16999 -96.407 92.05004 -96.58041 91.97244 C -96.75383 91.89484 -97.00304 91.83134 -97.13422 91.83134 C -97.26538 91.83134 -97.62892 91.73946 -97.94208 91.62717 C -98.25523 91.51488 -98.58817 91.423 -98.68195 91.423 C -98.77573 91.423 -99.17084 91.32751 -99.55997 91.2108 C -100.9291 90.80016 -102.0159 90.50665 -102.9691 90.2901 C -103.3923 90.19396 -104.0468 90.00758 -104.9953 89.71303 C -105.5151 89.55164 -106.0154 89.5377 -110.1734 89.56866 C -112.9434 89.58928 -114.8159 89.64213 -114.8761 89.70137 C -115.0193 89.84223 -115.0082 93.01356 -114.864 93.16066 C -114.7501 93.27684 -108.1187 93.31471 -107.6766 93.20172 C -107.3528 93.11895 -106.7318 93.39337 -105.8385 94.01395 C -105.3842 94.32952 -104.9938 94.58771 -104.9709 94.58771 C -104.9479 94.58771 -104.6683 94.77192 -104.3494 94.99706 C -104.0305 95.2222 -103.702 95.45054 -103.6195 95.5045 C -103.5369 95.55846 -103.2443 95.76503 -102.9691 95.96355 C -102.6939 96.16205 -102.3563 96.38096 -102.2187 96.44998 C -101.7033 96.70855 -100.7654 97.47267 -100.7027 97.68513 C -100.62 97.96529 -100.5969 108.0933 -100.6784 108.3101 C -100.7688 108.5503 -100.9114 108.5115 -101.5183 108.0815 C -103.1275 106.9413 -103.4802 106.6846 -103.5927 106.5718 C -103.6605 106.5038 -103.7731 106.4287 -103.8428 106.405 C -103.9412 106.3716 -103.9762 105.579 -103.9985 102.8742 L -104.0273 99.38647 L -104.4488 99.07379 C -104.6806 98.90182 -105.3706 98.4308 -105.9821 98.02707 C -106.5937 97.62335 -107.179 97.2362 -107.2829 97.16673 C -107.9443 96.72441 -107.8819 96.7314 -111.3798 96.70786 C -114.5961 96.6862 -114.7518 96.69389 -114.8859 96.88101 C -115.0378 97.09303 -115.0899 99.22773 -114.9487 99.45428 C -114.8972 99.5368 -114.2707 99.58463 -112.924 99.60884 L -110.9738 99.64392 L -109.7776 100.281 C -109.1197 100.6315 -108.5367 100.9639 -108.4819 101.0197 C -108.4271 101.0756 -108.3078 101.1213 -108.2168 101.1213 C -108.1258 101.1213 -107.9245 101.2412 -107.7696 101.3877 L -107.4878 101.6541 L -107.4798 105.6499 L -107.4718 109.6456 L -108.1722 110.5832 C -108.5574 111.0988 -109.0527 111.7763 -109.2728 112.0887 C -110.131 113.3064 -110.5484 113.8312 -110.6587 113.8312 C -110.7284 113.8312 -110.7836 113.6099 -110.7987 113.2697 C -110.8124 112.9609 -110.8912 111.4381 -110.9738 109.8856 C -111.0564 108.3332 -111.1239 106.2866 -111.1239 105.3376 C -111.1239 104.1318 -111.1601 103.5754 -111.244 103.4897 C -111.4127 103.3176 -114.7374 103.3176 -114.9062 103.4897 C -114.9975 103.5829 -115.0262 105.4666 -115.0262 111.3445 C -115.0262 116.4661 -115.0605 119.0983 -115.1278 119.1407 C -115.1837 119.176 -115.2959 119.3509 -115.3772 119.5296 C -115.4586 119.7082 -115.7074 120.1759 -115.9301 120.569 C -116.1528 120.962 -116.4039 121.4214 -116.488 121.5899 C -116.5721 121.7583 -116.7486 122.0799 -116.8801 122.3045 C -117.0117 122.5291 -117.1884 122.8507 -117.2728 123.0191 C -117.3572 123.1876 -117.6085 123.6469 -117.8312 124.04 C -118.054 124.433 -118.305 124.8924 -118.3891 125.0608 C -118.4733 125.2293 -118.6497 125.5509 -118.7813 125.7755 C -118.9128 126 -119.0896 126.3216 -119.174 126.4901 C -119.2584 126.6585 -119.4392 126.9801 -119.5757 127.2047 C -119.7122 127.4293 -119.9489 127.8743 -120.1017 128.1936 C -120.4274 128.8743 -120.6988 129.009 -121.0985 128.6882 C -121.2406 128.5741 -121.4036 128.4808 -121.4606 128.4808 C -121.5177 128.4808 -121.6439 128.4074 -121.741 128.3176 C -121.8382 128.2279 -121.9656 128.1847 -122.0241 128.2216 C -122.2596 128.3701 -122.2489 128.3894 -120.3101 131.3012 C -119.8941 131.926 -119.5369 132.4799 -119.5163 132.5322 C -119.4707 132.648 -117.9002 135.0448 -117.823 135.1165 C -117.7927 135.1445 -117.5248 135.5465 -117.2276 136.0097 C -116.9303 136.473 -116.6399 136.8513 -116.5821 136.8504 C -116.3418 136.8468 -116.2493 136.7294 -115.0957 134.9633 C -114.949 134.7387 -114.7942 134.5091 -114.7517 134.4529 C -114.7092 134.3968 -114.3606 133.8684 -113.9772 133.2789 C -113.5937 132.6893 -113.2563 132.184 -113.2273 132.1559 C -113.1983 132.1279 -113.0448 131.9097 -112.8861 131.671 C -112.5535 131.1708 -112.6268 131.1968 -111.5339 131.1908 C -111.0645 131.1882 -110.6797 131.141 -110.6627 131.084 C -110.646 131.0279 -110.8637 130.7982 -111.1466 130.5736 C -112.118 129.8022 -112.9812 128.9062 -113.2281 128.4131 C -113.4439 127.982 -113.4736 127.7961 -113.4615 126.9495 C -113.4512 126.2262 -113.394 125.8424 -113.2364 125.4399 C -113.1202 125.143 -113.0251 124.7972 -113.0251 124.6714 C -113.0251 124.5456 -112.9575 124.3443 -112.875 124.2241 C -112.7922 124.1036 -112.6822 123.5842 -112.6297 123.0664 C -112.5773 122.5498 -112.5171 122.1095 -112.4959 122.0878 C -112.403 121.9931 -111.9315 122.6273 -110.8656 124.2811 C -110.2372 125.2559 -109.7231 126.0679 -109.7231 126.0855 C -109.7231 126.1031 -109.2953 126.7675 -108.7725 127.562 C -108.2497 128.3565 -107.822 129.0309 -107.822 129.0607 C -107.822 129.0905 -107.7094 129.2514 -107.5718 129.4182 C -107.2133 129.853 -107.2565 130.1704 -107.7778 130.9309 C -108.028 131.2958 -108.5225 132.0309 -108.8767 132.5643 C -109.2309 133.0977 -109.878 134.0624 -110.3148 134.7081 C -110.7516 135.3538 -111.538 136.5253 -112.0624 137.3113 C -112.5869 138.0974 -113.4022 139.3148 -113.8744 140.0167 C -114.3465 140.7185 -115.073 141.8096 -115.4889 142.4412 C -116.2137 143.5423 -116.3524 143.6785 -116.5789 143.5116 Z M -123.1487 113.4469 C -123.351 113.2091 -123.7277 112.7848 -123.9858 112.5041 C -125.0945 111.2983 -125.7872 110.4903 -125.8506 110.329 C -125.9351 110.1142 -125.9527 102.586 -125.8695 102.2691 C -125.8227 102.091 -125.4085 101.8398 -124.0447 101.1623 C -123.0744 100.6803 -121.9589 100.1225 -121.5659 99.92282 C -121.1631 99.71817 -120.781 99.58721 -120.6904 99.62271 C -120.5511 99.67722 -120.5295 99.92398 -120.5295 101.4576 C -120.5295 103.5211 -120.479 103.4128 -121.7052 103.9804 C -122.1042 104.1651 -122.4403 104.3209 -122.4521 104.3267 C -122.464 104.3324 -122.4977 106.4695 -122.5272 109.0757 C -122.5613 112.0966 -122.617 113.8261 -122.6808 113.8468 C -122.7358 113.8647 -122.9464 113.6847 -123.1487 113.4469 Z M -132.6795 103.2693 C -132.7607 97.69122 -132.8037 98.08953 -132.0603 97.53961 C -131.5698 97.17683 -130.0671 96.03779 -127.6196 94.17363 L -126.5548 93.36267 L -123.7004 93.36267 C -122.1305 93.36267 -120.7748 93.39054 -120.6878 93.42462 C -120.5538 93.47707 -120.5295 93.70731 -120.5295 94.92238 C -120.5295 96.02276 -120.5628 96.39581 -120.6723 96.51933 C -120.7939 96.6566 -120.9907 96.67049 -121.9981 96.61308 C -124.4939 96.47081 -124.9556 96.4967 -125.4772 96.80812 C -126.1944 97.23638 -126.2324 97.26049 -127.0016 97.77771 C -127.3969 98.0435 -127.8359 98.3147 -127.9772 98.38039 C -128.1185 98.44608 -128.2341 98.53527 -128.2341 98.57863 C -128.2341 98.62199 -128.3271 98.68757 -128.4408 98.72438 C -128.5544 98.76119 -128.8021 98.92985 -128.9911 99.09915 L -129.3347 99.40698 L -129.3347 102.754 C -129.3347 105.7956 -129.3507 106.1197 -129.5098 106.3056 C -129.7893 106.6322 -132.2154 108.2674 -132.4205 108.2674 C -132.5986 108.2674 -132.61 108.0486 -132.6795 103.2693 Z M -139.6771 92.35638 C -139.8222 92.20184 -139.941 92.04492 -139.941 92.00763 C -139.941 91.94971 -140.6372 90.8603 -140.8692 90.55531 C -140.9119 90.49912 -141.0903 90.22348 -141.2657 89.94273 C -141.4411 89.662 -141.6107 89.40932 -141.6427 89.38124 C -141.6748 89.35318 -141.7959 89.16277 -141.912 88.9581 C -142.1071 88.61432 -142.1287 88.37268 -142.1961 85.78323 C -142.2427 83.99411 -142.2336 82.91563 -142.1708 82.80119 C -142.0866 82.64774 -142.0054 82.71975 -141.6071 83.30115 C -141.3511 83.67473 -141.1417 83.9977 -141.1417 84.01888 C -141.1417 84.04006 -140.7252 84.69666 -140.2161 85.47803 C -139.7071 86.25938 -139.2456 86.96955 -139.1905 87.05618 C -138.6442 87.91631 -138.2738 88.39198 -138.0992 88.45801 C -137.8949 88.53524 -137.6208 88.47024 -135.9886 87.9576 C -135.6034 87.8366 -135.1301 87.69619 -134.9368 87.64558 C -134.7436 87.59496 -134.4186 87.48244 -134.2146 87.39549 C -134.0107 87.30855 -133.741 87.23713 -133.6154 87.23679 C -133.4899 87.23644 -133.2663 87.17186 -133.1187 87.09328 C -132.971 87.01469 -132.7009 86.92062 -132.5183 86.88426 C -132.3358 86.84789 -132.0288 86.75574 -131.8362 86.6795 C -131.6436 86.60326 -131.1483 86.44103 -130.7355 86.31898 C -130.3228 86.19693 -129.7825 86.022 -129.5348 85.93021 C -129.1451 85.78577 -128.5124 85.76289 -124.832 85.76022 L -120.5795 85.75714 L -120.5521 87.53024 C -120.5332 88.75137 -120.5604 89.34727 -120.6394 89.44438 C -120.7334 89.55993 -121.498 89.58698 -124.8693 89.59404 C -129.501 89.60374 -129.6719 89.6181 -131.2358 90.1295 C -131.4835 90.21048 -132.0238 90.37814 -132.4365 90.50206 C -133.4906 90.81855 -134.0109 90.97974 -134.5878 91.16867 C -134.863 91.25877 -135.2682 91.37744 -135.4883 91.43237 C -135.7085 91.4873 -136.0305 91.59956 -136.2039 91.68181 C -136.3773 91.76406 -136.6249 91.83164 -136.7542 91.83199 C -136.8835 91.83233 -137.119 91.90166 -137.2776 91.98605 C -137.4362 92.07047 -137.7514 92.16748 -137.978 92.20168 C -138.2047 92.23586 -138.4801 92.31992 -138.5902 92.38849 C -138.7002 92.45707 -138.9305 92.54112 -139.1018 92.57527 C -139.356 92.62593 -139.4618 92.58565 -139.6771 92.35638 Z" fill-rule="evenodd" fill="#000000" fill-opacity="1" stroke="#000000" stroke-opacity="1" stroke-width="0.1" stroke-linecap="round" stroke-linejoin="round"/>
<path id="path_ed09079ea345f815416c9b978c2b3f5e" d="M 183.5505 113.7386 L 183.4938 113.8236 L 183.4938 113.618 L 183.5505 113.7386 Z" fill-rule="evenodd" fill="#1F1A19" fill-opacity="1" stroke="none" stroke-opacity="1" stroke-width="0.3527778" stroke-linecap="butt" stroke-linejoin="miter"/>
<path id="path_d6a46e47760ab12b9f0608333d59143c" d="M 103.5345 120.207 C 104.2576 118.9107 105.2655 118.2736 106.5583 118.2736 C 108.8591 118.2736 110.0204 119.7016 110.0204 122.5797 L 110.0204 165.1127 C 110.0204 167.9907 108.8591 169.4187 106.5802 169.4187 L 96.30353 169.4187 L 96.30353 188.3345 C 96.30353 191.2125 95.0546 192.6406 92.55664 192.6406 C 90.19016 192.6406 89.02881 191.2125 89.02881 188.3345 L 89.02881 144.703 C 89.02881 143.8462 89.24796 143.0553 89.68619 142.3303 L 103.5345 120.207 Z M 102.7238 161.0483 L 102.7238 136.3326 L 96.30359 145.9992 L 96.30353 161.0483 L 102.7238 161.0483 Z" fill-rule="evenodd" fill="#1F1A19" fill-opacity="1" stroke="none" stroke-opacity="1" stroke-width="0.3527778" stroke-linecap="butt" stroke-linejoin="miter"/>
<path id="path_13afe11fbe55339f12fd278aed925e1c" d="M 160.2944 191.2287 C 159.6153 192.1753 158.6687 192.6405 157.4546 192.6405 C 155.294 192.6405 154.2034 191.5977 154.2034 189.4961 L 154.2034 125.1623 C 154.2034 123.0767 155.294 122.0179 157.4547 122.0179 C 158.6687 122.0179 159.6153 122.4831 160.2944 123.4297 L 173.5052 138.9596 C 173.9168 139.489 174.1226 140.1147 174.1226 140.8367 L 174.1226 141.3019 C 174.1226 143.4036 173.0526 144.4464 170.9124 144.4464 C 168.6283 144.4785 167.4966 143.4196 167.4966 141.334 C 167.3525 141.4463 165.2124 139.2965 161.0557 134.9007 L 161.0557 179.3086 L 167.2908 171.7843 L 167.2908 159.3828 L 165.1507 159.3828 C 162.9489 159.3828 161.8583 158.3399 161.8583 156.2383 C 161.8583 154.1526 162.9901 153.0938 165.2742 153.0938 L 170.9124 153.0938 C 173.0526 153.0938 174.1226 154.1366 174.1226 156.2383 L 174.1226 172.7148 C 174.1226 173.4527 173.9168 174.0303 173.5052 174.4474 L 160.2944 191.2287 Z" fill-rule="evenodd" fill="#1F1A19" fill-opacity="1" stroke="none" stroke-opacity="1" stroke-width="0.3527778" stroke-linecap="butt" stroke-linejoin="miter"/>
<path id="path_207c255ec7875d4c1e522e423e408334" d="M 146.5219 177.1779 C 145.4982 178.6913 143.655 181.4369 142.4258 183.2793 C 141.1967 185.1217 139.2856 187.975 138.179 189.62 C 137.0724 191.265 135.3696 193.8222 134.3949 195.3027 C 132.6961 197.8833 132.371 198.2025 131.8401 197.8114 C 131.7089 197.7147 130.8646 196.5051 129.964 195.1233 C 129.0633 193.7414 128.272 192.5571 128.2053 192.4913 C 128.1387 192.4255 127.5582 191.5646 126.9155 190.5782 C 126.2727 189.5918 124.9025 187.569 123.8706 186.0831 C 122.8388 184.5971 121.8148 183.0449 121.5951 182.6335 C 121.3754 182.2222 121.1091 181.8225 121.0034 181.7451 C 120.8979 181.6677 119.9623 180.3123 118.9244 178.7332 C 117.8866 177.154 116.4192 174.9466 115.6635 173.8281 C 112.354 168.929 110.8868 166.6509 110.7426 166.1871 C 110.5848 165.6801 110.8508 165.149 113.0873 161.5056 C 113.6528 160.5844 114.6559 158.9155 115.3164 157.7969 C 115.9768 156.6783 116.9324 155.1171 117.4399 154.3275 C 117.9474 153.5379 118.5253 152.5689 118.724 152.174 C 118.9228 151.7792 119.5542 150.7025 120.1272 149.7814 C 120.7001 148.8602 121.2998 147.8372 121.4597 147.5083 C 121.6196 147.1793 121.8053 146.8562 121.8725 146.7904 C 122.1046 146.5628 122.9647 145.2299 123.7251 143.9192 C 124.1451 143.1954 124.9552 141.8495 125.5256 140.9283 C 126.096 140.0071 126.6326 139.0919 126.718 138.8945 C 126.8035 138.6971 127.0421 138.3358 127.2482 138.0917 C 127.5876 137.6897 127.6293 133.9266 127.6907 98.13344 C 127.728 76.40048 127.6982 58.2764 127.6245 57.85776 C 127.5102 57.20851 127.2244 56.94162 125.6805 56.04245 C 124.6851 55.46265 123.7123 54.91626 123.5189 54.82817 C 123.3254 54.74011 122.4284 54.23318 121.5255 53.70163 C 120.6226 53.17009 119.4618 52.51863 118.9458 52.25401 C 118.4298 51.9894 117.5856 51.51715 117.0696 51.20454 C 115.7484 50.40398 114.6148 49.88646 114.1682 49.87984 C 113.7452 49.87355 106.6905 52.13776 105.5783 52.63676 C 105.1913 52.81042 104.4526 53.06351 103.9367 53.19919 C 102.9457 53.45987 101.2013 54.02943 99.83264 54.53914 C 99.3812 54.70726 98.22031 55.08958 97.2529 55.38873 C 96.28549 55.6879 95.12466 56.07028 94.67322 56.2384 C 93.66672 56.6132 91.86185 57.21858 90.45197 57.65425 C 89.10657 58.06993 88.04684 58.4404 86.6145 58.9958 C 85.53503 59.41438 85.44452 59.41609 84.92017 59.02841 C 84.61545 58.80318 84.29724 58.40965 84.21289 58.15388 C 84.12857 57.89812 83.72775 57.19817 83.3222 56.59859 C 82.91666 55.99898 82.45468 55.23921 82.29562 54.91022 C 82.13654 54.58119 81.59256 53.666 81.08667 52.87642 C 80.22336 51.52872 78.96756 49.45692 76.80817 45.81787 C 76.30057 44.96248 75.42361 43.50893 74.85931 42.58774 C 74.29501 41.66653 73.29254 39.9976 72.63168 38.879 C 71.97083 37.76039 71.09396 36.30684 70.68307 35.64886 C 70.04288 34.62363 69.93866 34.24275 69.9548 32.98647 C 69.98422 30.68494 70.90115 27.83345 72.4455 25.24054 C 74.65607 21.52907 75.02408 21.04585 76.30786 20.16994 C 78.08606 18.95676 83.54294 15.30508 83.92682 15.07149 C 86.70367 13.38167 86.97495 13.3293 86.31424 14.61014 C 86.11548 14.9955 85.05008 17.0874 83.94672 19.25877 C 82.84329 21.43015 81.32697 24.39111 80.57706 25.83871 C 79.82709 27.2863 78.94284 29.05551 78.61206 29.77022 L 78.01071 31.06978 L 79.39825 33.59859 C 80.55472 35.70627 80.88858 36.14006 81.40283 36.20361 C 81.90536 36.2657 82.08701 36.13258 82.38242 35.48581 C 82.58188 35.0491 82.97528 34.30234 83.25662 33.82637 C 83.53796 33.3504 84.19034 32.23616 84.70621 31.35023 C 85.64194 29.74353 86.05292 29.04465 86.92722 27.57347 C 87.1814 27.14575 87.539 26.46155 87.72177 26.05307 C 88.02881 25.36708 88.84152 24.8736 89.14853 25.18677 C 89.22049 25.26019 89.27936 27.97723 89.27936 31.22456 C 89.27936 37.0565 89.27228 37.1418 88.70087 38.18341 C 88.38272 38.76341 87.92545 39.61479 87.68472 40.07539 C 87.44397 40.53598 86.96558 41.41803 86.62155 42.03557 C 85.91656 43.30109 85.83652 44.07555 86.34042 44.75528 C 86.52979 45.01073 86.68808 45.41516 86.6922 45.65414 C 86.69626 45.89311 86.8316 46.32376 86.99283 46.61124 C 87.15399 46.89871 87.44421 47.61839 87.6377 48.21057 C 88.04745 49.46457 88.51071 49.63426 90.04755 49.09294 C 90.59244 48.90103 91.82971 48.51227 92.79706 48.22908 C 93.76447 47.94591 94.87256 47.60196 95.25952 47.46477 C 95.64648 47.32755 96.54349 47.07524 97.2529 46.90402 C 97.96228 46.73277 98.85938 46.48184 99.24634 46.34639 C 99.98495 46.08789 102.0394 45.46481 104.992 44.60378 C 105.9594 44.32167 106.9092 44.00024 107.1027 43.88954 C 108.795 42.92107 113.63 40.00081 113.9237 39.76971 C 114.1282 39.60881 114.7919 38.61588 115.3987 37.56306 C 116.0055 36.51027 116.5999 35.48732 116.7195 35.28992 C 117.0452 34.75227 119.3678 30.57579 119.7318 29.87309 C 120.3976 28.58778 120.5383 29.65092 120.5898 36.35881 C 120.6459 43.64937 120.6179 43.51384 122.2243 44.28186 C 122.6138 44.46815 123.2126 44.80917 123.5549 45.03975 C 123.8972 45.27034 124.8871 45.88962 125.7546 46.41602 C 126.6222 46.94243 127.6086 47.56046 127.9465 47.78938 C 128.2845 48.01826 128.8248 48.33698 129.1473 48.49762 C 129.4698 48.65826 129.9853 48.98242 130.2929 49.21797 C 130.6005 49.45352 131.0844 49.64622 131.3682 49.64622 C 132.0172 49.64622 141.6028 44.77451 142.1356 44.17386 C 142.481 43.7845 142.5317 42.99777 142.5478 37.77522 C 142.5671 31.55731 142.7029 29.52115 143.1075 29.38492 C 143.24 29.34033 143.4766 29.60086 143.6331 29.96397 C 143.7897 30.32707 144.1771 31.05481 144.4941 31.58122 C 144.811 32.1076 145.1867 32.75366 145.329 33.01688 C 145.4713 33.28009 145.8453 33.92607 146.1602 34.45247 C 146.4751 34.97885 146.8958 35.7326 147.0952 36.1274 C 147.8714 37.66508 149.0591 39.42358 149.4967 39.68329 C 152.2101 41.29361 152.2083 41.29247 154.4502 42.79958 C 155.4038 43.44063 156.6702 44.10762 157.2644 44.28178 C 157.8586 44.45598 159.0571 44.819 159.9277 45.08855 C 160.7983 45.35808 162.2231 45.79913 163.0937 46.06868 C 163.9643 46.33823 165.1516 46.70604 165.732 46.88596 C 166.3124 47.06589 167.1039 47.32587 167.4908 47.46367 C 167.8778 47.60147 168.986 47.94579 169.9534 48.22879 C 170.9208 48.5118 172.2926 48.95444 173.002 49.21237 L 174.292 49.68144 L 175.1447 48.70662 C 175.6137 48.17052 176.1736 47.38191 176.3888 46.95427 C 176.6041 46.52664 176.9971 45.82355 177.2621 45.39178 L 177.744 44.6068 L 176.9359 42.99908 C 176.4914 42.11487 175.8616 40.90681 175.5363 40.31464 C 172.8029 35.33804 172.733 35.0748 173.2497 31.70084 C 173.3807 30.84544 173.5868 29.07719 173.7077 27.77133 C 173.8286 26.46547 174.0217 25.30087 174.1369 25.18335 C 174.3671 24.94846 176.5027 28.13998 180.2403 34.30464 C 181.2142 35.91089 181.8571 36.45888 182.3807 36.12874 C 182.5108 36.04671 182.6194 35.85127 182.6217 35.69456 C 182.6242 35.53783 183.0984 34.44057 183.6755 33.25615 C 184.2527 32.07175 184.7256 30.86635 184.7264 30.57753 C 184.728 30.07825 184.0801 28.73526 178.7748 18.23721 C 176.9278 14.58247 176.5737 13.71938 176.8731 13.60219 C 177.0754 13.52298 177.4217 13.61887 177.6425 13.81528 C 177.8635 14.01166 178.9196 14.69769 179.9896 15.33975 C 181.0595 15.98183 182.3259 16.74849 182.8038 17.04347 C 183.2816 17.33844 183.9364 17.71712 184.2589 17.88495 C 186.4042 19.00139 187.7061 20.08954 188.4379 21.37773 C 190.4519 24.92311 193.5856 30.26945 193.8148 30.55115 C 193.9557 30.72437 194.1425 31.157 194.2299 31.51256 C 194.404 32.22 194.4693 32.09212 190.5909 38.63539 C 189.8815 39.83224 189.1388 41.10345 188.9404 41.46034 C 188.742 41.81717 188.2684 42.5937 187.8878 43.18588 C 187.5073 43.77809 187.0628 44.53181 186.9002 44.86081 C 186.7376 45.18979 186.3945 45.782 186.1378 46.17679 C 185.881 46.57155 185.5404 47.16379 185.3807 47.49281 C 185.2211 47.82181 184.7451 48.60129 184.3229 49.22505 C 183.9008 49.8488 183.5554 50.46025 183.5554 50.58374 C 183.5554 50.70732 183.4108 50.95593 183.234 51.13626 C 183.0573 51.31659 182.7375 51.78194 182.5233 52.17029 C 182.3092 52.55864 181.9288 53.19943 181.6779 53.59422 C 181.427 53.98901 181.0345 54.65588 180.8055 55.07617 C 179.6313 57.23209 178.8606 58.43375 178.3302 58.93564 L 177.7425 59.49161 L 176.675 58.99542 C 176.0878 58.72253 175.4697 58.49931 175.3014 58.49934 C 175.0274 58.4994 173.4582 58.00336 171.126 57.17966 C 170.6745 57.02023 169.5136 56.64737 168.5462 56.35118 C 167.5788 56.05496 166.2576 55.60954 165.6102 55.3614 C 164.9628 55.11324 164.2789 54.91022 164.0904 54.91022 C 163.9019 54.91022 163.218 54.70209 162.5705 54.44768 C 161.9231 54.1933 160.602 53.75308 159.6346 53.46941 C 158.6672 53.18573 157.5063 52.80739 157.0549 52.62872 C 156.6034 52.45006 155.8646 52.23183 155.4132 52.14375 C 154.9618 52.05571 154.4869 51.89984 154.3579 51.79735 C 154.2289 51.69482 153.5429 51.44664 152.8335 51.24576 C 152.1241 51.04492 150.8204 50.66733 149.9362 50.40683 L 148.3288 49.93309 L 146.7703 50.78745 C 145.9131 51.25739 144.7896 51.89125 144.2736 52.19617 C 143.7577 52.50108 143.1773 52.82323 142.9838 52.91202 C 142.7903 53.00081 141.5767 53.68666 140.2869 54.43619 C 138.997 55.18575 137.8362 55.84299 137.7072 55.89677 C 137.5782 55.95052 137.0823 56.24243 136.6051 56.54552 C 135.875 57.00929 135.7125 57.26833 135.5782 58.18172 C 135.3938 59.43552 135.5875 61.81602 135.8997 62.13451 C 136.0273 62.26471 140.5299 62.25287 147.1329 62.10507 C 157.9165 61.86366 158.188 61.86888 159.7733 62.34747 C 160.6643 62.61649 161.9211 62.98253 162.566 63.16092 C 163.2109 63.33932 164.0552 63.59734 164.4421 63.73424 C 166.0115 64.28949 167.5476 64.76416 168.5461 65.00235 C 169.1266 65.14082 169.707 65.33528 169.836 65.43445 C 169.965 65.53362 170.651 65.75056 171.3604 65.91664 C 172.0699 66.08275 172.7557 66.29979 172.8847 66.39896 C 173.0137 66.49812 173.5942 66.69249 174.1746 66.83096 C 175.1723 67.06902 176.7046 67.5424 178.2787 68.09895 C 179.6944 68.5995 181.7563 69.03433 182.1232 68.9097 C 182.3304 68.83932 182.8694 68.18457 183.3208 67.45465 C 184.2223 65.99696 184.3614 65.7713 185.9005 63.27077 C 186.4809 62.32768 187.3779 60.892 187.8939 60.08038 C 188.4099 59.26874 188.9579 58.39252 189.112 58.13322 C 190.3433 56.0602 190.9769 55.17099 191.1772 55.2348 C 191.3258 55.28212 191.4117 57.62561 191.4116 61.63 L 191.4116 67.95055 L 190.447 69.38614 C 188.6555 72.05252 187.0731 74.5695 187.0731 74.75272 C 187.0731 74.85289 186.862 75.1297 186.604 75.36789 C 186.3461 75.60611 186.135 75.8866 186.135 75.99121 C 186.135 76.43683 184.6608 78.36108 184.3009 78.38524 C 183.5681 78.43454 182.7357 78.31329 182.5 78.12299 C 182.371 78.0188 181.6322 77.80121 180.8583 77.63942 C 180.0844 77.47762 179.1187 77.19652 178.7122 77.01462 C 178.3058 76.83273 177.7217 76.68391 177.4143 76.68391 C 177.1069 76.68391 176.2547 76.46854 175.5208 76.20532 C 174.7868 75.94215 174.0065 75.72685 173.7867 75.72685 C 173.5669 75.72685 172.6408 75.50301 171.7288 75.22946 C 168.5199 74.267 165.9727 73.5791 163.7385 73.07158 C 162.7466 72.84624 161.2127 72.40936 158.9896 71.71902 C 157.7714 71.34076 156.5985 71.30806 146.8533 71.38066 C 140.3609 71.429 135.9721 71.55281 135.831 71.69165 C 135.4954 72.02179 135.5215 79.45473 135.8594 79.79953 C 136.1263 80.07178 151.6691 80.16061 152.7051 79.89578 C 153.4641 79.7018 154.9197 80.34499 157.0134 81.79948 C 158.078 82.53912 158.9931 83.14423 159.0469 83.14423 C 159.1006 83.14423 159.7561 83.57597 160.5035 84.10362 C 161.2509 84.6313 162.0207 85.1665 162.2141 85.29297 C 162.4076 85.41946 163.0936 85.90363 163.7385 86.36893 C 164.3835 86.83417 165.175 87.34721 165.4974 87.50902 C 166.7054 88.11504 168.9035 89.90602 169.0505 90.40396 C 169.2443 91.06058 169.2986 114.7984 169.1074 115.3067 C 168.8957 115.8695 168.5615 115.7785 167.139 114.7707 C 163.3673 112.0984 162.5407 111.4968 162.277 111.2323 C 162.1181 111.0729 161.8542 110.897 161.6907 110.8415 C 161.4601 110.7632 161.3782 108.9054 161.3259 102.566 L 161.2583 94.39154 L 160.2705 93.65868 C 159.7272 93.2556 158.11 92.15158 156.6767 91.20535 C 155.2434 90.25912 153.8715 89.35165 153.628 89.18886 C 152.0777 88.15215 152.224 88.16859 144.0255 88.11342 C 136.4874 88.06267 136.1225 88.08066 135.8082 88.51926 C 135.452 89.01619 135.3299 94.01944 135.661 94.55043 C 135.7816 94.74384 137.25 94.85594 140.4064 94.91269 L 144.9772 94.99492 L 147.7808 96.48819 C 149.3228 97.30949 150.6894 98.08859 150.8178 98.21951 C 150.9461 98.35043 151.2257 98.45761 151.439 98.45761 C 151.6524 98.45761 152.1241 98.73857 152.4873 99.08197 L 153.1476 99.70638 L 153.1664 109.0716 L 153.1853 118.4368 L 151.5436 120.6342 C 150.6408 121.8428 149.4799 123.4306 148.964 124.1627 C 146.9526 127.0169 145.9744 128.2469 145.7158 128.2469 C 145.5525 128.2469 145.4232 127.7281 145.3877 126.9309 C 145.3556 126.2072 145.1709 122.6379 144.9773 118.9993 C 144.7837 115.3607 144.6254 110.5639 144.6254 108.3397 C 144.6254 105.5135 144.5407 104.2094 144.344 104.0087 C 143.9485 103.6052 136.1561 103.6052 135.7606 104.0087 C 135.5467 104.2269 135.4792 108.6421 135.4792 122.4185 C 135.4792 134.4225 135.3988 140.5918 135.2412 140.6913 C 135.1102 140.7738 134.8472 141.1839 134.6566 141.6026 C 134.4659 142.0214 133.8828 143.1176 133.3608 144.0388 C 132.8387 144.96 132.2503 146.0368 132.0532 146.4315 C 131.856 146.8264 131.4424 147.58 131.1341 148.1064 C 130.8257 148.6328 130.4116 149.3865 130.2138 149.7814 C 130.016 150.1762 129.427 151.2529 128.9049 152.174 C 128.3829 153.0952 127.7945 154.1719 127.5973 154.5667 C 127.4002 154.9615 126.9866 155.7152 126.6783 156.2416 C 126.3699 156.768 125.9557 157.5218 125.7578 157.9165 C 125.5599 158.3113 125.1362 159.065 124.8162 159.5915 C 124.4962 160.1179 123.9416 161.1608 123.5835 161.9091 C 122.8202 163.5047 122.184 163.8204 121.2472 163.0685 C 120.914 162.8011 120.532 162.5823 120.3983 162.5823 C 120.2646 162.5823 119.9689 162.4102 119.7412 162.2 C 119.5135 161.9897 119.2149 161.8884 119.0778 161.9749 C 118.5258 162.3229 118.551 162.3681 123.095 169.1928 C 124.07 170.6572 124.9072 171.9554 124.9554 172.0779 C 125.0624 172.3493 128.7434 177.967 128.9243 178.135 C 128.9952 178.2008 129.6231 179.1429 130.3198 180.2286 C 131.0164 181.3143 131.6972 182.2009 131.8326 182.1989 C 132.3958 182.1905 132.6125 181.9154 135.3165 177.776 C 135.6603 177.2496 136.0233 176.7114 136.1228 176.5798 C 136.2224 176.4482 137.0393 175.2098 137.938 173.8281 C 138.8368 172.4463 139.6277 171.2619 139.6956 171.1961 C 139.7635 171.1304 140.1234 170.6189 140.4953 170.0596 C 141.2749 168.8871 141.1031 168.9481 143.6646 168.934 C 144.7648 168.9279 145.6667 168.8173 145.7065 168.6837 C 145.7457 168.5522 145.2354 168.0138 144.5724 167.4874 C 142.2956 165.6796 140.2724 163.5796 139.6937 162.4238 C 139.1878 161.4134 139.1184 160.9776 139.1467 158.9933 C 139.1708 157.298 139.305 156.3986 139.6743 155.4552 C 139.9467 154.7594 140.1696 153.9489 140.1696 153.654 C 140.1696 153.3592 140.3279 152.8874 140.5213 152.6056 C 140.7152 152.3231 140.9732 151.1059 141.0962 149.8922 C 141.219 148.6815 141.3602 147.6494 141.4099 147.5986 C 141.6277 147.3766 142.7326 148.863 145.231 152.7392 C 146.7038 155.024 147.9087 156.9271 147.9087 156.9683 C 147.9087 157.0095 148.9113 158.5668 150.1366 160.429 C 151.3619 162.2911 152.3645 163.8717 152.3645 163.9415 C 152.3645 164.0114 152.6283 164.3884 152.9508 164.7794 C 153.7912 165.7984 153.6899 166.5426 152.468 168.3249 C 151.8817 169.1803 150.7227 170.903 149.8925 172.1532 C 149.0624 173.4034 147.5457 175.6645 146.5219 177.1779 Z" fill-rule="evenodd" fill="#000000" fill-opacity="1" stroke="#000000" stroke-opacity="1" stroke-width="0.1" stroke-linecap="round" stroke-linejoin="round"/>
<path id="path_6cc3beea553bef9530d30b57d4f943eb" d="M 101.9316 107.2489 C 101.9036 110.4905 101.8126 110.9995 101.5328 111.3263 C 100.8777 112.0919 95.19141 115.9244 94.71066 115.9244 C 94.2933 115.9244 94.26672 115.4114 94.10373 104.2099 C 93.91345 91.136 93.81262 92.06958 95.55508 90.78067 C 96.70459 89.9304 100.2266 87.26074 105.9632 82.89151 L 108.4587 80.9908 L 115.1488 80.9908 C 118.8284 80.9908 122.0058 81.05614 122.2098 81.136 C 122.5237 81.25893 122.5808 81.79855 122.5808 84.64642 C 122.5808 87.22546 122.5026 88.09981 122.2461 88.38934 C 121.961 88.71106 121.4999 88.74365 119.1387 88.60907 C 113.2891 88.27563 112.207 88.3363 110.9845 89.06619 C 109.3033 90.06995 109.2144 90.12646 107.4116 91.33871 C 106.4851 91.96167 105.4562 92.59732 105.125 92.75127 C 104.7939 92.90523 104.5229 93.11429 104.5229 93.21591 C 104.5229 93.31752 104.3049 93.47124 104.0385 93.55751 C 103.7721 93.64381 103.1916 94.03908 102.7486 94.43587 L 101.9432 95.15739 L 101.9433 103.002 C 101.9433 104.7842 101.9409 106.1684 101.9316 107.2489 Z" fill-rule="evenodd" fill="#782F40" fill-opacity="1" stroke="#782F40" stroke-opacity="1" stroke-width="0.1" stroke-linecap="round" stroke-linejoin="round"/>
<path id="path_4135d1bbe8c172be679af2044dacab44" d="M 122.5405 69.19728 C 122.5326 70.80818 122.462 71.63649 122.3232 71.80722 C 122.1029 72.07803 120.3109 72.14145 112.4091 72.15799 C 101.5534 72.18071 101.153 72.21439 97.4874 73.41301 C 96.90695 73.6028 95.64053 73.99573 94.67319 74.28618 C 92.20261 75.02798 90.98325 75.40579 89.63104 75.8486 C 88.98611 76.05978 88.03629 76.33789 87.52036 76.46664 C 87.00449 76.5954 86.24979 76.85849 85.84335 77.05127 C 85.43689 77.24406 84.85645 77.40245 84.5535 77.40326 C 84.25052 77.40405 83.69843 77.56653 83.32669 77.76434 C 82.95493 77.96217 82.21616 78.18959 81.68503 78.26971 C 81.15393 78.34984 80.50827 78.54686 80.25034 78.70758 C 79.9924 78.86832 79.45279 79.06534 79.05124 79.14537 C 78.45554 79.26411 78.2074 79.16966 77.70282 78.63232 C 77.3627 78.2701 77.08441 77.90231 77.08441 77.81493 C 77.08441 77.67917 75.45258 75.12582 74.90894 74.411 C 74.80878 74.27931 74.39053 73.63326 73.97949 72.97525 C 73.56848 72.31728 73.17084 71.72501 73.09583 71.65921 C 73.02078 71.59343 72.73676 71.14716 72.46463 70.66748 C 72.00754 69.86172 71.95685 69.29538 71.7988 63.22627 C 71.68958 59.03294 71.71109 56.50522 71.85822 56.23698 C 72.05554 55.87732 72.24585 56.04611 73.1795 57.40875 C 73.77942 58.28436 74.2702 59.04135 74.2702 59.09097 C 74.2702 59.14061 75.24637 60.67958 76.43948 62.51091 C 77.63257 64.34225 78.71426 66.00674 78.84326 66.20979 C 80.12384 68.22571 80.99179 69.34059 81.40118 69.49536 C 81.87991 69.67639 82.52243 69.52403 86.34781 68.32251 C 87.25067 68.03894 88.36002 67.70984 88.81299 67.5912 C 89.26599 67.47258 90.02774 67.20882 90.50574 67.00504 C 90.98376 66.80128 91.61569 66.63391 91.91006 66.6331 C 92.20444 66.63229 92.72839 66.4809 93.0744 66.29672 C 93.42041 66.11253 94.05362 65.89209 94.48148 65.80684 C 94.90936 65.72157 95.62885 65.50563 96.08029 65.32695 C 96.53171 65.14825 97.69257 64.76804 98.65997 64.48196 C 99.62735 64.19589 100.8937 63.78587 101.4742 63.57072 C 102.3875 63.23222 103.8705 63.17859 112.4965 63.17235 L 122.4635 63.1651 L 122.5277 67.32089 C 122.5388 68.03642 122.5431 68.66032 122.5405 69.19728 Z" fill-rule="evenodd" fill="#782F40" fill-opacity="1" stroke="#782F40" stroke-opacity="1" stroke-width="0.1" stroke-linecap="round" stroke-linejoin="round"/>
<path id="path_925180c0cadd213ab80e64773fc1bfbf" d="M 128.2328 130.4889 C 128.2223 130.4397 128.2171 130.3888 128.2171 130.3364 L 128.2171 99.91095 L 117.4615 99.91095 L 117.4615 108.6928 C 117.4615 109.5323 116.1251 109.9549 113.4524 109.9549 C 110.9305 109.9549 109.6588 109.5146 109.6588 108.6341 L 109.6588 98.64297 L 109.6803 98.64297 C 109.6803 97.80356 110.952 97.38089 113.4739 97.38089 L 132.2262 97.38089 C 134.7481 97.38089 136.0198 97.80354 136.0198 98.64297 L 136.0198 130.3364 C 136.0198 131.1758 134.7481 131.5984 132.2262 131.5984 C 129.7205 131.5984 128.3894 131.227 128.2328 130.4889 Z" fill-rule="evenodd" fill="#782F40" fill-opacity="1" stroke="#782F40" stroke-opacity="1" stroke-width="0.3527778" stroke-linecap="butt" stroke-linejoin="miter"/>
<path id="path_89f4f4439155c28f67fd3d3688609e7c" d="M 117.3266 120.0075 L 142.2998 120.0075 C 142.5407 120.0075 142.7716 119.6437 142.942 118.9962 C 143.1122 118.3487 143.2079 117.4704 143.2079 116.5547 C 143.2079 115.6389 143.1123 114.7607 142.942 114.1131 C 142.7717 113.4656 142.5407 113.1018 142.2998 113.1018 L 117.3266 113.1018 C 117.0858 113.1018 116.8548 113.4656 116.6844 114.1131 C 116.5142 114.7607 116.4185 115.6389 116.4185 116.5547 C 116.4185 117.4704 116.5142 118.3487 116.6844 118.9962 C 116.8548 119.6437 117.0858 120.0075 117.3266 120.0075 Z" fill-rule="evenodd" fill="#782F40" fill-opacity="1" stroke="#782F40" stroke-opacity="1" stroke-width="0.3527778" stroke-linecap="butt" stroke-linejoin="miter"/>
</defs>
<g>
<use xlink:href="#path_0eced421f5aca3c4616549512667b34c"/>
</g>
<g>
<use xlink:href="#path_ed09079ea345f815416c9b978c2b3f5e"/>
</g>
<g>
<g>
<g>
<g>
<use xlink:href="#path_d6a46e47760ab12b9f0608333d59143c"/>
</g>
<g>
<use xlink:href="#path_13afe11fbe55339f12fd278aed925e1c"/>
</g>
</g>
<g>
<use xlink:href="#path_207c255ec7875d4c1e522e423e408334"/>
</g>
<g>
<g>
<g>
<use xlink:href="#path_6cc3beea553bef9530d30b57d4f943eb"/>
</g>
<g>
<use xlink:href="#path_4135d1bbe8c172be679af2044dacab44"/>
</g>
</g>
<g>
<use xlink:href="#path_925180c0cadd213ab80e64773fc1bfbf"/>
</g>
</g>
</g>
<g>
<use xlink:href="#path_89f4f4439155c28f67fd3d3688609e7c"/>
</g>
</g>
</svg>