<svg xmlns="http://www.w3.org/2000/svg" xmlns:xlink="http://www.w3.org/1999/xlink" viewBox="0 0 364.33 364.33"><defs><style>.cls-1{fill:url(#linear-gradient);}.cls-2{fill:url(#linear-gradient-2);}.cls-3{fill:url(#linear-gradient-3);}</style><linearGradient id="linear-gradient" x1="23.22" y1="182.17" x2="312.92" y2="182.17" gradientUnits="userSpaceOnUse"><stop offset="0" stop-color="#03e1ff"/><stop offset="0.5" stop-color="#00ffa3"/><stop offset="0.86" stop-color="#dc1fff"/></linearGradient><linearGradient id="linear-gradient-2" x1="23.22" y1="128.83" x2="312.92" y2="128.83" xlink:href="#linear-gradient"/><linearGradient id="linear-gradient-3" x1="23.22" y1="182.16" x2="312.92" y2="182.16" xlink:href="#linear-gradient"/></defs><g id="Layer_2" data-name="Layer 2"><g id="Layer_3" data-name="Layer 3"><circle cx="182.17" cy="182.17" r="182.17"/><path class="cls-1" d="M288.59,119.76l-44-44a23.73,23.73,0,0,0-22.62-6.17l-42.72,11A23.39,23.39,0,0,0,173.4,83a23.65,23.65,0,0,0-5,3.81L75.73,179.45a23.67,23.67,0,0,0,0,33.42l75.72,75.72a23.65,23.65,0,0,0,33.43,0l92.68-92.69a23.58,23.58,0,0,0,6.17-10.8l11-42.72h0A23.71,23.71,0,0,0,288.59,119.76Zm1.13,21.31-11,42.73a18.4,18.4,0,0,1-4.81,8.42L181.2,284.91a18.46,18.46,0,0,1-26.07,0L79.41,209.19a18.46,18.46,0,0,1,0-26.06L172.1,90.44a18.31,18.31,0,0,1,8.42-4.81l42.72-11a18.5,18.5,0,0,1,17.64,4.81l44,44A18.48,18.48,0,0,1,289.72,141.07Z"/><path class="cls-2" d="M246.74,117.58a15.91,15.91,0,0,0-22.5,22.5h0a15.91,15.91,0,1,0,22.49-22.5Zm-3.68,18.81a10.7,10.7,0,1,1,0-15.13A10.73,10.73,0,0,1,243.06,136.39Z"/><path class="cls-3" d="M183.84,182.17l22.43-30.38a1.35,1.35,0,0,0-2.17-1.6l-21.93,29.7-21.94-29.7a1.35,1.35,0,0,0-2.17,1.6l22.43,30.38-22.43,30.37a1.35,1.35,0,1,0,2.17,1.6l21.94-29.7,21.93,29.7a1.35,1.35,0,0,0,1.09.55,1.35,1.35,0,0,0,1.08-2.15Z"/></g></g></svg>