<?xml version="1.0" encoding="utf-8"?>
<!-- Generator: Adobe Illustrator 25.0.1, SVG Export Plug-In . SVG Version: 6.00 Build 0)  -->
<svg version="1.1" id="Layer_1" xmlns="http://www.w3.org/2000/svg" xmlns:xlink="http://www.w3.org/1999/xlink" x="0px" y="0px"
	 viewBox="0 0 500 500" style="enable-background:new 0 0 500 500;" xml:space="preserve">
<style type="text/css">
	.st0{fill:url(#SVGID_1_);}
	.st1{fill:url(#SVGID_2_);}
	.st2{fill:url(#SVGID_3_);}
	.st3{fill:url(#SVGID_4_);}
	.st4{fill:url(#SVGID_5_);}
	.st5{fill:url(#SVGID_6_);}
	.st6{fill:url(#SVGID_7_);}
	.st7{fill:url(#SVGID_8_);}
	.st8{fill:url(#SVGID_9_);}
</style>
<g>
	<g>
		<linearGradient id="SVGID_1_" gradientUnits="userSpaceOnUse" x1="59.3405" y1="66.3501" x2="433.1596" y2="426.4258">
			<stop  offset="0" style="stop-color:#00A995"/>
			<stop  offset="0" style="stop-color:#3C3795"/>
			<stop  offset="0.5056" style="stop-color:#A53594"/>
			<stop  offset="1" style="stop-color:#DA2128"/>
		</linearGradient>
		<circle class="st0" cx="250" cy="250" r="25"/>
	</g>
	<g>
		<linearGradient id="SVGID_2_" gradientUnits="userSpaceOnUse" x1="59.3313" y1="66.3596" x2="433.1504" y2="426.4353">
			<stop  offset="0" style="stop-color:#00A995"/>
			<stop  offset="0" style="stop-color:#3C3795"/>
			<stop  offset="0.5056" style="stop-color:#A53594"/>
			<stop  offset="1" style="stop-color:#DA2128"/>
		</linearGradient>
		<path class="st1" d="M250.5,307c-31.15,0-56.5-25.35-56.5-56.5s25.35-56.5,56.5-56.5s56.5,25.35,56.5,56.5
			c0,9.89-2.59,19.62-7.5,28.15c-1.79,3.11-5.77,4.18-8.88,2.39c-3.11-1.79-4.18-5.76-2.39-8.88c3.77-6.56,5.77-14.05,5.77-21.66
			c0-23.99-19.51-43.5-43.5-43.5c-23.99,0-43.5,19.51-43.5,43.5c0,23.99,19.51,43.5,43.5,43.5c8.04,0,15.9-2.21,22.71-6.39
			c3.06-1.88,7.06-0.92,8.94,2.14c1.88,3.06,0.92,7.06-2.14,8.94C271.15,304.13,260.95,307,250.5,307z"/>
	</g>
	<g>
		<linearGradient id="SVGID_3_" gradientUnits="userSpaceOnUse" x1="59.1874" y1="66.509" x2="433.0065" y2="426.5847">
			<stop  offset="0" style="stop-color:#00A995"/>
			<stop  offset="0" style="stop-color:#3C3795"/>
			<stop  offset="0.5056" style="stop-color:#A53594"/>
			<stop  offset="1" style="stop-color:#DA2128"/>
		</linearGradient>
		<path class="st2" d="M250.5,332c-44.94,0-81.5-36.56-81.5-81.5s36.56-81.5,81.5-81.5c18.18,0,35.37,5.85,49.73,16.93
			c2.84,2.19,3.37,6.27,1.18,9.12c-2.19,2.84-6.27,3.37-9.12,1.18c-12.06-9.3-26.52-14.22-41.79-14.22
			c-37.77,0-68.5,30.73-68.5,68.5c0,37.77,30.73,68.5,68.5,68.5c37.77,0,68.5-30.73,68.5-68.5c0-13.43-3.88-26.43-11.23-37.59
			c-1.97-3-1.14-7.03,1.86-9c3-1.97,7.03-1.14,9,1.86c8.74,13.29,13.37,28.76,13.37,44.74C332,295.44,295.44,332,250.5,332z"/>
	</g>
	<g>
		<linearGradient id="SVGID_4_" gradientUnits="userSpaceOnUse" x1="59.3313" y1="66.3596" x2="433.1504" y2="426.4353">
			<stop  offset="0" style="stop-color:#00A995"/>
			<stop  offset="0" style="stop-color:#3C3795"/>
			<stop  offset="0.5056" style="stop-color:#A53594"/>
			<stop  offset="1" style="stop-color:#DA2128"/>
		</linearGradient>
		<path class="st3" d="M250.5,357C191.78,357,144,309.22,144,250.5c0-9.45,1.24-18.82,3.68-27.86c0.94-3.47,4.5-5.52,7.97-4.58
			c3.47,0.94,5.52,4.51,4.58,7.97c-2.15,7.93-3.23,16.17-3.23,24.47c0,51.56,41.94,93.5,93.5,93.5c51.56,0,93.5-41.94,93.5-93.5
			c0-51.56-41.94-93.5-93.5-93.5c-33.82,0-65.11,18.35-81.65,47.9c-1.75,3.13-5.72,4.25-8.85,2.5c-3.13-1.75-4.25-5.71-2.5-8.85
			C176.35,164.9,211.98,144,250.5,144c58.72,0,106.5,47.78,106.5,106.5C357,309.22,309.22,357,250.5,357z"/>
	</g>
	<g>
		<linearGradient id="SVGID_5_" gradientUnits="userSpaceOnUse" x1="59.3144" y1="66.3771" x2="433.1335" y2="426.4529">
			<stop  offset="0" style="stop-color:#00A995"/>
			<stop  offset="0" style="stop-color:#3C3795"/>
			<stop  offset="0.5056" style="stop-color:#A53594"/>
			<stop  offset="1" style="stop-color:#DA2128"/>
		</linearGradient>
		<path class="st4" d="M250.5,382c-19.14,0-37.6-4.02-54.86-11.96c-3.26-1.5-4.69-5.36-3.19-8.62c1.5-3.26,5.36-4.69,8.62-3.19
			c15.55,7.14,32.18,10.77,49.43,10.77c65.34,0,118.5-53.16,118.5-118.5c0-65.34-53.16-118.5-118.5-118.5
			C185.16,132,132,185.16,132,250.5c0,37.79,18.27,73.63,48.87,95.89c2.9,2.11,3.54,6.18,1.43,9.08c-2.11,2.9-6.18,3.54-9.08,1.43
			C139.27,332.21,119,292.43,119,250.5c0-72.51,58.99-131.5,131.5-131.5c72.51,0,131.5,58.99,131.5,131.5
			C382,323.01,323.01,382,250.5,382z"/>
	</g>
	<g>
		<linearGradient id="SVGID_6_" gradientUnits="userSpaceOnUse" x1="59.3313" y1="66.3596" x2="433.1504" y2="426.4353">
			<stop  offset="0" style="stop-color:#00A995"/>
			<stop  offset="0" style="stop-color:#3C3795"/>
			<stop  offset="0.5056" style="stop-color:#A53594"/>
			<stop  offset="1" style="stop-color:#DA2128"/>
		</linearGradient>
		<path class="st5" d="M250.5,407C164.21,407,94,336.79,94,250.5C94,164.21,164.21,94,250.5,94C336.79,94,407,164.21,407,250.5
			c0,6.15-0.36,12.34-1.07,18.41c-0.42,3.57-3.64,6.12-7.21,5.7c-3.57-0.42-6.12-3.65-5.7-7.21c0.65-5.57,0.98-11.26,0.98-16.9
			c0-79.13-64.37-143.5-143.5-143.5S107,171.37,107,250.5S171.37,394,250.5,394c31.6,0,61.57-10.07,86.68-29.12
			c24.3-18.44,42.41-44.62,50.98-73.71c1.02-3.44,4.63-5.41,8.07-4.4c3.44,1.02,5.41,4.63,4.4,8.07
			c-9.36,31.73-29.1,60.28-55.59,80.39C317.65,396.01,284.96,407,250.5,407z"/>
	</g>
	<g>
		<linearGradient id="SVGID_7_" gradientUnits="userSpaceOnUse" x1="59.35" y1="66.3402" x2="433.1691" y2="426.4159">
			<stop  offset="0" style="stop-color:#00A995"/>
			<stop  offset="0" style="stop-color:#3C3795"/>
			<stop  offset="0.5056" style="stop-color:#A53594"/>
			<stop  offset="1" style="stop-color:#DA2128"/>
		</linearGradient>
		<path class="st6" d="M250.5,432C150.42,432,69,350.58,69,250.5C69,150.42,150.42,69,250.5,69c9.08,0,18.2,0.68,27.11,2.01
			c3.55,0.53,6,3.84,5.46,7.39c-0.53,3.55-3.83,5.99-7.39,5.46C267.41,82.63,258.94,82,250.5,82C157.59,82,82,157.59,82,250.5
			S157.59,419,250.5,419S419,343.41,419,250.5c0-37.05-11.79-72.19-34.09-101.64c-21.59-28.5-52.24-49.77-86.32-59.9
			c-3.44-1.02-5.4-4.64-4.38-8.08c1.02-3.44,4.64-5.4,8.08-4.38c36.71,10.91,69.73,33.82,92.98,64.51
			C419.3,172.74,432,210.6,432,250.5C432,350.58,350.58,432,250.5,432z"/>
	</g>
	<g>
		<linearGradient id="SVGID_8_" gradientUnits="userSpaceOnUse" x1="59.2883" y1="66.4042" x2="433.1074" y2="426.4799">
			<stop  offset="0" style="stop-color:#00A995"/>
			<stop  offset="0" style="stop-color:#3C3795"/>
			<stop  offset="0.5056" style="stop-color:#A53594"/>
			<stop  offset="1" style="stop-color:#DA2128"/>
		</linearGradient>
		<path class="st7" d="M250.5,457c-42.51,0-83.35-12.82-118.08-37.07c-33.94-23.7-59.74-56.56-74.6-95.02
			c-1.29-3.35,0.37-7.11,3.72-8.41c3.35-1.29,7.11,0.37,8.41,3.72c13.93,36.04,38.11,66.84,69.92,89.05
			C172.4,431.99,210.66,444,250.5,444C357.2,444,444,357.2,444,250.5S357.2,57,250.5,57S57,143.8,57,250.5
			c0,15.72,1.89,31.36,5.62,46.48c0.86,3.49-1.27,7.01-4.75,7.87c-3.49,0.85-7.01-1.27-7.87-4.76c-3.98-16.14-6-32.82-6-49.59
			C44,136.64,136.64,44,250.5,44S457,136.64,457,250.5S364.36,457,250.5,457z"/>
	</g>
	<g>
		<linearGradient id="SVGID_9_" gradientUnits="userSpaceOnUse" x1="59.3313" y1="66.3596" x2="433.1504" y2="426.4353">
			<stop  offset="0" style="stop-color:#00A995"/>
			<stop  offset="0" style="stop-color:#3C3795"/>
			<stop  offset="0.5056" style="stop-color:#A53594"/>
			<stop  offset="1" style="stop-color:#DA2128"/>
		</linearGradient>
		<path class="st8" d="M250.5,482c-61.84,0-119.97-24.08-163.7-67.8S19,312.34,19,250.5S43.08,130.53,86.8,86.8S188.66,19,250.5,19
			s119.97,24.08,163.7,67.8S482,188.66,482,250.5c0,83.7-45.4,161.13-118.49,202.09c-3.13,1.76-7.09,0.64-8.85-2.49
			c-1.76-3.13-0.64-7.09,2.49-8.85C426.14,402.59,469,329.5,469,250.5c0-58.36-22.73-113.23-64-154.5s-96.14-64-154.5-64
			S137.27,54.73,96,96s-64,96.14-64,154.5S54.73,363.73,96,405s96.14,64,154.5,64c29.48,0,58.08-5.77,85-17.15
			c3.3-1.4,7.12,0.15,8.52,3.46c1.4,3.31-0.15,7.12-3.46,8.52C312.03,475.89,281.73,482,250.5,482z"/>
	</g>
</g>
</svg>
