<svg width="300" height="300" viewBox="0 0 300 300" fill="none" xmlns="http://www.w3.org/2000/svg">
<path d="M149.904 0L279.808 75V225L149.904 300L20 225V75L149.904 0Z" fill="white"/>
<path fill-rule="evenodd" clip-rule="evenodd" d="M149.904 32.3316L48 91.1658V208.834L149.904 267.668L251.808 208.834V91.1658L149.904 32.3316ZM279.808 75L149.904 0L20 75V225L149.904 300L279.808 225V75Z" fill="url(#paint0_linear_34_36)"/>
<path d="M165.654 221.5C156.779 221.5 148.591 219.875 141.091 216.625C133.716 213.25 127.654 208.5 122.904 202.375L139.779 182.125C146.904 191.75 155.029 196.562 164.154 196.562C176.529 196.562 182.716 189.312 182.716 174.812V112.375H136.591V88H212.904V173.125C212.904 189.25 208.904 201.375 200.904 209.5C192.904 217.5 181.154 221.5 165.654 221.5Z" fill="url(#paint1_linear_34_36)"/>
<path d="M90.3014 170.937H113.233V179.649H79.5016V127.013H90.3014V170.937Z" fill="black"/>
<path d="M130.261 161.104V179.649H119.461V127.013H139.908C143.844 127.013 147.3 127.736 150.276 129.182C153.276 130.628 155.58 132.689 157.188 135.364C158.796 138.015 159.6 141.04 159.6 144.438C159.6 149.596 157.836 153.669 154.308 156.657C150.804 159.621 145.944 161.104 139.728 161.104H130.261ZM130.261 152.319H139.908C142.764 152.319 144.936 151.644 146.424 150.294C147.936 148.945 148.692 147.017 148.692 144.51C148.692 141.931 147.936 139.847 146.424 138.256C144.912 136.665 142.824 135.846 140.16 135.798H130.261V152.319Z" fill="black"/>
<defs>
<linearGradient id="paint0_linear_34_36" x1="279.578" y1="75.0988" x2="4.10347" y2="185.25" gradientUnits="userSpaceOnUse">
<stop stop-color="#C200FB"/>
<stop offset="0.489658" stop-color="#3772FF"/>
<stop offset="0.489758" stop-color="#3773FE"/>
<stop offset="1" stop-color="#5AC4BE"/>
</linearGradient>
<linearGradient id="paint1_linear_34_36" x1="212.824" y1="121.419" x2="111.916" y2="152.829" gradientUnits="userSpaceOnUse">
<stop stop-color="#C200FB"/>
<stop offset="0.489658" stop-color="#3772FF"/>
<stop offset="0.489758" stop-color="#3773FE"/>
<stop offset="1" stop-color="#5AC4BE"/>
</linearGradient>
</defs>
</svg>
