<?xml version="1.0" encoding="UTF-8"?>
<!DOCTYPE svg PUBLIC "-//W3C//DTD SVG 1.1//EN" "http://www.w3.org/Graphics/SVG/1.1/DTD/svg11.dtd">
<!-- Creator: CorelDRAW X8 -->
<svg xmlns="http://www.w3.org/2000/svg" xml:space="preserve" width="5.90551in" height="5.90551in" version="1.1" style="shape-rendering:geometricPrecision; text-rendering:geometricPrecision; image-rendering:optimizeQuality; fill-rule:evenodd; clip-rule:evenodd"
viewBox="0 0 5906 5906"
 xmlns:xlink="http://www.w3.org/1999/xlink">
 <defs>
  <style type="text/css">
   <![CDATA[
    .fil0 {fill:none}
    .fil1 {fill:url(#id0)}
   ]]>
  </style>
  <linearGradient id="id0" gradientUnits="userSpaceOnUse" x1="3392.45" y1="2714.57" x2="2013.14" y2="3186.83">
   <stop offset="0" style="stop-opacity:1; stop-color:#83189C"/>
   <stop offset="1" style="stop-opacity:1; stop-color:#E202D4"/>
  </linearGradient>
 </defs>
 <g id="Layer_x0020_1">
  <metadata id="CorelCorpID_0Corel-Layer"/>
  <rect class="fil0" width="5906" height="5906"/>
  <path class="fil1" d="M2353 2301c-66,20 -85,40 -139,95l0 0 -16 16 223 222 230 -229 -32 -33c-27,-27 -50,-50 -85,-69 -12,-6 -23,-12 -34,-18 -5,-19 -2,-41 7,-63 17,-44 114,-128 151,-165 43,-43 294,-300 317,-315 101,85 193,204 293,289 45,39 99,103 142,148 77,80 -18,150 27,221 59,94 139,4 216,32 42,15 117,102 153,138 48,48 96,97 145,145 53,53 117,94 119,172 3,90 -53,123 -111,181 -48,48 -96,97 -145,145 -28,28 -121,130 -150,140 -97,36 -144,-61 -221,35 -54,68 49,150 -30,227 -64,62 -405,413 -442,435l-315 -309c-77,-77 -179,-150 -148,-248 48,-16 83,-46 138,-111l7 -7 -234 -234 -227 226c20,20 41,42 63,60l0 1 0 0c30,26 63,48 99,59 0,128 7,161 99,252 56,56 112,112 169,169 56,56 112,113 168,169 39,37 128,153 178,159 46,6 74,-33 102,-61l423 -423c81,-81 105,-117 106,-236 102,-1 148,-18 219,-89l312 -312c67,-67 93,-124 93,-219 0,-102 -22,-148 -93,-219l-312 -312c-68,-69 -126,-88 -223,-89 0,-133 -11,-146 -102,-236l-423 -423c-30,-31 -57,-70 -106,-62 -46,8 -143,121 -180,158l-338 337c-101,102 -84,161 -93,251zm-166 122l-233 231 224 224 232 -233 -223 -222zm-244 242l-29 29c-21,21 -42,46 -52,62 -52,80 -54,198 -1,273 13,18 50,62 75,81l5 5 226 -226 -224 -224zm721 699l54 -54 0 0c51,-50 124,-124 178,-179l-234 -234 -232 233 234 234zm243 -244c25,-26 45,-47 54,-56 58,-57 80,-149 63,-227 -12,-55 -62,-127 -109,-165l-14 -14 -228 228 234 234zm-955 6l123 122 82 83c8,8 16,16 24,25l227 -226 -230 -230 -226 226zm710 -251l228 -228 -228 -231 -230 229 230 230z"/>
 </g>
</svg>
