<svg xmlns="http://www.w3.org/2000/svg" viewBox="0 0 512 512"><defs><style>.cls-1,.cls-5{isolation:isolate;}.cls-2{fill:#fcd116;}.cls-3,.cls-4{fill:#3f3140;}.cls-4{opacity:0.1;}.cls-5{fill:#3b3c3d;opacity:0.2;}.cls-6{opacity:0.9;}.cls-7{fill:#f5d367;}.cls-8{fill:#593928;}.cls-9{fill:#ffcaa6;}.cls-10{fill:#492615;}.cls-11,.cls-14,.cls-15{fill:none;}.cls-12{fill:#3d3030;}.cls-13{fill:#e2c061;mix-blend-mode:overlay;opacity:0.7;}.cls-14{stroke:#845800;stroke-width:7.01px;}.cls-14,.cls-15{stroke-miterlimit:10;}.cls-15{stroke:#ffb000;stroke-width:7.07px;}</style></defs><g class="cls-1"><g id="Layer_2" data-name="Layer 2"><circle class="cls-2" cx="255.7" cy="256.02" r="245.53"/><path class="cls-3" d="M255.7,510.65A254.63,254.63,0,0,1,75.66,76a254.63,254.63,0,0,1,360.09,360.1A253,253,0,0,1,255.7,510.65Zm0-491.07C125.33,19.58,19.27,125.65,19.27,256S125.33,492.46,255.7,492.46,492.14,386.39,492.14,256,386.08,19.58,255.7,19.58Z"/><circle class="cls-4" cx="446.67" cy="256.02" r="9.09"/><circle class="cls-4" cx="64.74" cy="256.02" r="9.09"/><circle class="cls-4" cx="255.7" cy="65.05" r="9.09"/><circle class="cls-4" cx="180.03" cy="80.82" r="9.09"/><circle class="cls-4" cx="79.3" cy="183.27" r="9.09"/><circle class="cls-4" cx="122.04" cy="119.63" r="9.09"/><circle class="cls-4" cx="331.56" cy="80.82" r="9.09"/><circle class="cls-4" cx="432.29" cy="183.27" r="9.09"/><circle class="cls-4" cx="389.55" cy="119.63" r="9.09"/><circle class="cls-4" cx="255.7" cy="446.99" r="9.09"/><circle class="cls-4" cx="180.03" cy="431.22" r="9.09"/><circle class="cls-4" cx="79.3" cy="328.77" r="9.09"/><circle class="cls-4" cx="122.04" cy="392.43" r="9.09"/><circle class="cls-4" cx="331.56" cy="431.22" r="9.09"/><circle class="cls-4" cx="432.29" cy="328.77" r="9.09"/><circle class="cls-4" cx="389.55" cy="392.43" r="9.09"/><path class="cls-5" d="M255.64,19.54C125,19.54,19.2,125.39,19.2,256.08S125,492.52,255.64,492.52c2.06,0,4.05-.28,6.11-.33C133.92,488.93,31.42,384.7,31.42,256.07S133.92,23.12,261.75,19.85c-2.06,0-4.05-.31-6.11-.31Z"/><circle class="cls-4" cx="446.67" cy="256.02" r="9.09"/><circle class="cls-4" cx="64.74" cy="256.02" r="9.09"/><circle class="cls-4" cx="255.7" cy="65.05" r="9.09"/><circle class="cls-4" cx="180.03" cy="80.82" r="9.09"/><circle class="cls-4" cx="79.3" cy="183.27" r="9.09"/><circle class="cls-4" cx="122.04" cy="119.63" r="9.09"/><circle class="cls-4" cx="331.56" cy="80.82" r="9.09"/><circle class="cls-4" cx="432.29" cy="183.27" r="9.09"/><circle class="cls-4" cx="389.55" cy="119.63" r="9.09"/><circle class="cls-4" cx="255.7" cy="446.99" r="9.09"/><circle class="cls-4" cx="180.03" cy="431.22" r="9.09"/><circle class="cls-4" cx="79.3" cy="328.77" r="9.09"/><circle class="cls-4" cx="122.04" cy="392.43" r="9.09"/><circle class="cls-4" cx="331.56" cy="431.22" r="9.09"/><circle class="cls-4" cx="432.29" cy="328.77" r="9.09"/><circle class="cls-4" cx="389.55" cy="392.43" r="9.09"/></g><g id="Layer_3" data-name="Layer 3"><g class="cls-6"><path class="cls-7" d="M319.2,109.07s-79.06-49.56-107.33,70.44c0,0-14,85.47-51.35,96.55-39.17,11.56-48,76.12-4.64,99.56C305.93,456.9,482.66,203.54,319.2,109.07Z"/><path class="cls-8" d="M287.46,372.2c-39.8,22.23-86.85,27.7-131.58,3.42-43.42-23.55-34.53-88,4.64-99.56a15.06,15.06,0,0,0,2.19-.8c-26.76,20.74-28.6,72.06,9.1,92.56C210.72,388.82,251.33,387.45,287.46,372.2Z"/><path class="cls-9" d="M172.12,269.7a36.77,36.77,0,0,1-9.41,5.56A46.71,46.71,0,0,1,172.12,269.7Z"/><path class="cls-8" d="M271.53,380c93.62-52.27,146.4-196.81,31.74-263.13,0,0-25.54-16-52.64-7.87,32.31-22.78,68.68,0,68.68,0C440.29,179.06,374.66,336.3,271.53,380Z"/><path class="cls-10" d="M321.75,104.83c-2.12-1.28-31.58-18.87-62-6.42-29.05,11.92-48,50.89-52.69,80.18-3.75,23-19.73,84.34-47.93,92.7-19.74,5.86-34.18,24.79-36.61,48.19-2.67,25.43,9.23,48.62,31.08,60.39,82.76,44.89,172.23-8.34,212.93-81C405.4,229.4,397.85,148.89,321.75,104.83Zm36.18,189.25c-38.65,69.08-121.75,119.46-199.77,77.29-21.85-11.77-27.69-34-26-50.77,2-18.81,13.26-35,29.66-39.87,31.87-9.49,49.31-67.9,54.82-100.31,9.3-39.43,25-63.88,46.62-72.84,26.3-10.84,53,5.52,53.31,5.63C388,158.34,394.91,228,357.93,294.08Z"/><path class="cls-10" d="M310.26,165.91a8,8,0,1,0-10.64-3.64A8.09,8.09,0,0,0,310.26,165.91Z"/><path class="cls-10" d="M335.82,185.55a8,8,0,1,0,10.64,3.64A8.09,8.09,0,0,0,335.82,185.55Z"/><circle class="cls-10" cx="275.79" cy="219.45" r="7.95"/><circle class="cls-10" cx="223.98" cy="319.65" r="7.95"/><path class="cls-10" d="M169.87,317.13a8,8,0,1,0,10.64,3.64A7.94,7.94,0,0,0,169.87,317.13Z"/><path class="cls-10" d="M298.39,320.8c-3.09,2.6-6.17,5.2-9.42,7.47a4.88,4.88,0,0,0,5,8.31,115.83,115.83,0,0,0,10.85-8.45,4.88,4.88,0,1,0-6.45-7.33Z"/><path class="cls-10" d="M354.71,231.61a5,5,0,0,0-5.72,3.9c-.06.44-7.32,39-38,72.86a4.89,4.89,0,0,0,5.79,7.65c4.83-2.37,35-41.14,41.84-78.68A4.78,4.78,0,0,0,354.71,231.61Z"/></g></g><g id="Layer_4" data-name="Layer 4"><path class="cls-11" d="M27.85,319.18C52.2,406.92,126,474.3,217.19,489.3A247.81,247.81,0,0,1,27.85,319.18Z"/><path class="cls-11" d="M427.66,418.12A235.6,235.6,0,0,0,492.14,256c0-130.37-106.06-236.44-236.44-236.44A236.13,236.13,0,0,0,70.08,109.74C125.48,254.94,277.3,371.31,427.66,418.12Z"/><path class="cls-12" d="M435.75,76A254.63,254.63,0,0,0,75.66,436.07,254.63,254.63,0,0,0,435.75,76ZM264.42,493.83a248.32,248.32,0,0,1-47.23-4.53c-91.21-15-165-82.38-189.34-170.12A247.43,247.43,0,0,1,17,246.35c-.05-32.44,16.77-112.81,50.12-144.77,1,2.73,2,5.45,3,8.16A236.13,236.13,0,0,1,255.7,19.58c130.38,0,236.44,106.07,236.44,236.44a235.6,235.6,0,0,1-64.48,162.1q6.24,1.94,12.47,3.73C406.37,438.32,379,493.41,264.42,493.83Z"/><path class="cls-13" d="M427.66,418.12C277.3,371.31,125.48,254.94,70.08,109.74A236.19,236.19,0,0,0,27.85,319.18,247.81,247.81,0,0,0,217.19,489.3a236.08,236.08,0,0,0,210.47-71.18Z"/><path class="cls-3" d="M70.08,109.74c-1-2.71-2-5.43-3-8.16C33.72,133.54,16.9,213.91,17,246.35a247.43,247.43,0,0,0,10.9,72.83A236.19,236.19,0,0,1,70.08,109.74Z"/><path class="cls-3" d="M255.7,492.46a236.28,236.28,0,0,1-38.51-3.16,248.32,248.32,0,0,0,47.23,4.53c114.58-.42,142-55.51,175.71-72q-6.22-1.78-12.47-3.73A235.8,235.8,0,0,1,255.7,492.46Z"/><ellipse class="cls-14" cx="256.96" cy="255.89" rx="235.18" ry="236.3"/><circle class="cls-15" cx="257.55" cy="255.19" r="237.62"/></g></g></svg>