<?xml version="1.0" encoding="utf-8"?>
<!-- Generator: Adobe Illustrator 24.2.1, SVG Export Plug-In . SVG Version: 6.00 Build 0)  -->
<svg version="1.1" id="Layer_1" xmlns="http://www.w3.org/2000/svg" xmlns:xlink="http://www.w3.org/1999/xlink" x="0px" y="0px"
	 viewBox="0 0 1080 1080" style="enable-background:new 0 0 1080 1080;" xml:space="preserve">
<g>
	<path d="M252.79,390.91c1.07,16.73,2.64,26.54,4.72,29.45c0.62,0.93,3.19,1.74,7.77,2.48c4.55,0.71,9.72,1.19,15.46,1.43
		c5.77,0.24,11.44,0.26,17.03,0.12c5.6-0.17,9.82-0.64,12.65-1.5c2.14-0.69,4.15-7.31,5.98-19.89c1.74-11.76,3.06-23.4,3.96-34.89
		c0.07-0.93,1.19-1.34,1.83-0.67c1.51,1.59,3.6,3.77,6.24,6.56c3.79,3.98,7.86,8.08,12.2,12.25c4.34,4.19,8.51,7.89,12.53,11.1
		c4.03,3.22,7.05,4.84,9.03,4.84c2,0,5.1-1.69,9.27-5.07c4.19-3.36,8.53-7.24,13.06-11.6c4.53-4.38,8.77-8.65,12.72-12.77
		c2.77-2.9,4.94-5.19,6.52-6.85c0.65-0.69,1.78-0.25,1.84,0.7c0.72,12.28,1.98,24.41,3.77,36.41c1.93,12.79,4.03,19.44,6.34,19.89
		c5.67,1.14,15.53,1.48,29.57,0.98c13.75-0.49,21.55-1.62,23.36-3.39c0.08-0.08,0.13-0.15,0.19-0.24c2.03-3.14,3.5-12.77,4.39-28.94
		c0.93-16.37,1.38-34.14,1.38-53.32c0-19.18-0.4-37.02-1.26-53.56c-0.83-16.51-1.98-26.47-3.45-29.85
		c-0.91-1.91-4.41-3.41-10.51-4.48c-6.1-1.07-12.89-1.64-20.37-1.74c-7.48-0.07-14.68,0.43-21.59,1.5
		c-6.89,1.07-11.53,2.76-13.91,5.07c-5.46,5.22-11.72,12.96-18.82,23.23c-6.79,9.88-13.85,20.2-21.11,30.98
		c-0.43,0.64-1.38,0.64-1.81-0.01c-7.15-10.78-14.19-21.1-21.14-30.97c-7.24-10.27-13.56-18.01-18.92-23.23
		c-2.48-2.31-7.08-4-13.87-5.07c-6.79-1.07-13.87-1.6-21.23-1.55c-7.36,0.05-14.13,0.6-20.25,1.67c-6.15,1.07-9.79,2.53-10.94,4.36
		c-1.62,2.55-2.76,12.08-3.45,28.59c-0.69,16.53-1,34.5-0.93,53.84C251.14,356.13,251.71,374.19,252.79,390.91z"/>
	<path d="M503.58,392.23c1.82-2.26,3.95-4.26,6.36-6.03c8.82-6.46,17.62-9.74,26.14-9.74c11.18,0,21.54,6,27.71,16.04
		c0.65,1.04,1.28,2.3,1.97,3.94c0.54,1.29,0.61,2.7,0.23,4c0.99,0.83,1.7,1.98,1.99,3.28c1.23,5.48,1.87,11.76,1.84,18.16
		c-0.01,0.91-0.22,1.79-0.61,2.59c21.45,1.42,40.56-4.24,57.32-17c19.44-14.79,31.16-34.28,35.16-58.44
		c4.36-26.92-1.33-49.94-17.1-69.04c-15.75-19.09-37.84-29.88-66.21-32.33c-23.54-2.08-44.2,4.4-61.95,19.39
		c-17.77,15.01-28.45,33.54-32.04,55.63c-3.84,23.78,1.38,45.43,15.65,64.99C501.18,389.24,502.36,390.76,503.58,392.23z
		 M550.55,332.57c0.9-5.91,3.83-10.8,8.74-14.65c4.91-3.89,10.58-5.29,17.01-4.22c6.84,1.17,12.03,4.05,15.61,8.69
		c3.55,4.65,4.81,10.25,3.74,16.85c-0.86,5-3.05,9.29-6.58,12.89c-3.52,3.62-7.93,5.67-13.22,6.22c-7.67,0.92-14.1-1.36-19.32-6.84
		C551.31,346,549.31,339.71,550.55,332.57z"/>
	<path d="M679.63,392.68c2.69,16.46,6.24,25.61,10.7,27.45c2.84,1.24,7.46,2.24,13.87,3.05c6.41,0.81,13.06,1.29,19.97,1.45
		c20.25,0.29,39.53-3.24,57.87-10.65c18.32-7.41,31.76-21.11,40.26-41.15c7.67-18.01,8.72-37.17,3.17-57.47
		c-5.58-20.27-15.94-36.57-31.12-48.84c-11.6-9.2-25.73-14.99-42.41-17.37c-16.68-2.38-32.19-2.57-46.53-0.57
		c-8.98,1.31-15.65,3.34-20.04,6.1c-4.36,2.69-7.36,12.46-8.96,29.33c-1.62,16.89-2.14,35.09-1.62,54.65
		C675.34,358.23,676.94,376.24,679.63,392.68z M735.31,321.3c0.69-2.38,2.17-3.81,4.43-4.31c2.26-0.5,4.5-0.67,6.74-0.52
		c5.5,0.55,10.79,3,15.82,7.36c5,4.38,7.27,9.67,6.72,15.89c-0.45,5.05-2.76,8.86-6.91,11.44c-4.12,2.57-9.2,3.93-15.18,4.1
		c-3.69,0.14-6.15-0.17-7.36-0.93c-2.69-1.45-4.38-6.27-5.12-14.44C733.71,331.71,734,325.52,735.31,321.3z"/>
	<path d="M359.94,772.38c-2.31-3.36-4.88-5.74-7.72-7.12c-3.07-1.38-6.22-1.55-9.43-0.45c-5.74,1.29-12.58,2.05-20.47,2.24
		c-7.91,0.19-14.25-1.6-18.99-5.36c-3-2.29-4.91-5.48-5.77-9.55c-1.76-8.89,0.64-16.34,7.2-22.37s13.87-9.84,21.92-11.44
		c3.14-0.55,6.39-0.93,9.72-1.17c3.34-0.21,6.69-0.41,10.08-0.57c2.6-0.07,4.91-1.12,6.89-3.1c5.31-5.29,6.74-13.65,4.34-25.09
		c-2.43-11.44-5.48-19.44-9.15-24.04c-3.76-4.6-8.1-7.17-13.01-7.72c-29.45-3.14-54.08,3.38-73.86,19.56
		c-19.8,16.18-31.19,38.67-34.19,67.42c-1.76,18.18,1.64,34.36,10.24,48.56c8.6,14.2,20.99,24.92,37.17,32.21
		c11.96,5.46,25.49,8.22,40.62,8.34c15.1,0.12,28.95-2.12,41.53-6.72c3.91-0.93,6.81-3.84,8.74-8.74c2.38-5.98,2.88-13.58,1.55-22.8
		C366.02,785.27,363.54,777.9,359.94,772.38z"/>
	<path d="M505.99,771.19c-1.72-7.1-3.96-11.1-6.72-12.03c-1.93-0.62-5.48-0.74-10.7-0.41c-5.22,0.33-10.65,0.67-16.3,0.98
		c-5.62,0.31-10.74,0.36-15.3,0.17c-4.57-0.19-7.12-1.17-7.65-2.93c-0.38-1.07-0.67-5.88-0.86-14.44
		c-0.19-8.55-0.38-18.11-0.52-28.71c-0.17-10.58-0.33-20.78-0.52-30.59c-0.19-9.82-0.48-16.53-0.86-20.13
		c-0.31-2.24-4-3.96-11.1-5.19c-7.1-1.22-14.87-1.81-23.3-1.79c-8.43,0.05-16.22,0.79-23.35,2.26c-7.15,1.45-10.86,3.74-11.17,6.89
		c-0.6,5.29-0.98,16.11-1.1,32.45c-0.1,16.34,0.1,33.57,0.6,51.65c0.48,18.11,1.45,34.71,2.86,49.82
		c1.43,15.13,3.43,24.06,6.05,26.83c2.6,2.76,9.46,4.6,20.58,5.5c11.13,0.93,23.21,1.31,36.24,1.17
		c13.06-0.17,25.42-0.67,37.12-1.55c11.7-0.88,19.49-1.83,23.42-2.84c2.6-0.62,4.36-4.38,5.29-11.32c0.91-6.96,1.12-14.56,0.62-22.8
		C508.83,785.93,507.73,778.26,505.99,771.19z"/>
	<path d="M692.21,667.21c-1.14-2.74-5-4.74-11.55-5.98c-6.55-1.22-13.58-1.81-21.06-1.79c-7.48,0.05-14.29,0.67-20.42,1.86
		c-6.15,1.19-9.24,2.81-9.32,4.88c-0.38,5.46-0.41,13.79-0.07,25.09c0.36,11.27,0,22.49-1.02,33.64
		c-1.02,11.17-3.26,20.8-6.67,28.88c-3.41,8.1-9.03,11.67-16.87,10.77c-7.2-0.76-12.2-5.24-15.01-13.41
		c-2.79-8.17-4.41-17.61-4.84-28.3c-0.4-10.7-0.21-21.42,0.64-32.21c0.83-10.77,1.33-19.16,1.5-25.14c0-2.07-2.86-3.79-8.58-5.12
		c-5.72-1.33-12.25-2.19-19.56-2.6c-7.31-0.38-14.39-0.21-21.23,0.48c-6.84,0.69-11.32,2.07-13.46,4.15
		c-2.53,2.53-4.46,8.55-5.74,18.11c-1.31,9.55-2,20.16-2.07,31.81c-0.1,11.67,0.36,23.18,1.31,34.52
		c0.95,11.36,2.55,20.06,4.79,26.11c6.67,18.65,18.65,33.59,36,44.81c17.34,11.25,36.05,16.18,56.16,14.8
		c15.94-1.24,30.11-6.29,42.5-15.2c12.39-8.89,21.8-20.39,28.26-34.5c2.98-6.6,5.29-15.58,6.96-26.92
		c1.64-11.36,2.67-22.94,3.1-34.76c0.43-11.79,0.31-22.73-0.33-32.78C694.95,678.34,693.83,671.29,692.21,667.21z"/>
	<path d="M830.15,731.09l-0.33-0.24c7.67-11.96,9.24-24.78,4.72-38.43c-4.53-13.65-13.51-23.47-26.92-29.45
		c-9.22-4-19.44-6.53-30.66-7.6c-11.25-1.07-21.85-1.1-31.81-0.05c-9.98,1.02-18.46,2.93-25.49,5.69
		c-7.03,2.76-10.86,5.93-11.56,9.53c-1.07,5.69-1.81,16.94-2.19,33.78s-0.36,34.33,0.12,52.46c0.45,18.13,1.41,34.5,2.86,49.08
		c1.48,14.56,3.53,22.4,6.22,23.47c2.84,1.22,8.31,2.07,16.46,2.57c8.12,0.5,16.77,0.79,25.95,0.81c9.15,0.05,17.75-0.02,25.78-0.24
		c8.01-0.19,13.39-0.43,16.15-0.74c13.13-1.22,24.33-6.15,33.59-14.77c9.29-8.65,15.34-18.94,18.18-30.9
		c2.6-10.89,2.29-21.25-0.98-31.07C846.97,745.19,840.28,737.21,830.15,731.09z M763.08,698.07c0.62-2.38,3.29-3.57,8.05-3.57
		c5.29,0.07,9.22,1.33,11.79,3.79c2.57,2.45,3.86,5.19,3.86,8.17c0,4.53-2.24,8.29-6.74,11.27c-4.48,3-8.84,3.81-13.06,2.43
		c-2.22-0.69-3.67-3.74-4.31-9.15C762.04,705.6,762.16,701.28,763.08,698.07z M782.19,787.74c-9.29,2.57-14.84,1.79-16.7-2.36
		c-1.83-3.91-2.74-9.2-2.69-15.82c0.02-6.62,1.36-10.58,3.98-11.79c5.05-2.31,10.6-1.91,16.68,1.22c6.05,3.1,9.58,7.48,10.58,13.18
		C795.41,779.98,791.46,785.17,782.19,787.74z"/>
	<path d="M712.38,488.66c0.46-8.62-0.12-16.55-1.73-23.79c-1.62-7.23-4.62-11.01-9.01-11.31c-11.08-0.7-25.25-1.14-42.49-1.33
		c-17.24-0.19-34.22-0.08-50.92,0.34c-16.7,0.43-31.48,1.18-44.34,2.26h-0.05c-2.82,7.25-6.62,13.71-11.22,19.03
		c-3.77,4.35-8.7,9.06-14.45,13.85c0.32,6.6,0.96,13.05,1.93,19.36c1,6.51,2.24,11.22,3.7,14.15c0.85,1.85,5.39,3.25,13.62,4.21
		c8.24,0.97,18.06,1.56,29.45,1.79c1.31,21.79,3.21,43.32,5.71,64.61c2.5,21.28,5.33,32.62,8.49,34c3,1.31,7.43,2.19,13.28,2.66
		c5.85,0.46,11.76,0.57,17.72,0.34c5.97-0.23,11.34-0.81,16.11-1.73s7.58-2.15,8.43-3.69c2.23-2.93,4.04-14.46,5.43-34.59
		c1.38-20.12,2.19-41.04,2.42-62.75c8.08-0.31,15.36-0.67,21.82-1.1c6.47-0.42,11.16-0.86,14.09-1.33c3.16-0.23,5.83-3.96,8.03-11.2
		C710.59,505.21,711.92,497.28,712.38,488.66z"/>
	<path d="M267.65,620.31c11.96,5.46,25.49,8.22,40.62,8.34c15.11,0.12,28.95-2.12,41.53-6.72c3.91-0.93,6.84-3.84,8.74-8.74
		c2.38-5.98,2.91-13.58,1.55-22.8c-1.33-9.2-3.81-16.56-7.41-22.09c-2.31-3.36-4.88-5.74-7.72-7.12c-3.07-1.38-6.22-1.55-9.43-0.45
		c-5.74,1.29-12.58,2.05-20.47,2.24c-7.91,0.19-14.25-1.6-18.99-5.36c-3-2.29-4.91-5.48-5.77-9.55c-1.76-8.89,0.64-16.34,7.2-22.37
		s13.87-9.84,21.92-11.44c3.14-0.55,6.39-0.93,9.72-1.17c3.34-0.21,6.69-0.41,10.08-0.57c2.6-0.07,4.91-1.12,6.91-3.1
		c5.29-5.29,6.72-13.65,4.31-25.09c-2.43-11.44-5.48-19.44-9.15-24.04c-3.76-4.6-8.1-7.17-13.01-7.72
		c-29.45-3.14-54.08,3.38-73.86,19.56c-19.8,16.18-31.19,38.67-34.19,67.42c-1.76,18.18,1.67,34.36,10.24,48.55
		C239.08,602.3,251.47,613.02,267.65,620.31z"/>
	<path d="M413.65,627.79c1.38-0.31,2.43-0.88,3.12-1.74c1.38-1.36,3.53-5,6.43-10.91c2.91-5.91,5.53-11.29,7.82-16.1
		c1.76-3.77,5.6-5.72,11.5-5.89l18.78,0.12c0.06,0,0.13,0,0.19,0.01c2.34,0.33,4.23,1.37,5.67,3.11c2.45,2.98,4.95,8.48,7.53,16.51
		c2.57,8.01,5.24,12.87,8,14.53c0.84,0.55,1.77,0.89,2.77,1.05c2.52,0.31,8.79,0.17,18.79-0.4c10.01-0.57,18.4-1.43,25.14-2.6
		c4-0.69,6.79-1.93,8.41-3.74c1.6-1.79,1.91-5,0.9-9.6c-1.45-6.29-4.4-17.04-8.83-32.21c-1.62-5.51-3.32-11.1-5.1-16.8
		c-0.33-1.08-0.67-2.16-1.01-3.24c-2.79-8.96-5.79-18.15-8.98-27.54c-0.67-1.98-1.34-3.94-2.02-5.89c-0.49-1.43-0.99-2.85-1.48-4.26
		c-1.64-4.65-3.3-9.19-4.97-13.63c-7.91,3.8-15.38,5.39-19.59,6.03c-0.54,0.08-0.82-0.49-0.61-0.88c0.06-0.1,0.14-0.2,0.26-0.26
		c11.44-5.79,15.99-8.25,17.78-9.26c0.16-0.09,0.29-0.17,0.41-0.23c0,0,0-0.01,0-0.01c0.24-0.14,0.48-0.28,0.72-0.43
		c16.55-9.91,33.35-22.68,42.8-33.59c9.65-11.15,14.15-26.16,15.36-40.03c-5.96-0.66-13.39-1.94-21.6-3.79
		c-1.92-0.43-1.79-3.21,0.16-3.45c6.21-0.78,14.65-1.48,21.82-0.81c0.03-6.27-0.62-12.06-1.69-16.82c-5.07-1.77-12.27-3-18.23-3.8
		c-2.08-0.28-1.99-3.29,0.1-3.49c6.33-0.59,12.02,0.13,16.23,1.02c-0.5-1.19-1-2.24-1.55-3.12c-7.29-11.86-23.76-20.3-45.2-4.6
		c-6.62,4.84-9.98,11.46-11.7,18.97c5.79-1.39,15.14-1.85,27.64,3.37c1.75,0.73,1.3,3.31-0.59,3.38
		c-7.86,0.28-20.39,0.83-28.33,1.75c-0.36,4.22-0.45,8.61-0.45,12.99c9.34,0.09,15.84,2.02,20.28,4.12
		c1.78,0.84,1.01,3.54-0.95,3.32c-7.53-0.86-16.13-0.76-19.33-0.44c0.02,8.55-0.07,15.51-1.94,22.51l0,0.01c0,0-0.16,0.75-0.59,2
		c-0.04,0.13-0.08,0.26-0.12,0.39c-0.37,1.13-0.8,2.2-1.27,3.22c0-0.07-0.01-0.14-0.01-0.21c-0.99,2.08-2.43,4.56-4.47,7.07
		c-1.32,1.62-2.88,3.26-4.74,4.82c-0.42,0.35-0.84,0.69-1.29,1.03c-1.5,1.14-3.16,2.22-5.01,3.19c-0.09,0.05-0.18,0.07-0.27,0.07
		c-0.5,0.02-0.87-0.6-0.46-1.02c1.13-1.17,2.55-2.71,4.09-4.54c1.81-2.16,3.78-4.71,5.6-7.51c2.48-3.82,4.67-8.09,5.83-12.44
		c-1.02-8.15-3.08-13.87-7.06-11.74c-6.37,3.4-11.36,7.24-14.43,9.86c-2.14-0.54-4.58-0.94-7.32-1.2
		c-7.53-0.73-15.35-0.76-23.49-0.07c-7.17,0.61-13.79,1.65-19.86,3.13c-2.5-2.32-8.4-7.37-16.52-11.72
		c-8.5-4.54-8.27,26.71-7.74,41.06c-0.78,2.24-1.59,4.61-2.41,7.11c-4.65,14.12-9.03,29.25-13.18,45.38
		c-4.14,16.15-7.6,31.71-10.34,46.67c-2.76,14.94-4.07,26.16-3.93,33.6c0.09,2.21,0.86,4.1,2.31,5.62c1.62,2,8.27,3.17,19.97,3.53
		C403.09,628.65,410.5,628.48,413.65,627.79z M437.69,524.36c-1.76-1.76-1.76-4.61,0-6.36c1.76-1.76,4.61-1.76,6.36,0l8.47,8.47
		l7.54-7.54L461,518c1.76-1.76,4.61-1.76,6.36,0c0.5,0.5,0.84,1.08,1.05,1.7c0.55,1.58,0.21,3.4-1.05,4.66l-8.47,8.47l8.47,8.47
		c1.76,1.76,1.76,4.61,0,6.36c-0.88,0.88-2.03,1.32-3.18,1.32s-2.3-0.44-3.18-1.32l-8.47-8.47l-8.47,8.47
		c-0.88,0.88-2.03,1.32-3.18,1.32s-2.3-0.44-3.18-1.32c-1.76-1.76-1.76-4.61,0-6.36l8.47-8.47L437.69,524.36z"/>
	<path d="M774.36,449.87c-10.44,2.03-19.73,6.08-27.85,12.13c-13.89,10.36-21.59,23.56-23.13,39.57
		c-1.07,11.89,0.02,21.44,3.29,28.66c3.26,7.2,7.77,12.89,13.51,17.03c7.98,5.88,16.42,9.53,25.33,10.86
		c8.89,1.33,17.82,3.31,26.8,5.93c3.76,1.07,6.05,2.45,6.91,4.12c1.6,3.62,0.5,6.17-3.29,7.67c-3.79,1.48-7.12,1.67-9.96,0.5
		c-2.38-0.91-3.98-2.33-4.84-4.24c-0.29-0.55-0.5-1.07-0.57-1.62c-0.69-2.76-3.55-4.88-8.62-6.39c-5.05-1.5-10.74-2.24-17.03-2.24
		c-3.84,0.07-7.84,0.45-12.01,1.14c-4.19,0.69-8.01,1.83-11.46,3.45c-7.81,3.53-11.03,8.51-9.65,14.96
		c3.22,13.65,11.22,24.97,24.04,33.93c14.87,10.6,32.54,14.87,52.99,12.84c20.44-2.03,36.64-9.98,48.6-23.87
		c10.13-11.75,14.25-25.04,12.37-39.88c-1.88-14.82-9.1-26.85-21.68-36.05c-10.2-7.46-24.13-12.7-41.76-15.77
		c-1.45-0.24-2.88-0.48-4.26-0.74c-1.38-0.29-2.64-0.52-3.79-0.76c-10.82-2.22-13.27-5.36-7.36-9.43c5.91-4.05,10.77-4.6,14.6-1.6
		c1.52,1.22,2.31,2.53,2.36,3.91c0.05,1.38,0.86,2.64,2.48,3.79c1.31,1,2.76,1.43,4.36,1.26c2.62-0.07,6.53-0.57,11.75-1.5
		c5.22-0.91,10.32-2.29,15.3-4.12c4.98-1.86,9.15-4.17,12.48-6.98c3.34-2.79,4.43-6.15,3.29-10.05c-3-10.13-8.43-18.25-16.27-24.33
		c-7.89-6.1-16.7-10.17-26.54-12.2C794.89,447.82,784.77,447.82,774.36,449.87z"/>
</g>
</svg>
