<?xml version="1.0" encoding="utf-8"?>
<!-- Generator: Adobe Illustrator 25.3.0, SVG Export Plug-In . SVG Version: 6.00 Build 0)  -->
<svg version="1.1" id="Capa_1" xmlns="http://www.w3.org/2000/svg" xmlns:xlink="http://www.w3.org/1999/xlink" x="0px" y="0px"
	 viewBox="0 0 916 883" style="enable-background:new 0 0 916 883;" xml:space="preserve">
<g>
	<path d="M520.9,749.5c-9.9,0.3-19.9,0.2-29.8,0.9c-7.7,0.5-15.3,2-22.9,2.8c-2.4,0.2-5.1,0.1-7.2-0.8c-11.2-4.7-22.6-6.6-34.7-4.2
		c-2.3,0.4-5-0.2-7.2-1.1c-6.6-2.5-13.6-3.4-20.4-4.7c-7.2-1.3-14.6-1.9-21.9-3.1c-8-1.3-16-2.9-24.1-4.3c-9.7-1.7-18-6.6-25.9-12
		c-4.6-3.1-9.9-4-14.9-5.9c-7.5-2.9-15-6.2-22.8-8.4c-17.2-4.8-30.1-16.6-44.1-26.5c-3.7-2.6-7.4-5.4-11.1-8.1
		c-10.1-7.1-17-17.2-25.4-25.8c-8.8-9-17.4-18.2-25.8-27.5c-5.6-6.2-10.8-12.8-15.8-19.5c-6.9-9-13.6-18.1-20.1-27.4
		c-3.4-4.9-6.1-10.4-9-15.6c-6.7-12.1-13.5-24.2-18.1-37.3c-2.4-6.9-6.3-13.2-8.6-20.1c-2.3-6.8-3.6-13.9-5.2-20.9
		c-1.2-5.4-2.4-10.8-3.5-16.2c-1.2-5.9-2.3-11.8-3.5-17.7c-4.2-19.7-1.7-39.7-1.7-59.5c0-12.7,1.5-25.4,1.9-38.1
		c0.3-8.1,2.8-16.1,3.5-24.2c0.8-9.4,4.6-18,6.7-27c2.5-10.8,5.4-21.5,8.7-32c1.8-5.9,4.5-11.5,7.3-17c4.9-9.5,10.1-19,15.6-28.2
		c3.9-6.5,6.8-13.7,12.3-19.2c0.9-0.9,1.3-2.7,1.5-4.1c0.4-5.2,3.3-9.1,6.6-12.8c3.8-4.2,7.2-8.8,10.5-13c-0.8-5.9,1.9-9.3,6.2-11.9
		c1.4-0.8,2.4-2.3,3.6-3.4c3.7-3.8,7.3-7.8,11.3-11.4c3.8-3.4,8-6.4,12.3-9.9c0-0.2-0.2-0.9-0.2-0.8c4-3.7,7.5-7.1,11.2-10.4
		c2.5-2.2,5.2-3.9,7.7-6.1c1.5-1.4,2.6-3.2,3.8-4.7c13.3-8.8,26.5-17.7,39.8-26.5c1.1-0.7,2.4-1.1,3.6-1.4c5.1-1.4,9.1-4.6,13-8.1
		c2-1.8,4.6-3,7.1-4.3c4.7-2.5,9.5-4.9,14.3-7.3c4.6-2.2,8.7-5.1,12.7-8.3c4.6-3.7,10.5-6,15.7-9c1.3-0.7,2.5-1.8,3.8-2.6
		c1.9-1.2,3.8-2.5,5.8-3.5c1.8-1,3.8-1.8,6.8-3.1c5.8,0,12.8,0,19.9,0c3.3-6.5,8.8-8.4,15.7-8c2.9,0.2,5.9-0.4,8.8-1
		c8.8-1.8,18-1.1,26.7-3.7c3.9-1.2,8.2-0.7,12.2-1.2c6.3-0.8,12.6-1.7,19-2.6c7.9-1.1,15.8-2.6,23.8-3c3.5-0.2,7.2,1.7,10.8,2.7
		c13.1,3.7,26.2,7.4,39.3,11.1c11.4,3.2,22.8,6.5,34.2,9.9c12,3.5,23.9,7.6,36,10.7c10.8,2.7,19.9,9.1,29.8,13.5
		c6.9,3.1,13.5,7,20.3,10.7c8.6,4.6,17.3,9.1,25.8,14c3.2,1.9,6.2,4.4,8.8,7c9.1,9.2,18.1,18.3,26.8,27.8
		c5.7,6.3,10.8,13.2,16.1,19.9c10.3,13.2,20.5,26.4,30.6,39.7c2.4,3.1,4.3,6.5,6.2,10c3.9,7.4,7.6,14.8,11.3,22.3
		c5.4,11.1,10.6,22.3,16.2,33.2c8.6,16.6,15.2,33.9,21.9,51.2c1.4,3.6,1.7,7.6,2.3,11.5c0.9,6.2,1.5,12.4,2.3,18.5
		c1.2,8.3,2.6,16.5,3.6,24.7c0.5,4.5,0.9,9.2,0.4,13.7c-0.5,4.3-2.3,8.4-3.9,13.8c-1.6-3-3.2-5-3.9-7.3c-1.9-6.5-4.8-12.7-4.5-19.9
		c0.2-3.6-1.3-7.4-2-11c-1.6-8.6-3.1-17.3-4.9-25.9c-1.1-5.2-2.5-10.5-4.4-15.5c-4-10.7-8-21.4-12.6-31.8c-4.4-9.9-9.2-19.7-15-29
		c-7.6-12.2-14.6-24.8-22.2-36.9c-6-9.5-12.5-18.8-18.9-28c-4-5.8-8.2-11.5-12.7-16.9c-3.6-4.2-7.6-8.2-11.9-11.7
		c-10.5-8.5-21.5-16.4-31.9-25.1c-11.1-9.3-22.8-17.7-35.2-24.8c-5.3-3-11.6-4.4-17.3-6.7c-5.4-2.2-10.8-4.5-16.1-7.1
		c-10.2-5.1-19.5-11.6-30.9-14.4c-7.9-1.9-15.3-5.6-22.8-8.7c-10.7-4.4-21.8-7.6-33.2-9.6c-3.9-0.7-7.8-1-11.8-1.2
		c-8.4-0.4-16.9,0-25.3-1.2c-14.1-2-28.3-2.1-42.4-3.2c-8.4-0.6-16.4-0.2-24.4,1.4c-8.6,1.8-17,4.4-25.3,7.3
		c-9.8,3.5-19.4,7.6-29.1,11.5c-9.7,3.9-19.1,8.2-28,13.9c-7.1,4.6-14.8,8.1-22.2,12.2c-8.3,4.5-16.7,8.9-24.9,13.6
		c-10.6,6-21.4,11.8-31.6,18.4c-9.4,6.1-18.3,13-27.1,20c-3.4,2.7-6.2,6.5-8.8,10.2c-7,10-13.6,20.4-20.8,30.3
		c-4.3,6-9.3,11.5-13.9,17.2c-2,2.6-4,5.2-5.6,8c-4.6,7.7-9.2,15.5-13.6,23.3c-3.6,6.2-6.9,12.6-10.4,18.9
		c-4.1,7.4-5.4,15.7-7.9,23.6c-3.1,9.4-6,18.9-8.5,28.5c-1.9,7.1-3.1,14.3-4.5,21.5c-0.8,3.8-1.4,7.7-2,11.6
		c-1.5,9.4-3.1,18.7-1.2,28.4c0.9,4.8,0.3,10,0.2,15c-0.3,10.9-0.4,21.9-1.1,32.8c-0.5,7.3-1.9,14.6-2.6,21.9
		c-0.2,2.3,0.9,4.7,1.4,7.1c1.7,7.3,3.2,14.6,5.3,21.8c2.8,9.3,4.3,19,8.8,27.9c4.2,8.2,7.3,17,11,25.4c1.8,4,3.8,7.9,6,11.7
		c6.3,11,12.6,22.1,19.3,32.9c3.1,5,7.2,9.4,10.7,14.1c6.6,8.9,13.4,17.8,19.7,26.9c6.1,8.7,12.3,17.3,19.9,24.8
		c4,3.9,7.1,8.7,11,12.7c3.3,3.4,6.4,7,10.8,9.4c5.8,3.2,11.1,7.4,16.6,11.1c6.4,4.2,13.4,7.2,20.6,10c6.8,2.6,13.3,6,20.1,8.9
		c7.8,3.3,15.7,6.4,23.5,9.7c11.4,4.9,23.3,8.5,32,14.9c8.4,1.6,15.1,3.4,21.9,3.9c8.6,0.6,16.8,2.5,25.1,4.2
		c7.8,1.6,15.6,3.3,23.3,5.3c9.2,2.4,18.3,3.3,28,1.9c6.7-1,13.8,0.6,20.7,0.8c4.9,0.2,9.8,0.2,14.6-0.1c4.6-0.3,9.1-1.3,13.6-2
		c9.7-1.6,19.3-3.7,29-4.6c9.4-0.9,18.3-3.5,27.4-5.4c8.4-1.8,16.9-3.2,24.6-7.7c9.1-5.2,18.7-9.4,28-14.2
		c6.7-3.4,13.5-6.4,19.8-10.4c7.5-4.7,14.9-9.6,21.5-15.4c11.4-10.2,22.7-20.6,32.8-31.9c9-10,18.4-19.5,27.5-29.3
		c7.5-8.1,14.6-16.7,21.4-25.5c3.2-4.1,5.2-9.1,7.8-13.6c4-7.1,8.3-14,12-21.3c2.8-5.5,4.8-11.4,7.2-17.1c1.7-4.2,3.1-8.6,5.3-12.5
		c3.9-7,5.4-14.6,6.9-22.3c1.9-9.9,4.4-19.7,8.2-29.1c1.7-4.3,2.9-8.6,2.8-13.4c-0.1-10.2-0.1-20.3,0-30.5c0.1-3.7-1-7.1-2.4-10.4
		c-1.4-3.3-2.3-6.7-2.7-10.4c-1-1.2-2.1-2.5-3.4-4c1-1.3,1.8-2.4,2.3-3c8.7-2.8,12.4,3.6,16.7,8.1c3.8,4,7,8.7,9.7,13.5
		c2.1,3.8,4,7.7,3.8,12.7c-0.3,6.3,1.4,12.6,2.2,19c0.3,2.8,0.7,5.6,0.3,8.3c-1,6.4-2.5,12.8-3.7,19.2c-1.1,5.8-2.3,11.5-3.4,17.3
		c-0.2,1.3-0.7,2.6-0.6,3.9c0.8,9.3-2.1,17.8-6,26c-5.2,10.9-10.5,21.7-15.6,32.5c-0.9,1.9-1.5,4-2.1,6c-2.4,8.6-8.6,14.9-13.6,22
		c-5.9,8.4-12.4,16.4-18.7,24.4c-5.2,6.6-10.5,13-15.8,19.5c-5.2,6.3-10.2,12.7-15.8,18.6c-6.4,6.7-13.1,13.2-20.1,19.3
		c-8.3,7.2-17.1,13.8-25.5,20.9c-2.1,1.8-3.8,4.1-5.6,6.2c-4.1,4.8-9.4,7.5-15.1,9.8c-4.4,1.7-8.3,4.5-12.5,6.8
		c-5.2,3-10.3,6.3-15.7,8.9c-12.3,5.9-24.9,11.3-38,15.2c-7.8,2.3-15.3,5.5-22.9,8.4c-6.1,2.3-12,5-18.1,7
		c-4.9,1.6-10.2,2.2-15.3,3.4c-3.2,0.7-6.3,1.6-9.4,2.5C521.1,749,521,749.2,520.9,749.5z"/>
	<path d="M566.9,268.7c-9.6-0.3-18.7-0.6-27.8-1c-3.4-0.1-6.7-2-10.8,0c-0.6,16.4,0.7,33,2.1,50.3c20-2.3,39.8-4.5,60.3-6.8
		c1.4,7.3,2.8,14.4,4.3,21.9c-0.5,0.4-1.2,1.4-2,1.5c-6.8,0.8-13.7,1.4-20.6,2.1c-5.9,0.6-11.7,1.4-17.6,2.1
		c-4.4,0.6-8.7,1.3-13.1,1.8c-3.7,0.5-7.5,0.7-11.3,1.1c-6.2,0.6-12.4,1.3-18.6,1.9c-6,0.6-11.9,1.7-17.5,4.3
		c-4.4,2-9.2,3.2-13.8,4.7c-0.9,0.3-1.9-0.1-2.9-0.1c-1-10.1-1.9-19.8-3-30.4c0.7-0.3,2-1.2,3.2-1.1c3.8,0.1,7.5,0.8,11.3,0.9
		c5.8,0.2,11.6,0,17.6,0c0.2-0.8,0.5-1.4,0.5-2.1c0.4-17.4,0.6-34.8,1.1-52.2c0.2-8.8,0.6-17.5,1-26.3c0.3-7.1,0.6-14.2,1-21.3
		c0.4-6.7,0.9-13.5,0.9-20.6c-14.5,10.4-28.1,21.7-45,29.8c-0.7-2.4-1.7-4.4-1.8-6.5c-0.5-10.2-0.7-20.5-1.1-30.8
		c-0.1-2.1-0.6-4.1-1-6.2c2.7-1.4,4.5-0.3,6.5,1.1c1.7,1.2,3.9,1.6,6.5,2.6c9.1-5.5,18.7-10.8,27.7-16.8
		c20.1-13.4,38.9-28.3,55.7-45.6c3.1-3.2,6.3-6.4,8.8-10c1.6-2.2,3.2-3.5,5.8-3.9c9-1.6,18-3.3,26.9-4.8c0.8-0.1,1.6,0.1,3.3,0.3
		c-2.7,7.9-5.3,15.3-8.1,23.7c1.7,1.6,3.7,3.8,6,5.6c12.3,9.7,26.4,16,41.1,21.2c15.2,5.4,30.5,10.5,45.8,15.7
		c5.8,2,11.7,4.2,17.4,6.4c1.1,0.4,2,1.4,3.1,2.1c-8.3,8.8-16.4,17.3-25,26.4c-13.3-7.5-26.3-14.8-39.6-22.4c-0.1,1.6-0.2,3-0.2,4.4
		c0,10.2,0.1,20.3,0,30.5c-0.2,10.4-0.5,20.8-1,31.3c-0.2,4.7-0.8,9.4-1.3,14.1c0.4,0.3,0.8,0.5,1.1,0.8c1.5-0.7,3.1-1.2,4.4-2.1
		c4.7-3.3,9.2-6.7,13.9-10.1c8.4,4.9,16.6,9.6,26,15c-4.1,1.8-7.2,3.5-10.5,4.5c-4.8,1.6-9.7,2.8-14.5,4.2c-0.6,0.2-1.1,0.7-1.7,1
		c-6.4,3.5-12.8,7.1-19.3,10.3c-6.6,3.2-13.3,6.1-20.2,9.1c1.5,4.3,5.8,4.8,8.8,6.8c8.3,5.6,17.2,10.1,26.8,12.9
		c9,2.5,18.1,5.7,27.7,2.3c0.9-0.3,2,0,3.7,0c-5.1,8.8-7.7,17.7-8.8,26.8c-0.4,3.5,1.3,7.2,2.2,11.3c-2.8,2.5-6.8,1.6-10.3,1.1
		c-11.2-1.7-21-6.8-30.5-12.8c-15.3-9.6-28.4-21.7-40.6-34.8c-11.8-12.7-22.8-26.2-30.7-41.9C568.8,270.9,567.9,269.9,566.9,268.7z
		 M642.3,185.8c-11.5-9-22.8-17.2-33.3-26.2c-10.6-9.1-20.5-18.9-31.1-28.7c-1.2,1.2-2.7,2.4-4,3.9c-7.1,8-13.9,16.3-21.2,24.1
		c-7.5,8-15.5,15.6-23.2,23.4c-1,1-1.8,2.1-2.9,3.4c14.9,0,29.3,0,44.1,0c-1.8-10.9-3.5-21.5-5.2-32.2c8.4-2.5,16.6-1,24.9-1.3
		c-1.2,5.4-5.9,6-9,8.6c1.4,8.3,2.8,16.6,4.2,25C604.4,185.8,623,185.8,642.3,185.8z M624.3,253.7c1.7-6.8,3.4-13.6,5.2-20.9
		c-2.4,0-4-0.1-5.7,0c-8.4,0.3-16.8,0.7-25.2,1c-2.7,0.1-5.3-0.1-8,0.1c-7.2,0.6-14.4,1.5-21.6,1.9c-11.6,0.6-23.1,0.8-34.7,1.2
		c-0.3,0-0.6,0.3-1.6,0.7c-1.8,4.9-3.8,10.3-5.9,16.1C559.6,253.7,591.5,253.7,624.3,253.7z M625.8,204.2c-1.6-0.1-2.6-0.3-3.6-0.3
		c-26.1,0-52.2-0.1-78.2,0.1c-4.4,0-8.7,1-12.9,1.5c-1.4,4.3-2.6,8.2-3.9,12.2c34.5,0,68.2,0,102.3,0
		C628.2,212.9,627,208.7,625.8,204.2z M606.5,291.8c12.5-6.1,24.1-13.5,35.6-21.8c-3.6-1.5-47.3-2-57.2-0.9
		C587.1,275.8,598.9,288.2,606.5,291.8z"/>
	<path d="M483.9,535.9c-2.4-10.4-10.7-13.9-17.1-19.3c-3-2.5-6.2-4.6-10-7.3c4.3-3.9,8.3-7.6,12.4-11c6.6-5.5,13.6-10.6,20.1-16.3
		c8.9-7.9,17.6-16,26.3-24.2c2.5-2.3,4.6-5,6.8-7.5c6.3-7,13.2-13.3,21.3-18.3c7.6-4.7,16.8-3.9,23.8,1.4
		c7.1,5.3,12.4,12.1,17.9,18.9c5.2,6.4,10.6,12.6,15.8,18.9c11.6,14.1,24.8,26.7,37.7,39.6c11.8,11.8,23.5,23.7,35.4,35.3
		c8,7.8,16.3,15.2,24.8,23c-0.2,1,0,2.3-0.6,3.1c-6.7,9.5-13.5,19-20.7,29.1c-4.5-4.8-8.2-9-12-13c-11.5-12-21.6-25.1-31.4-38.5
		c-7.9-10.8-15.4-21.9-23.2-32.8c-7.3-10.2-14.6-20.5-22.3-30.5c-6-7.8-11.6-15.7-16.6-24.1c-1.2-2.1-2.8-4-4.4-5.9
		c-2.8-3.4-6.5-3.8-10.4-2.8c-8.2,2.1-15.2,6.3-21.8,11.6c-13.8,11-24,25.2-34.7,38.9c-2,2.6-3.2,6-4.7,9.1
		c-3.1,6.3-6.2,12.6-9.5,18.8C486.3,533.5,485.2,534.4,483.9,535.9z"/>
	<path d="M424.5,616.9c-3.8,12.4-7.4,24.5-11.4,37.5c-4.1-4.1-7.6-7.4-10.8-10.9c-4.3-4.7-8.4-9.5-12.5-14.4
		c-6.4-7.7-12.9-15.3-19-23.3c-9.6-12.6-19-25.4-28.4-38.1c-5-6.8-9.8-13.9-14.9-20.7c-6.7-8.9-13.5-17.7-20.3-26.5
		c-2.1-2.7-4-5.6-6.3-8.2c-2.7-3-5.7-5.8-8.2-8.4c-9.5-2.1-16,2.9-22,8.2c-10.5,9.4-20,19.9-27.9,31.7c-6.1,9.2-12.8,18.1-19.2,27.2
		c-0.9,1.3-1.3,2.9-2,4.4c-1.6,3.7-3.3,7.4-5,11.3c-4.1-1.9-3-5.7-4.4-8.4c-7.7-5.8-15.5-11.6-23.9-17.9c4.1-3.6,7.9-7.2,11.9-10.5
		c7.2-6.1,14.6-12,21.9-18.1c5.4-4.6,10.9-9,16-13.9c6.8-6.6,13.1-13.6,19.7-20.4c5.8-6,12-11.6,19.4-15.3
		c7.5-3.8,18.8-1.2,25.2,4.9c8.4,8,15.2,17.3,22.4,26.2c5.9,7.2,11.9,14.3,18.1,21.2c6.4,7.2,12.9,14.5,19.7,21.4
		c16.7,17,33.6,33.9,50.5,50.8C416.7,610.2,420.7,613.5,424.5,616.9z"/>
	<path d="M263.7,234c0.7-5.6,1.7-10.8,2-16c0.6-10.1,0.7-20.2,1.1-30.3c0.1-1.9,0.7-3.7,1.2-6c10.4,1.9,20.3,3.7,31.1,5.7
		c-1,1.6-1.7,3-2.6,4.1c-3.5,4.3-7.5,8.2-10.4,12.8c-2.9,4.5-4.1,9.8-2.7,15.4c0.8,2.9,0.7,6,0.9,8.8c24.6,2.5,46.4-3.7,68-15.6
		c-0.7,3.4-1.8,5.5-1.4,7.4c0.6,3.6,2,7.1,3.2,10.6c1,2.7,3.4,5,1.9,9.1c-12.1,1.9-24.6,4.3-37.3,5.6c-12.6,1.3-25.3,1.6-38.2,2.3
		c-1,4.2-2,8.1-2.8,12.1c-1.2,5.8-2.1,11.6-3.3,17.3c-2.5,12.6-5.1,25.2-7.8,37.8c-1.4,6.5-3.1,13-4.9,19.4
		c-4.3,15.4-8.3,30.8-13.2,46c-3.1,9.9-7.5,19.4-11.3,29c-0.2,0.4-0.7,0.7-1.6,1.4c-8.5-6.3-17.1-12.7-25.4-18.9
		c5.8-12.3,11.5-24,16.7-35.8c4.7-10.6,8.8-21.4,13.2-32.1c6.8-16.8,11.2-34.3,16.3-51.6c1.8-6.2,3-12.7,4.3-19.1
		c0.4-1.9,0.1-3.9,0.1-6.7c-8.4,0-16.3-0.9-23.9,0.2c-7.3,1.1-14.3,4.1-22,6.5c-3.5-6.8-7.2-14-11.4-22.3c5.5,0.2,10.3,0.4,15.1,0.7
		c4.9,0.3,9.9,0.7,14.8,0.9c5,0.2,10-0.1,15,0.1C253.1,233.2,258,233.6,263.7,234z"/>
	<path d="M319.3,300.1c1.1-3.8,2.1-7.7,3-11c-3-5-5.8-9.8-8.7-14.6c7.8-2,15.2-3.8,22.6-5.8c12.4-3.3,24.7-6.9,37.2-10
		c11.1-2.8,22.2-5.8,33.7-5.5c3.3,0.1,6.6,1.1,10,1.7c0.7,9.3,3,17.8,3,26.6c-10-0.9-19,0-28.1,1.2c-9.3,1.2-18.4,2.9-27.3,5.3
		c-9.9,2.6-19.6,5.7-29.4,8.6c-5,1.5-9.9,3-14.9,4.5C320.1,300.6,319.7,300.3,319.3,300.1z"/>
	<path d="M414.3,377.8c0,5.2,0,9.7,0,14.5c-1.4,0.1-2.6,0.3-3.9,0.4c-14.8,0-29.6,0.3-44.4-0.1c-7.8-0.2-15.6-2.1-23.4-2.7
		c-4.5-0.3-8.6-1.9-12.8-3c-8.7-2.3-18.6-15.2-18.2-25.1c0.3-7.1-1-14.2-0.8-21.2c0.3-7.6,1.2-15.3,5.4-22.6
		c5.5-0.4,9.8,2.9,14.8,5.3c-7.3,7.9-7.2,16.9-5.6,26.2c0.2,1,0.3,2,0.2,3c-0.5,5.1,0.4,9.8,4,14.6c7.3,7.1,17.4,9.2,27.8,9.7
		c17,0.7,34.1,0.8,51.2,1.1C410.3,377.8,412.1,377.8,414.3,377.8z"/>
	<path d="M663.2,849.2c0,3.4,0,7.3,0,11.3c-1,0.9-2.1,1.9-3,2.7c-2.9-0.6-4.2-2.4-4.3-4.6c-0.4-5.5-0.6-11.1-0.5-16.6
		c0.1-8.4,0.9-16.8,0.9-25.3c0-9.1-0.2-18.2-1.1-27.2c-0.5-5-0.4-9.7,0-14.6c0.5-5.7-0.6-11.5-0.7-17.3c-0.1-2,0.6-4,1-6.1
		c2.1,0,3.6,0,5.5,0c0.4,16.4,0.8,32.8,1.2,50c7.4-5.9,14.1-11.2,20-15.9c8.9-1.2,15.3,1.3,22,5.3c6.1,3.7,11.2,7.8,14.9,13.7
		c3.6,5.7,6.2,12.3,5.9,18.9c-0.3,8.7-3.5,16.7-9.4,23.6c-4.9,5.7-11.3,9.3-17.7,12.5c-4.4,2.2-9.9,2.3-14.7-0.2
		C676.5,856.1,670,852.7,663.2,849.2z M692.1,854c14.1-5.1,24.6-14.5,26-31.7c-1-3.1-1.9-6.4-3.1-9.5c-2-4.9-5-9.3-9.4-12.4
		c-3.2-2.3-6.6-4.2-10.1-6c-4.5-2.4-9.1-2.3-13.3,0.4c-3.3,2.1-6.2,4.8-9.3,7.2c-6.6,4.9-9.1,11.7-8.7,19.6c0.2,3.9,0.2,8,1.2,11.7
		c1.3,5,2.7,10.2,7.9,13C678.8,849.3,683.7,853.6,692.1,854z"/>
	<path d="M281.8,849.4c0,3.6,0,7.2,0,10.9c-1.2,1.1-2.2,2-3.5,3.3c-1.3-1.1-2.4-1.9-3.5-2.8c0-15.7,0.2-31.1-0.1-46.6
		c-0.2-9.5-1.2-19-1.9-28.6c-0.1-0.8-0.2-1.7,0-2.5c1.8-8.2,0.5-16.4,0.1-24.6c-0.1-2.2,0.7-4.4,1.2-6.7c2-0.2,3.4-0.3,4.9-0.5
		c0.3,0.6,0.6,1.1,0.6,1.5c0.1,6.5-0.1,13,0.1,19.6c0.3,9.7,0.7,19.5,1.1,29.5c6.9-5.7,13.6-11.4,19.1-15.9c9.4-1.9,16,0.4,22.1,5
		c1.8,1.3,4.2,1.8,5.9,3.2c8.4,6.4,13.2,14.9,14.8,25.4c1.6,10.7-2.5,19.3-8.7,27.4c-4.6,6-11.2,9.5-17.6,12.5
		c-4.6,2.2-10.1,2.4-15.2-0.3C294.9,855.9,288.6,852.9,281.8,849.4z M308.2,792.8c0-0.2-0.1-0.4-0.1-0.6c-2.7,1-5.6,1.7-8,3.1
		c-2.9,1.7-5.7,3.9-8.2,6.2c-3.7,3.4-7.3,6.8-8.5,12.3c-1.7,7.4-0.4,14.3,1.1,21.4c0.8,3.8,1.9,7.5,5.3,9.7c4.8,3,9.8,5.8,14.9,8.3
		c1.9,0.9,4.7,1.4,6.6,0.7c10.9-4.2,19.5-11,23.6-22.4c1-2.7,2-5.9,1.5-8.6c-0.8-4.6-2.1-9.4-4.3-13.4c-4.5-8.1-12.6-12.1-20.5-16.2
		C310.6,792.8,309.4,792.9,308.2,792.8z"/>
	<path d="M809.7,854c0,2.7,0,4.3,0,6.5c-2.3,0.5-4.6,1.4-7,1.4c-4.3,0.1-8.6-0.3-12.8-0.6c-0.6,0-1.3-0.3-1.9-0.2
		c-7.6,2.2-14.9-0.7-22.2-2c-4.8-0.9-9.6-1.9-13.6-5.1c-4.3-3.6-7.7-7.6-10.2-12.9c-3.7-7.9-4.1-15.9-3.5-24.1
		c0.3-4,1.4-8.2,3.4-11.6c5-8.6,11.6-16,21-19.9c8.8-3.7,18.2-4.1,26.8,0.2c6.1,3.1,11.4,8,14.8,14.3c4.1,7.7,8.1,15.3,7.7,24.4
		c-2,2.5-4.5,2.7-7.2,2.7c-17.4-0.4-34.8-0.7-52.2-1c-1.8,0-3.6,0-6,0c-0.2,2.4-0.9,4.4-0.4,6.1c3.2,10.6,9.6,18,21.1,20
		c4.3,0.7,8.7,1.7,13,2.1c6.1,0.5,12.3,0.8,18.5,0.8C802.2,855.2,805.6,854.5,809.7,854z M746.1,818.8c19.4,0,38.5,0,57.8,0
		c0.1-0.5,0.4-1.3,0.2-1.8c-0.9-2.6-1.8-5.2-3-7.6c-3.4-7.3-7.8-13.9-15.5-17.4c-6.3-2.9-13.1-3.2-19-0.4
		C755.4,796.9,747.7,805.5,746.1,818.8z"/>
	<path d="M427.9,854c1.4,6.1,1.2,6.1-4.8,7.3c-5.4,1.1-10.7,1-16.5-0.2c-5,2.5-10.3-0.1-15.7-0.5c-3.8-0.3-7.6-1.6-11.4-2.6
		c-9.2-2.4-15.3-7.9-19.2-16.8c-2.9-6.5-3.9-13.1-3.9-20.1c0.1-9.7,3.9-17.8,10.3-24.8c4-4.4,8.2-8.7,14-10.8
		c3.2-1.2,6.6-2.1,9.9-2.3c4.4-0.2,9.1-0.4,13.2,0.9c9.2,3,15.8,9.4,20,18.1c2.3,4.8,4.3,9.9,6,15c2.1,6.4-0.5,9.7-7.3,9.6
		c-17.2-0.3-34.5-0.6-51.7-1c-1.8,0-3.6,0-5.9,0c-0.2,2.3-0.8,4.1-0.4,5.7c2.3,8.7,7.1,15.8,15.6,19c6.3,2.4,13.4,4.3,20,3.8
		c5.8-0.4,11.4,0.9,17.1,0.5C420.7,855,424.1,854.5,427.9,854z M422.9,818.8c-0.5-2.1-0.9-4.1-1.6-6.1c-0.5-1.4-1.2-2.6-1.9-3.9
		c-3.7-7-8-13.3-15.5-17c-5.7-2.8-11.8-2.4-17.4-1c-6.9,1.8-11.6,7.3-16.2,12.6c-3.9,4.5-4.8,10.1-6.3,15.3
		C383.5,818.8,402.8,818.8,422.9,818.8z"/>
	<path d="M644.3,862.3c-1.9,0.7-3.7,1.4-5.6,2.2c-1.1-2-1.8-3.2-2.5-4.5c0.2,0,0.4-0.1,0.6-0.1c0-5.5,0-11,0-17.1
		c-3.4,3.1-6.3,6.1-9.5,8.6c-3.1,2.4-6.3,4.7-9.8,6.5c-9.2,4.9-18.8,4.7-27.8-0.2c-6.1-3.3-11.1-8.2-13.6-15
		c-1.7-4.7-3.5-9.4-5.1-14.2c-0.5-1.7-1-3.7-0.6-5.3c2.4-10.6,5.3-21,14-28.4c3.7-3.2,7.7-6.2,11.9-8.7c2.1-1.3,5-1.6,7.6-1.6
		c5.8,0,11.5,0.6,17.3,0.9c0.8,0,1.6,0,2.1,0c4.4,3.3,8.5,6.4,12.6,9.5c0.4-3.1,0.8-6.1,1.2-9.3c2,0,3.4,0,5.1,0
		c0.7,1.9,1.3,3.7,1.9,5.2c-1.3,6.7-1.6,13-0.2,19.4c0.6,2.7,0.1,5.6,0.2,8.5C644.5,832.9,643.9,847,644.3,862.3z M600.8,791.2
		c-2.6,1.9-5.1,3.9-7.8,5.6c-6.8,4.4-11.1,10.6-13.2,18.3c-0.9,3.1-2.8,6.5-2.2,9.4c2.2,11.2,6.3,25.1,22.4,28.9
		c3.5,0.8,6.5,0.9,10-0.3c5.4-1.9,10.1-4.7,14.3-8.4c7.3-6.5,13.4-13.7,12.1-24.6c-0.2-1.5,0-3,0-4.5c0-13.3-11.1-24.4-24.3-24.4
		C608.5,791.2,605,791.2,600.8,791.2z"/>
	<path d="M262.3,863c-1.6,0.5-3.1,0.9-4.6,1.3c-1.2-1.6-2.1-2.9-2.4-3.4c0-6.4,0-12,0-17.9c-0.9,0.5-1.7,0.7-2.1,1.2
		c-5.7,7.6-13.2,12.9-22,15.6c-10.4,3.2-20.2,1.4-28.7-6.5c-8-7.4-10.6-17-13.4-26.7c-0.6-2.1,0.2-4.9,0.9-7.2
		c1.6-5.1,3-10.3,5.4-15c4.3-8.4,11.9-13.9,19.7-18.7c2.3-1.4,5.7-1.4,8.6-1.5c6.1-0.1,12.2,0.3,17.4,0.4c5,3.6,9.2,6.6,13.4,9.7
		c0.4-2.8,0.8-5.9,1.2-8.9c2.2,0,3.6,0,5.1,0c1.3,3.2,2,5.9,1.2,9.6c-0.9,4.2,0,8.8,0.2,13.3c0.1,1.5,0.3,2.9,0.4,4.4
		c0.3,3.3,0.6,6.5,0.9,9.8c0.1,0.8,0.1,1.7,0,2.5c-0.3,12.1-0.7,24.1-1,36.2C262.5,861.7,262.4,862,262.3,863z M195.9,825.5
		c1.1,3,2.9,7.5,4.4,12.1c3.3,10.3,11.5,14.3,21.1,16.6c1.5,0.4,3.4,0.2,4.9-0.2c9.1-2.7,16.4-8.2,22.3-15.3c2.7-3.3,4.6-7.5,6-11.6
		c1.8-5.3,0.1-11,0.1-16.5c0-0.9-0.4-1.9-0.8-2.8c-5.1-10.4-12.6-17.1-24.9-16.6c-3.1,0.1-6.3,0-8.9,0
		C206.2,798,198.1,808.5,195.9,825.5z"/>
	<path d="M107.8,755.6c-1.2-1.4-2.1-2.3-3.1-3.4c0.5-1.3,1-2.5,1.5-3.5c23.6,0,47.1,0,71.1,0c0.1,2.1,0.3,4,0.4,6.5
		c-5.6,0-10.9-0.2-16.2,0c-5.1,0.2-10.2,0.8-15.8,1.3c0.8,16.7,1.2,33.3,0.3,49.9c-0.8,16.3,0.7,32.7,1.7,49.1
		c-0.5,1.4-0.9,2.8-1.4,4.2c-4.6,1.3-7.1-0.7-6.4-5c0.4-2.1,0.3-4.3,0.3-6.5c0.9-6.9,1.2-13.7-0.1-20.6c-0.3-1.3-0.2-2.6-0.2-4
		c0-9.3,0-18.6,0-28c0-9.7,0.1-19.4-0.1-29.1c-0.1-3.3-0.8-6.5-1.2-10.1C128.3,756.2,117.9,755.9,107.8,755.6z"/>
	<path d="M527,860c-1,0.6-2.1,1.3-3.5,2.1c-1.1-0.6-2.4-1.2-3.5-1.8c-0.2-0.6-0.5-0.9-0.5-1.2c-0.4-5.1-0.9-10.2-1-15.3
		c-0.1-3.3,0.8-6.5,0.8-9.8c-0.1-4.9-0.8-9.8-0.8-14.8c0-3.4,0.9-6.9,0.8-10.3c-0.1-6.1-0.7-12.1-1-18.4c-9.9-1.9-19.6-0.2-29.4,0.7
		c-0.9-1.5-1.7-2.7-2.5-4c1.4-2.6,2.8-3.9,6.4-3.7c5.1,0.4,10.4-1,15.6-1.2c3.1-0.1,6.2,0.6,9.4,0.9c2.9-10.4-3-21.1,1.3-31.5
		c1.6,0,3.1,0,5,0c0,10.2,0,20,0,29.8c10.9,3.3,21.6,1.2,32.2,0.5c1,0.9,2,1.8,2.7,2.6c0.3,3.2-1.7,5.3-5.2,5.4c-4.7,0.1-9.3,0-14,0
		c-4.6,0-9.3,0-14.6,0C526.8,813.6,524.9,836.7,527,860z"/>
	<path d="M360.5,450.9c2.7,0.3,5.5,0.7,8.2,1c2.8-2.7,5.3-5.1,8.1-7.8c13.1,9.7,24.6,20.1,32.9,33.7c-2.5,5.2-4.8,10.1-7.5,15.8
		c-12.5-16.8-26.6-30.4-42.8-42C359.8,451.4,360.1,451.2,360.5,450.9z"/>
	<path d="M627.8,399.9c4,0.4,6.9,0.8,11,1.2c1.8-2.4,3.9-5.1,6.3-8.2c13.3,9.3,23.9,20.2,33.5,33.2c-2.2,4.8-4.5,10.1-7.3,16.3
		c-4.6-5.5-8.7-10.6-13.1-15.4c-4.5-4.9-9.2-9.7-14.1-14.1C639.1,408.5,633.7,404.6,627.8,399.9z"/>
	<path d="M371.2,515c-9.8-15-18.7-29.6-32.1-41.3c3-2.9,5.7-5.4,8.5-8c12.6,9.1,23.4,19.8,31.9,32.6
		C376.7,503.8,374.1,509,371.2,515z"/>
	<path d="M617,415.2c20.6,18.3,27.1,25,30.9,32.1c-2.4,5-4.8,10.1-7.9,16.5c-10.2-14.8-18.7-29.6-31.9-40.7
		C611.2,420.5,614,418,617,415.2z"/>
</g>
</svg>
