<svg id="icon-gold" xmlns="http://www.w3.org/2000/svg" xmlns:xlink="http://www.w3.org/1999/xlink" width="50.944" height="50.944" viewBox="0 0 50.944 50.944">
  <defs>
    <radialGradient id="radial-gradient" cx="0.983" cy="0.284" r="1.148" gradientTransform="translate(0.028 0.109) scale(0.972 0.617)" gradientUnits="objectBoundingBox">
      <stop offset="0" stop-color="#fca524"/>
      <stop offset="0.22" stop-color="#f9cc29"/>
      <stop offset="0.46" stop-color="#f2f39d"/>
      <stop offset="0.55" stop-color="#e4af23"/>
      <stop offset="0.69" stop-color="#e69520"/>
      <stop offset="1" stop-color="#722905"/>
    </radialGradient>
    <linearGradient id="linear-gradient" y1="0.5" x2="0.899" y2="0.5" gradientUnits="objectBoundingBox">
      <stop offset="0" stop-color="#fca524"/>
      <stop offset="0.31" stop-color="#e69520"/>
      <stop offset="0.45" stop-color="#e4af23"/>
      <stop offset="0.54" stop-color="#f2f39d"/>
      <stop offset="0.78" stop-color="#f9cc29"/>
      <stop offset="1" stop-color="#722905"/>
    </linearGradient>
  </defs>
  <rect id="Rectangle_516" data-name="Rectangle 516" width="50.944" height="50.944" rx="25.472" transform="translate(0 0)" fill="none"/>
  <g id="logo-gold" transform="translate(6.902 6.177)">
    <path id="Path_14113" data-name="Path 14113" d="M579.278,796.782a9.113,9.113,0,0,1-2.072,1.478l9.033.011,9.032-.011c-1.375-.386-4.479-3.868-4.928-5.114a7.605,7.605,0,0,0,2.494.777l-.039,0a12.779,12.779,0,0,0,4.795.068,8.674,8.674,0,0,0,7.391-9.011,11.917,11.917,0,0,0-.146-1.994,17.762,17.762,0,0,0-3.482-8q-.243-.32-.5-.64a40.78,40.78,0,0,0-5.8-5.958c-2.771-2.522-5.741-4.245-8.686-6.457l-.132-.1-.133.1c-2.945,2.212-5.915,3.935-8.685,6.457a40.737,40.737,0,0,0-5.8,5.958q-.257.32-.5.64a17.769,17.769,0,0,0-3.481,8,11.815,11.815,0,0,0-.146,1.994,8.673,8.673,0,0,0,7.391,9.011,11.547,11.547,0,0,0,3.971.046,9.146,9.146,0,0,0,3.279-.894,13.331,13.331,0,0,1-2.857,3.636Zm9.5-1.7-.793.851a.181.181,0,0,1-.134.059h-3.761a.091.091,0,0,1-.085-.055.094.094,0,0,1-.006-.053.089.089,0,0,1,.023-.047l.792-.851a.19.19,0,0,1,.061-.044.183.183,0,0,1,.074-.015h3.76a.089.089,0,0,1,.051.014.1.1,0,0,1,.035.04.087.087,0,0,1,.006.053.089.089,0,0,1-.023.047Zm-.793-1.713.791.851a.1.1,0,0,1,.024.047.087.087,0,0,1-.006.051.1.1,0,0,1-.034.041.086.086,0,0,1-.05.015h-3.76a.184.184,0,0,1-.074-.015.191.191,0,0,1-.061-.044l-.792-.851a.092.092,0,0,1-.017-.1.1.1,0,0,1,.034-.04.091.091,0,0,1,.051-.015h3.761a.194.194,0,0,1,.073.015.189.189,0,0,1,.062.044Zm-3.895-.612h0a.091.091,0,0,1-.051-.015.088.088,0,0,1-.034-.04.092.092,0,0,1,.017-.1l.792-.851a.2.2,0,0,1,.061-.044.2.2,0,0,1,.074-.015h3.76a.089.089,0,0,1,.051.015.086.086,0,0,1,.035.04.084.084,0,0,1,.006.052.086.086,0,0,1-.023.047l-.793.851a.19.19,0,0,1-.062.044.173.173,0,0,1-.073.015Zm2.15-19.92c3.659,2.11,13.241,9.669,9.539,14.628-3.1,3.553-8.22,2.356-9.407-1.475l-.135-.414-.13.414c-1.187,3.832-6.343,4.966-9.446,1.411C572.961,782.441,582.581,774.948,586.239,772.837Z" transform="translate(-567.493 -761.834)" fill-rule="evenodd" fill="url(#radial-gradient)"/>
    <path id="Path_14114" data-name="Path 14114" d="M577.757,799.779h18.069c-1.213-.447-3.6-2.955-4.533-4.377a3.967,3.967,0,0,1-.395-.735h.007c7.239,1.492,8.826-6.525,5.624-10.858,1.326,2.714.752,6.232-3.518,6.85a5.307,5.307,0,0,1-6.183-3.462l-.035-.1,0,.01,0-.01-.034.1a5.308,5.308,0,0,1-6.183,3.462c-4.27-.618-4.843-4.136-3.518-6.85-3.2,4.333-1.615,12.35,5.624,10.858h.007a3.951,3.951,0,0,1-.394.735c-.933,1.422-3.321,3.93-4.533,4.377Zm6.884-5.5h0a.087.087,0,0,1-.05-.015.1.1,0,0,1-.034-.04.092.092,0,0,1-.006-.052.088.088,0,0,1,.023-.047l.792-.851a.189.189,0,0,1,.061-.044.182.182,0,0,1,.074-.015h3.76a.1.1,0,0,1,.051.014.1.1,0,0,1,.035.04.093.093,0,0,1,.006.053.088.088,0,0,1-.023.047l-.793.851a.191.191,0,0,1-.061.044.177.177,0,0,1-.074.015Zm3.895.611.791.851a.085.085,0,0,1,.023.047.1.1,0,0,1-.006.053.1.1,0,0,1-.035.04.093.093,0,0,1-.05.015H585.5a.2.2,0,0,1-.074-.015.189.189,0,0,1-.061-.044l-.792-.851a.092.092,0,0,1-.023-.047.091.091,0,0,1,.006-.052.1.1,0,0,1,.034-.04.087.087,0,0,1,.05-.015h3.76a.181.181,0,0,1,.135.059Zm.793,1.713-.793.851a.207.207,0,0,1-.061.044.193.193,0,0,1-.074.015h-3.76a.092.092,0,0,1-.085-.056.09.09,0,0,1-.006-.052.086.086,0,0,1,.023-.047l.792-.851a.191.191,0,0,1,.061-.044.182.182,0,0,1,.074-.015h3.76a.082.082,0,0,1,.051.014.092.092,0,0,1,.035.04.093.093,0,0,1,.006.053A.091.091,0,0,1,589.329,796.6Z" transform="translate(-568.045 -763.353)" fill-rule="evenodd" fill="url(#linear-gradient)"/>
  </g>
</svg>
