<svg xmlns="http://www.w3.org/2000/svg" xmlns:xlink="http://www.w3.org/1999/xlink" width="321.722" height="312.675" viewBox="0 0 321.722 312.675"><defs><style>.a,.b{fill-rule:evenodd;}.a{fill:url(#a);}.b{fill:url(#b);}</style><radialGradient id="a" cx="0.983" cy="0.284" r="1.148" gradientTransform="translate(0.028 0.109) scale(0.972 0.617)" gradientUnits="objectBoundingBox"><stop offset="0" stop-color="#fca524"/><stop offset="0.22" stop-color="#f9cc29"/><stop offset="0.46" stop-color="#f2f39d"/><stop offset="0.55" stop-color="#e4af23"/><stop offset="0.69" stop-color="#e69520"/><stop offset="1" stop-color="#722905"/></radialGradient><linearGradient id="b" y1="0.5" x2="0.899" y2="0.5" gradientUnits="objectBoundingBox"><stop offset="0" stop-color="#fca524"/><stop offset="0.31" stop-color="#e69520"/><stop offset="0.45" stop-color="#e4af23"/><stop offset="0.54" stop-color="#f2f39d"/><stop offset="0.78" stop-color="#f9cc29"/><stop offset="1" stop-color="#722905"/></linearGradient></defs><g transform="translate(-567.493 -761.834)"><path class="a" d="M668.62,1061.729c-2.931,2.908-13.851,11.574-17.781,12.685l77.516.1,77.508-.1c-11.8-3.315-38.43-33.19-42.289-43.886,6.263,3.035,13.78,5.919,21.4,6.671l-.335.023c13.971,2.276,27.007,3.5,41.146.583,43.886-9.051,63.265-40.6,63.425-77.324a102.281,102.281,0,0,0-1.254-17.111c-3.427-23.269-13.788-47.5-29.876-68.673q-2.084-2.744-4.305-5.488c-14.394-18.788-31.776-35.627-49.75-51.123-23.78-21.639-49.262-36.425-74.536-55.405l-1.135-.846-1.142.846c-25.274,18.98-50.756,33.766-74.528,55.405-17.981,15.5-35.363,32.336-49.758,51.123q-2.205,2.744-4.305,5.488c-16.08,21.184-26.449,45.412-29.867,68.673a101.4,101.4,0,0,0-1.254,17.111c.159,36.729,19.531,68.273,63.424,77.324,7.213,1.485,24.036,2.8,34.077.391,10.568-1.191,18.292-2.9,28.134-7.669-3.627,10.033-17.118,23.852-24.515,31.2Zm81.51-14.594-6.806,7.3a1.551,1.551,0,0,1-1.15.5H709.9a.779.779,0,0,1-.727-.471.806.806,0,0,1-.055-.456.758.758,0,0,1,.2-.4l6.8-7.3a1.634,1.634,0,0,1,.527-.375,1.562,1.562,0,0,1,.632-.128h32.263a.761.761,0,0,1,.439.12.831.831,0,0,1,.3.344.746.746,0,0,1,.049.456.757.757,0,0,1-.2.407Zm-6.806-14.7,6.79,7.3a.86.86,0,0,1,.207.407.747.747,0,0,1-.056.439.84.84,0,0,1-.3.351.742.742,0,0,1-.431.128H717.276a1.57,1.57,0,0,1-.632-.128,1.632,1.632,0,0,1-.527-.375l-6.8-7.3a.792.792,0,0,1-.144-.854.853.853,0,0,1,.288-.343.78.78,0,0,1,.439-.128h32.272a1.676,1.676,0,0,1,.623.128,1.632,1.632,0,0,1,.527.375Zm-33.422-5.249h0a.781.781,0,0,1-.439-.128.756.756,0,0,1-.288-.343.793.793,0,0,1,.144-.855l6.8-7.3a1.753,1.753,0,0,1,.527-.375,1.708,1.708,0,0,1,.632-.128h32.263a.762.762,0,0,1,.439.128.739.739,0,0,1,.3.343.72.72,0,0,1,.049.448.73.73,0,0,1-.2.407l-6.806,7.3a1.635,1.635,0,0,1-.527.375,1.5,1.5,0,0,1-.623.128Zm18.452-170.935c31.4,18.109,113.758,82.636,81.99,125.188-26.633,30.49-70.671,20.553-80.855-12.325l-1.158-3.555-1.119,3.555c-10.185,32.879-54.29,42.936-80.915,12.429C614.553,938.985,696.961,874.362,728.354,856.253Z" transform="translate(0 0)"/><path class="b" d="M595.036,920.845H750.091c-10.408-3.835-30.9-25.354-38.9-37.56a34.045,34.045,0,0,1-3.386-6.31l.032.008v-.008l.032.008c62.115,12.8,75.734-55.988,48.264-93.173,11.375,23.293,6.454,53.48-30.187,58.784-20.665,4.418-44.2-5.248-53.056-29.708l-.3-.895-.024.088-.031-.088-.3.895c-8.859,24.46-32.4,34.125-53.056,29.708-36.641-5.3-41.562-35.491-30.187-58.784-27.471,37.185-13.859,105.978,48.264,93.173l.024-.008.008.008.024-.008a33.889,33.889,0,0,1-3.38,6.31c-8,12.205-28.5,33.725-38.9,37.56Zm59.074-47.232h0a.744.744,0,0,1-.432-.128.816.816,0,0,1-.3-.344.794.794,0,0,1-.056-.447.758.758,0,0,1,.2-.407l6.8-7.3a1.628,1.628,0,0,1,.527-.375,1.565,1.565,0,0,1,.631-.128h32.264a.822.822,0,0,1,.44.12.832.832,0,0,1,.3.343.8.8,0,0,1,.048.455.754.754,0,0,1-.2.407l-6.806,7.3a1.638,1.638,0,0,1-.527.375,1.519,1.519,0,0,1-.632.128Zm33.422,5.248,6.79,7.3a.731.731,0,0,1,.2.4.816.816,0,0,1-.048.456.88.88,0,0,1-.3.343.8.8,0,0,1-.431.128H661.483a1.713,1.713,0,0,1-.631-.128,1.634,1.634,0,0,1-.527-.375l-6.8-7.3a.793.793,0,0,1-.144-.855.815.815,0,0,1,.3-.343.744.744,0,0,1,.432-.128h32.264a1.648,1.648,0,0,1,.632.128,1.625,1.625,0,0,1,.527.375Zm6.806,14.7-6.806,7.3a1.775,1.775,0,0,1-.527.375,1.659,1.659,0,0,1-.632.128H654.11a.808.808,0,0,1-.432-.128.793.793,0,0,1-.3-.351.779.779,0,0,1-.056-.448.734.734,0,0,1,.2-.4l6.8-7.3a1.636,1.636,0,0,1,.527-.375,1.566,1.566,0,0,1,.631-.127h32.264a.7.7,0,0,1,.44.12.787.787,0,0,1,.3.343.8.8,0,0,1,.048.455A.783.783,0,0,1,694.337,893.559Z" transform="translate(55.795 153.569)"/></g></svg>