<svg width="715" height="716" xmlns="http://www.w3.org/2000/svg" xmlns:xlink="http://www.w3.org/1999/xlink" xml:space="preserve" overflow="hidden"><defs><clipPath id="clip0"><rect x="138" y="152" width="715" height="716"/></clipPath><linearGradient x1="26.9431" y1="356.948" x2="688.284" y2="356.948" gradientUnits="userSpaceOnUse" spreadMethod="pad" id="fill1"><stop offset="0" stop-color="#008EF0"/><stop offset="0.00127816" stop-color="#008EF0"/><stop offset="1" stop-color="#7FFDFF"/></linearGradient><clipPath id="clip2"><rect x="330" y="280" width="326" height="286"/></clipPath><clipPath id="clip3"><rect x="330" y="280" width="326" height="286"/></clipPath><clipPath id="clip4"><rect x="330" y="280" width="326" height="286"/></clipPath><clipPath id="clip5"><rect x="324" y="632" width="130" height="131"/></clipPath><clipPath id="clip6"><rect x="324" y="632" width="130" height="131"/></clipPath><clipPath id="clip7"><rect x="324" y="632" width="130" height="131"/></clipPath><clipPath id="clip8"><rect x="510" y="635" width="150" height="132"/></clipPath><clipPath id="clip9"><rect x="510" y="635" width="150" height="132"/></clipPath><clipPath id="clip10"><rect x="510" y="635" width="150" height="132"/></clipPath></defs><g clip-path="url(#clip0)" transform="translate(-138 -152)"><path d="M591.437 123.125C528.981 60.6688 445.948 26.2694 357.619 26.2694 269.29 26.2694 186.244 60.6688 123.788 123.125 61.3311 185.582 26.9449 268.628 26.9449 356.944 26.9449 445.26 61.3444 528.306 123.788 590.762 186.231 653.219 269.277 687.618 357.606 687.618 445.935 687.618 528.968 653.219 591.424 590.762 653.881 528.306 688.28 445.273 688.28 356.944 688.28 268.615 653.894 185.582 591.437 123.125Z" fill="url(#fill1)" transform="matrix(1 0 0 1.0014 138 152)"/><path d="M357.619 714.444C262.127 714.444 172.355 677.264 104.827 609.736 37.2992 542.208 0.119121 452.436 0.119121 356.944 0.119121 261.452 37.2992 171.679 104.827 104.152 172.355 36.624 262.127-0.556008 357.619-0.556008 453.111-0.556008 542.884 36.624 610.411 104.152 677.939 171.679 715.119 261.452 715.119 356.944 715.119 452.436 677.939 542.208 610.411 609.736 542.884 677.264 453.111 714.444 357.619 714.444ZM357.619 26.283C269.29 26.283 186.257 60.6824 123.801 123.139 61.3444 185.595 26.9449 268.628 26.9449 356.944 26.9449 445.26 61.3444 528.306 123.788 590.762 186.231 653.219 269.277 687.618 357.606 687.618 445.935 687.618 528.968 653.219 591.424 590.762 653.881 528.306 688.28 445.273 688.28 356.944 688.28 268.615 653.881 185.582 591.424 123.126 528.968 60.6692 445.935 26.283 357.619 26.283Z" fill="#FFFFFF" transform="matrix(1 0 0 1.0014 138 152)"/><g clip-path="url(#clip2)"><g clip-path="url(#clip3)"><g clip-path="url(#clip4)"><path d="M239.647 283.968C228.901 283.968 218.17 281.772 208.137 277.366 187.766 268.423 172.105 251.163 165.184 230.021L162.537 221.936 159.891 230.021C152.969 251.163 137.309 268.423 116.937 277.381 96.5656 286.323 73.2712 286.178 53.0158 276.973L24.5013 264.018C9.58238 257.242 0 242.366 0 225.979L0 121.14C0 113.317 5.6273 106.628 13.3339 105.305 58.3232 97.5398 109.914 93.4247 162.537 93.4247 179.739 93.4247 196.824 93.861 213.605 94.7189 231.403 95.6349 244.867 111.208 243.326 128.977 217.24 126.723 190.063 125.574 162.537 125.574 116.865 125.574 72.1079 128.759 32.1352 134.822L32.1352 225.993C32.1352 229.774 34.3454 233.206 37.7916 234.776L65.0556 247.179C77.2844 252.734 91.4181 253.432 103.749 248.095 116.065 242.759 125.153 232.798 129.326 220.061L134.721 203.571C138.647 191.561 149.61 182.836 162.246 182.734 175.1 182.618 186.021 190.47 190.005 202.655L195.283 218.767C199.471 231.533 208.501 242.395 220.759 247.877 233.017 253.359 246.525 253.316 258.725 247.761L287.239 234.805C290.685 233.235 292.896 229.803 292.896 226.022L292.896 0 325.045 0 325.045 225.95C325.045 242.337 315.463 257.212 300.544 263.988L272.03 276.944C261.793 281.626 250.727 283.968 239.647 283.968Z" fill="#FFFFFF" transform="matrix(1.00088 0 0 1 330 280)"/></g></g></g><g clip-path="url(#clip5)"><g clip-path="url(#clip6)"><g clip-path="url(#clip7)"><path d="M24.6164 22.129 104.212 22.129 104.212 94.5201 24.6164 94.5201Z" fill="#FFFFFF" transform="matrix(1.00066 0 0 1 324 633)"/><path d="M128.872 64.5001C128.872 100.076 100.033 128.914 64.4572 128.914 28.8822 128.914 0.0428857 100.076 0.0428857 64.5001 0.0428857 28.925 28.8822 0.0857714 64.4572 0.0857714 100.033 0.0857714 128.872 28.925 128.872 64.5001ZM46.204 90.1338 33.703 90.1338C31.0762 90.1338 29.7786 90.1338 28.9875 89.6277 28.1329 89.0736 27.6108 88.1559 27.5475 87.1429 27.5 86.2097 28.1488 85.07 29.4464 82.7913L60.3129 28.3848C61.6264 26.0744 62.2909 24.9193 63.1296 24.492 64.0316 24.0332 65.1077 24.0332 66.0096 24.492 66.8483 24.9193 67.5129 26.0744 68.8263 28.3848L75.1718 39.4616 75.2041 39.5182C76.6227 41.9967 77.3421 43.2536 77.6562 44.5728 78.0042 46.0128 78.0042 47.5319 77.6562 48.9719 77.3397 50.3011 76.6276 51.5671 75.1876 54.0831L58.9741 82.7439 58.9322 82.8173C57.5043 85.3163 56.7806 86.5828 55.7777 87.5383 54.6858 88.583 53.3724 89.3421 51.9324 89.7701 50.619 90.1338 49.1474 90.1338 46.204 90.1338ZM77.7733 90.1338 95.6858 90.1338C98.3284 90.1338 99.6579 90.1338 100.45 89.6123 101.304 89.0582 101.842 88.1242 101.89 87.1121 101.935 86.2089 101.3 85.1136 100.057 82.9673 100.014 82.8942 99.9709 82.8199 99.9272 82.7442L90.9546 67.3949 90.8525 67.2221C89.5917 65.09 88.9553 64.0133 88.1379 63.5971 87.2364 63.1382 86.1754 63.1382 85.2739 63.5971 84.451 64.0244 83.7864 65.1479 82.473 67.4107L73.5324 82.7601 73.5018 82.8129C72.193 85.0722 71.5389 86.2012 71.5861 87.1275 71.6494 88.1405 72.1715 89.0736 73.026 89.6277 73.8014 90.1338 75.1306 90.1338 77.7733 90.1338Z" fill="#E84142" fill-rule="evenodd" transform="matrix(1.00066 0 0 1 324 633)"/></g></g></g><g clip-path="url(#clip8)"><g clip-path="url(#clip9)"><g clip-path="url(#clip10)"><path d="M27.4651 0.64078 0.114898 58.09C-0.0987262 58.5286-0.00200736 59.0552 0.353534 59.3892L74.2199 130.171C74.6559 130.589 75.344 130.589 75.7799 130.171L149.646 59.3936C150.002 59.0596 150.099 58.533 149.885 58.0944L122.535 0.645199C122.354 0.251146 121.96-0.00114128 121.527 1.68578e-08L28.4815 0C28.0461-0.00541793 27.648 0.245517 27.4651 0.64078L27.4651 0.64078Z" fill="#50AF95" fill-rule="evenodd" transform="matrix(1 0 0 1.00359 510 636.023)"/><path d="M84.4901 63.9896 84.4901 63.9896C83.9598 64.0293 81.2199 64.1929 75.1082 64.1929 70.2471 64.1929 66.7957 64.047 65.5849 63.9896L65.5849 63.9896C46.799 63.1632 32.777 59.893 32.777 55.9776 32.777 52.0622 46.799 48.7965 65.5849 47.9568L65.5849 60.7326C66.8134 60.821 70.3311 61.0287 75.1922 61.0287 81.0255 61.0287 83.9465 60.7857 84.4724 60.7371L84.4724 47.9657C103.219 48.8009 117.21 52.0711 117.21 55.9776 117.21 59.8842 103.223 63.1544 84.4724 63.9851L84.4724 63.9851ZM84.4901 46.6443 84.4901 35.2119 110.652 35.2119 110.652 17.7783 39.4234 17.7783 39.4234 35.2119 65.5805 35.2119 65.5805 46.6399C44.3199 47.6166 28.3313 51.828 28.3313 56.8747 28.3313 61.9214 44.3199 66.1284 65.5805 67.1095L65.5805 103.744 84.4857 103.744 84.4857 67.0963C105.698 66.1196 121.66 61.9126 121.66 56.8703 121.66 51.828 105.711 47.621 84.4857 46.6399L84.4857 46.6399ZM84.4901 46.6443 84.4901 46.6443Z" fill="#FFFFFF" fill-rule="evenodd" transform="matrix(1 0 0 1.00359 510 636.023)"/></g></g></g></g></svg>