<?xml version="1.0" standalone="no"?>
<!DOCTYPE svg PUBLIC "-//W3C//DTD SVG 20010904//EN"
 "http://www.w3.org/TR/2001/REC-SVG-20010904/DTD/svg10.dtd">
<svg version="1.0" xmlns="http://www.w3.org/2000/svg"
 width="1366.000000pt" height="685.000000pt" viewBox="0 0 1366.000000 685.000000"
 preserveAspectRatio="xMidYMid meet">

<g transform="translate(0.000000,685.000000) scale(0.100000,-0.100000)"
fill="#000000" stroke="none">
<path d="M0 3425 l0 -3425 6830 0 6830 0 0 3425 0 3425 -6830 0 -6830 0 0
-3425z m6465 2461 c898 -134 1635 -731 1950 -1581 47 -125 98 -328 122 -476
25 -161 25 -538 0 -699 -82 -521 -301 -965 -659 -1336 -209 -215 -420 -370
-682 -499 -499 -246 -1062 -312 -1614 -189 -339 75 -708 254 -987 478 -499
401 -827 1004 -896 1644 -17 165 -7 493 21 651 72 411 242 790 500 1116 153
194 418 426 638 559 334 202 635 300 1082 350 74 9 430 -4 525 -18z"/>
<path d="M4222 3518 c3 -813 4 -863 20 -862 10 1 16 -2 13 -6 -3 -5 4 -11 15
-15 11 -3 20 -10 20 -14 0 -46 361 -60 515 -21 126 32 218 82 300 164 76 77
115 145 141 248 33 129 -1 316 -82 449 -29 48 -38 56 -56 51 -17 -4 -10 7 26
44 27 27 59 63 72 79 23 31 58 143 68 225 7 53 -26 251 -48 281 -8 12 -47 56
-86 99 -81 88 -137 119 -230 128 -30 3 -198 7 -373 9 l-317 4 2 -863z m793
762 c10 -11 16 -20 13 -20 -3 0 -13 9 -23 20 -10 11 -16 20 -13 20 3 0 13 -9
23 -20z m65 -81 c15 -28 5 -23 -15 7 -9 15 -12 23 -6 20 6 -4 16 -16 21 -27z
m-257 -53 c86 -31 129 -104 135 -225 5 -101 -7 -153 -48 -209 -46 -64 -76 -75
-217 -80 l-123 -4 -2 93 -2 94 -3 -92 -4 -93 -77 2 c-42 1 -60 3 -39 5 l37 4
0 127 c0 70 3 184 7 254 l6 127 -44 4 c-24 2 42 4 146 5 138 1 200 -3 228 -12z
m316 -91 c0 -11 -7 0 -15 25 -17 56 -17 64 1 25 8 -16 14 -39 14 -50z m8 -67
c-3 -8 -6 -5 -6 6 -1 11 2 17 5 13 3 -3 4 -12 1 -19z m0 -200 c-3 -8 -6 -5 -6
6 -1 11 2 17 5 13 3 -3 4 -12 1 -19z m-10 -60 c-3 -8 -6 -5 -6 6 -1 11 2 17 5
13 3 -3 4 -12 1 -19z m-101 -208 c0 -12 -4 -16 -9 -11 -5 5 -6 14 -3 20 10 15
12 14 12 -9z m54 -93 c0 -12 0 -11 -24 28 l-17 30 20 -24 c12 -13 21 -28 21
-34z m-223 -53 c21 -17 49 -51 63 -75 22 -40 25 -55 25 -154 0 -102 -2 -113
-28 -157 -51 -87 -66 -93 -269 -96 l-178 -3 0 261 0 261 174 -3 174 -3 39 -31z
m270 -76 c-3 -8 -6 -5 -6 6 -1 11 2 17 5 13 3 -3 4 -12 1 -19z m10 -60 c-3 -8
-6 -5 -6 6 -1 11 2 17 5 13 3 -3 4 -12 1 -19z"/>
<path d="M4554 3055 c0 -77 2 -107 3 -67 2 40 2 103 0 140 -2 37 -3 4 -3 -73z"/>
<path d="M5785 4365 c-112 -60 -165 -207 -118 -330 20 -52 37 -79 378 -595
114 -173 239 -362 277 -419 37 -58 67 -110 65 -115 -2 -7 -90 -12 -259 -14
-290 -3 -276 -7 -297 83 -15 61 -45 95 -83 95 -87 0 -122 -95 -81 -221 22 -68
109 -159 169 -177 64 -19 560 -16 597 2 15 8 27 11 27 5 0 -13 46 -11 83 4 36
16 97 79 123 128 21 41 29 131 16 186 -6 27 -134 239 -358 598 l-349 555 -67
-2 c-36 -2 -64 0 -61 5 2 4 56 7 120 7 98 0 118 -3 129 -17 13 -17 14 -17 8 0
-6 16 4 17 115 17 133 0 154 -8 167 -67 21 -95 37 -115 105 -127 89 -16 148
54 135 162 -12 101 -65 175 -162 225 -39 20 -15 18 -359 23 -250 4 -294 2
-320 -11z m784 -185 c0 -10 -3 -8 -9 5 -12 27 -12 43 0 25 5 -8 9 -22 9 -30z
m8 -62 c-3 -7 -5 -2 -5 12 0 14 2 19 5 13 2 -7 2 -19 0 -25z m-17 -112 c0 -2
-8 -10 -17 -17 -16 -13 -17 -12 -4 4 13 16 21 21 21 13z m-490 -226 c6 -11 8
-20 6 -20 -3 0 -10 9 -16 20 -6 11 -8 20 -6 20 3 0 10 -9 16 -20z m270 -410
c6 -11 8 -20 6 -20 -3 0 -10 9 -16 20 -6 11 -8 20 -6 20 3 0 10 -9 16 -20z
m60 -90 c6 -11 8 -20 6 -20 -3 0 -10 9 -16 20 -6 11 -8 20 -6 20 3 0 10 -9 16
-20z m169 -290 c0 -10 -3 -8 -9 5 -12 27 -12 43 0 25 5 -8 9 -22 9 -30z m8
-62 c-3 -7 -5 -2 -5 12 0 14 2 19 5 13 2 -7 2 -19 0 -25z m0 -60 c-3 -8 -6 -5
-6 6 -1 11 2 17 5 13 3 -3 4 -12 1 -19z m-47 -121 c0 -2 -15 -16 -32 -33 l-33
-29 29 33 c28 30 36 37 36 29z"/>
<path d="M7080 4215 c0 -129 3 -173 15 -195 28 -55 85 -66 132 -26 24 21 29
33 33 93 l5 68 90 0 90 0 5 -715 c5 -777 3 -746 61 -770 32 -14 77 -3 92 21 7
11 17 19 24 19 6 0 35 23 62 51 l51 52 0 487 c0 268 3 568 7 668 l6 181 -59 4
c-48 3 -43 4 28 5 60 1 89 -2 94 -10 5 -7 11 -155 14 -328 l6 -315 2 249 2
248 25 -16 c13 -9 34 -16 45 -16 30 0 80 28 80 45 0 8 3 14 8 13 11 -3 54 23
48 29 -3 4 0 13 8 22 10 11 15 44 16 101 3 119 3 116 -30 153 -16 19 -27 37
-23 41 3 3 -206 6 -465 6 l-472 0 0 -165z m557 -1467 c-3 -8 -6 -5 -6 6 -1 11
2 17 5 13 3 -3 4 -12 1 -19z"/>
<path d="M8121 4144 c0 -11 3 -14 6 -6 3 7 2 16 -1 19 -3 4 -6 -2 -5 -13z"/>
<path d="M8010 4010 c-8 -5 -10 -10 -5 -10 6 0 17 5 25 10 8 5 11 10 5 10 -5
0 -17 -5 -25 -10z"/>
<path d="M7831 3484 c0 -11 3 -14 6 -6 3 7 2 16 -1 19 -3 4 -6 -2 -5 -13z"/>
<path d="M6680 3171 c0 -5 5 -13 10 -16 6 -3 10 -2 10 4 0 5 -4 13 -10 16 -5
3 -10 2 -10 -4z"/>
<path d="M6742 3020 c0 -19 2 -27 5 -17 2 9 2 25 0 35 -3 9 -5 1 -5 -18z"/>
<path d="M6732 2925 c0 -16 2 -22 5 -12 2 9 2 23 0 30 -3 6 -5 -1 -5 -18z"/>
<path d="M7815 2921 c-3 -5 -1 -12 5 -16 5 -3 10 1 10 9 0 18 -6 21 -15 7z"/>
<path d="M7753 2813 c-15 -5 -17 -23 -4 -23 5 0 11 7 15 15 3 8 4 15 3 14 -1
0 -8 -3 -14 -6z"/>
</g>
</svg>
