<svg xmlns="http://www.w3.org/2000/svg" xmlns:xlink="http://www.w3.org/1999/xlink" viewBox="0 0 370.55 478.25"><defs><style>.cls-1{isolation:isolate;}.cls-11,.cls-15,.cls-2,.cls-20,.cls-22,.cls-25,.cls-5{mix-blend-mode:hue;opacity:0.8;}.cls-2{fill:url(#linear-gradient);}.cls-3{fill:url(#linear-gradient-2);}.cls-4{fill:url(#linear-gradient-3);}.cls-5{fill:url(#linear-gradient-4);}.cls-6{fill:url(#linear-gradient-5);}.cls-7{fill:url(#linear-gradient-6);}.cls-8{fill:url(#linear-gradient-7);}.cls-13,.cls-14,.cls-9{mix-blend-mode:multiply;}.cls-9{fill:url(#linear-gradient-8);}.cls-10{fill:url(#linear-gradient-9);}.cls-11{fill:url(#linear-gradient-10);}.cls-12,.cls-13,.cls-14{fill:url(#linear-gradient-11);}.cls-14,.cls-30{opacity:0.7;}.cls-15{fill:url(#linear-gradient-14);}.cls-16{fill:url(#linear-gradient-15);}.cls-17{fill:url(#linear-gradient-16);}.cls-18{fill:#1f1f1f;}.cls-19,.cls-21,.cls-23,.cls-26{opacity:0.3;}.cls-19{fill:url(#linear-gradient-17);}.cls-20,.cls-21{fill:url(#linear-gradient-18);}.cls-22,.cls-23{fill:url(#linear-gradient-20);}.cls-24{fill:url(#linear-gradient-22);}.cls-25{fill:url(#linear-gradient-23);}.cls-26{fill:#fff;}.cls-27{fill:url(#linear-gradient-24);}.cls-28{fill:url(#linear-gradient-25);}.cls-29{fill:url(#linear-gradient-26);}.cls-30{mix-blend-mode:color;}</style><linearGradient id="linear-gradient" x1="278.29" y1="171.08" x2="280.65" y2="171.08" gradientUnits="userSpaceOnUse"><stop offset="0" stop-color="#fff"/><stop offset="1"/></linearGradient><linearGradient id="linear-gradient-2" x1="95.06" y1="481.65" x2="95.06" y2="96.87" xlink:href="#linear-gradient"/><linearGradient id="linear-gradient-3" x1="95.06" y1="481.65" x2="95.06" y2="-5.97" xlink:href="#linear-gradient"/><linearGradient id="linear-gradient-4" x1="95.02" y1="197.02" x2="95.11" y2="197.02" xlink:href="#linear-gradient"/><linearGradient id="linear-gradient-5" y1="245.57" x2="94.94" y2="245.57" gradientUnits="userSpaceOnUse"><stop offset="0" stop-color="#a4a4ba"/><stop offset="1" stop-color="#adadd9"/></linearGradient><linearGradient id="linear-gradient-6" x1="9.84" y1="291.48" x2="233.84" y2="291.48" gradientUnits="userSpaceOnUse"><stop offset="0" stop-color="#64628c"/><stop offset="1" stop-color="#8483a8"/></linearGradient><linearGradient id="linear-gradient-7" x1="233.19" y1="481.65" x2="233.19" y2="-5.97" xlink:href="#linear-gradient"/><linearGradient id="linear-gradient-8" x1="233.19" y1="481.65" x2="233.19" y2="96.87" xlink:href="#linear-gradient"/><linearGradient id="linear-gradient-9" x1="233.19" y1="485.61" x2="233.19" y2="97.61" xlink:href="#linear-gradient"/><linearGradient id="linear-gradient-10" x1="232.55" y1="294.11" x2="233.83" y2="294.11" xlink:href="#linear-gradient"/><linearGradient id="linear-gradient-11" x1="233.83" y1="337.52" x2="233.83" y2="250.19" xlink:href="#linear-gradient"/><linearGradient id="linear-gradient-14" x1="233.83" y1="293.85" x2="233.83" y2="293.85" xlink:href="#linear-gradient"/><linearGradient id="linear-gradient-15" x1="276.71" y1="475.54" x2="276.71" y2="293.83" gradientUnits="userSpaceOnUse"><stop offset="0" stop-color="#3d3d52"/><stop offset="1" stop-color="#595977"/></linearGradient><linearGradient id="linear-gradient-16" x1="89.47" y1="441.65" x2="189.56" y2="268.29" gradientUnits="userSpaceOnUse"><stop offset="0" stop-color="#bfb8e6"/><stop offset="1" stop-color="#bab4e0"/></linearGradient><linearGradient id="linear-gradient-17" x1="8.63" y1="436.61" x2="186.04" y2="436.61" xlink:href="#linear-gradient"/><linearGradient id="linear-gradient-18" x1="278.94" y1="150.65" x2="295.82" y2="150.65" xlink:href="#linear-gradient"/><linearGradient id="linear-gradient-20" x1="300.39" y1="119.93" x2="309.54" y2="119.93" xlink:href="#linear-gradient"/><linearGradient id="linear-gradient-22" x1="309.6" y1="481.46" x2="309.6" y2="95.54" xlink:href="#linear-gradient"/><linearGradient id="linear-gradient-23" x1="280.38" y1="135.13" x2="338.82" y2="135.13" xlink:href="#linear-gradient"/><linearGradient id="linear-gradient-24" x1="153.74" y1="247.59" x2="285.01" y2="20.23" gradientUnits="userSpaceOnUse"><stop offset="0" stop-color="#49466f"/><stop offset="1" stop-color="#282640"/></linearGradient><linearGradient id="linear-gradient-25" x1="288.32" y1="299.8" x2="413.07" y2="175.05" gradientUnits="userSpaceOnUse"><stop offset="0" stop-color="#404049"/><stop offset="1" stop-color="#5a5a66"/></linearGradient><linearGradient id="linear-gradient-26" x1="233.84" y1="280.71" x2="369.52" y2="280.71" gradientUnits="userSpaceOnUse"><stop offset="0" stop-color="#111114"/><stop offset="1" stop-color="#1b1b1f"/></linearGradient></defs><g class="cls-1"><g id="Layer_2" data-name="Layer 2"><g id="Layer_1-2" data-name="Layer 1"><polygon class="cls-2" points="280.38 169.55 278.94 172.99 280.65 167.69 278.29 173.92 278.53 174.47 280.38 169.55"/><polygon class="cls-3" points="95.05 196.94 95.02 197.02 95.11 197.09 95.05 196.94"/><polygon class="cls-4" points="95.05 196.94 95.02 197.02 95.11 197.09 95.05 196.94"/><polygon class="cls-5" points="95.05 196.94 95.02 197.02 95.11 197.09 95.05 196.94"/><path class="cls-6" d="M94.94,196.83l-16.35-42.1L89.28,108.3a4.24,4.24,0,0,0-3.14-5.69l-48.81,31a14,14,0,0,0-6.68,10.08L.68,365.54l0-.3-.31,2.42A32.75,32.75,0,0,0,4,388.53l5.83-2.41Z"/><polygon class="cls-7" points="95.11 197.09 95.02 197.02 94.94 196.83 9.84 386.12 232.55 294.37 233.83 293.85 233.83 293.85 233.84 293.83 95.11 197.09"/><polygon class="cls-8" points="233.83 293.85 232.55 294.37 232.55 294.37 233.83 293.85"/><polygon class="cls-9" points="233.83 293.85 232.55 294.37 232.55 294.37 233.83 293.85"/><polygon class="cls-10" points="233.83 293.85 232.55 294.37 232.55 294.37 233.83 293.85"/><polygon class="cls-11" points="233.83 293.85 232.55 294.37 232.55 294.37 233.83 293.85"/><polygon class="cls-12" points="233.83 293.86 233.83 293.85 233.83 293.85 233.83 293.86"/><polygon class="cls-13" points="233.83 293.86 233.83 293.85 233.83 293.85 233.83 293.86"/><polygon class="cls-14" points="233.83 293.86 233.83 293.85 233.83 293.85 233.83 293.86"/><polygon class="cls-15" points="233.83 293.86 233.83 293.85 233.83 293.85 233.83 293.86"/><path class="cls-16" d="M233.84,293.83v0h0l-.31,1.18L186,475.54a27.77,27.77,0,0,0,9.67-2.5l165.61-77.38a32.62,32.62,0,0,0,6-8.66l0-.05h0Z"/><path class="cls-17" d="M9.84,386.12,4,388.53H4l.07.11a32.78,32.78,0,0,0,2.74,4.19c.57.74,1.17,1.45,1.81,2.14l163.72,78.09A27.89,27.89,0,0,0,186,475.54l47.79-181.69Z"/><path class="cls-18" d="M186,475.55l-.71,2.7a31.61,31.61,0,0,0,9.91-1.87l159.57-75.57a32.08,32.08,0,0,0,6.51-5.14L195.71,473.05A27.77,27.77,0,0,1,186,475.55Z"/><path class="cls-19" d="M172.35,473.07,8.63,395a32.52,32.52,0,0,0,6.72,5.55l158.83,76a31.52,31.52,0,0,0,11.15,1.72l.71-2.7A27.89,27.89,0,0,1,172.35,473.07Z"/><path class="cls-20" d="M280.38,169.55l15.44-41.23a20.31,20.31,0,0,0-1,2l-14.18,37.39-1.71,5.3Z"/><path class="cls-21" d="M280.38,169.55l15.44-41.23a20.31,20.31,0,0,0-1,2l-14.18,37.39-1.71,5.3Z"/><path class="cls-22" d="M301.56,122c-.4.28-.79.58-1.17.89l9.15-5.83Z"/><path class="cls-23" d="M301.56,122c-.4.28-.79.58-1.17.89l9.15-5.83Z"/><path class="cls-24" d="M296.17,131.87c2-4.42,3.61-6.6,7.46-9l35.19-21.75a4,4,0,0,0-3.86.15L309.54,117l-9.15,5.83a19.63,19.63,0,0,0-4.57,5.48l-15.44,41.23Z"/><path class="cls-25" d="M296.17,131.87c2-4.42,3.61-6.6,7.46-9l35.19-21.75a4,4,0,0,0-3.86.15L309.54,117l-9.15,5.83a19.63,19.63,0,0,0-4.57,5.48l-15.44,41.23Z"/><path class="cls-26" d="M30.65,143.68a14,14,0,0,1,6.68-10.08l48.81-31a4,4,0,0,0-2.78.46l-48,29.12a16.46,16.46,0,0,0-6.28,9.31L.72,365.24l0,.3Z"/><path class="cls-26" d="M296.17,131.87c2-4.42,3.61-6.6,7.46-9l35.19-21.75a4,4,0,0,0-3.86.15L309.54,117l-9.15,5.83a19.63,19.63,0,0,0-4.57,5.48l-15.44,41.23Z"/><path class="cls-27" d="M250.76.46,160,57c-4.53,2.8-6.53,5.2-8.85,10.72L101.72,181l-6.67,15.9.06.15,138.73,96.74,44.69-119.35-.24-.56,0,.08L230.47,65.37l-.24-.54,0-.08L252.77,5.87A4.24,4.24,0,0,0,250.76.46Z"/><path class="cls-26" d="M160,57,250.76.46a4,4,0,0,0-4,.16L158,56.08c-3.81,2.6-5.59,4.57-7.14,7.87L101.72,181l49.43-113.3C153.47,62.22,155.47,59.82,160,57Z"/><path class="cls-28" d="M296.17,131.87l-15.79,37.68-1.85,4.93,91,206.52a32.68,32.68,0,0,0,.56-13.67L334,153.4l7.08-47.32a4.22,4.22,0,0,0-2.26-4.94l-35.19,21.75C299.78,125.27,298.19,127.45,296.17,131.87Z"/><path class="cls-29" d="M233.84,293.83,367.37,387a31.76,31.76,0,0,0,2.15-5.95l-91-206.52Z"/><g class="cls-30"><path d="M370.08,367.33,334,153.4l7.08-47.32a4.22,4.22,0,0,0-2.26-4.94,4,4,0,0,0-3.86.15L309.54,117l-8,4.94c-.4.28-.79.58-1.17.89a19.63,19.63,0,0,0-4.57,5.48,20.31,20.31,0,0,0-1,2l-14.18,37.39-2.36,6.23,0,.08L230.47,65.37l-.24-.54,0-.08L252.77,5.87a4.24,4.24,0,0,0-2-5.41,4,4,0,0,0-4,.16L158,56.08c-3.81,2.6-5.59,4.57-7.14,7.87L101.72,181l-6.67,15.9,0,.08-.08-.19-16.35-42.1L89.28,108.3a4.24,4.24,0,0,0-3.14-5.69,4,4,0,0,0-2.78.46l-48,29.12a16.46,16.46,0,0,0-6.28,9.31L.72,365.24l-.31,2.42A32.75,32.75,0,0,0,4,388.53H4l.07.11a32.78,32.78,0,0,0,2.74,4.19c.57.74,1.17,1.45,1.81,2.14a32.52,32.52,0,0,0,6.72,5.55l158.83,76a31.53,31.53,0,0,0,21.06-.16L354.81,400.8a32.08,32.08,0,0,0,6.51-5.14,32.62,32.62,0,0,0,6-8.66l0-.05h0a31.76,31.76,0,0,0,2.15-5.95A32.68,32.68,0,0,0,370.08,367.33Z"/></g></g></g></g></svg>