<svg xmlns="http://www.w3.org/2000/svg" viewBox="0 0 267.02 267.02"><defs><style>.cls-1{fill:#d3004c;}.cls-2{fill:#fff;}.cls-3{fill:#80684b;}.cls-4{fill:#010101;}</style></defs><g id="Layer_2" data-name="Layer 2"><g id="Layer_1-2" data-name="Layer 1"><circle class="cls-1" cx="133.51" cy="133.51" r="133.51"/><path class="cls-2" d="M248.58,157.38A117.55,117.55,0,0,1,110.9,248.83,96.61,96.61,0,0,1,108.14,219c-2.12,2.92-4.11,5.93-6.11,8.93a74.37,74.37,0,0,1-5.21-24.12,81,81,0,0,1,1.11-17.94,65.47,65.47,0,0,1,4.52-14.59,73.74,73.74,0,0,1,25.44-30.64c-15.62,1.66-31.47,2.38-47.11.6A18.49,18.49,0,0,1,67.51,133c-4.66-6-6.29-13.57-9.19-20.45-1.68-3.87,1.36-7.57,4.64-9.27,7.42-3.91,15.84-5.08,23.88-7.1,1.23-.34,2.5-.62,3.76-1a16.22,16.22,0,0,0,7.07-3.3c6.5-5.3,10.15-13.36,17-18.27.47,7,2.5,14.54,7.93,19.42a16.19,16.19,0,0,0,14,4.1c8.42-1.23,15.82-5.81,22.77-10.43,1.94-1.29,8.92-5.54,2.34-13.86a8.58,8.58,0,0,0-11.06-1l-.14.09c-5.21,3.54-10.62,7.07-16.84,8.47a26.63,26.63,0,0,1-2.07-12.2c.05-1.81.21-3.62.39-5.39.48-4.21.91-8.56,2.82-12.41a2.59,2.59,0,0,1,2.91-.65c10.62,1.91,19.51,8.66,27.48,15.55,2.2,2.38,5.59,4,6.43,7.34,16.5,11.35,28,28.19,38.15,45.15C215,127,220,136.24,225.37,145.3a17.55,17.55,0,0,0,10.28,8l-.31.25A105.05,105.05,0,0,0,248.58,157.38Z"/><path class="cls-3" d="M139.44,157.88c5.77-1.76,11.19,2.06,14.9,6.09,4.74,5.61,8.08,13,7.31,20.44-1.23,12.39-18,19.31-27.92,12.18-3.8-2.82-4.64-7.87-7.64-11.31-2.31-2.42-5.91-.88-7.86,1.2-4.54,5-7.27,11.39-12,16.23C104.4,204.55,101.55,206,99,205c-5.44-2.24-8.22-7.91-10.14-13.11-1.61-5.09-2.32-11.21.86-15.85,2.33-3.37,6.86-3.51,10.5-4.35a107,107,0,0,0,32-10.32A65.61,65.61,0,0,1,139.44,157.88Z"/><path class="cls-3" d="M164.53,91.43c2.94-5.43-.33-11.64-5.35-14.9-9.73-6.46-22.27-9.2-34.15-8C112.63,70,99.4,74.71,92.22,84.61c-3.68,5-2.4,11.77,1.53,16.37,10,11.68,28.51,16,43.59,10.87,1.12-.36,2.24-.77,3.36-1.19-.79,4.36-.74,9.49,2.79,12.66,5.83,6.38,17.7,1.14,18.27-7.06.06-4.6-.64-9.33-3.08-13.31a7.65,7.65,0,0,0-2.58-1A31.47,31.47,0,0,0,164.53,91.43Z"/><path class="cls-4" d="M133.51,0C59.9,0,0,59.89,0,133.51,0,194.45,41.05,246,96.94,261.92A130.22,130.22,0,0,0,116.88,266a132.36,132.36,0,0,0,16.63,1c60.41,0,111.57-40.33,128-95.47a132.81,132.81,0,0,0,5.16-28.21c.24-3.25.36-6.52.36-9.83C267,59.89,207.13,0,133.51,0ZM16,133.51a117.51,117.51,0,0,1,235,0q0,3.57-.22,7.08a47.21,47.21,0,0,1-10.24-3.54c-2.33-2.86-3.83-6.3-5.72-9.45-12.34-22.33-25.27-45.13-44.77-62.09L155.7,38.1c-8.22-4-18-6.92-27-3.52-7.21,3-10.93,10.5-12.65,17.69-10.85,4.86-19,13.87-26.14,23.11-1.23,1.39-2.26,3.32-4.31,3.55-10.18,2.55-20.8,4.08-30.2,9-8,4-14.26,12-14.55,21-.6,6.7,3,12.61,4.91,18.78,3.5,10,9.43,19.74,18.66,25.45,7.29,4.78,16.29,5.43,24.76,5.75-3.25,7.11-6.2,14.41-7.75,22.1a96.17,96.17,0,0,0,4.74,53.57A17.3,17.3,0,0,0,92.05,242c.08.54.17,1.07.26,1.61A117.72,117.72,0,0,1,16,133.51Zm94.9,115.32A96.61,96.61,0,0,1,108.14,219c-2.12,2.92-4.11,5.93-6.11,8.93a74.37,74.37,0,0,1-5.21-24.12,81,81,0,0,1,1.11-17.94,65.47,65.47,0,0,1,4.52-14.59,73.74,73.74,0,0,1,25.44-30.64c-15.62,1.66-31.47,2.38-47.11.6A18.49,18.49,0,0,1,67.51,133c-4.66-6-6.29-13.57-9.19-20.45-1.68-3.87,1.36-7.57,4.64-9.27,7.42-3.91,15.84-5.08,23.88-7.1,1.23-.34,2.5-.62,3.76-1a16.22,16.22,0,0,0,7.07-3.3c6.5-5.3,10.15-13.36,17-18.27.47,7,2.5,14.54,7.93,19.42a16.19,16.19,0,0,0,14,4.1c8.42-1.23,15.82-5.81,22.77-10.43,1.94-1.29,8.92-5.54,2.34-13.86a8.58,8.58,0,0,0-11.06-1l-.14.09c-5.21,3.54-10.62,7.07-16.84,8.47a26.63,26.63,0,0,1-2.07-12.2c.05-1.81.21-3.62.39-5.39.48-4.21.91-8.56,2.82-12.41a2.59,2.59,0,0,1,2.91-.65c10.62,1.91,19.51,8.66,27.48,15.55,2.2,2.38,5.59,4,6.43,7.34,16.5,11.35,28,28.19,38.15,45.15C215,127,220,136.24,225.37,145.3a17.55,17.55,0,0,0,10.28,8l-.31.25a105.05,105.05,0,0,0,13.24,3.87A117.55,117.55,0,0,1,110.9,248.83Z"/></g></g></svg>