<svg width="38" height="45" viewBox="0 0 38 45" fill="none" xmlns="http://www.w3.org/2000/svg">
<path d="M4.6741 33.4069C-11.7164 12.442 20.0283 -12.3092 36.5749 8.85541L4.6741 33.4069Z" fill="#9D174D"/>
<path d="M9.67515 30.0338C-2.61775 14.3101 21.1908 -4.25329 33.6008 11.6202L9.67515 30.0338Z" fill="white"/>
<path d="M12.6627 26.9649C4.46748 16.4824 20.3398 4.10681 28.6131 14.6891L12.6627 26.9649Z" fill="#DB2777"/>
<path d="M16.6504 23.896C12.5527 18.6547 20.4889 12.4669 24.6256 17.7581L16.6504 23.896Z" fill="white"/>
<path d="M32.9861 11.6175C49.3766 32.5824 17.6319 57.3336 1.08526 36.169L32.9861 11.6175Z" fill="white"/>
<path d="M29.3838 14.6837C41.6767 30.4074 17.8682 48.9708 5.45819 33.0973L29.3838 14.6837Z" fill="#BE185D"/>
<path d="M25.3962 17.7526C33.5915 28.2351 17.7191 40.6107 9.44579 30.0284L25.3962 17.7526Z" fill="white"/>
<path d="M21.4086 20.8216C25.5062 26.0628 17.57 32.2506 13.4334 26.9594L21.4086 20.8216Z" fill="#EC4899"/>
</svg>
