<svg version="1.2" xmlns="http://www.w3.org/2000/svg" viewBox="0 0 400 400" width="400" height="400">
	<title>phork</title>
	<defs>
		<linearGradient id="phorkGradientComplete" gradientUnits="userSpaceOnUse"  x1="399.738" y1="32.595" x2="1" y2="367.177">
			<stop offset="0" stop-color="#ff3232"  />
			<stop offset="1" stop-color="#f41150"  />
		</linearGradient>
		<linearGradient id="phorkGradientBottom3" gradientUnits="userSpaceOnUse"  x1="76" y1="54.764" x2="399.738" y2="378.502">
			<stop offset="0" stop-color="#ff3232"  />
			<stop offset="1" stop-color="#ff6020"  />
		</linearGradient>
		<linearGradient id="phorkGradientBottom2" gradientUnits="userSpaceOnUse"  x1="142" y1="92.885" x2="399.738" y2="350.623">
			<stop offset="0" stop-color="#ff8e0d"  />
			<stop offset="0.74" stop-color="#fca60a"  />
		</linearGradient>
		<linearGradient id="phorkGradientTop3" gradientUnits="userSpaceOnUse"  x1="1" y1="161.937" x2="366.295" y2="161.937">
			<stop offset="0" stop-color="#ff8e0d"  />
			<stop offset="1" stop-color="#ff6020"  />
		</linearGradient>
		<linearGradient id="phorkGradientTop2" gradientUnits="userSpaceOnUse"  x1="310.843" y1="257" x2="45.617" y2="0.874">
			<stop offset="0" stop-color="#ffffff"  />
			<stop offset="1" stop-color="#ffffff" stop-opacity="0" />
		</linearGradient>
	</defs>
	<style>
		.phorkComplete { fill: url(#phorkGradientComplete) } 
		.phorkBottom3 { fill: url(#phorkGradientBottom3) } 
		.phorkBottom2 { fill: url(#phorkGradientBottom2) } 
		.phorkTop3 { opacity: 0.4; fill: url(#phorkGradientTop3) } 
		.phorkTop2 { opacity: 0.10; fill: url(#phorkGradientTop2) } 
	</style>
	<g id="phorkLogo">
		<path class="phorkComplete" d="M258.74 323.19C231.51 363.62 191.4 396.08 145.17 398.9L40.05 398.85C15.33 398.82 0.59 385.69 1.12 354.95L1 254.73C3.09 207.77 37.4 169.75 76.71 141.16L273 4.42C288.8 -6.58 306.2 10.42 291.2 22.42C256.57 50.13 122.33 172.04 122.33 172.04C110 183.7 125.33 198.37 137 187.37L307.2 38.42C322.2 26.42 339 43.62 325 56.55L168 216.7C155.67 229.7 170.67 244.04 183 231.7C197.01 217.69 343.99 73.86 344.17 73.68C357.17 61.33 374.63 78.62 361.83 92.02C361.83 92.02 214.5 260.15 214 260.7C201.67 274.37 216.67 290.37 228.33 277.37C228.33 277.37 377.64 108.06 377.83 107.85C390.33 93.85 407 111.02 396.33 125.04L258.74 323.19Z" />
		<path class="phorkBottom3" d="M258.74 323.19C231.51 363.62 191.4 396.08 145.17 398.9L139.69 398.9C101.22 372.73 76 328.61 76 278.5C76 234.03 95.87 194.26 127.23 167.59C124.08 170.45 122.33 172.04 122.33 172.04C110 183.7 125.33 198.37 137 187.37L307.2 38.42C322.2 26.42 339 43.62 325 56.55L168 216.7C155.67 229.7 170.67 244.04 183 231.7C197.01 217.69 343.99 73.86 344.17 73.68C357.17 61.33 374.63 78.62 361.83 92.02C361.83 92.02 214.5 260.15 214 260.7C201.67 274.37 216.67 290.37 228.33 277.37C228.33 277.37 377.64 108.06 377.83 107.85C390.33 93.85 407 111.02 396.33 125.04L258.74 323.19Z" />
		<path class="phorkBottom2" d="M258.74 323.19C245.49 342.86 229.19 360.65 210.62 374.05C170.91 362.29 142 325.57 142 282C142 252.89 154.9 226.84 175.31 209.24L168 216.7C155.67 229.7 170.67 244.04 183 231.7C197.01 217.69 343.99 73.86 344.17 73.68C357.17 61.33 374.63 78.62 361.83 92.02C361.83 92.02 214.5 260.15 214 260.7C201.67 274.37 216.67 290.37 228.33 277.37C228.33 277.37 377.64 108.06 377.83 107.85C390.33 93.85 407 111.02 396.33 125.04L258.74 323.19Z" />
		<path class="phorkTop3" d="M1 254.73C3.09 207.77 37.4 169.75 76.71 141.16L273 4.42C288.8 -6.58 306.2 10.42 291.2 22.42C256.57 50.13 122.33 172.04 122.33 172.04C110 183.7 125.33 198.37 137 187.37L307.2 38.42C322.2 26.42 339 43.62 325 56.55L168 216.7C155.67 229.7 170.67 244.04 183 231.7C197.01 217.69 343.99 73.86 344.17 73.68C357.17 61.33 374.63 78.62 361.83 92.02C361.83 92.02 214.5 260.15 214 260.7C203.18 272.69 213.39 286.47 223.94 280.91C197.66 306.94 161.48 323 121.5 323C71.33 323 27.15 297.71 1.01 259.17L1 254.73Z" />
		<path class="phorkTop2" d="M76.71 141.16L273 4.42C288.8 -6.58 306.2 10.42 291.2 22.42C256.57 50.13 122.33 172.04 122.33 172.04C110 183.7 125.33 198.37 137 187.37L307.2 38.42C322.2 26.42 339 43.62 325 56.55L168 216.7C156.24 229.1 169.34 242.71 181.27 233.25C164.39 248.04 142.26 257 118 257C74.75 257 38.26 228.53 26.22 189.27C39.82 171.06 57.68 155.01 76.71 141.16ZM183.08 231.62C184.1 230.61 185.77 228.95 188 226.75C186.42 228.43 184.78 230.06 183.08 231.62Z" />
	</g>
</svg>