<svg xmlns="http://www.w3.org/2000/svg" xmlns:xlink="http://www.w3.org/1999/xlink" viewBox="0 0 1024 1024"><defs><style>.cls-1{fill:url(#linear-gradient);}.cls-2{fill:#fff;}</style><linearGradient id="linear-gradient" x1="68.08" y1="955.92" x2="955.92" y2="68.08" gradientUnits="userSpaceOnUse"><stop offset="0" stop-color="blue"/><stop offset="1" stop-color="#ed1e79"/></linearGradient><symbol id="Icon" data-name="Icon" viewBox="0 0 1024 1024"><path id="App_Icon_Placeholder" data-name="App Icon Placeholder" class="cls-1" d="M357,0H667C769.8,0,821.18,0,876.52,17.49a217.47,217.47,0,0,1,130,130C1024,202.83,1024,254.22,1024,357V667c0,102.8,0,154.19-17.5,209.53a217.43,217.43,0,0,1-130,130C821.18,1024,769.8,1024,667,1024H357c-102.79,0-154.17,0-209.51-17.5a217.43,217.43,0,0,1-130-130C0,821.18,0,769.79,0,667V357C0,254.22,0,202.83,17.5,147.48a217.47,217.47,0,0,1,130-130C202.82,0,254.2,0,357,0h0"/><path class="cls-2" d="M512,448c42.87-.54,77.6-35.27,77.6-78.14V250.48H526.11V217.92H544V137.07H480.53v81.4h17.9V251h-64V370.4A77.58,77.58,0,0,0,512,448Zm0-98.22a31.48,31.48,0,1,1-31.47,31.48A31.5,31.5,0,0,1,512,349.78Z"/><path class="cls-2" d="M714.39,586.37l-38.52-38.53a233.22,233.22,0,0,1-40.7,32.56L592.3,433.89a107.69,107.69,0,0,1-49.92,35.81L582,605.36a239.33,239.33,0,0,1-146,0l39.61-136.2a107.13,107.13,0,0,1-50.46-35.27L382.3,580.4a233.22,233.22,0,0,1-40.7-32.56l-38.52,38.53a282.37,282.37,0,0,0,63.49,47.75l-25,86.28,1.09,99.84,54.81-83.56L421.37,658a297.68,297.68,0,0,0,87.91,13.56A301.32,301.32,0,0,0,597.73,658l23.33,79.76,54.26,83,1.09-99.85-25-86.28A281.91,281.91,0,0,0,714.39,586.37Z"/></symbol></defs><g id="Layer_2" data-name="Layer 2"><g id="App_Icon_Kit_B" data-name="App Icon Kit B"><g id="App_Icon_and_Badge" data-name="App Icon and Badge"><g id="Main"><use width="1024" height="1024" xlink:href="#Icon"/></g></g></g></g></svg>