<?xml version="1.0" encoding="UTF-8"?>
<svg width="622px" height="624px" viewBox="0 0 622 624" version="1.1" xmlns="http://www.w3.org/2000/svg" xmlns:xlink="http://www.w3.org/1999/xlink">
    <g stroke="none" stroke-width="1" fill="none" fill-rule="evenodd">
        <path d="M418.9645,52 C445.044888,52 469.144161,65.9137214 482.184355,88.5 L482.184355,88.5 L590.148855,275.5 C596.668952,286.793139 599.929001,299.39657 599.929001,312 C599.929001,324.60343 596.668952,337.206861 590.148855,348.5 L590.148855,348.5 L482.184355,535.5 C475.664258,546.793139 466.379391,555.918139 455.4645,562.219854 C444.549609,568.52157 432.004694,572 418.9645,572 L418.9645,572 L203.0355,572 C176.955112,572 152.855839,558.086279 139.815645,535.5 L139.815645,535.5 L31.8511448,348.5 C18.8109508,325.913721 18.8109508,298.086279 31.8511448,275.5 L31.8511448,275.5 L139.815645,88.5 C152.855839,65.9137214 176.955112,52 203.0355,52 L203.0355,52 Z" stroke="#00F8FF" stroke-width="20" fill="#191A1E"></path>
        <path d="M349.92922,104.561887 C384.282684,140.826541 405.01841,179.728354 406.476906,220.03285 C408.237413,268.68323 381.640914,314.18324 324.809957,354.612791 C321.940739,356.151576 320.86221,359.724968 322.400994,362.594186 C323.427645,364.508479 325.423841,365.703085 327.596058,365.703127 L345.045915,365.703465 C351.420911,365.703589 356.588801,370.871579 356.588801,377.246575 C356.588801,383.621463 351.420933,388.78933 345.046045,388.78933 C345.046002,388.78933 345.045958,388.78933 345.045915,388.78933 L282.99616,388.788629 C273.924014,388.788527 266.569503,396.142871 266.5694,405.215017 C266.5694,405.215079 266.5694,405.215141 266.5694,405.215203 C266.5694,414.287144 273.923661,421.641405 282.995602,421.641405 C282.995788,421.641405 282.995974,421.641405 282.99616,421.641405 L359.937168,421.638792 C366.306096,421.638576 371.469307,426.801437 371.469524,433.170364 C371.469524,433.170495 371.469524,433.170626 371.469524,433.170756 C371.469524,439.540263 366.306675,444.704116 359.937169,444.705355 L266.594138,444.723516 C257.507192,444.725284 250.141705,452.092204 250.141705,461.17915 C250.141705,470.265623 257.507665,477.631707 266.594138,477.63186 L345.00792,477.633176 C351.403895,477.633284 356.588801,482.818276 356.588801,489.214251 C356.588801,495.61022 351.403888,500.795199 345.00792,500.795282 L268.118458,500.796276 L268.118458,500.796276 C268.79391,506.288982 276.758915,515.204743 268.118458,520.980933 C261.501666,525.404292 252.329075,525.33486 247.241574,518.303124 L242.305604,511.44717 L241.537181,510.365691 C220.000293,479.988764 211.773421,458.824357 217.554282,431.366005 C222.699092,406.928809 240.141598,382.296871 272.126627,355.169586 L275.9568,351.966489 C282.452697,346.608345 289.51109,341.150794 297.148904,335.576493 L301.801258,332.217763 L304.179836,330.527631 C307.740319,327.866034 308.46901,322.822041 305.807412,319.261558 C304.287903,317.228875 301.898728,316.031878 299.360873,316.031788 L262.663358,316.03049 C255.747768,316.030246 250.141705,310.423984 250.141705,303.508394 C250.141705,296.592447 255.747411,290.985554 262.663358,290.984091 L339.875492,290.967751 C348.905847,290.96584 356.225384,283.644755 356.225384,274.614399 C356.225384,265.584565 348.905326,258.264401 339.875491,258.26427 L236.513777,258.262774 C230.117522,258.262681 224.932382,253.077466 224.932382,246.681211 C224.932382,240.284695 230.117261,235.099019 236.513777,235.098037 L359.179967,235.079211 C368.224164,235.077823 375.555199,227.745663 375.555199,218.701466 C375.555199,209.657675 368.223758,202.326234 359.179966,202.326234 L236.502544,202.326234 C230.11252,202.326234 224.932382,197.146095 224.932382,190.756071 C224.932382,184.365699 230.112172,179.184947 236.502544,179.183761 L339.773173,179.164595 C348.859972,179.162908 356.225384,171.79613 356.225384,162.709331 C356.225384,153.623015 348.859489,146.257091 339.773173,146.257054 L259.122281,146.256725 C252.244715,146.256697 246.669362,140.681321 246.669362,133.803756 C246.669362,126.92628 252.244658,121.350983 259.122135,121.350983 C259.122183,121.350983 259.122232,121.350983 259.122281,121.350983 L325.491011,121.351761 L325.491011,121.351761 C323.801662,115.801251 324.928215,109.439993 328.911596,104.944706 C334.618599,98.5042952 344.028509,98.3329011 349.92922,104.561887 Z" fill="#00F8FF"></path>
    </g>
</svg>