<svg xmlns="http://www.w3.org/2000/svg" xmlns:xlink="http://www.w3.org/1999/xlink" width="500" zoomAndPan="magnify" viewBox="0 0 375 374.999991" height="500" preserveAspectRatio="xMidYMid meet" version="1.0"><defs><g/><clipPath id="id1"><path d="M 0 43.808594 L 375 43.808594 L 375 331.058594 L 0 331.058594 Z M 0 43.808594 " clip-rule="nonzero"/></clipPath></defs><rect x="-37.5" width="450" fill="rgb(100%, 100%, 100%)" y="-37.499999" height="449.999989" fill-opacity="1"/><rect x="-37.5" width="450" fill="rgb(0%, 0%, 0%)" y="-37.499999" height="449.999989" fill-opacity="1"/><rect x="-37.5" width="450" fill="rgb(100%, 100%, 100%)" y="-37.499999" height="449.999989" fill-opacity="1"/><rect x="-37.5" width="450" fill="rgb(0%, 0%, 0%)" y="-37.499999" height="449.999989" fill-opacity="1"/><g clip-path="url(#id1)"><path fill="rgb(85.099792%, 85.099792%, 85.099792%)" d="M 323.679688 233.015625 C 325.410156 227.851562 326.859375 222.566406 327.972656 217.160156 L 419.773438 217.160156 L 436.886719 195.363281 L 330.835938 195.363281 C 330.976562 192.738281 331.054688 190.097656 331.054688 187.433594 C 331.054688 184.769531 330.976562 182.128906 330.835938 179.503906 L 449.328125 179.503906 L 466.4375 157.707031 L 327.953125 157.707031 C 326.820312 152.300781 325.390625 147.015625 323.660156 141.851562 L 478.878906 141.851562 L 495.992188 120.050781 L 314.28125 120.050781 C 290.132812 74.6875 242.375 43.828125 187.382812 43.828125 C 132.410156 43.828125 84.632812 74.707031 60.484375 120.050781 L -121.222656 120.050781 L -104.113281 141.851562 L 51.105469 141.851562 C 49.375 147.015625 47.925781 152.300781 46.792969 157.707031 L -91.671875 157.707031 L -74.558594 179.503906 L 43.929688 179.503906 C 43.773438 182.128906 43.710938 184.769531 43.710938 187.433594 C 43.710938 190.097656 43.792969 192.738281 43.929688 195.363281 L -62.117188 195.363281 L -45.007812 217.160156 L 46.792969 217.160156 C 47.925781 222.566406 49.355469 227.851562 51.085938 233.015625 L -32.566406 233.015625 L -15.453125 254.816406 L 60.464844 254.816406 C 84.613281 300.179688 132.371094 331.058594 187.363281 331.058594 C 242.335938 331.058594 290.113281 300.179688 314.261719 254.816406 L 390.179688 254.816406 L 407.292969 233.015625 L 323.640625 233.015625 Z M 62.8125 187.433594 C 62.8125 118.621094 118.597656 62.84375 187.421875 62.84375 C 256.246094 62.84375 312.035156 118.621094 312.035156 187.433594 C 312.035156 256.246094 256.246094 312.023438 187.421875 312.023438 C 118.597656 312.023438 62.8125 256.246094 62.8125 187.433594 Z M 62.8125 187.433594 " fill-opacity="1" fill-rule="evenodd"/></g><path fill="rgb(81.17981%, 100%, 0%)" d="M 157.96875 182.503906 C 156.875 179.644531 156.359375 176.347656 156.4375 172.628906 C 156.5 169.074219 157.195312 165.875 158.527344 163.011719 C 159.835938 160.152344 161.6875 157.667969 164.050781 155.542969 C 166.417969 153.414062 169.257812 151.726562 172.597656 150.472656 C 175.9375 149.222656 179.59375 148.40625 183.566406 148.070312 L 183.707031 140.699219 L 196.921875 140.9375 L 196.785156 148.566406 C 201.355469 149.320312 205.546875 150.535156 209.363281 152.164062 C 213.199219 153.792969 216.835938 155.878906 220.253906 158.402344 L 211.472656 173.125 C 208.96875 171.378906 206.402344 169.828125 203.800781 168.476562 C 201.195312 167.125 198.53125 166.074219 195.851562 165.359375 L 195.511719 184.550781 C 205.132812 187.355469 212.066406 190.929688 216.359375 195.28125 C 220.652344 199.632812 222.738281 205.378906 222.601562 212.492188 C 222.542969 216.046875 221.824219 219.246094 220.453125 222.128906 C 219.082031 224.988281 217.214844 227.472656 214.851562 229.597656 C 212.484375 231.726562 209.621094 233.433594 206.304688 234.726562 C 202.984375 236.039062 199.269531 236.851562 195.195312 237.210938 L 194.976562 249.789062 L 181.757812 249.550781 L 181.996094 236.714844 C 176.492188 235.9375 171.207031 234.46875 166.117188 232.300781 C 161.03125 230.136719 156.398438 227.414062 152.207031 224.113281 L 162.382812 209.808594 C 165.820312 212.492188 169.140625 214.734375 172.378906 216.542969 C 175.617188 218.332031 179.136719 219.644531 182.933594 220.480469 L 183.289062 200.269531 C 178.738281 198.917969 174.742188 197.429688 171.34375 195.800781 C 167.925781 194.167969 165.125 192.28125 162.917969 190.117188 C 160.710938 187.96875 159.0625 185.445312 157.96875 182.585938 Z M 176.710938 176.921875 C 177.863281 178.394531 180.167969 179.785156 183.628906 181.113281 L 183.925781 163.945312 C 180.863281 164.324219 178.617188 165.199219 177.207031 166.628906 C 175.777344 168.039062 175.0625 169.769531 175.023438 171.796875 C 174.980469 173.742188 175.558594 175.453125 176.710938 176.921875 Z M 195.195312 203.449219 L 194.875 221.234375 C 200.898438 220.417969 203.957031 217.714844 204.039062 213.125 C 204.078125 210.921875 203.460938 209.09375 202.230469 207.640625 C 200.976562 206.171875 198.632812 204.78125 195.195312 203.449219 Z M 187.421875 288.355469 C 243.171875 288.355469 288.363281 243.171875 288.363281 187.433594 C 288.363281 131.695312 243.171875 86.511719 187.421875 86.511719 C 131.675781 86.511719 86.480469 131.695312 86.480469 187.433594 C 86.480469 243.171875 131.675781 288.355469 187.421875 288.355469 Z M 187.421875 288.355469 " fill-opacity="1" fill-rule="evenodd"/><path fill="rgb(81.17981%, 100%, 0%)" d="M 187.5 91.875 C 134.6875 91.875 91.875 134.6875 91.875 187.5 C 91.875 240.3125 134.6875 283.125 187.5 283.125 C 240.3125 283.125 283.125 240.3125 283.125 187.5 C 283.125 134.6875 240.3125 91.875 187.5 91.875 " fill-opacity="1" fill-rule="nonzero"/><g fill="rgb(0%, 0%, 0%)" fill-opacity="1"><g transform="translate(112.381828, 230.558146)"><g><path d="M 73.25 0 L 10.46875 0 L 10.46875 -93.84375 L 73.25 -93.84375 C 98.925781 -93.84375 117.390625 -90.25 128.640625 -83.0625 C 137.710938 -77.257812 142.878906 -69.363281 144.140625 -59.375 C 144.703125 -55.0625 144.984375 -50.898438 144.984375 -46.890625 C 144.984375 -42.921875 144.710938 -38.765625 144.171875 -34.421875 C 143.628906 -30.085938 142.179688 -25.882812 139.828125 -21.8125 C 137.472656 -17.738281 133.734375 -14.066406 128.609375 -10.796875 C 123.484375 -7.523438 116.460938 -4.90625 107.546875 -2.9375 C 98.628906 -0.976562 87.195312 0 73.25 0 Z M 69.515625 -23.21875 C 89.523438 -23.21875 100.84375 -28.273438 103.46875 -38.390625 C 104.164062 -41.222656 104.515625 -44.054688 104.515625 -46.890625 C 104.515625 -49.765625 104.148438 -52.609375 103.421875 -55.421875 C 102.703125 -58.234375 101.175781 -60.785156 98.84375 -63.078125 C 96.519531 -65.367188 93.023438 -67.195312 88.359375 -68.5625 C 83.691406 -69.9375 77.410156 -70.625 69.515625 -70.625 L 49.828125 -70.625 L 49.828125 -23.21875 Z M 69.515625 -23.21875 "/></g></g></g><path stroke-linecap="butt" transform="matrix(0.000000000000001254, -20.484194, 20.249999, 0.00000000000000124, 154.716866, 149.375952)" fill="none" stroke-linejoin="miter" d="M 0.0000464647 0.0000930597 L 1.501585 0.0000930597 " stroke="rgb(0%, 0%, 0%)" stroke-width="1" stroke-opacity="1" stroke-miterlimit="4"/><path stroke-linecap="butt" transform="matrix(0.000000000000001233, -20.142329, 20.249999, 0.00000000000000124, 211.238765, 249.467736)" fill="none" stroke-linejoin="miter" d="M -0.000050321 -0.0000238903 L 1.415268 -0.0000238903 " stroke="rgb(0%, 0%, 0%)" stroke-width="1" stroke-opacity="1" stroke-miterlimit="4"/><path stroke-linecap="butt" transform="matrix(0.000000000000001242, -20.276963, 20.249999, 0.00000000000000124, 211.236348, 154.182148)" fill="none" stroke-linejoin="miter" d="M -0.0000712865 0.0000954578 L 1.738933 0.0000954578 " stroke="rgb(0%, 0%, 0%)" stroke-width="1" stroke-opacity="1" stroke-miterlimit="4"/><path stroke-linecap="butt" transform="matrix(0.000000000000001248, -20.379359, 20.249999, 0.00000000000000124, 154.719311, 249.469232)" fill="none" stroke-linejoin="miter" d="M 0.0000236326 -0.0000277106 L 1.177686 -0.0000277106 " stroke="rgb(0%, 0%, 0%)" stroke-width="1" stroke-opacity="1" stroke-miterlimit="4"/></svg>