<svg viewBox="0 0 850.39 850.39" xmlns="http://www.w3.org/2000/svg" xmlns:xlink="http://www.w3.org/1999/xlink"><linearGradient id="a" gradientUnits="userSpaceOnUse" x1="776.77" x2="628.96" y1="585.81" y2="114.01"><stop offset="0" stop-color="#ff8e44"/><stop offset=".51" stop-color="#ff005c"/><stop offset="1" stop-color="#721269"/></linearGradient><linearGradient id="b" x1="55.44" x2="225.65" xlink:href="#a" y1="211.78" y2="734.35"/><linearGradient id="c" gradientUnits="userSpaceOnUse" x1="275.4" x2="223.83" y1="350.75" y2="492.45"><stop offset=".15" stop-color="#ff2955"/><stop offset=".78" stop-color="#b71d5f"/></linearGradient><linearGradient id="d" x1="415.91" x2="363.06" xlink:href="#c" y1="354.67" y2="499.88"/><linearGradient id="e" x1="605.23" x2="542.75" xlink:href="#c" y1="339.24" y2="510.89"/><linearGradient id="f" gradientTransform="matrix(0 -1 1 0 606.82 -213.16)" x1="-285.96" x2="-433.77" xlink:href="#a" y1="-21.28" y2="-493.08"/><linearGradient id="g" gradientTransform="matrix(0 -1 1 0 606.82 -213.16)" x1="-1009.29" x2="-839.08" xlink:href="#a" y1="-395.3" y2="127.26"/><circle cx="425.22" cy="424.99" r="420.86"/><path d="m608.82 99.32c177.22 177.21 204 447.86 80.43 653.36a422.21 422.21 0 0 0 33.59-30.18c164.22-164.21 164.22-430.46 0-594.68a418.59 418.59 0 0 0 -232.84-118.18 534.76 534.76 0 0 1 118.82 89.68z" fill="url(#a)"/><path d="m241.49 751.52c-177.22-177.22-204-447.87-80.43-653.37a427.72 427.72 0 0 0 -33.59 30.18c-164.21 164.22-164.21 430.47 0 594.67a418.55 418.55 0 0 0 232.82 118.19 535.07 535.07 0 0 1 -118.8-89.67z" fill="url(#b)"/><path d="m608.82 99.32c177.22 177.21 204 447.86 80.43 653.36a422.21 422.21 0 0 0 33.59-30.18c164.22-164.21 164.22-430.46 0-594.68a418.59 418.59 0 0 0 -232.84-118.18 534.76 534.76 0 0 1 118.82 89.68z" fill="url(#a)"/><path d="m241.49 751.52c-177.22-177.22-204-447.87-80.43-653.37a427.72 427.72 0 0 0 -33.59 30.18c-164.21 164.22-164.21 430.47 0 594.67a418.55 418.55 0 0 0 232.82 118.19 535.07 535.07 0 0 1 -118.8-89.67z" fill="url(#b)"/><path d="m298.46 365.89a36.89 36.89 0 0 1 10.63 17.86 40.55 40.55 0 0 1 0 20.81 42 42 0 0 1 -2.94 8.26 33.3 33.3 0 0 1 -5 7.35q-5.65 5.2-16.18 7.69a144.42 144.42 0 0 1 -22.16 3.39q-11.65.92-22.39.91h-16.6q-.45 12.21 2.26 16.51 4.53 7 10.18 8.37a36.17 36.17 0 0 0 18.77-.45q13.12-3.4 25.34-17.19c2.71-2.87 6.4-4.22 11.08-4.08a19.5 19.5 0 0 1 11.08 3.17 13.12 13.12 0 0 1 4.87 4.64 17.64 17.64 0 0 1 2.26 6.22 25.69 25.69 0 0 1 .22 6.78 50.09 50.09 0 0 1 -1 6.34 39.09 39.09 0 0 1 -5.21 12.32 29.6 29.6 0 0 1 -10 8.94 53.07 53.07 0 0 1 -20.67 9.27 118.27 118.27 0 0 1 -22.51 2q-24-.69-37.89-6.79t-20.78-17.21q-6.91-11.2-8.15-27.6a233.87 233.87 0 0 1 .57-37.43q2-17.42 7.24-28.27a55.85 55.85 0 0 1 14.7-18.55 53.18 53.18 0 0 1 21.49-11.15q11.54-2.94 26.46-1.59a100 100 0 0 1 13.46 2.15 85 85 0 0 1 11.41 3.53 57 57 0 0 1 19.46 13.8zm-29.4 31.89a17.24 17.24 0 0 0 -1.13-9 21.23 21.23 0 0 0 -5-7.69 12 12 0 0 0 -7.46-3.62 23.17 23.17 0 0 0 -7.24-.23h-.45a25.78 25.78 0 0 0 -10.07 3.28 22.79 22.79 0 0 0 -6.9 6 16.83 16.83 0 0 0 -2.26 4.3 23.78 23.78 0 0 0 -.68 3.16l-.45 3.17a5.15 5.15 0 0 0 .23 2.71q6.33 1.59 17.41 1.47a98.42 98.42 0 0 0 24-3.55z" fill="url(#c)"/><path d="m430.1 360a34.4 34.4 0 0 1 17.19 15.27 71.6 71.6 0 0 1 8 23.19 107.57 107.57 0 0 1 1.27 25.54 118.22 118.22 0 0 1 -3.39 22.17 45.78 45.78 0 0 1 -4.63 10.83 49.71 49.71 0 0 1 -7.24 9.5 44.71 44.71 0 0 1 -9.39 7.35 31.06 31.06 0 0 1 -10.86 4 37.73 37.73 0 0 1 -12.66.11 43.86 43.86 0 0 1 -10.75-3.39 63.12 63.12 0 0 1 -9.72-5.66c-3.1-2.18-6.22-4.56-9.39-7.12q-.9 7.45-2.26 13.91a30.94 30.94 0 0 1 -4.41 11 17.84 17.84 0 0 1 -8.48 6.67c-3.62 1.44-8.37 1.92-14.25 1.47a48.74 48.74 0 0 1 -5.32-2.37 12.82 12.82 0 0 1 -4.41-4.19 24.85 24.85 0 0 1 -3.4-13.37 391.28 391.28 0 0 1 3.28-43.54q2.82-21.37 4-43.09c0-1.06 0-2 .11-2.94s.19-1.81.34-2.72v-7.91a11 11 0 0 1 .11-1.81 10.53 10.53 0 0 0 .11-1.59.47.47 0 0 1 .05-.31.91.91 0 0 0 .11-.56 12.78 12.78 0 0 1 -.23-5.43 49.81 49.81 0 0 1 .34-5.77 28.2 28.2 0 0 1 1.47-6 18 18 0 0 1 1.7-3.05 8.94 8.94 0 0 1 2.37-2.38 21.3 21.3 0 0 1 9.05-4.52 24.9 24.9 0 0 1 9.95.22h.24c1.66.76 3.24 1.51 4.75 2.27a25.17 25.17 0 0 1 4.52 2.94 38.18 38.18 0 0 1 5 15.38 61.16 61.16 0 0 1 10.73-4.77 56.9 56.9 0 0 1 12.22-2.72 53.37 53.37 0 0 1 12.44.11 37.53 37.53 0 0 1 11.44 3.28zm-19.9 76.68a10.62 10.62 0 0 0 4.75-4.52 22.69 22.69 0 0 0 2.26-6.34 35.15 35.15 0 0 0 .68-6.89v-6.22q-.47-10.18-4.3-15.61t-14.7-5.2a14.72 14.72 0 0 0 -4.3.68c-4.22 1.5-7.09 4.6-8.6 9.27a32.62 32.62 0 0 0 -1.13 14.81 35.1 35.1 0 0 0 5.21 14.14q4.06 6.33 10.63 7.24a15.09 15.09 0 0 0 9.5-1.36z" fill="url(#d)"/><path d="m667 396.42q.9 14.7 1 25.45t-.11 18.54q-.24 7.81-.8 13.46l-1 10.41c-.45 5.12-1 9.69-1.8 13.68a33.14 33.14 0 0 1 -3.51 10.18 16 16 0 0 1 -6.33 6.33 24 24 0 0 1 -12.22 2 18.21 18.21 0 0 0 -2.15-.12q-8.37-.9-12.1-6a26.44 26.44 0 0 1 -4.75-11.87 66.48 66.48 0 0 1 -.56-14q.45-7.23.45-12.44-.23-6.78-.11-13.46t-.12-13.23v-5.88a47.82 47.82 0 0 0 -.56-7.24 21.93 21.93 0 0 0 -2.15-6.67 8.31 8.31 0 0 0 -5-4.18q-8.6-3.16-12.77.45t-4.87 12.21a110 110 0 0 0 -.56 13.23q.1 6.68.33 13.46c0 2.57-.07 6.22-.22 11s-.57 9.73-1.24 14.93a87.81 87.81 0 0 1 -3.17 14.7q-2.16 6.9-6.22 10.07a11.63 11.63 0 0 1 -5.66 2.49 24.68 24.68 0 0 1 -14.36-1.7 9.42 9.42 0 0 1 -4.64-4 12.22 12.22 0 0 1 -1.58-5.43c-.3-2.56-.49-5.23-.57-8s-.11-5.42-.11-7.91v-5.32c0-2.26.11-5.91.34-11s.26-10.33.12-15.83a151.82 151.82 0 0 0 -1.25-15.83q-1-7.57-3.5-11a8.18 8.18 0 0 0 -2.27-2.27q-2.49-3.17-11.76-1.35c-1.35.3-2.79.68-4.3 1.13a12.88 12.88 0 0 0 -4.18 2.15 11.77 11.77 0 0 0 -3.17 3.73 12.16 12.16 0 0 0 -1.24 5.88q.45 11.76-.23 23.18t-1.81 23q-.45 18.56-7.23 25.79-3.4 3.84-12.67 5.42a21.66 21.66 0 0 1 -14.48-2.48q-7.45-4.08-8.14-17-.22-4.51-.23-8.48v-7.8q.23-3.86.23-8.71c0-3.24.07-6.82.23-10.74s.22-7.54.22-10.86v-42.3c.3-21.11 2.76-32.57 12.71-34.38a88 88 0 0 1 12.4-.45q10.86 1.35 12.67 14.7a20.76 20.76 0 0 1 .56 3.62c.07 1.21.19 2.41.34 3.62 2.26-3.17 4.45-6.14 6.56-8.94a46.61 46.61 0 0 1 6.9-7.35 35.77 35.77 0 0 1 8.48-5.31 36.51 36.51 0 0 1 11.31-2.83 33 33 0 0 1 10.4 1.13 20.76 20.76 0 0 1 8.6 5.43 43.53 43.53 0 0 1 10.18 17 76.22 76.22 0 0 1 19.56-17.07q10.53-6.22 19.79-5.77h.91a31.88 31.88 0 0 1 17.53 3.85 40.83 40.83 0 0 1 12.78 11.3 53.06 53.06 0 0 1 7.91 15.5 65.76 65.76 0 0 1 3.19 16.18z" fill="url(#e)"/><path d="m608.82 99.32c177.22 177.21 204 447.86 80.43 653.36a422.21 422.21 0 0 0 33.59-30.18c164.22-164.21 164.22-430.46 0-594.68a418.59 418.59 0 0 0 -232.84-118.18 534.76 534.76 0 0 1 118.82 89.68z" fill="url(#a)"/><path d="m241.49 751.52c-177.22-177.22-204-447.87-80.43-653.37a427.72 427.72 0 0 0 -33.59 30.18c-164.21 164.22-164.21 430.47 0 594.67a418.55 418.55 0 0 0 232.82 118.19 535.07 535.07 0 0 1 -118.8-89.67z" fill="url(#b)"/><path d="m608.82 99.32c177.22 177.21 204 447.86 80.43 653.36a422.21 422.21 0 0 0 33.59-30.18c164.22-164.21 164.22-430.46 0-594.68a418.59 418.59 0 0 0 -232.84-118.18 534.76 534.76 0 0 1 118.82 89.68z" fill="url(#a)"/><path d="m241.49 751.52c-177.22-177.22-204-447.87-80.43-653.37a427.72 427.72 0 0 0 -33.59 30.18c-164.21 164.22-164.21 430.47 0 594.67a418.55 418.55 0 0 0 232.82 118.19 535.07 535.07 0 0 1 -118.8-89.67z" fill="url(#b)"/><path d="m99.06 240.75c177.21-177.22 447.86-204 653.36-80.43a425.73 425.73 0 0 0 -30.18-33.59c-164.24-164.22-430.46-164.22-594.68 0a418.61 418.61 0 0 0 -118.18 232.82 534.82 534.82 0 0 1 89.68-118.8z" fill="url(#f)"/><path d="m751.26 610.08c-177.26 177.22-447.87 204.01-653.37 80.43a424.16 424.16 0 0 0 30.18 33.59c164.22 164.22 430.47 164.22 594.68 0a418.52 418.52 0 0 0 118.18-232.81 535 535 0 0 1 -89.67 118.79z" fill="url(#g)"/></svg>