<?xml version="1.0" standalone="no"?>
<!DOCTYPE svg PUBLIC "-//W3C//DTD SVG 20010904//EN"
 "http://www.w3.org/TR/2001/REC-SVG-20010904/DTD/svg10.dtd">
<svg version="1.0" xmlns="http://www.w3.org/2000/svg"
 width="133.000000pt" height="133.000000pt" viewBox="0 0 133.000000 133.000000"
 preserveAspectRatio="xMidYMid meet">

<g transform="translate(0.000000,133.000000) scale(0.100000,-0.100000)"
fill="#000000" stroke="none">
<path d="M595 1060 c-11 -5 -14 -9 -7 -9 7 -1 10 -5 7 -11 -11 -18 22 -11 46
10 l24 19 -25 0 c-14 0 -34 -4 -45 -9z"/>
<path d="M678 1053 c7 -3 16 -2 19 1 4 3 -2 6 -13 5 -11 0 -14 -3 -6 -6z"/>
<path d="M680 1020 c20 -13 63 -13 55 0 -3 6 -21 10 -38 10 -24 0 -28 -3 -17
-10z"/>
<path d="M796 964 c15 -22 29 -41 31 -43 2 -2 6 -2 9 1 9 10 -13 44 -42 63
l-27 17 29 -38z"/>
<path d="M850 886 c0 -19 -7 -42 -16 -50 -13 -14 -13 -16 -1 -16 12 0 26 -27
27 -51 0 -4 -17 -9 -37 -12 -108 -16 -128 -26 -118 -58 3 -8 -1 -24 -9 -34
-11 -16 -11 -21 0 -33 10 -10 11 -18 4 -33 -13 -23 -20 -24 -45 -5 -19 14 -19
15 -1 35 13 14 15 21 6 21 -9 0 -11 11 -6 40 5 33 4 38 -9 34 -8 -4 -15 -2
-15 4 0 12 -88 13 -95 1 -3 -4 -16 -6 -30 -4 -14 1 -25 -1 -26 -4 -7 -57 -5
-61 34 -68 26 -4 34 -9 25 -14 -27 -18 23 -9 61 10 32 17 38 17 38 4 0 -8 -10
-19 -23 -23 -33 -13 -45 -40 -26 -59 27 -27 118 -56 127 -40 4 5 15 9 26 9 10
0 19 4 19 10 0 5 7 7 16 3 12 -4 14 0 8 23 -4 16 -14 39 -22 52 -18 27 -9 40
14 21 10 -8 39 -14 68 -14 46 0 50 -2 49 -22 0 -13 -1 -34 -2 -48 -1 -22 -4
-24 -27 -15 -37 15 -40 12 -16 -10 12 -12 22 -27 22 -35 0 -8 4 -15 9 -15 17
0 2 -94 -17 -109 -12 -9 -14 -15 -4 -18 17 -7 15 -23 -4 -23 -8 0 -12 -5 -8
-11 6 -11 -1 -10 -56 9 -9 3 -7 -1 4 -10 19 -15 19 -16 1 -25 -19 -11 -55 -6
-55 8 0 5 -6 6 -14 3 -8 -3 -13 1 -13 10 1 8 -2 15 -7 15 -5 -1 -12 5 -16 11
-5 8 -11 1 -18 -19 -13 -37 -29 -40 -42 -8 -8 21 -9 21 -9 -5 -1 -16 -6 -28
-12 -28 -6 0 -9 7 -5 15 4 13 2 14 -14 5 -17 -9 -20 -8 -20 10 0 12 -7 34 -15
51 -15 28 -15 30 7 39 23 9 23 9 1 9 -12 1 -24 7 -26 14 -3 6 -6 2 -6 -10 -1
-12 -5 -25 -11 -28 -18 -11 -11 -32 26 -80 19 -26 33 -49 30 -52 -3 -3 -1 -14
4 -24 7 -12 6 -19 -2 -21 -7 -3 7 -15 29 -28 23 -13 45 -30 48 -38 10 -28 -77
-6 -100 25 -11 15 -31 38 -45 53 -29 28 -50 68 -78 150 -26 73 -37 79 -109 54
-54 -18 -58 -21 -64 -57 -3 -20 -13 -45 -22 -55 -10 -10 -17 -32 -17 -48 0
-38 -41 -75 -143 -127 l-77 -40 0 -53 0 -54 665 0 665 0 0 73 0 73 -94 32
c-52 18 -103 32 -114 32 -16 0 -23 10 -31 49 -6 26 -8 64 -5 83 8 47 -31 94
-86 103 -34 6 -40 11 -40 31 0 13 11 42 25 64 27 42 31 60 15 60 -5 0 -10 5
-10 11 0 5 5 7 10 4 14 -9 13 6 -9 115 -18 93 -50 177 -58 153 -3 -7 3 -27 11
-44 20 -41 20 -42 -4 -29 -19 10 -43 50 -45 75 -1 18 -16 35 -31 35 -9 0 -14
-11 -14 -34z m-230 -286 c0 -5 -5 -10 -11 -10 -5 0 -7 5 -4 10 3 6 8 10 11 10
2 0 4 -4 4 -10z m135 0 c3 -5 1 -10 -4 -10 -6 0 -11 5 -11 10 0 6 2 10 4 10 3
0 8 -4 11 -10z m142 -237 c-3 -3 -11 -2 -17 2 -9 6 -9 10 1 16 14 8 27 -7 16
-18z"/>
<path d="M460 869 c0 -5 5 -7 10 -4 6 3 10 8 10 11 0 2 -4 4 -10 4 -5 0 -10
-5 -10 -11z"/>
<path d="M400 810 c-6 -11 -8 -20 -6 -20 3 0 10 9 16 20 6 11 8 20 6 20 -3 0
-10 -9 -16 -20z"/>
<path d="M385 710 c-3 -5 -1 -10 4 -10 6 0 11 5 11 10 0 6 -2 10 -4 10 -3 0
-8 -4 -11 -10z"/>
<path d="M388 683 c-19 -5 -22 -25 -9 -57 5 -13 10 -16 15 -8 6 10 18 74 13
71 -1 -1 -10 -3 -19 -6z"/>
<path d="M502 544 c-12 -8 -22 -22 -22 -30 0 -8 -4 -12 -10 -9 -5 3 -10 -1
-10 -9 0 -28 16 -25 35 7 10 18 26 37 34 44 23 18 -1 16 -27 -3z"/>
<path d="M660 509 c-107 -7 -131 -14 -123 -35 3 -9 9 -11 17 -6 15 13 101 25
159 24 73 -2 84 -15 45 -52 -12 -11 -16 -20 -10 -20 7 0 12 -7 12 -16 0 -13 2
-13 15 -2 31 28 41 33 60 32 18 -1 20 4 17 33 -2 18 -9 36 -15 40 -16 9 -65
10 -177 2z"/>
<path d="M441 445 c6 -22 16 -46 24 -53 10 -11 13 -10 18 8 4 15 -3 31 -23 53
l-29 32 10 -40z"/>
<path d="M645 320 c-3 -5 -1 -10 4 -10 6 0 11 5 11 10 0 6 -2 10 -4 10 -3 0
-8 -4 -11 -10z"/>
</g>
</svg>
