<svg width="160" height="136" viewBox="0 0 160 136" fill="none" xmlns="http://www.w3.org/2000/svg">
<g clip-path="url(#clip0_162_765)">
<path d="M157.724 106.723C151.317 100.681 144.18 94.359 135.947 87.5027C139.87 83.0754 143.646 78.5208 147.271 73.8462C147.563 73.4677 147.721 73.0033 147.721 72.5255V34.4222C147.722 33.9706 147.581 33.5299 147.319 33.1621C147.057 32.7942 146.687 32.5176 146.259 32.3709L136.509 28.9428V28.0998L146.765 19.6417C148.929 19.8103 152.75 15.5673 154.352 14.4995C156.881 11.8581 156.797 8.62664 153.481 4.07448C151.43 1.18021 146.091 -1.82647 142.578 1.3488C141.145 2.75379 137.127 5.02987 136.818 7.24975L122.852 18.4897L120.239 17.5905C119.593 16.8037 116.811 12.1391 115.799 11.9143C112.708 10.5093 96.3261 5.56377 80.0563 6.04146C67.8695 5.86116 55.7477 7.84974 44.2573 11.9143C43.1333 12.0829 40.5481 16.9161 39.8175 17.5905L37.2042 18.4897L23.2386 7.24975C22.9576 5.02987 18.9113 2.75379 17.4782 1.3488C13.9657 -1.82647 8.62676 1.18021 6.57548 4.07448C3.25971 8.62664 3.20351 11.8581 5.67629 14.4714C7.36227 15.5673 11.0995 19.8103 13.2913 19.6417L23.5477 28.0717V28.9428L13.7971 32.3709C13.3699 32.5176 12.9994 32.7942 12.7373 33.1621C12.4753 33.5299 12.3349 33.9706 12.3359 34.4222V72.5255C12.3359 73.0033 12.494 73.4677 12.7855 73.8462C16.4947 78.6231 20.2882 83.1753 24.1097 87.5027C18.0121 93.4879 -0.842859 106.329 0.0282333 112.23C0.988187 118.33 3.827 123.978 8.14907 128.388C11.6896 131.647 16.1856 134.57 21.075 135.019C22.8476 135.016 24.5647 134.4 25.9362 133.277C34.0851 126.533 42.3746 119.593 50.5235 112.624C59.5545 119.696 69.474 125.553 80.0282 130.046C86.6598 127.517 100.991 119.761 109.533 112.624C117.682 119.593 125.943 126.533 134.12 133.277C138.616 137.043 144.517 133.755 148.648 131.085C153.772 127.398 157.489 122.077 159.185 115.996C160.478 112.905 160.365 109.111 157.724 106.723Z" fill="white"></path>
<path d="M156.234 108.296C149.238 101.665 141.342 94.8085 132.827 87.7274C137.136 82.9692 141.379 77.9019 145.557 72.5254V34.4222L134.345 30.4882V27.0319L146.034 17.3937C147.748 18.0962 151.738 13.4879 153.003 12.7854C154.492 11.0432 154.296 8.79521 151.795 5.42324C150.502 3.59676 146.456 0.590086 143.927 3.00666C142.887 4.18685 138.588 6.46293 138.813 8.34562L123.273 20.9062L118.89 19.3888L115.04 13.9094C103.827 9.91785 91.9846 7.98539 80.0841 8.20512H78.3981C67.0319 8.17024 55.7461 10.1098 45.0437 13.9375L41.1659 19.4169L36.7824 20.9343L21.2432 8.40181C21.468 6.49103 17.1687 4.18685 16.101 3.06286C13.572 0.618185 9.55371 3.62486 8.23302 5.45134C5.76024 8.82331 5.56354 11.0713 7.05283 12.8135C8.34542 13.516 12.2794 18.1243 14.0216 17.4218L25.7111 27.06V30.4882L14.4993 34.4222V72.5254C18.6768 77.9019 22.9198 82.9598 27.2285 87.6993C19.2015 94.3055 11.3949 101.175 3.82136 108.296C3.29313 108.792 2.87507 109.394 2.5943 110.062C2.31353 110.73 2.17633 111.45 2.19157 112.174C3.14785 117.705 5.75325 122.818 9.66611 126.842C13.291 129.933 19.8663 135.132 24.559 131.619C33.2886 124.426 41.9246 117.157 50.467 109.814C54.0637 112.699 57.6511 115.321 61.2292 117.682C71.0641 124.145 77.8642 126.646 80.0279 127.348C82.1916 126.646 89.0198 124.117 98.8267 117.682C102.386 115.321 105.973 112.699 109.589 109.814C118.15 117.157 126.786 124.416 135.497 131.591C139.234 134.598 144.039 131.366 147.411 129.287C150.52 127.16 153.051 124.292 154.773 120.941C156.291 117.345 159.887 111.809 156.234 108.296Z" fill="black"></path>
<path d="M153.93 110.769C146.568 103.857 138.728 97.0004 130.523 90.2283C127.058 93.9562 123.573 97.4593 120.07 100.738C117.466 103.173 114.862 105.468 112.258 107.622C120.651 114.834 129.118 121.953 137.66 128.978C137.93 129.202 138.251 129.355 138.594 129.424C138.938 129.492 139.293 129.474 139.627 129.371C141.062 128.913 142.446 128.311 143.758 127.573C145.808 126.428 147.643 124.935 149.181 123.161L149.659 122.599C151.856 119.572 153.466 116.16 154.408 112.54C154.494 112.226 154.493 111.896 154.403 111.583C154.314 111.271 154.141 110.99 153.902 110.769H153.93Z" fill="#DEA905"></path>
<path d="M118.778 110.376C124.059 115.582 129.859 120.233 136.087 124.257C138.42 125.822 141.02 126.946 143.759 127.573C145.809 126.428 147.644 124.935 149.182 123.161L149.659 122.599C151.856 119.571 153.466 116.159 154.408 112.54C154.444 112.402 154.463 112.26 154.465 112.118C153.315 115.717 151.101 118.881 148.114 121.194C147.121 121.975 146.058 122.662 144.939 123.246C143.485 124 141.803 124.191 140.218 123.779C137.914 123.189 134.12 121.644 128.528 117.766L118.778 110.376Z" fill="#BC8C06"></path>
<path d="M153.931 110.769C146.568 103.857 138.729 97.0004 130.524 90.2283L129.231 91.6333L132.35 94.2466C139.188 99.9977 145.819 105.711 152.245 111.387C152.245 111.387 152.301 116.502 148.114 121.194C151.101 118.881 153.315 115.717 154.465 112.118C154.472 111.866 154.426 111.616 154.329 111.383C154.232 111.15 154.087 110.941 153.903 110.769H153.931Z" fill="#EFCA65"></path>
<path d="M26.8071 24.6435C27.1706 24.1686 27.5852 23.7351 28.0435 23.3509C28.267 23.1506 28.5015 22.963 28.746 22.7889L30.8254 24.5592C31.2849 23.9656 31.7823 23.4024 32.3147 22.8732C32.7498 22.4433 33.2414 22.0747 33.7759 21.7773L31.1064 19.6417C30.6125 19.9627 30.1429 20.3196 29.7014 20.7095C28.453 21.7864 27.4637 23.1311 26.8071 24.6435Z" fill="#FFF9E9"></path>
<path d="M26.8071 24.6435C27.1706 24.1686 27.5852 23.7351 28.0435 23.3509C28.267 23.1506 28.5015 22.963 28.746 22.7889L30.8254 24.5592C31.2849 23.9656 31.7823 23.4024 32.3147 22.8732L29.7295 20.7095C28.4709 21.7834 27.4718 23.1284 26.8071 24.6435Z" fill="#DEA905"></path>
<path d="M22.9858 21.4963C23.3477 21.0116 23.7624 20.5686 24.2222 20.1756C24.4464 19.9849 24.681 19.8067 24.9247 19.6417L27.0041 21.3839C27.4645 20.8 27.962 20.2462 28.4934 19.726C28.9267 19.2863 29.4184 18.9081 29.9546 18.602L27.2851 16.4665C26.7912 16.7874 26.3216 17.1443 25.8801 17.5343C24.6317 18.6112 23.6424 19.9559 22.9858 21.4682V21.4963Z" fill="#FFF9E9"></path>
<path d="M22.9858 21.4963C23.3477 21.0116 23.7624 20.5686 24.2222 20.1756C24.4464 19.9849 24.681 19.8067 24.9247 19.6417L27.0041 21.3839C27.4645 20.8 27.962 20.2462 28.4934 19.726L25.9082 17.5342C24.6496 18.6082 23.6505 19.9531 22.9858 21.4682V21.4963Z" fill="#DEA905"></path>
<path d="M19.0234 18.2086C19.3869 17.7337 19.8015 17.3002 20.2598 16.916C20.4833 16.7157 20.7178 16.5281 20.9623 16.3541L23.0136 18.1243C23.4821 17.5299 23.989 16.9667 24.531 16.4384C24.9575 16.0105 25.4395 15.6419 25.9641 15.3425L23.3227 13.2069C22.8288 13.5278 22.3592 13.8847 21.9177 14.2747C20.6693 15.3516 19.68 16.6963 19.0234 18.2086Z" fill="#FFF9E9"></path>
<path d="M19.0234 18.2087C19.3869 17.7337 19.8015 17.3003 20.2598 16.9161C20.4833 16.7158 20.7178 16.5281 20.9623 16.3541L23.0136 18.1244C23.4821 17.5299 23.989 16.9667 24.531 16.4384L21.9458 14.2747C20.6872 15.3486 19.6881 16.6935 19.0234 18.2087Z" fill="#DEA905"></path>
<path d="M15.2021 15.0615C15.564 14.5767 15.9787 14.1338 16.4385 13.7408C16.6628 13.5501 16.8973 13.3719 17.141 13.2069L19.1923 14.9491C19.6618 14.3643 20.1686 13.8105 20.7097 13.2912C21.143 12.8514 21.6347 12.4732 22.1709 12.1672L19.5014 10.0316C19.0075 10.3526 18.5379 10.7095 18.0964 11.0994C16.848 12.1763 15.8587 13.521 15.2021 15.0334V15.0615Z" fill="#FFF9E9"></path>
<path d="M15.2019 15.0615C15.5638 14.5767 15.9785 14.1337 16.4383 13.7408C16.6625 13.5501 16.897 13.3718 17.1408 13.2069L19.1921 14.9491C19.6616 14.3642 20.1684 13.8105 20.7095 13.2912L18.1243 11.0994C16.8657 12.1733 15.8666 13.5183 15.2019 15.0334V15.0615ZM8.54229 11.0713C8.82329 9.4977 10.0597 8.34561 10.4812 7.98032C10.521 7.9484 10.5706 7.931 10.6217 7.931C10.6727 7.931 10.7223 7.9484 10.7622 7.98032L13.9936 10.7341C14.0209 10.7641 14.0383 10.8018 14.0433 10.842C14.0483 10.8823 14.0408 10.9231 14.0217 10.9589L12.4482 13.5722C12.3714 13.6956 12.3406 13.8421 12.3612 13.986C12.3817 14.1299 12.4523 14.262 12.5606 14.359L13.4316 15.1177C14.4233 12.4819 16.2487 10.2422 18.6301 8.73901C18.6591 8.7182 18.6827 8.69078 18.699 8.65901C18.7153 8.62725 18.7238 8.59207 18.7238 8.55636C18.7238 8.52066 18.7153 8.48547 18.699 8.45371C18.6827 8.42195 18.6591 8.39453 18.6301 8.37372L14.4994 5.00174C14.2427 4.79116 13.9287 4.66251 13.598 4.63245C13.2674 4.60239 12.9353 4.67231 12.6449 4.83314L12.4201 4.97364C11.756 5.36541 11.1426 5.83727 10.5936 6.37863C7.89599 9.18861 8.51419 11.0713 8.51419 11.0713H8.54229Z" fill="#DEA905"></path>
<path d="M16.5789 8.26131C16.7357 8.39189 16.8622 8.55506 16.9495 8.73946C17.0368 8.92386 17.083 9.12507 17.0847 9.32911C17.0923 9.53672 17.0734 9.74446 17.0285 9.9473C17.5381 9.50096 18.0831 9.09686 18.6583 8.73901C18.6873 8.7182 18.7109 8.69078 18.7272 8.65901C18.7435 8.62725 18.752 8.59206 18.752 8.55636C18.752 8.52066 18.7435 8.48547 18.7272 8.45371C18.7109 8.42195 18.6873 8.39453 18.6583 8.37372L14.5276 5.00174C14.2709 4.79116 13.9569 4.66251 13.6262 4.63245C13.2956 4.60239 12.9635 4.67231 12.673 4.83314L12.4482 4.97364L16.5789 8.26131Z" fill="#FDFEF8"></path>
<path d="M39.9859 100.738C36.4828 97.4593 32.9984 93.9562 29.5327 90.2283C21.5126 96.8231 13.7062 103.674 6.12565 110.769C5.892 110.993 5.72396 111.276 5.63975 111.588C5.55554 111.9 5.55837 112.229 5.64795 112.54C6.65843 116.39 8.42562 120.001 10.8464 123.161C12.3845 124.935 14.2196 126.428 16.2697 127.573C17.5911 128.312 18.9846 128.915 20.4284 129.371C20.7632 129.474 21.1183 129.492 21.4617 129.424C21.8052 129.355 22.1261 129.202 22.3954 128.978C30.9377 121.953 39.3958 114.834 47.7695 107.622C45.1843 105.449 42.5898 103.154 39.9859 100.738Z" fill="#DEA905"></path>
<path d="M41.2501 110.376C35.9781 115.58 30.1875 120.232 23.9687 124.257C21.6272 125.825 19.0174 126.949 16.2694 127.573C14.2194 126.428 12.3842 124.935 10.8461 123.161L10.3966 122.599C8.19058 119.573 6.57037 116.161 5.6196 112.54C5.59317 112.401 5.58373 112.259 5.5915 112.118C6.73314 115.713 8.93751 118.877 11.9139 121.194C12.9154 121.976 13.9879 122.663 15.1173 123.246C16.571 124 18.2525 124.191 19.8381 123.779C22.1423 123.189 25.9357 121.644 31.5276 117.766L41.2501 110.376Z" fill="#BC8C06"></path>
<path d="M27.7064 94.2466L30.8255 91.6052L29.5329 90.2002C21.5123 96.8042 13.7059 103.664 6.12581 110.769C5.94154 110.941 5.79608 111.15 5.69916 111.383C5.60225 111.616 5.5561 111.866 5.56382 112.118C6.71306 115.717 8.92753 118.881 11.9144 121.194C7.7556 116.502 7.8118 111.387 7.8118 111.387C14.2373 105.711 20.8688 99.9977 27.7064 94.2466Z" fill="#EFCA65"></path>
<path d="M133.249 24.6435C132.886 24.1686 132.471 23.7351 132.013 23.3509C131.789 23.1506 131.555 22.963 131.31 22.7889L129.231 24.5592C128.771 23.9656 128.274 23.4024 127.741 22.8732C127.306 22.4433 126.815 22.0747 126.28 21.7773L128.922 19.6417C129.416 19.9627 129.885 20.3196 130.327 20.7095C131.585 21.7834 132.584 23.1284 133.249 24.6435Z" fill="#FFF9E9"></path>
<path d="M133.249 24.6435C132.886 24.1686 132.471 23.7351 132.013 23.3509C131.789 23.1506 131.555 22.963 131.31 22.7889L129.231 24.5592C128.772 23.9656 128.274 23.4024 127.742 22.8732L130.327 20.7095C131.585 21.7834 132.585 23.1284 133.249 24.6435Z" fill="#DEA905"></path>
<path d="M137.071 21.4963C136.709 21.0116 136.294 20.5686 135.834 20.1756C135.61 19.9849 135.376 19.8067 135.132 19.6417L133.053 21.3839C132.583 20.7991 132.076 20.2453 131.535 19.726C131.11 19.2883 130.628 18.9102 130.102 18.602L132.743 16.4665C133.237 16.7874 133.707 17.1443 134.148 17.5343C135.397 18.6112 136.386 19.9559 137.043 21.4682L137.071 21.4963Z" fill="#FFF9E9"></path>
<path d="M137.071 21.4963C136.709 21.0116 136.294 20.5686 135.834 20.1756C135.61 19.9849 135.376 19.8067 135.132 19.6417L133.053 21.3839C132.583 20.7991 132.076 20.2453 131.535 19.726L134.148 17.5342C135.397 18.6112 136.386 19.9559 137.043 21.4682L137.071 21.4963Z" fill="#DEA905"></path>
<path d="M141.005 18.2086C140.65 17.7352 140.245 17.3018 139.796 16.916C139.573 16.7157 139.338 16.5281 139.094 16.3541L137.014 18.1243C136.555 17.5307 136.058 16.9676 135.525 16.4384C135.09 16.0085 134.598 15.6398 134.064 15.3425L136.733 13.2069C137.227 13.5278 137.697 13.8847 138.138 14.2747C139.387 15.3516 140.376 16.6963 141.033 18.2086H141.005Z" fill="#FFF9E9"></path>
<path d="M141.004 18.2087C140.65 17.7352 140.245 17.3018 139.796 16.9161C139.573 16.7158 139.338 16.5281 139.094 16.3541L137.014 18.1244C136.555 17.5308 136.057 16.9676 135.525 16.4384L138.11 14.2747C139.369 15.3486 140.368 16.6935 141.032 18.2087H141.004Z" fill="#DEA905"></path>
<path d="M144.854 15.0615C144.492 14.5767 144.077 14.1338 143.618 13.7408C143.393 13.5501 143.159 13.3719 142.915 13.2069L140.836 14.9491C140.375 14.3651 139.878 13.8114 139.346 13.2912C138.913 12.8514 138.421 12.4732 137.885 12.1672L140.555 10.0316C141.039 10.3537 141.499 10.7106 141.932 11.0994C143.19 12.1733 144.189 13.5183 144.854 15.0334V15.0615Z" fill="#FFF9E9"></path>
<path d="M144.854 15.0615C144.492 14.5767 144.078 14.1337 143.618 13.7408C143.394 13.5501 143.159 13.3718 142.915 13.2069L140.836 14.9491C140.376 14.3651 139.878 13.8113 139.347 13.2912L141.932 11.0994C143.19 12.1733 144.19 13.5183 144.854 15.0334V15.0615ZM151.486 11.0713C151.233 9.4977 149.997 8.34561 149.575 7.98032C149.535 7.9484 149.486 7.931 149.435 7.931C149.383 7.931 149.334 7.9484 149.294 7.98032L146.034 10.7341C146.007 10.7641 145.99 10.8018 145.985 10.842C145.98 10.8823 145.987 10.9231 146.006 10.9589L147.58 13.5722C147.653 13.6987 147.68 13.8473 147.654 13.9913C147.628 14.1354 147.552 14.2657 147.439 14.359L146.596 15.1177C145.605 12.4819 143.779 10.2422 141.398 8.73901C141.367 8.72053 141.341 8.69496 141.323 8.66445C141.304 8.63394 141.292 8.59936 141.29 8.56361C141.287 8.52786 141.293 8.49196 141.307 8.45893C141.321 8.4259 141.342 8.39668 141.37 8.37372L145.529 5.00174C145.785 4.79116 146.099 4.66251 146.43 4.63245C146.761 4.60239 147.093 4.67231 147.383 4.83314L147.58 4.97364C148.254 5.36348 148.877 5.83541 149.435 6.37863C152.132 9.18861 151.486 11.0713 151.486 11.0713Z" fill="#DEA905"></path>
<path d="M143.477 8.26131C143.315 8.38918 143.184 8.55113 143.091 8.73568C142.999 8.92023 142.949 9.12284 142.943 9.32911C142.936 9.53672 142.955 9.74446 143 9.9473C142.499 9.50219 141.963 9.09812 141.398 8.73901C141.367 8.72053 141.341 8.69496 141.323 8.66445C141.304 8.63394 141.292 8.59936 141.29 8.56361C141.287 8.52786 141.293 8.49196 141.307 8.45893C141.321 8.42589 141.342 8.39668 141.37 8.37372L145.529 5.00174C145.785 4.79116 146.099 4.66251 146.43 4.63245C146.761 4.60239 147.093 4.67231 147.383 4.83314L147.58 4.97364L143.477 8.26131Z" fill="#FDFEF8"></path>
<path d="M80.2531 118.188V124.932L80.0002 125.072L79.7754 124.903C67.9922 116.894 57.4135 107.243 48.3599 96.2417C67.3834 113.017 78.3142 117.457 80.0002 118.075L80.2531 118.159V118.188Z" fill="white"></path>
<path d="M111.669 96.2136C111.5 96.4665 99.6981 111.668 80.2531 124.903L80.0002 125.072L79.7754 124.903V118.159L80.0002 118.103C81.6862 117.485 92.617 113.045 111.669 96.2136Z" fill="#B7B7B7"></path>
<path d="M113.748 81.686C107.48 88.4809 100.656 94.7407 93.3474 100.4C88.9896 103.806 84.4596 106.986 79.7752 109.926C75.0806 106.977 70.5411 103.789 66.1749 100.372C58.9314 94.7585 52.1644 88.5555 45.9431 81.8265L42.6273 82.3885L41.3066 82.6695L41.7562 83.1753C59.6277 103.182 79.8314 114.647 79.8314 114.647C79.8314 114.647 99.8946 103.267 117.71 83.4001L118.44 82.5571C117.316 82.2761 115.715 81.9951 113.72 81.686H113.748Z" fill="#DEA905"></path>
<path d="M113.748 81.686C107.48 88.481 100.656 94.7409 93.3473 100.4C88.9896 103.806 84.4595 106.986 79.7751 109.926C75.0805 106.977 70.5411 103.789 66.1749 100.372C58.9314 94.7585 52.1644 88.5555 45.9431 81.8265L43.9761 82.1637C54.5018 93.6933 66.5672 103.716 79.8313 111.949C93.1449 103.683 105.249 93.6116 115.799 82.0232L113.72 81.686H113.748Z" fill="#BC8C06"></path>
<path d="M37.1196 32.9329V30.6287L48.3595 26.751L52.6307 20.85C55.0754 19.9227 63.2524 17.3937 79.775 17.197C96.2696 17.3937 104.475 19.9227 106.919 20.85L111.134 26.751L122.43 30.6287V32.9329H126.505L126.561 27.7345L113.748 23.379L109.589 17.5904C109.589 17.5904 101.552 13.4317 79.8031 13.2069C58.1101 13.4317 50.0736 17.5904 50.0736 17.5904L45.9148 23.379L33.0732 27.7626L33.1294 32.961L37.1196 32.9329Z" fill="#DEA905"></path>
<path d="M37.1198 32.9329V30.6287L48.3597 26.751L52.6309 20.85C55.0756 19.9227 63.2526 17.3938 79.7752 17.1971C96.2698 17.3938 104.475 19.9227 106.92 20.85L111.135 26.751L122.431 30.6287V32.9329H124.201L124.229 29.3924L112.287 25.2898L108.072 19.4169C106.105 18.6301 97.7591 15.6797 79.8315 15.483C61.9038 15.6797 53.5301 18.6301 51.5631 19.4169L47.3482 25.3179L35.4058 29.3924L35.4339 32.9329H37.1198Z" fill="#BC8C06"></path>
<path d="M127.826 67.3551L127.629 67.4394L122.487 69.9122V80.1405C122.487 80.1405 121.335 79.8314 119.171 79.3818C109.336 77.4148 78.4824 72.5817 42.0651 79.2413L37.4287 80.1405V69.9122L34.4501 68.5072L31.9492 67.3551C31.9492 67.3551 32.5674 67.1865 33.7195 66.9617C64.7804 61.0131 96.6995 61.1372 127.713 67.327H127.826" fill="#DEA905"></path>
<path d="M34.9844 67.7766L38.8621 69.4064C38.8621 69.4064 43.4424 66.0906 50.6921 65.2476C50.6921 65.2476 41.4192 66.3716 34.9844 67.7766ZM124.988 67.7485L121.11 69.4064C121.11 69.4064 116.558 66.0906 109.28 65.2195C109.28 65.2195 118.553 66.3716 124.988 67.7485Z" fill="#BC8C06"></path>
<path d="M26.807 37.1198H22.2268C21.5524 37.1198 20.9623 37.6256 20.5127 38.6091C20.0227 39.7139 19.7828 40.9133 19.8102 42.1215V68.17C19.7828 69.3783 20.0227 70.5777 20.5127 71.6825C20.9623 72.6941 21.5524 73.1999 22.2268 73.1999H26.807C27.4814 73.1999 28.0434 72.6941 28.5211 71.6825C29.0111 70.5777 29.251 69.3783 29.2236 68.17V60.8079H25.8517V66.2873H23.1822V44.0042H25.8517V49.4556H29.2236V42.1496C29.2552 40.9319 29.0152 39.7225 28.5211 38.6091C28.0434 37.6256 27.4814 37.1198 26.807 37.1198Z" fill="white"></path>
<path d="M28.69 61.3418V68.17C28.7153 69.2907 28.4947 70.4033 28.0437 71.4296C27.6784 72.2164 27.2569 72.6098 26.8073 72.6098H22.2271C21.7775 72.6098 21.3841 72.2164 20.9907 71.4296C20.5356 70.3947 20.3149 69.272 20.3444 68.1419V53.7548L22.6486 53.3333V66.8212H26.3577V61.3137L28.69 61.3418Z" fill="#B7B7B7"></path>
<path d="M38.5526 37.0917H31.6963V63.2245L31.8368 63.1964L34.8716 62.6906L34.984 62.6625V53.6424L36.67 53.4738H36.7261C36.8376 53.4771 36.9468 53.5068 37.0445 53.5605C37.1422 53.6143 37.2257 53.6905 37.2881 53.7829C37.4933 54.0998 37.5917 54.4739 37.5691 54.8507V62.241H37.7377L40.7725 61.7914L40.8849 61.7633V54.5416C40.8849 52.9399 40.5196 51.6755 39.7609 50.7763C40.5477 49.7366 40.913 48.4159 40.913 46.8423V40.548C40.9387 39.6926 40.7035 38.8498 40.2386 38.1314C39.789 37.4289 39.1989 37.0917 38.5526 37.0917ZM35.0121 42.0372L37.6253 41.9529V47.0109C37.6296 47.4024 37.5118 47.7854 37.2881 48.1068C37.2267 48.2325 37.1359 48.3415 37.0234 48.4246C36.9109 48.5078 36.78 48.5626 36.6419 48.5845L34.984 48.6969L35.0121 42.0372Z" fill="white"></path>
<path d="M39.3678 51.1134L39.0868 50.7762L39.1711 50.6638C36.8482 50.9823 34.5346 51.3195 32.2305 51.6754V62.5782C33.0173 62.4377 33.7479 62.2972 34.4503 62.2129V53.1647L34.928 53.1085L36.614 52.9399H36.7264C36.9256 52.9409 37.1216 52.9899 37.2977 53.0829C37.4738 53.1758 37.6249 53.3099 37.738 53.4738C38.0121 53.8794 38.1498 54.3616 38.1314 54.8507V61.5947L40.3513 61.3137V54.5416C40.3513 53.0804 40.0422 51.9283 39.3678 51.1134Z" fill="#B7B7B7"></path>
<path d="M43.0771 61.4542H43.2457L46.2805 61.0608H46.3929L46.4491 37.0917H43.1334L43.0771 61.4542Z" fill="white"></path>
<path d="M45.8869 49.849L45.8588 60.555L43.6108 60.836L43.6389 50.1019L45.8869 49.849Z" fill="#B7B7B7"></path>
<path d="M55.6374 37.0917H51.1414C50.4951 37.0917 49.905 37.4289 49.4554 38.0752C48.9804 38.7587 48.7345 39.5753 48.7529 40.4075L48.6967 57.4359C48.6742 58.2425 48.9214 59.0336 49.3992 59.6839C49.5615 59.9337 49.7816 60.1407 50.0408 60.2874C50.3 60.4342 50.5908 60.5163 50.8885 60.5269C50.954 60.5302 51.0197 60.5302 51.0852 60.5269L55.5812 60.0773C55.9243 60.0371 56.2539 59.9202 56.5458 59.7354C56.8376 59.5506 57.0841 59.3025 57.2671 59.0095C57.7348 58.333 57.9803 57.5277 57.9696 56.7053V52.0126H57.8291L54.7663 52.1812H54.6539V55.6937L52.0125 55.8904L52.0687 41.6157L54.682 41.5876V45.072H54.7944L57.8853 44.9596H57.9977V40.2951C58.0222 39.4925 57.7855 38.7037 57.3234 38.0471C57.1428 37.7612 56.8944 37.5244 56.6003 37.3577C56.3061 37.191 55.9754 37.0996 55.6374 37.0917Z" fill="white"></path>
<path d="M57.4358 52.5746V56.6772C57.4463 57.3996 57.2301 58.1072 56.8176 58.7004C56.6798 58.9293 56.4919 59.1241 56.268 59.2701C56.0442 59.4161 55.7901 59.5095 55.525 59.5434L51.0291 59.993C50.9823 59.9956 50.9354 59.9956 50.8886 59.993C50.6737 59.9846 50.4641 59.924 50.2781 59.8162C50.092 59.7085 49.935 59.557 49.8208 59.3748C49.4156 58.8019 49.2174 58.1082 49.2588 57.4078V49.5118L51.5068 49.3151L51.4787 56.5086L52.0407 56.4524L54.682 56.2557L55.1878 56.1995V52.7151L57.4358 52.6027V52.5746Z" fill="#B7B7B7"></path>
<path d="M66.2591 37.2041L64.3764 46.0836L63.4491 46.1117V37.0917H60.1334L60.0771 59.7401H60.2176L63.3086 59.5153H63.421V50.4953L64.3483 50.4672L66.2029 59.2624L66.231 59.3748H66.3434L69.4344 59.2343H69.603V59.0657C68.831 55.451 68.0629 51.8355 67.2988 48.2192L69.6311 37.2603V37.0917H66.2591V37.2041Z" fill="white"></path>
<path d="M68.9567 58.7004L66.6806 58.8128L64.8541 50.3548L64.7698 49.9052H64.3202L63.3929 49.9614H62.8871V59.0095L60.6392 59.15V48.5564C62.6811 48.4253 64.7136 48.3222 66.7368 48.2473L66.7649 48.3316L68.9567 58.7285V58.7004Z" fill="#B7B7B7"></path>
<path d="M79.719 54.7664L74.9139 54.7945V50.2424L79.0165 50.2142H79.157V45.915H74.9139V41.3909H80.0281V37.0917H71.5981V59.15H71.7106C74.38 59.0938 77.0495 59.0376 79.6909 59.0376H80V54.7664H79.719Z" fill="white"></path>
<path d="M79.4659 55.3003V58.5037C77.0212 58.5037 74.5484 58.5318 72.1318 58.6161V48.0506C74.2861 47.9944 76.4405 47.9663 78.5948 47.9663V49.6523L74.9137 49.7085H74.3517V55.3284H79.4659V55.3003Z" fill="#B7B7B7"></path>
<path d="M81.6299 37.0917V41.3628H84.5804L84.6085 59.0657H84.749L87.8118 59.15H87.9523L87.9242 41.3909H90.8747V37.0917H81.6299Z" fill="white"></path>
<path d="M87.3901 58.6161L85.1421 58.5599V47.9944L87.3901 48.0506V58.6161Z" fill="#B7B7B7"></path>
<path d="M104.447 47.9101C104.061 47.4082 103.569 46.9988 103.005 46.712C102.441 46.4251 101.82 46.268 101.187 46.2522C100.288 46.2522 99.8663 45.8026 99.8663 44.9034V41.5314H102.48V45.0158H102.62L105.655 45.1282H105.795V40.3794C105.816 39.5556 105.569 38.7474 105.093 38.0752C104.911 37.791 104.662 37.5555 104.368 37.3891C104.074 37.2226 103.744 37.1302 103.407 37.1198H98.9109C98.576 37.1271 98.2477 37.2152 97.9542 37.3767C97.6606 37.5381 97.4104 37.7681 97.2249 38.0471C96.7471 38.6973 96.4998 39.4884 96.5224 40.2951V44.8753C96.5224 46.5613 97.0282 47.9944 97.9274 49.0903C98.3193 49.585 98.8135 49.9892 99.376 50.2754C99.9386 50.5615 100.556 50.7228 101.187 50.7482C102.058 50.7482 102.508 51.2259 102.508 52.125V55.5532L99.8944 55.3846V51.9565H99.7539L96.691 51.816H96.5505V56.4243C96.5504 57.232 96.8061 58.019 97.2811 58.6723C97.461 58.9681 97.7067 59.2183 97.9991 59.4035C98.2916 59.5887 98.6228 59.7039 98.9671 59.7401L103.463 60.0773H103.632C103.931 60.0697 104.224 59.992 104.487 59.8505C104.751 59.709 104.978 59.5075 105.149 59.2624C105.633 58.6152 105.881 57.8219 105.852 57.0144V52.2936C105.905 50.7224 105.408 49.1819 104.447 47.9382V47.9101Z" fill="white"></path>
<path d="M105.318 56.9863C105.345 57.6719 105.137 58.3462 104.728 58.8971C104.605 59.0836 104.438 59.2374 104.242 59.3451C104.046 59.4528 103.827 59.5112 103.604 59.5153C103.566 59.5171 103.529 59.5171 103.491 59.5153L98.9955 59.1781C98.7292 59.1484 98.4735 59.0567 98.249 58.9103C98.0245 58.7639 97.8375 58.5669 97.7029 58.3351C97.307 57.7671 97.1004 57.0885 97.1128 56.3962V52.3498L99.3608 52.4341V55.8623L99.8666 55.8904L102.48 56.059L103.042 56.1152V52.097C103.042 50.9168 102.396 50.2143 101.215 50.1581C100.663 50.1391 100.121 50.0012 99.6261 49.7539C99.1315 49.5066 98.696 49.1557 98.3492 48.725L98.1525 48.4721C100.269 48.6032 102.377 48.7531 104.475 48.9217C105.04 49.9539 105.321 51.1174 105.29 52.2936L105.318 56.9863Z" fill="#B7B7B7"></path>
<path d="M107.481 37.0917V41.6157H107.622L110.488 41.7L110.544 60.7517H110.657L113.691 61.117L113.832 61.1451L113.776 41.7562L116.614 41.8124H116.754V37.0917H107.481Z" fill="white"></path>
<path d="M113.298 60.5269L111.05 60.2459V49.5118L113.27 49.7366L113.298 60.5269Z" fill="#B7B7B7"></path>
<path d="M124.763 37.2041V37.0917H120.436V37.2041L117.513 61.4823V61.6228H117.626L120.717 62.0724H120.829V61.96L121.447 57.183C122.234 57.2392 123.021 57.3516 123.779 57.464L124.37 62.5501V62.6625H124.482L127.573 63.1964H127.741V63.0278L124.763 37.2041ZM121.869 52.4622L122.599 41.8686L123.358 52.6027L121.869 52.4622Z" fill="white"></path>
<path d="M125.83 51.3664L123.779 51.0573L123.892 52.5746L123.92 53.2209L123.301 53.1366L121.812 52.9961L121.278 52.968L121.447 50.7201L119.396 50.4391L118.103 61.1451L120.351 61.4823L120.969 56.5648L121.503 56.621L123.863 56.902L124.285 56.9582L124.454 58.4756L124.875 62.1848L127.123 62.55L125.859 51.3664H125.83Z" fill="#B7B7B7"></path>
<path d="M139.74 42.1215C139.776 40.9154 139.546 39.7161 139.066 38.6091C138.588 37.6256 137.998 37.1198 137.324 37.1198H130.327V73.1999H133.699V60.4426H135.385C135.666 60.4426 135.862 60.6112 136.059 61.0046C136.283 61.5178 136.388 62.0748 136.368 62.6344V73.1999H139.74V62.6344C139.74 60.274 139.347 58.3632 138.588 56.9582C139.347 55.5532 139.74 53.6705 139.74 51.3383V42.1215ZM133.699 44.0042H136.368V51.3664C136.39 51.9079 136.284 52.4469 136.059 52.9399C135.862 53.3333 135.638 53.53 135.413 53.53H133.727L133.699 44.0042Z" fill="white"></path>
<path d="M138.11 57.2392L137.97 56.9582L138.11 56.7053C138.615 55.7422 138.939 54.6945 139.065 53.6143L136.536 53.1647C136.171 53.9234 135.693 54.0639 135.412 54.0639H133.165V52.5465L130.86 52.1532V72.666H133.165V59.8806H135.412C135.693 59.8806 136.171 60.0492 136.536 60.7517C136.799 61.3434 136.924 61.9872 136.902 62.6344V72.6379H139.206V62.6344C139.206 60.3864 138.841 58.5599 138.082 57.2392H138.11Z" fill="#B7B7B7"></path>
<path d="M62.6347 65.2476V74.38L60.6677 74.5486V68.5353L59.3471 74.661L56.9867 74.942L55.6379 69.0692V75.0825L53.6709 75.3073V66.203L56.3685 65.8939L58.1669 73.0875L59.9371 65.5005L62.6347 65.2757V65.2476ZM66.2877 72.2726L65.8943 74.1271L63.9273 74.2676L65.8381 65.0228L68.4233 64.8542L70.306 73.8743L68.339 73.9866L67.9456 72.1602L66.2877 72.2445V72.2726ZM66.653 70.5585L67.5803 70.5023L67.1026 66.6526L66.653 70.5585ZM73.5655 67.889V73.7618L71.5985 73.818V64.7137L74.3242 64.6294L75.9259 70.4742V64.5732H77.8648V73.6494L75.1672 73.7057L73.5655 67.889ZM81.7144 71.823L81.3492 73.6494H79.3822L81.2649 64.5451L83.8781 64.5732L85.7608 73.7338L83.7938 73.6776L83.4004 71.823H81.7144ZM82.0797 70.137H83.0351L82.5574 66.2592L82.0797 70.137ZM90.7626 70.6709L89.8634 70.6428V68.9568L92.7296 69.0973V72.7784C92.7275 72.9446 92.6855 73.1079 92.6073 73.2546C92.5291 73.4012 92.4168 73.527 92.2799 73.6213C92.0059 73.8529 91.6549 73.9732 91.2965 73.9585L88.4303 73.818C88.0571 73.811 87.6986 73.6716 87.4187 73.4247C87.2858 73.3157 87.179 73.1784 87.1061 73.0228C87.0332 72.8672 86.9959 72.6973 86.9972 72.5255V65.8939C86.9983 65.7305 87.0368 65.5695 87.1099 65.4234C87.183 65.2772 87.2886 65.1498 87.4187 65.0509C87.7014 64.8151 88.0627 64.6947 88.4303 64.7137L91.2965 64.8542C91.6599 64.8678 92.0074 65.0068 92.2799 65.2476C92.4186 65.3595 92.5308 65.5006 92.6086 65.6609C92.6863 65.8212 92.7276 65.9968 92.7296 66.1749V68.0014L90.7626 67.889V66.484L88.9361 66.3997V72.1602L90.7626 72.2445V70.6709ZM96.2701 72.5817L99.5016 72.8627V74.5486C97.7781 74.38 96.0547 74.2395 94.3312 74.1271V65.0228C96.0547 65.1352 97.7781 65.2757 99.5016 65.4443V67.1303C98.4338 67.0179 97.3566 66.9242 96.2701 66.8493V68.8725L98.9677 69.0973V70.7833L96.2701 70.5585V72.5817ZM102.733 71.6263V74.8577L100.794 74.661V65.5567L105.065 66.0344C105.447 66.0739 105.804 66.2424 106.077 66.5121C106.206 66.6301 106.31 66.7731 106.383 66.9325C106.455 67.0919 106.495 67.2643 106.498 67.4394V69.7998C106.508 70.0656 106.446 70.329 106.317 70.5618C106.188 70.7945 105.998 70.9877 105.768 71.1205C106 71.3051 106.186 71.5404 106.313 71.8084C106.439 72.0763 106.503 72.3696 106.498 72.666V75.3073L104.56 75.0825V72.4131C104.559 72.3287 104.542 72.2452 104.508 72.1679C104.474 72.0906 104.425 72.021 104.363 71.9635C104.232 71.8393 104.064 71.7605 103.885 71.7387L102.761 71.6263H102.733ZM103.857 70.0527C103.945 70.0682 104.034 70.0663 104.121 70.047C104.208 70.0277 104.29 69.9914 104.363 69.9403C104.427 69.897 104.478 69.8382 104.513 69.7693C104.547 69.7004 104.563 69.6238 104.56 69.5469V67.6642L102.733 67.4394V69.9403L103.857 70.0527ZM79.8318 102.761C77.1514 102.765 74.5526 101.839 72.4788 100.141C70.405 98.4429 68.9846 96.0778 68.4601 93.4493C67.9356 90.8208 68.3394 88.0917 69.6026 85.7276C70.8658 83.3636 72.9101 81.5111 75.3868 80.4863C77.8635 79.4614 80.6191 79.3277 83.1834 80.108C85.7477 80.8882 87.9618 82.534 89.4479 84.7647C90.9341 86.9953 91.6002 89.6725 91.3326 92.3395C91.065 95.0064 89.8804 97.4979 87.9807 99.3889C86.9104 100.459 85.6398 101.307 84.2416 101.885C82.8434 102.464 81.3449 102.761 79.8318 102.761Z" fill="black"></path>
<path d="M69.0972 91.1837C69.1028 89.0687 69.7347 87.0026 70.9132 85.2464C72.0917 83.4901 73.764 82.1222 75.7192 81.3154C77.6743 80.5086 79.8246 80.2989 81.8987 80.7129C83.9728 81.1269 85.8779 82.146 87.3734 83.6415C88.869 85.1371 89.8881 87.0422 90.3021 89.1163C90.716 91.1904 90.5064 93.3407 89.6996 95.2959C88.8928 97.251 87.5249 98.9233 85.7686 100.102C84.0124 101.28 81.9463 101.912 79.8313 101.918C78.4206 101.922 77.0232 101.646 75.7192 101.108C74.4152 100.57 73.2304 99.7796 72.2329 98.7821C71.2354 97.7846 70.4449 96.5998 69.9068 95.2959C69.3686 93.9919 69.0935 92.5944 69.0972 91.1837Z" fill="#E50011"></path>
<path d="M85.4234 82.0794C86.7262 84.1201 87.2988 86.5421 87.0478 88.9501C86.7969 91.3581 85.7371 93.61 84.0415 95.3381C82.346 97.0663 80.1147 98.1688 77.7119 98.4655C75.3091 98.7623 72.8766 98.2359 70.8115 96.9723C71.6781 98.3297 72.8398 99.4742 74.2101 100.32C75.5803 101.167 77.1238 101.693 78.7256 101.86C80.3274 102.027 81.9463 101.83 83.4616 101.285C84.9769 100.739 86.3496 99.8588 87.4775 98.7092C88.6053 97.5596 89.4594 96.1704 89.9759 94.645C90.4924 93.1196 90.6581 91.4973 90.4607 89.899C90.2633 88.3006 89.7078 86.7674 88.8356 85.4135C87.9635 84.0597 86.7971 82.92 85.4234 82.0794Z" fill="#B2001E"></path>
<path d="M70.5585 92.1391C70.5602 90.0608 71.2129 88.0352 72.4249 86.3469C73.6368 84.6585 75.3471 83.3922 77.3157 82.7257C79.2842 82.0592 81.4121 82.026 83.4004 82.6308C85.3888 83.2355 87.1378 84.4479 88.4018 86.0977C87.719 84.9246 86.8034 83.9037 85.7113 83.0978C84.6192 82.2918 83.3738 81.7179 82.0516 81.4113C80.7294 81.1048 79.3584 81.072 78.0231 81.3151C76.6877 81.5582 75.4163 82.072 74.2869 82.8249C73.1576 83.5778 72.1943 84.5538 71.4563 85.6929C70.7183 86.8321 70.2213 88.1101 69.9957 89.4486C69.7702 90.787 69.8209 92.1574 70.1448 93.4754C70.4687 94.7935 71.0589 96.0313 71.8792 97.1127C71.0078 95.6004 70.5522 93.8845 70.5585 92.1391Z" fill="#FC6D7E"></path>
<path d="M79.9722 102.424H79.6631V78.9041H79.9722V102.424Z" fill="black"></path>
<path d="M78.7075 80.8711C78.6817 80.8711 78.6561 80.866 78.6322 80.8561C78.6084 80.8463 78.5867 80.8318 78.5684 80.8135C78.5502 80.7952 78.5357 80.7735 78.5258 80.7497C78.5159 80.7258 78.5108 80.7002 78.5108 80.6744V79.8595C78.5108 79.8337 78.5159 79.8081 78.5258 79.7842C78.5357 79.7604 78.5502 79.7387 78.5684 79.7204C78.5867 79.7022 78.6084 79.6877 78.6322 79.6778C78.6561 79.6679 78.6817 79.6628 78.7075 79.6628C78.7597 79.6628 78.8097 79.6835 78.8466 79.7204C78.8835 79.7573 78.9042 79.8073 78.9042 79.8595V80.6744C78.9042 80.7266 78.8835 80.7766 78.8466 80.8135C78.8097 80.8504 78.7597 80.8711 78.7075 80.8711ZM78.7075 84.215C78.6817 84.215 78.6561 84.2099 78.6322 84.2C78.6084 84.1901 78.5867 84.1756 78.5684 84.1574C78.5502 84.1391 78.5357 84.1174 78.5258 84.0935C78.5159 84.0697 78.5108 84.0441 78.5108 84.0183V83.2315C78.5108 83.2057 78.5159 83.1801 78.5258 83.1562C78.5357 83.1323 78.5502 83.1107 78.5684 83.0924C78.5867 83.0741 78.6084 83.0596 78.6322 83.0498C78.6561 83.0399 78.6817 83.0348 78.7075 83.0348C78.7552 83.0343 78.8014 83.0511 78.8375 83.0821C78.8737 83.1131 78.8974 83.1562 78.9042 83.2034V84.0464C78.8974 84.0935 78.8737 84.1366 78.8375 84.1676C78.8014 84.1986 78.7552 84.2155 78.7075 84.215ZM78.7075 82.529C78.6817 82.529 78.6561 82.5239 78.6322 82.514C78.6084 82.5041 78.5867 82.4896 78.5684 82.4714C78.5502 82.4531 78.5357 82.4314 78.5258 82.4076C78.5159 82.3837 78.5108 82.3581 78.5108 82.3323V81.5455C78.5108 81.5197 78.5159 81.4941 78.5258 81.4702C78.5357 81.4464 78.5502 81.4247 78.5684 81.4064C78.5867 81.3882 78.6084 81.3737 78.6322 81.3638C78.6561 81.3539 78.6817 81.3488 78.7075 81.3488C78.7597 81.3488 78.8097 81.3695 78.8466 81.4064C78.8835 81.4433 78.9042 81.4933 78.9042 81.5455V82.3323C78.9042 82.3845 78.8835 82.4345 78.8466 82.4714C78.8097 82.5083 78.7597 82.529 78.7075 82.529ZM78.7075 85.901C78.6817 85.901 78.6561 85.8959 78.6322 85.886C78.6084 85.8761 78.5867 85.8616 78.5684 85.8434C78.5502 85.8251 78.5357 85.8034 78.5258 85.7795C78.5159 85.7557 78.5108 85.7301 78.5108 85.7043V84.9175C78.5068 84.8894 78.5088 84.8608 78.5169 84.8335C78.5249 84.8063 78.5388 84.7812 78.5575 84.7598C78.5761 84.7385 78.5992 84.7214 78.6251 84.7098C78.651 84.6982 78.6791 84.6924 78.7075 84.6927C78.7597 84.6927 78.8097 84.7134 78.8466 84.7503C78.8835 84.7872 78.9042 84.8372 78.9042 84.8894V85.7324C78.8974 85.7795 78.8737 85.8226 78.8375 85.8536C78.8014 85.8846 78.7552 85.9014 78.7075 85.901ZM78.7075 89.2729C78.6553 89.2729 78.6053 89.2522 78.5684 89.2153C78.5315 89.1784 78.5108 89.1284 78.5108 89.0762V88.2613C78.5108 88.2355 78.5159 88.2099 78.5258 88.1861C78.5357 88.1622 78.5502 88.1405 78.5684 88.1223C78.5867 88.104 78.6084 88.0895 78.6322 88.0796C78.6561 88.0697 78.6817 88.0646 78.7075 88.0646C78.7597 88.0646 78.8097 88.0854 78.8466 88.1223C78.8835 88.1591 78.9042 88.2092 78.9042 88.2613V89.0762C78.9042 89.1284 78.8835 89.1784 78.8466 89.2153C78.8097 89.2522 78.7597 89.2729 78.7075 89.2729ZM78.7075 87.5869C78.6817 87.5869 78.6561 87.5819 78.6322 87.572C78.6084 87.5621 78.5867 87.5476 78.5684 87.5293C78.5502 87.5111 78.5357 87.4894 78.5258 87.4655C78.5159 87.4417 78.5108 87.4161 78.5108 87.3902V86.5754C78.5108 86.5232 78.5315 86.4732 78.5684 86.4363C78.6053 86.3994 78.6553 86.3787 78.7075 86.3787C78.7597 86.3787 78.8097 86.3994 78.8466 86.4363C78.8835 86.4732 78.9042 86.5232 78.9042 86.5754V87.3902C78.9042 87.4424 78.8835 87.4924 78.8466 87.5293C78.8097 87.5662 78.7597 87.5869 78.7075 87.5869ZM78.7075 90.9308C78.6817 90.9308 78.6561 90.9257 78.6322 90.9158C78.6084 90.906 78.5867 90.8915 78.5684 90.8732C78.5502 90.8549 78.5357 90.8333 78.5258 90.8094C78.5159 90.7855 78.5108 90.76 78.5108 90.7341V89.9754C78.5108 89.9496 78.5159 89.924 78.5258 89.9001C78.5357 89.8763 78.5502 89.8546 78.5684 89.8363C78.5867 89.8181 78.6084 89.8036 78.6322 89.7937C78.6561 89.7838 78.6817 89.7787 78.7075 89.7787C78.7597 89.7787 78.8097 89.7995 78.8466 89.8363C78.8835 89.8732 78.9042 89.9233 78.9042 89.9754V90.7622C78.9042 90.8144 78.8835 90.8644 78.8466 90.9013C78.8097 90.9382 78.7597 90.9589 78.7075 90.9589V90.9308ZM78.7075 94.3028C78.6817 94.3028 78.6561 94.2977 78.6322 94.2878C78.6084 94.2779 78.5867 94.2634 78.5684 94.2452C78.5502 94.2269 78.5357 94.2052 78.5258 94.1814C78.5159 94.1575 78.5108 94.1319 78.5108 94.1061V93.3193C78.5068 93.2912 78.5088 93.2626 78.5169 93.2354C78.5249 93.2082 78.5388 93.183 78.5575 93.1617C78.5761 93.1403 78.5992 93.1232 78.6251 93.1116C78.651 93.1001 78.6791 93.0942 78.7075 93.0945C78.7597 93.0945 78.8097 93.1152 78.8466 93.1521C78.8835 93.189 78.9042 93.239 78.9042 93.2912V94.1061C78.9042 94.1583 78.8835 94.2083 78.8466 94.2452C78.8097 94.2821 78.7597 94.3028 78.7075 94.3028ZM78.7075 92.6168C78.6817 92.6168 78.6561 92.6117 78.6322 92.6018C78.6084 92.5919 78.5867 92.5775 78.5684 92.5592C78.5502 92.5409 78.5357 92.5192 78.5258 92.4954C78.5159 92.4715 78.5108 92.4459 78.5108 92.4201V91.6614C78.5068 91.6333 78.5088 91.6047 78.5169 91.5775C78.5249 91.5503 78.5388 91.5251 78.5575 91.5038C78.5761 91.4824 78.5992 91.4654 78.6251 91.4538C78.651 91.4422 78.6791 91.4363 78.7075 91.4366C78.7597 91.4366 78.8097 91.4573 78.8466 91.4942C78.8835 91.5311 78.9042 91.5811 78.9042 91.6333V92.4763C78.8974 92.5235 78.8737 92.5665 78.8375 92.5976C78.8014 92.6286 78.7552 92.6454 78.7075 92.6449V92.6168ZM78.7075 95.9888C78.6553 95.9888 78.6053 95.968 78.5684 95.9312C78.5315 95.8943 78.5108 95.8442 78.5108 95.7921V94.9772C78.5108 94.9513 78.5159 94.9258 78.5258 94.9019C78.5357 94.878 78.5502 94.8564 78.5684 94.8381C78.5867 94.8198 78.6084 94.8053 78.6322 94.7955C78.6561 94.7856 78.6817 94.7805 78.7075 94.7805C78.7597 94.7805 78.8097 94.8012 78.8466 94.8381C78.8835 94.875 78.9042 94.925 78.9042 94.9772V95.7921C78.9042 95.8442 78.8835 95.8943 78.8466 95.9312C78.8097 95.968 78.7597 95.9888 78.7075 95.9888ZM78.7075 99.3326C78.6817 99.3326 78.6561 99.3275 78.6322 99.3177C78.6084 99.3078 78.5867 99.2933 78.5684 99.275C78.5502 99.2568 78.5357 99.2351 78.5258 99.2112C78.5159 99.1873 78.5108 99.1618 78.5108 99.1359V98.3491C78.5108 98.297 78.5315 98.2469 78.5684 98.2101C78.6053 98.1732 78.6553 98.1525 78.7075 98.1525C78.7597 98.1525 78.8097 98.1732 78.8466 98.2101C78.8835 98.2469 78.9042 98.297 78.9042 98.3491V99.1359C78.9042 99.1881 78.8835 99.2381 78.8466 99.275C78.8097 99.3119 78.7597 99.3326 78.7075 99.3326ZM78.7075 97.6748C78.6817 97.6748 78.6561 97.6697 78.6322 97.6598C78.6084 97.6499 78.5867 97.6354 78.5684 97.6171C78.5502 97.5989 78.5357 97.5772 78.5258 97.5533C78.5159 97.5295 78.5108 97.5039 78.5108 97.4781V96.6632C78.5108 96.6373 78.5159 96.6118 78.5258 96.5879C78.5357 96.564 78.5502 96.5423 78.5684 96.5241C78.5867 96.5058 78.6084 96.4913 78.6322 96.4814C78.6561 96.4716 78.6817 96.4665 78.7075 96.4665C78.7597 96.4665 78.8097 96.4872 78.8466 96.5241C78.8835 96.561 78.9042 96.611 78.9042 96.6632V97.4781C78.9042 97.5302 78.8835 97.5803 78.8466 97.6171C78.8097 97.654 78.7597 97.6748 78.7075 97.6748ZM78.7075 101.019C78.6817 101.019 78.6561 101.014 78.6322 101.004C78.6084 100.994 78.5867 100.979 78.5684 100.961C78.5502 100.943 78.5357 100.921 78.5258 100.897C78.5159 100.873 78.5108 100.848 78.5108 100.822V100.035C78.5068 100.007 78.5088 99.9784 78.5169 99.9512C78.5249 99.924 78.5388 99.8989 78.5575 99.8775C78.5761 99.8561 78.5992 99.8391 78.6251 99.8275C78.651 99.8159 78.6791 99.81 78.7075 99.8103C78.7597 99.8103 78.8097 99.8311 78.8466 99.8679C78.8835 99.9048 78.9042 99.9549 78.9042 100.007V100.85C78.8974 100.897 78.8737 100.94 78.8375 100.971C78.8014 101.002 78.7552 101.019 78.7075 101.019ZM78.7075 102.677C78.6817 102.677 78.6561 102.671 78.6322 102.662C78.6084 102.652 78.5867 102.637 78.5684 102.619C78.5502 102.601 78.5357 102.579 78.5258 102.555C78.5159 102.531 78.5108 102.506 78.5108 102.48V101.693C78.5068 101.665 78.5088 101.636 78.5169 101.609C78.5249 101.582 78.5388 101.557 78.5575 101.535C78.5761 101.514 78.5992 101.497 78.6251 101.485C78.651 101.474 78.6791 101.468 78.7075 101.468C78.7597 101.468 78.8097 101.489 78.8466 101.526C78.8835 101.563 78.9042 101.613 78.9042 101.665V102.508C78.8974 102.555 78.8737 102.598 78.8375 102.629C78.8014 102.66 78.7552 102.677 78.7075 102.677ZM80.8712 80.8711C80.824 80.8643 80.7809 80.8406 80.7499 80.8044C80.7189 80.7683 80.7021 80.7221 80.7026 80.6744V79.8595C80.7021 79.8119 80.7189 79.7657 80.7499 79.7295C80.7809 79.6933 80.824 79.6696 80.8712 79.6628C80.8993 79.6588 80.9279 79.6608 80.9551 79.6689C80.9823 79.6769 81.0075 79.6908 81.0288 79.7095C81.0502 79.7282 81.0672 79.7512 81.0788 79.7771C81.0904 79.803 81.0963 79.8311 81.096 79.8595V80.6744C81.096 80.7266 81.0753 80.7766 81.0384 80.8135C81.0015 80.8504 80.9515 80.8711 80.8993 80.8711H80.8712ZM80.8712 84.215C80.824 84.2082 80.7809 84.1845 80.7499 84.1483C80.7189 84.1121 80.7021 84.0659 80.7026 84.0183V83.2315C80.7021 83.1838 80.7189 83.1376 80.7499 83.1015C80.7809 83.0653 80.824 83.0416 80.8712 83.0348C80.8971 83.0308 80.9235 83.0321 80.9488 83.0384C80.9742 83.0448 80.9981 83.0562 81.019 83.0719C81.04 83.0876 81.0575 83.1073 81.0708 83.1299C81.084 83.1524 81.0926 83.1774 81.096 83.2034V84.0464C81.0892 84.0935 81.0655 84.1366 81.0293 84.1676C80.9931 84.1986 80.9469 84.2155 80.8993 84.215H80.8712ZM80.8712 82.529C80.824 82.5222 80.7809 82.4985 80.7499 82.4623C80.7189 82.4261 80.7021 82.3799 80.7026 82.3323V81.5455C80.7021 81.4979 80.7189 81.4516 80.7499 81.4155C80.7809 81.3793 80.824 81.3556 80.8712 81.3488C80.8993 81.3447 80.9279 81.3468 80.9551 81.3549C80.9823 81.3629 81.0075 81.3768 81.0288 81.3954C81.0502 81.4141 81.0672 81.4372 81.0788 81.4631C81.0904 81.489 81.0963 81.5171 81.096 81.5455V82.3323C81.096 82.3845 81.0753 82.4345 81.0384 82.4714C81.0015 82.5083 80.9515 82.529 80.8993 82.529H80.8712ZM80.8712 85.901C80.824 85.8942 80.7809 85.8705 80.7499 85.8343C80.7189 85.7981 80.7021 85.7519 80.7026 85.7043V84.9175C80.6986 84.8916 80.6999 84.8652 80.7062 84.8398C80.7126 84.8144 80.724 84.7906 80.7397 84.7696C80.7554 84.7487 80.7751 84.7311 80.7977 84.7179C80.8203 84.7047 80.8453 84.6961 80.8712 84.6927C80.8993 84.6886 80.9279 84.6907 80.9551 84.6987C80.9823 84.7068 81.0075 84.7206 81.0288 84.7393C81.0502 84.758 81.0672 84.7811 81.0788 84.807C81.0904 84.8329 81.0963 84.861 81.096 84.8894V85.7324C81.0892 85.7795 81.0655 85.8226 81.0293 85.8536C80.9931 85.8846 80.9469 85.9014 80.8993 85.901H80.8712ZM80.8712 89.2729C80.824 89.2661 80.7809 89.2424 80.7499 89.2063C80.7189 89.1701 80.7021 89.1239 80.7026 89.0762V88.2613C80.7021 88.2137 80.7189 88.1675 80.7499 88.1313C80.7809 88.0951 80.824 88.0714 80.8712 88.0646C80.8993 88.0606 80.9279 88.0627 80.9551 88.0707C80.9823 88.0788 81.0075 88.0926 81.0288 88.1113C81.0502 88.13 81.0672 88.1531 81.0788 88.179C81.0904 88.2049 81.0963 88.233 81.096 88.2613V89.0762C81.096 89.1284 81.0753 89.1784 81.0384 89.2153C81.0015 89.2522 80.9515 89.2729 80.8993 89.2729H80.8712ZM80.8712 87.5869C80.824 87.5801 80.7809 87.5564 80.7499 87.5203C80.7189 87.4841 80.7021 87.4379 80.7026 87.3902V86.5754C80.7021 86.5277 80.7189 86.4815 80.7499 86.4453C80.7809 86.4092 80.824 86.3855 80.8712 86.3787C80.8993 86.3746 80.9279 86.3767 80.9551 86.3847C80.9823 86.3928 81.0075 86.4066 81.0288 86.4253C81.0502 86.444 81.0672 86.4671 81.0788 86.493C81.0904 86.5189 81.0963 86.547 81.096 86.5754V87.3902C81.096 87.4424 81.0753 87.4924 81.0384 87.5293C81.0015 87.5662 80.9515 87.5869 80.8993 87.5869H80.8712ZM80.8712 90.9308C80.824 90.924 80.7809 90.9003 80.7499 90.8641C80.7189 90.828 80.7021 90.7818 80.7026 90.7341V89.9754C80.7021 89.9278 80.7189 89.8816 80.7499 89.8454C80.7809 89.8092 80.824 89.7855 80.8712 89.7787C80.8993 89.7747 80.9279 89.7767 80.9551 89.7848C80.9823 89.7928 81.0075 89.8067 81.0288 89.8254C81.0502 89.8441 81.0672 89.8671 81.0788 89.893C81.0904 89.9189 81.0963 89.947 81.096 89.9754V90.7622C81.096 90.8144 81.0753 90.8644 81.0384 90.9013C81.0015 90.9382 80.9515 90.9589 80.8993 90.9589L80.8712 90.9308ZM80.8712 94.3028C80.824 94.296 80.7809 94.2723 80.7499 94.2361C80.7189 94.1999 80.7021 94.1537 80.7026 94.1061V93.3193C80.6986 93.2934 80.6999 93.267 80.7062 93.2416C80.7126 93.2163 80.724 93.1924 80.7397 93.1715C80.7554 93.1505 80.7751 93.1329 80.7977 93.1197C80.8203 93.1065 80.8453 93.0979 80.8712 93.0945C80.8993 93.0904 80.9279 93.0925 80.9551 93.1006C80.9823 93.1086 81.0075 93.1225 81.0288 93.1411C81.0502 93.1598 81.0672 93.1829 81.0788 93.2088C81.0904 93.2347 81.0963 93.2628 81.096 93.2912V94.1061C81.096 94.1583 81.0753 94.2083 81.0384 94.2452C81.0015 94.2821 80.9515 94.3028 80.8993 94.3028H80.8712ZM80.8712 92.6168C80.824 92.61 80.7809 92.5863 80.7499 92.5501C80.7189 92.5139 80.7021 92.4677 80.7026 92.4201V91.6614C80.6986 91.6355 80.6999 91.6091 80.7062 91.5838C80.7126 91.5584 80.724 91.5345 80.7397 91.5136C80.7554 91.4927 80.7751 91.4751 80.7977 91.4618C80.8203 91.4486 80.8453 91.4401 80.8712 91.4366C80.8993 91.4326 80.9279 91.4346 80.9551 91.4427C80.9823 91.4507 81.0075 91.4646 81.0288 91.4833C81.0502 91.5019 81.0672 91.525 81.0788 91.5509C81.0904 91.5768 81.0963 91.6049 81.096 91.6333V92.4763C81.0892 92.5235 81.0655 92.5665 81.0293 92.5976C80.9931 92.6286 80.9469 92.6454 80.8993 92.6449L80.8712 92.6168ZM80.8712 95.9888C80.824 95.982 80.7809 95.9583 80.7499 95.9221C80.7189 95.8859 80.7021 95.8397 80.7026 95.7921V94.9772C80.7021 94.9295 80.7189 94.8833 80.7499 94.8472C80.7809 94.811 80.824 94.7873 80.8712 94.7805C80.8993 94.7764 80.9279 94.7785 80.9551 94.7865C80.9823 94.7946 81.0075 94.8084 81.0288 94.8271C81.0502 94.8458 81.0672 94.8689 81.0788 94.8948C81.0904 94.9207 81.0963 94.9488 81.096 94.9772V95.7921C81.096 95.8442 81.0753 95.8943 81.0384 95.9312C81.0015 95.968 80.9515 95.9888 80.8993 95.9888H80.8712ZM80.8712 99.3326C80.824 99.3258 80.7809 99.3021 80.7499 99.266C80.7189 99.2298 80.7021 99.1836 80.7026 99.1359V98.3491C80.7021 98.3015 80.7189 98.2553 80.7499 98.2191C80.7809 98.1829 80.824 98.1593 80.8712 98.1525C80.8993 98.1484 80.9279 98.1505 80.9551 98.1585C80.9823 98.1666 81.0075 98.1804 81.0288 98.1991C81.0502 98.2178 81.0672 98.2409 81.0788 98.2668C81.0904 98.2927 81.0963 98.3208 81.096 98.3491V99.1359C81.096 99.1881 81.0753 99.2381 81.0384 99.275C81.0015 99.3119 80.9515 99.3326 80.8993 99.3326H80.8712ZM80.8712 97.6748C80.824 97.6679 80.7809 97.6443 80.7499 97.6081C80.7189 97.5719 80.7021 97.5257 80.7026 97.4781V96.6632C80.7021 96.6155 80.7189 96.5693 80.7499 96.5331C80.7809 96.497 80.824 96.4733 80.8712 96.4665C80.8993 96.4624 80.9279 96.4645 80.9551 96.4725C80.9823 96.4806 81.0075 96.4944 81.0288 96.5131C81.0502 96.5318 81.0672 96.5549 81.0788 96.5808C81.0904 96.6067 81.0963 96.6348 81.096 96.6632V97.4781C81.096 97.5302 81.0753 97.5803 81.0384 97.6171C81.0015 97.654 80.9515 97.6748 80.8993 97.6748H80.8712ZM80.8712 101.019C80.824 101.012 80.7809 100.988 80.7499 100.952C80.7189 100.916 80.7021 100.87 80.7026 100.822V100.035C80.6986 100.009 80.6999 99.9829 80.7062 99.9575C80.7126 99.9321 80.724 99.9082 80.7397 99.8873C80.7554 99.8664 80.7751 99.8488 80.7977 99.8356C80.8203 99.8223 80.8453 99.8138 80.8712 99.8103C80.8993 99.8063 80.9279 99.8084 80.9551 99.8164C80.9823 99.8245 81.0075 99.8383 81.0288 99.857C81.0502 99.8757 81.0672 99.8988 81.0788 99.9247C81.0904 99.9506 81.0963 99.9787 81.096 100.007V100.85C81.0892 100.897 81.0655 100.94 81.0293 100.971C80.9931 101.002 80.9469 101.019 80.8993 101.019H80.8712ZM80.8712 102.677C80.824 102.67 80.7809 102.646 80.7499 102.61C80.7189 102.574 80.7021 102.527 80.7026 102.48V101.693C80.6986 101.667 80.6999 101.641 80.7062 101.615C80.7126 101.59 80.724 101.566 80.7397 101.545C80.7554 101.524 80.7751 101.507 80.7977 101.493C80.8203 101.48 80.8453 101.472 80.8712 101.468C80.8993 101.464 80.9279 101.466 80.9551 101.474C80.9823 101.482 81.0075 101.496 81.0288 101.515C81.0502 101.534 81.0672 101.557 81.0788 101.583C81.0904 101.608 81.0963 101.637 81.096 101.665V102.508C81.0892 102.555 81.0655 102.598 81.0293 102.629C80.9931 102.66 80.9469 102.677 80.8993 102.677H80.8712Z" fill="white"></path>
<path d="M76.0659 81.1521V101.243L76.4593 101.384V80.9835L76.0659 81.124V81.1521ZM83.147 81.0116V101.384L83.5404 101.243V81.1521L83.147 81.0116Z" fill="white"></path>
<path d="M82.0515 27.9873L82.0234 27.8749L85.564 25.2898L80.0283 27.1163L82.0515 27.9873ZM81.2085 25.2898H81.1804L79.8035 21.1029L79.8597 26.8634L81.2085 25.2898ZM78.3985 25.2898H74.2397L79.4101 26.9758L78.3985 25.2898Z" fill="#A7A9AA"></path>
<path d="M80.0282 27.1163L85.5639 25.2898H85.592H81.2084L79.8596 26.8634L79.8034 21.1029L78.4546 25.2898H78.3984L79.41 26.9758L74.2397 25.2898H74.043L77.6116 27.8749L77.5835 27.9873L79.4662 27.5097L76.3752 31.9775L79.8034 29.4766L79.8596 29.5047L80.0001 27.4816L83.2878 31.837L82.0514 27.9873L80.0282 27.1163Z" fill="white"></path>
<path d="M77.5832 27.9873L76.2625 32.0618L76.3749 31.9775L79.4659 27.5097L77.5832 27.9873ZM79.8593 29.5047L83.3717 32.0618L83.2874 31.837L79.9998 27.4816L79.8593 29.5047ZM69.069 27.7626L69.0409 27.7063L71.2326 26.1328L67.8326 27.2568L69.069 27.7626ZM68.5632 26.1328H68.5351L67.7202 23.5757H67.6921L67.7483 27.0882L68.5632 26.1328ZM66.8491 26.1328H64.292L67.4673 27.1725L66.8491 26.1328Z" fill="#A7A9AA"></path>
<path d="M67.8327 27.2568L71.2327 26.1328H68.5633L67.7484 27.0882L67.6922 23.5757L66.8773 26.1328H66.8492L67.4674 27.1725L64.2921 26.1328H64.1797L66.3715 27.7063L66.3434 27.7906L67.4955 27.4815L65.5847 30.2353L67.7203 28.6898V28.7179L67.8046 27.4815L69.8278 30.1229L69.0691 27.7625L67.8327 27.2568Z" fill="white"></path>
<path d="M66.3437 27.7906L65.5288 30.2634L65.585 30.2353L67.4958 27.4815L66.3437 27.7906ZM67.7206 28.7179L69.8843 30.2634L69.8281 30.1229L67.8049 27.4815L67.7206 28.7179ZM93.2914 27.7625L93.2633 27.7063L95.427 26.1328L92.055 27.2568L93.2914 27.7625ZM92.7856 26.1328H92.7575L91.9145 23.5757L91.9707 27.0882L92.7856 26.1328ZM91.0715 26.1328H88.5144L91.6897 27.1725L91.0715 26.1328Z" fill="#A7A9AA"></path>
<path d="M92.0548 27.2568L95.4268 26.1328H95.4549H92.7854L91.9705 27.0882L91.9143 23.5757L91.0994 26.1328H91.0713L91.6895 27.1725L88.5143 26.1328H88.4019L90.5936 27.7063L90.5655 27.7906L91.7176 27.4815L89.8068 30.2353L91.9143 28.6898L91.9424 28.7179L92.0267 27.4815L94.0499 30.1229L93.2912 27.7625L92.0548 27.2568Z" fill="white"></path>
<path d="M90.5654 27.7907L89.7505 30.2634L89.8067 30.2353L91.7175 27.4816L90.5654 27.7907ZM91.9423 28.718L94.1059 30.2634L94.0498 30.1229L92.0266 27.4816L91.9423 28.718Z" fill="#A7A9AA"></path>
</g>
<defs>
<clipPath id="clip0_162_765">
<rect width="160" height="135.019" fill="white"></rect>
</clipPath>
</defs>
</svg>