<?xml version="1.0" encoding="UTF-8" standalone="no"?><!DOCTYPE svg PUBLIC "-//W3C//DTD SVG 1.1//EN" "http://www.w3.org/Graphics/SVG/1.1/DTD/svg11.dtd"><svg width="100%" height="100%" viewBox="0 0 512 512" version="1.1" xmlns="http://www.w3.org/2000/svg" xmlns:xlink="http://www.w3.org/1999/xlink" xml:space="preserve" xmlns:serif="http://www.serif.com/" style="fill-rule:evenodd;clip-rule:evenodd;stroke-linejoin:round;stroke-miterlimit:1.41421;"><g id="Layer-1" serif:id="Layer 1"><path id="path282" d="M396.233,49.891l36.36,0l-179.767,210.933l-166.316,195.831l-36.365,0l178.429,-209.19l167.659,-197.574Z" style="fill:#333257;fill-rule:nonzero;"/><path id="path286" d="M401.799,282.157l-69.649,0l0,-35.764l178.231,0l0,35.764l-69.665,0l0,183.843l-38.917,0l0,-183.843Z" style="fill:#72bec3;fill-rule:nonzero;"/><path id="path290" d="M36.022,148.087l0,1.177c0,45.906 31.645,79.014 69.34,79.014c39.73,0 68.017,-34.281 68.017,-77.861l0,-1.153c0,-45.338 -31.661,-79.034 -69.376,-79.034c-39.718,0 -67.981,35.445 -67.981,77.857m-35.022,2.33l0,-1.153c0,-54.63 41.738,-104.027 104.362,-104.027c61.946,0 103.023,49.397 103.023,102.85l0,1.177c0,54.609 -41.738,104.003 -104.382,104.003c-61.934,0 -103.003,-48.809 -103.003,-102.85" style="fill:#333257;fill-rule:nonzero;"/><path id="path294" d="M11.158,150.307l0,-1.048c0,-49.268 37.659,-93.828 94.139,-93.828c55.871,0 92.913,44.56 92.913,92.764l0,1.064c0,49.26 -37.634,93.82 -94.138,93.82c-55.855,0 -92.914,-44.032 -92.914,-92.772" style="fill:#333257;fill-rule:nonzero;"/></g></svg>