<svg width="715" height="716" xmlns="http://www.w3.org/2000/svg" xmlns:xlink="http://www.w3.org/1999/xlink" xml:space="preserve" overflow="hidden"><defs><clipPath id="clip0"><rect x="2461" y="152" width="715" height="716"/></clipPath><linearGradient x1="26.9431" y1="356.948" x2="688.284" y2="356.948" gradientUnits="userSpaceOnUse" spreadMethod="pad" id="fill1"><stop offset="0" stop-color="#008EF0"/><stop offset="0.00127816" stop-color="#008EF0"/><stop offset="1" stop-color="#7FFDFF"/></linearGradient><clipPath id="clip2"><rect x="2652" y="280" width="327" height="286"/></clipPath><clipPath id="clip3"><rect x="2652" y="280" width="327" height="286"/></clipPath><clipPath id="clip4"><rect x="2652" y="280" width="327" height="286"/></clipPath><clipPath id="clip5"><rect x="2653" y="638" width="125" height="113"/></clipPath><clipPath id="clip6"><rect x="2653" y="638" width="125" height="113"/></clipPath><clipPath id="clip7"><rect x="2653" y="638" width="125" height="113"/></clipPath><clipPath id="clip8"><rect x="2834" y="642" width="144" height="125"/></clipPath><clipPath id="clip9"><rect x="2834" y="642" width="144" height="125"/></clipPath><clipPath id="clip10"><rect x="2834" y="642" width="144" height="125"/></clipPath></defs><g clip-path="url(#clip0)" transform="translate(-2461 -152)"><path d="M591.437 123.125C528.981 60.6688 445.948 26.2694 357.619 26.2694 269.29 26.2694 186.244 60.6688 123.788 123.125 61.3311 185.582 26.9449 268.628 26.9449 356.944 26.9449 445.26 61.3444 528.306 123.788 590.762 186.231 653.219 269.277 687.618 357.606 687.618 445.935 687.618 528.968 653.219 591.424 590.762 653.881 528.306 688.28 445.273 688.28 356.944 688.28 268.615 653.894 185.582 591.437 123.125Z" fill="url(#fill1)" transform="matrix(1 0 0 1.0014 2461 152)"/><path d="M357.619 714.444C262.127 714.444 172.355 677.264 104.827 609.736 37.2992 542.208 0.119121 452.436 0.119121 356.944 0.119121 261.452 37.2992 171.679 104.827 104.152 172.355 36.624 262.127-0.556008 357.619-0.556008 453.111-0.556008 542.884 36.624 610.411 104.152 677.939 171.679 715.119 261.452 715.119 356.944 715.119 452.436 677.939 542.208 610.411 609.736 542.884 677.264 453.111 714.444 357.619 714.444ZM357.619 26.283C269.29 26.283 186.257 60.6824 123.801 123.139 61.3444 185.595 26.9449 268.628 26.9449 356.944 26.9449 445.26 61.3444 528.306 123.788 590.762 186.231 653.219 269.277 687.618 357.606 687.618 445.935 687.618 528.968 653.219 591.424 590.762 653.881 528.306 688.28 445.273 688.28 356.944 688.28 268.615 653.881 185.582 591.424 123.126 528.968 60.6692 445.935 26.283 357.619 26.283Z" fill="#FFFFFF" transform="matrix(1 0 0 1.0014 2461 152)"/><g clip-path="url(#clip2)"><g clip-path="url(#clip3)"><g clip-path="url(#clip4)"><path d="M239.647 283.968C228.901 283.968 218.17 281.772 208.137 277.366 187.766 268.423 172.105 251.163 165.184 230.021L162.537 221.936 159.891 230.021C152.969 251.163 137.309 268.423 116.937 277.381 96.5656 286.323 73.2712 286.178 53.0158 276.973L24.5013 264.018C9.58238 257.242 0 242.366 0 225.979L0 121.14C0 113.317 5.6273 106.628 13.3339 105.305 58.3232 97.5398 109.914 93.4247 162.537 93.4247 179.739 93.4247 196.824 93.861 213.605 94.7189 231.403 95.6349 244.867 111.208 243.326 128.977 217.24 126.723 190.063 125.574 162.537 125.574 116.865 125.574 72.1079 128.759 32.1352 134.822L32.1352 225.993C32.1352 229.774 34.3454 233.206 37.7916 234.776L65.0556 247.179C77.2844 252.734 91.4181 253.432 103.749 248.095 116.065 242.759 125.153 232.798 129.326 220.061L134.721 203.571C138.647 191.561 149.61 182.836 162.246 182.734 175.1 182.618 186.021 190.47 190.005 202.655L195.283 218.767C199.471 231.533 208.501 242.395 220.759 247.877 233.017 253.359 246.525 253.316 258.725 247.761L287.239 234.805C290.685 233.235 292.896 229.803 292.896 226.022L292.896 0 325.045 0 325.045 225.95C325.045 242.337 315.463 257.212 300.544 263.988L272.03 276.944C261.793 281.626 250.727 283.968 239.647 283.968Z" fill="#FFFFFF" transform="matrix(1.00395 0 0 1 2652 280)"/></g></g></g><g clip-path="url(#clip5)"><g clip-path="url(#clip6)"><g clip-path="url(#clip7)"><path d="M94.4009 33.2031C92.1222 31.901 89.1925 31.901 86.5884 33.2031L68.3592 43.9452 55.9895 50.7812 38.0859 61.5233C35.8072 62.8254 32.8775 62.8254 30.2734 61.5233L16.276 53.0598C13.9974 51.7577 12.3698 49.1536 12.3698 46.2239L12.3698 29.9479C12.3698 27.3437 13.6718 24.7395 16.276 23.1119L30.2734 14.9739C32.552 13.6718 35.4817 13.6718 38.0859 14.9739L52.0832 23.4375C54.3619 24.7395 55.9895 27.3437 55.9895 30.2734L55.9895 41.0155 68.3592 33.8541 68.3592 22.7864C68.3592 20.1823 67.0572 17.5781 64.453 15.9505L38.4114 0.65104C36.1327-0.65104 33.2031-0.65104 30.5989 0.65104L3.90624 16.276C1.30208 17.5781 0 20.1823 0 22.7864L0 53.3853C0 55.9895 1.30208 58.5936 3.90624 60.2212L30.2734 75.5207C32.552 76.8228 35.4817 76.8228 38.0859 75.5207L55.9895 65.104 68.3592 57.9426 86.2629 47.526C88.5415 46.2239 91.4712 46.2239 94.0753 47.526L108.073 55.664C110.351 56.966 111.979 59.5702 111.979 62.4999L111.979 78.7759C111.979 81.3801 110.677 83.9842 108.073 85.6118L94.4009 93.7498C92.1222 95.0519 89.1925 95.0519 86.5884 93.7498L72.591 85.6118C70.3124 84.3097 68.6848 81.7056 68.6848 78.7759L68.6848 68.3592 56.315 75.5207 56.315 86.2629C56.315 88.867 57.6171 91.4712 60.2212 93.0988L86.5884 108.398C88.867 109.7 91.7967 109.7 94.4009 108.398L120.768 93.0988C123.047 91.7967 124.674 89.1925 124.674 86.2629L124.674 55.3384C124.674 52.7343 123.372 50.1301 120.768 48.5025L94.4009 33.2031Z" fill="#8247E5" transform="matrix(1 0 0 1.00141 2653 639.398)"/></g></g></g><g clip-path="url(#clip8)"><g clip-path="url(#clip9)"><g clip-path="url(#clip10)"><path d="M26.1835 0.610877 0.109537 55.3792C-0.0941191 55.7973-0.00191368 56.2993 0.337036 56.6178L70.7564 124.097C71.172 124.495 71.828 124.495 72.2436 124.097L142.663 56.622C143.002 56.3035 143.094 55.8015 142.89 55.3834L116.817 0.61509C116.645 0.239426 116.269-0.00108802 115.856 1.60711e-08L27.1524 0C26.7373-0.0051651 26.3578 0.23406 26.1835 0.610877L26.1835 0.610877Z" fill="#50AF95" fill-rule="evenodd" transform="matrix(1 0 0 1.0045 2835 642.022)"/><path d="M80.5473 61.0034 80.5473 61.0034C80.0417 61.0414 77.4297 61.1972 71.6032 61.1972 66.969 61.1972 63.6787 61.0582 62.5243 61.0034L62.5243 61.0034C44.6151 60.2156 31.2474 57.098 31.2474 53.3654 31.2474 49.6327 44.6151 46.5193 62.5243 45.7189L62.5243 57.8985C63.6955 57.9828 67.049 58.1808 71.6833 58.1808 77.2444 58.1808 80.0291 57.9491 80.5304 57.9027L80.5304 45.7273C98.4018 46.5236 111.74 49.6411 111.74 53.3654 111.74 57.0896 98.406 60.2072 80.5304 60.9992L80.5304 60.9992ZM80.5473 44.4676 80.5473 33.5687 105.488 33.5687 105.488 16.9487 37.5837 16.9487 37.5837 33.5687 62.5201 33.5687 62.5201 44.4634C42.2516 45.3945 27.0092 49.4094 27.0092 54.2206 27.0092 59.0318 42.2516 63.0425 62.5201 63.9778L62.5201 98.9031 80.5431 98.9031 80.5431 63.9651C100.765 63.0341 115.982 59.0234 115.982 54.2164 115.982 49.4094 100.778 45.3987 80.5431 44.4634L80.5431 44.4634ZM80.5473 44.4676 80.5473 44.4676Z" fill="#FFFFFF" fill-rule="evenodd" transform="matrix(1 0 0 1.0045 2835 642.022)"/></g></g></g></g></svg>