<svg width="1005" height="1005" viewBox="0 0 1005 1005" fill="none" xmlns="http://www.w3.org/2000/svg">
<rect width="1005" height="1005" rx="502.5" fill="#02B964"/>
<path d="M688.857 278.303C632.322 287.935 571.498 293.155 508.101 293.155C444.704 293.155 383.904 287.912 327.369 278.303C267.665 268.125 215.727 356.976 226.401 416.337C259.779 601.988 386.287 776.25 508.125 776.25C629.963 776.25 756.471 601.988 789.849 416.337C800.523 356.976 748.585 268.125 688.857 278.303ZM468.267 465.591C458.26 493.515 414.423 503.456 370.348 487.798C326.273 472.139 298.66 436.788 308.69 408.863C318.697 380.939 362.534 370.998 406.609 386.656C450.684 402.315 478.297 437.666 468.267 465.567V465.591ZM645.878 487.798C601.803 503.456 557.966 493.515 547.96 465.591C537.953 437.666 565.566 402.339 609.617 386.68C653.693 371.022 697.53 380.962 707.536 408.887C717.542 436.812 689.93 472.139 645.878 487.821V487.798Z" fill="white"/>
</svg>
