<?xml version="1.0" encoding="utf-8"?>
<!-- Generator: Adobe Illustrator 26.0.1, SVG Export Plug-In . SVG Version: 6.00 Build 0)  -->
<svg version="1.1" id="Layer_1" xmlns="http://www.w3.org/2000/svg" xmlns:xlink="http://www.w3.org/1999/xlink" x="0px" y="0px"
	 viewBox="0 0 258.4 250.3" style="enable-background:new 0 0 258.4 250.3;" xml:space="preserve">
<style type="text/css">
	.st0{fill:url(#SVGID_1_);}
	.st1{fill:url(#SVGID_00000057840625645447917540000010566084634910281134_);}
	.st2{fill:url(#SVGID_00000123413292905670356300000016238885050161939090_);}
	.st3{fill:url(#SVGID_00000101817036583713548610000013855032201885522824_);}
	.st4{fill:url(#SVGID_00000089557849446882499740000002814088777772658842_);}
	.st5{fill:url(#SVGID_00000041992610705899016210000009280519052752426906_);}
	.st6{fill:url(#SVGID_00000086694281717094580940000010787194385428108687_);}
	.st7{fill:url(#SVGID_00000165912984349317483940000006395316835997893793_);}
	.st8{fill:url(#SVGID_00000023273117203733596850000004086088301151801761_);}
	.st9{fill:url(#SVGID_00000052823469066686354660000013161446431553490061_);}
	.st10{fill:url(#SVGID_00000072249315645158498310000016214396759926951310_);}
	.st11{fill:url(#SVGID_00000167397933010406531790000014332740043834883489_);}
	.st12{fill:url(#SVGID_00000101076653780054307490000008758333598504032446_);}
	.st13{fill:url(#SVGID_00000095320752700003863750000014865204939700664216_);}
	.st14{fill:url(#SVGID_00000052797549775194725980000002731580992775873170_);}
	.st15{fill:url(#SVGID_00000130634459793025337800000008997477366329403013_);}
	.st16{fill:url(#SVGID_00000071524202676640561330000016238927166702508958_);}
	.st17{fill:url(#SVGID_00000139991421764845739590000008325592817394953359_);}
	.st18{fill:url(#SVGID_00000163794406349585758310000005848196534729971079_);}
	.st19{fill:url(#SVGID_00000121996717203617177370000006978816882670214315_);}
	.st20{fill:url(#SVGID_00000019665277963873256690000013595370604771957636_);}
	.st21{fill:url(#SVGID_00000008135482330453470030000017009411613613849531_);}
	.st22{fill:url(#SVGID_00000093861282153166780490000010491690800373255594_);}
	.st23{fill:url(#SVGID_00000176019948892957731890000013845888556013378737_);}
	.st24{fill:url(#SVGID_00000171706634866015962840000012642495000552129154_);}
	.st25{fill:url(#SVGID_00000163049992228940457670000002701765800821740717_);}
	.st26{fill:url(#SVGID_00000128446001234505348580000009486222508379017917_);}
	.st27{fill:url(#SVGID_00000168797209945645066260000010413736626751028122_);}
	.st28{fill:url(#SVGID_00000077306213674808091050000012804732917530883723_);}
	.st29{fill:url(#SVGID_00000128480417495393927590000012196070297933478815_);}
	.st30{fill:url(#SVGID_00000018922794897140928530000013227282244167058322_);}
	.st31{fill:url(#SVGID_00000152254520162640428270000001068367925436566171_);}
	.st32{fill:url(#SVGID_00000098190343810410585190000011587734857168539315_);}
	.st33{fill:url(#SVGID_00000064333738986523475440000007481493201612901536_);}
	.st34{fill:url(#SVGID_00000046315045862618465180000001543803671427930037_);}
	.st35{fill:url(#SVGID_00000081647085472293774080000000902012285662293905_);}
	.st36{fill:url(#SVGID_00000071534659746871152930000014762168291234794632_);}
	.st37{fill:url(#SVGID_00000000189648384136605230000015699655109078132649_);}
	.st38{fill:url(#SVGID_00000145737928134127835020000015388632155332583825_);}
	.st39{fill:url(#SVGID_00000008120511561693994660000016349964650439084474_);}
	.st40{fill:url(#SVGID_00000103984618813335188780000010223652695133152128_);}
	.st41{fill:url(#SVGID_00000021824392067887221680000014706450375168517296_);}
	.st42{fill:url(#SVGID_00000002366451025906215340000011862673362322398116_);}
</style>
<g id="Layer_2_00000089538430962957826460000011713090984671998086_">
	<g id="Layer_1-2">
		
			<radialGradient id="SVGID_1_" cx="16.38" cy="110.95" r="3.181" gradientTransform="matrix(1 0 0 -1 0 252)" gradientUnits="userSpaceOnUse">
			<stop  offset="0" style="stop-color:#050965"/>
			<stop  offset="0.4" style="stop-color:#0B0445"/>
			<stop  offset="0.77" style="stop-color:#0F012F"/>
			<stop  offset="1" style="stop-color:#100027"/>
		</radialGradient>
		<path class="st0" d="M15.7,136.6c0.3,3,0.8,6,1.3,8.9c-0.1-0.5-0.2-1-0.3-1.5c-0.2-0.8-0.3-1.6-0.4-2.4
			C16.1,139.9,15.9,138.3,15.7,136.6z"/>
		
			<radialGradient id="SVGID_00000016760662505720632680000014765547230751022251_" cx="23.15" cy="89.725" r="12.612" gradientTransform="matrix(1 0 0 -1 0 252)" gradientUnits="userSpaceOnUse">
			<stop  offset="0" style="stop-color:#050965"/>
			<stop  offset="0.4" style="stop-color:#0B0445"/>
			<stop  offset="0.77" style="stop-color:#0F012F"/>
			<stop  offset="1" style="stop-color:#100027"/>
		</radialGradient>
		<path style="fill:url(#SVGID_00000016760662505720632680000014765547230751022251_);" d="M17,145.5c2.3,11.8,6.4,23.1,12.2,33.6
			c-3-5.2-5.5-10.7-7.5-16.3c-0.5-1.5-1.1-3-1.5-4.6c-0.2-0.8-0.5-1.5-0.7-2.3s-0.5-1.5-0.7-2.3c-0.6-2.5-1.2-5-1.7-7.5
			C17,145.9,17,145.7,17,145.5z"/>
		
			<radialGradient id="SVGID_00000138570094306007995180000004407050221571264130_" cx="28.395" cy="168.535" r="22.1284" gradientTransform="matrix(1 0 0 -1 0 252)" gradientUnits="userSpaceOnUse">
			<stop  offset="0" style="stop-color:#050965"/>
			<stop  offset="0.4" style="stop-color:#0B0445"/>
			<stop  offset="0.77" style="stop-color:#0F012F"/>
			<stop  offset="1" style="stop-color:#100027"/>
		</radialGradient>
		<path style="fill:url(#SVGID_00000138570094306007995180000004407050221571264130_);" d="M40.8,54.7C27.2,71.1,18.6,91.1,16,112.2
			C18.5,91,27.1,71,40.8,54.7z"/>
		
			<radialGradient id="SVGID_00000080194609438304217430000016019609586254070912_" cx="30.37" cy="71.03" r="1.57" gradientTransform="matrix(1 0 0 -1 0 252)" gradientUnits="userSpaceOnUse">
			<stop  offset="0" style="stop-color:#050965"/>
			<stop  offset="0.4" style="stop-color:#0B0445"/>
			<stop  offset="0.77" style="stop-color:#0F012F"/>
			<stop  offset="1" style="stop-color:#100027"/>
		</radialGradient>
		<path style="fill:url(#SVGID_00000080194609438304217430000016019609586254070912_);" d="M29.2,179.1c0.7,1.3,1.5,2.6,2.2,3.9
			c-0.3-0.5-0.6-1-0.9-1.4c-0.1-0.1-0.2-0.2-0.2-0.4C30,180.4,29.6,179.7,29.2,179.1z"/>
		
			<radialGradient id="SVGID_00000089569404155052522260000001520340459676412565_" cx="33.41" cy="66.185" r="2.473" gradientTransform="matrix(1 0 0 -1 0 252)" gradientUnits="userSpaceOnUse">
			<stop  offset="0" style="stop-color:#050965"/>
			<stop  offset="0.4" style="stop-color:#0B0445"/>
			<stop  offset="0.77" style="stop-color:#0F012F"/>
			<stop  offset="1" style="stop-color:#100027"/>
		</radialGradient>
		<path style="fill:url(#SVGID_00000089569404155052522260000001520340459676412565_);" d="M31.5,182.9c1.2,2,2.5,3.9,3.8,5.8
			c-0.5-0.7-1-1.4-1.5-2.2c-0.2-0.3-0.3-0.5-0.5-0.8C32.6,184.8,32.1,183.9,31.5,182.9z"/>
		
			<radialGradient id="SVGID_00000091734920360372890450000004884716630927938214_" cx="37.9" cy="59.81" r="1.2007" gradientTransform="matrix(1 0 0 -1 0 252)" gradientUnits="userSpaceOnUse">
			<stop  offset="0" style="stop-color:#050965"/>
			<stop  offset="0.4" style="stop-color:#0B0445"/>
			<stop  offset="0.77" style="stop-color:#0F012F"/>
			<stop  offset="1" style="stop-color:#100027"/>
		</radialGradient>
		<path style="fill:url(#SVGID_00000091734920360372890450000004884716630927938214_);" d="M36.9,190.8c0.7,0.9,1.4,1.8,2.1,2.7
			c-0.6-0.7-1.1-1.4-1.7-2.1C37.2,191.2,37,191,36.9,190.8z"/>
		
			<radialGradient id="SVGID_00000059994775528318891650000004400279804521107332_" cx="40.83" cy="56.15" r="1.3707" gradientTransform="matrix(1 0 0 -1 0 252)" gradientUnits="userSpaceOnUse">
			<stop  offset="0" style="stop-color:#050965"/>
			<stop  offset="0.4" style="stop-color:#0B0445"/>
			<stop  offset="0.77" style="stop-color:#0F012F"/>
			<stop  offset="1" style="stop-color:#100027"/>
		</radialGradient>
		<path style="fill:url(#SVGID_00000059994775528318891650000004400279804521107332_);" d="M39.6,194.4c0.8,1,1.7,2,2.5,3
			c-0.4-0.4-0.7-0.8-1-1.2c-0.1-0.1-0.2-0.2-0.2-0.3C40.4,195.4,40,194.9,39.6,194.4z"/>
		
			<radialGradient id="SVGID_00000080171176915764490900000002356878486659479437_" cx="46.29" cy="50.09" r="1.21" gradientTransform="matrix(1 0 0 -1 0 252)" gradientUnits="userSpaceOnUse">
			<stop  offset="0" style="stop-color:#050965"/>
			<stop  offset="0.4" style="stop-color:#0B0445"/>
			<stop  offset="0.77" style="stop-color:#0F012F"/>
			<stop  offset="1" style="stop-color:#100027"/>
		</radialGradient>
		<path style="fill:url(#SVGID_00000080171176915764490900000002356878486659479437_);" d="M45.1,200.7c0.8,0.8,1.6,1.6,2.4,2.4l0,0
			C46.7,202.3,45.9,201.5,45.1,200.7z"/>
		
			<radialGradient id="SVGID_00000099640853126872804780000006399574122151111054_" cx="60.32" cy="38.01" r="1.92" gradientTransform="matrix(1 0 0 -1 0 252)" gradientUnits="userSpaceOnUse">
			<stop  offset="0" style="stop-color:#050965"/>
			<stop  offset="0.4" style="stop-color:#0B0445"/>
			<stop  offset="0.77" style="stop-color:#0F012F"/>
			<stop  offset="1" style="stop-color:#100027"/>
		</radialGradient>
		<path style="fill:url(#SVGID_00000099640853126872804780000006399574122151111054_);" d="M58.1,212.4c1.4,1.1,2.9,2.1,4.4,3.2
			c-0.5-0.3-1.1-0.7-1.6-1.1C60,213.8,59,213.1,58.1,212.4z"/>
		
			<radialGradient id="SVGID_00000052824315397726825980000010313200968730048392_" cx="64.77" cy="34.95" r="1.9004" gradientTransform="matrix(1 0 0 -1 0 252)" gradientUnits="userSpaceOnUse">
			<stop  offset="0" style="stop-color:#050965"/>
			<stop  offset="0.4" style="stop-color:#0B0445"/>
			<stop  offset="0.77" style="stop-color:#0F012F"/>
			<stop  offset="1" style="stop-color:#100027"/>
		</radialGradient>
		<path style="fill:url(#SVGID_00000052824315397726825980000010313200968730048392_);" d="M62.5,215.6c1.5,1,3,2,4.5,2.9l-0.2-0.1
			c-1.1-0.7-2.1-1.4-3.1-2C63.3,216.1,62.9,215.9,62.5,215.6z"/>
		
			<radialGradient id="SVGID_00000072969439023376783780000008478052011099300489_" cx="64.0584" cy="112.535" r="18.331" gradientTransform="matrix(1 0 0 -1 0 252)" gradientUnits="userSpaceOnUse">
			<stop  offset="0" style="stop-color:#050965"/>
			<stop  offset="0.4" style="stop-color:#0B0445"/>
			<stop  offset="0.77" style="stop-color:#0F012F"/>
			<stop  offset="1" style="stop-color:#100027"/>
		</radialGradient>
		<path style="fill:url(#SVGID_00000072969439023376783780000008478052011099300489_);" d="M62.6,117c-1.8,14.2,1.2,28.7,8.5,41
			c-0.8,2.3-1.4,4.4-2,6.4c-0.7-1.1-1.4-2.2-2.2-3.4c-8.3-14-11.6-30.3-9.2-46.4C59.6,115.4,61.2,116.2,62.6,117z"/>
		
			<radialGradient id="SVGID_00000121264303270985168480000000914045774592729240_" cx="71.55" cy="30.96" r="3.67" gradientTransform="matrix(1 0 0 -1 0 252)" gradientUnits="userSpaceOnUse">
			<stop  offset="0" style="stop-color:#050965"/>
			<stop  offset="0.4" style="stop-color:#0B0445"/>
			<stop  offset="0.77" style="stop-color:#0F012F"/>
			<stop  offset="1" style="stop-color:#100027"/>
		</radialGradient>
		<path style="fill:url(#SVGID_00000121264303270985168480000000914045774592729240_);" d="M67,218.5c2.9,1.8,6,3.5,9.1,5
			c-0.6-0.2-1.1-0.5-1.7-0.8s-1-0.5-1.6-0.8c-1-0.6-2.1-1.2-3.1-1.7S67.9,219.1,67,218.5z"/>
		
			<radialGradient id="SVGID_00000088109320168109965500000003618135139670796164_" cx="79.93" cy="26.66" r="1.7884" gradientTransform="matrix(1 0 0 -1 0 252)" gradientUnits="userSpaceOnUse">
			<stop  offset="0" style="stop-color:#050965"/>
			<stop  offset="0.4" style="stop-color:#0B0445"/>
			<stop  offset="0.77" style="stop-color:#0F012F"/>
			<stop  offset="1" style="stop-color:#100027"/>
		</radialGradient>
		<path style="fill:url(#SVGID_00000088109320168109965500000003618135139670796164_);" d="M77.6,224.3c1.5,0.7,3.1,1.4,4.6,2.1
			c-1.2-0.5-2.3-1-3.5-1.5C78.4,224.7,78,224.5,77.6,224.3z"/>
		
			<radialGradient id="SVGID_00000159469252875219391530000007021034717961232793_" cx="88.43" cy="176.13" r="22.5606" gradientTransform="matrix(1 0 0 -1 0 252)" gradientUnits="userSpaceOnUse">
			<stop  offset="0" style="stop-color:#050965"/>
			<stop  offset="0.4" style="stop-color:#0B0445"/>
			<stop  offset="0.77" style="stop-color:#0F012F"/>
			<stop  offset="1" style="stop-color:#100027"/>
		</radialGradient>
		<path style="fill:url(#SVGID_00000159469252875219391530000007021034717961232793_);" d="M70,94c-2.4,0.6-4.6,1.2-6.6,1.7
			c9.4-20.4,28-35.2,50.1-39.6c-1,1.9-2,3.9-2.9,5.9C93.2,66.6,78.6,78.2,70,94z"/>
		
			<radialGradient id="SVGID_00000031193558672383460920000009522432305571565492_" cx="106.67" cy="21.32" r="17.5513" gradientTransform="matrix(1 0 0 -1 0 252)" gradientUnits="userSpaceOnUse">
			<stop  offset="0" style="stop-color:#050965"/>
			<stop  offset="0.4" style="stop-color:#0B0445"/>
			<stop  offset="0.77" style="stop-color:#0F012F"/>
			<stop  offset="1" style="stop-color:#100027"/>
		</radialGradient>
		<path style="fill:url(#SVGID_00000031193558672383460920000009522432305571565492_);" d="M131.1,234.8c-0.4,0-0.9,0.1-1.3,0.1
			c-0.7,0-1.5,0.1-2.2,0.1s-1.7,0-2.6,0c-3.1,0-6.2-0.1-9.3-0.4c-0.6,0-1.2-0.1-1.9-0.2c-2.4-0.2-4.8-0.6-7.2-1
			c-0.7-0.1-1.5-0.2-2.2-0.4s-1.4-0.2-2.1-0.4c-1.8-0.4-3.6-0.8-5.4-1.2c-0.8-0.2-1.6-0.4-2.3-0.7c-2.4-0.7-4.8-1.4-7.2-2.3
			c-0.5-0.2-0.9-0.3-1.3-0.5c-0.4-0.1-0.8-0.2-1.2-0.4c-0.6-0.2-1.2-0.5-1.8-0.8c-0.3-0.1-0.6-0.2-0.8-0.4
			C97.7,232.7,114.4,235.6,131.1,234.8z"/>
		
			<radialGradient id="SVGID_00000013151729583073139020000001707850054133148561_" cx="133.915" cy="17.45" r="2.0035" gradientTransform="matrix(1 0 0 -1 0 252)" gradientUnits="userSpaceOnUse">
			<stop  offset="0" style="stop-color:#050965"/>
			<stop  offset="0.4" style="stop-color:#0B0445"/>
			<stop  offset="0.77" style="stop-color:#0F012F"/>
			<stop  offset="1" style="stop-color:#100027"/>
		</radialGradient>
		<path style="fill:url(#SVGID_00000013151729583073139020000001707850054133148561_);" d="M131.1,234.8c1.9-0.1,3.8-0.2,5.6-0.5
			c-1.1,0.2-2.3,0.2-3.4,0.3C132.6,234.7,131.9,234.8,131.1,234.8z"/>
		
			<radialGradient id="SVGID_00000075160010144142330710000017862852188539299230_" cx="139.295" cy="18.01" r="1.8265" gradientTransform="matrix(1 0 0 -1 0 252)" gradientUnits="userSpaceOnUse">
			<stop  offset="0" style="stop-color:#050965"/>
			<stop  offset="0.4" style="stop-color:#0B0445"/>
			<stop  offset="0.77" style="stop-color:#0F012F"/>
			<stop  offset="1" style="stop-color:#100027"/>
		</radialGradient>
		<path style="fill:url(#SVGID_00000075160010144142330710000017862852188539299230_);" d="M136.7,234.3c1.7-0.2,3.4-0.4,5.1-0.7
			l-1.4,0.2l-3,0.4C137.2,234.3,137,234.3,136.7,234.3z"/>
		
			<radialGradient id="SVGID_00000080195667227916727750000009143113388266264248_" cx="128.68" cy="65.67" r="30.3416" gradientTransform="matrix(1 0 0 -1 0 252)" gradientUnits="userSpaceOnUse">
			<stop  offset="0" style="stop-color:#050965"/>
			<stop  offset="0.4" style="stop-color:#0B0445"/>
			<stop  offset="0.77" style="stop-color:#0F012F"/>
			<stop  offset="1" style="stop-color:#100027"/>
		</radialGradient>
		<path style="fill:url(#SVGID_00000080195667227916727750000009143113388266264248_);" d="M165.9,177.4c1.7,0.9,3.2,1.9,4.7,3
			c-24.5,19.1-58.6,19.9-83.9,1.9c1.2-1.4,2.3-2.6,3.4-3.9C113,194.4,143.5,194,165.9,177.4L165.9,177.4z"/>
		
			<radialGradient id="SVGID_00000175317462001180908580000005208612276096296615_" cx="166.69" cy="180.905" r="16.0377" gradientTransform="matrix(1 0 0 -1 0 252)" gradientUnits="userSpaceOnUse">
			<stop  offset="0" style="stop-color:#050965"/>
			<stop  offset="0.4" style="stop-color:#0B0445"/>
			<stop  offset="0.77" style="stop-color:#0F012F"/>
			<stop  offset="1" style="stop-color:#100027"/>
		</radialGradient>
		<path style="fill:url(#SVGID_00000175317462001180908580000005208612276096296615_);" d="M185,84.5c-2.5-0.2-4.8-0.4-7-0.5
			c-7-8.7-16-15.4-26.3-19.7c-1.2-2.5-2.3-4.7-3.3-6.7C163.2,62.3,176.1,71.8,185,84.5z"/>
		
			<radialGradient id="SVGID_00000058563785520754976460000014918540179780457635_" cx="75.14" cy="224.57" r="1.88" gradientTransform="matrix(1 0 0 -1 0 252)" gradientUnits="userSpaceOnUse">
			<stop  offset="0" style="stop-color:#050965"/>
			<stop  offset="0.4" style="stop-color:#0B0445"/>
			<stop  offset="0.77" style="stop-color:#0F012F"/>
			<stop  offset="1" style="stop-color:#100027"/>
		</radialGradient>
		<path style="fill:url(#SVGID_00000058563785520754976460000014918540179780457635_);" d="M72.8,28.6c1.6-0.8,3.1-1.6,4.7-2.4
			C75.9,27,74.3,27.8,72.8,28.6z"/>
		
			<radialGradient id="SVGID_00000147196465363216911370000006780911194966632069_" cx="130.865" cy="227.92" r="38.1786" gradientTransform="matrix(1 0 0 -1 0 252)" gradientUnits="userSpaceOnUse">
			<stop  offset="0" style="stop-color:#050965"/>
			<stop  offset="0.4" style="stop-color:#0B0445"/>
			<stop  offset="0.77" style="stop-color:#0F012F"/>
			<stop  offset="1" style="stop-color:#100027"/>
		</radialGradient>
		<path style="fill:url(#SVGID_00000147196465363216911370000006780911194966632069_);" d="M77.5,26.2c14.8-7.2,31-10.9,47.5-10.9
			c1.1,0,2.2,0,3.2,0c0.7,0,1.4,0,2.1,0.1c1.7,0.1,3.5,0.2,5.2,0.4c0.9,0.1,1.7,0.2,2.6,0.2l2.6,0.4c1.6,0.2,3.1,0.5,4.6,0.7
			c0.6,0.1,1.3,0.3,2,0.4c1.3,0.3,2.6,0.6,3.9,0.9l2,0.5c1.4,0.4,2.8,0.8,4.3,1.2c0.7,0.2,1.5,0.5,2.2,0.8c0.5,0.2,1.1,0.3,1.6,0.5
			s1,0.4,1.5,0.6c0.2,0,0.3,0.1,0.5,0.2c0.7,0.2,1.4,0.5,2.1,0.8s1.5,0.6,2.2,0.9c0.5,0.2,1,0.4,1.4,0.6c0.7,0.3,1.4,0.6,2.1,1
			c0.9,0.5,1.9,0.9,2.8,1.4c0.4,0.2,0.9,0.5,1.4,0.7c1.7,0.8,3.3,1.7,4.9,2.6c0.5,0.4,1.1,0.7,1.7,1c0.8,0.5,1.6,1,2.3,1.5
			c-10.1-6.4-21.2-11.2-32.8-14.1C126.7,12.5,100.5,15.2,77.5,26.2z"/>
		
			<radialGradient id="SVGID_00000005980470061971801820000012558210310995685052_" cx="190.01" cy="215.08" r="1.64" gradientTransform="matrix(1 0 0 -1 0 252)" gradientUnits="userSpaceOnUse">
			<stop  offset="0" style="stop-color:#050965"/>
			<stop  offset="0.4" style="stop-color:#0B0445"/>
			<stop  offset="0.77" style="stop-color:#0F012F"/>
			<stop  offset="1" style="stop-color:#100027"/>
		</radialGradient>
		<path style="fill:url(#SVGID_00000005980470061971801820000012558210310995685052_);" d="M191.9,38.3c-1.2-1-2.4-1.9-3.7-2.8
			c0.8,0.6,1.7,1.2,2.5,1.8L191.9,38.3z"/>
		
			<radialGradient id="SVGID_00000114072807841972423380000003497346295859013054_" cx="193.03" cy="115.5" r="17.39" gradientTransform="matrix(1 0 0 -1 0 252)" gradientUnits="userSpaceOnUse">
			<stop  offset="0" style="stop-color:#050965"/>
			<stop  offset="0.4" style="stop-color:#0B0445"/>
			<stop  offset="0.77" style="stop-color:#0F012F"/>
			<stop  offset="1" style="stop-color:#100027"/>
		</radialGradient>
		<path style="fill:url(#SVGID_00000114072807841972423380000003497346295859013054_);" d="M192.8,150.9c-1.3,3.2-2.8,6.2-4.5,9.2
			c-0.8-2.3-1.4-4.6-2.2-6.9c0.2-0.4,0.4-0.9,0.6-1.3l0.3-0.6l3,0.9l0.8-1.9c0.7-1.9,1.4-3.9,2.1-6c0.3-1.2,0.7-2.4,0.9-3.6l0.5-2.1
			l-3-0.9l0.2-0.7c1.2-6.6,1.4-13.4,0.5-20c1.4-1.3,3-2.6,4.7-4c1.6,9.4,1.3,18.9-0.9,28.2l-0.5,2.1l4.6,1.4
			c-0.2,0.5-0.4,1.5-0.5,1.7c-0.3,1.2-0.7,2.3-1.1,3.4l-0.2,0.7l-4.5-1.4L192.8,150.9z"/>
		
			<radialGradient id="SVGID_00000036969888386974942080000016787377075889876884_" cx="129.88" cy="132.97" r="72.5159" gradientTransform="matrix(1 0 0 -1 0 252)" gradientUnits="userSpaceOnUse">
			<stop  offset="0" style="stop-color:#050965"/>
			<stop  offset="0.4" style="stop-color:#0B0445"/>
			<stop  offset="0.77" style="stop-color:#0F012F"/>
			<stop  offset="1" style="stop-color:#100027"/>
		</radialGradient>
		<path style="fill:url(#SVGID_00000036969888386974942080000016787377075889876884_);" d="M183.2,179.9c0.2,0.9,0.4,2.6,0.9,3.4
			c-0.9-1.1-15.1-14.2-58.1-32.6c7.5-14.7,23.1-25.8,24.2-26.7c-2.3,0.8-43.4,16.6-77.2,67.2L73,191c5.8-25.4,9.6-37.5,19.2-61.6
			C84.8,119.8,69.1,112,57,106c0,0,21.5-4.8,48.3-8.9c6.9-15.8,14.9-32.8,24.4-50.2c7.3,11.5,14.3,25.4,20.7,40c0,0-0.1,0-0.1,0
			c-1.2,0.5-20.3,8.3-34.3,24.6c9.9-8.5,22.6-13.4,35.3-16c14.9-3,29.5-1.5,44.2,0.9c1.2,0.2,6.3,1.9,7.2,1.3
			c-15.9,10.1-28.3,20.8-35.7,31.9c1.9,5.5,4.5,13.1,6.3,18.7c2.4,7.2,4.7,14.6,6.9,21.8C181.3,173.4,182.2,176.6,183.2,179.9z"/>
		
			<radialGradient id="SVGID_00000060014736885034434820000007711668449351424137_" cx="207.68" cy="198.82" r="0.45" gradientTransform="matrix(1 0 0 -1 0 252)" gradientUnits="userSpaceOnUse">
			<stop  offset="0" style="stop-color:#050965"/>
			<stop  offset="0.4" style="stop-color:#0B0445"/>
			<stop  offset="0.77" style="stop-color:#0F012F"/>
			<stop  offset="1" style="stop-color:#100027"/>
		</radialGradient>
		<path style="fill:url(#SVGID_00000060014736885034434820000007711668449351424137_);" d="M208.1,53.7c-0.2-0.3-0.5-0.6-0.8-1
			c0.2,0.2,0.4,0.5,0.7,0.8C208,53.5,208.1,53.6,208.1,53.7z"/>
		
			<radialGradient id="SVGID_00000106146847072837110370000006587177221025778879_" cx="211.38" cy="194.31" r="1.35" gradientTransform="matrix(1 0 0 -1 0 252)" gradientUnits="userSpaceOnUse">
			<stop  offset="0" style="stop-color:#050965"/>
			<stop  offset="0.4" style="stop-color:#0B0445"/>
			<stop  offset="0.77" style="stop-color:#0F012F"/>
			<stop  offset="1" style="stop-color:#100027"/>
		</radialGradient>
		<path style="fill:url(#SVGID_00000106146847072837110370000006587177221025778879_);" d="M212.6,59.2c-0.7-1-1.6-2-2.4-3
			c0.3,0.4,0.6,0.8,1,1.2C211.6,58,212.1,58.6,212.6,59.2z"/>
		
			<radialGradient id="SVGID_00000093865426609566414310000014564057237236640427_" cx="215.97" cy="188.04" r="1.1709" gradientTransform="matrix(1 0 0 -1 0 252)" gradientUnits="userSpaceOnUse">
			<stop  offset="0" style="stop-color:#050965"/>
			<stop  offset="0.4" style="stop-color:#0B0445"/>
			<stop  offset="0.77" style="stop-color:#0F012F"/>
			<stop  offset="1" style="stop-color:#100027"/>
		</radialGradient>
		<path style="fill:url(#SVGID_00000093865426609566414310000014564057237236640427_);" d="M216.9,65.3l-1.9-2.7
			c0.2,0.2,0.3,0.5,0.5,0.7C216,64,216.4,64.6,216.9,65.3z"/>
		
			<radialGradient id="SVGID_00000106115336156086068940000002689409240213052819_" cx="218.46" cy="184.19" r="1.41" gradientTransform="matrix(1 0 0 -1 0 252)" gradientUnits="userSpaceOnUse">
			<stop  offset="0" style="stop-color:#050965"/>
			<stop  offset="0.4" style="stop-color:#0B0445"/>
			<stop  offset="0.77" style="stop-color:#0F012F"/>
			<stop  offset="1" style="stop-color:#100027"/>
		</radialGradient>
		<path style="fill:url(#SVGID_00000106115336156086068940000002689409240213052819_);" d="M219.5,69.5c-0.7-1.2-1.4-2.3-2.1-3.4
			c0.3,0.4,0.6,0.8,0.8,1.3C218.6,68.1,219.1,68.8,219.5,69.5z"/>
		
			<radialGradient id="SVGID_00000023976087483305483340000001820935990882065543_" cx="220.63" cy="180.51" r="1.4787" gradientTransform="matrix(1 0 0 -1 0 252)" gradientUnits="userSpaceOnUse">
			<stop  offset="0" style="stop-color:#050965"/>
			<stop  offset="0.4" style="stop-color:#0B0445"/>
			<stop  offset="0.77" style="stop-color:#0F012F"/>
			<stop  offset="1" style="stop-color:#100027"/>
		</radialGradient>
		<path style="fill:url(#SVGID_00000023976087483305483340000001820935990882065543_);" d="M221.7,73.3c-0.7-1.2-1.4-2.4-2.1-3.6
			c0.4,0.6,0.8,1.3,1.2,1.9S221.4,72.7,221.7,73.3z"/>
		
			<radialGradient id="SVGID_00000097470914304659141660000004715646515543996299_" cx="211.31" cy="69.315" r="25.4823" gradientTransform="matrix(1 0 0 -1 0 252)" gradientUnits="userSpaceOnUse">
			<stop  offset="0" style="stop-color:#050965"/>
			<stop  offset="0.4" style="stop-color:#0B0445"/>
			<stop  offset="0.77" style="stop-color:#0F012F"/>
			<stop  offset="1" style="stop-color:#100027"/>
		</radialGradient>
		<path style="fill:url(#SVGID_00000097470914304659141660000004715646515543996299_);" d="M231.3,152.7c0,0.1,0,0.2,0,0.3
			c-0.2,0.9-0.5,1.8-0.7,2.7c-0.5,1.9-1.2,3.8-1.8,5.6c-0.3,0.8-0.6,1.7-0.9,2.5s-0.7,1.8-1,2.6s-0.6,1.5-0.9,2.2
			c-0.1,0.3-0.2,0.5-0.3,0.8c-0.3,0.7-0.6,1.4-1,2.2l0,0c-0.4,0.8-0.8,1.7-1.2,2.5c-0.9,1.7-1.7,3.4-2.6,5s-1.9,3.3-2.9,4.8
			c-0.5,0.7-0.9,1.4-1.4,2.1s-1.1,1.6-1.7,2.5c-1.6,2.3-3.4,4.5-5.1,6.7s-3.7,4.2-5.6,6.2c-0.8,0.9-1.6,1.7-2.5,2.5
			c-1.7,1.6-3.4,3.1-5.1,4.7c-0.9,0.8-1.8,1.5-2.7,2.2c-0.8,0.6-1.5,1.2-2.2,1.7C210.9,197.6,224.9,176.5,231.3,152.7z"/>
		
			<radialGradient id="SVGID_00000154417389376827819070000003269469003503409340_" cx="231.67" cy="152.71" r="1.77" gradientTransform="matrix(1 0 0 -1 0 252)" gradientUnits="userSpaceOnUse">
			<stop  offset="0" style="stop-color:#050965"/>
			<stop  offset="0.4" style="stop-color:#0B0445"/>
			<stop  offset="0.77" style="stop-color:#0F012F"/>
			<stop  offset="1" style="stop-color:#100027"/>
		</radialGradient>
		<path style="fill:url(#SVGID_00000154417389376827819070000003269469003503409340_);" d="M232,100.7c0.1,0.4,0.2,0.8,0.2,1.1
			c-0.3-1.7-0.7-3.3-1.2-4.9C231.4,98.1,231.7,99.4,232,100.7z"/>
		
			<radialGradient id="SVGID_00000098932685056821585850000010007121362354844802_" cx="233.97" cy="140.32" r="0.1" gradientTransform="matrix(1 0 0 -1 0 252)" gradientUnits="userSpaceOnUse">
			<stop  offset="0" style="stop-color:#050965"/>
			<stop  offset="0.4" style="stop-color:#0B0445"/>
			<stop  offset="0.77" style="stop-color:#0F012F"/>
			<stop  offset="1" style="stop-color:#100027"/>
		</radialGradient>
		<path style="fill:url(#SVGID_00000098932685056821585850000010007121362354844802_);" d="M234,111.8L234,111.8v-0.3
			C234,111.6,234,111.7,234,111.8z"/>
		
			<radialGradient id="SVGID_00000087381019579478544860000007938582387159773076_" cx="198.64" cy="45.71" r="4.93" gradientTransform="matrix(1 0 0 -1 0 252)" gradientUnits="userSpaceOnUse">
			<stop  offset="0" style="stop-color:#050965"/>
			<stop  offset="0.4" style="stop-color:#0B0445"/>
			<stop  offset="0.77" style="stop-color:#0F012F"/>
			<stop  offset="1" style="stop-color:#100027"/>
		</radialGradient>
		<path style="fill:url(#SVGID_00000087381019579478544860000007938582387159773076_);" d="M193.5,211c3.6-2.9,7.1-6,10.3-9.4
			C200.6,205,197.1,208.1,193.5,211z"/>
		
			<radialGradient id="SVGID_00000176040166602837896020000012864233305661647802_" cx="209.17" cy="56.82" r="5.9238" gradientTransform="matrix(1 0 0 -1 0 252)" gradientUnits="userSpaceOnUse">
			<stop  offset="0" style="stop-color:#050965"/>
			<stop  offset="0.4" style="stop-color:#0B0445"/>
			<stop  offset="0.77" style="stop-color:#0F012F"/>
			<stop  offset="1" style="stop-color:#100027"/>
		</radialGradient>
		<path style="fill:url(#SVGID_00000176040166602837896020000012864233305661647802_);" d="M203.8,201.6c3.9-4,7.5-8.3,10.7-12.9
			C211.3,193.3,207.7,197.6,203.8,201.6z"/>
		
			<radialGradient id="SVGID_00000008122396675839501820000006924490621000808367_" cx="221.9" cy="75.22" r="2" gradientTransform="matrix(1 0 0 -1 0 252)" gradientUnits="userSpaceOnUse">
			<stop  offset="0" style="stop-color:#050965"/>
			<stop  offset="0.4" style="stop-color:#0B0445"/>
			<stop  offset="0.77" style="stop-color:#0F012F"/>
			<stop  offset="1" style="stop-color:#100027"/>
		</radialGradient>
		<path style="fill:url(#SVGID_00000008122396675839501820000006924490621000808367_);" d="M220.6,179.3c0.9-1.6,1.8-3.3,2.7-5
			C222.4,176,221.5,177.6,220.6,179.3z"/>
		
			<radialGradient id="SVGID_00000153669412251015054500000003842048878018702761_" cx="223.03" cy="176.02" r="1.75" gradientTransform="matrix(1 0 0 -1 0 252)" gradientUnits="userSpaceOnUse">
			<stop  offset="0" style="stop-color:#050965"/>
			<stop  offset="0.4" style="stop-color:#0B0445"/>
			<stop  offset="0.77" style="stop-color:#0F012F"/>
			<stop  offset="1" style="stop-color:#100027"/>
		</radialGradient>
		<path style="fill:url(#SVGID_00000153669412251015054500000003842048878018702761_);" d="M224.1,78.2c-0.6-1.3-1.2-2.6-1.9-3.8
			c-0.1-0.2-0.2-0.4-0.3-0.6c0.4,0.8,0.8,1.4,1.2,2.2S223.8,77.4,224.1,78.2z"/>
		
			<radialGradient id="SVGID_00000007410176141092789300000006289672454134903481_" cx="228.43" cy="163.465" r="2.2133" gradientTransform="matrix(1 0 0 -1 0 252)" gradientUnits="userSpaceOnUse">
			<stop  offset="0" style="stop-color:#050965"/>
			<stop  offset="0.4" style="stop-color:#0B0445"/>
			<stop  offset="0.77" style="stop-color:#0F012F"/>
			<stop  offset="1" style="stop-color:#100027"/>
		</radialGradient>
		<path style="fill:url(#SVGID_00000007410176141092789300000006289672454134903481_);" d="M229.5,91.5c-0.2-0.6-0.4-1.2-0.6-1.8
			c-0.4-1.2-0.8-2.4-1.3-3.5c-0.1-0.2-0.1-0.4-0.2-0.6c0.1,0.2,0.2,0.4,0.2,0.6c0.4,1,0.7,2,1.1,3.1c0,0.2,0.1,0.3,0.2,0.4
			C229.1,90.3,229.3,90.8,229.5,91.5z"/>
		
			<radialGradient id="SVGID_00000162350522056434839020000005721022090225355959_" cx="226.6625" cy="139.08" r="5.3883" gradientTransform="matrix(1 0 0 -1 0 252)" gradientUnits="userSpaceOnUse">
			<stop  offset="0" style="stop-color:#050965"/>
			<stop  offset="0.4" style="stop-color:#0B0445"/>
			<stop  offset="0.77" style="stop-color:#0F012F"/>
			<stop  offset="1" style="stop-color:#100027"/>
		</radialGradient>
		<path style="fill:url(#SVGID_00000162350522056434839020000005721022090225355959_);" d="M234.2,114h-15.1c0-0.2,0-0.5,0-0.7
			c0.1-0.5,0.2-1,0.4-1.5H234C234.1,112.5,234.2,113.3,234.2,114z"/>
		
			<radialGradient id="SVGID_00000047741429924860556170000005865719390337602743_" cx="233.97" cy="140.32" r="0.1" gradientTransform="matrix(1 0 0 -1 0 252)" gradientUnits="userSpaceOnUse">
			<stop  offset="0" style="stop-color:#050965"/>
			<stop  offset="0.4" style="stop-color:#0B0445"/>
			<stop  offset="0.77" style="stop-color:#0F012F"/>
			<stop  offset="1" style="stop-color:#100027"/>
		</radialGradient>
		<path style="fill:url(#SVGID_00000047741429924860556170000005865719390337602743_);" d="M234,111.8L234,111.8v-0.3
			C234,111.6,234,111.7,234,111.8z"/>
		
			<linearGradient id="SVGID_00000008142736982677453050000012548106049587849881_" gradientUnits="userSpaceOnUse" x1="57.0108" y1="126.361" x2="199.95" y2="126.361" gradientTransform="matrix(1 0 0 -1 0 252)">
			<stop  offset="0" style="stop-color:#0C75FF"/>
			<stop  offset="0.15" style="stop-color:#05B0FF"/>
			<stop  offset="0.38" style="stop-color:#0C75FF"/>
			<stop  offset="0.6" style="stop-color:#05B0FF"/>
			<stop  offset="0.79" style="stop-color:#0C75FF"/>
			<stop  offset="1" style="stop-color:#05B0FF"/>
		</linearGradient>
		<path style="fill:url(#SVGID_00000008142736982677453050000012548106049587849881_);" d="M148.4,57.7c1,2,2.1,4.1,3.3,6.7
			C162,68.6,171,75.3,178,84c2.2,0.1,4.6,0.2,7,0.5C176.1,71.7,163.2,62.3,148.4,57.7z M63.4,95.7c2-0.5,4.2-1.1,6.6-1.7
			c8.6-15.8,23.2-27.3,40.6-32c0.9-2,1.9-3.9,2.9-5.9C91.4,60.6,72.8,75.3,63.4,95.7L63.4,95.7z M195.4,143.2l0.5-2.1
			c2.2-9.2,2.5-18.8,0.9-28.2c-1.7,1.4-3.3,2.7-4.7,4c0.9,6.7,0.7,13.5-0.6,20.1l-0.2,0.7l3,0.9l-0.5,2.1c-0.3,1.2-0.6,2.4-0.9,3.6
			c-0.6,2.1-1.3,4.1-2.1,6l-0.7,2l-3-0.9l-0.3,0.6c-0.2,0.4-0.4,0.9-0.6,1.3c0.7,2.3,1.4,4.6,2.2,6.9c1.7-2.9,3.2-6,4.5-9.2l0.7-1.9
			l4.6,1.4l0.2-0.7c0.4-1.2,0.8-2.3,1.1-3.4c0.1-0.2,0.3-1.2,0.5-1.7L195.4,143.2z M62.6,117c-1.4-0.8-3.1-1.6-4.9-2.5
			c-2.3,16.1,0.9,32.5,9.2,46.4c0.7,1.2,1.4,2.3,2.2,3.4c0.6-2,1.2-4.1,2-6.4C63.8,145.6,60.8,131.2,62.6,117z M165.9,177.4
			c-22.4,16.5-52.9,16.9-75.8,1c-1.2,1.2-2.3,2.5-3.4,3.9c25.4,17.9,59.4,17.1,83.9-1.9C169.2,179.3,167.6,178.4,165.9,177.4z"/>
		
			<linearGradient id="SVGID_00000112629217388425865940000015825462848526804125_" gradientUnits="userSpaceOnUse" x1="129.88" y1="205.12" x2="129.88" y2="60.82" gradientTransform="matrix(1 0 0 -1 0 252)">
			<stop  offset="0" style="stop-color:#FFFFFF"/>
			<stop  offset="0.17" style="stop-color:#CBE9FE"/>
			<stop  offset="0.39" style="stop-color:#8CCFFD"/>
			<stop  offset="0.59" style="stop-color:#5ABAFC"/>
			<stop  offset="0.77" style="stop-color:#36ABFC"/>
			<stop  offset="0.91" style="stop-color:#20A1FB"/>
			<stop  offset="1" style="stop-color:#189EFB"/>
		</linearGradient>
		<path style="fill:url(#SVGID_00000112629217388425865940000015825462848526804125_);" d="M183.2,179.9c0.2,0.9,0.4,2.6,0.9,3.4
			c-0.9-1.1-15.1-14.2-58.1-32.6c7.5-14.7,23.1-25.8,24.2-26.7c-2.3,0.8-43.4,16.6-77.2,67.2L73,191c5.8-25.4,9.6-37.5,19.2-61.6
			C84.8,119.8,69.1,112,57,106c0,0,21.5-4.8,48.3-8.9c6.9-15.8,14.9-32.8,24.4-50.2c7.3,11.5,14.3,25.4,20.7,40c0,0-0.1,0-0.1,0
			c-1.2,0.5-20.3,8.3-34.3,24.6c9.9-8.5,22.6-13.4,35.3-16c14.9-3,29.5-1.5,44.2,0.9c1.2,0.2,6.3,1.9,7.2,1.3
			c-15.9,10.1-28.3,20.8-35.7,31.9c1.9,5.5,4.5,13.1,6.3,18.7c2.4,7.2,4.7,14.6,6.9,21.8C181.3,173.4,182.2,176.6,183.2,179.9z"/>
		
			<linearGradient id="SVGID_00000165935127911497760920000012933327050507742087_" gradientUnits="userSpaceOnUse" x1="0" y1="126.8308" x2="258.45" y2="126.8308" gradientTransform="matrix(1 0 0 -1 0 252)">
			<stop  offset="0" style="stop-color:#0C75FF"/>
			<stop  offset="0.15" style="stop-color:#05B0FF"/>
			<stop  offset="0.38" style="stop-color:#0C75FF"/>
			<stop  offset="0.6" style="stop-color:#05B0FF"/>
			<stop  offset="0.79" style="stop-color:#0C75FF"/>
			<stop  offset="1" style="stop-color:#05B0FF"/>
		</linearGradient>
		<path style="fill:url(#SVGID_00000165935127911497760920000012933327050507742087_);" d="M45.1,200.7c0.8,0.8,1.6,1.6,2.4,2.4l0,0
			C46.7,202.3,45.9,201.5,45.1,200.7z M258.4,121l-0.1-2.2H250v-0.7C246.3,51.8,191.4,0,125,0C59.9,0,5.1,50.8,0.2,115.6L0,118.1
			h5.3v0.8c-0.1,2-0.2,4-0.2,6.2c0,3.5,0.2,7,0.5,10.5l0.1,0.8H0.3l0.3,2.5c2.6,23.5,11.8,45.7,26.6,64.1h-8.4
			c2.1,2.7,4.4,5.4,6.8,7.9H34c2,2.1,4,4.2,6.2,6.2c47.8,44.2,121.6,44.2,169.5,0c2.9-2.7,5.7-5.5,8.4-8.4h-5.7
			c2.1-1.8,3.8-3.8,5.2-6.2h5.7c15-19,24.2-42,26.4-66.1v-0.7h8.4l0.2-2.1c0.2-2.8,0.3-5.7,0.3-8.5
			C258.4,123.8,258.4,122.4,258.4,121z M239.6,135.8v0.7h-5.3l-0.2,2c-0.1,0.9-0.2,1.7-0.3,2.6c0,0.4-0.1,0.8-0.2,1.2
			c-0.2,1.4-0.4,2.8-0.7,4.1c-0.4,2.1-0.9,4.2-1.4,6.2c-6.4,23.9-20.4,45-40.1,60c-0.7,0.6-1.5,1.1-2.2,1.7c-0.9,0.7-1.9,1.4-2.8,2
			c-0.1,0.1-0.2,0.1-0.3,0.2c-5.3,3.6-10.8,6.7-16.6,9.3c-7.6,3.4-15.6,5.8-23.8,7.2c-0.7,0.2-1.5,0.3-2.2,0.4
			c-0.4,0.1-0.7,0.2-1.1,0.2c-0.1,0-0.2,0-0.3,0c-1.7,0.3-3.4,0.5-5.1,0.7s-3.7,0.3-5.6,0.5c-16.7,0.8-33.4-2-48.9-8.4
			c-1.6-0.7-3.1-1.4-4.6-2.1c-0.4-0.2-0.7-0.4-1.1-0.5c-0.1-0.1-0.3-0.1-0.4-0.2c-3.1-1.5-6.1-3.2-9.1-5c-1.5-1-3-1.9-4.5-2.9
			s-2.9-2.1-4.4-3.2c-0.6-0.5-1.2-0.9-1.8-1.4H43.5c-3.1-2.2-5.9-4.8-8.1-7.9h12.2c-0.8-0.8-1.6-1.6-2.4-2.4c-1-1.1-2-2.2-3-3.4
			c-0.8-1-1.7-2-2.5-3c-0.2-0.3-0.5-0.5-0.7-0.8c-0.7-0.9-1.4-1.8-2.1-2.7c-0.5-0.7-1-1.4-1.5-2.1c-1.3-1.9-2.6-3.9-3.9-5.8
			c-0.7-1.3-1.5-2.6-2.2-3.9c-5.8-10.4-10-21.8-12.3-33.5c-0.6-2.9-1-5.9-1.3-8.9l-0.1-0.8h8.3l-0.2-2.4c-0.2-2.8-0.3-5.6-0.3-8.2
			c0-1.3,0-2.7,0-4l0.1-2.3h-8.2l0.1-0.8c0.1-1.9,0.3-3.9,0.6-5.8c2.6-21.1,11.3-41,24.8-57.5c1.1-1.2,2.2-2.5,3.3-3.7l1.3-1.4
			c0.8-0.8,1.6-1.7,2.4-2.5c0.4-0.4,0.8-0.8,1.2-1.2c1.3-1.2,2.6-2.4,3.9-3.6s3-2.5,4.5-3.7c1.2-1,2.4-1.9,3.7-2.7
			c0.7-0.5,1.4-1,2.2-1.5c0.8-0.6,1.6-1.1,2.4-1.6c1.1-0.8,2.3-1.4,3.3-2.1s2.4-1.4,3.7-2.1c1.6-0.9,3.1-1.6,4.7-2.4
			c23-11,49.1-13.6,73.9-7.4c11.6,2.9,22.7,7.6,32.8,14.1c1.4,0.9,2.7,1.8,4,2.7s2.5,1.8,3.7,2.8c0.1,0,0.1,0.1,0.2,0.1
			c1,0.8,2.1,1.6,3.1,2.4s2,1.7,2.9,2.6c0.2,0.1,0.3,0.2,0.4,0.4c0.4,0.3,0.7,0.6,1,1c2,1.8,3.9,3.7,5.6,5.6
			c0.7,0.8,1.4,1.5,2.1,2.3c0.3,0.3,0.6,0.6,0.8,1c0.7,0.8,1.4,1.7,2.1,2.5s1.6,2,2.4,3s1.7,2.3,2.5,3.4l1.9,2.7
			c0.1,0.2,0.3,0.5,0.5,0.8c0.7,1.1,1.4,2.2,2.1,3.4c0,0.1,0,0.1,0.1,0.2c0.7,1.2,1.4,2.4,2.1,3.6c0.1,0.2,0.2,0.3,0.2,0.4
			c0.1,0.2,0.2,0.4,0.3,0.6c0.3,0.5,0.6,1,0.9,1.6c0.4,0.7,0.7,1.5,1.1,2.2c0.9,1.8,1.7,3.7,2.5,5.5c0.2,0.6,0.5,1.2,0.7,1.9
			c0.1,0.2,0.2,0.4,0.2,0.6l0,0c0.4,1,0.7,2,1.1,3.1c0,0.1,0.1,0.3,0.1,0.4l0,0c0.2,0.6,0.4,1.2,0.6,1.8c0.6,1.8,1.1,3.6,1.6,5.4
			c0.4,1.6,0.8,3.2,1.2,4.9c0.1,0.3,0.2,0.7,0.2,1c0,0.2,0.1,0.5,0.2,0.8s0.1,0.7,0.2,1c0.2,1,0.4,2,0.5,3c0,0.3,0.1,0.7,0.2,1
			c0.1,1,0.3,2,0.4,2.9v0.3h-14.4c-0.2,0.5-0.3,1-0.4,1.5c0,0.2,0,0.5,0,0.7h15.1l0.1,1c0,0.3,0.1,0.7,0.1,1l0.2,2.1h5.3v0.8
			c0.1,2.2,0.1,4.3,0.1,6.3C240.1,128.7,240,132.3,239.6,135.8L239.6,135.8z"/>
		
			<radialGradient id="SVGID_00000014627672793955750550000009141647339857517723_" cx="127.6937" cy="126.8092" r="111.0298" gradientTransform="matrix(1 0 0 -1 0 252)" gradientUnits="userSpaceOnUse">
			<stop  offset="0" style="stop-color:#050965"/>
			<stop  offset="0.4" style="stop-color:#0B0445"/>
			<stop  offset="0.77" style="stop-color:#0F012F"/>
			<stop  offset="1" style="stop-color:#100027"/>
		</radialGradient>
		<path style="fill:url(#SVGID_00000014627672793955750550000009141647339857517723_);" d="M240,118.8v-0.8h-5.3l-0.2-2.1
			c0-0.3-0.1-0.7-0.1-1l-0.1-1h-15.1c0-0.2,0-0.5,0-0.7c0.1-0.5,0.2-1,0.4-1.5H234v-0.3c-0.1-1-0.3-1.9-0.4-2.9
			c-0.1-0.3-0.1-0.7-0.2-1c-0.2-1-0.3-2-0.5-3c-0.1-0.3-0.1-0.7-0.2-1s-0.1-0.5-0.2-0.8c-0.1-0.3-0.2-0.7-0.2-1
			c-0.1-0.3-0.2-0.7-0.2-1.1c-0.3-1.3-0.6-2.6-0.9-3.8c-0.5-1.8-1-3.6-1.6-5.4c-0.2-0.6-0.4-1.2-0.6-1.8c-0.4-1.2-0.8-2.4-1.3-3.5
			c-0.1-0.2-0.1-0.4-0.2-0.6c-0.2-0.6-0.5-1.2-0.7-1.9c-0.8-1.9-1.6-3.7-2.5-5.5c-0.6-1.3-1.2-2.6-1.9-3.8c-0.1-0.2-0.2-0.4-0.3-0.6
			c-0.1-0.1-0.2-0.3-0.2-0.4c-0.7-1.2-1.4-2.4-2.1-3.6c0,0-0.1-0.1-0.1-0.2c-0.7-1.2-1.4-2.3-2.1-3.4c-0.2-0.3-0.4-0.5-0.5-0.8
			l-1.9-2.8c-0.8-1.1-1.6-2.3-2.5-3.4s-1.6-2-2.4-3s-1.4-1.7-2.1-2.5c-0.2-0.3-0.5-0.6-0.8-1c-0.7-0.8-1.4-1.5-2.1-2.3
			c-1.8-1.9-3.6-3.8-5.6-5.6l-1.5-1.4c-1-0.9-1.9-1.7-2.9-2.6s-2-1.7-3.1-2.4c0,0-0.1-0.1-0.2-0.1c-1.2-1-2.4-1.9-3.7-2.8
			s-2.6-1.8-4-2.7C174,26.4,163,21.7,151.3,18.8c-26.5-6.6-54.5-3.1-78.6,9.9c-1.2,0.7-2.5,1.4-3.7,2.1s-2.2,1.3-3.3,2.1
			c-0.8,0.5-1.7,1-2.4,1.6c-0.7,0.5-1.5,1-2.2,1.5c-1.2,0.9-2.5,1.8-3.7,2.7c-1.5,1.2-3.1,2.4-4.5,3.7s-2.6,2.4-3.9,3.6
			c-0.4,0.4-0.8,0.8-1.2,1.2c-0.8,0.8-1.6,1.7-2.4,2.5L44.1,51c-1.1,1.2-2.2,2.5-3.3,3.7C27.2,71.1,18.6,91.1,16,112.2
			c-0.2,1.9-0.5,3.9-0.6,5.8l-0.1,0.8h8.3l-0.1,2.3c0,1.3,0,2.7,0,4c0,2.6,0.1,5.4,0.3,8.2l0.2,2.4h-8.3l0.1,0.8
			c0.3,3,0.8,6,1.3,8.9c2.3,11.8,6.4,23.1,12.2,33.6c0.7,1.3,1.5,2.6,2.2,3.9c1.2,2,2.5,3.9,3.8,5.8c0.5,0.7,1,1.4,1.5,2.1
			c0.7,0.9,1.4,1.8,2.1,2.7c0.2,0.3,0.4,0.5,0.7,0.8c0.8,1,1.7,2,2.5,3c1,1.1,2,2.3,3,3.4c0.8,0.8,1.6,1.6,2.4,2.4H35.3
			c2.3,3,5,5.7,8.1,7.8h12.8c0.6,0.5,1.2,0.9,1.8,1.4c1.4,1.1,2.9,2.1,4.4,3.2c1.5,1,3,2,4.5,2.9c2.9,1.8,6,3.5,9.1,5
			c0.1,0.1,0.3,0.1,0.4,0.2c0.4,0.2,0.8,0.4,1.1,0.5c1.5,0.7,3.1,1.4,4.6,2.1c15.5,6.4,32.2,9.2,48.9,8.4c1.9-0.1,3.8-0.2,5.6-0.5
			s3.4-0.4,5.1-0.7c0.1,0,0.2,0,0.3,0c0.4,0,0.8-0.1,1.1-0.2c0.8-0.1,1.5-0.2,2.2-0.4c1.4-0.2,2.7-0.5,4.1-0.9l1.6-0.4
			c0.6-0.1,1.1-0.3,1.6-0.4s1.4-0.4,2.2-0.6s1.6-0.4,2.4-0.7l2.4-0.7c1.1-0.4,2.2-0.8,3.4-1.2l1.7-0.6c2.3-0.9,4.5-1.9,6.7-2.9
			c0.7-0.3,1.3-0.6,2-0.9c3.7-1.8,7.2-3.8,10.7-6l1.7-1.1c0.1-0.1,0.2-0.1,0.3-0.2l2.8-2c0.8-0.5,1.5-1.1,2.2-1.7
			c19.6-15,33.7-36.1,40.1-60c0.5-2.1,1-4.1,1.4-6.2c0.2-0.7,0.3-1.4,0.4-2.1s0.2-1.4,0.3-2c0.1-0.4,0.2-0.8,0.2-1.2
			c0.1-0.8,0.2-1.7,0.3-2.6l0.2-2h5.3v-0.7c0.3-3.5,0.4-7.1,0.4-10.7C240.1,123.1,240,121,240,118.8z M185,84.5
			c-2.5-0.2-4.8-0.4-7-0.5c-7-8.7-16-15.4-26.3-19.7c-1.2-2.5-2.3-4.7-3.3-6.7C163.2,62.3,176.1,71.8,185,84.5z M113.4,56.1
			c-1,1.9-2,3.9-2.9,5.9C93.2,66.6,78.5,78.2,70,94c-2.4,0.6-4.6,1.2-6.6,1.7C72.8,75.3,91.4,60.5,113.4,56.1z M69.1,164.3
			c-0.7-1.1-1.4-2.2-2.2-3.4c-8.3-14-11.6-30.3-9.2-46.4c1.8,0.9,3.4,1.7,4.9,2.5c-1.8,14.2,1.2,28.7,8.5,41
			C70.4,160.2,69.7,162.3,69.1,164.3z M158.4,188c-23.1,11.3-50.6,9.2-71.7-5.7c1.2-1.4,2.3-2.6,3.4-3.9c22.9,15.9,53.3,15.5,75.8-1
			c1.7,0.9,3.2,1.9,4.7,3C166.8,183.3,162.7,185.9,158.4,188z M199.4,146.2c-0.3,1.2-0.7,2.3-1.1,3.4l-0.2,0.7l-4.6-1.3l-0.7,1.9
			c-1.3,3.2-2.8,6.2-4.5,9.2c-0.8-2.3-1.4-4.6-2.2-6.9c0.2-0.4,0.4-0.9,0.6-1.3l0.3-0.6l3,0.9l0.8-1.9c0.7-1.9,1.4-3.9,2.1-6
			c0.3-1.2,0.7-2.4,0.9-3.6l0.5-2.1l-3-0.9l0.2-0.7c1.2-6.6,1.4-13.4,0.5-20c1.4-1.3,3-2.6,4.7-4c1.6,9.4,1.3,18.9-0.9,28.2
			l-0.5,2.1l4.6,1.4C199.8,145,199.5,146,199.4,146.2L199.4,146.2z M167.1,129.6c1.9,5.5,4.5,13.1,6.3,18.7
			c2.4,7.2,4.7,14.6,6.9,21.8c1,3.3,2,6.5,2.9,9.8c0.2,0.9,0.4,2.6,0.9,3.4c-0.9-1.1-15.1-14.2-58.1-32.6
			c7.5-14.7,23.1-25.8,24.2-26.7c-2.3,0.8-43.4,16.6-77.2,67.2L73,191c5.8-25.4,9.6-37.5,19.2-61.6C84.8,119.8,69.1,112,57,106
			c0,0,21.5-4.8,48.3-8.9c6.9-15.8,14.9-32.8,24.4-50.2c7.3,11.5,14.3,25.4,20.7,40c0,0-0.1,0-0.1,0c-1.2,0.5-20.3,8.3-34.3,24.6
			c9.9-8.5,22.6-13.4,35.3-16c14.9-3,29.5-1.5,44.2,0.9c1.2,0.2,6.3,1.9,7.2,1.3C186.9,107.8,174.5,118.5,167.1,129.6L167.1,129.6z"
			/>
	</g>
</g>
</svg>
