<?xml version="1.0" encoding="iso-8859-1"?>
<!-- Generator: Adobe Illustrator 18.0.0, SVG Export Plug-In . SVG Version: 6.00 Build 0)  -->
<!DOCTYPE svg PUBLIC "-//W3C//DTD SVG 1.1//EN" "http://www.w3.org/Graphics/SVG/1.1/DTD/svg11.dtd">
<svg version="1.1" id="Capa_1" xmlns="http://www.w3.org/2000/svg" xmlns:xlink="http://www.w3.org/1999/xlink" x="0px" y="0px"
	 viewBox="0 0 285.052 285.052" style="enable-background:new 0 0 285.052 285.052;" xml:space="preserve">
<g>
	<g>
		<path d="M246.315,143.623c-17.304-9.577-31.077-24.764-39.093-42.717V64.218c0-35-28.475-63.475-63.475-63.475
			S80.273,29.218,80.273,64.218v33.856c-7.985,19.285-22.242,35.134-40.832,45.164C15.113,156.363,0,181.675,0,209.295
			c0,41.362,33.65,75.013,75.013,75.013c18.228,0,34.953-6.544,47.966-17.395c6.512,2.262,13.496,3.508,20.769,3.508
			c6.63,0,13.025-1.026,19.037-2.92c12.909,10.5,29.356,16.808,47.254,16.808c41.362,0,75.013-33.65,75.013-75.013
			C285.052,182.01,270.209,156.846,246.315,143.623z M95.273,64.218c0-26.729,21.746-48.475,48.475-48.475
			s48.475,21.746,48.475,48.475v106.638c0,3.05-2.48,5.53-5.53,5.53h-85.889c-3.05,0-5.53-2.48-5.53-5.53V64.218z M75.013,269.308
			C41.922,269.308,15,242.386,15,209.295c0-22.1,12.095-42.353,31.564-52.856c13.322-7.187,24.731-16.943,33.709-28.615v43.032
			c0,5.161,1.929,9.871,5.085,13.482c-3.156,3.611-5.085,8.32-5.085,13.481v9.127c0,21.76,11.011,40.993,27.749,52.434
			C98.545,265.646,87.201,269.308,75.013,269.308z M151.248,254.838v-30.983c0-4.143-3.357-7.5-7.5-7.5s-7.5,3.357-7.5,7.5v30.983
			c-23.18-3.616-40.975-23.714-40.975-47.892v-9.127c0-3.049,2.48-5.529,5.53-5.529h85.889c3.05,0,5.53,2.48,5.53,5.529v9.127
			C192.223,231.124,174.428,251.222,151.248,254.838z M210.039,269.308c-11.663,0-22.551-3.356-31.773-9.135
			c17.411-11.33,28.956-30.95,28.956-53.227v-9.127c0-5.161-1.929-9.871-5.085-13.481c3.156-3.611,5.085-8.321,5.085-13.482v-41.212
			c8.669,10.979,19.479,20.268,31.829,27.104c19.121,10.582,31,30.717,31,52.548C270.052,242.386,243.13,269.308,210.039,269.308z"
			/>
	</g>
	<g>
		<circle cx="116.354" cy="141.04" r="7.5"/>
	</g>
	<g>
		<path d="M116.354,124.597c4.143,0,7.5-3.357,7.5-7.5V64.382c0-4.143-3.357-7.5-7.5-7.5s-7.5,3.357-7.5,7.5v52.715
			C108.854,121.24,112.212,124.597,116.354,124.597z"/>
	</g>
</g>
<g>
</g>
<g>
</g>
<g>
</g>
<g>
</g>
<g>
</g>
<g>
</g>
<g>
</g>
<g>
</g>
<g>
</g>
<g>
</g>
<g>
</g>
<g>
</g>
<g>
</g>
<g>
</g>
<g>
</g>
</svg>
