<?xml version="1.0" encoding="UTF-8"?><svg xmlns="http://www.w3.org/2000/svg" xmlns:xlink="http://www.w3.org/1999/xlink" width="375" zoomAndPan="magnify" viewBox="0 0 375 374.999991" height="374.999991" preserveAspectRatio="xMidYMid meet" version="1.0"><defs><clipPath id="clip-0"><path d="M 53 53 L 321 53 L 321 322 L 53 322 Z M 53 53 " clip-rule="nonzero"/></clipPath><clipPath id="clip-1"><path d="M 374.992188 167.308594 L 207.292969 375.476562 L -0.875 207.777344 L 166.824219 -0.390625 Z M 374.992188 167.308594 " clip-rule="nonzero"/></clipPath><clipPath id="clip-2"><path d="M 374.992188 167.308594 L 207.292969 375.476562 L -0.875 207.777344 L 166.824219 -0.390625 Z M 374.992188 167.308594 " clip-rule="nonzero"/></clipPath><clipPath id="clip-3"><path d="M 103.207031 291.628906 C 101.503906 290.253906 99.835938 288.839844 98.203125 287.386719 C 96.570312 285.933594 94.972656 284.441406 93.410156 282.90625 C 91.851562 281.375 90.328125 279.804688 88.84375 278.199219 C 87.359375 276.589844 85.917969 274.945312 84.515625 273.269531 C 83.109375 271.589844 81.75 269.878906 80.429688 268.132812 C 79.113281 266.390625 77.835938 264.613281 76.605469 262.804688 C 75.375 260.996094 74.1875 259.160156 73.046875 257.292969 C 71.902344 255.429688 70.808594 253.535156 69.761719 251.617188 C 68.710938 249.695312 67.710938 247.753906 66.757812 245.785156 C 65.804688 243.816406 64.898438 241.824219 64.042969 239.8125 C 63.1875 237.796875 62.382812 235.765625 61.628906 233.710938 C 60.871094 231.660156 60.167969 229.589844 59.515625 227.5 C 58.859375 225.414062 58.257812 223.3125 57.707031 221.195312 C 57.15625 219.078125 56.65625 216.949219 56.210938 214.808594 C 55.765625 212.667969 55.371094 210.515625 55.03125 208.355469 C 54.691406 206.195312 54.402344 204.027344 54.167969 201.851562 C 53.933594 199.675781 53.753906 197.496094 53.628906 195.3125 C 53.5 193.128906 53.425781 190.945312 53.40625 188.757812 C 53.386719 186.570312 53.421875 184.382812 53.507812 182.199219 C 53.59375 180.011719 53.738281 177.828125 53.929688 175.652344 C 54.125 173.472656 54.375 171.300781 54.675781 169.132812 C 54.976562 166.964844 55.332031 164.808594 55.738281 162.660156 C 56.144531 160.511719 56.605469 158.371094 57.117188 156.246094 C 57.628906 154.121094 58.195312 152.007812 58.808594 149.90625 C 59.425781 147.808594 60.09375 145.726562 60.808594 143.660156 C 61.527344 141.59375 62.296875 139.546875 63.117188 137.519531 C 63.933594 135.492188 64.800781 133.484375 65.71875 131.496094 C 66.636719 129.511719 67.601562 127.550781 68.617188 125.609375 C 69.628906 123.671875 70.691406 121.761719 71.796875 119.875 C 72.90625 117.988281 74.058594 116.128906 75.257812 114.300781 C 76.457031 112.46875 77.699219 110.671875 78.984375 108.902344 C 80.273438 107.132812 81.601562 105.398438 82.972656 103.695312 C 84.347656 101.992188 85.757812 100.320312 87.214844 98.6875 C 88.667969 97.054688 90.160156 95.457031 91.695312 93.894531 C 93.226562 92.335938 94.796875 90.8125 96.402344 89.328125 C 98.011719 87.847656 99.652344 86.402344 101.332031 85 C 103.011719 83.597656 104.722656 82.234375 106.46875 80.917969 C 108.210938 79.597656 109.988281 78.324219 111.796875 77.089844 C 113.605469 75.859375 115.441406 74.671875 117.304688 73.53125 C 119.171875 72.390625 121.066406 71.292969 122.984375 70.246094 C 124.90625 69.195312 126.847656 68.195312 128.816406 67.242188 C 130.785156 66.289062 132.777344 65.386719 134.789062 64.53125 C 136.804688 63.675781 138.835938 62.871094 140.890625 62.113281 C 142.941406 61.359375 145.011719 60.652344 147.097656 60 C 149.1875 59.34375 151.289062 58.742188 153.40625 58.191406 C 155.523438 57.640625 157.652344 57.144531 159.792969 56.695312 C 161.933594 56.25 164.085938 55.859375 166.246094 55.515625 C 168.40625 55.175781 170.574219 54.890625 172.75 54.65625 C 174.925781 54.421875 177.105469 54.238281 179.289062 54.113281 C 181.472656 53.984375 183.65625 53.910156 185.84375 53.890625 C 188.03125 53.871094 190.21875 53.90625 192.402344 53.992188 C 194.589844 54.082031 196.769531 54.222656 198.949219 54.417969 C 201.128906 54.613281 203.300781 54.859375 205.46875 55.160156 C 207.632812 55.460938 209.792969 55.816406 211.941406 56.222656 C 214.089844 56.628906 216.226562 57.089844 218.355469 57.601562 C 220.480469 58.113281 222.59375 58.679688 224.691406 59.292969 C 226.792969 59.910156 228.875 60.578125 230.941406 61.296875 C 233.007812 62.015625 235.054688 62.78125 237.082031 63.601562 C 239.109375 64.421875 241.117188 65.289062 243.105469 66.207031 C 245.089844 67.121094 247.050781 68.085938 248.988281 69.101562 C 250.929688 70.113281 252.839844 71.175781 254.726562 72.28125 C 256.613281 73.390625 258.472656 74.542969 260.300781 75.742188 C 262.132812 76.941406 263.929688 78.183594 265.699219 79.46875 C 267.46875 80.757812 269.203125 82.085938 270.90625 83.460938 C 272.609375 84.832031 274.277344 86.246094 275.914062 87.699219 C 277.546875 89.152344 279.144531 90.648438 280.707031 92.179688 C 282.265625 93.710938 283.789062 95.28125 285.273438 96.890625 C 286.753906 98.496094 288.199219 100.140625 289.601562 101.816406 C 291.003906 103.496094 292.367188 105.207031 293.683594 106.953125 C 295.003906 108.699219 296.277344 110.472656 297.511719 112.28125 C 298.742188 114.089844 299.929688 115.925781 301.070312 117.792969 C 302.210938 119.65625 303.308594 121.550781 304.355469 123.46875 C 305.402344 125.390625 306.40625 127.335938 307.359375 129.304688 C 308.3125 131.273438 309.214844 133.261719 310.070312 135.277344 C 310.925781 137.289062 311.730469 139.320312 312.488281 141.375 C 313.242188 143.425781 313.949219 145.496094 314.601562 147.585938 C 315.253906 149.671875 315.859375 151.773438 316.410156 153.890625 C 316.960938 156.007812 317.457031 158.136719 317.902344 160.277344 C 318.351562 162.421875 318.742188 164.570312 319.085938 166.730469 C 319.425781 168.894531 319.710938 171.058594 319.945312 173.234375 C 320.179688 175.410156 320.359375 177.589844 320.488281 179.773438 C 320.617188 181.957031 320.6875 184.140625 320.710938 186.328125 C 320.730469 188.515625 320.695312 190.703125 320.609375 192.890625 C 320.519531 195.074219 320.378906 197.257812 320.183594 199.433594 C 319.988281 201.613281 319.742188 203.785156 319.441406 205.953125 C 319.140625 208.121094 318.785156 210.277344 318.378906 212.425781 C 317.96875 214.574219 317.511719 216.714844 317 218.839844 C 316.488281 220.96875 315.921875 223.078125 315.304688 225.179688 C 314.691406 227.277344 314.023438 229.359375 313.304688 231.425781 C 312.585938 233.492188 311.820312 235.539062 311 237.566406 C 310.179688 239.597656 309.3125 241.601562 308.394531 243.589844 C 307.480469 245.574219 306.511719 247.539062 305.5 249.476562 C 304.484375 251.414062 303.425781 253.328125 302.316406 255.210938 C 301.210938 257.097656 300.058594 258.957031 298.859375 260.785156 C 297.660156 262.617188 296.417969 264.414062 295.128906 266.183594 C 293.84375 267.953125 292.515625 269.6875 291.140625 271.390625 C 289.769531 273.097656 288.355469 274.765625 286.902344 276.398438 C 285.449219 278.03125 283.953125 279.628906 282.421875 281.191406 C 280.890625 282.75 279.320312 284.273438 277.710938 285.757812 C 276.105469 287.242188 274.460938 288.683594 272.785156 290.085938 C 271.105469 291.488281 269.394531 292.851562 267.648438 294.167969 C 265.902344 295.488281 264.128906 296.765625 262.320312 297.996094 C 260.511719 299.226562 258.675781 300.414062 256.808594 301.554688 C 254.945312 302.695312 253.050781 303.792969 251.132812 304.839844 C 249.210938 305.890625 247.265625 306.890625 245.296875 307.84375 C 243.328125 308.796875 241.339844 309.699219 239.324219 310.554688 C 237.3125 311.410156 235.277344 312.21875 233.226562 312.972656 C 231.171875 313.726562 229.105469 314.433594 227.015625 315.085938 C 224.929688 315.742188 222.828125 316.34375 220.710938 316.894531 C 218.59375 317.445312 216.464844 317.945312 214.324219 318.390625 C 212.179688 318.835938 210.03125 319.230469 207.871094 319.570312 C 205.707031 319.910156 203.539062 320.199219 201.367188 320.433594 C 199.191406 320.667969 197.011719 320.847656 194.828125 320.972656 C 192.644531 321.101562 190.460938 321.175781 188.273438 321.195312 C 186.085938 321.214844 183.898438 321.179688 181.710938 321.09375 C 179.527344 321.003906 177.34375 320.863281 175.164062 320.667969 C 172.988281 320.476562 170.8125 320.226562 168.648438 319.925781 C 166.480469 319.625 164.324219 319.269531 162.175781 318.863281 C 160.023438 318.457031 157.886719 317.996094 155.761719 317.484375 C 153.632812 316.972656 151.519531 316.40625 149.421875 315.792969 C 147.324219 315.175781 145.242188 314.507812 143.175781 313.789062 C 141.109375 313.074219 139.0625 312.304688 137.035156 311.484375 C 135.003906 310.667969 132.996094 309.796875 131.011719 308.882812 C 129.027344 307.964844 127.0625 307 125.125 305.984375 C 123.1875 304.972656 121.273438 303.910156 119.386719 302.804688 C 117.503906 301.695312 115.644531 300.542969 113.816406 299.34375 C 111.984375 298.144531 110.1875 296.902344 108.417969 295.617188 C 106.648438 294.328125 104.914062 293 103.207031 291.628906 Z M 103.207031 291.628906 " clip-rule="nonzero"/></clipPath><linearGradient x1="1744.86578" gradientTransform="matrix(-1.622506, -1.307079, 1.307079, -1.622506, 2844.463036, 2983.376308)" xmlns:xlink="http://www.w3.org/1999/xlink" y1="244.834" x2="1925.286072" gradientUnits="userSpaceOnUse" y2="244.834" xlink:type="simple" xlink:actuate="onLoad" id="linear-pattern-0" xlink:show="other"><stop stop-opacity="1" stop-color="rgb(76.899719%, 0%, 100%)" offset="0"/><stop stop-opacity="1" stop-color="rgb(76.899719%, 0%, 100%)" offset="0.125"/><stop stop-opacity="1" stop-color="rgb(76.899719%, 0%, 100%)" offset="0.140625"/><stop stop-opacity="1" stop-color="rgb(76.802063%, 0.14801%, 100%)" offset="0.148438"/><stop stop-opacity="1" stop-color="rgb(76.513672%, 0.588989%, 100%)" offset="0.152344"/><stop stop-opacity="1" stop-color="rgb(76.324463%, 0.880432%, 100%)" offset="0.15625"/><stop stop-opacity="1" stop-color="rgb(76.133728%, 1.171875%, 100%)" offset="0.160156"/><stop stop-opacity="1" stop-color="rgb(75.942993%, 1.463318%, 100%)" offset="0.164063"/><stop stop-opacity="1" stop-color="rgb(75.752258%, 1.754761%, 100%)" offset="0.167969"/><stop stop-opacity="1" stop-color="rgb(75.563049%, 2.046204%, 100%)" offset="0.171875"/><stop stop-opacity="1" stop-color="rgb(75.372314%, 2.337646%, 100%)" offset="0.175781"/><stop stop-opacity="1" stop-color="rgb(75.18158%, 2.629089%, 100%)" offset="0.179688"/><stop stop-opacity="1" stop-color="rgb(74.990845%, 2.920532%, 100%)" offset="0.183594"/><stop stop-opacity="1" stop-color="rgb(74.801636%, 3.211975%, 100%)" offset="0.1875"/><stop stop-opacity="1" stop-color="rgb(74.610901%, 3.503418%, 100%)" offset="0.191406"/><stop stop-opacity="1" stop-color="rgb(74.420166%, 3.796387%, 100%)" offset="0.195312"/><stop stop-opacity="1" stop-color="rgb(74.229431%, 4.08783%, 100%)" offset="0.199219"/><stop stop-opacity="1" stop-color="rgb(74.040222%, 4.379272%, 100%)" offset="0.203125"/><stop stop-opacity="1" stop-color="rgb(73.849487%, 4.670715%, 100%)" offset="0.207031"/><stop stop-opacity="1" stop-color="rgb(73.660278%, 4.962158%, 100%)" offset="0.210938"/><stop stop-opacity="1" stop-color="rgb(73.469543%, 5.253601%, 100%)" offset="0.214844"/><stop stop-opacity="1" stop-color="rgb(73.278809%, 5.545044%, 100%)" offset="0.21875"/><stop stop-opacity="1" stop-color="rgb(73.088074%, 5.836487%, 100%)" offset="0.222656"/><stop stop-opacity="1" stop-color="rgb(72.898865%, 6.12793%, 100%)" offset="0.226563"/><stop stop-opacity="1" stop-color="rgb(72.70813%, 6.419373%, 100%)" offset="0.230469"/><stop stop-opacity="1" stop-color="rgb(72.517395%, 6.710815%, 100%)" offset="0.234375"/><stop stop-opacity="1" stop-color="rgb(72.32666%, 7.002258%, 100%)" offset="0.238281"/><stop stop-opacity="1" stop-color="rgb(72.137451%, 7.293701%, 100%)" offset="0.242188"/><stop stop-opacity="1" stop-color="rgb(71.946716%, 7.585144%, 100%)" offset="0.246094"/><stop stop-opacity="1" stop-color="rgb(71.755981%, 7.876587%, 100%)" offset="0.25"/><stop stop-opacity="1" stop-color="rgb(71.565247%, 8.16803%, 100%)" offset="0.253906"/><stop stop-opacity="1" stop-color="rgb(71.376038%, 8.459473%, 100%)" offset="0.257812"/><stop stop-opacity="1" stop-color="rgb(71.185303%, 8.750916%, 100%)" offset="0.261719"/><stop stop-opacity="1" stop-color="rgb(70.994568%, 9.043884%, 100%)" offset="0.265625"/><stop stop-opacity="1" stop-color="rgb(70.803833%, 9.335327%, 100%)" offset="0.269531"/><stop stop-opacity="1" stop-color="rgb(70.614624%, 9.62677%, 100%)" offset="0.273438"/><stop stop-opacity="1" stop-color="rgb(70.423889%, 9.918213%, 100%)" offset="0.277344"/><stop stop-opacity="1" stop-color="rgb(70.23468%, 10.209656%, 100%)" offset="0.28125"/><stop stop-opacity="1" stop-color="rgb(70.043945%, 10.501099%, 100%)" offset="0.285156"/><stop stop-opacity="1" stop-color="rgb(69.85321%, 10.792542%, 100%)" offset="0.289062"/><stop stop-opacity="1" stop-color="rgb(69.662476%, 11.083984%, 100%)" offset="0.292969"/><stop stop-opacity="1" stop-color="rgb(69.473267%, 11.375427%, 100%)" offset="0.296875"/><stop stop-opacity="1" stop-color="rgb(69.282532%, 11.66687%, 100%)" offset="0.300781"/><stop stop-opacity="1" stop-color="rgb(69.091797%, 11.958313%, 100%)" offset="0.304688"/><stop stop-opacity="1" stop-color="rgb(68.901062%, 12.249756%, 100%)" offset="0.308594"/><stop stop-opacity="1" stop-color="rgb(68.711853%, 12.541199%, 100%)" offset="0.3125"/><stop stop-opacity="1" stop-color="rgb(68.521118%, 12.832642%, 100%)" offset="0.316406"/><stop stop-opacity="1" stop-color="rgb(68.330383%, 13.124084%, 100%)" offset="0.320312"/><stop stop-opacity="1" stop-color="rgb(68.139648%, 13.415527%, 100%)" offset="0.324219"/><stop stop-opacity="1" stop-color="rgb(67.950439%, 13.70697%, 100%)" offset="0.328125"/><stop stop-opacity="1" stop-color="rgb(67.759705%, 13.998413%, 100%)" offset="0.332031"/><stop stop-opacity="1" stop-color="rgb(67.56897%, 14.289856%, 100%)" offset="0.335938"/><stop stop-opacity="1" stop-color="rgb(67.378235%, 14.581299%, 100%)" offset="0.339844"/><stop stop-opacity="1" stop-color="rgb(67.189026%, 14.874268%, 100%)" offset="0.34375"/><stop stop-opacity="1" stop-color="rgb(66.998291%, 15.16571%, 100%)" offset="0.347656"/><stop stop-opacity="1" stop-color="rgb(66.807556%, 15.457153%, 100%)" offset="0.351562"/><stop stop-opacity="1" stop-color="rgb(66.616821%, 15.748596%, 100%)" offset="0.355469"/><stop stop-opacity="1" stop-color="rgb(66.427612%, 16.040039%, 100%)" offset="0.359375"/><stop stop-opacity="1" stop-color="rgb(66.236877%, 16.331482%, 100%)" offset="0.363281"/><stop stop-opacity="1" stop-color="rgb(66.047668%, 16.622925%, 100%)" offset="0.367188"/><stop stop-opacity="1" stop-color="rgb(65.856934%, 16.914368%, 100%)" offset="0.371094"/><stop stop-opacity="1" stop-color="rgb(65.666199%, 17.205811%, 100%)" offset="0.375"/><stop stop-opacity="1" stop-color="rgb(65.475464%, 17.497253%, 100%)" offset="0.378906"/><stop stop-opacity="1" stop-color="rgb(65.286255%, 17.788696%, 100%)" offset="0.382813"/><stop stop-opacity="1" stop-color="rgb(65.09552%, 18.080139%, 100%)" offset="0.386719"/><stop stop-opacity="1" stop-color="rgb(64.904785%, 18.371582%, 100%)" offset="0.390625"/><stop stop-opacity="1" stop-color="rgb(64.71405%, 18.663025%, 100%)" offset="0.394531"/><stop stop-opacity="1" stop-color="rgb(64.524841%, 18.954468%, 100%)" offset="0.398438"/><stop stop-opacity="1" stop-color="rgb(64.334106%, 19.245911%, 100%)" offset="0.402344"/><stop stop-opacity="1" stop-color="rgb(64.143372%, 19.537354%, 100%)" offset="0.40625"/><stop stop-opacity="1" stop-color="rgb(63.952637%, 19.828796%, 100%)" offset="0.410156"/><stop stop-opacity="1" stop-color="rgb(63.763428%, 20.121765%, 100%)" offset="0.414062"/><stop stop-opacity="1" stop-color="rgb(63.572693%, 20.413208%, 100%)" offset="0.417969"/><stop stop-opacity="1" stop-color="rgb(63.381958%, 20.704651%, 100%)" offset="0.421875"/><stop stop-opacity="1" stop-color="rgb(63.191223%, 20.996094%, 100%)" offset="0.425781"/><stop stop-opacity="1" stop-color="rgb(63.002014%, 21.287537%, 100%)" offset="0.429688"/><stop stop-opacity="1" stop-color="rgb(62.811279%, 21.578979%, 100%)" offset="0.433594"/><stop stop-opacity="1" stop-color="rgb(62.62207%, 21.870422%, 100%)" offset="0.4375"/><stop stop-opacity="1" stop-color="rgb(62.431335%, 22.161865%, 100%)" offset="0.441406"/><stop stop-opacity="1" stop-color="rgb(62.240601%, 22.453308%, 100%)" offset="0.445312"/><stop stop-opacity="1" stop-color="rgb(62.049866%, 22.744751%, 100%)" offset="0.449219"/><stop stop-opacity="1" stop-color="rgb(61.860657%, 23.036194%, 100%)" offset="0.453125"/><stop stop-opacity="1" stop-color="rgb(61.669922%, 23.327637%, 100%)" offset="0.457031"/><stop stop-opacity="1" stop-color="rgb(61.479187%, 23.61908%, 100%)" offset="0.460938"/><stop stop-opacity="1" stop-color="rgb(61.288452%, 23.910522%, 100%)" offset="0.464844"/><stop stop-opacity="1" stop-color="rgb(61.099243%, 24.201965%, 100%)" offset="0.46875"/><stop stop-opacity="1" stop-color="rgb(60.908508%, 24.493408%, 100%)" offset="0.472656"/><stop stop-opacity="1" stop-color="rgb(60.717773%, 24.784851%, 100%)" offset="0.476563"/><stop stop-opacity="1" stop-color="rgb(60.527039%, 25.076294%, 100%)" offset="0.480469"/><stop stop-opacity="1" stop-color="rgb(60.33783%, 25.369263%, 100%)" offset="0.484375"/><stop stop-opacity="1" stop-color="rgb(60.147095%, 25.660706%, 100%)" offset="0.488281"/><stop stop-opacity="1" stop-color="rgb(59.95636%, 25.952148%, 100%)" offset="0.492188"/><stop stop-opacity="1" stop-color="rgb(59.765625%, 26.243591%, 100%)" offset="0.496094"/><stop stop-opacity="1" stop-color="rgb(59.576416%, 26.535034%, 100%)" offset="0.5"/><stop stop-opacity="1" stop-color="rgb(59.385681%, 26.826477%, 100%)" offset="0.503906"/><stop stop-opacity="1" stop-color="rgb(59.196472%, 27.11792%, 100%)" offset="0.507812"/><stop stop-opacity="1" stop-color="rgb(59.005737%, 27.409363%, 100%)" offset="0.511719"/><stop stop-opacity="1" stop-color="rgb(58.815002%, 27.700806%, 100%)" offset="0.515625"/><stop stop-opacity="1" stop-color="rgb(58.624268%, 27.992249%, 100%)" offset="0.519531"/><stop stop-opacity="1" stop-color="rgb(58.435059%, 28.283691%, 100%)" offset="0.523438"/><stop stop-opacity="1" stop-color="rgb(58.244324%, 28.575134%, 100%)" offset="0.527344"/><stop stop-opacity="1" stop-color="rgb(58.053589%, 28.866577%, 100%)" offset="0.53125"/><stop stop-opacity="1" stop-color="rgb(57.862854%, 29.15802%, 100%)" offset="0.535156"/><stop stop-opacity="1" stop-color="rgb(57.673645%, 29.449463%, 100%)" offset="0.539062"/><stop stop-opacity="1" stop-color="rgb(57.48291%, 29.740906%, 100%)" offset="0.542969"/><stop stop-opacity="1" stop-color="rgb(57.292175%, 30.032349%, 100%)" offset="0.546875"/><stop stop-opacity="1" stop-color="rgb(57.10144%, 30.323792%, 100%)" offset="0.550781"/><stop stop-opacity="1" stop-color="rgb(56.912231%, 30.615234%, 100%)" offset="0.554688"/><stop stop-opacity="1" stop-color="rgb(56.721497%, 30.906677%, 100%)" offset="0.558594"/><stop stop-opacity="1" stop-color="rgb(56.530762%, 31.199646%, 100%)" offset="0.5625"/><stop stop-opacity="1" stop-color="rgb(56.340027%, 31.491089%, 100%)" offset="0.566406"/><stop stop-opacity="1" stop-color="rgb(56.150818%, 31.782532%, 100%)" offset="0.570313"/><stop stop-opacity="1" stop-color="rgb(55.960083%, 32.073975%, 100%)" offset="0.574219"/><stop stop-opacity="1" stop-color="rgb(55.770874%, 32.365417%, 100%)" offset="0.578125"/><stop stop-opacity="1" stop-color="rgb(55.580139%, 32.65686%, 100%)" offset="0.582031"/><stop stop-opacity="1" stop-color="rgb(55.389404%, 32.948303%, 100%)" offset="0.585938"/><stop stop-opacity="1" stop-color="rgb(55.198669%, 33.239746%, 100%)" offset="0.589844"/><stop stop-opacity="1" stop-color="rgb(55.00946%, 33.531189%, 100%)" offset="0.59375"/><stop stop-opacity="1" stop-color="rgb(54.353333%, 34.178162%, 100%)" offset="0.597656"/><stop stop-opacity="1" stop-color="rgb(53.697205%, 34.825134%, 100%)" offset="0.601562"/><stop stop-opacity="1" stop-color="rgb(52.851868%, 35.61554%, 100%)" offset="0.605469"/><stop stop-opacity="1" stop-color="rgb(52.006531%, 36.407471%, 100%)" offset="0.609375"/><stop stop-opacity="1" stop-color="rgb(51.161194%, 37.197876%, 100%)" offset="0.613281"/><stop stop-opacity="1" stop-color="rgb(50.317383%, 37.988281%, 100%)" offset="0.617188"/><stop stop-opacity="1" stop-color="rgb(49.472046%, 38.778687%, 100%)" offset="0.621094"/><stop stop-opacity="1" stop-color="rgb(48.628235%, 39.570618%, 100%)" offset="0.625"/><stop stop-opacity="1" stop-color="rgb(47.782898%, 40.361023%, 100%)" offset="0.628906"/><stop stop-opacity="1" stop-color="rgb(46.939087%, 41.152954%, 100%)" offset="0.632813"/><stop stop-opacity="1" stop-color="rgb(46.09375%, 41.943359%, 100%)" offset="0.636719"/><stop stop-opacity="1" stop-color="rgb(45.249939%, 42.733765%, 100%)" offset="0.640625"/><stop stop-opacity="1" stop-color="rgb(44.404602%, 43.52417%, 100%)" offset="0.644531"/><stop stop-opacity="1" stop-color="rgb(43.559265%, 44.316101%, 100%)" offset="0.648438"/><stop stop-opacity="1" stop-color="rgb(42.713928%, 45.106506%, 100%)" offset="0.652344"/><stop stop-opacity="1" stop-color="rgb(41.870117%, 45.896912%, 100%)" offset="0.65625"/><stop stop-opacity="1" stop-color="rgb(41.02478%, 46.687317%, 100%)" offset="0.660156"/><stop stop-opacity="1" stop-color="rgb(40.180969%, 47.479248%, 100%)" offset="0.664062"/><stop stop-opacity="1" stop-color="rgb(39.335632%, 48.269653%, 100%)" offset="0.667969"/><stop stop-opacity="1" stop-color="rgb(38.491821%, 49.061584%, 100%)" offset="0.671875"/><stop stop-opacity="1" stop-color="rgb(37.646484%, 49.85199%, 100%)" offset="0.675781"/><stop stop-opacity="1" stop-color="rgb(36.801147%, 50.642395%, 100%)" offset="0.679688"/><stop stop-opacity="1" stop-color="rgb(35.955811%, 51.4328%, 100%)" offset="0.683594"/><stop stop-opacity="1" stop-color="rgb(35.112%, 52.224731%, 100%)" offset="0.6875"/><stop stop-opacity="1" stop-color="rgb(34.266663%, 53.015137%, 100%)" offset="0.691406"/><stop stop-opacity="1" stop-color="rgb(33.422852%, 53.807068%, 100%)" offset="0.695312"/><stop stop-opacity="1" stop-color="rgb(32.577515%, 54.597473%, 100%)" offset="0.699219"/><stop stop-opacity="1" stop-color="rgb(31.733704%, 55.387878%, 100%)" offset="0.703125"/><stop stop-opacity="1" stop-color="rgb(30.888367%, 56.178284%, 100%)" offset="0.707031"/><stop stop-opacity="1" stop-color="rgb(30.044556%, 56.970215%, 100%)" offset="0.710938"/><stop stop-opacity="1" stop-color="rgb(29.199219%, 57.76062%, 100%)" offset="0.714844"/><stop stop-opacity="1" stop-color="rgb(28.353882%, 58.551025%, 100%)" offset="0.71875"/><stop stop-opacity="1" stop-color="rgb(27.508545%, 59.341431%, 100%)" offset="0.722656"/><stop stop-opacity="1" stop-color="rgb(26.664734%, 60.133362%, 100%)" offset="0.726562"/><stop stop-opacity="1" stop-color="rgb(25.819397%, 60.923767%, 100%)" offset="0.730469"/><stop stop-opacity="1" stop-color="rgb(24.975586%, 61.715698%, 100%)" offset="0.734375"/><stop stop-opacity="1" stop-color="rgb(24.130249%, 62.506104%, 100%)" offset="0.738281"/><stop stop-opacity="1" stop-color="rgb(23.286438%, 63.296509%, 100%)" offset="0.742188"/><stop stop-opacity="1" stop-color="rgb(22.441101%, 64.086914%, 100%)" offset="0.746094"/><stop stop-opacity="1" stop-color="rgb(21.595764%, 64.878845%, 100%)" offset="0.75"/><stop stop-opacity="1" stop-color="rgb(20.750427%, 65.66925%, 100%)" offset="0.753906"/><stop stop-opacity="1" stop-color="rgb(19.906616%, 66.461182%, 100%)" offset="0.757812"/><stop stop-opacity="1" stop-color="rgb(19.061279%, 67.251587%, 100%)" offset="0.761719"/><stop stop-opacity="1" stop-color="rgb(18.217468%, 68.041992%, 100%)" offset="0.765625"/><stop stop-opacity="1" stop-color="rgb(17.372131%, 68.832397%, 100%)" offset="0.769531"/><stop stop-opacity="1" stop-color="rgb(16.52832%, 69.624329%, 100%)" offset="0.773438"/><stop stop-opacity="1" stop-color="rgb(15.682983%, 70.414734%, 100%)" offset="0.777344"/><stop stop-opacity="1" stop-color="rgb(14.839172%, 71.206665%, 100%)" offset="0.78125"/><stop stop-opacity="1" stop-color="rgb(13.993835%, 71.99707%, 100%)" offset="0.785156"/><stop stop-opacity="1" stop-color="rgb(13.148499%, 72.787476%, 100%)" offset="0.789063"/><stop stop-opacity="1" stop-color="rgb(12.303162%, 73.577881%, 100%)" offset="0.792969"/><stop stop-opacity="1" stop-color="rgb(11.459351%, 74.369812%, 100%)" offset="0.796875"/><stop stop-opacity="1" stop-color="rgb(10.614014%, 75.160217%, 100%)" offset="0.800781"/><stop stop-opacity="1" stop-color="rgb(9.770203%, 75.950623%, 100%)" offset="0.804688"/><stop stop-opacity="1" stop-color="rgb(8.924866%, 76.741028%, 100%)" offset="0.808594"/><stop stop-opacity="1" stop-color="rgb(8.081055%, 77.532959%, 100%)" offset="0.8125"/><stop stop-opacity="1" stop-color="rgb(7.235718%, 78.323364%, 100%)" offset="0.816406"/><stop stop-opacity="1" stop-color="rgb(6.391907%, 79.115295%, 100%)" offset="0.820312"/><stop stop-opacity="1" stop-color="rgb(5.54657%, 79.905701%, 100%)" offset="0.824219"/><stop stop-opacity="1" stop-color="rgb(4.701233%, 80.696106%, 100%)" offset="0.828125"/><stop stop-opacity="1" stop-color="rgb(3.855896%, 81.486511%, 100%)" offset="0.832031"/><stop stop-opacity="1" stop-color="rgb(3.012085%, 82.278442%, 100%)" offset="0.835938"/><stop stop-opacity="1" stop-color="rgb(2.166748%, 83.068848%, 100%)" offset="0.839844"/><stop stop-opacity="1" stop-color="rgb(1.322937%, 83.860779%, 100%)" offset="0.84375"/><stop stop-opacity="1" stop-color="rgb(0.660706%, 84.480286%, 100%)" offset="0.847656"/><stop stop-opacity="1" stop-color="rgb(0%, 85.099792%, 100%)" offset="0.851562"/><stop stop-opacity="1" stop-color="rgb(0%, 85.099792%, 100%)" offset="0.859375"/><stop stop-opacity="1" stop-color="rgb(0%, 85.099792%, 100%)" offset="0.875"/><stop stop-opacity="1" stop-color="rgb(0%, 85.099792%, 100%)" offset="1"/></linearGradient><clipPath id="clip-4"><path d="M 97.277344 111 L 191 111 L 191 183 L 97.277344 183 Z M 97.277344 111 " clip-rule="nonzero"/></clipPath><clipPath id="clip-5"><path d="M 97.277344 191 L 166 191 L 166 246 L 97.277344 246 Z M 97.277344 191 " clip-rule="nonzero"/></clipPath></defs><rect x="-37.5" width="450" fill="rgb(100%, 100%, 100%)" y="-37.499999" height="449.999989" fill-opacity="1"/><rect x="-37.5" width="450" fill="rgb(100%, 100%, 100%)" y="-37.499999" height="449.999989" fill-opacity="1"/><rect x="-37.5" width="450" fill="rgb(98.039246%, 98.039246%, 98.039246%)" y="-37.499999" height="449.999989" fill-opacity="1"/><g clip-path="url(#clip-0)"><g clip-path="url(#clip-1)"><g clip-path="url(#clip-2)"><g clip-path="url(#clip-3)"><path fill="url(#linear-pattern-0)" d="M 215.511719 451.820312 L 451.335938 159.089844 L 158.601562 -76.734375 L -77.21875 216 Z M 215.511719 451.820312 " fill-rule="nonzero"/></g></g></g></g><path fill="rgb(98.039246%, 98.039246%, 98.039246%)" d="M 271.609375 118.601562 C 270.515625 117.632812 269.335938 116.777344 268.074219 116.035156 C 266.8125 115.292969 265.488281 114.683594 264.105469 114.199219 C 262.722656 113.71875 261.304688 113.371094 259.855469 113.167969 C 258.402344 112.960938 256.945312 112.894531 255.480469 112.972656 C 252.003906 113.128906 248.566406 113.582031 245.167969 114.332031 C 241.769531 115.082031 238.460938 116.117188 235.246094 117.441406 C 232.027344 118.761719 228.949219 120.351562 226.011719 122.203125 C 223.070312 124.058594 220.316406 126.152344 217.742188 128.480469 C 216.316406 129.910156 215.046875 131.464844 213.929688 133.144531 C 212.8125 134.824219 211.871094 136.59375 211.109375 138.457031 C 210.34375 140.320312 209.769531 142.238281 209.382812 144.214844 C 209 146.191406 208.8125 148.1875 208.824219 150.199219 C 208.816406 153.621094 209.382812 156.941406 210.527344 160.167969 C 211.671875 163.394531 213.328125 166.335938 215.492188 168.996094 L 204.503906 179.773438 C 204.222656 180.0625 203.910156 180.320312 203.578125 180.550781 C 203.242188 180.777344 202.886719 180.972656 202.511719 181.128906 C 202.136719 181.285156 201.75 181.40625 201.351562 181.484375 C 200.953125 181.566406 200.546875 181.605469 200.140625 181.605469 C 199.734375 181.605469 199.332031 181.566406 198.933594 181.484375 C 198.535156 181.40625 198.148438 181.285156 197.773438 181.128906 C 197.398438 180.972656 197.042969 180.777344 196.707031 180.550781 C 196.371094 180.320312 196.0625 180.0625 195.777344 179.773438 L 195.128906 179.316406 C 195.003906 179.214844 194.871094 179.128906 194.726562 179.050781 L 194.785156 178.976562 C 194.371094 178.566406 193.925781 178.191406 193.445312 177.859375 C 192.96875 177.523438 192.464844 177.234375 191.933594 176.984375 C 191.402344 176.738281 190.855469 176.535156 190.292969 176.382812 C 189.726562 176.230469 189.15625 176.125 188.570312 176.070312 C 187.988281 176.015625 187.40625 176.007812 186.824219 176.054688 C 186.238281 176.097656 185.664062 176.195312 185.097656 176.339844 C 184.53125 176.480469 183.980469 176.671875 183.445312 176.910156 C 182.910156 177.148438 182.402344 177.433594 181.917969 177.757812 C 181.285156 177.878906 180.730469 178.15625 180.25 178.585938 L 171.433594 187.546875 L 171.382812 187.613281 L 171.007812 187.988281 C 170.699219 188.351562 170.464844 188.761719 170.300781 189.210938 C 170.136719 189.65625 170.054688 190.121094 170.054688 190.597656 C 170.054688 191.074219 170.136719 191.539062 170.300781 191.984375 C 170.464844 192.433594 170.699219 192.84375 171.007812 193.207031 C 171.738281 193.863281 172.59375 194.234375 173.574219 194.320312 C 174.6875 194.257812 175.648438 193.847656 176.457031 193.085938 L 185.25 184.214844 C 185.410156 184.054688 185.585938 183.914062 185.777344 183.792969 C 185.96875 183.671875 186.171875 183.570312 186.386719 183.492188 C 186.601562 183.414062 186.820312 183.359375 187.042969 183.328125 C 187.269531 183.296875 187.496094 183.292969 187.722656 183.3125 C 187.949219 183.328125 188.171875 183.371094 188.386719 183.4375 C 188.605469 183.507812 188.8125 183.59375 189.011719 183.707031 C 189.207031 183.820312 189.390625 183.949219 189.558594 184.101562 C 189.726562 184.253906 189.878906 184.421875 190.011719 184.605469 L 190.417969 185.011719 C 191.71875 186.324219 193.226562 187.335938 194.9375 188.042969 C 196.652344 188.75 198.433594 189.097656 200.289062 189.089844 C 202.113281 189.097656 203.871094 188.746094 205.550781 188.039062 C 207.234375 187.332031 208.707031 186.320312 209.972656 185.011719 L 220.898438 174.234375 C 223.574219 176.359375 226.523438 177.988281 229.75 179.125 C 232.976562 180.261719 236.296875 180.839844 239.71875 180.867188 C 241.761719 180.871094 243.785156 180.679688 245.789062 180.289062 C 247.796875 179.894531 249.742188 179.3125 251.628906 178.535156 C 253.515625 177.757812 255.308594 176.804688 257.007812 175.675781 C 258.703125 174.546875 260.273438 173.261719 261.714844 171.824219 C 264.019531 169.242188 266.085938 166.488281 267.921875 163.558594 C 269.753906 160.632812 271.328125 157.570312 272.636719 154.378906 C 273.949219 151.183594 274.984375 147.902344 275.738281 144.535156 C 276.492188 141.167969 276.953125 137.761719 277.128906 134.316406 C 277.226562 132.890625 277.179688 131.46875 276.988281 130.050781 C 276.796875 128.632812 276.464844 127.246094 275.992188 125.894531 C 275.515625 124.546875 274.910156 123.257812 274.171875 122.027344 C 273.433594 120.800781 272.582031 119.65625 271.609375 118.601562 Z M 271.609375 118.601562 " fill-opacity="1" fill-rule="nonzero"/><path fill="rgb(98.039246%, 98.039246%, 98.039246%)" d="M 220.199219 198.140625 C 217.160156 198.257812 214.15625 198.632812 211.183594 199.265625 C 208.207031 199.898438 205.3125 200.777344 202.492188 201.910156 C 199.671875 203.039062 196.96875 204.402344 194.382812 205.996094 C 191.800781 207.589844 189.371094 209.390625 187.101562 211.402344 C 185.875 212.695312 184.78125 214.09375 183.820312 215.59375 C 182.859375 217.09375 182.050781 218.671875 181.390625 220.324219 C 180.730469 221.980469 180.234375 223.679688 179.898438 225.425781 C 179.566406 227.171875 179.398438 228.9375 179.398438 230.714844 C 179.398438 233.617188 179.863281 236.445312 180.789062 239.195312 C 181.714844 241.945312 183.058594 244.480469 184.816406 246.796875 L 175.890625 255.671875 C 174.949219 256.640625 173.800781 257.167969 172.449219 257.246094 C 171.648438 257.207031 170.894531 257 170.183594 256.628906 C 169.476562 256.253906 168.878906 255.746094 168.398438 255.109375 C 168.292969 255.023438 168.179688 254.945312 168.054688 254.886719 L 168.125 254.84375 C 167.742188 254.476562 167.332031 254.144531 166.894531 253.847656 C 166.457031 253.550781 165.996094 253.292969 165.515625 253.078125 C 165.03125 252.859375 164.535156 252.683594 164.023438 252.550781 C 163.511719 252.417969 162.988281 252.328125 162.460938 252.285156 C 161.933594 252.242188 161.40625 252.246094 160.878906 252.292969 C 160.351562 252.339844 159.832031 252.429688 159.320312 252.566406 C 158.808594 252.703125 158.308594 252.878906 157.828125 253.101562 C 157.347656 253.324219 156.890625 253.582031 156.453125 253.882812 C 155.914062 254.128906 155.429688 254.449219 154.996094 254.851562 L 154.621094 254.851562 L 154.394531 255.074219 L 134.785156 274.886719 C 134.285156 275.421875 133.96875 276.046875 133.839844 276.765625 C 133.707031 277.484375 133.777344 278.179688 134.050781 278.855469 C 134.328125 279.535156 134.761719 280.085938 135.359375 280.507812 C 135.953125 280.933594 136.617188 281.167969 137.351562 281.210938 C 137.851562 281.21875 138.328125 281.117188 138.78125 280.90625 C 139.234375 280.691406 139.617188 280.390625 139.925781 280 L 152.285156 268.105469 L 159.65625 260.578125 L 159.730469 260.347656 C 159.972656 260.121094 160.25 259.949219 160.566406 259.84375 C 160.878906 259.734375 161.203125 259.695312 161.535156 259.722656 C 161.867188 259.753906 162.179688 259.851562 162.46875 260.015625 C 162.757812 260.179688 163 260.394531 163.195312 260.664062 L 163.195312 260.511719 C 163.207031 260.761719 163.296875 260.976562 163.464844 261.160156 C 164.691406 262.285156 166.078125 263.160156 167.621094 263.78125 C 169.167969 264.40625 170.773438 264.742188 172.441406 264.789062 C 174.058594 264.773438 175.609375 264.453125 177.097656 263.824219 C 178.582031 263.195312 179.894531 262.308594 181.027344 261.160156 L 190.320312 251.910156 C 190.949219 252.414062 191.601562 252.890625 192.273438 253.335938 C 192.945312 253.777344 193.640625 254.191406 194.351562 254.574219 C 195.0625 254.953125 195.792969 255.300781 196.539062 255.613281 C 197.28125 255.925781 198.039062 256.203125 198.8125 256.449219 C 199.582031 256.691406 200.363281 256.898438 201.152344 257.070312 C 201.941406 257.238281 202.738281 257.375 203.542969 257.472656 C 204.34375 257.566406 205.148438 257.628906 205.957031 257.652344 C 206.765625 257.671875 207.574219 257.660156 208.378906 257.605469 C 209.1875 257.554688 209.988281 257.464844 210.789062 257.339844 C 211.585938 257.214844 212.378906 257.050781 213.160156 256.851562 C 213.945312 256.652344 214.71875 256.417969 215.476562 256.144531 C 216.238281 255.875 216.988281 255.570312 217.71875 255.230469 C 218.453125 254.890625 219.167969 254.515625 219.863281 254.109375 C 220.5625 253.703125 221.242188 253.265625 221.898438 252.796875 C 222.554688 252.328125 223.1875 251.828125 223.796875 251.300781 C 224.410156 250.773438 224.992188 250.21875 225.550781 249.636719 C 227.574219 247.414062 229.390625 245.035156 231.003906 242.5 C 232.617188 239.964844 233.996094 237.3125 235.152344 234.542969 C 236.304688 231.769531 237.210938 228.921875 237.871094 225.996094 C 238.53125 223.070312 238.9375 220.109375 239.085938 217.113281 C 239.183594 215.84375 239.148438 214.578125 238.988281 213.3125 C 238.824219 212.050781 238.535156 210.816406 238.125 209.613281 C 237.710938 208.40625 237.179688 207.253906 236.53125 206.15625 C 235.886719 205.058594 235.132812 204.035156 234.277344 203.089844 C 233.324219 202.238281 232.296875 201.484375 231.195312 200.835938 C 230.097656 200.183594 228.941406 199.648438 227.734375 199.222656 C 226.527344 198.796875 225.289062 198.496094 224.019531 198.3125 C 222.753906 198.128906 221.480469 198.074219 220.199219 198.140625 Z M 220.398438 244.558594 C 219.457031 245.40625 218.441406 246.160156 217.355469 246.820312 C 216.273438 247.480469 215.136719 248.039062 213.949219 248.492188 C 212.761719 248.949219 211.542969 249.289062 210.292969 249.519531 C 209.042969 249.75 207.78125 249.867188 206.507812 249.867188 C 205.238281 249.867188 203.976562 249.75 202.726562 249.519531 C 201.476562 249.289062 200.257812 248.949219 199.070312 248.492188 C 197.882812 248.039062 196.746094 247.480469 195.664062 246.820312 C 194.578125 246.160156 193.5625 245.40625 192.621094 244.558594 C 191.710938 243.648438 190.902344 242.664062 190.1875 241.597656 C 189.472656 240.53125 188.871094 239.410156 188.378906 238.226562 C 187.886719 237.042969 187.515625 235.824219 187.265625 234.566406 C 187.011719 233.3125 186.886719 232.046875 186.886719 230.765625 C 186.871094 229.480469 186.984375 228.207031 187.226562 226.945312 C 187.472656 225.683594 187.839844 224.457031 188.332031 223.269531 C 188.824219 222.082031 189.433594 220.953125 190.152344 219.890625 C 190.875 218.824219 191.699219 217.839844 192.621094 216.9375 C 194.5 215.234375 196.515625 213.703125 198.664062 212.347656 C 200.8125 210.988281 203.0625 209.824219 205.410156 208.851562 C 207.761719 207.882812 210.179688 207.117188 212.660156 206.5625 C 215.144531 206.007812 217.65625 205.667969 220.199219 205.542969 C 221.75 205.417969 223.269531 205.59375 224.753906 206.066406 C 226.234375 206.535156 227.574219 207.265625 228.769531 208.261719 C 229.800781 209.503906 230.550781 210.898438 231.027344 212.441406 C 231.5 213.984375 231.660156 215.558594 231.503906 217.164062 C 231.347656 219.667969 230.992188 222.140625 230.4375 224.585938 C 229.878906 227.03125 229.128906 229.417969 228.1875 231.746094 C 227.242188 234.070312 226.117188 236.304688 224.8125 238.449219 C 223.507812 240.597656 222.035156 242.625 220.398438 244.53125 Z M 220.398438 244.558594 " fill-opacity="1" fill-rule="nonzero"/><g clip-path="url(#clip-4)"><path fill="rgb(98.039246%, 98.039246%, 98.039246%)" d="M 100.761719 182.417969 C 101.257812 182.414062 101.730469 182.308594 102.179688 182.097656 C 102.628906 181.890625 103.011719 181.597656 103.335938 181.222656 L 111.121094 173.621094 C 112.019531 172.792969 113.121094 172.792969 114.378906 173.988281 C 114.472656 174.085938 114.597656 174.109375 114.695312 174.195312 C 114.796875 174.277344 114.796875 174.394531 114.871094 174.449219 C 116.019531 175.574219 117.335938 176.433594 118.828125 177.03125 C 120.320312 177.632812 121.871094 177.921875 123.480469 177.90625 C 125.132812 177.890625 126.726562 177.585938 128.261719 176.992188 C 129.800781 176.394531 131.179688 175.550781 132.40625 174.449219 L 141.367188 165.390625 C 143.679688 167.183594 146.21875 168.558594 148.988281 169.519531 C 151.757812 170.476562 154.605469 170.96875 157.539062 170.996094 C 159.332031 170.988281 161.105469 170.808594 162.863281 170.453125 C 164.621094 170.097656 166.328125 169.574219 167.984375 168.886719 C 169.636719 168.195312 171.207031 167.351562 172.695312 166.355469 C 174.179688 165.355469 175.554688 164.222656 176.816406 162.953125 C 178.863281 160.742188 180.703125 158.367188 182.332031 155.832031 C 183.960938 153.296875 185.355469 150.640625 186.515625 147.863281 C 187.675781 145.085938 188.585938 142.226562 189.242188 139.292969 C 189.898438 136.355469 190.292969 133.386719 190.425781 130.378906 C 190.492188 129.101562 190.429688 127.828125 190.234375 126.5625 C 190.042969 125.292969 189.730469 124.058594 189.289062 122.855469 C 188.851562 121.652344 188.296875 120.5 187.625 119.40625 C 186.957031 118.3125 186.183594 117.296875 185.308594 116.355469 C 183.386719 114.636719 181.203125 113.347656 178.765625 112.484375 C 176.328125 111.625 173.816406 111.253906 171.230469 111.382812 C 168.21875 111.53125 165.238281 111.9375 162.292969 112.597656 C 159.347656 113.257812 156.480469 114.164062 153.695312 115.3125 C 150.90625 116.464844 148.238281 117.839844 145.6875 119.449219 C 143.136719 121.054688 140.746094 122.867188 138.507812 124.882812 C 137.929688 125.445312 137.375 126.03125 136.851562 126.644531 C 136.324219 127.257812 135.828125 127.890625 135.359375 128.546875 C 134.890625 129.203125 134.453125 129.882812 134.046875 130.578125 C 133.644531 131.273438 133.269531 131.988281 132.929688 132.71875 C 132.589844 133.445312 132.28125 134.191406 132.007812 134.949219 C 131.738281 135.707031 131.5 136.476562 131.296875 137.253906 C 131.09375 138.035156 130.929688 138.820312 130.796875 139.617188 C 130.667969 140.410156 130.574219 141.210938 130.515625 142.011719 C 130.460938 142.816406 130.441406 143.617188 130.457031 144.421875 C 130.472656 145.226562 130.527344 146.03125 130.617188 146.832031 C 130.707031 147.628906 130.832031 148.425781 130.996094 149.214844 C 131.160156 150 131.355469 150.78125 131.589844 151.550781 C 131.824219 152.320312 132.09375 153.082031 132.398438 153.828125 C 132.699219 154.574219 133.039062 155.304688 133.40625 156.019531 C 133.777344 156.734375 134.179688 157.433594 134.617188 158.113281 C 135.050781 158.792969 135.515625 159.449219 136.007812 160.085938 L 126.914062 169.15625 C 125.953125 170.0625 124.808594 170.527344 123.480469 170.546875 C 121.890625 170.390625 120.542969 169.734375 119.4375 168.582031 C 119.378906 168.507812 119.3125 168.507812 119.253906 168.507812 C 119.226562 168.453125 119.195312 168.398438 119.15625 168.351562 C 118.785156 167.980469 118.390625 167.648438 117.960938 167.347656 C 117.535156 167.046875 117.085938 166.785156 116.613281 166.5625 C 116.144531 166.335938 115.65625 166.15625 115.152344 166.015625 C 114.648438 165.875 114.136719 165.78125 113.617188 165.726562 C 113.097656 165.675781 112.574219 165.667969 112.054688 165.703125 C 111.535156 165.738281 111.019531 165.820312 110.511719 165.945312 C 110.003906 166.070312 109.511719 166.238281 109.03125 166.445312 C 108.554688 166.65625 108.097656 166.902344 107.660156 167.191406 C 107.074219 167.386719 106.519531 167.644531 105.996094 167.96875 L 98.425781 175.734375 L 98.425781 175.800781 L 98.183594 176.125 C 97.992188 176.28125 97.820312 176.457031 97.667969 176.648438 C 97.515625 176.84375 97.386719 177.050781 97.28125 177.273438 C 97.171875 177.496094 97.09375 177.726562 97.039062 177.964844 C 96.984375 178.207031 96.957031 178.449219 96.957031 178.695312 C 96.957031 178.941406 96.984375 179.183594 97.039062 179.425781 C 97.09375 179.664062 97.171875 179.894531 97.28125 180.117188 C 97.386719 180.339844 97.515625 180.546875 97.667969 180.742188 C 97.820312 180.933594 97.992188 181.109375 98.183594 181.265625 C 98.484375 181.664062 98.863281 181.964844 99.324219 182.171875 C 99.78125 182.375 100.257812 182.457031 100.761719 182.417969 Z M 143.660156 130.199219 C 145.5625 128.523438 147.589844 127.015625 149.742188 125.675781 C 151.898438 124.335938 154.144531 123.179688 156.492188 122.207031 C 158.835938 121.234375 161.246094 120.460938 163.71875 119.886719 C 166.191406 119.3125 168.695312 118.941406 171.230469 118.777344 C 172.835938 118.699219 174.402344 118.914062 175.929688 119.414062 C 177.453125 119.917969 178.839844 120.671875 180.082031 121.683594 C 181.097656 122.898438 181.851562 124.257812 182.339844 125.761719 C 182.828125 127.265625 183.015625 128.804688 182.910156 130.378906 C 182.75 132.886719 182.382812 135.367188 181.808594 137.8125 C 181.234375 140.261719 180.460938 142.644531 179.488281 144.964844 C 178.511719 147.28125 177.351562 149.503906 176.003906 151.632812 C 174.65625 153.757812 173.140625 155.757812 171.457031 157.632812 C 170.996094 158.074219 170.515625 158.496094 170.015625 158.890625 C 169.511719 159.285156 168.992188 159.660156 168.457031 160.003906 C 167.917969 160.351562 167.367188 160.671875 166.800781 160.964844 C 166.230469 161.257812 165.652344 161.527344 165.058594 161.765625 C 164.464844 162.003906 163.859375 162.210938 163.246094 162.394531 C 162.632812 162.574219 162.011719 162.722656 161.382812 162.847656 C 160.753906 162.96875 160.121094 163.058594 159.484375 163.121094 C 158.847656 163.179688 158.207031 163.210938 157.566406 163.210938 C 156.925781 163.210938 156.289062 163.179688 155.652344 163.121094 C 155.011719 163.058594 154.378906 162.96875 153.75 162.847656 C 153.125 162.722656 152.503906 162.574219 151.886719 162.394531 C 151.273438 162.210938 150.671875 162.003906 150.078125 161.765625 C 149.484375 161.527344 148.902344 161.257812 148.335938 160.964844 C 147.765625 160.671875 147.214844 160.351562 146.675781 160.003906 C 146.140625 159.660156 145.621094 159.285156 145.121094 158.890625 C 144.617188 158.496094 144.136719 158.074219 143.675781 157.632812 C 142.765625 156.746094 141.953125 155.777344 141.242188 154.726562 C 140.527344 153.675781 139.929688 152.566406 139.445312 151.394531 C 138.960938 150.222656 138.597656 149.011719 138.359375 147.765625 C 138.125 146.523438 138.015625 145.265625 138.035156 144 C 138.011719 142.71875 138.121094 141.449219 138.355469 140.191406 C 138.589844 138.933594 138.949219 137.710938 139.433594 136.523438 C 139.917969 135.339844 140.515625 134.210938 141.226562 133.144531 C 141.9375 132.078125 142.75 131.09375 143.660156 130.1875 Z M 143.660156 130.199219 " fill-opacity="1" fill-rule="nonzero"/></g><g clip-path="url(#clip-5)"><path fill="rgb(98.039246%, 98.039246%, 98.039246%)" d="M 156.453125 227.589844 C 157.835938 226.082031 159.082031 224.464844 160.183594 222.746094 C 161.285156 221.023438 162.230469 219.21875 163.019531 217.335938 C 163.808594 215.449219 164.429688 213.511719 164.882812 211.519531 C 165.335938 209.53125 165.613281 207.515625 165.714844 205.476562 C 165.761719 203.648438 165.472656 201.875 164.84375 200.15625 C 164.214844 198.441406 163.292969 196.898438 162.070312 195.53125 C 160.734375 194.269531 159.199219 193.328125 157.46875 192.699219 C 155.734375 192.074219 153.949219 191.816406 152.113281 191.921875 C 150.058594 192.007812 148.03125 192.269531 146.023438 192.707031 C 144.015625 193.144531 142.0625 193.75 140.164062 194.527344 C 138.265625 195.304688 136.445312 196.242188 134.710938 197.335938 C 132.976562 198.429688 131.351562 199.664062 129.832031 201.042969 C 128.960938 201.902344 128.1875 202.839844 127.507812 203.855469 C 126.828125 204.875 126.257812 205.945312 125.796875 207.078125 C 125.335938 208.207031 124.992188 209.375 124.769531 210.574219 C 124.542969 211.773438 124.441406 212.984375 124.464844 214.203125 C 124.488281 216.007812 124.765625 217.773438 125.289062 219.496094 C 125.816406 221.222656 126.570312 222.84375 127.558594 224.359375 L 122.40625 229.488281 C 121.988281 230.257812 120.738281 230.277344 119.539062 229.097656 C 119.46875 229.046875 119.398438 229.003906 119.320312 228.964844 L 119.320312 228.925781 C 118.738281 228.386719 118.085938 227.949219 117.363281 227.609375 C 116.644531 227.273438 115.890625 227.050781 115.097656 226.949219 C 114.308594 226.84375 113.523438 226.859375 112.738281 226.996094 C 111.953125 227.136719 111.210938 227.386719 110.503906 227.757812 C 109.90625 227.949219 109.386719 228.265625 108.9375 228.699219 L 108.761719 228.890625 L 108.761719 228.941406 L 103.925781 234.054688 L 98.492188 239.085938 C 98.183594 239.480469 97.949219 239.910156 97.789062 240.378906 C 97.625 240.851562 97.542969 241.332031 97.542969 241.832031 C 97.542969 242.328125 97.625 242.8125 97.789062 243.28125 C 97.949219 243.75 98.183594 244.183594 98.492188 244.574219 C 99.402344 245.09375 100.378906 245.371094 101.425781 245.402344 C 102.347656 245.3125 103.203125 245.035156 104.003906 244.574219 L 109.070312 239.179688 L 114.421875 234.511719 C 114.546875 234.5 114.652344 234.535156 114.746094 234.621094 C 115.550781 235.585938 116.53125 236.335938 117.679688 236.859375 C 118.828125 237.386719 120.03125 237.640625 121.296875 237.621094 C 122.546875 237.578125 123.742188 237.296875 124.882812 236.777344 C 126.019531 236.257812 127.011719 235.535156 127.855469 234.621094 L 132.699219 229.84375 C 135.886719 231.824219 139.359375 232.859375 143.117188 232.945312 C 144.355469 232.96875 145.578125 232.867188 146.792969 232.644531 C 148.007812 232.421875 149.191406 232.082031 150.335938 231.621094 C 151.480469 231.160156 152.570312 230.59375 153.601562 229.914062 C 154.628906 229.234375 155.582031 228.460938 156.453125 227.589844 Z M 156.453125 227.589844 " fill-opacity="1" fill-rule="nonzero"/></g></svg>
