<svg id="圖層_1" data-name="圖層 1" xmlns="http://www.w3.org/2000/svg" viewBox="0 0 200 200"><defs><style>.cls-1{fill:#9ed1de;}.cls-2{opacity:0.3;}.cls-3{fill:#fff;}.cls-4{fill:#368665;stroke:#2c7659;}.cls-4,.cls-5,.cls-6{stroke-miterlimit:10;}.cls-5{fill:#68aa7d;stroke:#5e9b72;}.cls-6{fill:#68aa7b;stroke:#5e9b70;}</style></defs><title>seaweed</title><rect class="cls-1" width="200" height="200" rx="100"/><g class="cls-2"><circle class="cls-3" cx="100" cy="100" r="100"/></g><path class="cls-4" d="M128.09,92.44C127.23,96.84,121,100.9,118,107a39.51,39.51,0,0,0,1.37-12.64c11.34-7.86,11.38-12.23,4.43-18.62,2.87,7.36-3,12.41-4.82,15.85a22,22,0,0,0-2-5.71c1-5.64,11.14-13.35-2.3-19.1,5.15,4.92-.42,10.36.47,16.16A28.91,28.91,0,0,0,112,79.32c-2.47-7.28-5.24-10.48-12.77-13-2.15,7.38,5.09,14.09,11.47,14a23.15,23.15,0,0,1,5.84,9.46c-3.67-.36-4.2-7.68-15.89-6.16,4,1,5.14,11.35,16.24,7.39,1.18,4.77.73,9.86-.54,15.34-2.14-2.3-2.36-11.94-12.94-10.69,5.9.75,3.72,9.36,12.55,12.29-1.16,4.51-2.8,9.28-4.51,14.37-.72-2.33.6-8.78-9-9.21,5.94,1.8,2,11.81,8.27,11.27-1.28,3.88-2.57,7.93-3.67,12.18-1.23-4.88-4.36-6.28-10.91-4,3.66.11,7.58,2.06,10.1,7.34a82,82,0,0,0-2,26.63c-1.14-3.69-3.23-8.82-9.88-10.23,4.11,3.16,5.07,13.44,10.32,13.82.3,2.07.7,4.16,1.2,6.3H108a80.08,80.08,0,0,1-1.42-8.12c2.73-5.13,12.67-10.78,8.51-16.81-.81,4.35-7.16,5.89-8.91,12.54-.17-2.66-.2-5.26-.11-7.78,3.89-10.89,12.61-10.33,15.3-21.79-6.1,5.23-12.89,7.61-15.13,18.48A97.89,97.89,0,0,1,109,136.62c2.58-1.83,10.67-1.08,11.76-13.15-3.28,8.75-9.35,9.48-11.13,10.72,1.25-4.62,2.68-9,4.06-13.15,4.12-4.58,13.29-7.08,13.89-14.36-1,3.92-9,6.7-13.07,11.89.93-2.81,1.81-5.51,2.56-8.12C123,105.78,128.83,100.11,128.09,92.44Z"/><path class="cls-4" d="M115.18,167.43c-3.2,1.64-3.89,5.78-4.56,9h3.69C114.37,173.36,114.38,170.09,115.18,167.43Z"/><path class="cls-5" d="M139.28,104.47c8.08-2.13,11.61-7.15,11.42-12.16-5.75,1.67-8.54,3.53-12.62,11.33a53.5,53.5,0,0,0-5.13,4.8c2.61-4.26.8-9,4-13.71-9.89,5.22-5.36,10.3-6,16.06h0a30.34,30.34,0,0,0-3,4.79c.73-4.13-4.08-7.62-1.09-12-7.39,5.15-5.36,10.79,0,14.44h0a42.56,42.56,0,0,0-2.63,12h0c-2.13-1-1.41-5.48-2.31-8.68s-2.86-3-3.14-6.2c-3.76,10.24,2,13.23,5.29,16.85-.08,1.3-.11,3.25-.11,5.62-2.33-5.75-7-4.37-7.41-9.17-4.73,7.45,6.16,8.91,7.42,12.25,0,3,0,6.46.08,10l0,0c-1.15-.28-6.13-4.18-5.94-9.19-5.45,9.52,2.76,12.18,6,10.92,0,5.12,0,10.32-.18,14.62-1.32-10.73-7.7-11.43-8.82-15.37-2.27,11.92,6.9,9,8.78,16.11a35.77,35.77,0,0,1-1,8.24,4.57,4.57,0,0,1-2.23-2.93c-1.4-4.93-4.7-5.16-4.38-7.29-4.46,5.54,2.09,9.82,4.91,10.52h2.82l-.31,0H124l-.06,0,5.43,0c2.18-.53,1.39-4.64,3.69-6.31-3.79-.79-5,3-7.3,5.17a38.66,38.66,0,0,0,.57-9.06c2.14-.34,5.76-2.87,8.26-9.32-4.27,1.39-6.62,3.3-8.31,7-.06-2.18-.16-4.55-.27-7,6.12-.51,3.8-8.42,11.71-8.42-9.07-5-9.32,5.73-11.79,6.75-.16-3.45-.33-7.06-.44-10.64,6.49-1,5.87-10.82,10.77-11.57-8.53-1-8.93,6.59-10.85,8.6-.09-4.09-.09-8.07.12-11.66,6.3-1.81,9.66-11.11,14.28-12.26-8.82-1.06-11.62,8.74-14.1,9.73a42.51,42.51,0,0,1,.8-5.42,24.7,24.7,0,0,1,2.76-6.68c9.61,1,12.4-6.83,15.65-8.13-8.38-.43-11.75,5.82-14.74,6.65C133.2,108.88,137.25,105,139.28,104.47Z"/><path class="cls-4" d="M85.86,174.73c3.46-11.23-1.65-8.51,3.6-17.52-6.47,5.71-6.23,8.71-4.53,15.85-1.83-3.24-3.71-6.38-5.52-9.45,3-7.9-1-13.38,3.06-17.8-5.23,3.47-5.92,9.63-5.27,14-1.74-3-3.35-6-4.72-9,4.07-8,1.1-13.26,4.78-19.46-2.43.32-6.6,8.89-5.79,17.15a43,43,0,0,1-3.13-11.54c3-4.76,7.43-7.26,7.66-17.52-4.8,3.62-7,12-7.76,16.48a32.39,32.39,0,0,1,2.13-14.41c4.12-5.24,5.48-11.23,3.41-18.85-5.18,7-5.46,14.84-4.72,18.44q-.72,2.72-1.15,5.23c-1.22-5.22-4-6.55-3.18-12.27-5.23,10.75.55,12.76,2.63,16.21a46.28,46.28,0,0,0-.18,6.49c-1.88-2.62-5.74-3.6-5.55-9.69-3.17,9,.23,13.24,5.9,13.4a42.76,42.76,0,0,0,3.16,11.09c-3.06-.68-2.46-5.44-9.8-8.19.54,7,7.38,10.5,10.64,10,.76,1.62,1.6,3.21,2.49,4.8-3.78-2.36-7.7-.37-9.53-2.66,1.69,7.84,7.47,4.8,11,5.21,1.76,3,3.66,5.94,5.57,9.09-3.67.83-8.7-1.87-8.66-4.69-1.53,6.61,3.51,13.18,9.73,6.47,1,1.71,1.77,2.94,2.55,4.35h1.8C86.27,175.51,86.07,175.11,85.86,174.73Z"/><path class="cls-6" d="M98.44,173.14A98.72,98.72,0,0,0,99.06,158c10.79.28,4.65-11.68,7.62-15.5-5.53,3.42-7.46,6.31-8.08,8.86a84.89,84.89,0,0,0-1.7-10.29c7.38-4.1,2.36-10,4.64-14.6-4.5,1.76-5.47,6.18-5.77,10.26a64.49,64.49,0,0,0-4.47-11.3c2.74-1.32,5-5.82,3.93-14.62-6.12,6.12-4.47,8.14-4.78,13l-.39-.71c-1.4-2.93-2.89-5.78-4.4-8.57,6.32-3.5.38-12.07,8.86-15.44-13,.21-8.84,9.1-9.84,13.67-2.35-4.24-4.77-8.33-7.06-12.31,6.66-5.59,0-13.06,6.12-18.87-10,4-8.75,10.3-8.18,15.27a133.45,133.45,0,0,1-6.74-13.32c9.65-8.93,4.12-15.2,10.07-20.72-7.66.77-10.46,10.21-11.06,18.25a42.35,42.35,0,0,1-3.09-15.66c11.59-3.65,11.74-12.07,14.15-17.13-8.22,1.74-11.69,10.18-14.1,15.62a34,34,0,0,1,4.82-15.27c4.82-2.59,9.17-6.7,7.29-21C66.79,38.55,67,45.84,67.61,49c-.46,1-1.19,2.4-1.93,4.21C65,49.11,61.83,46,62.41,37.47,52.17,45,61.51,52.82,63.91,59a34.57,34.57,0,0,0-.71,6.84c-2.09-5.92-6.9-4-6.6-14.54-9.31,10.07,1.52,18.1,6.77,18.42A51.75,51.75,0,0,0,66.56,83c-3.93-5.16-10.34-11.57-14-14-.16,8.74,8.34,16.92,15.55,17.73.5,1.14,1,2.31,1.64,3.51.32.64.65,1.28,1,1.93C65.13,88,59.27,90.73,57.66,85.67c0,11.62,10.06,9.36,15.19,10.5,2.28,4.14,4.76,8.34,7.23,12.65-3.3-2.34-8.31-.85-12.29-8.28-2.42,8.3,3.61,11.44,8.06,11.84,2.13.19,3-1,4.23-1.16a2.39,2.39,0,0,1,1.88.91c2.61,4.66,5.15,9.47,7.36,14.48-4.06-4.55-12.33-10.83-19.77-13.09,2.34,14.9,13.28,7,20.4,14.52a94.71,94.71,0,0,1,3.77,10.45c-4.06-4.34-13.34-6.4-14.78-10.29-2.57,11.22,10.51,11.09,15.54,13.05a69.06,69.06,0,0,1,2.17,20.26c-2-11.25-10.4-9.92-13.14-13.87,0,10.42,10.87,12.36,13.07,15.12a69.64,69.64,0,0,1-1.15,8.92c-3.41-7.89-9.25-8.81-10.7-12.87-1.51,12.41,5.71,11.79,10.06,15.85-.12.52-.25,1.05-.39,1.57l1.15,0,0,0H98v0h1.1c2.57-1.78,12.14-7.54,12.67-14.18C104,162.64,101.44,168.83,98.44,173.14Z"/></svg>