<?xml version="1.0" encoding="UTF-8" standalone="no"?>
<svg
   width="120"
   height="117"
   viewBox="0 0 120 117"
   fill="none"
   version="1.1"
   id="svg24"
   sodipodi:docname="bSOL.svg"
   inkscape:version="1.1.1 (3bf5ae0d25, 2021-09-20, custom)"
   xmlns:inkscape="http://www.inkscape.org/namespaces/inkscape"
   xmlns:sodipodi="http://sodipodi.sourceforge.net/DTD/sodipodi-0.dtd"
   xmlns:xlink="http://www.w3.org/1999/xlink"
   xmlns="http://www.w3.org/2000/svg"
   xmlns:svg="http://www.w3.org/2000/svg">
  <defs
     id="defs28">
    <linearGradient
       id="linearGradient2073"
       x1="405.01401"
       y1="136.99001"
       x2="109.595"
       y2="378.16101"
       gradientUnits="userSpaceOnUse">
      <stop
         stop-color="#00A3FF"
         id="stop2069"
         style="stop-color:#36a337;stop-opacity:1" />
      <stop
         offset="1"
         stop-color="#3ADCFF"
         id="stop2071"
         style="stop-color:#4bdb4b;stop-opacity:1" />
    </linearGradient>
    <linearGradient
       id="linearGradient2067"
       x1="405.01401"
       y1="136.99001"
       x2="109.595"
       y2="378.16101"
       gradientUnits="userSpaceOnUse">
      <stop
         stop-color="#00A3FF"
         id="stop2063"
         style="stop-color:#36a337;stop-opacity:1" />
      <stop
         offset="1"
         stop-color="#3ADCFF"
         id="stop2065"
         style="stop-color:#4bdb4b;stop-opacity:1" />
    </linearGradient>
    <linearGradient
       id="paint2_linear"
       x1="405.01401"
       y1="136.99001"
       x2="109.595"
       y2="378.16101"
       gradientUnits="userSpaceOnUse">
      <stop
         stop-color="#00A3FF"
         id="stop78"
         style="stop-color:#36a337;stop-opacity:1" />
      <stop
         offset="1"
         stop-color="#3ADCFF"
         id="stop80"
         style="stop-color:#4bdb4b;stop-opacity:1" />
    </linearGradient>
    <linearGradient
       inkscape:collect="always"
       xlink:href="#paint2_linear"
       id="linearGradient169"
       gradientUnits="userSpaceOnUse"
       x1="405.01401"
       y1="136.99001"
       x2="109.595"
       y2="378.16101"
       gradientTransform="matrix(0.19920726,0,0,0.19920726,9.0372252,0.20270822)" />
    <linearGradient
       inkscape:collect="always"
       xlink:href="#linearGradient2067"
       id="linearGradient171"
       gradientUnits="userSpaceOnUse"
       x1="405.01401"
       y1="136.99001"
       x2="109.595"
       y2="378.16101"
       gradientTransform="matrix(0.19920726,0,0,0.19920726,9.0372252,0.20270822)" />
    <linearGradient
       inkscape:collect="always"
       xlink:href="#linearGradient2073"
       id="linearGradient173"
       gradientUnits="userSpaceOnUse"
       x1="405.01401"
       y1="136.99001"
       x2="109.595"
       y2="378.16101"
       gradientTransform="matrix(0.19920726,0,0,0.19920726,9.0372252,0.20270822)" />
  </defs>
  <sodipodi:namedview
     id="namedview26"
     pagecolor="#ffffff"
     bordercolor="#666666"
     borderopacity="1.0"
     inkscape:pageshadow="2"
     inkscape:pageopacity="0.0"
     inkscape:pagecheckerboard="0"
     showgrid="false"
     inkscape:zoom="6.9145299"
     inkscape:cx="32.106304"
     inkscape:cy="58.5"
     inkscape:window-width="1920"
     inkscape:window-height="1014"
     inkscape:window-x="0"
     inkscape:window-y="0"
     inkscape:window-maximized="1"
     inkscape:current-layer="svg24" />
  <path
     d="M60 116.25C93.1371 116.25 120 110.653 120 103.75V93.7496H96.0059C85.977 92.1797 73.5098 91.2495 60 91.2495C46.4902 91.2495 34.023 92.1797 23.9941 93.7496H0V103.75C0 110.653 26.8629 116.25 60 116.25Z"
     fill="#4BDB4B"
     id="path2" />
  <path
     d="M60 106.25C93.1371 106.25 120 100.654 120 93.7505C120 86.8469 93.1371 81.2505 60 81.2505C26.8629 81.2505 0 86.8469 0 93.7505C0 100.654 26.8629 106.25 60 106.25Z"
     fill="#145E02"
     id="path4" />
  <path
     d="M29.5808 92.5001H90.4196C103.055 83.1663 111.25 68.1652 111.25 51.2501C111.25 22.9453 88.3049 0 60.0003 0C31.6956 0 8.75024 22.9453 8.75024 51.2501C8.75024 68.1652 16.9449 83.1663 29.5808 92.5001Z"
     fill="black"
     id="path6" />
  <path
     d="M 77.94581,39.370842 H 30.937871 c -0.116139,-0.0017 -0.229288,-0.03745 -0.325503,-0.10279 -0.09602,-0.06534 -0.17092,-0.157574 -0.215145,-0.264946 -0.04422,-0.107575 -0.05598,-0.225702 -0.03387,-0.33965 0.02231,-0.114146 0.07749,-0.219128 0.158968,-0.302197 l 10.33269,-10.344633 c 0.339451,-0.332678 0.795439,-0.520131 1.270743,-0.522521 h 47.007735 c 0.116329,0.0016 0.229489,0.03725 0.325707,0.102792 0.09599,0.06534 0.17092,0.157373 0.215147,0.264945 0.04418,0.107371 0.05598,0.225503 0.03367,0.339649 -0.02214,0.114145 -0.07745,0.219129 -0.158765,0.302197 L 79.216565,38.848123 c -0.339646,0.332875 -0.795439,0.520131 -1.270743,0.522721 z"
     fill="url(#paint0_linear)"
     id="path62"
     style="fill:url(#linearGradient169);stroke-width:0.199;stroke-miterlimit:4;stroke-dasharray:none" />
  <path
     d="M 77.945606,75.000657 H 30.937871 c -0.116139,-0.0016 -0.229487,-0.03725 -0.325503,-0.102588 -0.09622,-0.06534 -0.17092,-0.157575 -0.215145,-0.264947 -0.04443,-0.107575 -0.05618,-0.225702 -0.03387,-0.339848 0.02231,-0.113942 0.07749,-0.219126 0.15877,-0.301998 L 40.85482,63.646643 c 0.339644,-0.332677 0.795428,-0.520131 1.270936,-0.522521 h 47.007735 c 0.116139,0.0016 0.229489,0.03725 0.325502,0.102588 0.09618,0.06534 0.17092,0.157572 0.215148,0.264944 0.04439,0.107575 0.05619,0.225703 0.03385,0.33985 -0.02234,0.113943 -0.07745,0.219126 -0.158766,0.301997 L 79.216539,74.478135 c -0.339646,0.332677 -0.795441,0.520131 -1.270947,0.522522 z"
     fill="url(#paint1_linear)"
     id="path64"
     style="fill:url(#linearGradient171);stroke-width:0.199;stroke-miterlimit:4;stroke-dasharray:none" />
  <path
     d="M 89.133485,57.185749 H 42.125748 c -0.475507,-0.0024 -0.93129,-0.189845 -1.270935,-0.522521 L 30.522127,46.318593 c -0.08128,-0.08307 -0.136456,-0.18805 -0.158768,-0.302196 -0.0223,-0.113943 -0.01057,-0.232078 0.03386,-0.339649 0.04422,-0.107371 0.11893,-0.199605 0.215145,-0.264946 0.09601,-0.06534 0.209366,-0.100998 0.325504,-0.102791 h 47.007731 c 0.475508,0.0025 0.931302,0.189845 1.270947,0.522719 L 89.54923,56.176166 c 0.08127,0.08306 0.136457,0.188052 0.158766,0.302197 0.02235,0.114147 0.01057,0.232275 -0.03385,0.33965 -0.04418,0.107574 -0.118931,0.199605 -0.215148,0.264944 -0.09599,0.06555 -0.209363,0.101192 -0.325501,0.102792 z"
     fill="url(#paint2_linear)"
     id="path66"
     style="fill:url(#linearGradient173);stroke-width:0.199;stroke-miterlimit:4;stroke-dasharray:none" />
</svg>
