<svg width="650" height="650" viewBox="0 0 650 650" fill="none" xmlns="http://www.w3.org/2000/svg">
<path d="M641 325C641 499.522 499.522 641 325 641C150.478 641 9 499.522 9 325C9 150.478 150.478 9 325 9C499.522 9 641 150.478 641 325Z" fill="url(#paint0_linear_634_982)" stroke="#0D0E1F" stroke-width="18"/>
<path d="M130.003 264.501L66.0078 196.002L207.008 210.501L130.003 264.501Z" fill="#0D0E1F"/>
<path d="M526.308 264.499L590.303 196L449.303 210.499L526.308 264.499Z" fill="#0D0E1F"/>
<path d="M324.503 483.001L273.003 426.001H377.003L324.503 483.001Z" fill="#0D0E1F"/>
<path d="M269.503 417.001L289.003 434.001H355.003L373.503 417.001L338.503 342.001H309.503L269.503 417.001Z" fill="#0D0E1F"/>
<circle cx="195" cy="340" r="107.5" stroke="#0D0E1F" stroke-width="45"/>
<circle cx="454" cy="340" r="107.5" stroke="#0D0E1F" stroke-width="45"/>
<circle cx="195" cy="342" r="40" fill="#0D0E1F"/>
<circle cx="459" cy="342" r="40" fill="#0D0E1F"/>
<defs>
<linearGradient id="paint0_linear_634_982" x1="-9.36552e-07" y1="335" x2="650" y2="325" gradientUnits="userSpaceOnUse">
<stop stop-color="#00D08C"/>
<stop offset="1" stop-color="#9647FD"/>
</linearGradient>
</defs>
</svg>
