<svg width="1024" height="1024" viewBox="0 0 1024 1024" fill="none" xmlns="http://www.w3.org/2000/svg">
<g clip-path="url(#clip0)">
<rect width="1024" height="1024" rx="512" fill="url(#paint0_linear)"/>
<path d="M548.4 352.884C543.725 344.805 536 338.623 526.716 335.533C525.434 335.134 524.316 334.375 523.515 333.361C522.715 332.348 522.271 331.128 522.244 329.87V292.82C522.269 291.552 522.718 290.323 523.529 289.303C524.34 288.284 525.472 287.525 526.768 287.133C535.594 284.326 543.131 278.808 548.139 271.485C553.148 264.162 555.331 255.471 554.328 246.84C553.056 238.131 548.67 230.074 541.878 223.967C535.087 217.86 526.284 214.06 516.888 213.178C491.2 210.54 469.412 228.666 469.412 251.293C469.495 259.237 472.226 266.961 477.228 273.399C482.23 279.836 489.256 284.669 497.336 287.23C498.615 287.617 499.736 288.361 500.545 289.361C501.355 290.361 501.814 291.569 501.86 292.82V329.773C501.833 331.031 501.389 332.251 500.589 333.265C499.788 334.278 498.67 335.037 497.388 335.436C488.104 338.526 480.379 344.708 475.704 352.788L241.6 755.04H339.672C347.096 755.099 354.398 753.288 360.806 749.799C367.214 746.31 372.489 741.272 376.072 735.22L502.38 517.42C503.348 515.819 504.757 514.486 506.461 513.558C508.165 512.631 510.104 512.142 512.078 512.142C514.052 512.142 515.991 512.631 517.695 513.558C519.399 514.486 520.808 515.819 521.776 517.42L648.084 735.22C651.667 741.272 656.941 746.31 663.35 749.799C669.758 753.288 677.06 755.099 684.484 755.04H782.4L548.4 352.884Z" fill="white"/>
</g>
<defs>
<linearGradient id="paint0_linear" x1="1024" y1="1024" x2="0" y2="0" gradientUnits="userSpaceOnUse">
<stop/>
<stop offset="1" stop-color="#3C3C3C"/>
</linearGradient>
<clipPath id="clip0">
<rect width="1024" height="1024" fill="white"/>
</clipPath>
</defs>
</svg>
