<svg height="40" fill="none" xmlns="http://www.w3.org/2000/svg" viewBox="0 0 40 40" width="40">
<path fill-rule="evenodd" clip-rule="evenodd" d="M14.8829 8.60997C14.4635 8.19061 13.7836 8.19061 13.3642 8.60997L8.80822 13.166C8.38885 13.5854 8.38885 14.2653 8.80822 14.6847L25.5136 31.39C25.933 31.8094 26.6129 31.8094 27.0323 31.39L31.5883 26.834C32.0076 26.4146 32.0076 25.7347 31.5883 25.3153L14.8829 8.60997ZM5.77088 10.1286C3.67403 12.2255 3.67403 15.6251 5.77088 17.722L22.4763 34.4274C24.5731 36.5242 27.9728 36.5242 30.0696 34.4274L34.6256 29.8714C36.7225 27.7745 36.7225 24.3749 34.6256 22.278L17.9202 5.57263C15.8234 3.47579 12.4237 3.47579 10.3269 5.57263L5.77088 10.1286Z" fill="url(#paint0_linear)"/>
<path d="M31.5883 14.6847C32.0076 14.2653 32.0076 13.5854 31.5883 13.166L27.0323 8.60997C26.6129 8.19061 25.933 8.19061 25.5136 8.60997L23.2435 10.8801L20.2061 7.84275L22.4763 5.57263C24.5731 3.47579 27.9728 3.47579 30.0696 5.57263L34.6256 10.1286C36.7225 12.2255 36.7225 15.6251 34.6256 17.722L23.2277 29.1199L20.1903 26.0826L31.5883 14.6847Z" fill="url(#paint1_linear)"/>
<path d="M17.153 29.1199L14.8829 31.39C14.4635 31.8094 13.7836 31.8094 13.3642 31.39L8.80822 26.834C8.38885 26.4146 8.38885 25.7347 8.80822 25.3153L20.2061 13.9174L17.1688 10.8801L5.77088 22.278C3.67403 24.3749 3.67403 27.7745 5.77088 29.8714L10.3269 34.4274C12.4237 36.5242 15.8234 36.5242 17.9202 34.4274L20.1903 32.1573L17.153 29.1199Z" fill="url(#paint2_linear)"/>
<path d="M20.1982 32.1757L16.3238 29.9754L17.1609 29.1383L20.1982 32.1757Z" fill="url(#paint3_radial)" fill-opacity="0.4" style="mix-blend-mode:multiply"/>
<path xmlns="http://www.w3.org/2000/svg" d="M20.1982 13.9516L16.3459 11.7293L17.1609 10.9143L20.1982 13.9516Z" fill="url(#paint4_radial)" fill-opacity="0.4" style="mix-blend-mode:multiply"/><path d="M20.1982 13.9516L16.3459 11.7293L17.1609 10.9143L20.1982 13.9516Z" fill="url(#paint4_radial)" fill-opacity="0.4" style="mix-blend-mode:multiply"/>
<path d="M23.2356 10.9143L24.0989 10.051L20.1982 7.87695L23.2356 10.9143Z" fill="url(#paint5_radial)" fill-opacity="0.4" style="mix-blend-mode:multiply"/>
<path d="M24.0827 28.2912L20.1982 26.101L23.2356 29.1383L24.0827 28.2912Z" fill="url(#paint6_radial)" fill-opacity="0.4" style="mix-blend-mode:multiply"/>
<path d="M8.04883 20.0001L10.2491 16.1257L11.0862 16.9627L8.04883 20.0001Z" fill="url(#paint7_radial)" fill-opacity="0.4" style="mix-blend-mode:multiply"/>
<path d="M26.2729 20.0001L28.4952 16.1477L29.3102 16.9627L26.2729 20.0001Z" fill="url(#paint8_radial)" fill-opacity="0.4" style="mix-blend-mode:multiply"/>
<path d="M29.3102 23.0374L30.1735 23.9007L32.3476 20.0001L29.3102 23.0374Z" fill="url(#paint9_radial)" fill-opacity="0.4" style="mix-blend-mode:multiply"/>
<path d="M11.9334 23.8846L14.1235 20L11.0862 23.0374L11.9334 23.8846Z" fill="url(#paint10_radial)" fill-opacity="0.4" style="mix-blend-mode:multiply"/>

<defs>
<filter id="filter0_d" x="56.1982" y="7.9519" width="127.604" height="25.096" filterUnits="userSpaceOnUse" color-interpolation-filters="sRGB">
<feFlood flood-opacity="0" result="BackgroundImageFix"/>
<feColorMatrix in="SourceAlpha" type="matrix" values="0 0 0 0 0 0 0 0 0 0 0 0 0 0 0 0 0 0 127 0"/>
<feOffset dy="1"/>
<feColorMatrix type="matrix" values="0 0 0 0 0.13 0 0 0 0 0.176667 0 0 0 0 0.27 0 0 0 0.25 0"/>
<feBlend mode="normal" in2="BackgroundImageFix" result="effect1_dropShadow"/>
<feBlend mode="normal" in="SourceGraphic" in2="effect1_dropShadow" result="shape"/>
</filter>
<linearGradient id="paint0_linear" x1="10.7697" y1="10.8571" x2="29.3411" y2="28.8572" gradientUnits="userSpaceOnUse">
<stop stop-color="#000000"/>
<stop offset="0.479167" stop-color="#333333"/>
<stop offset="1" stop-color="#666666"/>
</linearGradient>
<linearGradient id="paint1_linear" x1="28.484" y1="11.1429" x2="10.1982" y2="28.8571" gradientUnits="userSpaceOnUse">
<stop stop-color="#333333"/>
<stop offset="0.5" stop-color="#cccccc"/>
<stop offset="1" stop-color="#cccccc"/>
</linearGradient>
<linearGradient id="paint2_linear" x1="28.484" y1="11.1429" x2="10.1982" y2="28.8571" gradientUnits="userSpaceOnUse">
<stop stop-color="#666666"/>
<stop offset="0.5" stop-color="#000000"/>
<stop offset="1" stop-color="#333333"/>
</linearGradient>
<radialGradient id="paint3_radial" cx="0" cy="0" r="1" gradientUnits="userSpaceOnUse" gradientTransform="translate(20.1982 20.0001) rotate(90) scale(14.2857)">
<stop offset="0.137737" stop-opacity="0" stop-color="#999999"/>
<stop offset="0.486973" stop-color="#0E131F" stop-opacity="0.48"/>
<stop offset="0.883198" stop-color="#0E131F" stop-opacity="0"/>
</radialGradient>
<radialGradient id="paint4_radial" cx="0" cy="0" r="1" gradientUnits="userSpaceOnUse" gradientTransform="translate(20.1982 20.0001) rotate(90) scale(14.2857)">
<stop offset="0.137737" stop-color="#0E131F" stop-opacity="0"/>
<stop offset="0.486973" stop-color="#0E131F" stop-opacity="0.48"/>
<stop offset="0.883198" stop-color="#0E131F" stop-opacity="0"/>
</radialGradient>
<radialGradient id="paint5_radial" cx="0" cy="0" r="1" gradientUnits="userSpaceOnUse" gradientTransform="translate(20.1982 20.0001) rotate(90) scale(14.2857)">
<stop offset="0.137737" stop-color="#0E131F" stop-opacity="0"/>
<stop offset="0.486973" stop-color="#0E131F" stop-opacity="0.48"/>
<stop offset="0.883198" stop-color="#0E131F" stop-opacity="0"/>
</radialGradient>
<radialGradient id="paint6_radial" cx="0" cy="0" r="1" gradientUnits="userSpaceOnUse" gradientTransform="translate(20.1982 20.0001) rotate(90) scale(14.2857)">
<stop offset="0.137737" stop-color="#0E131F" stop-opacity="0"/>
<stop offset="0.486973" stop-color="#0E131F" stop-opacity="0.48"/>
<stop offset="0.883198" stop-color="#0E131F" stop-opacity="0"/>
</radialGradient>
<radialGradient id="paint7_radial" cx="0" cy="0" r="1" gradientUnits="userSpaceOnUse" gradientTransform="translate(20.1982 20.0001) rotate(90) scale(14.2857)">
<stop offset="0.137737" stop-color="#0E131F" stop-opacity="0"/>
<stop offset="0.486973" stop-color="#0E131F" stop-opacity="0.48"/>
<stop offset="0.883198" stop-color="#0E131F" stop-opacity="0"/>
</radialGradient>
<radialGradient id="paint8_radial" cx="0" cy="0" r="1" gradientUnits="userSpaceOnUse" gradientTransform="translate(20.1982 20.0001) rotate(90) scale(14.2857)">
<stop offset="0.137737" stop-color="#0E131F" stop-opacity="0"/>
<stop offset="0.486973" stop-color="#0E131F" stop-opacity="0.48"/>
<stop offset="0.883198" stop-color="#0E131F" stop-opacity="0"/>
</radialGradient>
<radialGradient id="paint9_radial" cx="0" cy="0" r="1" gradientUnits="userSpaceOnUse" gradientTransform="translate(20.1982 20.0001) rotate(90) scale(14.2857)">
<stop offset="0.137737" stop-color="#0E131F" stop-opacity="0"/>
<stop offset="0.486973" stop-color="#0E131F" stop-opacity="0.48"/>
<stop offset="0.883198" stop-color="#0E131F" stop-opacity="0"/>
</radialGradient>
<radialGradient id="paint10_radial" cx="0" cy="0" r="1" gradientUnits="userSpaceOnUse" gradientTransform="translate(20.1982 20.0001) rotate(90) scale(14.2857)">
<stop offset="0.137737" stop-color="#0E131F" stop-opacity="0"/>
<stop offset="0.486973" stop-color="#0E131F" stop-opacity="0.48"/>
<stop offset="0.883198" stop-color="#0E131F" stop-opacity="0"/>
</radialGradient>
</defs>
</svg>