<svg width="1024" height="1024" viewBox="0 0 1024 1024" fill="none" xmlns="http://www.w3.org/2000/svg">
<rect width="1024" height="1024" fill="white"/>
<path d="M715.475 779.655C718.894 811.092 711.078 842.725 693.413 868.953C675.747 895.182 649.371 914.313 618.953 922.96C551.362 942.154 480.028 944.037 411.518 928.435C348.211 914.062 304.191 856.479 307.163 791.63C310.542 718.116 330.602 646.334 365.825 581.719H650.522C685.755 642.446 707.881 709.878 715.475 779.674V779.655Z" fill="#EFED89"/>
<g opacity="0.88">
<path opacity="0.88" d="M519.577 938.614C517.225 938.705 514.847 938.771 512.463 938.816C478.516 939.453 444.617 935.965 411.512 928.429C348.205 914.056 304.178 856.485 307.164 791.63C310.534 718.115 330.592 646.332 365.819 581.719H395.871C360.64 646.331 340.577 718.114 337.203 791.63C334.218 856.485 378.245 914.043 441.551 928.429C467.183 934.264 493.307 937.674 519.577 938.614V938.614Z" fill="white"/>
</g>
<g style="mix-blend-mode:multiply" opacity="0.77">
<g style="mix-blend-mode:multiply" opacity="0.77">
<path d="M618.946 922.96C551.355 942.156 480.02 944.037 411.511 928.429C390.286 923.62 370.549 913.723 354 899.591C337.45 885.459 324.585 867.515 316.512 847.306C330.582 857.005 346.374 863.927 363.041 867.702C431.551 883.304 502.885 881.421 570.476 862.228C600.897 853.586 627.276 834.456 644.942 808.226C662.607 781.996 670.419 750.36 666.991 718.922C661.867 671.767 650.088 625.576 632.006 581.725H650.515C685.748 642.452 707.874 709.885 715.468 779.681C718.88 811.114 711.062 842.741 693.397 868.963C675.731 895.186 649.359 914.314 618.946 922.96Z" fill="#EFED89"/>
</g>
</g>
<path d="M504.57 953C472.216 952.991 439.964 949.367 408.414 942.194C374.497 934.542 344.355 915.197 323.27 887.55C302.185 859.903 291.504 825.717 293.097 790.983C296.563 715.331 317.205 641.461 353.457 574.97L357.469 567.607H658.649L662.732 574.637C690.266 622.082 710.067 673.61 721.394 727.285C724.921 744.016 727.652 761.12 729.501 778.126C733.288 812.879 724.651 847.85 705.121 876.845C685.592 905.839 656.429 926.985 622.801 936.536C586.968 946.699 549.976 952.206 512.736 952.921C510.014 952.974 507.292 953 504.57 953ZM374.285 595.83C342.509 656.668 324.41 723.713 321.255 792.277C319.974 820.395 328.627 848.067 345.7 870.444C362.773 892.822 387.177 908.478 414.634 914.67C480.841 929.749 549.778 927.931 615.098 909.384C642.35 901.714 665.991 884.613 681.805 861.131C697.619 837.649 704.578 809.313 701.441 781.177V781.177C699.69 765.105 697.11 748.936 693.771 733.112C683.622 685.022 666.27 638.74 642.303 595.83H374.285Z" fill="#7A221B"/>
<path d="M906.166 422.746C906.166 580.66 729.528 655.981 511.639 655.981C482.985 655.981 455.042 654.675 428.126 652.061C273.093 636.937 151.929 578.099 123.47 472.301C119.177 456.126 117.04 439.455 117.113 422.72C117.113 264.813 293.751 84.0854 511.639 84.0854C523.595 84.0854 535.418 84.619 547.108 85.6861C675.877 97.3086 786.876 170.925 850.085 261.54C885.691 312.584 906.166 368.985 906.166 422.746Z" fill="#F44336"/>
<g opacity="0.55">
<path opacity="0.55" d="M833.876 240.013C768.74 172.068 675.244 120.998 569.811 111.486C558.13 110.428 546.307 109.892 534.342 109.879C316.454 109.879 139.816 290.606 139.816 448.514C139.742 465.25 141.88 481.924 146.173 498.101C151.908 519.375 161.593 539.381 174.723 557.076C149.936 533.249 132.257 505.032 123.47 472.327C119.177 456.152 117.04 439.481 117.113 422.747C117.113 264.839 293.751 84.1118 511.639 84.1118C523.595 84.1118 535.418 84.6453 547.108 85.7124C665.496 96.3942 768.845 159.485 833.876 240.013Z" fill="white"/>
</g>
<path d="M439.826 629.751C437.239 637.806 433.281 645.354 428.125 652.062C273.093 636.937 151.928 578.1 123.47 472.301C164.152 447.011 230.614 442.163 298.37 463.86C395.819 495.076 459.152 569.325 439.826 629.751Z" fill="white"/>
<path d="M850.058 261.566C812.309 289.718 741.607 295.428 668.71 272.091C572.371 241.261 508.647 171.395 526.352 116.039C530.115 104.28 537.255 94.1272 547.081 85.7124C675.877 97.3349 786.849 170.951 850.058 261.566Z" fill="white"/>
<path d="M495.445 312.686C500.236 261.04 445.971 213.778 374.242 207.124C302.513 200.47 240.481 236.943 235.69 288.589C230.899 340.235 285.163 387.496 356.892 394.15C428.621 400.805 490.654 364.332 495.445 312.686Z" fill="white"/>
<path d="M718.685 559.877C789.173 543.279 836.086 486.382 823.468 432.794C810.85 379.206 743.478 349.219 672.99 365.817C602.502 382.415 555.589 439.312 568.207 492.9C580.825 546.488 648.196 576.474 718.685 559.877Z" fill="white"/>
<g style="mix-blend-mode:multiply" opacity="0.33">
<g style="mix-blend-mode:multiply" opacity="0.33">
<path d="M906.165 422.747C906.165 580.66 729.527 655.982 511.639 655.982C482.984 655.982 455.042 654.675 428.125 652.062C283.879 638.022 168.947 586.076 130.734 493.756C186.266 531.923 264.188 555.037 353.268 563.707C380.191 566.32 408.147 567.627 436.782 567.627C654.677 567.627 831.308 492.325 831.308 334.392C831.308 286.699 815.21 236.962 786.726 190.733C810.556 211.775 831.827 235.55 850.098 261.566C885.69 312.584 906.165 368.985 906.165 422.747Z" fill="#F44336"/>
</g>
</g>
<path d="M420.175 765.439C434.893 765.439 446.824 751.782 446.824 734.935C446.824 718.089 434.893 704.432 420.175 704.432C405.457 704.432 393.526 718.089 393.526 734.935C393.526 751.782 405.457 765.439 420.175 765.439Z" fill="#7A221B"/>
<path d="M603.097 765.439C617.815 765.439 629.746 751.782 629.746 734.935C629.746 718.089 617.815 704.432 603.097 704.432C588.379 704.432 576.448 718.089 576.448 734.935C576.448 751.782 588.379 765.439 603.097 765.439Z" fill="#7A221B"/>
<path d="M509.503 773.958C508.503 773.958 507.497 773.958 506.471 773.892C493.91 773.238 481.766 769.172 471.342 762.133C470.84 761.796 470.409 761.364 470.073 760.861C469.738 760.358 469.505 759.794 469.387 759.201C469.27 758.608 469.271 757.998 469.389 757.405C469.508 756.812 469.742 756.249 470.078 755.746C470.414 755.244 470.846 754.813 471.349 754.477C471.852 754.142 472.416 753.909 473.009 753.792C473.602 753.674 474.213 753.675 474.805 753.793C475.398 753.912 475.962 754.146 476.464 754.482C485.485 760.601 496.004 764.143 506.889 764.726C522.569 765.445 534.936 759.546 542.521 754.482C543.536 753.804 544.778 753.556 545.975 753.794C547.172 754.032 548.226 754.735 548.904 755.75C549.583 756.764 549.83 758.007 549.592 759.204C549.355 760.401 548.651 761.454 547.637 762.133C539.392 767.601 526.254 773.958 509.503 773.958Z" fill="#7A221B"/>
<path d="M511.639 670.067C482.475 670.067 453.919 668.76 426.754 666.075C386.81 662.188 349.329 655.452 315.356 646.058C280.155 636.33 248.554 623.688 221.435 608.492C192.891 592.505 169.052 573.539 150.589 552.123C131.042 529.453 117.335 503.837 109.842 475.999C105.238 458.624 102.938 440.72 103.001 422.747C103.001 382.104 114.258 338.553 135.55 296.806C156.293 256.118 186.593 217.036 223.173 183.782C261.241 149.103 305.079 121.346 352.706 101.764C403.959 80.6883 457.433 70 511.639 70C523.837 70 536.198 70.5553 548.382 71.6594C581.081 74.6424 613.315 81.462 644.42 91.9776C674.458 102.143 703.305 115.536 730.456 131.922C782.813 163.477 828.179 205.511 861.655 253.485C880.32 280.225 894.831 308.135 904.774 336.456C915.051 365.666 920.264 394.7 920.264 422.76C920.264 502.465 877.746 567.548 797.303 611.001C725.758 649.638 626.97 670.067 511.639 670.067ZM511.639 98.2234C413.341 98.2234 317.643 136.024 242.165 204.656C172.697 267.812 131.225 349.346 131.225 422.747C131.163 438.243 133.14 453.681 137.105 468.662C149.766 515.701 182.785 554.488 235.233 583.868C284.99 611.745 352.177 630.456 429.498 637.989C455.761 640.55 483.396 641.844 511.646 641.844C622.312 641.844 716.455 622.59 783.91 586.155C855.671 547.393 892.061 492.417 892.061 422.747C892.061 372.774 873.545 319.836 838.488 269.648C772.588 175.204 660.446 110.114 545.801 99.7848C534.506 98.746 522.987 98.2234 511.639 98.2234V98.2234Z" fill="#7A221B"/>
</svg>
