<svg xmlns="http://www.w3.org/2000/svg" viewBox="0 0 197.07 197.07"><defs><style>.cls-1{isolation:isolate;}.cls-2{fill:#414042;}.cls-3,.cls-4{fill:#6d6e71;}.cls-4{opacity:0.3;mix-blend-mode:multiply;}.cls-5{fill:#06f;}.cls-11,.cls-12,.cls-5{mix-blend-mode:overlay;}.cls-6{fill:#808285;}.cls-7{fill:#a7a9ac;}.cls-8{fill:#adc8c8;}.cls-9{fill:#c6e6e5;}.cls-10{fill:#bcdbda;}.cls-11{fill:#bcbec0;opacity:0.6;}.cls-12{fill:#fff;opacity:0.9;}.cls-13{fill:#6ff;}</style></defs><g class="cls-1"><g id="Layer_2" data-name="Layer 2"><g id="Layer_1-2" data-name="Layer 1"><rect class="cls-2" x="0.22" y="164.55" width="196.69" height="32.52"/><rect class="cls-3" x="2.59" y="165.55" width="192.47" height="30.09"/><path class="cls-4" d="M186.54,165.55a13.72,13.72,0,0,1,4.18,9.77,14.18,14.18,0,0,1-14.19,13.89H22.66A14.17,14.17,0,0,1,8.47,175.32a13.75,13.75,0,0,1,4.17-9.77h-10v30.08H195.06V165.55Z"/><rect class="cls-5" x="82.31" y="82.46" width="32.52" height="196.69" transform="translate(279.38 82.24) rotate(90)"/><path class="cls-3" d="M187.44,0H9.7C4.38,0,.07,2,.07,4.41V60.56c-.08.07-.1.14,0,.18V161c0,2.44,4.31,4.42,9.63,4.42H187.44c5.32,0,9.63-2,9.63-4.42V4.41C197.07,2,192.76,0,187.44,0Z"/><path class="cls-6" d="M186,163.59H11.34c-5.22,0-9.46-3.05-9.46-6.81V7c0-2.56,2.73-4.61,6-4.51,5.49.17,11,0,16.47,0,8.15,0,16.29,0,24.43,0h97.64c14.24,0,28.69.48,42.95-.06,3.31-.12,6.08,1.93,6.08,4.51V156.78C195.47,160.54,191.23,163.59,186,163.59Z"/><path class="cls-7" d="M184.29,157.77H18.8c-4.94,0-9-2.84-9-6.33V14.68c0-3.84,4.18-6.91,9.27-6.87,4,0,8.07,0,12.05,0,7.71,0,15.43,0,23.14,0h92.5c12.28,0,24.72.38,37,.07,5.14-.13,9.39,3,9.39,6.86V151.44C193.24,154.93,189.24,157.77,184.29,157.77Z"/><path class="cls-6" d="M29.75,25c-.64-2.39-1.69-4.73-3.82-6.11-1.66-1.08-8.6-1.08-10.27,0-2.13,1.38-3.18,3.72-3.82,6.11-.92,3.44-.51,7.18-.24,10.68.33,4.15.57,8.3.84,12.46C13,56.42,13.72,64.71,14.57,73c.4,3.9.47,11.5,5.34,12.47a.51.51,0,0,0,.26.09c.22,0,.43,0,.63,0s.41,0,.63,0a.54.54,0,0,0,.26-.09C26.56,84.5,26.62,76.9,27,73c.86-8.29,1.59-16.58,2.14-24.9.27-4.16.51-8.31.83-12.46C30.26,32.14,30.67,28.4,29.75,25Z"/><path class="cls-2" d="M28.73,23.86c-.48-2.06-1.26-4.08-2.85-5.27-1.24-.93-6.41-.93-7.64,0-1.6,1.19-2.37,3.21-2.85,5.27-.69,3-.38,6.21-.18,9.24.23,3.58.42,7.17.62,10.76q.61,10.78,1.59,21.52c.3,3.37.34,9.93,4,10.77a.53.53,0,0,0,.19.09,3.69,3.69,0,0,0,.47,0,3.68,3.68,0,0,0,.47,0,.46.46,0,0,0,.19-.09c3.62-.84,3.67-7.4,4-10.77.63-7.16,1.18-14.33,1.59-21.52.19-3.59.38-7.18.61-10.76C29.1,30.07,29.41,26.84,28.73,23.86Z"/><path class="cls-3" d="M27.65,29.16c-.13,5.69-.37,11.39-.67,17.08-.33,6-.67,11.95-1.2,17.9-.22,2.45-.21,5.24-.92,7.59a4.57,4.57,0,0,1-2.8,3.18,4.53,4.53,0,0,1-2.8-3.18c-.72-2.35-.71-5.14-.93-7.59-.53-6-.87-11.93-1.19-17.9q-.47-8.54-.67-17.08a24.36,24.36,0,0,1,1.34-8.3c.93-2.72,7-3.48,8.49,0A20.33,20.33,0,0,1,27.65,29.16Z"/><path class="cls-2" d="M29.45,26.44a8.62,8.62,0,0,0-3.2-5.29c-1.39-.93-7.19-.93-8.58,0a8.58,8.58,0,0,0-3.2,5.29c-.77,3-.43,6.23-.2,9.26.27,3.59.47,7.19.69,10.78.46,7.21,1.08,14.4,1.79,21.58.34,3.38.39,10,4.46,10.81a1,1,0,0,0,.22.08h1.06a1,1,0,0,0,.22-.08c4.06-.85,4.12-7.43,4.46-10.81.71-7.18,1.32-14.37,1.79-21.58.22-3.59.42-7.19.68-10.78C29.87,32.67,30.22,29.42,29.45,26.44Z"/><path class="cls-3" d="M28.23,31.74c-.14,5.72-.41,11.43-.75,17.13-.36,6-.74,12-1.33,17.95-.25,2.46-.24,5.25-1,7.6A4.76,4.76,0,0,1,22,77.61a4.75,4.75,0,0,1-3.14-3.19c-.8-2.35-.79-5.14-1-7.6-.6-6-1-12-1.34-17.95-.34-5.7-.61-11.41-.76-17.13a22.23,22.23,0,0,1,1.51-8.32c1-2.72,7.86-3.49,9.54,0A18.17,18.17,0,0,1,28.23,31.74Z"/><path class="cls-7" d="M23.54,74.45S25,37.88,24.41,31.1s-2.91-7.44-4.95-6.77,6.12-5.19,6.7,1.59S26.73,64.74,23.54,74.45Z"/><g class="cls-1"><polygon class="cls-8" points="85.48 144.72 87.17 146.72 60.07 146.72 62.43 144.72 85.48 144.72"/><polygon class="cls-9" points="93.04 99.73 94.73 101.73 87.17 146.72 85.48 144.72 93.04 99.73"/><polygon class="cls-8" points="135.16 99.73 136.86 101.73 94.73 101.73 93.04 99.73 135.16 99.73"/><polygon class="cls-9" points="138.06 82.24 140.42 80.24 136.86 101.73 135.16 99.73 138.06 82.24"/><polygon class="cls-9" points="94.98 82.24 97.35 80.24 140.42 80.24 138.06 82.24 94.98 82.24"/><polygon class="cls-9" points="99.88 52.92 101.58 54.92 97.35 80.24 94.98 82.24 99.88 52.92"/><polygon class="cls-8" points="150.6 52.92 152.29 54.92 101.58 54.92 99.88 52.92 150.6 52.92"/><polygon class="cls-10" points="150.6 52.92 99.88 52.92 94.98 82.24 138.06 82.24 135.16 99.73 93.04 99.73 85.48 144.72 62.43 144.72 80.69 35.42 153.5 35.42 150.6 52.92"/><polygon class="cls-8" points="62.43 144.72 60.07 146.72 79 33.42 80.69 35.42 62.43 144.72"/><polygon class="cls-9" points="80.69 35.42 79 33.42 155.86 33.42 153.5 35.42 80.69 35.42"/><polygon class="cls-9" points="153.5 35.42 155.86 33.42 152.29 54.92 150.6 52.92 153.5 35.42"/></g><path class="cls-11" d="M13.43,25.81C18,19.11,25.51,15.72,33,14.25c9.08-1.76,18.33-1.41,27.49-.64,8.89.76,17.8,1.48,26.6,3,29.33,5.12,57.4,17.86,79.34,39.38,11.36,11.15,20,23.85,25.15,39.4.54,1.65,1,3.3,1.54,5V16.05a8.94,8.94,0,0,0-9-8.92H18.79a8.94,8.94,0,0,0-8.95,8.92V33.56A29.29,29.29,0,0,1,13.43,25.81Z"/><path class="cls-12" d="M38.49,8.49c20.8,1.4,41.64,1,62.46,2.1,17.91,1,69.24.82,76.46,2.9,5.52,1.58,9,6,10.36,12.08,1.59,7.33,3.53,38.61,3.61,46.82.09,10-.16,21,1.75,31.27V16.53a9.19,9.19,0,0,0-9-9.4H18.42a9,9,0,0,0-8.19,5.59C17.4,6.73,31.07,8,38.49,8.49Z"/><path class="cls-5" d="M21.49-15.76H174.44A6.73,6.73,0,0,1,181.16-9V175.36a5.81,5.81,0,0,1-5.81,5.81H21.49a5.73,5.73,0,0,1-5.73-5.73V-10a5.73,5.73,0,0,1,5.73-5.73Z" transform="translate(181.16 -15.76) rotate(90)"/><path class="cls-13" d="M55.83,171.42H51.45v5h3.74v2.2H51.45v7.49H48.91V169.18h6.92Z"/><path class="cls-13" d="M65.94,186.12H63.3l-2.79-7.87v-1.53H63v-5.36H59.8v14.76H57.27V169.18H64a1.37,1.37,0,0,1,1.53,1.56v6.16a1.33,1.33,0,0,1-.73,1.38,5.08,5.08,0,0,1-1.64.17Z"/><path class="cls-13" d="M70.06,186.12H67.53V169.18h2.53Z"/><path class="cls-13" d="M80.59,182.93a3.09,3.09,0,0,1-.89,2.34,3.3,3.3,0,0,1-2.39.85H72.14V169.18h5.17a3.3,3.3,0,0,1,2.39.86,3.14,3.14,0,0,1,.89,2.36ZM78,182.51v-9.74c0-.94-.49-1.41-1.48-1.41H74.68V184H76.5C77.53,184,78,183.47,78,182.51Z"/><path class="cls-13" d="M90.93,184.57a1.37,1.37,0,0,1-1.55,1.55H84.05c-1,0-1.5-.51-1.5-1.55V170.74a1.37,1.37,0,0,1,1.53-1.56h5.3a1.38,1.38,0,0,1,1.55,1.56v3.61H88.38v-3h-3.3V184h3.3V179.2H86.5v-2.15h4.43Z"/><path class="cls-13" d="M100,186.12H93V169.18h7v2.24H95.48v5h3.81v2.2H95.48v5.31H100Z"/><path class="cls-13" d="M106.68,180.73h-5.17v-2.26h5.17Z"/><path class="cls-13" d="M117,169.18l-3.25,17H111.2l-3.24-17h2.55l1.89,11.62c0,.33,0,.81.07,1.45a14.31,14.31,0,0,1,.06-1.45l1.91-11.62Z"/><path class="cls-13" d="M125.42,186.12h-7V169.18h7v2.24h-4.43v5h3.81v2.2h-3.81v5.31h4.49Z"/><path class="cls-13" d="M135.28,184.57a1.37,1.37,0,0,1-1.54,1.55h-5.1a1.36,1.36,0,0,1-1.53-1.55v-4h2.54V184h3.09v-3.33l-5.07-4.8a1.81,1.81,0,0,1-.56-1.35v-3.77a1.37,1.37,0,0,1,1.53-1.56h5.1a1.36,1.36,0,0,1,1.54,1.54v3.79h-2.54v-3.2h-3.09v3.07l5.07,4.78a1.82,1.82,0,0,1,.56,1.38Z"/><path class="cls-13" d="M144.65,171.42h-2.79v14.7h-2.52v-14.7h-2.8v-2.24h8.11Z"/></g></g></g></svg>