<svg width="200" height="200" viewBox="0 0 200 200" fill="none" xmlns="http://www.w3.org/2000/svg">
<circle cx="100" cy="100" r="96.52" fill="black" stroke="url(#paint0_linear)" stroke-width="6.96"/>
<path d="M76.2607 41.043L86.6955 50.956C90.6086 54.6082 92.6955 59.5647 92.6955 65.043C92.6955 70.2603 94.7825 75.2169 98.4346 78.869L99.739 80.1734L111.739 41.3038" fill="url(#paint1_linear)"/>
<path d="M40.7822 75.7389L55.1301 75.2172C60.3474 74.9563 65.5648 77.0433 69.2169 80.6954C72.8691 84.3476 77.8256 86.1737 83.043 86.1737H84.8691L65.5648 50.4346" fill="url(#paint2_linear)"/>
<path d="M40.7826 125.305L50.4348 114.87C54.087 110.957 59.0435 108.609 64.2609 108.609C69.4783 108.609 74.1739 106.261 77.8261 102.609L79.1304 101.305L40 90.0874" fill="url(#paint3_linear)"/>
<path d="M76.2607 159.739L75.4781 145.391C75.2172 140.174 77.0433 134.956 80.6954 131.043C84.0867 127.391 86.1737 122.174 85.9128 117.217V115.391L50.4346 135.478" fill="url(#paint4_linear)"/>
<path d="M125.827 158.695L115.131 149.304C111.218 145.913 108.87 140.956 108.609 135.478C108.349 130.261 106.001 125.565 102.349 121.913L101.044 120.608L90.6094 160" fill="url(#paint5_linear)"/>
<path d="M159.74 122.435L145.392 123.478C140.174 124 134.957 122.174 131.044 118.522C127.131 115.13 122.174 113.304 116.957 113.565H115.131L136 148.522" fill="url(#paint6_linear)"/>
<path d="M157.39 73.1304L148.26 84.0869C144.868 87.9999 139.912 90.6086 134.695 90.8695C129.477 91.1304 124.781 93.4782 121.39 97.3912L120.347 98.6956L159.999 108.087" fill="url(#paint7_linear)"/>
<path d="M120.608 40L121.912 54.3478C122.434 59.5652 120.869 64.7826 117.217 68.9565C113.825 72.8696 112.26 77.8261 112.521 83.0435L112.782 84.8696L147.217 63.2174" fill="url(#paint8_linear)"/>
<defs>
<linearGradient id="paint0_linear" x1="220.945" y1="-98.2005" x2="-121.054" y2="196.774" gradientUnits="userSpaceOnUse">
<stop stop-color="#FF0000"/>
<stop offset="1" stop-color="#FFC700"/>
</linearGradient>
<linearGradient id="paint1_linear" x1="115.455" y1="21.8298" x2="49.8033" y2="73.1693" gradientUnits="userSpaceOnUse">
<stop stop-color="#FF0000"/>
<stop offset="1" stop-color="#FFC700"/>
</linearGradient>
<linearGradient id="paint2_linear" x1="89.4862" y1="32.8866" x2="27.8213" y2="98.4956" gradientUnits="userSpaceOnUse">
<stop stop-color="#FF0000"/>
<stop offset="1" stop-color="#FFC700"/>
</linearGradient>
<linearGradient id="paint3_linear" x1="83.2282" y1="72.7957" x2="22.402" y2="131.088" gradientUnits="userSpaceOnUse">
<stop stop-color="#FF0000"/>
<stop offset="1" stop-color="#FFC700"/>
</linearGradient>
<linearGradient id="paint4_linear" x1="89.6524" y1="93.6163" x2="17.9624" y2="143.113" gradientUnits="userSpaceOnUse">
<stop stop-color="#FF0000"/>
<stop offset="1" stop-color="#FFC700"/>
</linearGradient>
<linearGradient id="paint5_linear" x1="129.515" y1="101.267" x2="63.6552" y2="152.052" gradientUnits="userSpaceOnUse">
<stop stop-color="#FF0000"/>
<stop offset="1" stop-color="#FFC700"/>
</linearGradient>
<linearGradient id="paint6_linear" x1="164.411" y1="96.3647" x2="104.211" y2="162.578" gradientUnits="userSpaceOnUse">
<stop stop-color="#FF0000"/>
<stop offset="1" stop-color="#FFC700"/>
</linearGradient>
<linearGradient id="paint7_linear" x1="164.151" y1="55.9666" x2="103.736" y2="115.075" gradientUnits="userSpaceOnUse">
<stop stop-color="#FF0000"/>
<stop offset="1" stop-color="#FFC700"/>
</linearGradient>
<linearGradient id="paint8_linear" x1="150.853" y1="17.9689" x2="79.2193" y2="65.7826" gradientUnits="userSpaceOnUse">
<stop stop-color="#FF0000"/>
<stop offset="1" stop-color="#FFC700"/>
</linearGradient>
</defs>
</svg>
